G04 #@! TF.GenerationSoftware,KiCad,Pcbnew,(5.1.9)-1*
G04 #@! TF.CreationDate,2025-01-16T13:32:40+09:00*
G04 #@! TF.ProjectId,JR-200_SD,4a522d32-3030-45f5-9344-2e6b69636164,rev?*
G04 #@! TF.SameCoordinates,PX53920b0PY93c3260*
G04 #@! TF.FileFunction,Copper,L2,Bot*
G04 #@! TF.FilePolarity,Positive*
%FSLAX46Y46*%
G04 Gerber Fmt 4.6, Leading zero omitted, Abs format (unit mm)*
G04 Created by KiCad (PCBNEW (5.1.9)-1) date 2025-01-16 13:32:40*
%MOMM*%
%LPD*%
G01*
G04 APERTURE LIST*
G04 #@! TA.AperFunction,ComponentPad*
%ADD10C,1.600000*%
G04 #@! TD*
G04 #@! TA.AperFunction,ComponentPad*
%ADD11R,2.400000X1.600000*%
G04 #@! TD*
G04 #@! TA.AperFunction,ComponentPad*
%ADD12O,2.400000X1.600000*%
G04 #@! TD*
G04 #@! TA.AperFunction,ComponentPad*
%ADD13R,1.700000X1.700000*%
G04 #@! TD*
G04 #@! TA.AperFunction,ComponentPad*
%ADD14O,1.700000X1.700000*%
G04 #@! TD*
G04 #@! TA.AperFunction,ComponentPad*
%ADD15R,1.600000X1.600000*%
G04 #@! TD*
G04 #@! TA.AperFunction,ComponentPad*
%ADD16O,1.600000X1.600000*%
G04 #@! TD*
G04 #@! TA.AperFunction,ComponentPad*
%ADD17R,1.600000X2.400000*%
G04 #@! TD*
G04 #@! TA.AperFunction,ComponentPad*
%ADD18O,1.600000X2.400000*%
G04 #@! TD*
G04 #@! TA.AperFunction,ViaPad*
%ADD19C,0.500000*%
G04 #@! TD*
G04 #@! TA.AperFunction,Conductor*
%ADD20C,0.400000*%
G04 #@! TD*
G04 #@! TA.AperFunction,Conductor*
%ADD21C,0.200000*%
G04 #@! TD*
G04 #@! TA.AperFunction,Conductor*
%ADD22C,0.254000*%
G04 #@! TD*
G04 #@! TA.AperFunction,Conductor*
%ADD23C,0.100000*%
G04 #@! TD*
G04 APERTURE END LIST*
D10*
X41312000Y58522000D03*
X43812000Y58522000D03*
D11*
X50837000Y6452000D03*
D12*
X35597000Y54712000D03*
X50837000Y8992000D03*
X35597000Y52172000D03*
X50837000Y11532000D03*
X35597000Y49632000D03*
X50837000Y14072000D03*
X35597000Y47092000D03*
X50837000Y16612000D03*
X35597000Y44552000D03*
X50837000Y19152000D03*
X35597000Y42012000D03*
X50837000Y21692000D03*
X35597000Y39472000D03*
X50837000Y24232000D03*
X35597000Y36932000D03*
X50837000Y26772000D03*
X35597000Y34392000D03*
X50837000Y29312000D03*
X35597000Y31852000D03*
X50837000Y31852000D03*
X35597000Y29312000D03*
X50837000Y34392000D03*
X35597000Y26772000D03*
X50837000Y36932000D03*
X35597000Y24232000D03*
X50837000Y39472000D03*
X35597000Y21692000D03*
X50837000Y42012000D03*
X35597000Y19152000D03*
X50837000Y44552000D03*
X35597000Y16612000D03*
X50837000Y47092000D03*
X35597000Y14072000D03*
X50837000Y49632000D03*
X35597000Y11532000D03*
X50837000Y52172000D03*
X35597000Y8992000D03*
X50837000Y54712000D03*
X35597000Y6452000D03*
D10*
X54610000Y77470000D03*
X54610000Y79970000D03*
D13*
X69850000Y58420000D03*
D14*
X69850000Y55880000D03*
X69850000Y53340000D03*
X69850000Y50800000D03*
X69850000Y48260000D03*
X69850000Y45720000D03*
X69850000Y43180000D03*
X69850000Y40640000D03*
X69850000Y38100000D03*
X97790000Y38100000D03*
X95250000Y38100000D03*
X97790000Y58420000D03*
X95250000Y58420000D03*
D15*
X90170000Y27940000D03*
D16*
X87630000Y27940000D03*
X85090000Y27940000D03*
X62230000Y12700000D03*
X82550000Y27940000D03*
X64770000Y12700000D03*
X80010000Y27940000D03*
X67310000Y12700000D03*
X77470000Y27940000D03*
X69850000Y12700000D03*
X74930000Y27940000D03*
X72390000Y12700000D03*
X72390000Y27940000D03*
X74930000Y12700000D03*
X69850000Y27940000D03*
X77470000Y12700000D03*
X67310000Y27940000D03*
X80010000Y12700000D03*
X64770000Y27940000D03*
X82550000Y12700000D03*
X62230000Y27940000D03*
X85090000Y12700000D03*
X87630000Y12700000D03*
X90170000Y12700000D03*
X81280000Y15240000D03*
X78740000Y15240000D03*
X71120000Y15240000D03*
X68580000Y15240000D03*
D13*
X60960000Y53975000D03*
D14*
X60960000Y51435000D03*
X60960000Y48895000D03*
X60960000Y46355000D03*
X60960000Y43815000D03*
X60960000Y41275000D03*
D13*
X6350000Y17780000D03*
D14*
X3810000Y17780000D03*
X6350000Y20320000D03*
X3810000Y20320000D03*
X6350000Y22860000D03*
X3810000Y22860000D03*
X6350000Y25400000D03*
X3810000Y25400000D03*
X6350000Y27940000D03*
X3810000Y27940000D03*
X6350000Y30480000D03*
X3810000Y30480000D03*
X6350000Y33020000D03*
X3810000Y33020000D03*
X6350000Y35560000D03*
X3810000Y35560000D03*
X6350000Y38100000D03*
X3810000Y38100000D03*
X6350000Y40640000D03*
X3810000Y40640000D03*
X6350000Y43180000D03*
X3810000Y43180000D03*
X6350000Y45720000D03*
X3810000Y45720000D03*
X6350000Y48260000D03*
X3810000Y48260000D03*
X6350000Y50800000D03*
X3810000Y50800000D03*
X6350000Y53340000D03*
X3810000Y53340000D03*
X6350000Y55880000D03*
X3810000Y55880000D03*
X6350000Y58420000D03*
X3810000Y58420000D03*
X6350000Y60960000D03*
X3810000Y60960000D03*
X6350000Y63500000D03*
X3810000Y63500000D03*
X6350000Y66040000D03*
X3810000Y66040000D03*
X6350000Y68580000D03*
X3810000Y68580000D03*
X6350000Y71120000D03*
X3810000Y71120000D03*
X6350000Y73660000D03*
X3810000Y73660000D03*
X6350000Y76200000D03*
X3810000Y76200000D03*
X6350000Y78740000D03*
X3810000Y78740000D03*
D15*
X12700000Y63500000D03*
D10*
X15200000Y63500000D03*
D12*
X20320000Y30480000D03*
X27940000Y45720000D03*
X20320000Y33020000D03*
X27940000Y43180000D03*
X20320000Y35560000D03*
X27940000Y40640000D03*
X20320000Y38100000D03*
X27940000Y38100000D03*
X20320000Y40640000D03*
X27940000Y35560000D03*
X20320000Y43180000D03*
X27940000Y33020000D03*
X20320000Y45720000D03*
D11*
X27940000Y30480000D03*
X27940000Y54610000D03*
D12*
X20320000Y69850000D03*
X27940000Y57150000D03*
X20320000Y67310000D03*
X27940000Y59690000D03*
X20320000Y64770000D03*
X27940000Y62230000D03*
X20320000Y62230000D03*
X27940000Y64770000D03*
X20320000Y59690000D03*
X27940000Y67310000D03*
X20320000Y57150000D03*
X27940000Y69850000D03*
X20320000Y54610000D03*
D11*
X34290000Y78740000D03*
D12*
X26670000Y93980000D03*
X34290000Y81280000D03*
X26670000Y91440000D03*
X34290000Y83820000D03*
X26670000Y88900000D03*
X34290000Y86360000D03*
X26670000Y86360000D03*
X34290000Y88900000D03*
X26670000Y83820000D03*
X34290000Y91440000D03*
X26670000Y81280000D03*
X34290000Y93980000D03*
X26670000Y78740000D03*
X20320000Y6350000D03*
X27940000Y21590000D03*
X20320000Y8890000D03*
X27940000Y19050000D03*
X20320000Y11430000D03*
X27940000Y16510000D03*
X20320000Y13970000D03*
X27940000Y13970000D03*
X20320000Y16510000D03*
X27940000Y11430000D03*
X20320000Y19050000D03*
X27940000Y8890000D03*
X20320000Y21590000D03*
D11*
X27940000Y6350000D03*
D12*
X40640000Y78740000D03*
X48260000Y93980000D03*
X40640000Y81280000D03*
X48260000Y91440000D03*
X40640000Y83820000D03*
X48260000Y88900000D03*
X40640000Y86360000D03*
X48260000Y86360000D03*
X40640000Y88900000D03*
X48260000Y83820000D03*
X40640000Y91440000D03*
X48260000Y81280000D03*
X40640000Y93980000D03*
D11*
X48260000Y78740000D03*
D12*
X12700000Y78740000D03*
X20320000Y93980000D03*
X12700000Y81280000D03*
X20320000Y91440000D03*
X12700000Y83820000D03*
X20320000Y88900000D03*
X12700000Y86360000D03*
X20320000Y86360000D03*
X12700000Y88900000D03*
X20320000Y83820000D03*
X12700000Y91440000D03*
X20320000Y81280000D03*
X12700000Y93980000D03*
D11*
X20320000Y78740000D03*
D10*
X22860000Y50800000D03*
X25360000Y50800000D03*
X22860000Y2540000D03*
X25360000Y2540000D03*
X15240000Y74930000D03*
X17740000Y74930000D03*
X25400000Y26670000D03*
X22900000Y26670000D03*
X29210000Y74930000D03*
X31710000Y74930000D03*
X45680000Y74930000D03*
X43180000Y74930000D03*
D13*
X56515000Y93345000D03*
D14*
X59055000Y93345000D03*
X61595000Y93345000D03*
X86995000Y93345000D03*
X84455000Y93345000D03*
D13*
X81915000Y93345000D03*
D17*
X58420000Y71120000D03*
D18*
X91440000Y86360000D03*
X60960000Y71120000D03*
X88900000Y86360000D03*
X63500000Y71120000D03*
X86360000Y86360000D03*
X66040000Y71120000D03*
X83820000Y86360000D03*
X68580000Y71120000D03*
X81280000Y86360000D03*
X71120000Y71120000D03*
X78740000Y86360000D03*
X73660000Y71120000D03*
X76200000Y86360000D03*
X76200000Y71120000D03*
X73660000Y86360000D03*
X78740000Y71120000D03*
X71120000Y86360000D03*
X81280000Y71120000D03*
X68580000Y86360000D03*
X83820000Y71120000D03*
X66040000Y86360000D03*
X86360000Y71120000D03*
X63500000Y86360000D03*
X88900000Y71120000D03*
X60960000Y86360000D03*
X91440000Y71120000D03*
X58420000Y86360000D03*
D19*
X25126900Y69518500D03*
X7913900Y23837200D03*
X38436900Y17360700D03*
X60314900Y68647300D03*
X46038200Y92195100D03*
X41156100Y19743900D03*
X20586200Y20320000D03*
X42696000Y72116900D03*
X62865800Y72737800D03*
X25583200Y32927900D03*
X25655700Y33728000D03*
X15600300Y44569700D03*
X25826400Y68580000D03*
X49240700Y59973100D03*
X45372700Y61111300D03*
X44766600Y59695500D03*
X49336600Y33660200D03*
X42603300Y60192100D03*
X32748700Y18420200D03*
X51633600Y25502000D03*
X44353600Y56730400D03*
X22402000Y17422900D03*
X23093900Y60959300D03*
X25809300Y12438900D03*
X42053000Y49741000D03*
X41978000Y47781100D03*
X41337100Y46828500D03*
X40376000Y44964000D03*
D20*
X18719700Y62230000D02*
X14720200Y62230000D01*
X14720200Y62230000D02*
X13900300Y63049900D01*
X13900300Y63049900D02*
X13900300Y63500000D01*
X12700000Y63500000D02*
X13900300Y63500000D01*
X18719700Y62230000D02*
X18719700Y59690000D01*
X20320000Y62230000D02*
X18719700Y62230000D01*
X69850000Y58420000D02*
X68599700Y58420000D01*
X60960000Y51435000D02*
X62210300Y51435000D01*
X62210300Y51435000D02*
X68599700Y57824400D01*
X68599700Y57824400D02*
X68599700Y58420000D01*
X22900000Y26670000D02*
X23052400Y26517600D01*
X23052400Y26517600D02*
X23052400Y7482100D01*
X23052400Y7482100D02*
X21920300Y6350000D01*
X22900000Y26670000D02*
X22900000Y50760000D01*
X22900000Y50760000D02*
X22860000Y50800000D01*
X20320000Y6350000D02*
X21920300Y6350000D01*
X58420000Y86360000D02*
X58420000Y87960300D01*
X58420000Y87960300D02*
X61595000Y91135300D01*
X61595000Y91135300D02*
X61595000Y93345000D01*
X41312000Y58522000D02*
X32524000Y67310000D01*
X32524000Y67310000D02*
X29540300Y67310000D01*
X27940000Y67310000D02*
X29540300Y67310000D01*
X29540300Y67310000D02*
X29540300Y74599700D01*
X29540300Y74599700D02*
X29210000Y74930000D01*
X20320000Y54610000D02*
X18719700Y54610000D01*
X18719700Y54610000D02*
X18719700Y59690000D01*
X20320000Y59690000D02*
X18719700Y59690000D01*
X12700000Y78740000D02*
X11099700Y78740000D01*
X12700000Y83820000D02*
X11099700Y83820000D01*
X11099700Y83820000D02*
X11099700Y78740000D01*
X54610000Y79970000D02*
X51598100Y76958100D01*
X51598100Y76958100D02*
X45208100Y76958100D01*
X45208100Y76958100D02*
X43180000Y74930000D01*
X25360000Y50800000D02*
X24911200Y50351200D01*
X24911200Y50351200D02*
X24911200Y27158800D01*
X24911200Y27158800D02*
X25400000Y26670000D01*
X25126900Y69518500D02*
X25126900Y51033100D01*
X25126900Y51033100D02*
X25360000Y50800000D01*
X31710000Y74930000D02*
X43812000Y62828000D01*
X43812000Y62828000D02*
X43812000Y58522000D01*
X23200700Y4699300D02*
X26339600Y7838200D01*
X26339600Y7838200D02*
X26339600Y12049500D01*
X26339600Y12049500D02*
X26459600Y12169500D01*
X26459600Y12169500D02*
X26459600Y12708300D01*
X26459600Y12708300D02*
X26339600Y12828300D01*
X26339600Y12828300D02*
X26339600Y21590000D01*
X26489800Y21590000D02*
X26339600Y21590000D01*
X26339600Y21590000D02*
X26339600Y25730400D01*
X26339600Y25730400D02*
X25400000Y26670000D01*
X23200700Y4699300D02*
X25360000Y2540000D01*
X7600300Y17780000D02*
X7600300Y16920400D01*
X7600300Y16920400D02*
X19821400Y4699300D01*
X19821400Y4699300D02*
X23200700Y4699300D01*
X27940000Y21590000D02*
X26489800Y21590000D01*
X54610000Y77470000D02*
X52070000Y74930000D01*
X52070000Y74930000D02*
X45680000Y74930000D01*
X6350000Y17780000D02*
X7600300Y17780000D01*
X15200000Y72390000D02*
X9448100Y78141900D01*
X9448100Y78141900D02*
X6350000Y78141900D01*
X3810000Y78740000D02*
X5060300Y78740000D01*
X6350000Y78441000D02*
X5359300Y78441000D01*
X5359300Y78441000D02*
X5060300Y78740000D01*
X6350000Y78441000D02*
X6350000Y78141900D01*
X6350000Y78740000D02*
X6350000Y78441000D01*
X78740000Y86360000D02*
X78740000Y84759700D01*
X91440000Y71120000D02*
X91440000Y72720300D01*
X91440000Y72720300D02*
X79400600Y84759700D01*
X79400600Y84759700D02*
X78740000Y84759700D01*
X78740000Y86360000D02*
X78740000Y87960300D01*
X78740000Y87960300D02*
X81915000Y91135300D01*
X81915000Y91135300D02*
X81915000Y93345000D01*
X15200000Y72390000D02*
X17740000Y74930000D01*
X15200000Y63500000D02*
X15200000Y72390000D01*
D21*
X81280000Y69619700D02*
X81280000Y63129100D01*
X81280000Y63129100D02*
X70220900Y52070000D01*
X70220900Y52070000D02*
X69460300Y52070000D01*
X69460300Y52070000D02*
X65276200Y47885900D01*
X65276200Y47885900D02*
X65276200Y39710900D01*
X65276200Y39710900D02*
X52337300Y26772000D01*
X6350000Y29329700D02*
X6637600Y29329700D01*
X6637600Y29329700D02*
X7913900Y28053400D01*
X7913900Y28053400D02*
X7913900Y23837200D01*
X6350000Y30480000D02*
X6350000Y29329700D01*
X81280000Y71120000D02*
X81280000Y69619700D01*
X50837000Y26772000D02*
X52337300Y26772000D01*
X66040000Y84859700D02*
X59529800Y78349500D01*
X59529800Y78349500D02*
X59529800Y67577300D01*
X59529800Y67577300D02*
X46786600Y54834100D01*
X46786600Y54834100D02*
X46786600Y26152600D01*
X46786600Y26152600D02*
X38436900Y17802900D01*
X38436900Y17802900D02*
X38436900Y17360700D01*
X66040000Y86360000D02*
X66040000Y84859700D01*
X6350000Y40640000D02*
X6350000Y39489700D01*
X20320000Y11430000D02*
X18819700Y11430000D01*
X18819700Y11430000D02*
X8916400Y21333300D01*
X8916400Y21333300D02*
X8916400Y37161600D01*
X8916400Y37161600D02*
X6588300Y39489700D01*
X6588300Y39489700D02*
X6350000Y39489700D01*
X50837000Y24232000D02*
X49336700Y24232000D01*
X78740000Y71120000D02*
X78740000Y63116900D01*
X78740000Y63116900D02*
X70233100Y54610000D01*
X70233100Y54610000D02*
X69480700Y54610000D01*
X69480700Y54610000D02*
X63434700Y48564000D01*
X63434700Y48564000D02*
X63434700Y39910800D01*
X63434700Y39910800D02*
X51565900Y28042000D01*
X51565900Y28042000D02*
X50143500Y28042000D01*
X50143500Y28042000D02*
X49336700Y27235200D01*
X49336700Y27235200D02*
X49336700Y24232000D01*
X68580000Y86360000D02*
X68580000Y84859700D01*
X68580000Y84859700D02*
X62300900Y78580600D01*
X62300900Y78580600D02*
X62300900Y70491000D01*
X62300900Y70491000D02*
X60457200Y68647300D01*
X60457200Y68647300D02*
X60314900Y68647300D01*
X6350000Y33020000D02*
X6350000Y34170300D01*
X46038200Y92195100D02*
X42336200Y95897100D01*
X42336200Y95897100D02*
X20252300Y95897100D01*
X20252300Y95897100D02*
X15475100Y91119900D01*
X15475100Y91119900D02*
X15475100Y89638200D01*
X15475100Y89638200D02*
X13466900Y87630000D01*
X13466900Y87630000D02*
X9891600Y87630000D01*
X9891600Y87630000D02*
X1763300Y79501700D01*
X1763300Y79501700D02*
X1763300Y38490100D01*
X1763300Y38490100D02*
X3543000Y36710400D01*
X3543000Y36710400D02*
X4348100Y36710400D01*
X4348100Y36710400D02*
X5080000Y35978500D01*
X5080000Y35978500D02*
X5080000Y35201900D01*
X5080000Y35201900D02*
X6111600Y34170300D01*
X6111600Y34170300D02*
X6350000Y34170300D01*
X76200000Y86360000D02*
X76200000Y84859700D01*
X76200000Y84859700D02*
X64916400Y73576100D01*
X64916400Y73576100D02*
X64916400Y61684500D01*
X64916400Y61684500D02*
X51593900Y48362000D01*
X51593900Y48362000D02*
X50139000Y48362000D01*
X50139000Y48362000D02*
X47797000Y46020000D01*
X47797000Y46020000D02*
X47797000Y26384800D01*
X47797000Y26384800D02*
X41156100Y19743900D01*
X6350000Y43180000D02*
X6350000Y42029700D01*
X20586200Y20320000D02*
X19625700Y20320000D01*
X19625700Y20320000D02*
X17294200Y22651500D01*
X17294200Y22651500D02*
X17294200Y31323800D01*
X17294200Y31323800D02*
X6588300Y42029700D01*
X6588300Y42029700D02*
X6350000Y42029700D01*
X46759700Y78740000D02*
X46759700Y81280000D01*
X47509900Y78740000D02*
X46759700Y78740000D01*
X46759700Y78740000D02*
X45416200Y78740000D01*
X45416200Y78740000D02*
X42079600Y75403400D01*
X42079600Y75403400D02*
X42079600Y72733300D01*
X42079600Y72733300D02*
X42696000Y72116900D01*
X48260000Y78740000D02*
X47509900Y78740000D01*
X48260000Y81280000D02*
X46759700Y81280000D01*
X62865800Y72737800D02*
X62865800Y76605500D01*
X62865800Y76605500D02*
X71120000Y84859700D01*
X71120000Y86360000D02*
X71120000Y84859700D01*
X27940000Y16510000D02*
X29440300Y16510000D01*
X29440300Y16510000D02*
X29440300Y24740500D01*
X29440300Y24740500D02*
X25583200Y28597600D01*
X25583200Y28597600D02*
X25583200Y32927900D01*
X6350000Y36710300D02*
X6111600Y36710300D01*
X6111600Y36710300D02*
X5080000Y37741900D01*
X5080000Y37741900D02*
X5080000Y38518500D01*
X5080000Y38518500D02*
X4348100Y39250400D01*
X4348100Y39250400D02*
X3571700Y39250400D01*
X3571700Y39250400D02*
X2205600Y40616500D01*
X2205600Y40616500D02*
X2205600Y79341000D01*
X2205600Y79341000D02*
X8017900Y85153300D01*
X8017900Y85153300D02*
X21115200Y85153300D01*
X21115200Y85153300D02*
X22661500Y86699600D01*
X22661500Y86699600D02*
X22661500Y87431500D01*
X22661500Y87431500D02*
X26670000Y91440000D01*
X6350000Y35560000D02*
X6350000Y36710300D01*
X27940000Y30480000D02*
X26439700Y30480000D01*
X25655700Y33728000D02*
X26439700Y32944000D01*
X26439700Y32944000D02*
X26439700Y30480000D01*
X3810000Y45720000D02*
X3810000Y46870300D01*
X26670000Y86360000D02*
X25169700Y86360000D01*
X25169700Y86360000D02*
X21275600Y82465900D01*
X21275600Y82465900D02*
X19028000Y82465900D01*
X19028000Y82465900D02*
X14182000Y77619900D01*
X14182000Y77619900D02*
X10994000Y77619900D01*
X10994000Y77619900D02*
X8699500Y79914400D01*
X8699500Y79914400D02*
X3347400Y79914400D01*
X3347400Y79914400D02*
X2605900Y79172900D01*
X2605900Y79172900D02*
X2605900Y47836000D01*
X2605900Y47836000D02*
X3571600Y46870300D01*
X3571600Y46870300D02*
X3810000Y46870300D01*
X6350000Y38100000D02*
X5199600Y39250400D01*
X5199600Y39250400D02*
X5199600Y43718100D01*
X5199600Y43718100D02*
X6051100Y44569600D01*
X6051100Y44569600D02*
X15600300Y44569600D01*
X15600300Y44569600D02*
X15600300Y44569700D01*
X27940000Y35560000D02*
X29848300Y33651700D01*
X29848300Y33651700D02*
X29848300Y9298000D01*
X29848300Y9298000D02*
X29440300Y8890000D01*
X27940000Y8890000D02*
X29440300Y8890000D01*
X27940000Y54610000D02*
X27940000Y50408000D01*
X27940000Y50408000D02*
X26000800Y48468800D01*
X26000800Y48468800D02*
X26000800Y38071500D01*
X26000800Y38071500D02*
X27242300Y36830000D01*
X27242300Y36830000D02*
X28659000Y36830000D01*
X28659000Y36830000D02*
X30259100Y35229900D01*
X30259100Y35229900D02*
X30259100Y7168800D01*
X30259100Y7168800D02*
X29440300Y6350000D01*
X27940000Y6350000D02*
X29440300Y6350000D01*
X29440300Y40640000D02*
X31644000Y38436300D01*
X31644000Y38436300D02*
X31644000Y18592000D01*
X31644000Y18592000D02*
X34736500Y15499500D01*
X34736500Y15499500D02*
X48224200Y15499500D01*
X48224200Y15499500D02*
X49336700Y16612000D01*
X50837000Y16612000D02*
X49336700Y16612000D01*
X25826400Y68580000D02*
X25826400Y64775700D01*
X25826400Y64775700D02*
X26932500Y63669600D01*
X26932500Y63669600D02*
X28567000Y63669600D01*
X28567000Y63669600D02*
X30246800Y61989800D01*
X30246800Y61989800D02*
X30246800Y41446500D01*
X30246800Y41446500D02*
X29440300Y40640000D01*
X27940000Y40640000D02*
X29440300Y40640000D01*
X39139700Y91440000D02*
X39139700Y89242100D01*
X39139700Y89242100D02*
X34987600Y85090000D01*
X34987600Y85090000D02*
X33603300Y85090000D01*
X33603300Y85090000D02*
X29214200Y80700900D01*
X29214200Y80700900D02*
X29214200Y77113500D01*
X29214200Y77113500D02*
X25826400Y73725700D01*
X25826400Y73725700D02*
X25826400Y68580000D01*
X40640000Y91440000D02*
X39139700Y91440000D01*
X39139700Y81280000D02*
X39139700Y70074100D01*
X39139700Y70074100D02*
X49240700Y59973100D01*
X39239800Y81280000D02*
X39139700Y81280000D01*
X39139700Y81280000D02*
X39139700Y83820000D01*
X40640000Y81280000D02*
X39239800Y81280000D01*
X40640000Y83820000D02*
X39139700Y83820000D01*
X69850000Y48260000D02*
X69850000Y47109700D01*
X69850000Y47109700D02*
X70137600Y47109700D01*
X70137600Y47109700D02*
X71844800Y45402500D01*
X71844800Y45402500D02*
X71844800Y32406200D01*
X71844800Y32406200D02*
X71120000Y31681400D01*
X71120000Y31681400D02*
X71120000Y20589100D01*
X71120000Y20589100D02*
X69850000Y19319100D01*
X69850000Y19319100D02*
X69850000Y12700000D01*
X69850000Y44569700D02*
X70137600Y44569700D01*
X70137600Y44569700D02*
X71444400Y43262900D01*
X71444400Y43262900D02*
X71444400Y33138200D01*
X71444400Y33138200D02*
X68580000Y30273800D01*
X68580000Y30273800D02*
X68580000Y17044000D01*
X68580000Y17044000D02*
X67310000Y15774000D01*
X67310000Y15774000D02*
X67310000Y12700000D01*
X69850000Y45720000D02*
X69850000Y44569700D01*
X64770000Y12700000D02*
X64770000Y13800300D01*
X69850000Y43180000D02*
X69850000Y42029700D01*
X69850000Y42029700D02*
X70137600Y42029700D01*
X70137600Y42029700D02*
X71044000Y41123300D01*
X71044000Y41123300D02*
X71044000Y35182800D01*
X71044000Y35182800D02*
X66209600Y30348400D01*
X66209600Y30348400D02*
X66209600Y15239900D01*
X66209600Y15239900D02*
X64770000Y13800300D01*
X62230000Y12700000D02*
X62230000Y13800300D01*
X69850000Y40640000D02*
X69850000Y39489700D01*
X69850000Y39489700D02*
X69562400Y39489700D01*
X69562400Y39489700D02*
X63669600Y33596900D01*
X63669600Y33596900D02*
X63669600Y15239900D01*
X63669600Y15239900D02*
X62230000Y13800300D01*
X34096700Y21692000D02*
X34096700Y24744400D01*
X34096700Y24744400D02*
X34940700Y25588400D01*
X34940700Y25588400D02*
X36387600Y25588400D01*
X36387600Y25588400D02*
X45372700Y34573500D01*
X45372700Y34573500D02*
X45372700Y61111300D01*
X35597000Y21692000D02*
X34096700Y21692000D01*
X44766600Y59695500D02*
X44912400Y59549700D01*
X44912400Y59549700D02*
X44912400Y36087400D01*
X44912400Y36087400D02*
X35597000Y26772000D01*
X49336600Y33660200D02*
X49336600Y34881800D01*
X49336600Y34881800D02*
X50286400Y35831600D01*
X50286400Y35831600D02*
X51733600Y35831600D01*
X51733600Y35831600D02*
X54242500Y38340500D01*
X54242500Y38340500D02*
X54242500Y49429000D01*
X54242500Y49429000D02*
X72390000Y67576500D01*
X72390000Y67576500D02*
X72390000Y72931800D01*
X72390000Y72931800D02*
X77301900Y77843700D01*
X77301900Y77843700D02*
X77301900Y90884500D01*
X77301900Y90884500D02*
X80912800Y94495400D01*
X80912800Y94495400D02*
X82934100Y94495400D01*
X82934100Y94495400D02*
X83065400Y94364100D01*
X83065400Y94364100D02*
X83065400Y93038500D01*
X83065400Y93038500D02*
X88243600Y87860300D01*
X88243600Y87860300D02*
X88900000Y87860300D01*
X88900000Y86360000D02*
X88900000Y87860300D01*
X37097300Y36932000D02*
X42603300Y42438000D01*
X42603300Y42438000D02*
X42603300Y60192100D01*
X35597000Y36932000D02*
X37097300Y36932000D01*
X86360000Y69619700D02*
X86360000Y65679000D01*
X86360000Y65679000D02*
X70211000Y49530000D01*
X70211000Y49530000D02*
X69455300Y49530000D01*
X69455300Y49530000D02*
X66673000Y46747700D01*
X66673000Y46747700D02*
X66673000Y40541400D01*
X66673000Y40541400D02*
X51633600Y25502000D01*
X35597000Y24232000D02*
X37097300Y24232000D01*
X37097300Y24232000D02*
X37097300Y21223700D01*
X37097300Y21223700D02*
X36295600Y20422000D01*
X36295600Y20422000D02*
X34750500Y20422000D01*
X34750500Y20422000D02*
X32748700Y18420200D01*
X86360000Y71120000D02*
X86360000Y69619700D01*
X44353600Y56730400D02*
X44353600Y41648300D01*
X44353600Y41648300D02*
X37097300Y34392000D01*
X35597000Y34392000D02*
X37097300Y34392000D01*
X6350000Y76200000D02*
X6350000Y75049700D01*
X20320000Y43180000D02*
X18819700Y43180000D01*
X18819700Y43180000D02*
X7739600Y54260100D01*
X7739600Y54260100D02*
X7739600Y73898400D01*
X7739600Y73898400D02*
X6588300Y75049700D01*
X6588300Y75049700D02*
X6350000Y75049700D01*
X29440300Y62230000D02*
X29840600Y61829700D01*
X29840600Y61829700D02*
X29840600Y43580300D01*
X29840600Y43580300D02*
X29440300Y43180000D01*
X27940000Y43180000D02*
X29440300Y43180000D01*
X27940000Y62230000D02*
X29440300Y62230000D01*
X20320000Y13970000D02*
X21820300Y13970000D01*
X21820300Y35560000D02*
X21820300Y28942100D01*
X21820300Y28942100D02*
X21365900Y28487700D01*
X21365900Y28487700D02*
X21365900Y22706300D01*
X21365900Y22706300D02*
X21820300Y22251900D01*
X21820300Y22251900D02*
X21820300Y13970000D01*
X20320000Y35560000D02*
X21820300Y35560000D01*
X27940000Y38100000D02*
X26439700Y39600300D01*
X26439700Y39600300D02*
X26439700Y46175800D01*
X26439700Y46175800D02*
X29440300Y49176400D01*
X29440300Y49176400D02*
X29440300Y59690000D01*
X27940000Y59690000D02*
X29440300Y59690000D01*
X20320000Y40640000D02*
X21820300Y40640000D01*
X22402000Y17422900D02*
X22402000Y23723900D01*
X22402000Y23723900D02*
X21766300Y24359600D01*
X21766300Y24359600D02*
X21766300Y27546700D01*
X21766300Y27546700D02*
X22226500Y28006900D01*
X22226500Y28006900D02*
X22226500Y40233800D01*
X22226500Y40233800D02*
X21820300Y40640000D01*
X23093900Y60959300D02*
X23093900Y54390500D01*
X23093900Y54390500D02*
X21339400Y52636000D01*
X21339400Y52636000D02*
X21339400Y46656700D01*
X21339400Y46656700D02*
X21820300Y46175800D01*
X21820300Y46175800D02*
X21820300Y45720000D01*
X27940000Y64770000D02*
X26439700Y64770000D01*
X26439700Y64770000D02*
X26439700Y73772900D01*
X26439700Y73772900D02*
X32416400Y79749600D01*
X32416400Y79749600D02*
X32416400Y81432700D01*
X32416400Y81432700D02*
X33533700Y82550000D01*
X33533700Y82550000D02*
X35036700Y82550000D01*
X35036700Y82550000D02*
X37898800Y85412100D01*
X37898800Y85412100D02*
X37898800Y86158800D01*
X37898800Y86158800D02*
X40640000Y88900000D01*
X20320000Y45720000D02*
X21820300Y45720000D01*
X73660000Y87860300D02*
X67024900Y94495400D01*
X67024900Y94495400D02*
X54926200Y94495400D01*
X54926200Y94495400D02*
X50767900Y90337100D01*
X50767900Y90337100D02*
X46503500Y90337100D01*
X46503500Y90337100D02*
X41752700Y95087900D01*
X41752700Y95087900D02*
X39705500Y95087900D01*
X39705500Y95087900D02*
X36561500Y91943900D01*
X36561500Y91943900D02*
X36561500Y91722000D01*
X36561500Y91722000D02*
X35151200Y90311700D01*
X35151200Y90311700D02*
X26108000Y90311700D01*
X26108000Y90311700D02*
X25146100Y89349800D01*
X25146100Y89349800D02*
X25146100Y88444600D01*
X25146100Y88444600D02*
X25960700Y87630000D01*
X25960700Y87630000D02*
X27384900Y87630000D01*
X27384900Y87630000D02*
X28170300Y86844600D01*
X28170300Y86844600D02*
X28170300Y83359600D01*
X28170300Y83359600D02*
X27530300Y82719600D01*
X27530300Y82719600D02*
X26136000Y82719600D01*
X26136000Y82719600D02*
X23663400Y80247000D01*
X23663400Y80247000D02*
X23663400Y71693100D01*
X23663400Y71693100D02*
X21820300Y69850000D01*
X20320000Y69850000D02*
X21820300Y69850000D01*
X73660000Y86360000D02*
X73660000Y87860300D01*
X78740000Y15240000D02*
X77639700Y15240000D01*
X77639700Y15240000D02*
X76103100Y13703400D01*
X76103100Y13703400D02*
X76103100Y12292200D01*
X76103100Y12292200D02*
X72802900Y8992000D01*
X72802900Y8992000D02*
X50837000Y8992000D01*
X50837000Y29312000D02*
X49336700Y29312000D01*
X72390000Y12700000D02*
X71289700Y12700000D01*
X71289700Y12700000D02*
X71289700Y12562500D01*
X71289700Y12562500D02*
X70315900Y11588700D01*
X70315900Y11588700D02*
X61750700Y11588700D01*
X61750700Y11588700D02*
X53468400Y19871000D01*
X53468400Y19871000D02*
X53468400Y21065600D01*
X53468400Y21065600D02*
X51485600Y23048400D01*
X51485600Y23048400D02*
X49924600Y23048400D01*
X49924600Y23048400D02*
X48934000Y24039000D01*
X48934000Y24039000D02*
X48934000Y28909300D01*
X48934000Y28909300D02*
X49336700Y29312000D01*
X25169700Y93980000D02*
X21820300Y90630600D01*
X21820300Y90630600D02*
X21820300Y88900000D01*
X20320000Y88900000D02*
X21820300Y88900000D01*
X26670000Y93980000D02*
X25169700Y93980000D01*
X25809300Y12438900D02*
X24234100Y14014100D01*
X24234100Y14014100D02*
X24234100Y69680500D01*
X24234100Y69680500D02*
X24989200Y70435600D01*
X24989200Y70435600D02*
X24989200Y73563400D01*
X24989200Y73563400D02*
X28571800Y77146000D01*
X28571800Y77146000D02*
X28571800Y88498500D01*
X28571800Y88498500D02*
X28170300Y88900000D01*
X26670000Y88900000D02*
X28170300Y88900000D01*
X20320000Y78740000D02*
X21820300Y78740000D01*
X26670000Y83820000D02*
X25169700Y83820000D01*
X25169700Y83820000D02*
X21820300Y80470600D01*
X21820300Y80470600D02*
X21820300Y78740000D01*
X34290000Y91440000D02*
X32789700Y91440000D01*
X32789700Y91440000D02*
X31678400Y92551300D01*
X31678400Y92551300D02*
X25814800Y92551300D01*
X25814800Y92551300D02*
X22261100Y88997600D01*
X22261100Y88997600D02*
X22261100Y88301100D01*
X22261100Y88301100D02*
X20320000Y86360000D01*
X26670000Y81280000D02*
X24126200Y78736200D01*
X24126200Y78736200D02*
X24126200Y70421700D01*
X24126200Y70421700D02*
X23725800Y70021300D01*
X23725800Y70021300D02*
X23725800Y54039300D01*
X23725800Y54039300D02*
X21739800Y52053300D01*
X21739800Y52053300D02*
X21739800Y50180500D01*
X21739800Y50180500D02*
X22251600Y49668700D01*
X22251600Y49668700D02*
X22251600Y43148100D01*
X22251600Y43148100D02*
X21099900Y41996400D01*
X21099900Y41996400D02*
X19674700Y41996400D01*
X19674700Y41996400D02*
X18810000Y41131700D01*
X18810000Y41131700D02*
X18810000Y23100000D01*
X18810000Y23100000D02*
X20320000Y21590000D01*
X39139700Y86360000D02*
X38698500Y85918800D01*
X38698500Y85918800D02*
X38698500Y69304300D01*
X38698500Y69304300D02*
X45923000Y62079800D01*
X45923000Y62079800D02*
X45923000Y27977700D01*
X45923000Y27977700D02*
X37097300Y19152000D01*
X40640000Y86360000D02*
X39139700Y86360000D01*
X35597000Y19152000D02*
X37097300Y19152000D01*
X35597000Y16612000D02*
X37097300Y16612000D01*
X40640000Y93980000D02*
X42140300Y93980000D01*
X42140300Y93980000D02*
X42140300Y76956900D01*
X42140300Y76956900D02*
X41676000Y76492600D01*
X41676000Y76492600D02*
X41676000Y70293900D01*
X41676000Y70293900D02*
X49800100Y62169800D01*
X49800100Y62169800D02*
X49800100Y59754100D01*
X49800100Y59754100D02*
X46386200Y56340200D01*
X46386200Y56340200D02*
X46386200Y27401200D01*
X46386200Y27401200D02*
X37097300Y18112300D01*
X37097300Y18112300D02*
X37097300Y16612000D01*
X81280000Y15240000D02*
X80179700Y15240000D01*
X80179700Y15240000D02*
X80179700Y14457300D01*
X80179700Y14457300D02*
X78740000Y13017600D01*
X78740000Y13017600D02*
X78740000Y12376700D01*
X78740000Y12376700D02*
X72815300Y6452000D01*
X72815300Y6452000D02*
X50837000Y6452000D01*
X35597000Y54712000D02*
X37097300Y54712000D01*
X42053000Y49741000D02*
X37097300Y54696700D01*
X37097300Y54696700D02*
X37097300Y54712000D01*
X41978000Y47781100D02*
X41488200Y47781100D01*
X41488200Y47781100D02*
X37097300Y52172000D01*
X35597000Y52172000D02*
X37097300Y52172000D01*
X41337100Y46828500D02*
X39900800Y46828500D01*
X39900800Y46828500D02*
X37097300Y49632000D01*
X35597000Y49632000D02*
X37097300Y49632000D01*
X40376000Y44964000D02*
X38248000Y47092000D01*
X38248000Y47092000D02*
X35597000Y47092000D01*
X73829700Y12700000D02*
X73829700Y12562500D01*
X73829700Y12562500D02*
X72452400Y11185200D01*
X72452400Y11185200D02*
X61567900Y11185200D01*
X61567900Y11185200D02*
X52331100Y20422000D01*
X52331100Y20422000D02*
X50122800Y20422000D01*
X50122800Y20422000D02*
X48523900Y22020900D01*
X48523900Y22020900D02*
X48523900Y43739200D01*
X48523900Y43739200D02*
X49336700Y44552000D01*
X50837000Y44552000D02*
X49336700Y44552000D01*
X74930000Y12700000D02*
X73829700Y12700000D01*
X12700000Y86360000D02*
X14200300Y86360000D01*
X14200300Y86360000D02*
X14200300Y87297700D01*
X14200300Y87297700D02*
X19612600Y92710000D01*
X19612600Y92710000D02*
X21858500Y92710000D01*
X21858500Y92710000D02*
X24642500Y95494000D01*
X24642500Y95494000D02*
X41952000Y95494000D01*
X41952000Y95494000D02*
X46006000Y91440000D01*
X46006000Y91440000D02*
X48260000Y91440000D01*
X59055000Y93345000D02*
X59055000Y92194700D01*
X58420000Y71120000D02*
X58420000Y72620300D01*
X58420000Y72620300D02*
X57319600Y73720700D01*
X57319600Y73720700D02*
X57319600Y90459300D01*
X57319600Y90459300D02*
X59055000Y92194700D01*
X27940000Y57150000D02*
X26439700Y57150000D01*
X26439700Y57150000D02*
X26439700Y51727400D01*
X26439700Y51727400D02*
X26494600Y51672500D01*
X26494600Y51672500D02*
X26494600Y49528900D01*
X26494600Y49528900D02*
X25600400Y48634700D01*
X25600400Y48634700D02*
X25600400Y35359600D01*
X25600400Y35359600D02*
X27940000Y33020000D01*
D22*
X99340000Y660000D02*
X660000Y660000D01*
X660000Y2681335D01*
X21425000Y2681335D01*
X21425000Y2398665D01*
X21480147Y2121426D01*
X21588320Y1860273D01*
X21745363Y1625241D01*
X21945241Y1425363D01*
X22180273Y1268320D01*
X22441426Y1160147D01*
X22718665Y1105000D01*
X23001335Y1105000D01*
X23278574Y1160147D01*
X23539727Y1268320D01*
X23774759Y1425363D01*
X23896694Y1547298D01*
X24546903Y1547298D01*
X24618486Y1303329D01*
X24873996Y1182429D01*
X25148184Y1113700D01*
X25430512Y1099783D01*
X25710130Y1141213D01*
X25976292Y1236397D01*
X26101514Y1303329D01*
X26173097Y1547298D01*
X25360000Y2360395D01*
X24546903Y1547298D01*
X23896694Y1547298D01*
X23974637Y1625241D01*
X24108692Y1825869D01*
X24123329Y1798486D01*
X24367298Y1726903D01*
X25180395Y2540000D01*
X25539605Y2540000D01*
X26352702Y1726903D01*
X26596671Y1798486D01*
X26717571Y2053996D01*
X26786300Y2328184D01*
X26800217Y2610512D01*
X26758787Y2890130D01*
X26663603Y3156292D01*
X26596671Y3281514D01*
X26352702Y3353097D01*
X25539605Y2540000D01*
X25180395Y2540000D01*
X24367298Y3353097D01*
X24123329Y3281514D01*
X24109676Y3252659D01*
X23974637Y3454759D01*
X23896694Y3532702D01*
X24546903Y3532702D01*
X25360000Y2719605D01*
X26173097Y3532702D01*
X26101514Y3776671D01*
X25846004Y3897571D01*
X25571816Y3966300D01*
X25289488Y3980217D01*
X25009870Y3938787D01*
X24743708Y3843603D01*
X24618486Y3776671D01*
X24546903Y3532702D01*
X23896694Y3532702D01*
X23774759Y3654637D01*
X23539727Y3811680D01*
X23278574Y3919853D01*
X23001335Y3975000D01*
X22718665Y3975000D01*
X22441426Y3919853D01*
X22180273Y3811680D01*
X21945241Y3654637D01*
X21745363Y3454759D01*
X21588320Y3219727D01*
X21480147Y2958574D01*
X21425000Y2681335D01*
X660000Y2681335D01*
X660000Y5220128D01*
X2765000Y5220128D01*
X2765000Y4779872D01*
X2850890Y4348075D01*
X3019369Y3941331D01*
X3263962Y3575271D01*
X3575271Y3263962D01*
X3941331Y3019369D01*
X4348075Y2850890D01*
X4779872Y2765000D01*
X5220128Y2765000D01*
X5651925Y2850890D01*
X6058669Y3019369D01*
X6424729Y3263962D01*
X6736038Y3575271D01*
X6980631Y3941331D01*
X7149110Y4348075D01*
X7235000Y4779872D01*
X7235000Y5220128D01*
X7149110Y5651925D01*
X6980631Y6058669D01*
X6736038Y6424729D01*
X6424729Y6736038D01*
X6058669Y6980631D01*
X5651925Y7149110D01*
X5220128Y7235000D01*
X4779872Y7235000D01*
X4348075Y7149110D01*
X3941331Y6980631D01*
X3575271Y6736038D01*
X3263962Y6424729D01*
X3019369Y6058669D01*
X2850890Y5651925D01*
X2765000Y5220128D01*
X660000Y5220128D01*
X660000Y17423110D01*
X2368524Y17423110D01*
X2413175Y17275901D01*
X2538359Y17013080D01*
X2712412Y16779731D01*
X2928645Y16584822D01*
X3178748Y16435843D01*
X3453109Y16338519D01*
X3683000Y16459186D01*
X3683000Y17653000D01*
X3937000Y17653000D01*
X3937000Y16459186D01*
X4166891Y16338519D01*
X4441252Y16435843D01*
X4691355Y16584822D01*
X4887502Y16761626D01*
X4910498Y16685820D01*
X4969463Y16575506D01*
X5048815Y16478815D01*
X5145506Y16399463D01*
X5255820Y16340498D01*
X5375518Y16304188D01*
X5500000Y16291928D01*
X6064250Y16295000D01*
X6223000Y16453750D01*
X6223000Y17653000D01*
X6477000Y17653000D01*
X6477000Y16453750D01*
X6635750Y16295000D01*
X7200000Y16291928D01*
X7324482Y16304188D01*
X7444180Y16340498D01*
X7554494Y16399463D01*
X7651185Y16478815D01*
X7730537Y16575506D01*
X7789502Y16685820D01*
X7825812Y16805518D01*
X7838072Y16930000D01*
X7835000Y17494250D01*
X7676250Y17653000D01*
X6477000Y17653000D01*
X6223000Y17653000D01*
X3937000Y17653000D01*
X3683000Y17653000D01*
X2489845Y17653000D01*
X2368524Y17423110D01*
X660000Y17423110D01*
X660000Y79501700D01*
X1024744Y79501700D01*
X1028300Y79465595D01*
X1028301Y38526215D01*
X1024744Y38490100D01*
X1038935Y38346015D01*
X1063773Y38264137D01*
X1080964Y38207467D01*
X1149214Y38079780D01*
X1241063Y37967862D01*
X1269108Y37944846D01*
X2681923Y36532030D01*
X2656525Y36506632D01*
X2494010Y36263411D01*
X2382068Y35993158D01*
X2325000Y35706260D01*
X2325000Y35413740D01*
X2382068Y35126842D01*
X2494010Y34856589D01*
X2656525Y34613368D01*
X2863368Y34406525D01*
X3037760Y34290000D01*
X2863368Y34173475D01*
X2656525Y33966632D01*
X2494010Y33723411D01*
X2382068Y33453158D01*
X2325000Y33166260D01*
X2325000Y32873740D01*
X2382068Y32586842D01*
X2494010Y32316589D01*
X2656525Y32073368D01*
X2863368Y31866525D01*
X3037760Y31750000D01*
X2863368Y31633475D01*
X2656525Y31426632D01*
X2494010Y31183411D01*
X2382068Y30913158D01*
X2325000Y30626260D01*
X2325000Y30333740D01*
X2382068Y30046842D01*
X2494010Y29776589D01*
X2656525Y29533368D01*
X2863368Y29326525D01*
X3037760Y29210000D01*
X2863368Y29093475D01*
X2656525Y28886632D01*
X2494010Y28643411D01*
X2382068Y28373158D01*
X2325000Y28086260D01*
X2325000Y27793740D01*
X2382068Y27506842D01*
X2494010Y27236589D01*
X2656525Y26993368D01*
X2863368Y26786525D01*
X3037760Y26670000D01*
X2863368Y26553475D01*
X2656525Y26346632D01*
X2494010Y26103411D01*
X2382068Y25833158D01*
X2325000Y25546260D01*
X2325000Y25253740D01*
X2382068Y24966842D01*
X2494010Y24696589D01*
X2656525Y24453368D01*
X2863368Y24246525D01*
X3037760Y24130000D01*
X2863368Y24013475D01*
X2656525Y23806632D01*
X2494010Y23563411D01*
X2382068Y23293158D01*
X2325000Y23006260D01*
X2325000Y22713740D01*
X2382068Y22426842D01*
X2494010Y22156589D01*
X2656525Y21913368D01*
X2863368Y21706525D01*
X3037760Y21590000D01*
X2863368Y21473475D01*
X2656525Y21266632D01*
X2494010Y21023411D01*
X2382068Y20753158D01*
X2325000Y20466260D01*
X2325000Y20173740D01*
X2382068Y19886842D01*
X2494010Y19616589D01*
X2656525Y19373368D01*
X2863368Y19166525D01*
X3045534Y19044805D01*
X2928645Y18975178D01*
X2712412Y18780269D01*
X2538359Y18546920D01*
X2413175Y18284099D01*
X2368524Y18136890D01*
X2489845Y17907000D01*
X3683000Y17907000D01*
X3683000Y17927000D01*
X3937000Y17927000D01*
X3937000Y17907000D01*
X6223000Y17907000D01*
X6223000Y17927000D01*
X6477000Y17927000D01*
X6477000Y17907000D01*
X7676250Y17907000D01*
X7835000Y18065750D01*
X7838072Y18630000D01*
X7825812Y18754482D01*
X7789502Y18874180D01*
X7730537Y18984494D01*
X7651185Y19081185D01*
X7554494Y19160537D01*
X7444180Y19219502D01*
X7371620Y19241513D01*
X7503475Y19373368D01*
X7665990Y19616589D01*
X7777932Y19886842D01*
X7835000Y20173740D01*
X7835000Y20466260D01*
X7777932Y20753158D01*
X7665990Y21023411D01*
X7503475Y21266632D01*
X7296632Y21473475D01*
X7122240Y21590000D01*
X7296632Y21706525D01*
X7503475Y21913368D01*
X7665990Y22156589D01*
X7777932Y22426842D01*
X7835000Y22713740D01*
X7835000Y22952200D01*
X8001065Y22952200D01*
X8172045Y22986210D01*
X8181400Y22990085D01*
X8181400Y21369405D01*
X8177844Y21333300D01*
X8192035Y21189215D01*
X8194927Y21179681D01*
X8234063Y21050668D01*
X8302313Y20922981D01*
X8394162Y20811063D01*
X8422208Y20788046D01*
X18274446Y10935807D01*
X18297462Y10907762D01*
X18409380Y10815913D01*
X18537067Y10747663D01*
X18633586Y10718384D01*
X18675614Y10705635D01*
X18680298Y10705174D01*
X18721068Y10628899D01*
X18900392Y10410392D01*
X19118899Y10231068D01*
X19251858Y10160000D01*
X19118899Y10088932D01*
X18900392Y9909608D01*
X18721068Y9691101D01*
X18587818Y9441808D01*
X18505764Y9171309D01*
X18478057Y8890000D01*
X18505764Y8608691D01*
X18587818Y8338192D01*
X18721068Y8088899D01*
X18900392Y7870392D01*
X19118899Y7691068D01*
X19251858Y7620000D01*
X19118899Y7548932D01*
X18900392Y7369608D01*
X18721068Y7151101D01*
X18587818Y6901808D01*
X18505764Y6631309D01*
X18478057Y6350000D01*
X18505764Y6068691D01*
X18587818Y5798192D01*
X18721068Y5548899D01*
X18900392Y5330392D01*
X19118899Y5151068D01*
X19368192Y5017818D01*
X19638691Y4935764D01*
X19849508Y4915000D01*
X20790492Y4915000D01*
X21001309Y4935764D01*
X21271808Y5017818D01*
X21521101Y5151068D01*
X21739608Y5330392D01*
X21890227Y5513922D01*
X21920300Y5510960D01*
X21961318Y5515000D01*
X21961319Y5515000D01*
X22083989Y5527082D01*
X22241387Y5574828D01*
X22386446Y5652364D01*
X22513591Y5756709D01*
X22539746Y5788579D01*
X23613826Y6862658D01*
X23645691Y6888809D01*
X23750036Y7015954D01*
X23827572Y7161013D01*
X23875318Y7318411D01*
X23891440Y7482099D01*
X23887400Y7523118D01*
X23887400Y13321354D01*
X24941006Y12267747D01*
X24958310Y12180755D01*
X25025023Y12019695D01*
X25121876Y11874745D01*
X25245145Y11751476D01*
X25390095Y11654623D01*
X25551155Y11587910D01*
X25722135Y11553900D01*
X25896465Y11553900D01*
X26067445Y11587910D01*
X26115574Y11607845D01*
X26098057Y11430000D01*
X26125764Y11148691D01*
X26207818Y10878192D01*
X26341068Y10628899D01*
X26520392Y10410392D01*
X26738899Y10231068D01*
X26871858Y10160000D01*
X26738899Y10088932D01*
X26520392Y9909608D01*
X26341068Y9691101D01*
X26207818Y9441808D01*
X26125764Y9171309D01*
X26098057Y8890000D01*
X26125764Y8608691D01*
X26207818Y8338192D01*
X26341068Y8088899D01*
X26520392Y7870392D01*
X26633482Y7777581D01*
X26615518Y7775812D01*
X26495820Y7739502D01*
X26385506Y7680537D01*
X26288815Y7601185D01*
X26209463Y7504494D01*
X26150498Y7394180D01*
X26114188Y7274482D01*
X26101928Y7150000D01*
X26101928Y5550000D01*
X26114188Y5425518D01*
X26150498Y5305820D01*
X26209463Y5195506D01*
X26288815Y5098815D01*
X26385506Y5019463D01*
X26495820Y4960498D01*
X26615518Y4924188D01*
X26740000Y4911928D01*
X29140000Y4911928D01*
X29264482Y4924188D01*
X29384180Y4960498D01*
X29494494Y5019463D01*
X29591185Y5098815D01*
X29670537Y5195506D01*
X29729502Y5305820D01*
X29765812Y5425518D01*
X29778072Y5550000D01*
X29778072Y5697135D01*
X29850620Y5735913D01*
X29962538Y5827762D01*
X29985558Y5855812D01*
X30753293Y6623546D01*
X30781338Y6646562D01*
X30873187Y6758480D01*
X30941437Y6886167D01*
X30977123Y7003808D01*
X30983465Y7024714D01*
X30997656Y7168799D01*
X30994100Y7204904D01*
X30994100Y18248683D01*
X31029914Y18181680D01*
X31121763Y18069762D01*
X31149808Y18046746D01*
X34144736Y15051817D01*
X33998068Y14873101D01*
X33864818Y14623808D01*
X33782764Y14353309D01*
X33755057Y14072000D01*
X33782764Y13790691D01*
X33864818Y13520192D01*
X33998068Y13270899D01*
X34177392Y13052392D01*
X34395899Y12873068D01*
X34528858Y12802000D01*
X34395899Y12730932D01*
X34177392Y12551608D01*
X33998068Y12333101D01*
X33864818Y12083808D01*
X33782764Y11813309D01*
X33755057Y11532000D01*
X33782764Y11250691D01*
X33864818Y10980192D01*
X33998068Y10730899D01*
X34177392Y10512392D01*
X34395899Y10333068D01*
X34528858Y10262000D01*
X34395899Y10190932D01*
X34177392Y10011608D01*
X33998068Y9793101D01*
X33864818Y9543808D01*
X33782764Y9273309D01*
X33755057Y8992000D01*
X33782764Y8710691D01*
X33864818Y8440192D01*
X33998068Y8190899D01*
X34177392Y7972392D01*
X34395899Y7793068D01*
X34528858Y7722000D01*
X34395899Y7650932D01*
X34177392Y7471608D01*
X33998068Y7253101D01*
X33864818Y7003808D01*
X33782764Y6733309D01*
X33755057Y6452000D01*
X33782764Y6170691D01*
X33864818Y5900192D01*
X33998068Y5650899D01*
X34177392Y5432392D01*
X34395899Y5253068D01*
X34645192Y5119818D01*
X34915691Y5037764D01*
X35126508Y5017000D01*
X36067492Y5017000D01*
X36278309Y5037764D01*
X36548808Y5119818D01*
X36798101Y5253068D01*
X37016608Y5432392D01*
X37195932Y5650899D01*
X37329182Y5900192D01*
X37411236Y6170691D01*
X37438943Y6452000D01*
X37411236Y6733309D01*
X37329182Y7003808D01*
X37195932Y7253101D01*
X37016608Y7471608D01*
X36798101Y7650932D01*
X36665142Y7722000D01*
X36798101Y7793068D01*
X37016608Y7972392D01*
X37195932Y8190899D01*
X37329182Y8440192D01*
X37411236Y8710691D01*
X37438943Y8992000D01*
X37411236Y9273309D01*
X37329182Y9543808D01*
X37195932Y9793101D01*
X37016608Y10011608D01*
X36798101Y10190932D01*
X36665142Y10262000D01*
X36798101Y10333068D01*
X37016608Y10512392D01*
X37195932Y10730899D01*
X37329182Y10980192D01*
X37411236Y11250691D01*
X37438943Y11532000D01*
X37411236Y11813309D01*
X37329182Y12083808D01*
X37195932Y12333101D01*
X37016608Y12551608D01*
X36798101Y12730932D01*
X36665142Y12802000D01*
X36798101Y12873068D01*
X37016608Y13052392D01*
X37195932Y13270899D01*
X37329182Y13520192D01*
X37411236Y13790691D01*
X37438943Y14072000D01*
X37411236Y14353309D01*
X37329182Y14623808D01*
X37253980Y14764500D01*
X48188095Y14764500D01*
X48224200Y14760944D01*
X48260305Y14764500D01*
X48368285Y14775135D01*
X48506833Y14817163D01*
X48634520Y14885413D01*
X48746438Y14977262D01*
X48769458Y15005312D01*
X49389962Y15625815D01*
X49417392Y15592392D01*
X49635899Y15413068D01*
X49768858Y15342000D01*
X49635899Y15270932D01*
X49417392Y15091608D01*
X49238068Y14873101D01*
X49104818Y14623808D01*
X49022764Y14353309D01*
X48995057Y14072000D01*
X49022764Y13790691D01*
X49104818Y13520192D01*
X49238068Y13270899D01*
X49417392Y13052392D01*
X49635899Y12873068D01*
X49768858Y12802000D01*
X49635899Y12730932D01*
X49417392Y12551608D01*
X49238068Y12333101D01*
X49104818Y12083808D01*
X49022764Y11813309D01*
X48995057Y11532000D01*
X49022764Y11250691D01*
X49104818Y10980192D01*
X49238068Y10730899D01*
X49417392Y10512392D01*
X49635899Y10333068D01*
X49768858Y10262000D01*
X49635899Y10190932D01*
X49417392Y10011608D01*
X49238068Y9793101D01*
X49104818Y9543808D01*
X49022764Y9273309D01*
X48995057Y8992000D01*
X49022764Y8710691D01*
X49104818Y8440192D01*
X49238068Y8190899D01*
X49417392Y7972392D01*
X49530482Y7879581D01*
X49512518Y7877812D01*
X49392820Y7841502D01*
X49282506Y7782537D01*
X49185815Y7703185D01*
X49106463Y7606494D01*
X49047498Y7496180D01*
X49011188Y7376482D01*
X48998928Y7252000D01*
X48998928Y5652000D01*
X49011188Y5527518D01*
X49047498Y5407820D01*
X49106463Y5297506D01*
X49185815Y5200815D01*
X49282506Y5121463D01*
X49392820Y5062498D01*
X49512518Y5026188D01*
X49637000Y5013928D01*
X52037000Y5013928D01*
X52161482Y5026188D01*
X52281180Y5062498D01*
X52391494Y5121463D01*
X52488185Y5200815D01*
X52504034Y5220128D01*
X92765000Y5220128D01*
X92765000Y4779872D01*
X92850890Y4348075D01*
X93019369Y3941331D01*
X93263962Y3575271D01*
X93575271Y3263962D01*
X93941331Y3019369D01*
X94348075Y2850890D01*
X94779872Y2765000D01*
X95220128Y2765000D01*
X95651925Y2850890D01*
X96058669Y3019369D01*
X96424729Y3263962D01*
X96736038Y3575271D01*
X96980631Y3941331D01*
X97149110Y4348075D01*
X97235000Y4779872D01*
X97235000Y5220128D01*
X97149110Y5651925D01*
X96980631Y6058669D01*
X96736038Y6424729D01*
X96424729Y6736038D01*
X96058669Y6980631D01*
X95651925Y7149110D01*
X95220128Y7235000D01*
X94779872Y7235000D01*
X94348075Y7149110D01*
X93941331Y6980631D01*
X93575271Y6736038D01*
X93263962Y6424729D01*
X93019369Y6058669D01*
X92850890Y5651925D01*
X92765000Y5220128D01*
X52504034Y5220128D01*
X52567537Y5297506D01*
X52626502Y5407820D01*
X52662812Y5527518D01*
X52675072Y5652000D01*
X52675072Y5717000D01*
X72779195Y5717000D01*
X72815300Y5713444D01*
X72851405Y5717000D01*
X72959385Y5727635D01*
X73097933Y5769663D01*
X73225620Y5837913D01*
X73337538Y5929762D01*
X73360559Y5957813D01*
X79041675Y11638929D01*
X79095241Y11585363D01*
X79330273Y11428320D01*
X79591426Y11320147D01*
X79868665Y11265000D01*
X80151335Y11265000D01*
X80428574Y11320147D01*
X80689727Y11428320D01*
X80924759Y11585363D01*
X81124637Y11785241D01*
X81280000Y12017759D01*
X81435363Y11785241D01*
X81635241Y11585363D01*
X81870273Y11428320D01*
X82131426Y11320147D01*
X82408665Y11265000D01*
X82691335Y11265000D01*
X82968574Y11320147D01*
X83229727Y11428320D01*
X83464759Y11585363D01*
X83664637Y11785241D01*
X83820000Y12017759D01*
X83975363Y11785241D01*
X84175241Y11585363D01*
X84410273Y11428320D01*
X84671426Y11320147D01*
X84948665Y11265000D01*
X85231335Y11265000D01*
X85508574Y11320147D01*
X85769727Y11428320D01*
X86004759Y11585363D01*
X86204637Y11785241D01*
X86361680Y12020273D01*
X86366067Y12030865D01*
X86477615Y11844869D01*
X86666586Y11636481D01*
X86892580Y11468963D01*
X87146913Y11348754D01*
X87280961Y11308096D01*
X87503000Y11430085D01*
X87503000Y12573000D01*
X87483000Y12573000D01*
X87483000Y12827000D01*
X87503000Y12827000D01*
X87503000Y13969915D01*
X87757000Y13969915D01*
X87757000Y12827000D01*
X87777000Y12827000D01*
X87777000Y12573000D01*
X87757000Y12573000D01*
X87757000Y11430085D01*
X87979039Y11308096D01*
X88113087Y11348754D01*
X88367420Y11468963D01*
X88593414Y11636481D01*
X88782385Y11844869D01*
X88893933Y12030865D01*
X88898320Y12020273D01*
X89055363Y11785241D01*
X89255241Y11585363D01*
X89490273Y11428320D01*
X89751426Y11320147D01*
X90028665Y11265000D01*
X90311335Y11265000D01*
X90588574Y11320147D01*
X90849727Y11428320D01*
X91084759Y11585363D01*
X91284637Y11785241D01*
X91441680Y12020273D01*
X91549853Y12281426D01*
X91605000Y12558665D01*
X91605000Y12841335D01*
X91549853Y13118574D01*
X91441680Y13379727D01*
X91284637Y13614759D01*
X91084759Y13814637D01*
X90849727Y13971680D01*
X90588574Y14079853D01*
X90311335Y14135000D01*
X90028665Y14135000D01*
X89751426Y14079853D01*
X89490273Y13971680D01*
X89255241Y13814637D01*
X89055363Y13614759D01*
X88898320Y13379727D01*
X88893933Y13369135D01*
X88782385Y13555131D01*
X88593414Y13763519D01*
X88367420Y13931037D01*
X88113087Y14051246D01*
X87979039Y14091904D01*
X87757000Y13969915D01*
X87503000Y13969915D01*
X87280961Y14091904D01*
X87146913Y14051246D01*
X86892580Y13931037D01*
X86666586Y13763519D01*
X86477615Y13555131D01*
X86366067Y13369135D01*
X86361680Y13379727D01*
X86204637Y13614759D01*
X86004759Y13814637D01*
X85769727Y13971680D01*
X85508574Y14079853D01*
X85231335Y14135000D01*
X84948665Y14135000D01*
X84671426Y14079853D01*
X84410273Y13971680D01*
X84175241Y13814637D01*
X83975363Y13614759D01*
X83820000Y13382241D01*
X83664637Y13614759D01*
X83464759Y13814637D01*
X83229727Y13971680D01*
X82968574Y14079853D01*
X82691335Y14135000D01*
X82408665Y14135000D01*
X82131426Y14079853D01*
X82118856Y14074646D01*
X82194759Y14125363D01*
X82394637Y14325241D01*
X82551680Y14560273D01*
X82659853Y14821426D01*
X82715000Y15098665D01*
X82715000Y15381335D01*
X82659853Y15658574D01*
X82551680Y15919727D01*
X82394637Y16154759D01*
X82194759Y16354637D01*
X81959727Y16511680D01*
X81698574Y16619853D01*
X81421335Y16675000D01*
X81138665Y16675000D01*
X80861426Y16619853D01*
X80600273Y16511680D01*
X80365241Y16354637D01*
X80165363Y16154759D01*
X80038324Y15964632D01*
X80035615Y15964365D01*
X79990914Y15950805D01*
X79854637Y16154759D01*
X79654759Y16354637D01*
X79419727Y16511680D01*
X79158574Y16619853D01*
X78881335Y16675000D01*
X78598665Y16675000D01*
X78321426Y16619853D01*
X78060273Y16511680D01*
X77825241Y16354637D01*
X77625363Y16154759D01*
X77498324Y15964632D01*
X77495615Y15964365D01*
X77357066Y15922337D01*
X77292144Y15887635D01*
X77229380Y15854087D01*
X77117462Y15762238D01*
X77094446Y15734193D01*
X75608908Y14248654D01*
X75580862Y14225637D01*
X75489013Y14113719D01*
X75448735Y14038365D01*
X75348574Y14079853D01*
X75071335Y14135000D01*
X74788665Y14135000D01*
X74511426Y14079853D01*
X74250273Y13971680D01*
X74015241Y13814637D01*
X73815363Y13614759D01*
X73688324Y13424632D01*
X73685615Y13424365D01*
X73640914Y13410805D01*
X73504637Y13614759D01*
X73304759Y13814637D01*
X73069727Y13971680D01*
X72808574Y14079853D01*
X72531335Y14135000D01*
X72248665Y14135000D01*
X71971426Y14079853D01*
X71958856Y14074646D01*
X72034759Y14125363D01*
X72234637Y14325241D01*
X72391680Y14560273D01*
X72499853Y14821426D01*
X72555000Y15098665D01*
X72555000Y15381335D01*
X72499853Y15658574D01*
X72391680Y15919727D01*
X72234637Y16154759D01*
X72034759Y16354637D01*
X71799727Y16511680D01*
X71538574Y16619853D01*
X71261335Y16675000D01*
X70978665Y16675000D01*
X70701426Y16619853D01*
X70585000Y16571628D01*
X70585000Y19014654D01*
X71614193Y20043846D01*
X71642238Y20066862D01*
X71734087Y20178780D01*
X71802337Y20306467D01*
X71844365Y20445015D01*
X71855000Y20552995D01*
X71855000Y20553004D01*
X71858555Y20589099D01*
X71855000Y20625194D01*
X71855000Y26608372D01*
X71971426Y26560147D01*
X72248665Y26505000D01*
X72531335Y26505000D01*
X72808574Y26560147D01*
X73069727Y26668320D01*
X73304759Y26825363D01*
X73504637Y27025241D01*
X73660000Y27257759D01*
X73815363Y27025241D01*
X74015241Y26825363D01*
X74250273Y26668320D01*
X74511426Y26560147D01*
X74788665Y26505000D01*
X75071335Y26505000D01*
X75348574Y26560147D01*
X75609727Y26668320D01*
X75844759Y26825363D01*
X76044637Y27025241D01*
X76200000Y27257759D01*
X76355363Y27025241D01*
X76555241Y26825363D01*
X76790273Y26668320D01*
X77051426Y26560147D01*
X77328665Y26505000D01*
X77611335Y26505000D01*
X77888574Y26560147D01*
X78149727Y26668320D01*
X78384759Y26825363D01*
X78584637Y27025241D01*
X78740000Y27257759D01*
X78895363Y27025241D01*
X79095241Y26825363D01*
X79330273Y26668320D01*
X79591426Y26560147D01*
X79868665Y26505000D01*
X80151335Y26505000D01*
X80428574Y26560147D01*
X80689727Y26668320D01*
X80924759Y26825363D01*
X81124637Y27025241D01*
X81280000Y27257759D01*
X81435363Y27025241D01*
X81635241Y26825363D01*
X81870273Y26668320D01*
X82131426Y26560147D01*
X82408665Y26505000D01*
X82691335Y26505000D01*
X82968574Y26560147D01*
X83229727Y26668320D01*
X83464759Y26825363D01*
X83664637Y27025241D01*
X83820000Y27257759D01*
X83975363Y27025241D01*
X84175241Y26825363D01*
X84410273Y26668320D01*
X84671426Y26560147D01*
X84948665Y26505000D01*
X85231335Y26505000D01*
X85508574Y26560147D01*
X85769727Y26668320D01*
X86004759Y26825363D01*
X86204637Y27025241D01*
X86360000Y27257759D01*
X86515363Y27025241D01*
X86715241Y26825363D01*
X86950273Y26668320D01*
X87211426Y26560147D01*
X87488665Y26505000D01*
X87771335Y26505000D01*
X88048574Y26560147D01*
X88309727Y26668320D01*
X88544759Y26825363D01*
X88743357Y27023961D01*
X88744188Y27015518D01*
X88780498Y26895820D01*
X88839463Y26785506D01*
X88918815Y26688815D01*
X89015506Y26609463D01*
X89125820Y26550498D01*
X89245518Y26514188D01*
X89370000Y26501928D01*
X90970000Y26501928D01*
X91094482Y26514188D01*
X91214180Y26550498D01*
X91324494Y26609463D01*
X91421185Y26688815D01*
X91500537Y26785506D01*
X91559502Y26895820D01*
X91595812Y27015518D01*
X91608072Y27140000D01*
X91608072Y28740000D01*
X91595812Y28864482D01*
X91559502Y28984180D01*
X91500537Y29094494D01*
X91421185Y29191185D01*
X91324494Y29270537D01*
X91214180Y29329502D01*
X91094482Y29365812D01*
X90970000Y29378072D01*
X89370000Y29378072D01*
X89245518Y29365812D01*
X89125820Y29329502D01*
X89015506Y29270537D01*
X88918815Y29191185D01*
X88839463Y29094494D01*
X88780498Y28984180D01*
X88744188Y28864482D01*
X88743357Y28856039D01*
X88544759Y29054637D01*
X88309727Y29211680D01*
X88048574Y29319853D01*
X87771335Y29375000D01*
X87488665Y29375000D01*
X87211426Y29319853D01*
X86950273Y29211680D01*
X86715241Y29054637D01*
X86515363Y28854759D01*
X86360000Y28622241D01*
X86204637Y28854759D01*
X86004759Y29054637D01*
X85769727Y29211680D01*
X85508574Y29319853D01*
X85231335Y29375000D01*
X84948665Y29375000D01*
X84671426Y29319853D01*
X84410273Y29211680D01*
X84175241Y29054637D01*
X83975363Y28854759D01*
X83820000Y28622241D01*
X83664637Y28854759D01*
X83464759Y29054637D01*
X83229727Y29211680D01*
X82968574Y29319853D01*
X82691335Y29375000D01*
X82408665Y29375000D01*
X82131426Y29319853D01*
X81870273Y29211680D01*
X81635241Y29054637D01*
X81435363Y28854759D01*
X81280000Y28622241D01*
X81124637Y28854759D01*
X80924759Y29054637D01*
X80689727Y29211680D01*
X80428574Y29319853D01*
X80151335Y29375000D01*
X79868665Y29375000D01*
X79591426Y29319853D01*
X79330273Y29211680D01*
X79095241Y29054637D01*
X78895363Y28854759D01*
X78740000Y28622241D01*
X78584637Y28854759D01*
X78384759Y29054637D01*
X78149727Y29211680D01*
X77888574Y29319853D01*
X77611335Y29375000D01*
X77328665Y29375000D01*
X77051426Y29319853D01*
X76790273Y29211680D01*
X76555241Y29054637D01*
X76355363Y28854759D01*
X76200000Y28622241D01*
X76044637Y28854759D01*
X75844759Y29054637D01*
X75609727Y29211680D01*
X75348574Y29319853D01*
X75071335Y29375000D01*
X74788665Y29375000D01*
X74511426Y29319853D01*
X74250273Y29211680D01*
X74015241Y29054637D01*
X73815363Y28854759D01*
X73660000Y28622241D01*
X73504637Y28854759D01*
X73304759Y29054637D01*
X73069727Y29211680D01*
X72808574Y29319853D01*
X72531335Y29375000D01*
X72248665Y29375000D01*
X71971426Y29319853D01*
X71855000Y29271628D01*
X71855000Y31376954D01*
X72338993Y31860946D01*
X72367038Y31883962D01*
X72458887Y31995880D01*
X72527137Y32123567D01*
X72569165Y32262115D01*
X72579800Y32370095D01*
X72583356Y32406200D01*
X72579800Y32442305D01*
X72579800Y38246260D01*
X93765000Y38246260D01*
X93765000Y37953740D01*
X93822068Y37666842D01*
X93934010Y37396589D01*
X94096525Y37153368D01*
X94303368Y36946525D01*
X94546589Y36784010D01*
X94816842Y36672068D01*
X95103740Y36615000D01*
X95396260Y36615000D01*
X95683158Y36672068D01*
X95953411Y36784010D01*
X96196632Y36946525D01*
X96403475Y37153368D01*
X96520000Y37327760D01*
X96636525Y37153368D01*
X96843368Y36946525D01*
X97086589Y36784010D01*
X97356842Y36672068D01*
X97643740Y36615000D01*
X97936260Y36615000D01*
X98223158Y36672068D01*
X98493411Y36784010D01*
X98736632Y36946525D01*
X98943475Y37153368D01*
X99105990Y37396589D01*
X99217932Y37666842D01*
X99275000Y37953740D01*
X99275000Y38246260D01*
X99217932Y38533158D01*
X99105990Y38803411D01*
X98943475Y39046632D01*
X98736632Y39253475D01*
X98493411Y39415990D01*
X98223158Y39527932D01*
X97936260Y39585000D01*
X97643740Y39585000D01*
X97356842Y39527932D01*
X97086589Y39415990D01*
X96843368Y39253475D01*
X96636525Y39046632D01*
X96520000Y38872240D01*
X96403475Y39046632D01*
X96196632Y39253475D01*
X95953411Y39415990D01*
X95683158Y39527932D01*
X95396260Y39585000D01*
X95103740Y39585000D01*
X94816842Y39527932D01*
X94546589Y39415990D01*
X94303368Y39253475D01*
X94096525Y39046632D01*
X93934010Y38803411D01*
X93822068Y38533158D01*
X93765000Y38246260D01*
X72579800Y38246260D01*
X72579800Y45366406D01*
X72583355Y45402501D01*
X72579800Y45438596D01*
X72579800Y45438605D01*
X72569165Y45546585D01*
X72527137Y45685133D01*
X72458887Y45812820D01*
X72430836Y45847000D01*
X72390053Y45896694D01*
X72390050Y45896697D01*
X72367037Y45924738D01*
X72338997Y45947750D01*
X70988427Y47298320D01*
X71003475Y47313368D01*
X71165990Y47556589D01*
X71277932Y47826842D01*
X71335000Y48113740D01*
X71335000Y48406260D01*
X71277932Y48693158D01*
X71165990Y48963411D01*
X71003475Y49206632D01*
X70965277Y49244830D01*
X80286707Y58566260D01*
X93765000Y58566260D01*
X93765000Y58273740D01*
X93822068Y57986842D01*
X93934010Y57716589D01*
X94096525Y57473368D01*
X94303368Y57266525D01*
X94546589Y57104010D01*
X94816842Y56992068D01*
X95103740Y56935000D01*
X95396260Y56935000D01*
X95683158Y56992068D01*
X95953411Y57104010D01*
X96196632Y57266525D01*
X96403475Y57473368D01*
X96520000Y57647760D01*
X96636525Y57473368D01*
X96843368Y57266525D01*
X97086589Y57104010D01*
X97356842Y56992068D01*
X97643740Y56935000D01*
X97936260Y56935000D01*
X98223158Y56992068D01*
X98493411Y57104010D01*
X98736632Y57266525D01*
X98943475Y57473368D01*
X99105990Y57716589D01*
X99217932Y57986842D01*
X99275000Y58273740D01*
X99275000Y58566260D01*
X99217932Y58853158D01*
X99105990Y59123411D01*
X98943475Y59366632D01*
X98736632Y59573475D01*
X98493411Y59735990D01*
X98223158Y59847932D01*
X97936260Y59905000D01*
X97643740Y59905000D01*
X97356842Y59847932D01*
X97086589Y59735990D01*
X96843368Y59573475D01*
X96636525Y59366632D01*
X96520000Y59192240D01*
X96403475Y59366632D01*
X96196632Y59573475D01*
X95953411Y59735990D01*
X95683158Y59847932D01*
X95396260Y59905000D01*
X95103740Y59905000D01*
X94816842Y59847932D01*
X94546589Y59735990D01*
X94303368Y59573475D01*
X94096525Y59366632D01*
X93934010Y59123411D01*
X93822068Y58853158D01*
X93765000Y58566260D01*
X80286707Y58566260D01*
X86854193Y65133746D01*
X86882238Y65156762D01*
X86974087Y65268680D01*
X87042337Y65396367D01*
X87084365Y65534915D01*
X87095000Y65642895D01*
X87098556Y65679000D01*
X87095000Y65715105D01*
X87095000Y69485736D01*
X87161101Y69521068D01*
X87379608Y69700392D01*
X87558932Y69918899D01*
X87630000Y70051858D01*
X87701068Y69918899D01*
X87880393Y69700392D01*
X88098900Y69521068D01*
X88348193Y69387818D01*
X88618692Y69305764D01*
X88900000Y69278057D01*
X89181309Y69305764D01*
X89451808Y69387818D01*
X89701101Y69521068D01*
X89919608Y69700392D01*
X90098932Y69918899D01*
X90167265Y70046741D01*
X90317399Y69817161D01*
X90515105Y69615500D01*
X90748354Y69456285D01*
X91008182Y69345633D01*
X91090961Y69328096D01*
X91313000Y69450085D01*
X91313000Y70993000D01*
X91567000Y70993000D01*
X91567000Y69450085D01*
X91789039Y69328096D01*
X91871818Y69345633D01*
X92131646Y69456285D01*
X92364895Y69615500D01*
X92562601Y69817161D01*
X92717166Y70053517D01*
X92822650Y70315486D01*
X92875000Y70593000D01*
X92875000Y70993000D01*
X91567000Y70993000D01*
X91313000Y70993000D01*
X91293000Y70993000D01*
X91293000Y71247000D01*
X91313000Y71247000D01*
X91313000Y72789915D01*
X91567000Y72789915D01*
X91567000Y71247000D01*
X92875000Y71247000D01*
X92875000Y71647000D01*
X92822650Y71924514D01*
X92717166Y72186483D01*
X92562601Y72422839D01*
X92364895Y72624500D01*
X92131646Y72783715D01*
X91871818Y72894367D01*
X91789039Y72911904D01*
X91567000Y72789915D01*
X91313000Y72789915D01*
X91090961Y72911904D01*
X91008182Y72894367D01*
X90748354Y72783715D01*
X90515105Y72624500D01*
X90317399Y72422839D01*
X90167265Y72193259D01*
X90098932Y72321101D01*
X89919607Y72539608D01*
X89701100Y72718932D01*
X89451807Y72852182D01*
X89181308Y72934236D01*
X88900000Y72961943D01*
X88618691Y72934236D01*
X88348192Y72852182D01*
X88098899Y72718932D01*
X87880392Y72539607D01*
X87701068Y72321100D01*
X87630000Y72188142D01*
X87558932Y72321101D01*
X87379607Y72539608D01*
X87161100Y72718932D01*
X86911807Y72852182D01*
X86641308Y72934236D01*
X86360000Y72961943D01*
X86078691Y72934236D01*
X85808192Y72852182D01*
X85558899Y72718932D01*
X85340392Y72539607D01*
X85161068Y72321100D01*
X85090000Y72188142D01*
X85018932Y72321101D01*
X84839607Y72539608D01*
X84621100Y72718932D01*
X84371807Y72852182D01*
X84101308Y72934236D01*
X83820000Y72961943D01*
X83538691Y72934236D01*
X83268192Y72852182D01*
X83018899Y72718932D01*
X82800392Y72539607D01*
X82621068Y72321100D01*
X82550000Y72188142D01*
X82478932Y72321101D01*
X82299607Y72539608D01*
X82081100Y72718932D01*
X81831807Y72852182D01*
X81561308Y72934236D01*
X81280000Y72961943D01*
X80998691Y72934236D01*
X80728192Y72852182D01*
X80478899Y72718932D01*
X80260392Y72539607D01*
X80081068Y72321100D01*
X80010000Y72188142D01*
X79938932Y72321101D01*
X79759607Y72539608D01*
X79541100Y72718932D01*
X79291807Y72852182D01*
X79021308Y72934236D01*
X78740000Y72961943D01*
X78458691Y72934236D01*
X78188192Y72852182D01*
X77938899Y72718932D01*
X77720392Y72539607D01*
X77541068Y72321100D01*
X77470000Y72188142D01*
X77398932Y72321101D01*
X77219607Y72539608D01*
X77001100Y72718932D01*
X76751807Y72852182D01*
X76481308Y72934236D01*
X76200000Y72961943D01*
X75918691Y72934236D01*
X75648192Y72852182D01*
X75398899Y72718932D01*
X75180392Y72539607D01*
X75001068Y72321100D01*
X74930000Y72188142D01*
X74858932Y72321101D01*
X74679607Y72539608D01*
X74461100Y72718932D01*
X74211807Y72852182D01*
X73941308Y72934236D01*
X73660000Y72961943D01*
X73437693Y72940047D01*
X77796097Y77298451D01*
X77824137Y77321462D01*
X77847150Y77349503D01*
X77847153Y77349506D01*
X77915987Y77433380D01*
X77984237Y77561066D01*
X78026265Y77699615D01*
X78040456Y77843700D01*
X78036900Y77879805D01*
X78036900Y84704103D01*
X78048354Y84696285D01*
X78308182Y84585633D01*
X78390961Y84568096D01*
X78613000Y84690085D01*
X78613000Y86233000D01*
X78593000Y86233000D01*
X78593000Y86487000D01*
X78613000Y86487000D01*
X78613000Y88029915D01*
X78390961Y88151904D01*
X78308182Y88134367D01*
X78048354Y88023715D01*
X78036900Y88015897D01*
X78036900Y90580054D01*
X80429529Y92972682D01*
X80426928Y92495000D01*
X80439188Y92370518D01*
X80475498Y92250820D01*
X80534463Y92140506D01*
X80613815Y92043815D01*
X80710506Y91964463D01*
X80820820Y91905498D01*
X80940518Y91869188D01*
X81065000Y91856928D01*
X81629250Y91860000D01*
X81788000Y92018750D01*
X81788000Y93218000D01*
X81768000Y93218000D01*
X81768000Y93472000D01*
X81788000Y93472000D01*
X81788000Y93492000D01*
X82042000Y93492000D01*
X82042000Y93472000D01*
X82062000Y93472000D01*
X82062000Y93218000D01*
X82042000Y93218000D01*
X82042000Y92018750D01*
X82200750Y91860000D01*
X82765000Y91856928D01*
X82889482Y91869188D01*
X83009180Y91905498D01*
X83106784Y91957669D01*
X87041701Y88022752D01*
X86911807Y88092182D01*
X86641308Y88174236D01*
X86360000Y88201943D01*
X86078691Y88174236D01*
X85808192Y88092182D01*
X85558899Y87958932D01*
X85340392Y87779607D01*
X85161068Y87561100D01*
X85090000Y87428142D01*
X85018932Y87561101D01*
X84839607Y87779608D01*
X84621100Y87958932D01*
X84371807Y88092182D01*
X84101308Y88174236D01*
X83820000Y88201943D01*
X83538691Y88174236D01*
X83268192Y88092182D01*
X83018899Y87958932D01*
X82800392Y87779607D01*
X82621068Y87561100D01*
X82550000Y87428142D01*
X82478932Y87561101D01*
X82299607Y87779608D01*
X82081100Y87958932D01*
X81831807Y88092182D01*
X81561308Y88174236D01*
X81280000Y88201943D01*
X80998691Y88174236D01*
X80728192Y88092182D01*
X80478899Y87958932D01*
X80260392Y87779607D01*
X80081068Y87561100D01*
X80012735Y87433258D01*
X79862601Y87662839D01*
X79664895Y87864500D01*
X79431646Y88023715D01*
X79171818Y88134367D01*
X79089039Y88151904D01*
X78867000Y88029915D01*
X78867000Y86487000D01*
X78887000Y86487000D01*
X78887000Y86233000D01*
X78867000Y86233000D01*
X78867000Y84690085D01*
X79089039Y84568096D01*
X79171818Y84585633D01*
X79431646Y84696285D01*
X79664895Y84855500D01*
X79862601Y85057161D01*
X80012735Y85286741D01*
X80081068Y85158899D01*
X80260393Y84940392D01*
X80478900Y84761068D01*
X80728193Y84627818D01*
X80998692Y84545764D01*
X81280000Y84518057D01*
X81561309Y84545764D01*
X81831808Y84627818D01*
X82081101Y84761068D01*
X82299608Y84940392D01*
X82478932Y85158899D01*
X82550000Y85291858D01*
X82621068Y85158899D01*
X82800393Y84940392D01*
X83018900Y84761068D01*
X83268193Y84627818D01*
X83538692Y84545764D01*
X83820000Y84518057D01*
X84101309Y84545764D01*
X84371808Y84627818D01*
X84621101Y84761068D01*
X84839608Y84940392D01*
X85018932Y85158899D01*
X85090000Y85291858D01*
X85161068Y85158899D01*
X85340393Y84940392D01*
X85558900Y84761068D01*
X85808193Y84627818D01*
X86078692Y84545764D01*
X86360000Y84518057D01*
X86641309Y84545764D01*
X86911808Y84627818D01*
X87161101Y84761068D01*
X87379608Y84940392D01*
X87558932Y85158899D01*
X87630000Y85291858D01*
X87701068Y85158899D01*
X87880393Y84940392D01*
X88098900Y84761068D01*
X88348193Y84627818D01*
X88618692Y84545764D01*
X88900000Y84518057D01*
X89181309Y84545764D01*
X89451808Y84627818D01*
X89701101Y84761068D01*
X89919608Y84940392D01*
X90098932Y85158899D01*
X90170000Y85291858D01*
X90241068Y85158899D01*
X90420393Y84940392D01*
X90638900Y84761068D01*
X90888193Y84627818D01*
X91158692Y84545764D01*
X91440000Y84518057D01*
X91721309Y84545764D01*
X91991808Y84627818D01*
X92241101Y84761068D01*
X92459608Y84940392D01*
X92638932Y85158899D01*
X92772182Y85408192D01*
X92854236Y85678691D01*
X92875000Y85889509D01*
X92875000Y86830492D01*
X92854236Y87041309D01*
X92772182Y87311808D01*
X92638932Y87561101D01*
X92459607Y87779608D01*
X92241100Y87958932D01*
X91991807Y88092182D01*
X91721308Y88174236D01*
X91440000Y88201943D01*
X91158691Y88174236D01*
X90888192Y88092182D01*
X90638899Y87958932D01*
X90420392Y87779607D01*
X90241068Y87561100D01*
X90170000Y87428142D01*
X90098932Y87561101D01*
X89919607Y87779608D01*
X89701100Y87958932D01*
X89624826Y87999701D01*
X89624365Y88004385D01*
X89582337Y88142933D01*
X89514087Y88270620D01*
X89422238Y88382538D01*
X89310320Y88474387D01*
X89182633Y88542637D01*
X89044085Y88584665D01*
X88936105Y88595300D01*
X88900000Y88598856D01*
X88863895Y88595300D01*
X88548047Y88595300D01*
X85127245Y92016101D01*
X85158411Y92029010D01*
X85401632Y92191525D01*
X85608475Y92398368D01*
X85725000Y92572760D01*
X85841525Y92398368D01*
X86048368Y92191525D01*
X86291589Y92029010D01*
X86561842Y91917068D01*
X86848740Y91860000D01*
X87141260Y91860000D01*
X87428158Y91917068D01*
X87698411Y92029010D01*
X87941632Y92191525D01*
X88148475Y92398368D01*
X88310990Y92641589D01*
X88422932Y92911842D01*
X88480000Y93198740D01*
X88480000Y93491260D01*
X88422932Y93778158D01*
X88310990Y94048411D01*
X88148475Y94291632D01*
X87941632Y94498475D01*
X87698411Y94660990D01*
X87428158Y94772932D01*
X87141260Y94830000D01*
X86848740Y94830000D01*
X86561842Y94772932D01*
X86291589Y94660990D01*
X86048368Y94498475D01*
X85841525Y94291632D01*
X85725000Y94117240D01*
X85608475Y94291632D01*
X85401632Y94498475D01*
X85158411Y94660990D01*
X84888158Y94772932D01*
X84601260Y94830000D01*
X84308740Y94830000D01*
X84021842Y94772932D01*
X83751589Y94660990D01*
X83743136Y94655342D01*
X83679487Y94774420D01*
X83587637Y94886338D01*
X83559592Y94909354D01*
X83479359Y94989587D01*
X83456338Y95017638D01*
X83344420Y95109487D01*
X83216733Y95177737D01*
X83078185Y95219765D01*
X83074500Y95220128D01*
X92765000Y95220128D01*
X92765000Y94779872D01*
X92850890Y94348075D01*
X93019369Y93941331D01*
X93263962Y93575271D01*
X93575271Y93263962D01*
X93941331Y93019369D01*
X94348075Y92850890D01*
X94779872Y92765000D01*
X95220128Y92765000D01*
X95651925Y92850890D01*
X96058669Y93019369D01*
X96424729Y93263962D01*
X96736038Y93575271D01*
X96980631Y93941331D01*
X97149110Y94348075D01*
X97235000Y94779872D01*
X97235000Y95220128D01*
X97149110Y95651925D01*
X96980631Y96058669D01*
X96736038Y96424729D01*
X96424729Y96736038D01*
X96058669Y96980631D01*
X95651925Y97149110D01*
X95220128Y97235000D01*
X94779872Y97235000D01*
X94348075Y97149110D01*
X93941331Y96980631D01*
X93575271Y96736038D01*
X93263962Y96424729D01*
X93019369Y96058669D01*
X92850890Y95651925D01*
X92765000Y95220128D01*
X83074500Y95220128D01*
X82970205Y95230400D01*
X82934100Y95233956D01*
X82897995Y95230400D01*
X80948905Y95230400D01*
X80912800Y95233956D01*
X80768715Y95219765D01*
X80630166Y95177737D01*
X80502480Y95109487D01*
X80390562Y95017638D01*
X80367546Y94989593D01*
X76807708Y91429754D01*
X76779663Y91406738D01*
X76687814Y91294820D01*
X76639988Y91205344D01*
X76619564Y91167133D01*
X76577535Y91028585D01*
X76563344Y90884500D01*
X76566901Y90848385D01*
X76566901Y88148272D01*
X76481308Y88174236D01*
X76200000Y88201943D01*
X75918691Y88174236D01*
X75648192Y88092182D01*
X75398899Y87958932D01*
X75180392Y87779607D01*
X75001068Y87561100D01*
X74930000Y87428142D01*
X74858932Y87561101D01*
X74679607Y87779608D01*
X74461100Y87958932D01*
X74384826Y87999701D01*
X74384365Y88004385D01*
X74342337Y88142933D01*
X74274087Y88270620D01*
X74182238Y88382538D01*
X74154193Y88405554D01*
X67570159Y94989587D01*
X67547138Y95017638D01*
X67435220Y95109487D01*
X67307533Y95177737D01*
X67168985Y95219765D01*
X67061005Y95230400D01*
X67024900Y95233956D01*
X66988795Y95230400D01*
X54962294Y95230400D01*
X54926199Y95233955D01*
X54890104Y95230400D01*
X54890095Y95230400D01*
X54782115Y95219765D01*
X54643567Y95177737D01*
X54515880Y95109487D01*
X54403962Y95017638D01*
X54380946Y94989593D01*
X50463454Y91072100D01*
X50047969Y91072100D01*
X50074236Y91158691D01*
X50101943Y91440000D01*
X50074236Y91721309D01*
X49992182Y91991808D01*
X49858932Y92241101D01*
X49679608Y92459608D01*
X49461101Y92638932D01*
X49333259Y92707265D01*
X49562839Y92857399D01*
X49764500Y93055105D01*
X49923715Y93288354D01*
X50034367Y93548182D01*
X50051904Y93630961D01*
X49929915Y93853000D01*
X48387000Y93853000D01*
X48387000Y93833000D01*
X48133000Y93833000D01*
X48133000Y93853000D01*
X46590085Y93853000D01*
X46468096Y93630961D01*
X46485633Y93548182D01*
X46596285Y93288354D01*
X46755500Y93055105D01*
X46957161Y92857399D01*
X47186741Y92707265D01*
X47058899Y92638932D01*
X46874843Y92487881D01*
X46822477Y92614305D01*
X46725624Y92759255D01*
X46602355Y92882524D01*
X46457405Y92979377D01*
X46296345Y93046090D01*
X46209353Y93063394D01*
X44943708Y94329039D01*
X46468096Y94329039D01*
X46590085Y94107000D01*
X48133000Y94107000D01*
X48133000Y95415000D01*
X48387000Y95415000D01*
X48387000Y94107000D01*
X49929915Y94107000D01*
X50051904Y94329039D01*
X50034367Y94411818D01*
X49923715Y94671646D01*
X49764500Y94904895D01*
X49562839Y95102601D01*
X49326483Y95257166D01*
X49064514Y95362650D01*
X48787000Y95415000D01*
X48387000Y95415000D01*
X48133000Y95415000D01*
X47733000Y95415000D01*
X47455486Y95362650D01*
X47193517Y95257166D01*
X46957161Y95102601D01*
X46755500Y94904895D01*
X46596285Y94671646D01*
X46485633Y94411818D01*
X46468096Y94329039D01*
X44943708Y94329039D01*
X42881459Y96391287D01*
X42858438Y96419338D01*
X42746520Y96511187D01*
X42618833Y96579437D01*
X42480285Y96621465D01*
X42372305Y96632100D01*
X42336200Y96635656D01*
X42300095Y96632100D01*
X20288404Y96632100D01*
X20252299Y96635656D01*
X20108214Y96621465D01*
X20066186Y96608716D01*
X19969667Y96579437D01*
X19841980Y96511187D01*
X19730062Y96419338D01*
X19707046Y96391293D01*
X14980908Y91665154D01*
X14952862Y91642137D01*
X14861013Y91530219D01*
X14792763Y91402532D01*
X14791585Y91398647D01*
X14750735Y91263985D01*
X14736544Y91119900D01*
X14740100Y91083795D01*
X14740101Y89942648D01*
X14368466Y89571013D01*
X14298932Y89701101D01*
X14119608Y89919608D01*
X13901101Y90098932D01*
X13768142Y90170000D01*
X13901101Y90241068D01*
X14119608Y90420392D01*
X14298932Y90638899D01*
X14432182Y90888192D01*
X14514236Y91158691D01*
X14541943Y91440000D01*
X14514236Y91721309D01*
X14432182Y91991808D01*
X14298932Y92241101D01*
X14119608Y92459608D01*
X13901101Y92638932D01*
X13768142Y92710000D01*
X13901101Y92781068D01*
X14119608Y92960392D01*
X14298932Y93178899D01*
X14432182Y93428192D01*
X14514236Y93698691D01*
X14541943Y93980000D01*
X14514236Y94261309D01*
X14432182Y94531808D01*
X14298932Y94781101D01*
X14119608Y94999608D01*
X13901101Y95178932D01*
X13651808Y95312182D01*
X13381309Y95394236D01*
X13170492Y95415000D01*
X12229508Y95415000D01*
X12018691Y95394236D01*
X11748192Y95312182D01*
X11498899Y95178932D01*
X11280392Y94999608D01*
X11101068Y94781101D01*
X10967818Y94531808D01*
X10885764Y94261309D01*
X10858057Y93980000D01*
X10885764Y93698691D01*
X10967818Y93428192D01*
X11101068Y93178899D01*
X11280392Y92960392D01*
X11498899Y92781068D01*
X11631858Y92710000D01*
X11498899Y92638932D01*
X11280392Y92459608D01*
X11101068Y92241101D01*
X10967818Y91991808D01*
X10885764Y91721309D01*
X10858057Y91440000D01*
X10885764Y91158691D01*
X10967818Y90888192D01*
X11101068Y90638899D01*
X11280392Y90420392D01*
X11498899Y90241068D01*
X11631858Y90170000D01*
X11498899Y90098932D01*
X11280392Y89919608D01*
X11101068Y89701101D01*
X10967818Y89451808D01*
X10885764Y89181309D01*
X10858057Y88900000D01*
X10885764Y88618691D01*
X10962719Y88365000D01*
X9927696Y88365000D01*
X9891599Y88368555D01*
X9855502Y88365000D01*
X9855495Y88365000D01*
X9761732Y88355765D01*
X9747514Y88354365D01*
X9727165Y88348192D01*
X9608967Y88312337D01*
X9481280Y88244087D01*
X9369362Y88152238D01*
X9346347Y88124194D01*
X1269108Y80046954D01*
X1241062Y80023937D01*
X1149213Y79912019D01*
X1080963Y79784332D01*
X1067597Y79740269D01*
X1038935Y79645785D01*
X1024744Y79501700D01*
X660000Y79501700D01*
X660000Y95220128D01*
X2765000Y95220128D01*
X2765000Y94779872D01*
X2850890Y94348075D01*
X3019369Y93941331D01*
X3263962Y93575271D01*
X3575271Y93263962D01*
X3941331Y93019369D01*
X4348075Y92850890D01*
X4779872Y92765000D01*
X5220128Y92765000D01*
X5651925Y92850890D01*
X6058669Y93019369D01*
X6424729Y93263962D01*
X6736038Y93575271D01*
X6980631Y93941331D01*
X7149110Y94348075D01*
X7235000Y94779872D01*
X7235000Y95220128D01*
X7149110Y95651925D01*
X6980631Y96058669D01*
X6736038Y96424729D01*
X6424729Y96736038D01*
X6058669Y96980631D01*
X5651925Y97149110D01*
X5220128Y97235000D01*
X4779872Y97235000D01*
X4348075Y97149110D01*
X3941331Y96980631D01*
X3575271Y96736038D01*
X3263962Y96424729D01*
X3019369Y96058669D01*
X2850890Y95651925D01*
X2765000Y95220128D01*
X660000Y95220128D01*
X660000Y99340000D01*
X99340001Y99340000D01*
X99340000Y660000D01*
G04 #@! TA.AperFunction,Conductor*
D23*
G36*
X99340000Y660000D02*
G01*
X660000Y660000D01*
X660000Y2681335D01*
X21425000Y2681335D01*
X21425000Y2398665D01*
X21480147Y2121426D01*
X21588320Y1860273D01*
X21745363Y1625241D01*
X21945241Y1425363D01*
X22180273Y1268320D01*
X22441426Y1160147D01*
X22718665Y1105000D01*
X23001335Y1105000D01*
X23278574Y1160147D01*
X23539727Y1268320D01*
X23774759Y1425363D01*
X23896694Y1547298D01*
X24546903Y1547298D01*
X24618486Y1303329D01*
X24873996Y1182429D01*
X25148184Y1113700D01*
X25430512Y1099783D01*
X25710130Y1141213D01*
X25976292Y1236397D01*
X26101514Y1303329D01*
X26173097Y1547298D01*
X25360000Y2360395D01*
X24546903Y1547298D01*
X23896694Y1547298D01*
X23974637Y1625241D01*
X24108692Y1825869D01*
X24123329Y1798486D01*
X24367298Y1726903D01*
X25180395Y2540000D01*
X25539605Y2540000D01*
X26352702Y1726903D01*
X26596671Y1798486D01*
X26717571Y2053996D01*
X26786300Y2328184D01*
X26800217Y2610512D01*
X26758787Y2890130D01*
X26663603Y3156292D01*
X26596671Y3281514D01*
X26352702Y3353097D01*
X25539605Y2540000D01*
X25180395Y2540000D01*
X24367298Y3353097D01*
X24123329Y3281514D01*
X24109676Y3252659D01*
X23974637Y3454759D01*
X23896694Y3532702D01*
X24546903Y3532702D01*
X25360000Y2719605D01*
X26173097Y3532702D01*
X26101514Y3776671D01*
X25846004Y3897571D01*
X25571816Y3966300D01*
X25289488Y3980217D01*
X25009870Y3938787D01*
X24743708Y3843603D01*
X24618486Y3776671D01*
X24546903Y3532702D01*
X23896694Y3532702D01*
X23774759Y3654637D01*
X23539727Y3811680D01*
X23278574Y3919853D01*
X23001335Y3975000D01*
X22718665Y3975000D01*
X22441426Y3919853D01*
X22180273Y3811680D01*
X21945241Y3654637D01*
X21745363Y3454759D01*
X21588320Y3219727D01*
X21480147Y2958574D01*
X21425000Y2681335D01*
X660000Y2681335D01*
X660000Y5220128D01*
X2765000Y5220128D01*
X2765000Y4779872D01*
X2850890Y4348075D01*
X3019369Y3941331D01*
X3263962Y3575271D01*
X3575271Y3263962D01*
X3941331Y3019369D01*
X4348075Y2850890D01*
X4779872Y2765000D01*
X5220128Y2765000D01*
X5651925Y2850890D01*
X6058669Y3019369D01*
X6424729Y3263962D01*
X6736038Y3575271D01*
X6980631Y3941331D01*
X7149110Y4348075D01*
X7235000Y4779872D01*
X7235000Y5220128D01*
X7149110Y5651925D01*
X6980631Y6058669D01*
X6736038Y6424729D01*
X6424729Y6736038D01*
X6058669Y6980631D01*
X5651925Y7149110D01*
X5220128Y7235000D01*
X4779872Y7235000D01*
X4348075Y7149110D01*
X3941331Y6980631D01*
X3575271Y6736038D01*
X3263962Y6424729D01*
X3019369Y6058669D01*
X2850890Y5651925D01*
X2765000Y5220128D01*
X660000Y5220128D01*
X660000Y17423110D01*
X2368524Y17423110D01*
X2413175Y17275901D01*
X2538359Y17013080D01*
X2712412Y16779731D01*
X2928645Y16584822D01*
X3178748Y16435843D01*
X3453109Y16338519D01*
X3683000Y16459186D01*
X3683000Y17653000D01*
X3937000Y17653000D01*
X3937000Y16459186D01*
X4166891Y16338519D01*
X4441252Y16435843D01*
X4691355Y16584822D01*
X4887502Y16761626D01*
X4910498Y16685820D01*
X4969463Y16575506D01*
X5048815Y16478815D01*
X5145506Y16399463D01*
X5255820Y16340498D01*
X5375518Y16304188D01*
X5500000Y16291928D01*
X6064250Y16295000D01*
X6223000Y16453750D01*
X6223000Y17653000D01*
X6477000Y17653000D01*
X6477000Y16453750D01*
X6635750Y16295000D01*
X7200000Y16291928D01*
X7324482Y16304188D01*
X7444180Y16340498D01*
X7554494Y16399463D01*
X7651185Y16478815D01*
X7730537Y16575506D01*
X7789502Y16685820D01*
X7825812Y16805518D01*
X7838072Y16930000D01*
X7835000Y17494250D01*
X7676250Y17653000D01*
X6477000Y17653000D01*
X6223000Y17653000D01*
X3937000Y17653000D01*
X3683000Y17653000D01*
X2489845Y17653000D01*
X2368524Y17423110D01*
X660000Y17423110D01*
X660000Y79501700D01*
X1024744Y79501700D01*
X1028300Y79465595D01*
X1028301Y38526215D01*
X1024744Y38490100D01*
X1038935Y38346015D01*
X1063773Y38264137D01*
X1080964Y38207467D01*
X1149214Y38079780D01*
X1241063Y37967862D01*
X1269108Y37944846D01*
X2681923Y36532030D01*
X2656525Y36506632D01*
X2494010Y36263411D01*
X2382068Y35993158D01*
X2325000Y35706260D01*
X2325000Y35413740D01*
X2382068Y35126842D01*
X2494010Y34856589D01*
X2656525Y34613368D01*
X2863368Y34406525D01*
X3037760Y34290000D01*
X2863368Y34173475D01*
X2656525Y33966632D01*
X2494010Y33723411D01*
X2382068Y33453158D01*
X2325000Y33166260D01*
X2325000Y32873740D01*
X2382068Y32586842D01*
X2494010Y32316589D01*
X2656525Y32073368D01*
X2863368Y31866525D01*
X3037760Y31750000D01*
X2863368Y31633475D01*
X2656525Y31426632D01*
X2494010Y31183411D01*
X2382068Y30913158D01*
X2325000Y30626260D01*
X2325000Y30333740D01*
X2382068Y30046842D01*
X2494010Y29776589D01*
X2656525Y29533368D01*
X2863368Y29326525D01*
X3037760Y29210000D01*
X2863368Y29093475D01*
X2656525Y28886632D01*
X2494010Y28643411D01*
X2382068Y28373158D01*
X2325000Y28086260D01*
X2325000Y27793740D01*
X2382068Y27506842D01*
X2494010Y27236589D01*
X2656525Y26993368D01*
X2863368Y26786525D01*
X3037760Y26670000D01*
X2863368Y26553475D01*
X2656525Y26346632D01*
X2494010Y26103411D01*
X2382068Y25833158D01*
X2325000Y25546260D01*
X2325000Y25253740D01*
X2382068Y24966842D01*
X2494010Y24696589D01*
X2656525Y24453368D01*
X2863368Y24246525D01*
X3037760Y24130000D01*
X2863368Y24013475D01*
X2656525Y23806632D01*
X2494010Y23563411D01*
X2382068Y23293158D01*
X2325000Y23006260D01*
X2325000Y22713740D01*
X2382068Y22426842D01*
X2494010Y22156589D01*
X2656525Y21913368D01*
X2863368Y21706525D01*
X3037760Y21590000D01*
X2863368Y21473475D01*
X2656525Y21266632D01*
X2494010Y21023411D01*
X2382068Y20753158D01*
X2325000Y20466260D01*
X2325000Y20173740D01*
X2382068Y19886842D01*
X2494010Y19616589D01*
X2656525Y19373368D01*
X2863368Y19166525D01*
X3045534Y19044805D01*
X2928645Y18975178D01*
X2712412Y18780269D01*
X2538359Y18546920D01*
X2413175Y18284099D01*
X2368524Y18136890D01*
X2489845Y17907000D01*
X3683000Y17907000D01*
X3683000Y17927000D01*
X3937000Y17927000D01*
X3937000Y17907000D01*
X6223000Y17907000D01*
X6223000Y17927000D01*
X6477000Y17927000D01*
X6477000Y17907000D01*
X7676250Y17907000D01*
X7835000Y18065750D01*
X7838072Y18630000D01*
X7825812Y18754482D01*
X7789502Y18874180D01*
X7730537Y18984494D01*
X7651185Y19081185D01*
X7554494Y19160537D01*
X7444180Y19219502D01*
X7371620Y19241513D01*
X7503475Y19373368D01*
X7665990Y19616589D01*
X7777932Y19886842D01*
X7835000Y20173740D01*
X7835000Y20466260D01*
X7777932Y20753158D01*
X7665990Y21023411D01*
X7503475Y21266632D01*
X7296632Y21473475D01*
X7122240Y21590000D01*
X7296632Y21706525D01*
X7503475Y21913368D01*
X7665990Y22156589D01*
X7777932Y22426842D01*
X7835000Y22713740D01*
X7835000Y22952200D01*
X8001065Y22952200D01*
X8172045Y22986210D01*
X8181400Y22990085D01*
X8181400Y21369405D01*
X8177844Y21333300D01*
X8192035Y21189215D01*
X8194927Y21179681D01*
X8234063Y21050668D01*
X8302313Y20922981D01*
X8394162Y20811063D01*
X8422208Y20788046D01*
X18274446Y10935807D01*
X18297462Y10907762D01*
X18409380Y10815913D01*
X18537067Y10747663D01*
X18633586Y10718384D01*
X18675614Y10705635D01*
X18680298Y10705174D01*
X18721068Y10628899D01*
X18900392Y10410392D01*
X19118899Y10231068D01*
X19251858Y10160000D01*
X19118899Y10088932D01*
X18900392Y9909608D01*
X18721068Y9691101D01*
X18587818Y9441808D01*
X18505764Y9171309D01*
X18478057Y8890000D01*
X18505764Y8608691D01*
X18587818Y8338192D01*
X18721068Y8088899D01*
X18900392Y7870392D01*
X19118899Y7691068D01*
X19251858Y7620000D01*
X19118899Y7548932D01*
X18900392Y7369608D01*
X18721068Y7151101D01*
X18587818Y6901808D01*
X18505764Y6631309D01*
X18478057Y6350000D01*
X18505764Y6068691D01*
X18587818Y5798192D01*
X18721068Y5548899D01*
X18900392Y5330392D01*
X19118899Y5151068D01*
X19368192Y5017818D01*
X19638691Y4935764D01*
X19849508Y4915000D01*
X20790492Y4915000D01*
X21001309Y4935764D01*
X21271808Y5017818D01*
X21521101Y5151068D01*
X21739608Y5330392D01*
X21890227Y5513922D01*
X21920300Y5510960D01*
X21961318Y5515000D01*
X21961319Y5515000D01*
X22083989Y5527082D01*
X22241387Y5574828D01*
X22386446Y5652364D01*
X22513591Y5756709D01*
X22539746Y5788579D01*
X23613826Y6862658D01*
X23645691Y6888809D01*
X23750036Y7015954D01*
X23827572Y7161013D01*
X23875318Y7318411D01*
X23891440Y7482099D01*
X23887400Y7523118D01*
X23887400Y13321354D01*
X24941006Y12267747D01*
X24958310Y12180755D01*
X25025023Y12019695D01*
X25121876Y11874745D01*
X25245145Y11751476D01*
X25390095Y11654623D01*
X25551155Y11587910D01*
X25722135Y11553900D01*
X25896465Y11553900D01*
X26067445Y11587910D01*
X26115574Y11607845D01*
X26098057Y11430000D01*
X26125764Y11148691D01*
X26207818Y10878192D01*
X26341068Y10628899D01*
X26520392Y10410392D01*
X26738899Y10231068D01*
X26871858Y10160000D01*
X26738899Y10088932D01*
X26520392Y9909608D01*
X26341068Y9691101D01*
X26207818Y9441808D01*
X26125764Y9171309D01*
X26098057Y8890000D01*
X26125764Y8608691D01*
X26207818Y8338192D01*
X26341068Y8088899D01*
X26520392Y7870392D01*
X26633482Y7777581D01*
X26615518Y7775812D01*
X26495820Y7739502D01*
X26385506Y7680537D01*
X26288815Y7601185D01*
X26209463Y7504494D01*
X26150498Y7394180D01*
X26114188Y7274482D01*
X26101928Y7150000D01*
X26101928Y5550000D01*
X26114188Y5425518D01*
X26150498Y5305820D01*
X26209463Y5195506D01*
X26288815Y5098815D01*
X26385506Y5019463D01*
X26495820Y4960498D01*
X26615518Y4924188D01*
X26740000Y4911928D01*
X29140000Y4911928D01*
X29264482Y4924188D01*
X29384180Y4960498D01*
X29494494Y5019463D01*
X29591185Y5098815D01*
X29670537Y5195506D01*
X29729502Y5305820D01*
X29765812Y5425518D01*
X29778072Y5550000D01*
X29778072Y5697135D01*
X29850620Y5735913D01*
X29962538Y5827762D01*
X29985558Y5855812D01*
X30753293Y6623546D01*
X30781338Y6646562D01*
X30873187Y6758480D01*
X30941437Y6886167D01*
X30977123Y7003808D01*
X30983465Y7024714D01*
X30997656Y7168799D01*
X30994100Y7204904D01*
X30994100Y18248683D01*
X31029914Y18181680D01*
X31121763Y18069762D01*
X31149808Y18046746D01*
X34144736Y15051817D01*
X33998068Y14873101D01*
X33864818Y14623808D01*
X33782764Y14353309D01*
X33755057Y14072000D01*
X33782764Y13790691D01*
X33864818Y13520192D01*
X33998068Y13270899D01*
X34177392Y13052392D01*
X34395899Y12873068D01*
X34528858Y12802000D01*
X34395899Y12730932D01*
X34177392Y12551608D01*
X33998068Y12333101D01*
X33864818Y12083808D01*
X33782764Y11813309D01*
X33755057Y11532000D01*
X33782764Y11250691D01*
X33864818Y10980192D01*
X33998068Y10730899D01*
X34177392Y10512392D01*
X34395899Y10333068D01*
X34528858Y10262000D01*
X34395899Y10190932D01*
X34177392Y10011608D01*
X33998068Y9793101D01*
X33864818Y9543808D01*
X33782764Y9273309D01*
X33755057Y8992000D01*
X33782764Y8710691D01*
X33864818Y8440192D01*
X33998068Y8190899D01*
X34177392Y7972392D01*
X34395899Y7793068D01*
X34528858Y7722000D01*
X34395899Y7650932D01*
X34177392Y7471608D01*
X33998068Y7253101D01*
X33864818Y7003808D01*
X33782764Y6733309D01*
X33755057Y6452000D01*
X33782764Y6170691D01*
X33864818Y5900192D01*
X33998068Y5650899D01*
X34177392Y5432392D01*
X34395899Y5253068D01*
X34645192Y5119818D01*
X34915691Y5037764D01*
X35126508Y5017000D01*
X36067492Y5017000D01*
X36278309Y5037764D01*
X36548808Y5119818D01*
X36798101Y5253068D01*
X37016608Y5432392D01*
X37195932Y5650899D01*
X37329182Y5900192D01*
X37411236Y6170691D01*
X37438943Y6452000D01*
X37411236Y6733309D01*
X37329182Y7003808D01*
X37195932Y7253101D01*
X37016608Y7471608D01*
X36798101Y7650932D01*
X36665142Y7722000D01*
X36798101Y7793068D01*
X37016608Y7972392D01*
X37195932Y8190899D01*
X37329182Y8440192D01*
X37411236Y8710691D01*
X37438943Y8992000D01*
X37411236Y9273309D01*
X37329182Y9543808D01*
X37195932Y9793101D01*
X37016608Y10011608D01*
X36798101Y10190932D01*
X36665142Y10262000D01*
X36798101Y10333068D01*
X37016608Y10512392D01*
X37195932Y10730899D01*
X37329182Y10980192D01*
X37411236Y11250691D01*
X37438943Y11532000D01*
X37411236Y11813309D01*
X37329182Y12083808D01*
X37195932Y12333101D01*
X37016608Y12551608D01*
X36798101Y12730932D01*
X36665142Y12802000D01*
X36798101Y12873068D01*
X37016608Y13052392D01*
X37195932Y13270899D01*
X37329182Y13520192D01*
X37411236Y13790691D01*
X37438943Y14072000D01*
X37411236Y14353309D01*
X37329182Y14623808D01*
X37253980Y14764500D01*
X48188095Y14764500D01*
X48224200Y14760944D01*
X48260305Y14764500D01*
X48368285Y14775135D01*
X48506833Y14817163D01*
X48634520Y14885413D01*
X48746438Y14977262D01*
X48769458Y15005312D01*
X49389962Y15625815D01*
X49417392Y15592392D01*
X49635899Y15413068D01*
X49768858Y15342000D01*
X49635899Y15270932D01*
X49417392Y15091608D01*
X49238068Y14873101D01*
X49104818Y14623808D01*
X49022764Y14353309D01*
X48995057Y14072000D01*
X49022764Y13790691D01*
X49104818Y13520192D01*
X49238068Y13270899D01*
X49417392Y13052392D01*
X49635899Y12873068D01*
X49768858Y12802000D01*
X49635899Y12730932D01*
X49417392Y12551608D01*
X49238068Y12333101D01*
X49104818Y12083808D01*
X49022764Y11813309D01*
X48995057Y11532000D01*
X49022764Y11250691D01*
X49104818Y10980192D01*
X49238068Y10730899D01*
X49417392Y10512392D01*
X49635899Y10333068D01*
X49768858Y10262000D01*
X49635899Y10190932D01*
X49417392Y10011608D01*
X49238068Y9793101D01*
X49104818Y9543808D01*
X49022764Y9273309D01*
X48995057Y8992000D01*
X49022764Y8710691D01*
X49104818Y8440192D01*
X49238068Y8190899D01*
X49417392Y7972392D01*
X49530482Y7879581D01*
X49512518Y7877812D01*
X49392820Y7841502D01*
X49282506Y7782537D01*
X49185815Y7703185D01*
X49106463Y7606494D01*
X49047498Y7496180D01*
X49011188Y7376482D01*
X48998928Y7252000D01*
X48998928Y5652000D01*
X49011188Y5527518D01*
X49047498Y5407820D01*
X49106463Y5297506D01*
X49185815Y5200815D01*
X49282506Y5121463D01*
X49392820Y5062498D01*
X49512518Y5026188D01*
X49637000Y5013928D01*
X52037000Y5013928D01*
X52161482Y5026188D01*
X52281180Y5062498D01*
X52391494Y5121463D01*
X52488185Y5200815D01*
X52504034Y5220128D01*
X92765000Y5220128D01*
X92765000Y4779872D01*
X92850890Y4348075D01*
X93019369Y3941331D01*
X93263962Y3575271D01*
X93575271Y3263962D01*
X93941331Y3019369D01*
X94348075Y2850890D01*
X94779872Y2765000D01*
X95220128Y2765000D01*
X95651925Y2850890D01*
X96058669Y3019369D01*
X96424729Y3263962D01*
X96736038Y3575271D01*
X96980631Y3941331D01*
X97149110Y4348075D01*
X97235000Y4779872D01*
X97235000Y5220128D01*
X97149110Y5651925D01*
X96980631Y6058669D01*
X96736038Y6424729D01*
X96424729Y6736038D01*
X96058669Y6980631D01*
X95651925Y7149110D01*
X95220128Y7235000D01*
X94779872Y7235000D01*
X94348075Y7149110D01*
X93941331Y6980631D01*
X93575271Y6736038D01*
X93263962Y6424729D01*
X93019369Y6058669D01*
X92850890Y5651925D01*
X92765000Y5220128D01*
X52504034Y5220128D01*
X52567537Y5297506D01*
X52626502Y5407820D01*
X52662812Y5527518D01*
X52675072Y5652000D01*
X52675072Y5717000D01*
X72779195Y5717000D01*
X72815300Y5713444D01*
X72851405Y5717000D01*
X72959385Y5727635D01*
X73097933Y5769663D01*
X73225620Y5837913D01*
X73337538Y5929762D01*
X73360559Y5957813D01*
X79041675Y11638929D01*
X79095241Y11585363D01*
X79330273Y11428320D01*
X79591426Y11320147D01*
X79868665Y11265000D01*
X80151335Y11265000D01*
X80428574Y11320147D01*
X80689727Y11428320D01*
X80924759Y11585363D01*
X81124637Y11785241D01*
X81280000Y12017759D01*
X81435363Y11785241D01*
X81635241Y11585363D01*
X81870273Y11428320D01*
X82131426Y11320147D01*
X82408665Y11265000D01*
X82691335Y11265000D01*
X82968574Y11320147D01*
X83229727Y11428320D01*
X83464759Y11585363D01*
X83664637Y11785241D01*
X83820000Y12017759D01*
X83975363Y11785241D01*
X84175241Y11585363D01*
X84410273Y11428320D01*
X84671426Y11320147D01*
X84948665Y11265000D01*
X85231335Y11265000D01*
X85508574Y11320147D01*
X85769727Y11428320D01*
X86004759Y11585363D01*
X86204637Y11785241D01*
X86361680Y12020273D01*
X86366067Y12030865D01*
X86477615Y11844869D01*
X86666586Y11636481D01*
X86892580Y11468963D01*
X87146913Y11348754D01*
X87280961Y11308096D01*
X87503000Y11430085D01*
X87503000Y12573000D01*
X87483000Y12573000D01*
X87483000Y12827000D01*
X87503000Y12827000D01*
X87503000Y13969915D01*
X87757000Y13969915D01*
X87757000Y12827000D01*
X87777000Y12827000D01*
X87777000Y12573000D01*
X87757000Y12573000D01*
X87757000Y11430085D01*
X87979039Y11308096D01*
X88113087Y11348754D01*
X88367420Y11468963D01*
X88593414Y11636481D01*
X88782385Y11844869D01*
X88893933Y12030865D01*
X88898320Y12020273D01*
X89055363Y11785241D01*
X89255241Y11585363D01*
X89490273Y11428320D01*
X89751426Y11320147D01*
X90028665Y11265000D01*
X90311335Y11265000D01*
X90588574Y11320147D01*
X90849727Y11428320D01*
X91084759Y11585363D01*
X91284637Y11785241D01*
X91441680Y12020273D01*
X91549853Y12281426D01*
X91605000Y12558665D01*
X91605000Y12841335D01*
X91549853Y13118574D01*
X91441680Y13379727D01*
X91284637Y13614759D01*
X91084759Y13814637D01*
X90849727Y13971680D01*
X90588574Y14079853D01*
X90311335Y14135000D01*
X90028665Y14135000D01*
X89751426Y14079853D01*
X89490273Y13971680D01*
X89255241Y13814637D01*
X89055363Y13614759D01*
X88898320Y13379727D01*
X88893933Y13369135D01*
X88782385Y13555131D01*
X88593414Y13763519D01*
X88367420Y13931037D01*
X88113087Y14051246D01*
X87979039Y14091904D01*
X87757000Y13969915D01*
X87503000Y13969915D01*
X87280961Y14091904D01*
X87146913Y14051246D01*
X86892580Y13931037D01*
X86666586Y13763519D01*
X86477615Y13555131D01*
X86366067Y13369135D01*
X86361680Y13379727D01*
X86204637Y13614759D01*
X86004759Y13814637D01*
X85769727Y13971680D01*
X85508574Y14079853D01*
X85231335Y14135000D01*
X84948665Y14135000D01*
X84671426Y14079853D01*
X84410273Y13971680D01*
X84175241Y13814637D01*
X83975363Y13614759D01*
X83820000Y13382241D01*
X83664637Y13614759D01*
X83464759Y13814637D01*
X83229727Y13971680D01*
X82968574Y14079853D01*
X82691335Y14135000D01*
X82408665Y14135000D01*
X82131426Y14079853D01*
X82118856Y14074646D01*
X82194759Y14125363D01*
X82394637Y14325241D01*
X82551680Y14560273D01*
X82659853Y14821426D01*
X82715000Y15098665D01*
X82715000Y15381335D01*
X82659853Y15658574D01*
X82551680Y15919727D01*
X82394637Y16154759D01*
X82194759Y16354637D01*
X81959727Y16511680D01*
X81698574Y16619853D01*
X81421335Y16675000D01*
X81138665Y16675000D01*
X80861426Y16619853D01*
X80600273Y16511680D01*
X80365241Y16354637D01*
X80165363Y16154759D01*
X80038324Y15964632D01*
X80035615Y15964365D01*
X79990914Y15950805D01*
X79854637Y16154759D01*
X79654759Y16354637D01*
X79419727Y16511680D01*
X79158574Y16619853D01*
X78881335Y16675000D01*
X78598665Y16675000D01*
X78321426Y16619853D01*
X78060273Y16511680D01*
X77825241Y16354637D01*
X77625363Y16154759D01*
X77498324Y15964632D01*
X77495615Y15964365D01*
X77357066Y15922337D01*
X77292144Y15887635D01*
X77229380Y15854087D01*
X77117462Y15762238D01*
X77094446Y15734193D01*
X75608908Y14248654D01*
X75580862Y14225637D01*
X75489013Y14113719D01*
X75448735Y14038365D01*
X75348574Y14079853D01*
X75071335Y14135000D01*
X74788665Y14135000D01*
X74511426Y14079853D01*
X74250273Y13971680D01*
X74015241Y13814637D01*
X73815363Y13614759D01*
X73688324Y13424632D01*
X73685615Y13424365D01*
X73640914Y13410805D01*
X73504637Y13614759D01*
X73304759Y13814637D01*
X73069727Y13971680D01*
X72808574Y14079853D01*
X72531335Y14135000D01*
X72248665Y14135000D01*
X71971426Y14079853D01*
X71958856Y14074646D01*
X72034759Y14125363D01*
X72234637Y14325241D01*
X72391680Y14560273D01*
X72499853Y14821426D01*
X72555000Y15098665D01*
X72555000Y15381335D01*
X72499853Y15658574D01*
X72391680Y15919727D01*
X72234637Y16154759D01*
X72034759Y16354637D01*
X71799727Y16511680D01*
X71538574Y16619853D01*
X71261335Y16675000D01*
X70978665Y16675000D01*
X70701426Y16619853D01*
X70585000Y16571628D01*
X70585000Y19014654D01*
X71614193Y20043846D01*
X71642238Y20066862D01*
X71734087Y20178780D01*
X71802337Y20306467D01*
X71844365Y20445015D01*
X71855000Y20552995D01*
X71855000Y20553004D01*
X71858555Y20589099D01*
X71855000Y20625194D01*
X71855000Y26608372D01*
X71971426Y26560147D01*
X72248665Y26505000D01*
X72531335Y26505000D01*
X72808574Y26560147D01*
X73069727Y26668320D01*
X73304759Y26825363D01*
X73504637Y27025241D01*
X73660000Y27257759D01*
X73815363Y27025241D01*
X74015241Y26825363D01*
X74250273Y26668320D01*
X74511426Y26560147D01*
X74788665Y26505000D01*
X75071335Y26505000D01*
X75348574Y26560147D01*
X75609727Y26668320D01*
X75844759Y26825363D01*
X76044637Y27025241D01*
X76200000Y27257759D01*
X76355363Y27025241D01*
X76555241Y26825363D01*
X76790273Y26668320D01*
X77051426Y26560147D01*
X77328665Y26505000D01*
X77611335Y26505000D01*
X77888574Y26560147D01*
X78149727Y26668320D01*
X78384759Y26825363D01*
X78584637Y27025241D01*
X78740000Y27257759D01*
X78895363Y27025241D01*
X79095241Y26825363D01*
X79330273Y26668320D01*
X79591426Y26560147D01*
X79868665Y26505000D01*
X80151335Y26505000D01*
X80428574Y26560147D01*
X80689727Y26668320D01*
X80924759Y26825363D01*
X81124637Y27025241D01*
X81280000Y27257759D01*
X81435363Y27025241D01*
X81635241Y26825363D01*
X81870273Y26668320D01*
X82131426Y26560147D01*
X82408665Y26505000D01*
X82691335Y26505000D01*
X82968574Y26560147D01*
X83229727Y26668320D01*
X83464759Y26825363D01*
X83664637Y27025241D01*
X83820000Y27257759D01*
X83975363Y27025241D01*
X84175241Y26825363D01*
X84410273Y26668320D01*
X84671426Y26560147D01*
X84948665Y26505000D01*
X85231335Y26505000D01*
X85508574Y26560147D01*
X85769727Y26668320D01*
X86004759Y26825363D01*
X86204637Y27025241D01*
X86360000Y27257759D01*
X86515363Y27025241D01*
X86715241Y26825363D01*
X86950273Y26668320D01*
X87211426Y26560147D01*
X87488665Y26505000D01*
X87771335Y26505000D01*
X88048574Y26560147D01*
X88309727Y26668320D01*
X88544759Y26825363D01*
X88743357Y27023961D01*
X88744188Y27015518D01*
X88780498Y26895820D01*
X88839463Y26785506D01*
X88918815Y26688815D01*
X89015506Y26609463D01*
X89125820Y26550498D01*
X89245518Y26514188D01*
X89370000Y26501928D01*
X90970000Y26501928D01*
X91094482Y26514188D01*
X91214180Y26550498D01*
X91324494Y26609463D01*
X91421185Y26688815D01*
X91500537Y26785506D01*
X91559502Y26895820D01*
X91595812Y27015518D01*
X91608072Y27140000D01*
X91608072Y28740000D01*
X91595812Y28864482D01*
X91559502Y28984180D01*
X91500537Y29094494D01*
X91421185Y29191185D01*
X91324494Y29270537D01*
X91214180Y29329502D01*
X91094482Y29365812D01*
X90970000Y29378072D01*
X89370000Y29378072D01*
X89245518Y29365812D01*
X89125820Y29329502D01*
X89015506Y29270537D01*
X88918815Y29191185D01*
X88839463Y29094494D01*
X88780498Y28984180D01*
X88744188Y28864482D01*
X88743357Y28856039D01*
X88544759Y29054637D01*
X88309727Y29211680D01*
X88048574Y29319853D01*
X87771335Y29375000D01*
X87488665Y29375000D01*
X87211426Y29319853D01*
X86950273Y29211680D01*
X86715241Y29054637D01*
X86515363Y28854759D01*
X86360000Y28622241D01*
X86204637Y28854759D01*
X86004759Y29054637D01*
X85769727Y29211680D01*
X85508574Y29319853D01*
X85231335Y29375000D01*
X84948665Y29375000D01*
X84671426Y29319853D01*
X84410273Y29211680D01*
X84175241Y29054637D01*
X83975363Y28854759D01*
X83820000Y28622241D01*
X83664637Y28854759D01*
X83464759Y29054637D01*
X83229727Y29211680D01*
X82968574Y29319853D01*
X82691335Y29375000D01*
X82408665Y29375000D01*
X82131426Y29319853D01*
X81870273Y29211680D01*
X81635241Y29054637D01*
X81435363Y28854759D01*
X81280000Y28622241D01*
X81124637Y28854759D01*
X80924759Y29054637D01*
X80689727Y29211680D01*
X80428574Y29319853D01*
X80151335Y29375000D01*
X79868665Y29375000D01*
X79591426Y29319853D01*
X79330273Y29211680D01*
X79095241Y29054637D01*
X78895363Y28854759D01*
X78740000Y28622241D01*
X78584637Y28854759D01*
X78384759Y29054637D01*
X78149727Y29211680D01*
X77888574Y29319853D01*
X77611335Y29375000D01*
X77328665Y29375000D01*
X77051426Y29319853D01*
X76790273Y29211680D01*
X76555241Y29054637D01*
X76355363Y28854759D01*
X76200000Y28622241D01*
X76044637Y28854759D01*
X75844759Y29054637D01*
X75609727Y29211680D01*
X75348574Y29319853D01*
X75071335Y29375000D01*
X74788665Y29375000D01*
X74511426Y29319853D01*
X74250273Y29211680D01*
X74015241Y29054637D01*
X73815363Y28854759D01*
X73660000Y28622241D01*
X73504637Y28854759D01*
X73304759Y29054637D01*
X73069727Y29211680D01*
X72808574Y29319853D01*
X72531335Y29375000D01*
X72248665Y29375000D01*
X71971426Y29319853D01*
X71855000Y29271628D01*
X71855000Y31376954D01*
X72338993Y31860946D01*
X72367038Y31883962D01*
X72458887Y31995880D01*
X72527137Y32123567D01*
X72569165Y32262115D01*
X72579800Y32370095D01*
X72583356Y32406200D01*
X72579800Y32442305D01*
X72579800Y38246260D01*
X93765000Y38246260D01*
X93765000Y37953740D01*
X93822068Y37666842D01*
X93934010Y37396589D01*
X94096525Y37153368D01*
X94303368Y36946525D01*
X94546589Y36784010D01*
X94816842Y36672068D01*
X95103740Y36615000D01*
X95396260Y36615000D01*
X95683158Y36672068D01*
X95953411Y36784010D01*
X96196632Y36946525D01*
X96403475Y37153368D01*
X96520000Y37327760D01*
X96636525Y37153368D01*
X96843368Y36946525D01*
X97086589Y36784010D01*
X97356842Y36672068D01*
X97643740Y36615000D01*
X97936260Y36615000D01*
X98223158Y36672068D01*
X98493411Y36784010D01*
X98736632Y36946525D01*
X98943475Y37153368D01*
X99105990Y37396589D01*
X99217932Y37666842D01*
X99275000Y37953740D01*
X99275000Y38246260D01*
X99217932Y38533158D01*
X99105990Y38803411D01*
X98943475Y39046632D01*
X98736632Y39253475D01*
X98493411Y39415990D01*
X98223158Y39527932D01*
X97936260Y39585000D01*
X97643740Y39585000D01*
X97356842Y39527932D01*
X97086589Y39415990D01*
X96843368Y39253475D01*
X96636525Y39046632D01*
X96520000Y38872240D01*
X96403475Y39046632D01*
X96196632Y39253475D01*
X95953411Y39415990D01*
X95683158Y39527932D01*
X95396260Y39585000D01*
X95103740Y39585000D01*
X94816842Y39527932D01*
X94546589Y39415990D01*
X94303368Y39253475D01*
X94096525Y39046632D01*
X93934010Y38803411D01*
X93822068Y38533158D01*
X93765000Y38246260D01*
X72579800Y38246260D01*
X72579800Y45366406D01*
X72583355Y45402501D01*
X72579800Y45438596D01*
X72579800Y45438605D01*
X72569165Y45546585D01*
X72527137Y45685133D01*
X72458887Y45812820D01*
X72430836Y45847000D01*
X72390053Y45896694D01*
X72390050Y45896697D01*
X72367037Y45924738D01*
X72338997Y45947750D01*
X70988427Y47298320D01*
X71003475Y47313368D01*
X71165990Y47556589D01*
X71277932Y47826842D01*
X71335000Y48113740D01*
X71335000Y48406260D01*
X71277932Y48693158D01*
X71165990Y48963411D01*
X71003475Y49206632D01*
X70965277Y49244830D01*
X80286707Y58566260D01*
X93765000Y58566260D01*
X93765000Y58273740D01*
X93822068Y57986842D01*
X93934010Y57716589D01*
X94096525Y57473368D01*
X94303368Y57266525D01*
X94546589Y57104010D01*
X94816842Y56992068D01*
X95103740Y56935000D01*
X95396260Y56935000D01*
X95683158Y56992068D01*
X95953411Y57104010D01*
X96196632Y57266525D01*
X96403475Y57473368D01*
X96520000Y57647760D01*
X96636525Y57473368D01*
X96843368Y57266525D01*
X97086589Y57104010D01*
X97356842Y56992068D01*
X97643740Y56935000D01*
X97936260Y56935000D01*
X98223158Y56992068D01*
X98493411Y57104010D01*
X98736632Y57266525D01*
X98943475Y57473368D01*
X99105990Y57716589D01*
X99217932Y57986842D01*
X99275000Y58273740D01*
X99275000Y58566260D01*
X99217932Y58853158D01*
X99105990Y59123411D01*
X98943475Y59366632D01*
X98736632Y59573475D01*
X98493411Y59735990D01*
X98223158Y59847932D01*
X97936260Y59905000D01*
X97643740Y59905000D01*
X97356842Y59847932D01*
X97086589Y59735990D01*
X96843368Y59573475D01*
X96636525Y59366632D01*
X96520000Y59192240D01*
X96403475Y59366632D01*
X96196632Y59573475D01*
X95953411Y59735990D01*
X95683158Y59847932D01*
X95396260Y59905000D01*
X95103740Y59905000D01*
X94816842Y59847932D01*
X94546589Y59735990D01*
X94303368Y59573475D01*
X94096525Y59366632D01*
X93934010Y59123411D01*
X93822068Y58853158D01*
X93765000Y58566260D01*
X80286707Y58566260D01*
X86854193Y65133746D01*
X86882238Y65156762D01*
X86974087Y65268680D01*
X87042337Y65396367D01*
X87084365Y65534915D01*
X87095000Y65642895D01*
X87098556Y65679000D01*
X87095000Y65715105D01*
X87095000Y69485736D01*
X87161101Y69521068D01*
X87379608Y69700392D01*
X87558932Y69918899D01*
X87630000Y70051858D01*
X87701068Y69918899D01*
X87880393Y69700392D01*
X88098900Y69521068D01*
X88348193Y69387818D01*
X88618692Y69305764D01*
X88900000Y69278057D01*
X89181309Y69305764D01*
X89451808Y69387818D01*
X89701101Y69521068D01*
X89919608Y69700392D01*
X90098932Y69918899D01*
X90167265Y70046741D01*
X90317399Y69817161D01*
X90515105Y69615500D01*
X90748354Y69456285D01*
X91008182Y69345633D01*
X91090961Y69328096D01*
X91313000Y69450085D01*
X91313000Y70993000D01*
X91567000Y70993000D01*
X91567000Y69450085D01*
X91789039Y69328096D01*
X91871818Y69345633D01*
X92131646Y69456285D01*
X92364895Y69615500D01*
X92562601Y69817161D01*
X92717166Y70053517D01*
X92822650Y70315486D01*
X92875000Y70593000D01*
X92875000Y70993000D01*
X91567000Y70993000D01*
X91313000Y70993000D01*
X91293000Y70993000D01*
X91293000Y71247000D01*
X91313000Y71247000D01*
X91313000Y72789915D01*
X91567000Y72789915D01*
X91567000Y71247000D01*
X92875000Y71247000D01*
X92875000Y71647000D01*
X92822650Y71924514D01*
X92717166Y72186483D01*
X92562601Y72422839D01*
X92364895Y72624500D01*
X92131646Y72783715D01*
X91871818Y72894367D01*
X91789039Y72911904D01*
X91567000Y72789915D01*
X91313000Y72789915D01*
X91090961Y72911904D01*
X91008182Y72894367D01*
X90748354Y72783715D01*
X90515105Y72624500D01*
X90317399Y72422839D01*
X90167265Y72193259D01*
X90098932Y72321101D01*
X89919607Y72539608D01*
X89701100Y72718932D01*
X89451807Y72852182D01*
X89181308Y72934236D01*
X88900000Y72961943D01*
X88618691Y72934236D01*
X88348192Y72852182D01*
X88098899Y72718932D01*
X87880392Y72539607D01*
X87701068Y72321100D01*
X87630000Y72188142D01*
X87558932Y72321101D01*
X87379607Y72539608D01*
X87161100Y72718932D01*
X86911807Y72852182D01*
X86641308Y72934236D01*
X86360000Y72961943D01*
X86078691Y72934236D01*
X85808192Y72852182D01*
X85558899Y72718932D01*
X85340392Y72539607D01*
X85161068Y72321100D01*
X85090000Y72188142D01*
X85018932Y72321101D01*
X84839607Y72539608D01*
X84621100Y72718932D01*
X84371807Y72852182D01*
X84101308Y72934236D01*
X83820000Y72961943D01*
X83538691Y72934236D01*
X83268192Y72852182D01*
X83018899Y72718932D01*
X82800392Y72539607D01*
X82621068Y72321100D01*
X82550000Y72188142D01*
X82478932Y72321101D01*
X82299607Y72539608D01*
X82081100Y72718932D01*
X81831807Y72852182D01*
X81561308Y72934236D01*
X81280000Y72961943D01*
X80998691Y72934236D01*
X80728192Y72852182D01*
X80478899Y72718932D01*
X80260392Y72539607D01*
X80081068Y72321100D01*
X80010000Y72188142D01*
X79938932Y72321101D01*
X79759607Y72539608D01*
X79541100Y72718932D01*
X79291807Y72852182D01*
X79021308Y72934236D01*
X78740000Y72961943D01*
X78458691Y72934236D01*
X78188192Y72852182D01*
X77938899Y72718932D01*
X77720392Y72539607D01*
X77541068Y72321100D01*
X77470000Y72188142D01*
X77398932Y72321101D01*
X77219607Y72539608D01*
X77001100Y72718932D01*
X76751807Y72852182D01*
X76481308Y72934236D01*
X76200000Y72961943D01*
X75918691Y72934236D01*
X75648192Y72852182D01*
X75398899Y72718932D01*
X75180392Y72539607D01*
X75001068Y72321100D01*
X74930000Y72188142D01*
X74858932Y72321101D01*
X74679607Y72539608D01*
X74461100Y72718932D01*
X74211807Y72852182D01*
X73941308Y72934236D01*
X73660000Y72961943D01*
X73437693Y72940047D01*
X77796097Y77298451D01*
X77824137Y77321462D01*
X77847150Y77349503D01*
X77847153Y77349506D01*
X77915987Y77433380D01*
X77984237Y77561066D01*
X78026265Y77699615D01*
X78040456Y77843700D01*
X78036900Y77879805D01*
X78036900Y84704103D01*
X78048354Y84696285D01*
X78308182Y84585633D01*
X78390961Y84568096D01*
X78613000Y84690085D01*
X78613000Y86233000D01*
X78593000Y86233000D01*
X78593000Y86487000D01*
X78613000Y86487000D01*
X78613000Y88029915D01*
X78390961Y88151904D01*
X78308182Y88134367D01*
X78048354Y88023715D01*
X78036900Y88015897D01*
X78036900Y90580054D01*
X80429529Y92972682D01*
X80426928Y92495000D01*
X80439188Y92370518D01*
X80475498Y92250820D01*
X80534463Y92140506D01*
X80613815Y92043815D01*
X80710506Y91964463D01*
X80820820Y91905498D01*
X80940518Y91869188D01*
X81065000Y91856928D01*
X81629250Y91860000D01*
X81788000Y92018750D01*
X81788000Y93218000D01*
X81768000Y93218000D01*
X81768000Y93472000D01*
X81788000Y93472000D01*
X81788000Y93492000D01*
X82042000Y93492000D01*
X82042000Y93472000D01*
X82062000Y93472000D01*
X82062000Y93218000D01*
X82042000Y93218000D01*
X82042000Y92018750D01*
X82200750Y91860000D01*
X82765000Y91856928D01*
X82889482Y91869188D01*
X83009180Y91905498D01*
X83106784Y91957669D01*
X87041701Y88022752D01*
X86911807Y88092182D01*
X86641308Y88174236D01*
X86360000Y88201943D01*
X86078691Y88174236D01*
X85808192Y88092182D01*
X85558899Y87958932D01*
X85340392Y87779607D01*
X85161068Y87561100D01*
X85090000Y87428142D01*
X85018932Y87561101D01*
X84839607Y87779608D01*
X84621100Y87958932D01*
X84371807Y88092182D01*
X84101308Y88174236D01*
X83820000Y88201943D01*
X83538691Y88174236D01*
X83268192Y88092182D01*
X83018899Y87958932D01*
X82800392Y87779607D01*
X82621068Y87561100D01*
X82550000Y87428142D01*
X82478932Y87561101D01*
X82299607Y87779608D01*
X82081100Y87958932D01*
X81831807Y88092182D01*
X81561308Y88174236D01*
X81280000Y88201943D01*
X80998691Y88174236D01*
X80728192Y88092182D01*
X80478899Y87958932D01*
X80260392Y87779607D01*
X80081068Y87561100D01*
X80012735Y87433258D01*
X79862601Y87662839D01*
X79664895Y87864500D01*
X79431646Y88023715D01*
X79171818Y88134367D01*
X79089039Y88151904D01*
X78867000Y88029915D01*
X78867000Y86487000D01*
X78887000Y86487000D01*
X78887000Y86233000D01*
X78867000Y86233000D01*
X78867000Y84690085D01*
X79089039Y84568096D01*
X79171818Y84585633D01*
X79431646Y84696285D01*
X79664895Y84855500D01*
X79862601Y85057161D01*
X80012735Y85286741D01*
X80081068Y85158899D01*
X80260393Y84940392D01*
X80478900Y84761068D01*
X80728193Y84627818D01*
X80998692Y84545764D01*
X81280000Y84518057D01*
X81561309Y84545764D01*
X81831808Y84627818D01*
X82081101Y84761068D01*
X82299608Y84940392D01*
X82478932Y85158899D01*
X82550000Y85291858D01*
X82621068Y85158899D01*
X82800393Y84940392D01*
X83018900Y84761068D01*
X83268193Y84627818D01*
X83538692Y84545764D01*
X83820000Y84518057D01*
X84101309Y84545764D01*
X84371808Y84627818D01*
X84621101Y84761068D01*
X84839608Y84940392D01*
X85018932Y85158899D01*
X85090000Y85291858D01*
X85161068Y85158899D01*
X85340393Y84940392D01*
X85558900Y84761068D01*
X85808193Y84627818D01*
X86078692Y84545764D01*
X86360000Y84518057D01*
X86641309Y84545764D01*
X86911808Y84627818D01*
X87161101Y84761068D01*
X87379608Y84940392D01*
X87558932Y85158899D01*
X87630000Y85291858D01*
X87701068Y85158899D01*
X87880393Y84940392D01*
X88098900Y84761068D01*
X88348193Y84627818D01*
X88618692Y84545764D01*
X88900000Y84518057D01*
X89181309Y84545764D01*
X89451808Y84627818D01*
X89701101Y84761068D01*
X89919608Y84940392D01*
X90098932Y85158899D01*
X90170000Y85291858D01*
X90241068Y85158899D01*
X90420393Y84940392D01*
X90638900Y84761068D01*
X90888193Y84627818D01*
X91158692Y84545764D01*
X91440000Y84518057D01*
X91721309Y84545764D01*
X91991808Y84627818D01*
X92241101Y84761068D01*
X92459608Y84940392D01*
X92638932Y85158899D01*
X92772182Y85408192D01*
X92854236Y85678691D01*
X92875000Y85889509D01*
X92875000Y86830492D01*
X92854236Y87041309D01*
X92772182Y87311808D01*
X92638932Y87561101D01*
X92459607Y87779608D01*
X92241100Y87958932D01*
X91991807Y88092182D01*
X91721308Y88174236D01*
X91440000Y88201943D01*
X91158691Y88174236D01*
X90888192Y88092182D01*
X90638899Y87958932D01*
X90420392Y87779607D01*
X90241068Y87561100D01*
X90170000Y87428142D01*
X90098932Y87561101D01*
X89919607Y87779608D01*
X89701100Y87958932D01*
X89624826Y87999701D01*
X89624365Y88004385D01*
X89582337Y88142933D01*
X89514087Y88270620D01*
X89422238Y88382538D01*
X89310320Y88474387D01*
X89182633Y88542637D01*
X89044085Y88584665D01*
X88936105Y88595300D01*
X88900000Y88598856D01*
X88863895Y88595300D01*
X88548047Y88595300D01*
X85127245Y92016101D01*
X85158411Y92029010D01*
X85401632Y92191525D01*
X85608475Y92398368D01*
X85725000Y92572760D01*
X85841525Y92398368D01*
X86048368Y92191525D01*
X86291589Y92029010D01*
X86561842Y91917068D01*
X86848740Y91860000D01*
X87141260Y91860000D01*
X87428158Y91917068D01*
X87698411Y92029010D01*
X87941632Y92191525D01*
X88148475Y92398368D01*
X88310990Y92641589D01*
X88422932Y92911842D01*
X88480000Y93198740D01*
X88480000Y93491260D01*
X88422932Y93778158D01*
X88310990Y94048411D01*
X88148475Y94291632D01*
X87941632Y94498475D01*
X87698411Y94660990D01*
X87428158Y94772932D01*
X87141260Y94830000D01*
X86848740Y94830000D01*
X86561842Y94772932D01*
X86291589Y94660990D01*
X86048368Y94498475D01*
X85841525Y94291632D01*
X85725000Y94117240D01*
X85608475Y94291632D01*
X85401632Y94498475D01*
X85158411Y94660990D01*
X84888158Y94772932D01*
X84601260Y94830000D01*
X84308740Y94830000D01*
X84021842Y94772932D01*
X83751589Y94660990D01*
X83743136Y94655342D01*
X83679487Y94774420D01*
X83587637Y94886338D01*
X83559592Y94909354D01*
X83479359Y94989587D01*
X83456338Y95017638D01*
X83344420Y95109487D01*
X83216733Y95177737D01*
X83078185Y95219765D01*
X83074500Y95220128D01*
X92765000Y95220128D01*
X92765000Y94779872D01*
X92850890Y94348075D01*
X93019369Y93941331D01*
X93263962Y93575271D01*
X93575271Y93263962D01*
X93941331Y93019369D01*
X94348075Y92850890D01*
X94779872Y92765000D01*
X95220128Y92765000D01*
X95651925Y92850890D01*
X96058669Y93019369D01*
X96424729Y93263962D01*
X96736038Y93575271D01*
X96980631Y93941331D01*
X97149110Y94348075D01*
X97235000Y94779872D01*
X97235000Y95220128D01*
X97149110Y95651925D01*
X96980631Y96058669D01*
X96736038Y96424729D01*
X96424729Y96736038D01*
X96058669Y96980631D01*
X95651925Y97149110D01*
X95220128Y97235000D01*
X94779872Y97235000D01*
X94348075Y97149110D01*
X93941331Y96980631D01*
X93575271Y96736038D01*
X93263962Y96424729D01*
X93019369Y96058669D01*
X92850890Y95651925D01*
X92765000Y95220128D01*
X83074500Y95220128D01*
X82970205Y95230400D01*
X82934100Y95233956D01*
X82897995Y95230400D01*
X80948905Y95230400D01*
X80912800Y95233956D01*
X80768715Y95219765D01*
X80630166Y95177737D01*
X80502480Y95109487D01*
X80390562Y95017638D01*
X80367546Y94989593D01*
X76807708Y91429754D01*
X76779663Y91406738D01*
X76687814Y91294820D01*
X76639988Y91205344D01*
X76619564Y91167133D01*
X76577535Y91028585D01*
X76563344Y90884500D01*
X76566901Y90848385D01*
X76566901Y88148272D01*
X76481308Y88174236D01*
X76200000Y88201943D01*
X75918691Y88174236D01*
X75648192Y88092182D01*
X75398899Y87958932D01*
X75180392Y87779607D01*
X75001068Y87561100D01*
X74930000Y87428142D01*
X74858932Y87561101D01*
X74679607Y87779608D01*
X74461100Y87958932D01*
X74384826Y87999701D01*
X74384365Y88004385D01*
X74342337Y88142933D01*
X74274087Y88270620D01*
X74182238Y88382538D01*
X74154193Y88405554D01*
X67570159Y94989587D01*
X67547138Y95017638D01*
X67435220Y95109487D01*
X67307533Y95177737D01*
X67168985Y95219765D01*
X67061005Y95230400D01*
X67024900Y95233956D01*
X66988795Y95230400D01*
X54962294Y95230400D01*
X54926199Y95233955D01*
X54890104Y95230400D01*
X54890095Y95230400D01*
X54782115Y95219765D01*
X54643567Y95177737D01*
X54515880Y95109487D01*
X54403962Y95017638D01*
X54380946Y94989593D01*
X50463454Y91072100D01*
X50047969Y91072100D01*
X50074236Y91158691D01*
X50101943Y91440000D01*
X50074236Y91721309D01*
X49992182Y91991808D01*
X49858932Y92241101D01*
X49679608Y92459608D01*
X49461101Y92638932D01*
X49333259Y92707265D01*
X49562839Y92857399D01*
X49764500Y93055105D01*
X49923715Y93288354D01*
X50034367Y93548182D01*
X50051904Y93630961D01*
X49929915Y93853000D01*
X48387000Y93853000D01*
X48387000Y93833000D01*
X48133000Y93833000D01*
X48133000Y93853000D01*
X46590085Y93853000D01*
X46468096Y93630961D01*
X46485633Y93548182D01*
X46596285Y93288354D01*
X46755500Y93055105D01*
X46957161Y92857399D01*
X47186741Y92707265D01*
X47058899Y92638932D01*
X46874843Y92487881D01*
X46822477Y92614305D01*
X46725624Y92759255D01*
X46602355Y92882524D01*
X46457405Y92979377D01*
X46296345Y93046090D01*
X46209353Y93063394D01*
X44943708Y94329039D01*
X46468096Y94329039D01*
X46590085Y94107000D01*
X48133000Y94107000D01*
X48133000Y95415000D01*
X48387000Y95415000D01*
X48387000Y94107000D01*
X49929915Y94107000D01*
X50051904Y94329039D01*
X50034367Y94411818D01*
X49923715Y94671646D01*
X49764500Y94904895D01*
X49562839Y95102601D01*
X49326483Y95257166D01*
X49064514Y95362650D01*
X48787000Y95415000D01*
X48387000Y95415000D01*
X48133000Y95415000D01*
X47733000Y95415000D01*
X47455486Y95362650D01*
X47193517Y95257166D01*
X46957161Y95102601D01*
X46755500Y94904895D01*
X46596285Y94671646D01*
X46485633Y94411818D01*
X46468096Y94329039D01*
X44943708Y94329039D01*
X42881459Y96391287D01*
X42858438Y96419338D01*
X42746520Y96511187D01*
X42618833Y96579437D01*
X42480285Y96621465D01*
X42372305Y96632100D01*
X42336200Y96635656D01*
X42300095Y96632100D01*
X20288404Y96632100D01*
X20252299Y96635656D01*
X20108214Y96621465D01*
X20066186Y96608716D01*
X19969667Y96579437D01*
X19841980Y96511187D01*
X19730062Y96419338D01*
X19707046Y96391293D01*
X14980908Y91665154D01*
X14952862Y91642137D01*
X14861013Y91530219D01*
X14792763Y91402532D01*
X14791585Y91398647D01*
X14750735Y91263985D01*
X14736544Y91119900D01*
X14740100Y91083795D01*
X14740101Y89942648D01*
X14368466Y89571013D01*
X14298932Y89701101D01*
X14119608Y89919608D01*
X13901101Y90098932D01*
X13768142Y90170000D01*
X13901101Y90241068D01*
X14119608Y90420392D01*
X14298932Y90638899D01*
X14432182Y90888192D01*
X14514236Y91158691D01*
X14541943Y91440000D01*
X14514236Y91721309D01*
X14432182Y91991808D01*
X14298932Y92241101D01*
X14119608Y92459608D01*
X13901101Y92638932D01*
X13768142Y92710000D01*
X13901101Y92781068D01*
X14119608Y92960392D01*
X14298932Y93178899D01*
X14432182Y93428192D01*
X14514236Y93698691D01*
X14541943Y93980000D01*
X14514236Y94261309D01*
X14432182Y94531808D01*
X14298932Y94781101D01*
X14119608Y94999608D01*
X13901101Y95178932D01*
X13651808Y95312182D01*
X13381309Y95394236D01*
X13170492Y95415000D01*
X12229508Y95415000D01*
X12018691Y95394236D01*
X11748192Y95312182D01*
X11498899Y95178932D01*
X11280392Y94999608D01*
X11101068Y94781101D01*
X10967818Y94531808D01*
X10885764Y94261309D01*
X10858057Y93980000D01*
X10885764Y93698691D01*
X10967818Y93428192D01*
X11101068Y93178899D01*
X11280392Y92960392D01*
X11498899Y92781068D01*
X11631858Y92710000D01*
X11498899Y92638932D01*
X11280392Y92459608D01*
X11101068Y92241101D01*
X10967818Y91991808D01*
X10885764Y91721309D01*
X10858057Y91440000D01*
X10885764Y91158691D01*
X10967818Y90888192D01*
X11101068Y90638899D01*
X11280392Y90420392D01*
X11498899Y90241068D01*
X11631858Y90170000D01*
X11498899Y90098932D01*
X11280392Y89919608D01*
X11101068Y89701101D01*
X10967818Y89451808D01*
X10885764Y89181309D01*
X10858057Y88900000D01*
X10885764Y88618691D01*
X10962719Y88365000D01*
X9927696Y88365000D01*
X9891599Y88368555D01*
X9855502Y88365000D01*
X9855495Y88365000D01*
X9761732Y88355765D01*
X9747514Y88354365D01*
X9727165Y88348192D01*
X9608967Y88312337D01*
X9481280Y88244087D01*
X9369362Y88152238D01*
X9346347Y88124194D01*
X1269108Y80046954D01*
X1241062Y80023937D01*
X1149213Y79912019D01*
X1080963Y79784332D01*
X1067597Y79740269D01*
X1038935Y79645785D01*
X1024744Y79501700D01*
X660000Y79501700D01*
X660000Y95220128D01*
X2765000Y95220128D01*
X2765000Y94779872D01*
X2850890Y94348075D01*
X3019369Y93941331D01*
X3263962Y93575271D01*
X3575271Y93263962D01*
X3941331Y93019369D01*
X4348075Y92850890D01*
X4779872Y92765000D01*
X5220128Y92765000D01*
X5651925Y92850890D01*
X6058669Y93019369D01*
X6424729Y93263962D01*
X6736038Y93575271D01*
X6980631Y93941331D01*
X7149110Y94348075D01*
X7235000Y94779872D01*
X7235000Y95220128D01*
X7149110Y95651925D01*
X6980631Y96058669D01*
X6736038Y96424729D01*
X6424729Y96736038D01*
X6058669Y96980631D01*
X5651925Y97149110D01*
X5220128Y97235000D01*
X4779872Y97235000D01*
X4348075Y97149110D01*
X3941331Y96980631D01*
X3575271Y96736038D01*
X3263962Y96424729D01*
X3019369Y96058669D01*
X2850890Y95651925D01*
X2765000Y95220128D01*
X660000Y95220128D01*
X660000Y99340000D01*
X99340001Y99340000D01*
X99340000Y660000D01*
G37*
G04 #@! TD.AperFunction*
D22*
X25593748Y26684142D02*
X25579605Y26670000D01*
X26392702Y25856903D01*
X26636671Y25928486D01*
X26757571Y26183996D01*
X26797613Y26343740D01*
X28705301Y24436052D01*
X28705301Y22980047D01*
X28467000Y23025000D01*
X28067000Y23025000D01*
X28067000Y21717000D01*
X28087000Y21717000D01*
X28087000Y21463000D01*
X28067000Y21463000D01*
X28067000Y21443000D01*
X27813000Y21443000D01*
X27813000Y21463000D01*
X26270085Y21463000D01*
X26148096Y21240961D01*
X26165633Y21158182D01*
X26276285Y20898354D01*
X26435500Y20665105D01*
X26637161Y20467399D01*
X26866741Y20317265D01*
X26738899Y20248932D01*
X26520392Y20069608D01*
X26341068Y19851101D01*
X26207818Y19601808D01*
X26125764Y19331309D01*
X26098057Y19050000D01*
X26125764Y18768691D01*
X26207818Y18498192D01*
X26341068Y18248899D01*
X26520392Y18030392D01*
X26738899Y17851068D01*
X26871858Y17780000D01*
X26738899Y17708932D01*
X26520392Y17529608D01*
X26341068Y17311101D01*
X26207818Y17061808D01*
X26125764Y16791309D01*
X26098057Y16510000D01*
X26125764Y16228691D01*
X26207818Y15958192D01*
X26341068Y15708899D01*
X26520392Y15490392D01*
X26738899Y15311068D01*
X26871858Y15240000D01*
X26738899Y15168932D01*
X26520392Y14989608D01*
X26341068Y14771101D01*
X26207818Y14521808D01*
X26125764Y14251309D01*
X26098057Y13970000D01*
X26125764Y13688691D01*
X26207818Y13418192D01*
X26341068Y13168899D01*
X26387694Y13112085D01*
X26373455Y13126324D01*
X26228505Y13223177D01*
X26067445Y13289890D01*
X25980453Y13307194D01*
X24969100Y14318546D01*
X24969100Y21939039D01*
X26148096Y21939039D01*
X26270085Y21717000D01*
X27813000Y21717000D01*
X27813000Y23025000D01*
X27413000Y23025000D01*
X27135486Y22972650D01*
X26873517Y22867166D01*
X26637161Y22712601D01*
X26435500Y22514895D01*
X26276285Y22281646D01*
X26165633Y22021818D01*
X26148096Y21939039D01*
X24969100Y21939039D01*
X24969100Y25298616D01*
X25188184Y25243700D01*
X25470512Y25229783D01*
X25750130Y25271213D01*
X26016292Y25366397D01*
X26141514Y25433329D01*
X26213097Y25677298D01*
X25400000Y26490395D01*
X25385858Y26476252D01*
X25206253Y26655857D01*
X25220395Y26670000D01*
X25206253Y26684142D01*
X25385858Y26863747D01*
X25400000Y26849605D01*
X25414143Y26863747D01*
X25593748Y26684142D01*
G04 #@! TA.AperFunction,Conductor*
D23*
G36*
X25593748Y26684142D02*
G01*
X25579605Y26670000D01*
X26392702Y25856903D01*
X26636671Y25928486D01*
X26757571Y26183996D01*
X26797613Y26343740D01*
X28705301Y24436052D01*
X28705301Y22980047D01*
X28467000Y23025000D01*
X28067000Y23025000D01*
X28067000Y21717000D01*
X28087000Y21717000D01*
X28087000Y21463000D01*
X28067000Y21463000D01*
X28067000Y21443000D01*
X27813000Y21443000D01*
X27813000Y21463000D01*
X26270085Y21463000D01*
X26148096Y21240961D01*
X26165633Y21158182D01*
X26276285Y20898354D01*
X26435500Y20665105D01*
X26637161Y20467399D01*
X26866741Y20317265D01*
X26738899Y20248932D01*
X26520392Y20069608D01*
X26341068Y19851101D01*
X26207818Y19601808D01*
X26125764Y19331309D01*
X26098057Y19050000D01*
X26125764Y18768691D01*
X26207818Y18498192D01*
X26341068Y18248899D01*
X26520392Y18030392D01*
X26738899Y17851068D01*
X26871858Y17780000D01*
X26738899Y17708932D01*
X26520392Y17529608D01*
X26341068Y17311101D01*
X26207818Y17061808D01*
X26125764Y16791309D01*
X26098057Y16510000D01*
X26125764Y16228691D01*
X26207818Y15958192D01*
X26341068Y15708899D01*
X26520392Y15490392D01*
X26738899Y15311068D01*
X26871858Y15240000D01*
X26738899Y15168932D01*
X26520392Y14989608D01*
X26341068Y14771101D01*
X26207818Y14521808D01*
X26125764Y14251309D01*
X26098057Y13970000D01*
X26125764Y13688691D01*
X26207818Y13418192D01*
X26341068Y13168899D01*
X26387694Y13112085D01*
X26373455Y13126324D01*
X26228505Y13223177D01*
X26067445Y13289890D01*
X25980453Y13307194D01*
X24969100Y14318546D01*
X24969100Y21939039D01*
X26148096Y21939039D01*
X26270085Y21717000D01*
X27813000Y21717000D01*
X27813000Y23025000D01*
X27413000Y23025000D01*
X27135486Y22972650D01*
X26873517Y22867166D01*
X26637161Y22712601D01*
X26435500Y22514895D01*
X26276285Y22281646D01*
X26165633Y22021818D01*
X26148096Y21939039D01*
X24969100Y21939039D01*
X24969100Y25298616D01*
X25188184Y25243700D01*
X25470512Y25229783D01*
X25750130Y25271213D01*
X26016292Y25366397D01*
X26141514Y25433329D01*
X26213097Y25677298D01*
X25400000Y26490395D01*
X25385858Y26476252D01*
X25206253Y26655857D01*
X25220395Y26670000D01*
X25206253Y26684142D01*
X25385858Y26863747D01*
X25400000Y26849605D01*
X25414143Y26863747D01*
X25593748Y26684142D01*
G37*
G04 #@! TD.AperFunction*
D22*
X50964000Y21819000D02*
X50984000Y21819000D01*
X50984000Y21565000D01*
X50964000Y21565000D01*
X50964000Y21545000D01*
X50710000Y21545000D01*
X50710000Y21565000D01*
X50690000Y21565000D01*
X50690000Y21819000D01*
X50710000Y21819000D01*
X50710000Y21839000D01*
X50964000Y21839000D01*
X50964000Y21819000D01*
G04 #@! TA.AperFunction,Conductor*
D23*
G36*
X50964000Y21819000D02*
G01*
X50984000Y21819000D01*
X50984000Y21565000D01*
X50964000Y21565000D01*
X50964000Y21545000D01*
X50710000Y21545000D01*
X50710000Y21565000D01*
X50690000Y21565000D01*
X50690000Y21819000D01*
X50710000Y21819000D01*
X50710000Y21839000D01*
X50964000Y21839000D01*
X50964000Y21819000D01*
G37*
G04 #@! TD.AperFunction*
D22*
X18587818Y80728192D02*
X18721068Y80478899D01*
X18900392Y80260392D01*
X19013482Y80167581D01*
X18995518Y80165812D01*
X18875820Y80129502D01*
X18765506Y80070537D01*
X18668815Y79991185D01*
X18589463Y79894494D01*
X18530498Y79784180D01*
X18494188Y79664482D01*
X18481928Y79540000D01*
X18481928Y77940000D01*
X18494188Y77815518D01*
X18530498Y77695820D01*
X18589463Y77585506D01*
X18668815Y77488815D01*
X18765506Y77409463D01*
X18875820Y77350498D01*
X18995518Y77314188D01*
X19120000Y77301928D01*
X21520000Y77301928D01*
X21644482Y77314188D01*
X21764180Y77350498D01*
X21874494Y77409463D01*
X21971185Y77488815D01*
X22050537Y77585506D01*
X22109502Y77695820D01*
X22145812Y77815518D01*
X22158072Y77940000D01*
X22158072Y78087135D01*
X22230620Y78125913D01*
X22342538Y78217762D01*
X22434387Y78329680D01*
X22502637Y78457367D01*
X22544665Y78595915D01*
X22558856Y78740000D01*
X22555300Y78776105D01*
X22555300Y80166154D01*
X23062346Y80673200D01*
X23049313Y80657319D01*
X22981063Y80529632D01*
X22963156Y80470600D01*
X22939035Y80391085D01*
X22924844Y80247000D01*
X22928400Y80210895D01*
X22928401Y71997548D01*
X21767038Y70836184D01*
X21739608Y70869608D01*
X21521101Y71048932D01*
X21271808Y71182182D01*
X21001309Y71264236D01*
X20790492Y71285000D01*
X19849508Y71285000D01*
X19638691Y71264236D01*
X19368192Y71182182D01*
X19118899Y71048932D01*
X18900392Y70869608D01*
X18721068Y70651101D01*
X18587818Y70401808D01*
X18505764Y70131309D01*
X18478057Y69850000D01*
X18505764Y69568691D01*
X18587818Y69298192D01*
X18721068Y69048899D01*
X18900392Y68830392D01*
X19118899Y68651068D01*
X19251858Y68580000D01*
X19118899Y68508932D01*
X18900392Y68329608D01*
X18721068Y68111101D01*
X18587818Y67861808D01*
X18505764Y67591309D01*
X18478057Y67310000D01*
X18505764Y67028691D01*
X18587818Y66758192D01*
X18721068Y66508899D01*
X18900392Y66290392D01*
X19118899Y66111068D01*
X19251858Y66040000D01*
X19118899Y65968932D01*
X18900392Y65789608D01*
X18721068Y65571101D01*
X18587818Y65321808D01*
X18505764Y65051309D01*
X18478057Y64770000D01*
X18505764Y64488691D01*
X18587818Y64218192D01*
X18721068Y63968899D01*
X18900392Y63750392D01*
X19118899Y63571068D01*
X19251858Y63500000D01*
X19118899Y63428932D01*
X18900392Y63249608D01*
X18749773Y63066078D01*
X18719700Y63069040D01*
X18678681Y63065000D01*
X16570356Y63065000D01*
X16626300Y63288184D01*
X16640217Y63570512D01*
X16598787Y63850130D01*
X16503603Y64116292D01*
X16436671Y64241514D01*
X16192702Y64313097D01*
X15379605Y63500000D01*
X15393748Y63485857D01*
X15214143Y63306252D01*
X15200000Y63320395D01*
X15185858Y63306252D01*
X15006253Y63485857D01*
X15020395Y63500000D01*
X14648101Y63872294D01*
X14597936Y63966146D01*
X14493591Y64093291D01*
X14366446Y64197636D01*
X14272594Y64247801D01*
X14207298Y64313097D01*
X14150908Y64296552D01*
X14138027Y64300459D01*
X14125812Y64424482D01*
X14105118Y64492702D01*
X14386903Y64492702D01*
X15200000Y63679605D01*
X16013097Y64492702D01*
X15941514Y64736671D01*
X15686004Y64857571D01*
X15411816Y64926300D01*
X15129488Y64940217D01*
X14849870Y64898787D01*
X14583708Y64803603D01*
X14458486Y64736671D01*
X14386903Y64492702D01*
X14105118Y64492702D01*
X14089502Y64544180D01*
X14030537Y64654494D01*
X13951185Y64751185D01*
X13854494Y64830537D01*
X13744180Y64889502D01*
X13624482Y64925812D01*
X13500000Y64938072D01*
X11900000Y64938072D01*
X11775518Y64925812D01*
X11655820Y64889502D01*
X11545506Y64830537D01*
X11448815Y64751185D01*
X11369463Y64654494D01*
X11310498Y64544180D01*
X11274188Y64424482D01*
X11261928Y64300000D01*
X11261928Y62700000D01*
X11274188Y62575518D01*
X11310498Y62455820D01*
X11369463Y62345506D01*
X11448815Y62248815D01*
X11545506Y62169463D01*
X11655820Y62110498D01*
X11775518Y62074188D01*
X11900000Y62061928D01*
X13500000Y62061928D01*
X13624482Y62074188D01*
X13678698Y62090634D01*
X14100763Y61668568D01*
X14126909Y61636709D01*
X14158768Y61610563D01*
X14158770Y61610561D01*
X14204067Y61573387D01*
X14254054Y61532364D01*
X14399113Y61454828D01*
X14556511Y61407082D01*
X14679181Y61395000D01*
X14679182Y61395000D01*
X14720200Y61390960D01*
X14761218Y61395000D01*
X17884700Y61395000D01*
X17884701Y59731029D01*
X17880660Y59690000D01*
X17884701Y59648971D01*
X17884700Y54651019D01*
X17880660Y54610000D01*
X17896782Y54446311D01*
X17944528Y54288913D01*
X18022064Y54143854D01*
X18092365Y54058192D01*
X18126409Y54016709D01*
X18253554Y53912364D01*
X18398613Y53834828D01*
X18556011Y53787082D01*
X18719700Y53770960D01*
X18749773Y53773922D01*
X18900392Y53590392D01*
X19118899Y53411068D01*
X19368192Y53277818D01*
X19638691Y53195764D01*
X19849508Y53175000D01*
X20790492Y53175000D01*
X20844010Y53180271D01*
X20817162Y53158237D01*
X20725313Y53046319D01*
X20657063Y52918632D01*
X20637559Y52854336D01*
X20615035Y52780085D01*
X20600844Y52636000D01*
X20604400Y52599895D01*
X20604401Y47155000D01*
X19849508Y47155000D01*
X19638691Y47134236D01*
X19368192Y47052182D01*
X19118899Y46918932D01*
X18900392Y46739608D01*
X18721068Y46521101D01*
X18587818Y46271808D01*
X18505764Y46001309D01*
X18478057Y45720000D01*
X18505764Y45438691D01*
X18587818Y45168192D01*
X18721068Y44918899D01*
X18900392Y44700392D01*
X19118899Y44521068D01*
X19251858Y44450000D01*
X19118899Y44378932D01*
X18900392Y44199608D01*
X18872962Y44166185D01*
X8474600Y54564546D01*
X8474600Y73862296D01*
X8478156Y73898401D01*
X8463965Y74042486D01*
X8449260Y74090960D01*
X8421937Y74181033D01*
X8353687Y74308720D01*
X8261838Y74420638D01*
X8233793Y74443654D01*
X7606112Y75071335D01*
X13805000Y75071335D01*
X13805000Y74788665D01*
X13860147Y74511426D01*
X13968320Y74250273D01*
X14125363Y74015241D01*
X14325241Y73815363D01*
X14560273Y73658320D01*
X14821426Y73550147D01*
X15098665Y73495000D01*
X15381335Y73495000D01*
X15658574Y73550147D01*
X15919727Y73658320D01*
X16154759Y73815363D01*
X16276694Y73937298D01*
X16926903Y73937298D01*
X16998486Y73693329D01*
X17253996Y73572429D01*
X17528184Y73503700D01*
X17810512Y73489783D01*
X18090130Y73531213D01*
X18356292Y73626397D01*
X18481514Y73693329D01*
X18553097Y73937298D01*
X17740000Y74750395D01*
X16926903Y73937298D01*
X16276694Y73937298D01*
X16354637Y74015241D01*
X16488692Y74215869D01*
X16503329Y74188486D01*
X16747298Y74116903D01*
X17560395Y74930000D01*
X17919605Y74930000D01*
X18732702Y74116903D01*
X18976671Y74188486D01*
X19097571Y74443996D01*
X19166300Y74718184D01*
X19180217Y75000512D01*
X19138787Y75280130D01*
X19043603Y75546292D01*
X18976671Y75671514D01*
X18732702Y75743097D01*
X17919605Y74930000D01*
X17560395Y74930000D01*
X16747298Y75743097D01*
X16503329Y75671514D01*
X16489676Y75642659D01*
X16354637Y75844759D01*
X16276694Y75922702D01*
X16926903Y75922702D01*
X17740000Y75109605D01*
X18553097Y75922702D01*
X18481514Y76166671D01*
X18226004Y76287571D01*
X17951816Y76356300D01*
X17669488Y76370217D01*
X17389870Y76328787D01*
X17123708Y76233603D01*
X16998486Y76166671D01*
X16926903Y75922702D01*
X16276694Y75922702D01*
X16154759Y76044637D01*
X15919727Y76201680D01*
X15658574Y76309853D01*
X15381335Y76365000D01*
X15098665Y76365000D01*
X14821426Y76309853D01*
X14560273Y76201680D01*
X14325241Y76044637D01*
X14125363Y75844759D01*
X13968320Y75609727D01*
X13860147Y75348574D01*
X13805000Y75071335D01*
X7606112Y75071335D01*
X7463777Y75213670D01*
X7503475Y75253368D01*
X7665990Y75496589D01*
X7777932Y75766842D01*
X7835000Y76053740D01*
X7835000Y76346260D01*
X7777932Y76633158D01*
X7665990Y76903411D01*
X7503475Y77146632D01*
X7296632Y77353475D01*
X7114466Y77475195D01*
X7231355Y77544822D01*
X7447588Y77739731D01*
X7621641Y77973080D01*
X7746825Y78235901D01*
X7791476Y78383110D01*
X7670155Y78613000D01*
X6477000Y78613000D01*
X6477000Y78593000D01*
X6223000Y78593000D01*
X6223000Y78613000D01*
X3937000Y78613000D01*
X3937000Y78593000D01*
X3683000Y78593000D01*
X3683000Y78613000D01*
X3663000Y78613000D01*
X3663000Y78867000D01*
X3683000Y78867000D01*
X3683000Y78887000D01*
X3937000Y78887000D01*
X3937000Y78867000D01*
X6223000Y78867000D01*
X6223000Y78887000D01*
X6477000Y78887000D01*
X6477000Y78867000D01*
X7670155Y78867000D01*
X7791476Y79096890D01*
X7766449Y79179400D01*
X8395054Y79179400D01*
X10448746Y77125707D01*
X10471762Y77097662D01*
X10583680Y77005813D01*
X10711367Y76937563D01*
X10807886Y76908284D01*
X10849914Y76895535D01*
X10993999Y76881344D01*
X11030104Y76884900D01*
X14145895Y76884900D01*
X14182000Y76881344D01*
X14218105Y76884900D01*
X14326085Y76895535D01*
X14464633Y76937563D01*
X14592320Y77005813D01*
X14704238Y77097662D01*
X14727259Y77125713D01*
X18527752Y80926205D01*
X18587818Y80728192D01*
G04 #@! TA.AperFunction,Conductor*
D23*
G36*
X18587818Y80728192D02*
G01*
X18721068Y80478899D01*
X18900392Y80260392D01*
X19013482Y80167581D01*
X18995518Y80165812D01*
X18875820Y80129502D01*
X18765506Y80070537D01*
X18668815Y79991185D01*
X18589463Y79894494D01*
X18530498Y79784180D01*
X18494188Y79664482D01*
X18481928Y79540000D01*
X18481928Y77940000D01*
X18494188Y77815518D01*
X18530498Y77695820D01*
X18589463Y77585506D01*
X18668815Y77488815D01*
X18765506Y77409463D01*
X18875820Y77350498D01*
X18995518Y77314188D01*
X19120000Y77301928D01*
X21520000Y77301928D01*
X21644482Y77314188D01*
X21764180Y77350498D01*
X21874494Y77409463D01*
X21971185Y77488815D01*
X22050537Y77585506D01*
X22109502Y77695820D01*
X22145812Y77815518D01*
X22158072Y77940000D01*
X22158072Y78087135D01*
X22230620Y78125913D01*
X22342538Y78217762D01*
X22434387Y78329680D01*
X22502637Y78457367D01*
X22544665Y78595915D01*
X22558856Y78740000D01*
X22555300Y78776105D01*
X22555300Y80166154D01*
X23062346Y80673200D01*
X23049313Y80657319D01*
X22981063Y80529632D01*
X22963156Y80470600D01*
X22939035Y80391085D01*
X22924844Y80247000D01*
X22928400Y80210895D01*
X22928401Y71997548D01*
X21767038Y70836184D01*
X21739608Y70869608D01*
X21521101Y71048932D01*
X21271808Y71182182D01*
X21001309Y71264236D01*
X20790492Y71285000D01*
X19849508Y71285000D01*
X19638691Y71264236D01*
X19368192Y71182182D01*
X19118899Y71048932D01*
X18900392Y70869608D01*
X18721068Y70651101D01*
X18587818Y70401808D01*
X18505764Y70131309D01*
X18478057Y69850000D01*
X18505764Y69568691D01*
X18587818Y69298192D01*
X18721068Y69048899D01*
X18900392Y68830392D01*
X19118899Y68651068D01*
X19251858Y68580000D01*
X19118899Y68508932D01*
X18900392Y68329608D01*
X18721068Y68111101D01*
X18587818Y67861808D01*
X18505764Y67591309D01*
X18478057Y67310000D01*
X18505764Y67028691D01*
X18587818Y66758192D01*
X18721068Y66508899D01*
X18900392Y66290392D01*
X19118899Y66111068D01*
X19251858Y66040000D01*
X19118899Y65968932D01*
X18900392Y65789608D01*
X18721068Y65571101D01*
X18587818Y65321808D01*
X18505764Y65051309D01*
X18478057Y64770000D01*
X18505764Y64488691D01*
X18587818Y64218192D01*
X18721068Y63968899D01*
X18900392Y63750392D01*
X19118899Y63571068D01*
X19251858Y63500000D01*
X19118899Y63428932D01*
X18900392Y63249608D01*
X18749773Y63066078D01*
X18719700Y63069040D01*
X18678681Y63065000D01*
X16570356Y63065000D01*
X16626300Y63288184D01*
X16640217Y63570512D01*
X16598787Y63850130D01*
X16503603Y64116292D01*
X16436671Y64241514D01*
X16192702Y64313097D01*
X15379605Y63500000D01*
X15393748Y63485857D01*
X15214143Y63306252D01*
X15200000Y63320395D01*
X15185858Y63306252D01*
X15006253Y63485857D01*
X15020395Y63500000D01*
X14648101Y63872294D01*
X14597936Y63966146D01*
X14493591Y64093291D01*
X14366446Y64197636D01*
X14272594Y64247801D01*
X14207298Y64313097D01*
X14150908Y64296552D01*
X14138027Y64300459D01*
X14125812Y64424482D01*
X14105118Y64492702D01*
X14386903Y64492702D01*
X15200000Y63679605D01*
X16013097Y64492702D01*
X15941514Y64736671D01*
X15686004Y64857571D01*
X15411816Y64926300D01*
X15129488Y64940217D01*
X14849870Y64898787D01*
X14583708Y64803603D01*
X14458486Y64736671D01*
X14386903Y64492702D01*
X14105118Y64492702D01*
X14089502Y64544180D01*
X14030537Y64654494D01*
X13951185Y64751185D01*
X13854494Y64830537D01*
X13744180Y64889502D01*
X13624482Y64925812D01*
X13500000Y64938072D01*
X11900000Y64938072D01*
X11775518Y64925812D01*
X11655820Y64889502D01*
X11545506Y64830537D01*
X11448815Y64751185D01*
X11369463Y64654494D01*
X11310498Y64544180D01*
X11274188Y64424482D01*
X11261928Y64300000D01*
X11261928Y62700000D01*
X11274188Y62575518D01*
X11310498Y62455820D01*
X11369463Y62345506D01*
X11448815Y62248815D01*
X11545506Y62169463D01*
X11655820Y62110498D01*
X11775518Y62074188D01*
X11900000Y62061928D01*
X13500000Y62061928D01*
X13624482Y62074188D01*
X13678698Y62090634D01*
X14100763Y61668568D01*
X14126909Y61636709D01*
X14158768Y61610563D01*
X14158770Y61610561D01*
X14204067Y61573387D01*
X14254054Y61532364D01*
X14399113Y61454828D01*
X14556511Y61407082D01*
X14679181Y61395000D01*
X14679182Y61395000D01*
X14720200Y61390960D01*
X14761218Y61395000D01*
X17884700Y61395000D01*
X17884701Y59731029D01*
X17880660Y59690000D01*
X17884701Y59648971D01*
X17884700Y54651019D01*
X17880660Y54610000D01*
X17896782Y54446311D01*
X17944528Y54288913D01*
X18022064Y54143854D01*
X18092365Y54058192D01*
X18126409Y54016709D01*
X18253554Y53912364D01*
X18398613Y53834828D01*
X18556011Y53787082D01*
X18719700Y53770960D01*
X18749773Y53773922D01*
X18900392Y53590392D01*
X19118899Y53411068D01*
X19368192Y53277818D01*
X19638691Y53195764D01*
X19849508Y53175000D01*
X20790492Y53175000D01*
X20844010Y53180271D01*
X20817162Y53158237D01*
X20725313Y53046319D01*
X20657063Y52918632D01*
X20637559Y52854336D01*
X20615035Y52780085D01*
X20600844Y52636000D01*
X20604400Y52599895D01*
X20604401Y47155000D01*
X19849508Y47155000D01*
X19638691Y47134236D01*
X19368192Y47052182D01*
X19118899Y46918932D01*
X18900392Y46739608D01*
X18721068Y46521101D01*
X18587818Y46271808D01*
X18505764Y46001309D01*
X18478057Y45720000D01*
X18505764Y45438691D01*
X18587818Y45168192D01*
X18721068Y44918899D01*
X18900392Y44700392D01*
X19118899Y44521068D01*
X19251858Y44450000D01*
X19118899Y44378932D01*
X18900392Y44199608D01*
X18872962Y44166185D01*
X8474600Y54564546D01*
X8474600Y73862296D01*
X8478156Y73898401D01*
X8463965Y74042486D01*
X8449260Y74090960D01*
X8421937Y74181033D01*
X8353687Y74308720D01*
X8261838Y74420638D01*
X8233793Y74443654D01*
X7606112Y75071335D01*
X13805000Y75071335D01*
X13805000Y74788665D01*
X13860147Y74511426D01*
X13968320Y74250273D01*
X14125363Y74015241D01*
X14325241Y73815363D01*
X14560273Y73658320D01*
X14821426Y73550147D01*
X15098665Y73495000D01*
X15381335Y73495000D01*
X15658574Y73550147D01*
X15919727Y73658320D01*
X16154759Y73815363D01*
X16276694Y73937298D01*
X16926903Y73937298D01*
X16998486Y73693329D01*
X17253996Y73572429D01*
X17528184Y73503700D01*
X17810512Y73489783D01*
X18090130Y73531213D01*
X18356292Y73626397D01*
X18481514Y73693329D01*
X18553097Y73937298D01*
X17740000Y74750395D01*
X16926903Y73937298D01*
X16276694Y73937298D01*
X16354637Y74015241D01*
X16488692Y74215869D01*
X16503329Y74188486D01*
X16747298Y74116903D01*
X17560395Y74930000D01*
X17919605Y74930000D01*
X18732702Y74116903D01*
X18976671Y74188486D01*
X19097571Y74443996D01*
X19166300Y74718184D01*
X19180217Y75000512D01*
X19138787Y75280130D01*
X19043603Y75546292D01*
X18976671Y75671514D01*
X18732702Y75743097D01*
X17919605Y74930000D01*
X17560395Y74930000D01*
X16747298Y75743097D01*
X16503329Y75671514D01*
X16489676Y75642659D01*
X16354637Y75844759D01*
X16276694Y75922702D01*
X16926903Y75922702D01*
X17740000Y75109605D01*
X18553097Y75922702D01*
X18481514Y76166671D01*
X18226004Y76287571D01*
X17951816Y76356300D01*
X17669488Y76370217D01*
X17389870Y76328787D01*
X17123708Y76233603D01*
X16998486Y76166671D01*
X16926903Y75922702D01*
X16276694Y75922702D01*
X16154759Y76044637D01*
X15919727Y76201680D01*
X15658574Y76309853D01*
X15381335Y76365000D01*
X15098665Y76365000D01*
X14821426Y76309853D01*
X14560273Y76201680D01*
X14325241Y76044637D01*
X14125363Y75844759D01*
X13968320Y75609727D01*
X13860147Y75348574D01*
X13805000Y75071335D01*
X7606112Y75071335D01*
X7463777Y75213670D01*
X7503475Y75253368D01*
X7665990Y75496589D01*
X7777932Y75766842D01*
X7835000Y76053740D01*
X7835000Y76346260D01*
X7777932Y76633158D01*
X7665990Y76903411D01*
X7503475Y77146632D01*
X7296632Y77353475D01*
X7114466Y77475195D01*
X7231355Y77544822D01*
X7447588Y77739731D01*
X7621641Y77973080D01*
X7746825Y78235901D01*
X7791476Y78383110D01*
X7670155Y78613000D01*
X6477000Y78613000D01*
X6477000Y78593000D01*
X6223000Y78593000D01*
X6223000Y78613000D01*
X3937000Y78613000D01*
X3937000Y78593000D01*
X3683000Y78593000D01*
X3683000Y78613000D01*
X3663000Y78613000D01*
X3663000Y78867000D01*
X3683000Y78867000D01*
X3683000Y78887000D01*
X3937000Y78887000D01*
X3937000Y78867000D01*
X6223000Y78867000D01*
X6223000Y78887000D01*
X6477000Y78887000D01*
X6477000Y78867000D01*
X7670155Y78867000D01*
X7791476Y79096890D01*
X7766449Y79179400D01*
X8395054Y79179400D01*
X10448746Y77125707D01*
X10471762Y77097662D01*
X10583680Y77005813D01*
X10711367Y76937563D01*
X10807886Y76908284D01*
X10849914Y76895535D01*
X10993999Y76881344D01*
X11030104Y76884900D01*
X14145895Y76884900D01*
X14182000Y76881344D01*
X14218105Y76884900D01*
X14326085Y76895535D01*
X14464633Y76937563D01*
X14592320Y77005813D01*
X14704238Y77097662D01*
X14727259Y77125713D01*
X18527752Y80926205D01*
X18587818Y80728192D01*
G37*
G04 #@! TD.AperFunction*
D22*
X28067000Y45847000D02*
X28087000Y45847000D01*
X28087000Y45593000D01*
X28067000Y45593000D01*
X28067000Y45573000D01*
X27813000Y45573000D01*
X27813000Y45593000D01*
X27793000Y45593000D01*
X27793000Y45847000D01*
X27813000Y45847000D01*
X27813000Y45867000D01*
X28067000Y45867000D01*
X28067000Y45847000D01*
G04 #@! TA.AperFunction,Conductor*
D23*
G36*
X28067000Y45847000D02*
G01*
X28087000Y45847000D01*
X28087000Y45593000D01*
X28067000Y45593000D01*
X28067000Y45573000D01*
X27813000Y45573000D01*
X27813000Y45593000D01*
X27793000Y45593000D01*
X27793000Y45847000D01*
X27813000Y45847000D01*
X27813000Y45867000D01*
X28067000Y45867000D01*
X28067000Y45847000D01*
G37*
G04 #@! TD.AperFunction*
D22*
X25553748Y50814142D02*
X25539605Y50800000D01*
X25553748Y50785857D01*
X25374143Y50606252D01*
X25360000Y50620395D01*
X25345858Y50606252D01*
X25166253Y50785857D01*
X25180395Y50800000D01*
X25166253Y50814142D01*
X25345858Y50993747D01*
X25360000Y50979605D01*
X25374143Y50993747D01*
X25553748Y50814142D01*
G04 #@! TA.AperFunction,Conductor*
D23*
G36*
X25553748Y50814142D02*
G01*
X25539605Y50800000D01*
X25553748Y50785857D01*
X25374143Y50606252D01*
X25360000Y50620395D01*
X25345858Y50606252D01*
X25166253Y50785857D01*
X25180395Y50800000D01*
X25166253Y50814142D01*
X25345858Y50993747D01*
X25360000Y50979605D01*
X25374143Y50993747D01*
X25553748Y50814142D01*
G37*
G04 #@! TD.AperFunction*
D22*
X69977000Y50927000D02*
X69997000Y50927000D01*
X69997000Y50673000D01*
X69977000Y50673000D01*
X69977000Y50653000D01*
X69723000Y50653000D01*
X69723000Y50673000D01*
X69703000Y50673000D01*
X69703000Y50927000D01*
X69723000Y50927000D01*
X69723000Y50947000D01*
X69977000Y50947000D01*
X69977000Y50927000D01*
G04 #@! TA.AperFunction,Conductor*
D23*
G36*
X69977000Y50927000D02*
G01*
X69997000Y50927000D01*
X69997000Y50673000D01*
X69977000Y50673000D01*
X69977000Y50653000D01*
X69723000Y50653000D01*
X69723000Y50673000D01*
X69703000Y50673000D01*
X69703000Y50927000D01*
X69723000Y50927000D01*
X69723000Y50947000D01*
X69977000Y50947000D01*
X69977000Y50927000D01*
G37*
G04 #@! TD.AperFunction*
D22*
X77541068Y69918899D02*
X77720393Y69700392D01*
X77938900Y69521068D01*
X78005000Y69485737D01*
X78005001Y63421348D01*
X71166305Y56582651D01*
X71165990Y56583411D01*
X71003475Y56826632D01*
X70871620Y56958487D01*
X70944180Y56980498D01*
X71054494Y57039463D01*
X71151185Y57118815D01*
X71230537Y57215506D01*
X71289502Y57325820D01*
X71325812Y57445518D01*
X71338072Y57570000D01*
X71338072Y59270000D01*
X71325812Y59394482D01*
X71289502Y59514180D01*
X71230537Y59624494D01*
X71151185Y59721185D01*
X71054494Y59800537D01*
X70944180Y59859502D01*
X70824482Y59895812D01*
X70700000Y59908072D01*
X69000000Y59908072D01*
X68875518Y59895812D01*
X68755820Y59859502D01*
X68645506Y59800537D01*
X68548815Y59721185D01*
X68469463Y59624494D01*
X68410498Y59514180D01*
X68374188Y59394482D01*
X68361928Y59270000D01*
X68361928Y59220445D01*
X68278613Y59195172D01*
X68133554Y59117636D01*
X68006409Y59013291D01*
X67902064Y58886146D01*
X67824528Y58741087D01*
X67776782Y58583689D01*
X67760660Y58420000D01*
X67764700Y58378981D01*
X67764700Y58170268D01*
X62044770Y52450337D01*
X61981620Y52513487D01*
X62054180Y52535498D01*
X62164494Y52594463D01*
X62261185Y52673815D01*
X62340537Y52770506D01*
X62399502Y52880820D01*
X62435812Y53000518D01*
X62448072Y53125000D01*
X62445000Y53689250D01*
X62286250Y53848000D01*
X61087000Y53848000D01*
X61087000Y53828000D01*
X60833000Y53828000D01*
X60833000Y53848000D01*
X60813000Y53848000D01*
X60813000Y54102000D01*
X60833000Y54102000D01*
X60833000Y54122000D01*
X61087000Y54122000D01*
X61087000Y54102000D01*
X62286250Y54102000D01*
X62445000Y54260750D01*
X62448072Y54825000D01*
X62435812Y54949482D01*
X62399502Y55069180D01*
X62340537Y55179494D01*
X62261185Y55276185D01*
X62164494Y55355537D01*
X62054180Y55414502D01*
X61934482Y55450812D01*
X61810000Y55463072D01*
X61313314Y55460368D01*
X72884198Y67031251D01*
X72912237Y67054262D01*
X72935250Y67082303D01*
X72935253Y67082306D01*
X73004087Y67166180D01*
X73072337Y67293866D01*
X73114365Y67432415D01*
X73128556Y67576500D01*
X73125000Y67612605D01*
X73125000Y69382720D01*
X73378692Y69305764D01*
X73660000Y69278057D01*
X73941309Y69305764D01*
X74211808Y69387818D01*
X74461101Y69521068D01*
X74679608Y69700392D01*
X74858932Y69918899D01*
X74930000Y70051858D01*
X75001068Y69918899D01*
X75180393Y69700392D01*
X75398900Y69521068D01*
X75648193Y69387818D01*
X75918692Y69305764D01*
X76200000Y69278057D01*
X76481309Y69305764D01*
X76751808Y69387818D01*
X77001101Y69521068D01*
X77219608Y69700392D01*
X77398932Y69918899D01*
X77470000Y70051858D01*
X77541068Y69918899D01*
G04 #@! TA.AperFunction,Conductor*
D23*
G36*
X77541068Y69918899D02*
G01*
X77720393Y69700392D01*
X77938900Y69521068D01*
X78005000Y69485737D01*
X78005001Y63421348D01*
X71166305Y56582651D01*
X71165990Y56583411D01*
X71003475Y56826632D01*
X70871620Y56958487D01*
X70944180Y56980498D01*
X71054494Y57039463D01*
X71151185Y57118815D01*
X71230537Y57215506D01*
X71289502Y57325820D01*
X71325812Y57445518D01*
X71338072Y57570000D01*
X71338072Y59270000D01*
X71325812Y59394482D01*
X71289502Y59514180D01*
X71230537Y59624494D01*
X71151185Y59721185D01*
X71054494Y59800537D01*
X70944180Y59859502D01*
X70824482Y59895812D01*
X70700000Y59908072D01*
X69000000Y59908072D01*
X68875518Y59895812D01*
X68755820Y59859502D01*
X68645506Y59800537D01*
X68548815Y59721185D01*
X68469463Y59624494D01*
X68410498Y59514180D01*
X68374188Y59394482D01*
X68361928Y59270000D01*
X68361928Y59220445D01*
X68278613Y59195172D01*
X68133554Y59117636D01*
X68006409Y59013291D01*
X67902064Y58886146D01*
X67824528Y58741087D01*
X67776782Y58583689D01*
X67760660Y58420000D01*
X67764700Y58378981D01*
X67764700Y58170268D01*
X62044770Y52450337D01*
X61981620Y52513487D01*
X62054180Y52535498D01*
X62164494Y52594463D01*
X62261185Y52673815D01*
X62340537Y52770506D01*
X62399502Y52880820D01*
X62435812Y53000518D01*
X62448072Y53125000D01*
X62445000Y53689250D01*
X62286250Y53848000D01*
X61087000Y53848000D01*
X61087000Y53828000D01*
X60833000Y53828000D01*
X60833000Y53848000D01*
X60813000Y53848000D01*
X60813000Y54102000D01*
X60833000Y54102000D01*
X60833000Y54122000D01*
X61087000Y54122000D01*
X61087000Y54102000D01*
X62286250Y54102000D01*
X62445000Y54260750D01*
X62448072Y54825000D01*
X62435812Y54949482D01*
X62399502Y55069180D01*
X62340537Y55179494D01*
X62261185Y55276185D01*
X62164494Y55355537D01*
X62054180Y55414502D01*
X61934482Y55450812D01*
X61810000Y55463072D01*
X61313314Y55460368D01*
X72884198Y67031251D01*
X72912237Y67054262D01*
X72935250Y67082303D01*
X72935253Y67082306D01*
X73004087Y67166180D01*
X73072337Y67293866D01*
X73114365Y67432415D01*
X73128556Y67576500D01*
X73125000Y67612605D01*
X73125000Y69382720D01*
X73378692Y69305764D01*
X73660000Y69278057D01*
X73941309Y69305764D01*
X74211808Y69387818D01*
X74461101Y69521068D01*
X74679608Y69700392D01*
X74858932Y69918899D01*
X74930000Y70051858D01*
X75001068Y69918899D01*
X75180393Y69700392D01*
X75398900Y69521068D01*
X75648193Y69387818D01*
X75918692Y69305764D01*
X76200000Y69278057D01*
X76481309Y69305764D01*
X76751808Y69387818D01*
X77001101Y69521068D01*
X77219608Y69700392D01*
X77398932Y69918899D01*
X77470000Y70051858D01*
X77541068Y69918899D01*
G37*
G04 #@! TD.AperFunction*
D22*
X44005748Y58536142D02*
X43991605Y58522000D01*
X44005748Y58507857D01*
X43826143Y58328252D01*
X43812000Y58342395D01*
X43797858Y58328252D01*
X43618253Y58507857D01*
X43632395Y58522000D01*
X43618253Y58536142D01*
X43797858Y58715747D01*
X43812000Y58701605D01*
X43826143Y58715747D01*
X44005748Y58536142D01*
G04 #@! TA.AperFunction,Conductor*
D23*
G36*
X44005748Y58536142D02*
G01*
X43991605Y58522000D01*
X44005748Y58507857D01*
X43826143Y58328252D01*
X43812000Y58342395D01*
X43797858Y58328252D01*
X43618253Y58507857D01*
X43632395Y58522000D01*
X43618253Y58536142D01*
X43797858Y58715747D01*
X43812000Y58701605D01*
X43826143Y58715747D01*
X44005748Y58536142D01*
G37*
G04 #@! TD.AperFunction*
D22*
X55188750Y93472000D02*
X56388000Y93472000D01*
X56388000Y93492000D01*
X56642000Y93492000D01*
X56642000Y93472000D01*
X56662000Y93472000D01*
X56662000Y93218000D01*
X56642000Y93218000D01*
X56642000Y92018750D01*
X56800750Y91860000D01*
X57365000Y91856928D01*
X57489482Y91869188D01*
X57609180Y91905498D01*
X57719494Y91964463D01*
X57816185Y92043815D01*
X57895537Y92140506D01*
X57954502Y92250820D01*
X57976513Y92323380D01*
X58060373Y92239520D01*
X56825408Y91004554D01*
X56797363Y90981538D01*
X56705514Y90869620D01*
X56654770Y90774685D01*
X56637264Y90741933D01*
X56595235Y90603385D01*
X56581044Y90459300D01*
X56584601Y90423185D01*
X56584600Y73756805D01*
X56581044Y73720700D01*
X56595235Y73576615D01*
X56607984Y73534587D01*
X56637263Y73438068D01*
X56705513Y73310381D01*
X56797362Y73198463D01*
X56825408Y73175446D01*
X57202239Y72798615D01*
X57168815Y72771185D01*
X57089463Y72674494D01*
X57030498Y72564180D01*
X56994188Y72444482D01*
X56981928Y72320000D01*
X56981928Y69920000D01*
X56994188Y69795518D01*
X57030498Y69675820D01*
X57089463Y69565506D01*
X57168815Y69468815D01*
X57265506Y69389463D01*
X57375820Y69330498D01*
X57495518Y69294188D01*
X57620000Y69281928D01*
X58794801Y69281928D01*
X58794801Y67881748D01*
X50524618Y59611564D01*
X50538656Y59754100D01*
X50535100Y59790205D01*
X50535100Y62133706D01*
X50538655Y62169801D01*
X50535100Y62205896D01*
X50535100Y62205905D01*
X50524465Y62313885D01*
X50482437Y62452433D01*
X50414187Y62580120D01*
X50369225Y62634906D01*
X50345353Y62663994D01*
X50345350Y62663997D01*
X50322337Y62692038D01*
X50294298Y62715049D01*
X42411000Y70598346D01*
X42411000Y71277034D01*
X42437855Y71265910D01*
X42608835Y71231900D01*
X42783165Y71231900D01*
X42954145Y71265910D01*
X43115205Y71332623D01*
X43260155Y71429476D01*
X43383424Y71552745D01*
X43480277Y71697695D01*
X43546990Y71858755D01*
X43581000Y72029735D01*
X43581000Y72204065D01*
X43546990Y72375045D01*
X43480277Y72536105D01*
X43383424Y72681055D01*
X43260155Y72804324D01*
X43115205Y72901177D01*
X42954145Y72967890D01*
X42867153Y72985194D01*
X42814600Y73037746D01*
X42814600Y73539570D01*
X43038665Y73495000D01*
X43321335Y73495000D01*
X43598574Y73550147D01*
X43859727Y73658320D01*
X44094759Y73815363D01*
X44216694Y73937298D01*
X44866903Y73937298D01*
X44938486Y73693329D01*
X45193996Y73572429D01*
X45468184Y73503700D01*
X45750512Y73489783D01*
X46030130Y73531213D01*
X46296292Y73626397D01*
X46421514Y73693329D01*
X46493097Y73937298D01*
X45680000Y74750395D01*
X44866903Y73937298D01*
X44216694Y73937298D01*
X44294637Y74015241D01*
X44428692Y74215869D01*
X44443329Y74188486D01*
X44687298Y74116903D01*
X45500395Y74930000D01*
X45859605Y74930000D01*
X46672702Y74116903D01*
X46916671Y74188486D01*
X47037571Y74443996D01*
X47106300Y74718184D01*
X47120217Y75000512D01*
X47078787Y75280130D01*
X46983603Y75546292D01*
X46916671Y75671514D01*
X46672702Y75743097D01*
X45859605Y74930000D01*
X45500395Y74930000D01*
X45486253Y74944142D01*
X45665858Y75123747D01*
X45680000Y75109605D01*
X46493097Y75922702D01*
X46434298Y76123100D01*
X51557082Y76123100D01*
X51598100Y76119060D01*
X51639118Y76123100D01*
X51639119Y76123100D01*
X51761789Y76135182D01*
X51919187Y76182928D01*
X52064246Y76260464D01*
X52191391Y76364809D01*
X52217546Y76396679D01*
X52298165Y76477298D01*
X53796903Y76477298D01*
X53868486Y76233329D01*
X54123996Y76112429D01*
X54398184Y76043700D01*
X54680512Y76029783D01*
X54960130Y76071213D01*
X55226292Y76166397D01*
X55351514Y76233329D01*
X55423097Y76477298D01*
X54610000Y77290395D01*
X53796903Y76477298D01*
X52298165Y76477298D01*
X53176309Y77355442D01*
X53211213Y77119870D01*
X53306397Y76853708D01*
X53373329Y76728486D01*
X53617298Y76656903D01*
X54430395Y77470000D01*
X54789605Y77470000D01*
X55602702Y76656903D01*
X55846671Y76728486D01*
X55967571Y76983996D01*
X56036300Y77258184D01*
X56050217Y77540512D01*
X56008787Y77820130D01*
X55913603Y78086292D01*
X55846671Y78211514D01*
X55602702Y78283097D01*
X54789605Y77470000D01*
X54430395Y77470000D01*
X54416253Y77484142D01*
X54595858Y77663747D01*
X54610000Y77649605D01*
X55423097Y78462702D01*
X55351514Y78706671D01*
X55322659Y78720324D01*
X55524759Y78855363D01*
X55724637Y79055241D01*
X55881680Y79290273D01*
X55989853Y79551426D01*
X56045000Y79828665D01*
X56045000Y80111335D01*
X55989853Y80388574D01*
X55881680Y80649727D01*
X55724637Y80884759D01*
X55524759Y81084637D01*
X55289727Y81241680D01*
X55028574Y81349853D01*
X54751335Y81405000D01*
X54468665Y81405000D01*
X54191426Y81349853D01*
X53930273Y81241680D01*
X53695241Y81084637D01*
X53495363Y80884759D01*
X53338320Y80649727D01*
X53230147Y80388574D01*
X53175000Y80111335D01*
X53175000Y79828665D01*
X53193714Y79734583D01*
X51252233Y77793100D01*
X50079012Y77793100D01*
X50085812Y77815518D01*
X50098072Y77940000D01*
X50098072Y79540000D01*
X50085812Y79664482D01*
X50049502Y79784180D01*
X49990537Y79894494D01*
X49911185Y79991185D01*
X49814494Y80070537D01*
X49704180Y80129502D01*
X49584482Y80165812D01*
X49566518Y80167581D01*
X49679608Y80260392D01*
X49858932Y80478899D01*
X49992182Y80728192D01*
X50074236Y80998691D01*
X50101943Y81280000D01*
X50074236Y81561309D01*
X49992182Y81831808D01*
X49858932Y82081101D01*
X49679608Y82299608D01*
X49461101Y82478932D01*
X49328142Y82550000D01*
X49461101Y82621068D01*
X49679608Y82800392D01*
X49858932Y83018899D01*
X49992182Y83268192D01*
X50074236Y83538691D01*
X50101943Y83820000D01*
X50074236Y84101309D01*
X49992182Y84371808D01*
X49858932Y84621101D01*
X49679608Y84839608D01*
X49461101Y85018932D01*
X49328142Y85090000D01*
X49461101Y85161068D01*
X49679608Y85340392D01*
X49858932Y85558899D01*
X49992182Y85808192D01*
X50074236Y86078691D01*
X50101943Y86360000D01*
X50074236Y86641309D01*
X49992182Y86911808D01*
X49858932Y87161101D01*
X49679608Y87379608D01*
X49461101Y87558932D01*
X49328142Y87630000D01*
X49461101Y87701068D01*
X49679608Y87880392D01*
X49858932Y88098899D01*
X49992182Y88348192D01*
X50074236Y88618691D01*
X50101943Y88900000D01*
X50074236Y89181309D01*
X49992182Y89451808D01*
X49911849Y89602100D01*
X50731795Y89602100D01*
X50767900Y89598544D01*
X50804005Y89602100D01*
X50911985Y89612735D01*
X51050533Y89654763D01*
X51178220Y89723013D01*
X51290138Y89814862D01*
X51313159Y89842913D01*
X53965246Y92495000D01*
X55026928Y92495000D01*
X55039188Y92370518D01*
X55075498Y92250820D01*
X55134463Y92140506D01*
X55213815Y92043815D01*
X55310506Y91964463D01*
X55420820Y91905498D01*
X55540518Y91869188D01*
X55665000Y91856928D01*
X56229250Y91860000D01*
X56388000Y92018750D01*
X56388000Y93218000D01*
X55188750Y93218000D01*
X55030000Y93059250D01*
X55026928Y92495000D01*
X53965246Y92495000D01*
X55065498Y93595252D01*
X55188750Y93472000D01*
G04 #@! TA.AperFunction,Conductor*
D23*
G36*
X55188750Y93472000D02*
G01*
X56388000Y93472000D01*
X56388000Y93492000D01*
X56642000Y93492000D01*
X56642000Y93472000D01*
X56662000Y93472000D01*
X56662000Y93218000D01*
X56642000Y93218000D01*
X56642000Y92018750D01*
X56800750Y91860000D01*
X57365000Y91856928D01*
X57489482Y91869188D01*
X57609180Y91905498D01*
X57719494Y91964463D01*
X57816185Y92043815D01*
X57895537Y92140506D01*
X57954502Y92250820D01*
X57976513Y92323380D01*
X58060373Y92239520D01*
X56825408Y91004554D01*
X56797363Y90981538D01*
X56705514Y90869620D01*
X56654770Y90774685D01*
X56637264Y90741933D01*
X56595235Y90603385D01*
X56581044Y90459300D01*
X56584601Y90423185D01*
X56584600Y73756805D01*
X56581044Y73720700D01*
X56595235Y73576615D01*
X56607984Y73534587D01*
X56637263Y73438068D01*
X56705513Y73310381D01*
X56797362Y73198463D01*
X56825408Y73175446D01*
X57202239Y72798615D01*
X57168815Y72771185D01*
X57089463Y72674494D01*
X57030498Y72564180D01*
X56994188Y72444482D01*
X56981928Y72320000D01*
X56981928Y69920000D01*
X56994188Y69795518D01*
X57030498Y69675820D01*
X57089463Y69565506D01*
X57168815Y69468815D01*
X57265506Y69389463D01*
X57375820Y69330498D01*
X57495518Y69294188D01*
X57620000Y69281928D01*
X58794801Y69281928D01*
X58794801Y67881748D01*
X50524618Y59611564D01*
X50538656Y59754100D01*
X50535100Y59790205D01*
X50535100Y62133706D01*
X50538655Y62169801D01*
X50535100Y62205896D01*
X50535100Y62205905D01*
X50524465Y62313885D01*
X50482437Y62452433D01*
X50414187Y62580120D01*
X50369225Y62634906D01*
X50345353Y62663994D01*
X50345350Y62663997D01*
X50322337Y62692038D01*
X50294298Y62715049D01*
X42411000Y70598346D01*
X42411000Y71277034D01*
X42437855Y71265910D01*
X42608835Y71231900D01*
X42783165Y71231900D01*
X42954145Y71265910D01*
X43115205Y71332623D01*
X43260155Y71429476D01*
X43383424Y71552745D01*
X43480277Y71697695D01*
X43546990Y71858755D01*
X43581000Y72029735D01*
X43581000Y72204065D01*
X43546990Y72375045D01*
X43480277Y72536105D01*
X43383424Y72681055D01*
X43260155Y72804324D01*
X43115205Y72901177D01*
X42954145Y72967890D01*
X42867153Y72985194D01*
X42814600Y73037746D01*
X42814600Y73539570D01*
X43038665Y73495000D01*
X43321335Y73495000D01*
X43598574Y73550147D01*
X43859727Y73658320D01*
X44094759Y73815363D01*
X44216694Y73937298D01*
X44866903Y73937298D01*
X44938486Y73693329D01*
X45193996Y73572429D01*
X45468184Y73503700D01*
X45750512Y73489783D01*
X46030130Y73531213D01*
X46296292Y73626397D01*
X46421514Y73693329D01*
X46493097Y73937298D01*
X45680000Y74750395D01*
X44866903Y73937298D01*
X44216694Y73937298D01*
X44294637Y74015241D01*
X44428692Y74215869D01*
X44443329Y74188486D01*
X44687298Y74116903D01*
X45500395Y74930000D01*
X45859605Y74930000D01*
X46672702Y74116903D01*
X46916671Y74188486D01*
X47037571Y74443996D01*
X47106300Y74718184D01*
X47120217Y75000512D01*
X47078787Y75280130D01*
X46983603Y75546292D01*
X46916671Y75671514D01*
X46672702Y75743097D01*
X45859605Y74930000D01*
X45500395Y74930000D01*
X45486253Y74944142D01*
X45665858Y75123747D01*
X45680000Y75109605D01*
X46493097Y75922702D01*
X46434298Y76123100D01*
X51557082Y76123100D01*
X51598100Y76119060D01*
X51639118Y76123100D01*
X51639119Y76123100D01*
X51761789Y76135182D01*
X51919187Y76182928D01*
X52064246Y76260464D01*
X52191391Y76364809D01*
X52217546Y76396679D01*
X52298165Y76477298D01*
X53796903Y76477298D01*
X53868486Y76233329D01*
X54123996Y76112429D01*
X54398184Y76043700D01*
X54680512Y76029783D01*
X54960130Y76071213D01*
X55226292Y76166397D01*
X55351514Y76233329D01*
X55423097Y76477298D01*
X54610000Y77290395D01*
X53796903Y76477298D01*
X52298165Y76477298D01*
X53176309Y77355442D01*
X53211213Y77119870D01*
X53306397Y76853708D01*
X53373329Y76728486D01*
X53617298Y76656903D01*
X54430395Y77470000D01*
X54789605Y77470000D01*
X55602702Y76656903D01*
X55846671Y76728486D01*
X55967571Y76983996D01*
X56036300Y77258184D01*
X56050217Y77540512D01*
X56008787Y77820130D01*
X55913603Y78086292D01*
X55846671Y78211514D01*
X55602702Y78283097D01*
X54789605Y77470000D01*
X54430395Y77470000D01*
X54416253Y77484142D01*
X54595858Y77663747D01*
X54610000Y77649605D01*
X55423097Y78462702D01*
X55351514Y78706671D01*
X55322659Y78720324D01*
X55524759Y78855363D01*
X55724637Y79055241D01*
X55881680Y79290273D01*
X55989853Y79551426D01*
X56045000Y79828665D01*
X56045000Y80111335D01*
X55989853Y80388574D01*
X55881680Y80649727D01*
X55724637Y80884759D01*
X55524759Y81084637D01*
X55289727Y81241680D01*
X55028574Y81349853D01*
X54751335Y81405000D01*
X54468665Y81405000D01*
X54191426Y81349853D01*
X53930273Y81241680D01*
X53695241Y81084637D01*
X53495363Y80884759D01*
X53338320Y80649727D01*
X53230147Y80388574D01*
X53175000Y80111335D01*
X53175000Y79828665D01*
X53193714Y79734583D01*
X51252233Y77793100D01*
X50079012Y77793100D01*
X50085812Y77815518D01*
X50098072Y77940000D01*
X50098072Y79540000D01*
X50085812Y79664482D01*
X50049502Y79784180D01*
X49990537Y79894494D01*
X49911185Y79991185D01*
X49814494Y80070537D01*
X49704180Y80129502D01*
X49584482Y80165812D01*
X49566518Y80167581D01*
X49679608Y80260392D01*
X49858932Y80478899D01*
X49992182Y80728192D01*
X50074236Y80998691D01*
X50101943Y81280000D01*
X50074236Y81561309D01*
X49992182Y81831808D01*
X49858932Y82081101D01*
X49679608Y82299608D01*
X49461101Y82478932D01*
X49328142Y82550000D01*
X49461101Y82621068D01*
X49679608Y82800392D01*
X49858932Y83018899D01*
X49992182Y83268192D01*
X50074236Y83538691D01*
X50101943Y83820000D01*
X50074236Y84101309D01*
X49992182Y84371808D01*
X49858932Y84621101D01*
X49679608Y84839608D01*
X49461101Y85018932D01*
X49328142Y85090000D01*
X49461101Y85161068D01*
X49679608Y85340392D01*
X49858932Y85558899D01*
X49992182Y85808192D01*
X50074236Y86078691D01*
X50101943Y86360000D01*
X50074236Y86641309D01*
X49992182Y86911808D01*
X49858932Y87161101D01*
X49679608Y87379608D01*
X49461101Y87558932D01*
X49328142Y87630000D01*
X49461101Y87701068D01*
X49679608Y87880392D01*
X49858932Y88098899D01*
X49992182Y88348192D01*
X50074236Y88618691D01*
X50101943Y88900000D01*
X50074236Y89181309D01*
X49992182Y89451808D01*
X49911849Y89602100D01*
X50731795Y89602100D01*
X50767900Y89598544D01*
X50804005Y89602100D01*
X50911985Y89612735D01*
X51050533Y89654763D01*
X51178220Y89723013D01*
X51290138Y89814862D01*
X51313159Y89842913D01*
X53965246Y92495000D01*
X55026928Y92495000D01*
X55039188Y92370518D01*
X55075498Y92250820D01*
X55134463Y92140506D01*
X55213815Y92043815D01*
X55310506Y91964463D01*
X55420820Y91905498D01*
X55540518Y91869188D01*
X55665000Y91856928D01*
X56229250Y91860000D01*
X56388000Y92018750D01*
X56388000Y93218000D01*
X55188750Y93218000D01*
X55030000Y93059250D01*
X55026928Y92495000D01*
X53965246Y92495000D01*
X55065498Y93595252D01*
X55188750Y93472000D01*
G37*
G04 #@! TD.AperFunction*
D22*
X37963501Y69340415D02*
X37959944Y69304300D01*
X37974135Y69160215D01*
X38002590Y69066414D01*
X38016164Y69021667D01*
X38084414Y68893980D01*
X38176263Y68782062D01*
X38204308Y68759046D01*
X45034304Y61929049D01*
X44953495Y61895577D01*
X44808545Y61798724D01*
X44685276Y61675455D01*
X44588423Y61530505D01*
X44521710Y61369445D01*
X44487700Y61198465D01*
X44487700Y61024135D01*
X44521710Y60853155D01*
X44588423Y60692095D01*
X44637701Y60618346D01*
X44637701Y60572199D01*
X44508455Y60546490D01*
X44347395Y60479777D01*
X44202445Y60382924D01*
X44079176Y60259655D01*
X43982323Y60114705D01*
X43915610Y59953645D01*
X43915608Y59953634D01*
X43741488Y59962217D01*
X43461870Y59920787D01*
X43446569Y59915315D01*
X43454290Y59933955D01*
X43488300Y60104935D01*
X43488300Y60279265D01*
X43454290Y60450245D01*
X43387577Y60611305D01*
X43290724Y60756255D01*
X43167455Y60879524D01*
X43022505Y60976377D01*
X42861445Y61043090D01*
X42690465Y61077100D01*
X42516135Y61077100D01*
X42345155Y61043090D01*
X42184095Y60976377D01*
X42039145Y60879524D01*
X41915876Y60756255D01*
X41819023Y60611305D01*
X41752310Y60450245D01*
X41718300Y60279265D01*
X41718300Y60104935D01*
X41752310Y59933955D01*
X41772863Y59884337D01*
X41730574Y59901853D01*
X41453335Y59957000D01*
X41170665Y59957000D01*
X41076583Y59938286D01*
X33143446Y67871421D01*
X33117291Y67903291D01*
X32990146Y68007636D01*
X32845087Y68085172D01*
X32687689Y68132918D01*
X32565019Y68145000D01*
X32565018Y68145000D01*
X32524000Y68149040D01*
X32482982Y68145000D01*
X30375300Y68145000D01*
X30375300Y73937298D01*
X30896903Y73937298D01*
X30968486Y73693329D01*
X31223996Y73572429D01*
X31498184Y73503700D01*
X31780512Y73489783D01*
X32060130Y73531213D01*
X32326292Y73626397D01*
X32451514Y73693329D01*
X32523097Y73937298D01*
X31710000Y74750395D01*
X30896903Y73937298D01*
X30375300Y73937298D01*
X30375300Y74091064D01*
X30458692Y74215869D01*
X30473329Y74188486D01*
X30717298Y74116903D01*
X31530395Y74930000D01*
X31889605Y74930000D01*
X32702702Y74116903D01*
X32946671Y74188486D01*
X33067571Y74443996D01*
X33136300Y74718184D01*
X33150217Y75000512D01*
X33108787Y75280130D01*
X33013603Y75546292D01*
X32946671Y75671514D01*
X32702702Y75743097D01*
X31889605Y74930000D01*
X31530395Y74930000D01*
X30717298Y75743097D01*
X30473329Y75671514D01*
X30459676Y75642659D01*
X30324637Y75844759D01*
X30246694Y75922702D01*
X30896903Y75922702D01*
X31710000Y75109605D01*
X32523097Y75922702D01*
X32451514Y76166671D01*
X32196004Y76287571D01*
X31921816Y76356300D01*
X31639488Y76370217D01*
X31359870Y76328787D01*
X31093708Y76233603D01*
X30968486Y76166671D01*
X30896903Y75922702D01*
X30246694Y75922702D01*
X30124759Y76044637D01*
X29900637Y76194390D01*
X32451928Y78745681D01*
X32451928Y77940000D01*
X32464188Y77815518D01*
X32500498Y77695820D01*
X32559463Y77585506D01*
X32638815Y77488815D01*
X32735506Y77409463D01*
X32845820Y77350498D01*
X32965518Y77314188D01*
X33090000Y77301928D01*
X35490000Y77301928D01*
X35614482Y77314188D01*
X35734180Y77350498D01*
X35844494Y77409463D01*
X35941185Y77488815D01*
X36020537Y77585506D01*
X36079502Y77695820D01*
X36115812Y77815518D01*
X36128072Y77940000D01*
X36128072Y79540000D01*
X36115812Y79664482D01*
X36079502Y79784180D01*
X36020537Y79894494D01*
X35941185Y79991185D01*
X35844494Y80070537D01*
X35734180Y80129502D01*
X35614482Y80165812D01*
X35596518Y80167581D01*
X35709608Y80260392D01*
X35888932Y80478899D01*
X36022182Y80728192D01*
X36104236Y80998691D01*
X36131943Y81280000D01*
X36104236Y81561309D01*
X36022182Y81831808D01*
X35888932Y82081101D01*
X35761961Y82235815D01*
X37963500Y84437353D01*
X37963501Y69340415D01*
G04 #@! TA.AperFunction,Conductor*
D23*
G36*
X37963501Y69340415D02*
G01*
X37959944Y69304300D01*
X37974135Y69160215D01*
X38002590Y69066414D01*
X38016164Y69021667D01*
X38084414Y68893980D01*
X38176263Y68782062D01*
X38204308Y68759046D01*
X45034304Y61929049D01*
X44953495Y61895577D01*
X44808545Y61798724D01*
X44685276Y61675455D01*
X44588423Y61530505D01*
X44521710Y61369445D01*
X44487700Y61198465D01*
X44487700Y61024135D01*
X44521710Y60853155D01*
X44588423Y60692095D01*
X44637701Y60618346D01*
X44637701Y60572199D01*
X44508455Y60546490D01*
X44347395Y60479777D01*
X44202445Y60382924D01*
X44079176Y60259655D01*
X43982323Y60114705D01*
X43915610Y59953645D01*
X43915608Y59953634D01*
X43741488Y59962217D01*
X43461870Y59920787D01*
X43446569Y59915315D01*
X43454290Y59933955D01*
X43488300Y60104935D01*
X43488300Y60279265D01*
X43454290Y60450245D01*
X43387577Y60611305D01*
X43290724Y60756255D01*
X43167455Y60879524D01*
X43022505Y60976377D01*
X42861445Y61043090D01*
X42690465Y61077100D01*
X42516135Y61077100D01*
X42345155Y61043090D01*
X42184095Y60976377D01*
X42039145Y60879524D01*
X41915876Y60756255D01*
X41819023Y60611305D01*
X41752310Y60450245D01*
X41718300Y60279265D01*
X41718300Y60104935D01*
X41752310Y59933955D01*
X41772863Y59884337D01*
X41730574Y59901853D01*
X41453335Y59957000D01*
X41170665Y59957000D01*
X41076583Y59938286D01*
X33143446Y67871421D01*
X33117291Y67903291D01*
X32990146Y68007636D01*
X32845087Y68085172D01*
X32687689Y68132918D01*
X32565019Y68145000D01*
X32565018Y68145000D01*
X32524000Y68149040D01*
X32482982Y68145000D01*
X30375300Y68145000D01*
X30375300Y73937298D01*
X30896903Y73937298D01*
X30968486Y73693329D01*
X31223996Y73572429D01*
X31498184Y73503700D01*
X31780512Y73489783D01*
X32060130Y73531213D01*
X32326292Y73626397D01*
X32451514Y73693329D01*
X32523097Y73937298D01*
X31710000Y74750395D01*
X30896903Y73937298D01*
X30375300Y73937298D01*
X30375300Y74091064D01*
X30458692Y74215869D01*
X30473329Y74188486D01*
X30717298Y74116903D01*
X31530395Y74930000D01*
X31889605Y74930000D01*
X32702702Y74116903D01*
X32946671Y74188486D01*
X33067571Y74443996D01*
X33136300Y74718184D01*
X33150217Y75000512D01*
X33108787Y75280130D01*
X33013603Y75546292D01*
X32946671Y75671514D01*
X32702702Y75743097D01*
X31889605Y74930000D01*
X31530395Y74930000D01*
X30717298Y75743097D01*
X30473329Y75671514D01*
X30459676Y75642659D01*
X30324637Y75844759D01*
X30246694Y75922702D01*
X30896903Y75922702D01*
X31710000Y75109605D01*
X32523097Y75922702D01*
X32451514Y76166671D01*
X32196004Y76287571D01*
X31921816Y76356300D01*
X31639488Y76370217D01*
X31359870Y76328787D01*
X31093708Y76233603D01*
X30968486Y76166671D01*
X30896903Y75922702D01*
X30246694Y75922702D01*
X30124759Y76044637D01*
X29900637Y76194390D01*
X32451928Y78745681D01*
X32451928Y77940000D01*
X32464188Y77815518D01*
X32500498Y77695820D01*
X32559463Y77585506D01*
X32638815Y77488815D01*
X32735506Y77409463D01*
X32845820Y77350498D01*
X32965518Y77314188D01*
X33090000Y77301928D01*
X35490000Y77301928D01*
X35614482Y77314188D01*
X35734180Y77350498D01*
X35844494Y77409463D01*
X35941185Y77488815D01*
X36020537Y77585506D01*
X36079502Y77695820D01*
X36115812Y77815518D01*
X36128072Y77940000D01*
X36128072Y79540000D01*
X36115812Y79664482D01*
X36079502Y79784180D01*
X36020537Y79894494D01*
X35941185Y79991185D01*
X35844494Y80070537D01*
X35734180Y80129502D01*
X35614482Y80165812D01*
X35596518Y80167581D01*
X35709608Y80260392D01*
X35888932Y80478899D01*
X36022182Y80728192D01*
X36104236Y80998691D01*
X36131943Y81280000D01*
X36104236Y81561309D01*
X36022182Y81831808D01*
X35888932Y82081101D01*
X35761961Y82235815D01*
X37963500Y84437353D01*
X37963501Y69340415D01*
G37*
G04 #@! TD.AperFunction*
D22*
X3937000Y66167000D02*
X6223000Y66167000D01*
X6223000Y66187000D01*
X6477000Y66187000D01*
X6477000Y66167000D01*
X6497000Y66167000D01*
X6497000Y65913000D01*
X6477000Y65913000D01*
X6477000Y65893000D01*
X6223000Y65893000D01*
X6223000Y65913000D01*
X3937000Y65913000D01*
X3937000Y65893000D01*
X3683000Y65893000D01*
X3683000Y65913000D01*
X3663000Y65913000D01*
X3663000Y66167000D01*
X3683000Y66167000D01*
X3683000Y66187000D01*
X3937000Y66187000D01*
X3937000Y66167000D01*
G04 #@! TA.AperFunction,Conductor*
D23*
G36*
X3937000Y66167000D02*
G01*
X6223000Y66167000D01*
X6223000Y66187000D01*
X6477000Y66187000D01*
X6477000Y66167000D01*
X6497000Y66167000D01*
X6497000Y65913000D01*
X6477000Y65913000D01*
X6477000Y65893000D01*
X6223000Y65893000D01*
X6223000Y65913000D01*
X3937000Y65913000D01*
X3937000Y65893000D01*
X3683000Y65893000D01*
X3683000Y65913000D01*
X3663000Y65913000D01*
X3663000Y66167000D01*
X3683000Y66167000D01*
X3683000Y66187000D01*
X3937000Y66187000D01*
X3937000Y66167000D01*
G37*
G04 #@! TD.AperFunction*
D22*
X25091401Y69072954D02*
X25042123Y68999205D01*
X24975410Y68838145D01*
X24969100Y68806422D01*
X24969100Y69376054D01*
X25091401Y69498354D01*
X25091401Y69072954D01*
G04 #@! TA.AperFunction,Conductor*
D23*
G36*
X25091401Y69072954D02*
G01*
X25042123Y68999205D01*
X24975410Y68838145D01*
X24969100Y68806422D01*
X24969100Y69376054D01*
X25091401Y69498354D01*
X25091401Y69072954D01*
G37*
G04 #@! TD.AperFunction*
D22*
X28095363Y74015241D02*
X28295241Y73815363D01*
X28530273Y73658320D01*
X28705301Y73585821D01*
X28705301Y71240047D01*
X28467000Y71285000D01*
X28067000Y71285000D01*
X28067000Y69977000D01*
X28087000Y69977000D01*
X28087000Y69723000D01*
X28067000Y69723000D01*
X28067000Y69703000D01*
X27813000Y69703000D01*
X27813000Y69723000D01*
X27793000Y69723000D01*
X27793000Y69977000D01*
X27813000Y69977000D01*
X27813000Y71285000D01*
X27413000Y71285000D01*
X27174700Y71240047D01*
X27174700Y73468454D01*
X27945610Y74239363D01*
X28095363Y74015241D01*
G04 #@! TA.AperFunction,Conductor*
D23*
G36*
X28095363Y74015241D02*
G01*
X28295241Y73815363D01*
X28530273Y73658320D01*
X28705301Y73585821D01*
X28705301Y71240047D01*
X28467000Y71285000D01*
X28067000Y71285000D01*
X28067000Y69977000D01*
X28087000Y69977000D01*
X28087000Y69723000D01*
X28067000Y69723000D01*
X28067000Y69703000D01*
X27813000Y69703000D01*
X27813000Y69723000D01*
X27793000Y69723000D01*
X27793000Y69977000D01*
X27813000Y69977000D01*
X27813000Y71285000D01*
X27413000Y71285000D01*
X27174700Y71240047D01*
X27174700Y73468454D01*
X27945610Y74239363D01*
X28095363Y74015241D01*
G37*
G04 #@! TD.AperFunction*
D22*
X72673816Y87807037D02*
X72640392Y87779607D01*
X72461068Y87561100D01*
X72390000Y87428142D01*
X72318932Y87561101D01*
X72139607Y87779608D01*
X71921100Y87958932D01*
X71671807Y88092182D01*
X71401308Y88174236D01*
X71120000Y88201943D01*
X70838691Y88174236D01*
X70568192Y88092182D01*
X70318899Y87958932D01*
X70100392Y87779607D01*
X69921068Y87561100D01*
X69850000Y87428142D01*
X69778932Y87561101D01*
X69599607Y87779608D01*
X69381100Y87958932D01*
X69131807Y88092182D01*
X68861308Y88174236D01*
X68580000Y88201943D01*
X68298691Y88174236D01*
X68028192Y88092182D01*
X67778899Y87958932D01*
X67560392Y87779607D01*
X67381068Y87561100D01*
X67310000Y87428142D01*
X67238932Y87561101D01*
X67059607Y87779608D01*
X66841100Y87958932D01*
X66591807Y88092182D01*
X66321308Y88174236D01*
X66040000Y88201943D01*
X65758691Y88174236D01*
X65488192Y88092182D01*
X65238899Y87958932D01*
X65020392Y87779607D01*
X64841068Y87561100D01*
X64772735Y87433258D01*
X64622601Y87662839D01*
X64424895Y87864500D01*
X64191646Y88023715D01*
X63931818Y88134367D01*
X63849039Y88151904D01*
X63627000Y88029915D01*
X63627000Y86487000D01*
X63647000Y86487000D01*
X63647000Y86233000D01*
X63627000Y86233000D01*
X63627000Y84690085D01*
X63849039Y84568096D01*
X63931818Y84585633D01*
X64191646Y84696285D01*
X64424895Y84855500D01*
X64622601Y85057161D01*
X64772735Y85286741D01*
X64841068Y85158899D01*
X65020393Y84940392D01*
X65053816Y84912963D01*
X59035608Y78894754D01*
X59007562Y78871737D01*
X58915713Y78759819D01*
X58847463Y78632132D01*
X58831831Y78580600D01*
X58805435Y78493585D01*
X58791244Y78349500D01*
X58794800Y78313395D01*
X58794800Y73284946D01*
X58054600Y74025146D01*
X58054600Y84571273D01*
X58138692Y84545764D01*
X58420000Y84518057D01*
X58701309Y84545764D01*
X58971808Y84627818D01*
X59221101Y84761068D01*
X59439608Y84940392D01*
X59618932Y85158899D01*
X59690000Y85291858D01*
X59761068Y85158899D01*
X59940393Y84940392D01*
X60158900Y84761068D01*
X60408193Y84627818D01*
X60678692Y84545764D01*
X60960000Y84518057D01*
X61241309Y84545764D01*
X61511808Y84627818D01*
X61761101Y84761068D01*
X61979608Y84940392D01*
X62158932Y85158899D01*
X62227265Y85286741D01*
X62377399Y85057161D01*
X62575105Y84855500D01*
X62808354Y84696285D01*
X63068182Y84585633D01*
X63150961Y84568096D01*
X63373000Y84690085D01*
X63373000Y86233000D01*
X63353000Y86233000D01*
X63353000Y86487000D01*
X63373000Y86487000D01*
X63373000Y88029915D01*
X63150961Y88151904D01*
X63068182Y88134367D01*
X62808354Y88023715D01*
X62575105Y87864500D01*
X62377399Y87662839D01*
X62227265Y87433259D01*
X62158932Y87561101D01*
X61979607Y87779608D01*
X61761100Y87958932D01*
X61511807Y88092182D01*
X61241308Y88174236D01*
X60960000Y88201943D01*
X60678691Y88174236D01*
X60408192Y88092182D01*
X60158899Y87958932D01*
X59940392Y87779607D01*
X59761068Y87561100D01*
X59690000Y87428142D01*
X59618932Y87561101D01*
X59439607Y87779608D01*
X59428934Y87788367D01*
X62156428Y90515860D01*
X62188291Y90542009D01*
X62292636Y90669154D01*
X62370172Y90814213D01*
X62417918Y90971611D01*
X62430000Y91094281D01*
X62430000Y91094282D01*
X62434040Y91135299D01*
X62430000Y91176318D01*
X62430000Y92116935D01*
X62541632Y92191525D01*
X62748475Y92398368D01*
X62910990Y92641589D01*
X63022932Y92911842D01*
X63080000Y93198740D01*
X63080000Y93491260D01*
X63026464Y93760400D01*
X66720454Y93760400D01*
X72673816Y87807037D01*
G04 #@! TA.AperFunction,Conductor*
D23*
G36*
X72673816Y87807037D02*
G01*
X72640392Y87779607D01*
X72461068Y87561100D01*
X72390000Y87428142D01*
X72318932Y87561101D01*
X72139607Y87779608D01*
X71921100Y87958932D01*
X71671807Y88092182D01*
X71401308Y88174236D01*
X71120000Y88201943D01*
X70838691Y88174236D01*
X70568192Y88092182D01*
X70318899Y87958932D01*
X70100392Y87779607D01*
X69921068Y87561100D01*
X69850000Y87428142D01*
X69778932Y87561101D01*
X69599607Y87779608D01*
X69381100Y87958932D01*
X69131807Y88092182D01*
X68861308Y88174236D01*
X68580000Y88201943D01*
X68298691Y88174236D01*
X68028192Y88092182D01*
X67778899Y87958932D01*
X67560392Y87779607D01*
X67381068Y87561100D01*
X67310000Y87428142D01*
X67238932Y87561101D01*
X67059607Y87779608D01*
X66841100Y87958932D01*
X66591807Y88092182D01*
X66321308Y88174236D01*
X66040000Y88201943D01*
X65758691Y88174236D01*
X65488192Y88092182D01*
X65238899Y87958932D01*
X65020392Y87779607D01*
X64841068Y87561100D01*
X64772735Y87433258D01*
X64622601Y87662839D01*
X64424895Y87864500D01*
X64191646Y88023715D01*
X63931818Y88134367D01*
X63849039Y88151904D01*
X63627000Y88029915D01*
X63627000Y86487000D01*
X63647000Y86487000D01*
X63647000Y86233000D01*
X63627000Y86233000D01*
X63627000Y84690085D01*
X63849039Y84568096D01*
X63931818Y84585633D01*
X64191646Y84696285D01*
X64424895Y84855500D01*
X64622601Y85057161D01*
X64772735Y85286741D01*
X64841068Y85158899D01*
X65020393Y84940392D01*
X65053816Y84912963D01*
X59035608Y78894754D01*
X59007562Y78871737D01*
X58915713Y78759819D01*
X58847463Y78632132D01*
X58831831Y78580600D01*
X58805435Y78493585D01*
X58791244Y78349500D01*
X58794800Y78313395D01*
X58794800Y73284946D01*
X58054600Y74025146D01*
X58054600Y84571273D01*
X58138692Y84545764D01*
X58420000Y84518057D01*
X58701309Y84545764D01*
X58971808Y84627818D01*
X59221101Y84761068D01*
X59439608Y84940392D01*
X59618932Y85158899D01*
X59690000Y85291858D01*
X59761068Y85158899D01*
X59940393Y84940392D01*
X60158900Y84761068D01*
X60408193Y84627818D01*
X60678692Y84545764D01*
X60960000Y84518057D01*
X61241309Y84545764D01*
X61511808Y84627818D01*
X61761101Y84761068D01*
X61979608Y84940392D01*
X62158932Y85158899D01*
X62227265Y85286741D01*
X62377399Y85057161D01*
X62575105Y84855500D01*
X62808354Y84696285D01*
X63068182Y84585633D01*
X63150961Y84568096D01*
X63373000Y84690085D01*
X63373000Y86233000D01*
X63353000Y86233000D01*
X63353000Y86487000D01*
X63373000Y86487000D01*
X63373000Y88029915D01*
X63150961Y88151904D01*
X63068182Y88134367D01*
X62808354Y88023715D01*
X62575105Y87864500D01*
X62377399Y87662839D01*
X62227265Y87433259D01*
X62158932Y87561101D01*
X61979607Y87779608D01*
X61761100Y87958932D01*
X61511807Y88092182D01*
X61241308Y88174236D01*
X60960000Y88201943D01*
X60678691Y88174236D01*
X60408192Y88092182D01*
X60158899Y87958932D01*
X59940392Y87779607D01*
X59761068Y87561100D01*
X59690000Y87428142D01*
X59618932Y87561101D01*
X59439607Y87779608D01*
X59428934Y87788367D01*
X62156428Y90515860D01*
X62188291Y90542009D01*
X62292636Y90669154D01*
X62370172Y90814213D01*
X62417918Y90971611D01*
X62430000Y91094281D01*
X62430000Y91094282D01*
X62434040Y91135299D01*
X62430000Y91176318D01*
X62430000Y92116935D01*
X62541632Y92191525D01*
X62748475Y92398368D01*
X62910990Y92641589D01*
X63022932Y92911842D01*
X63080000Y93198740D01*
X63080000Y93491260D01*
X63026464Y93760400D01*
X66720454Y93760400D01*
X72673816Y87807037D01*
G37*
G04 #@! TD.AperFunction*
D22*
X32626285Y94671646D02*
X32515633Y94411818D01*
X32498096Y94329039D01*
X32620085Y94107000D01*
X34163000Y94107000D01*
X34163000Y94127000D01*
X34417000Y94127000D01*
X34417000Y94107000D01*
X35959915Y94107000D01*
X36081904Y94329039D01*
X36064367Y94411818D01*
X35953715Y94671646D01*
X35894087Y94759000D01*
X38337153Y94759000D01*
X36067308Y92489154D01*
X36039262Y92466137D01*
X35947413Y92354219D01*
X35887732Y92242563D01*
X35709608Y92459608D01*
X35491101Y92638932D01*
X35363259Y92707265D01*
X35592839Y92857399D01*
X35794500Y93055105D01*
X35953715Y93288354D01*
X36064367Y93548182D01*
X36081904Y93630961D01*
X35959915Y93853000D01*
X34417000Y93853000D01*
X34417000Y93833000D01*
X34163000Y93833000D01*
X34163000Y93853000D01*
X32620085Y93853000D01*
X32498096Y93630961D01*
X32515633Y93548182D01*
X32626285Y93288354D01*
X32785500Y93055105D01*
X32987161Y92857399D01*
X33216741Y92707265D01*
X33088899Y92638932D01*
X32870392Y92459608D01*
X32842962Y92426185D01*
X32223658Y93045488D01*
X32200638Y93073538D01*
X32088720Y93165387D01*
X31961033Y93233637D01*
X31822485Y93275665D01*
X31714505Y93286300D01*
X31678400Y93289856D01*
X31642295Y93286300D01*
X28326339Y93286300D01*
X28402182Y93428192D01*
X28484236Y93698691D01*
X28511943Y93980000D01*
X28484236Y94261309D01*
X28402182Y94531808D01*
X28280745Y94759000D01*
X32685913Y94759000D01*
X32626285Y94671646D01*
G04 #@! TA.AperFunction,Conductor*
D23*
G36*
X32626285Y94671646D02*
G01*
X32515633Y94411818D01*
X32498096Y94329039D01*
X32620085Y94107000D01*
X34163000Y94107000D01*
X34163000Y94127000D01*
X34417000Y94127000D01*
X34417000Y94107000D01*
X35959915Y94107000D01*
X36081904Y94329039D01*
X36064367Y94411818D01*
X35953715Y94671646D01*
X35894087Y94759000D01*
X38337153Y94759000D01*
X36067308Y92489154D01*
X36039262Y92466137D01*
X35947413Y92354219D01*
X35887732Y92242563D01*
X35709608Y92459608D01*
X35491101Y92638932D01*
X35363259Y92707265D01*
X35592839Y92857399D01*
X35794500Y93055105D01*
X35953715Y93288354D01*
X36064367Y93548182D01*
X36081904Y93630961D01*
X35959915Y93853000D01*
X34417000Y93853000D01*
X34417000Y93833000D01*
X34163000Y93833000D01*
X34163000Y93853000D01*
X32620085Y93853000D01*
X32498096Y93630961D01*
X32515633Y93548182D01*
X32626285Y93288354D01*
X32785500Y93055105D01*
X32987161Y92857399D01*
X33216741Y92707265D01*
X33088899Y92638932D01*
X32870392Y92459608D01*
X32842962Y92426185D01*
X32223658Y93045488D01*
X32200638Y93073538D01*
X32088720Y93165387D01*
X31961033Y93233637D01*
X31822485Y93275665D01*
X31714505Y93286300D01*
X31678400Y93289856D01*
X31642295Y93286300D01*
X28326339Y93286300D01*
X28402182Y93428192D01*
X28484236Y93698691D01*
X28511943Y93980000D01*
X28484236Y94261309D01*
X28402182Y94531808D01*
X28280745Y94759000D01*
X32685913Y94759000D01*
X32626285Y94671646D01*
G37*
G04 #@! TD.AperFunction*
D22*
X20447000Y94107000D02*
X20467000Y94107000D01*
X20467000Y93853000D01*
X20447000Y93853000D01*
X20447000Y93833000D01*
X20193000Y93833000D01*
X20193000Y93853000D01*
X20173000Y93853000D01*
X20173000Y94107000D01*
X20193000Y94107000D01*
X20193000Y94127000D01*
X20447000Y94127000D01*
X20447000Y94107000D01*
G04 #@! TA.AperFunction,Conductor*
D23*
G36*
X20447000Y94107000D02*
G01*
X20467000Y94107000D01*
X20467000Y93853000D01*
X20447000Y93853000D01*
X20447000Y93833000D01*
X20193000Y93833000D01*
X20193000Y93853000D01*
X20173000Y93853000D01*
X20173000Y94107000D01*
X20193000Y94107000D01*
X20193000Y94127000D01*
X20447000Y94127000D01*
X20447000Y94107000D01*
G37*
G04 #@! TD.AperFunction*
M02*
