G04 #@! TF.GenerationSoftware,KiCad,Pcbnew,(5.1.9)-1*
G04 #@! TF.CreationDate,2025-02-11T22:07:12+09:00*
G04 #@! TF.ProjectId,JR-200_SD,4a522d32-3030-45f5-9344-2e6b69636164,rev?*
G04 #@! TF.SameCoordinates,PX53920b0PY93c3260*
G04 #@! TF.FileFunction,Legend,Top*
G04 #@! TF.FilePolarity,Positive*
%FSLAX46Y46*%
G04 Gerber Fmt 4.6, Leading zero omitted, Abs format (unit mm)*
G04 Created by KiCad (PCBNEW (5.1.9)-1) date 2025-02-11 22:07:12*
%MOMM*%
%LPD*%
G01*
G04 APERTURE LIST*
%ADD10C,0.150000*%
%ADD11C,0.500000*%
%ADD12C,0.120000*%
G04 APERTURE END LIST*
D10*
X89280000Y95559620D02*
X89232380Y95512000D01*
X89137142Y95464381D01*
X88899047Y95464381D01*
X88803809Y95512000D01*
X88756190Y95559620D01*
X88708571Y95654858D01*
X88708571Y95750096D01*
X88756190Y95892953D01*
X89327619Y96464381D01*
X88708571Y96464381D01*
X88375238Y95464381D02*
X87708571Y95464381D01*
X88137142Y96464381D01*
X86899047Y95464381D02*
X87089523Y95464381D01*
X87184761Y95512000D01*
X87232380Y95559620D01*
X87327619Y95702477D01*
X87375238Y95892953D01*
X87375238Y96273905D01*
X87327619Y96369143D01*
X87280000Y96416762D01*
X87184761Y96464381D01*
X86994285Y96464381D01*
X86899047Y96416762D01*
X86851428Y96369143D01*
X86803809Y96273905D01*
X86803809Y96035810D01*
X86851428Y95940572D01*
X86899047Y95892953D01*
X86994285Y95845334D01*
X87184761Y95845334D01*
X87280000Y95892953D01*
X87327619Y95940572D01*
X87375238Y96035810D01*
X85946666Y95797715D02*
X85946666Y96464381D01*
X86184761Y95416762D02*
X86422857Y96131048D01*
X85803809Y96131048D01*
X83946666Y95416762D02*
X84803809Y96702477D01*
X82899047Y95559620D02*
X82851428Y95512000D01*
X82756190Y95464381D01*
X82518095Y95464381D01*
X82422857Y95512000D01*
X82375238Y95559620D01*
X82327619Y95654858D01*
X82327619Y95750096D01*
X82375238Y95892953D01*
X82946666Y96464381D01*
X82327619Y96464381D01*
X81994285Y95464381D02*
X81327619Y95464381D01*
X81756190Y96464381D01*
X80470476Y95464381D02*
X80946666Y95464381D01*
X80994285Y95940572D01*
X80946666Y95892953D01*
X80851428Y95845334D01*
X80613333Y95845334D01*
X80518095Y95892953D01*
X80470476Y95940572D01*
X80422857Y96035810D01*
X80422857Y96273905D01*
X80470476Y96369143D01*
X80518095Y96416762D01*
X80613333Y96464381D01*
X80851428Y96464381D01*
X80946666Y96416762D01*
X80994285Y96369143D01*
X79470476Y96464381D02*
X80041904Y96464381D01*
X79756190Y96464381D02*
X79756190Y95464381D01*
X79851428Y95607239D01*
X79946666Y95702477D01*
X80041904Y95750096D01*
X79089523Y95559620D02*
X79041904Y95512000D01*
X78946666Y95464381D01*
X78708571Y95464381D01*
X78613333Y95512000D01*
X78565714Y95559620D01*
X78518095Y95654858D01*
X78518095Y95750096D01*
X78565714Y95892953D01*
X79137142Y96464381D01*
X78518095Y96464381D01*
X78041904Y96416762D02*
X78041904Y96464381D01*
X78089523Y96559620D01*
X78137142Y96607239D01*
X77660952Y95559620D02*
X77613333Y95512000D01*
X77518095Y95464381D01*
X77280000Y95464381D01*
X77184761Y95512000D01*
X77137142Y95559620D01*
X77089523Y95654858D01*
X77089523Y95750096D01*
X77137142Y95892953D01*
X77708571Y96464381D01*
X77089523Y96464381D01*
X76756190Y95464381D02*
X76089523Y95464381D01*
X76518095Y96464381D01*
X75756190Y95559620D02*
X75708571Y95512000D01*
X75613333Y95464381D01*
X75375238Y95464381D01*
X75280000Y95512000D01*
X75232380Y95559620D01*
X75184761Y95654858D01*
X75184761Y95750096D01*
X75232380Y95892953D01*
X75803809Y96464381D01*
X75184761Y96464381D01*
X74280000Y95464381D02*
X74756190Y95464381D01*
X74803809Y95940572D01*
X74756190Y95892953D01*
X74660952Y95845334D01*
X74422857Y95845334D01*
X74327619Y95892953D01*
X74280000Y95940572D01*
X74232380Y96035810D01*
X74232380Y96273905D01*
X74280000Y96369143D01*
X74327619Y96416762D01*
X74422857Y96464381D01*
X74660952Y96464381D01*
X74756190Y96416762D01*
X74803809Y96369143D01*
X73375238Y95464381D02*
X73565714Y95464381D01*
X73660952Y95512000D01*
X73708571Y95559620D01*
X73803809Y95702477D01*
X73851428Y95892953D01*
X73851428Y96273905D01*
X73803809Y96369143D01*
X73756190Y96416762D01*
X73660952Y96464381D01*
X73470476Y96464381D01*
X73375238Y96416762D01*
X73327619Y96369143D01*
X73280000Y96273905D01*
X73280000Y96035810D01*
X73327619Y95940572D01*
X73375238Y95892953D01*
X73470476Y95845334D01*
X73660952Y95845334D01*
X73756190Y95892953D01*
X73803809Y95940572D01*
X73851428Y96035810D01*
X69214000Y95559620D02*
X69166380Y95512000D01*
X69071142Y95464381D01*
X68833047Y95464381D01*
X68737809Y95512000D01*
X68690190Y95559620D01*
X68642571Y95654858D01*
X68642571Y95750096D01*
X68690190Y95892953D01*
X69261619Y96464381D01*
X68642571Y96464381D01*
X68309238Y95464381D02*
X67642571Y95464381D01*
X68071142Y96464381D01*
X67309238Y95559620D02*
X67261619Y95512000D01*
X67166380Y95464381D01*
X66928285Y95464381D01*
X66833047Y95512000D01*
X66785428Y95559620D01*
X66737809Y95654858D01*
X66737809Y95750096D01*
X66785428Y95892953D01*
X67356857Y96464381D01*
X66737809Y96464381D01*
X65833047Y95464381D02*
X66309238Y95464381D01*
X66356857Y95940572D01*
X66309238Y95892953D01*
X66214000Y95845334D01*
X65975904Y95845334D01*
X65880666Y95892953D01*
X65833047Y95940572D01*
X65785428Y96035810D01*
X65785428Y96273905D01*
X65833047Y96369143D01*
X65880666Y96416762D01*
X65975904Y96464381D01*
X66214000Y96464381D01*
X66309238Y96416762D01*
X66356857Y96369143D01*
X64928285Y95464381D02*
X65118761Y95464381D01*
X65214000Y95512000D01*
X65261619Y95559620D01*
X65356857Y95702477D01*
X65404476Y95892953D01*
X65404476Y96273905D01*
X65356857Y96369143D01*
X65309238Y96416762D01*
X65214000Y96464381D01*
X65023523Y96464381D01*
X64928285Y96416762D01*
X64880666Y96369143D01*
X64833047Y96273905D01*
X64833047Y96035810D01*
X64880666Y95940572D01*
X64928285Y95892953D01*
X65023523Y95845334D01*
X65214000Y95845334D01*
X65309238Y95892953D01*
X65356857Y95940572D01*
X65404476Y96035810D01*
X64356857Y96416762D02*
X64356857Y96464381D01*
X64404476Y96559620D01*
X64452095Y96607239D01*
X63975904Y95559620D02*
X63928285Y95512000D01*
X63833047Y95464381D01*
X63594952Y95464381D01*
X63499714Y95512000D01*
X63452095Y95559620D01*
X63404476Y95654858D01*
X63404476Y95750096D01*
X63452095Y95892953D01*
X64023523Y96464381D01*
X63404476Y96464381D01*
X63071142Y95464381D02*
X62404476Y95464381D01*
X62833047Y96464381D01*
X61594952Y95464381D02*
X61785428Y95464381D01*
X61880666Y95512000D01*
X61928285Y95559620D01*
X62023523Y95702477D01*
X62071142Y95892953D01*
X62071142Y96273905D01*
X62023523Y96369143D01*
X61975904Y96416762D01*
X61880666Y96464381D01*
X61690190Y96464381D01*
X61594952Y96416762D01*
X61547333Y96369143D01*
X61499714Y96273905D01*
X61499714Y96035810D01*
X61547333Y95940572D01*
X61594952Y95892953D01*
X61690190Y95845334D01*
X61880666Y95845334D01*
X61975904Y95892953D01*
X62023523Y95940572D01*
X62071142Y96035810D01*
X60642571Y95797715D02*
X60642571Y96464381D01*
X60880666Y95416762D02*
X61118761Y96131048D01*
X60499714Y96131048D01*
X58642571Y95416762D02*
X59499714Y96702477D01*
X57594952Y95559620D02*
X57547333Y95512000D01*
X57452095Y95464381D01*
X57214000Y95464381D01*
X57118761Y95512000D01*
X57071142Y95559620D01*
X57023523Y95654858D01*
X57023523Y95750096D01*
X57071142Y95892953D01*
X57642571Y96464381D01*
X57023523Y96464381D01*
X56690190Y95464381D02*
X56023523Y95464381D01*
X56452095Y96464381D01*
X55166380Y95464381D02*
X55642571Y95464381D01*
X55690190Y95940572D01*
X55642571Y95892953D01*
X55547333Y95845334D01*
X55309238Y95845334D01*
X55214000Y95892953D01*
X55166380Y95940572D01*
X55118761Y96035810D01*
X55118761Y96273905D01*
X55166380Y96369143D01*
X55214000Y96416762D01*
X55309238Y96464381D01*
X55547333Y96464381D01*
X55642571Y96416762D01*
X55690190Y96369143D01*
X54166380Y96464381D02*
X54737809Y96464381D01*
X54452095Y96464381D02*
X54452095Y95464381D01*
X54547333Y95607239D01*
X54642571Y95702477D01*
X54737809Y95750096D01*
X53785428Y95559620D02*
X53737809Y95512000D01*
X53642571Y95464381D01*
X53404476Y95464381D01*
X53309238Y95512000D01*
X53261619Y95559620D01*
X53214000Y95654858D01*
X53214000Y95750096D01*
X53261619Y95892953D01*
X53833047Y96464381D01*
X53214000Y96464381D01*
X15517619Y67762381D02*
X16089047Y67762381D01*
X15803333Y67762381D02*
X15803333Y66762381D01*
X15898571Y66905239D01*
X15993809Y67000477D01*
X16089047Y67048096D01*
X14898571Y66762381D02*
X14803333Y66762381D01*
X14708095Y66810000D01*
X14660476Y66857620D01*
X14612857Y66952858D01*
X14565238Y67143334D01*
X14565238Y67381429D01*
X14612857Y67571905D01*
X14660476Y67667143D01*
X14708095Y67714762D01*
X14803333Y67762381D01*
X14898571Y67762381D01*
X14993809Y67714762D01*
X15041428Y67667143D01*
X15089047Y67571905D01*
X15136666Y67381429D01*
X15136666Y67143334D01*
X15089047Y66952858D01*
X15041428Y66857620D01*
X14993809Y66810000D01*
X14898571Y66762381D01*
X13946190Y66762381D02*
X13850952Y66762381D01*
X13755714Y66810000D01*
X13708095Y66857620D01*
X13660476Y66952858D01*
X13612857Y67143334D01*
X13612857Y67381429D01*
X13660476Y67571905D01*
X13708095Y67667143D01*
X13755714Y67714762D01*
X13850952Y67762381D01*
X13946190Y67762381D01*
X14041428Y67714762D01*
X14089047Y67667143D01*
X14136666Y67571905D01*
X14184285Y67381429D01*
X14184285Y67143334D01*
X14136666Y66952858D01*
X14089047Y66857620D01*
X14041428Y66810000D01*
X13946190Y66762381D01*
X12755714Y67095715D02*
X12755714Y67762381D01*
X13184285Y67095715D02*
X13184285Y67619524D01*
X13136666Y67714762D01*
X13041428Y67762381D01*
X12898571Y67762381D01*
X12803333Y67714762D01*
X12755714Y67667143D01*
X11946190Y67238572D02*
X12279523Y67238572D01*
X12279523Y67762381D02*
X12279523Y66762381D01*
X11803333Y66762381D01*
X41878095Y3262381D02*
X42068571Y3262381D01*
X42163809Y3310000D01*
X42211428Y3357620D01*
X42306666Y3500477D01*
X42354285Y3690953D01*
X42354285Y4071905D01*
X42306666Y4167143D01*
X42259047Y4214762D01*
X42163809Y4262381D01*
X41973333Y4262381D01*
X41878095Y4214762D01*
X41830476Y4167143D01*
X41782857Y4071905D01*
X41782857Y3833810D01*
X41830476Y3738572D01*
X41878095Y3690953D01*
X41973333Y3643334D01*
X42163809Y3643334D01*
X42259047Y3690953D01*
X42306666Y3738572D01*
X42354285Y3833810D01*
X41211428Y3690953D02*
X41306666Y3643334D01*
X41354285Y3595715D01*
X41401904Y3500477D01*
X41401904Y3452858D01*
X41354285Y3357620D01*
X41306666Y3310000D01*
X41211428Y3262381D01*
X41020952Y3262381D01*
X40925714Y3310000D01*
X40878095Y3357620D01*
X40830476Y3452858D01*
X40830476Y3500477D01*
X40878095Y3595715D01*
X40925714Y3643334D01*
X41020952Y3690953D01*
X41211428Y3690953D01*
X41306666Y3738572D01*
X41354285Y3786191D01*
X41401904Y3881429D01*
X41401904Y4071905D01*
X41354285Y4167143D01*
X41306666Y4214762D01*
X41211428Y4262381D01*
X41020952Y4262381D01*
X40925714Y4214762D01*
X40878095Y4167143D01*
X40830476Y4071905D01*
X40830476Y3881429D01*
X40878095Y3786191D01*
X40925714Y3738572D01*
X41020952Y3690953D01*
X40449523Y3357620D02*
X40401904Y3310000D01*
X40306666Y3262381D01*
X40068571Y3262381D01*
X39973333Y3310000D01*
X39925714Y3357620D01*
X39878095Y3452858D01*
X39878095Y3548096D01*
X39925714Y3690953D01*
X40497142Y4262381D01*
X39878095Y4262381D01*
X38925714Y4262381D02*
X39497142Y4262381D01*
X39211428Y4262381D02*
X39211428Y3262381D01*
X39306666Y3405239D01*
X39401904Y3500477D01*
X39497142Y3548096D01*
X25502857Y23582381D02*
X24836190Y23582381D01*
X25264761Y24582381D01*
X24026666Y23915715D02*
X24026666Y24582381D01*
X24264761Y23534762D02*
X24502857Y24249048D01*
X23883809Y24249048D01*
X23026666Y24582381D02*
X23502857Y24582381D01*
X23502857Y23582381D01*
X22740952Y24534762D02*
X22598095Y24582381D01*
X22360000Y24582381D01*
X22264761Y24534762D01*
X22217142Y24487143D01*
X22169523Y24391905D01*
X22169523Y24296667D01*
X22217142Y24201429D01*
X22264761Y24153810D01*
X22360000Y24106191D01*
X22550476Y24058572D01*
X22645714Y24010953D01*
X22693333Y23963334D01*
X22740952Y23868096D01*
X22740952Y23772858D01*
X22693333Y23677620D01*
X22645714Y23630000D01*
X22550476Y23582381D01*
X22312380Y23582381D01*
X22169523Y23630000D01*
X21836190Y23582381D02*
X21217142Y23582381D01*
X21550476Y23963334D01*
X21407619Y23963334D01*
X21312380Y24010953D01*
X21264761Y24058572D01*
X21217142Y24153810D01*
X21217142Y24391905D01*
X21264761Y24487143D01*
X21312380Y24534762D01*
X21407619Y24582381D01*
X21693333Y24582381D01*
X21788571Y24534762D01*
X21836190Y24487143D01*
X20598095Y23582381D02*
X20502857Y23582381D01*
X20407619Y23630000D01*
X20360000Y23677620D01*
X20312380Y23772858D01*
X20264761Y23963334D01*
X20264761Y24201429D01*
X20312380Y24391905D01*
X20360000Y24487143D01*
X20407619Y24534762D01*
X20502857Y24582381D01*
X20598095Y24582381D01*
X20693333Y24534762D01*
X20740952Y24487143D01*
X20788571Y24391905D01*
X20836190Y24201429D01*
X20836190Y23963334D01*
X20788571Y23772858D01*
X20740952Y23677620D01*
X20693333Y23630000D01*
X20598095Y23582381D01*
X25502857Y47712381D02*
X24836190Y47712381D01*
X25264761Y48712381D01*
X24026666Y48045715D02*
X24026666Y48712381D01*
X24264761Y47664762D02*
X24502857Y48379048D01*
X23883809Y48379048D01*
X23026666Y48712381D02*
X23502857Y48712381D01*
X23502857Y47712381D01*
X22740952Y48664762D02*
X22598095Y48712381D01*
X22360000Y48712381D01*
X22264761Y48664762D01*
X22217142Y48617143D01*
X22169523Y48521905D01*
X22169523Y48426667D01*
X22217142Y48331429D01*
X22264761Y48283810D01*
X22360000Y48236191D01*
X22550476Y48188572D01*
X22645714Y48140953D01*
X22693333Y48093334D01*
X22740952Y47998096D01*
X22740952Y47902858D01*
X22693333Y47807620D01*
X22645714Y47760000D01*
X22550476Y47712381D01*
X22312380Y47712381D01*
X22169523Y47760000D01*
X21550476Y47712381D02*
X21455238Y47712381D01*
X21360000Y47760000D01*
X21312380Y47807620D01*
X21264761Y47902858D01*
X21217142Y48093334D01*
X21217142Y48331429D01*
X21264761Y48521905D01*
X21312380Y48617143D01*
X21360000Y48664762D01*
X21455238Y48712381D01*
X21550476Y48712381D01*
X21645714Y48664762D01*
X21693333Y48617143D01*
X21740952Y48521905D01*
X21788571Y48331429D01*
X21788571Y48093334D01*
X21740952Y47902858D01*
X21693333Y47807620D01*
X21645714Y47760000D01*
X21550476Y47712381D01*
X20360000Y48045715D02*
X20360000Y48712381D01*
X20598095Y47664762D02*
X20836190Y48379048D01*
X20217142Y48379048D01*
X25502857Y71842381D02*
X24836190Y71842381D01*
X25264761Y72842381D01*
X24026666Y72175715D02*
X24026666Y72842381D01*
X24264761Y71794762D02*
X24502857Y72509048D01*
X23883809Y72509048D01*
X23026666Y72842381D02*
X23502857Y72842381D01*
X23502857Y71842381D01*
X22740952Y72794762D02*
X22598095Y72842381D01*
X22360000Y72842381D01*
X22264761Y72794762D01*
X22217142Y72747143D01*
X22169523Y72651905D01*
X22169523Y72556667D01*
X22217142Y72461429D01*
X22264761Y72413810D01*
X22360000Y72366191D01*
X22550476Y72318572D01*
X22645714Y72270953D01*
X22693333Y72223334D01*
X22740952Y72128096D01*
X22740952Y72032858D01*
X22693333Y71937620D01*
X22645714Y71890000D01*
X22550476Y71842381D01*
X22312380Y71842381D01*
X22169523Y71890000D01*
X21836190Y71842381D02*
X21217142Y71842381D01*
X21550476Y72223334D01*
X21407619Y72223334D01*
X21312380Y72270953D01*
X21264761Y72318572D01*
X21217142Y72413810D01*
X21217142Y72651905D01*
X21264761Y72747143D01*
X21312380Y72794762D01*
X21407619Y72842381D01*
X21693333Y72842381D01*
X21788571Y72794762D01*
X21836190Y72747143D01*
X20598095Y71842381D02*
X20502857Y71842381D01*
X20407619Y71890000D01*
X20360000Y71937620D01*
X20312380Y72032858D01*
X20264761Y72223334D01*
X20264761Y72461429D01*
X20312380Y72651905D01*
X20360000Y72747143D01*
X20407619Y72794762D01*
X20502857Y72842381D01*
X20598095Y72842381D01*
X20693333Y72794762D01*
X20740952Y72747143D01*
X20788571Y72651905D01*
X20836190Y72461429D01*
X20836190Y72223334D01*
X20788571Y72032858D01*
X20740952Y71937620D01*
X20693333Y71890000D01*
X20598095Y71842381D01*
X45822857Y95972381D02*
X45156190Y95972381D01*
X45584761Y96972381D01*
X44346666Y96305715D02*
X44346666Y96972381D01*
X44584761Y95924762D02*
X44822857Y96639048D01*
X44203809Y96639048D01*
X43346666Y96972381D02*
X43822857Y96972381D01*
X43822857Y95972381D01*
X43060952Y96924762D02*
X42918095Y96972381D01*
X42680000Y96972381D01*
X42584761Y96924762D01*
X42537142Y96877143D01*
X42489523Y96781905D01*
X42489523Y96686667D01*
X42537142Y96591429D01*
X42584761Y96543810D01*
X42680000Y96496191D01*
X42870476Y96448572D01*
X42965714Y96400953D01*
X43013333Y96353334D01*
X43060952Y96258096D01*
X43060952Y96162858D01*
X43013333Y96067620D01*
X42965714Y96020000D01*
X42870476Y95972381D01*
X42632380Y95972381D01*
X42489523Y96020000D01*
X41870476Y95972381D02*
X41775238Y95972381D01*
X41680000Y96020000D01*
X41632380Y96067620D01*
X41584761Y96162858D01*
X41537142Y96353334D01*
X41537142Y96591429D01*
X41584761Y96781905D01*
X41632380Y96877143D01*
X41680000Y96924762D01*
X41775238Y96972381D01*
X41870476Y96972381D01*
X41965714Y96924762D01*
X42013333Y96877143D01*
X42060952Y96781905D01*
X42108571Y96591429D01*
X42108571Y96353334D01*
X42060952Y96162858D01*
X42013333Y96067620D01*
X41965714Y96020000D01*
X41870476Y95972381D01*
X40680000Y96305715D02*
X40680000Y96972381D01*
X40918095Y95924762D02*
X41156190Y96639048D01*
X40537142Y96639048D01*
X31852857Y95972381D02*
X31186190Y95972381D01*
X31614761Y96972381D01*
X30376666Y96305715D02*
X30376666Y96972381D01*
X30614761Y95924762D02*
X30852857Y96639048D01*
X30233809Y96639048D01*
X29376666Y96972381D02*
X29852857Y96972381D01*
X29852857Y95972381D01*
X29090952Y96924762D02*
X28948095Y96972381D01*
X28710000Y96972381D01*
X28614761Y96924762D01*
X28567142Y96877143D01*
X28519523Y96781905D01*
X28519523Y96686667D01*
X28567142Y96591429D01*
X28614761Y96543810D01*
X28710000Y96496191D01*
X28900476Y96448572D01*
X28995714Y96400953D01*
X29043333Y96353334D01*
X29090952Y96258096D01*
X29090952Y96162858D01*
X29043333Y96067620D01*
X28995714Y96020000D01*
X28900476Y95972381D01*
X28662380Y95972381D01*
X28519523Y96020000D01*
X27900476Y95972381D02*
X27805238Y95972381D01*
X27710000Y96020000D01*
X27662380Y96067620D01*
X27614761Y96162858D01*
X27567142Y96353334D01*
X27567142Y96591429D01*
X27614761Y96781905D01*
X27662380Y96877143D01*
X27710000Y96924762D01*
X27805238Y96972381D01*
X27900476Y96972381D01*
X27995714Y96924762D01*
X28043333Y96877143D01*
X28090952Y96781905D01*
X28138571Y96591429D01*
X28138571Y96353334D01*
X28090952Y96162858D01*
X28043333Y96067620D01*
X27995714Y96020000D01*
X27900476Y95972381D01*
X26710000Y96305715D02*
X26710000Y96972381D01*
X26948095Y95924762D02*
X27186190Y96639048D01*
X26567142Y96639048D01*
X17882857Y95972381D02*
X17216190Y95972381D01*
X17644761Y96972381D01*
X16406666Y96305715D02*
X16406666Y96972381D01*
X16644761Y95924762D02*
X16882857Y96639048D01*
X16263809Y96639048D01*
X15406666Y96972381D02*
X15882857Y96972381D01*
X15882857Y95972381D01*
X15120952Y96924762D02*
X14978095Y96972381D01*
X14740000Y96972381D01*
X14644761Y96924762D01*
X14597142Y96877143D01*
X14549523Y96781905D01*
X14549523Y96686667D01*
X14597142Y96591429D01*
X14644761Y96543810D01*
X14740000Y96496191D01*
X14930476Y96448572D01*
X15025714Y96400953D01*
X15073333Y96353334D01*
X15120952Y96258096D01*
X15120952Y96162858D01*
X15073333Y96067620D01*
X15025714Y96020000D01*
X14930476Y95972381D01*
X14692380Y95972381D01*
X14549523Y96020000D01*
X14216190Y95972381D02*
X13597142Y95972381D01*
X13930476Y96353334D01*
X13787619Y96353334D01*
X13692380Y96400953D01*
X13644761Y96448572D01*
X13597142Y96543810D01*
X13597142Y96781905D01*
X13644761Y96877143D01*
X13692380Y96924762D01*
X13787619Y96972381D01*
X14073333Y96972381D01*
X14168571Y96924762D01*
X14216190Y96877143D01*
X12978095Y95972381D02*
X12882857Y95972381D01*
X12787619Y96020000D01*
X12740000Y96067620D01*
X12692380Y96162858D01*
X12644761Y96353334D01*
X12644761Y96591429D01*
X12692380Y96781905D01*
X12740000Y96877143D01*
X12787619Y96924762D01*
X12882857Y96972381D01*
X12978095Y96972381D01*
X13073333Y96924762D01*
X13120952Y96877143D01*
X13168571Y96781905D01*
X13216190Y96591429D01*
X13216190Y96353334D01*
X13168571Y96162858D01*
X13120952Y96067620D01*
X13073333Y96020000D01*
X12978095Y95972381D01*
X54062380Y82177143D02*
X54062380Y82272381D01*
X54110000Y82367620D01*
X54157619Y82415239D01*
X54252857Y82462858D01*
X54443333Y82510477D01*
X54681428Y82510477D01*
X54871904Y82462858D01*
X54967142Y82415239D01*
X55014761Y82367620D01*
X55062380Y82272381D01*
X55062380Y82177143D01*
X55014761Y82081905D01*
X54967142Y82034286D01*
X54871904Y81986667D01*
X54681428Y81939048D01*
X54443333Y81939048D01*
X54252857Y81986667D01*
X54157619Y82034286D01*
X54110000Y82081905D01*
X54062380Y82177143D01*
X54967142Y82939048D02*
X55014761Y82986667D01*
X55062380Y82939048D01*
X55014761Y82891429D01*
X54967142Y82939048D01*
X55062380Y82939048D01*
X55062380Y83939048D02*
X55062380Y83367620D01*
X55062380Y83653334D02*
X54062380Y83653334D01*
X54205238Y83558096D01*
X54300476Y83462858D01*
X54348095Y83367620D01*
X54395714Y84796191D02*
X55062380Y84796191D01*
X54395714Y84367620D02*
X54919523Y84367620D01*
X55014761Y84415239D01*
X55062380Y84510477D01*
X55062380Y84653334D01*
X55014761Y84748572D01*
X54967142Y84796191D01*
X54538571Y85605715D02*
X54538571Y85272381D01*
X55062380Y85272381D02*
X54062380Y85272381D01*
X54062380Y85748572D01*
X49902857Y57872381D02*
X49807619Y57872381D01*
X49712380Y57920000D01*
X49664761Y57967620D01*
X49617142Y58062858D01*
X49569523Y58253334D01*
X49569523Y58491429D01*
X49617142Y58681905D01*
X49664761Y58777143D01*
X49712380Y58824762D01*
X49807619Y58872381D01*
X49902857Y58872381D01*
X49998095Y58824762D01*
X50045714Y58777143D01*
X50093333Y58681905D01*
X50140952Y58491429D01*
X50140952Y58253334D01*
X50093333Y58062858D01*
X50045714Y57967620D01*
X49998095Y57920000D01*
X49902857Y57872381D01*
X49140952Y58777143D02*
X49093333Y58824762D01*
X49140952Y58872381D01*
X49188571Y58824762D01*
X49140952Y58777143D01*
X49140952Y58872381D01*
X48140952Y58872381D02*
X48712380Y58872381D01*
X48426666Y58872381D02*
X48426666Y57872381D01*
X48521904Y58015239D01*
X48617142Y58110477D01*
X48712380Y58158096D01*
X47283809Y58205715D02*
X47283809Y58872381D01*
X47712380Y58205715D02*
X47712380Y58729524D01*
X47664761Y58824762D01*
X47569523Y58872381D01*
X47426666Y58872381D01*
X47331428Y58824762D01*
X47283809Y58777143D01*
X46474285Y58348572D02*
X46807619Y58348572D01*
X46807619Y58872381D02*
X46807619Y57872381D01*
X46331428Y57872381D01*
X51172857Y74382381D02*
X51077619Y74382381D01*
X50982380Y74430000D01*
X50934761Y74477620D01*
X50887142Y74572858D01*
X50839523Y74763334D01*
X50839523Y75001429D01*
X50887142Y75191905D01*
X50934761Y75287143D01*
X50982380Y75334762D01*
X51077619Y75382381D01*
X51172857Y75382381D01*
X51268095Y75334762D01*
X51315714Y75287143D01*
X51363333Y75191905D01*
X51410952Y75001429D01*
X51410952Y74763334D01*
X51363333Y74572858D01*
X51315714Y74477620D01*
X51268095Y74430000D01*
X51172857Y74382381D01*
X50410952Y75287143D02*
X50363333Y75334762D01*
X50410952Y75382381D01*
X50458571Y75334762D01*
X50410952Y75287143D01*
X50410952Y75382381D01*
X49410952Y75382381D02*
X49982380Y75382381D01*
X49696666Y75382381D02*
X49696666Y74382381D01*
X49791904Y74525239D01*
X49887142Y74620477D01*
X49982380Y74668096D01*
X48553809Y74715715D02*
X48553809Y75382381D01*
X48982380Y74715715D02*
X48982380Y75239524D01*
X48934761Y75334762D01*
X48839523Y75382381D01*
X48696666Y75382381D01*
X48601428Y75334762D01*
X48553809Y75287143D01*
X47744285Y74858572D02*
X48077619Y74858572D01*
X48077619Y75382381D02*
X48077619Y74382381D01*
X47601428Y74382381D01*
X37202857Y74382381D02*
X37107619Y74382381D01*
X37012380Y74430000D01*
X36964761Y74477620D01*
X36917142Y74572858D01*
X36869523Y74763334D01*
X36869523Y75001429D01*
X36917142Y75191905D01*
X36964761Y75287143D01*
X37012380Y75334762D01*
X37107619Y75382381D01*
X37202857Y75382381D01*
X37298095Y75334762D01*
X37345714Y75287143D01*
X37393333Y75191905D01*
X37440952Y75001429D01*
X37440952Y74763334D01*
X37393333Y74572858D01*
X37345714Y74477620D01*
X37298095Y74430000D01*
X37202857Y74382381D01*
X36440952Y75287143D02*
X36393333Y75334762D01*
X36440952Y75382381D01*
X36488571Y75334762D01*
X36440952Y75287143D01*
X36440952Y75382381D01*
X35440952Y75382381D02*
X36012380Y75382381D01*
X35726666Y75382381D02*
X35726666Y74382381D01*
X35821904Y74525239D01*
X35917142Y74620477D01*
X36012380Y74668096D01*
X34583809Y74715715D02*
X34583809Y75382381D01*
X35012380Y74715715D02*
X35012380Y75239524D01*
X34964761Y75334762D01*
X34869523Y75382381D01*
X34726666Y75382381D01*
X34631428Y75334762D01*
X34583809Y75287143D01*
X33774285Y74858572D02*
X34107619Y74858572D01*
X34107619Y75382381D02*
X34107619Y74382381D01*
X33631428Y74382381D01*
X23232857Y74382381D02*
X23137619Y74382381D01*
X23042380Y74430000D01*
X22994761Y74477620D01*
X22947142Y74572858D01*
X22899523Y74763334D01*
X22899523Y75001429D01*
X22947142Y75191905D01*
X22994761Y75287143D01*
X23042380Y75334762D01*
X23137619Y75382381D01*
X23232857Y75382381D01*
X23328095Y75334762D01*
X23375714Y75287143D01*
X23423333Y75191905D01*
X23470952Y75001429D01*
X23470952Y74763334D01*
X23423333Y74572858D01*
X23375714Y74477620D01*
X23328095Y74430000D01*
X23232857Y74382381D01*
X22470952Y75287143D02*
X22423333Y75334762D01*
X22470952Y75382381D01*
X22518571Y75334762D01*
X22470952Y75287143D01*
X22470952Y75382381D01*
X21470952Y75382381D02*
X22042380Y75382381D01*
X21756666Y75382381D02*
X21756666Y74382381D01*
X21851904Y74525239D01*
X21947142Y74620477D01*
X22042380Y74668096D01*
X20613809Y74715715D02*
X20613809Y75382381D01*
X21042380Y74715715D02*
X21042380Y75239524D01*
X20994761Y75334762D01*
X20899523Y75382381D01*
X20756666Y75382381D01*
X20661428Y75334762D01*
X20613809Y75287143D01*
X19804285Y74858572D02*
X20137619Y74858572D01*
X20137619Y75382381D02*
X20137619Y74382381D01*
X19661428Y74382381D01*
X30852857Y26122381D02*
X30757619Y26122381D01*
X30662380Y26170000D01*
X30614761Y26217620D01*
X30567142Y26312858D01*
X30519523Y26503334D01*
X30519523Y26741429D01*
X30567142Y26931905D01*
X30614761Y27027143D01*
X30662380Y27074762D01*
X30757619Y27122381D01*
X30852857Y27122381D01*
X30948095Y27074762D01*
X30995714Y27027143D01*
X31043333Y26931905D01*
X31090952Y26741429D01*
X31090952Y26503334D01*
X31043333Y26312858D01*
X30995714Y26217620D01*
X30948095Y26170000D01*
X30852857Y26122381D01*
X30090952Y27027143D02*
X30043333Y27074762D01*
X30090952Y27122381D01*
X30138571Y27074762D01*
X30090952Y27027143D01*
X30090952Y27122381D01*
X29090952Y27122381D02*
X29662380Y27122381D01*
X29376666Y27122381D02*
X29376666Y26122381D01*
X29471904Y26265239D01*
X29567142Y26360477D01*
X29662380Y26408096D01*
X28233809Y26455715D02*
X28233809Y27122381D01*
X28662380Y26455715D02*
X28662380Y26979524D01*
X28614761Y27074762D01*
X28519523Y27122381D01*
X28376666Y27122381D01*
X28281428Y27074762D01*
X28233809Y27027143D01*
X27424285Y26598572D02*
X27757619Y26598572D01*
X27757619Y27122381D02*
X27757619Y26122381D01*
X27281428Y26122381D01*
X30852857Y1992381D02*
X30757619Y1992381D01*
X30662380Y2040000D01*
X30614761Y2087620D01*
X30567142Y2182858D01*
X30519523Y2373334D01*
X30519523Y2611429D01*
X30567142Y2801905D01*
X30614761Y2897143D01*
X30662380Y2944762D01*
X30757619Y2992381D01*
X30852857Y2992381D01*
X30948095Y2944762D01*
X30995714Y2897143D01*
X31043333Y2801905D01*
X31090952Y2611429D01*
X31090952Y2373334D01*
X31043333Y2182858D01*
X30995714Y2087620D01*
X30948095Y2040000D01*
X30852857Y1992381D01*
X30090952Y2897143D02*
X30043333Y2944762D01*
X30090952Y2992381D01*
X30138571Y2944762D01*
X30090952Y2897143D01*
X30090952Y2992381D01*
X29090952Y2992381D02*
X29662380Y2992381D01*
X29376666Y2992381D02*
X29376666Y1992381D01*
X29471904Y2135239D01*
X29567142Y2230477D01*
X29662380Y2278096D01*
X28233809Y2325715D02*
X28233809Y2992381D01*
X28662380Y2325715D02*
X28662380Y2849524D01*
X28614761Y2944762D01*
X28519523Y2992381D01*
X28376666Y2992381D01*
X28281428Y2944762D01*
X28233809Y2897143D01*
X27424285Y2468572D02*
X27757619Y2468572D01*
X27757619Y2992381D02*
X27757619Y1992381D01*
X27281428Y1992381D01*
X30852857Y50252381D02*
X30757619Y50252381D01*
X30662380Y50300000D01*
X30614761Y50347620D01*
X30567142Y50442858D01*
X30519523Y50633334D01*
X30519523Y50871429D01*
X30567142Y51061905D01*
X30614761Y51157143D01*
X30662380Y51204762D01*
X30757619Y51252381D01*
X30852857Y51252381D01*
X30948095Y51204762D01*
X30995714Y51157143D01*
X31043333Y51061905D01*
X31090952Y50871429D01*
X31090952Y50633334D01*
X31043333Y50442858D01*
X30995714Y50347620D01*
X30948095Y50300000D01*
X30852857Y50252381D01*
X30090952Y51157143D02*
X30043333Y51204762D01*
X30090952Y51252381D01*
X30138571Y51204762D01*
X30090952Y51157143D01*
X30090952Y51252381D01*
X29090952Y51252381D02*
X29662380Y51252381D01*
X29376666Y51252381D02*
X29376666Y50252381D01*
X29471904Y50395239D01*
X29567142Y50490477D01*
X29662380Y50538096D01*
X28233809Y50585715D02*
X28233809Y51252381D01*
X28662380Y50585715D02*
X28662380Y51109524D01*
X28614761Y51204762D01*
X28519523Y51252381D01*
X28376666Y51252381D01*
X28281428Y51204762D01*
X28233809Y51157143D01*
X27424285Y50728572D02*
X27757619Y50728572D01*
X27757619Y51252381D02*
X27757619Y50252381D01*
X27281428Y50252381D01*
X93047619Y71787620D02*
X93000000Y71835239D01*
X92952380Y71930477D01*
X92952380Y72168572D01*
X93000000Y72263810D01*
X93047619Y72311429D01*
X93142857Y72359048D01*
X93238095Y72359048D01*
X93380952Y72311429D01*
X93952380Y71740000D01*
X93952380Y72359048D01*
X92952380Y72692381D02*
X92952380Y73359048D01*
X93952380Y72930477D01*
X92952380Y74216191D02*
X92952380Y73740000D01*
X93428571Y73692381D01*
X93380952Y73740000D01*
X93333333Y73835239D01*
X93333333Y74073334D01*
X93380952Y74168572D01*
X93428571Y74216191D01*
X93523809Y74263810D01*
X93761904Y74263810D01*
X93857142Y74216191D01*
X93904761Y74168572D01*
X93952380Y74073334D01*
X93952380Y73835239D01*
X93904761Y73740000D01*
X93857142Y73692381D01*
X93952380Y75216191D02*
X93952380Y74644762D01*
X93952380Y74930477D02*
X92952380Y74930477D01*
X93095238Y74835239D01*
X93190476Y74740000D01*
X93238095Y74644762D01*
X93047619Y75597143D02*
X93000000Y75644762D01*
X92952380Y75740000D01*
X92952380Y75978096D01*
X93000000Y76073334D01*
X93047619Y76120953D01*
X93142857Y76168572D01*
X93238095Y76168572D01*
X93380952Y76120953D01*
X93952380Y75549524D01*
X93952380Y76168572D01*
X93904761Y76644762D02*
X93952380Y76644762D01*
X94047619Y76597143D01*
X94095238Y76549524D01*
X93047619Y77025715D02*
X93000000Y77073334D01*
X92952380Y77168572D01*
X92952380Y77406667D01*
X93000000Y77501905D01*
X93047619Y77549524D01*
X93142857Y77597143D01*
X93238095Y77597143D01*
X93380952Y77549524D01*
X93952380Y76978096D01*
X93952380Y77597143D01*
X92952380Y77930477D02*
X92952380Y78597143D01*
X93952380Y78168572D01*
X93047619Y78930477D02*
X93000000Y78978096D01*
X92952380Y79073334D01*
X92952380Y79311429D01*
X93000000Y79406667D01*
X93047619Y79454286D01*
X93142857Y79501905D01*
X93238095Y79501905D01*
X93380952Y79454286D01*
X93952380Y78882858D01*
X93952380Y79501905D01*
X92952380Y80406667D02*
X92952380Y79930477D01*
X93428571Y79882858D01*
X93380952Y79930477D01*
X93333333Y80025715D01*
X93333333Y80263810D01*
X93380952Y80359048D01*
X93428571Y80406667D01*
X93523809Y80454286D01*
X93761904Y80454286D01*
X93857142Y80406667D01*
X93904761Y80359048D01*
X93952380Y80263810D01*
X93952380Y80025715D01*
X93904761Y79930477D01*
X93857142Y79882858D01*
X92952380Y81311429D02*
X92952380Y81120953D01*
X93000000Y81025715D01*
X93047619Y80978096D01*
X93190476Y80882858D01*
X93380952Y80835239D01*
X93761904Y80835239D01*
X93857142Y80882858D01*
X93904761Y80930477D01*
X93952380Y81025715D01*
X93952380Y81216191D01*
X93904761Y81311429D01*
X93857142Y81359048D01*
X93761904Y81406667D01*
X93523809Y81406667D01*
X93428571Y81359048D01*
X93380952Y81311429D01*
X93333333Y81216191D01*
X93333333Y81025715D01*
X93380952Y80930477D01*
X93428571Y80882858D01*
X93523809Y80835239D01*
X93904761Y81882858D02*
X93952380Y81882858D01*
X94047619Y81835239D01*
X94095238Y81787620D01*
X93047619Y82263810D02*
X93000000Y82311429D01*
X92952380Y82406667D01*
X92952380Y82644762D01*
X93000000Y82740000D01*
X93047619Y82787620D01*
X93142857Y82835239D01*
X93238095Y82835239D01*
X93380952Y82787620D01*
X93952380Y82216191D01*
X93952380Y82835239D01*
X92952380Y83168572D02*
X92952380Y83835239D01*
X93952380Y83406667D01*
X92952380Y84644762D02*
X92952380Y84454286D01*
X93000000Y84359048D01*
X93047619Y84311429D01*
X93190476Y84216191D01*
X93380952Y84168572D01*
X93761904Y84168572D01*
X93857142Y84216191D01*
X93904761Y84263810D01*
X93952380Y84359048D01*
X93952380Y84549524D01*
X93904761Y84644762D01*
X93857142Y84692381D01*
X93761904Y84740000D01*
X93523809Y84740000D01*
X93428571Y84692381D01*
X93380952Y84644762D01*
X93333333Y84549524D01*
X93333333Y84359048D01*
X93380952Y84263810D01*
X93428571Y84216191D01*
X93523809Y84168572D01*
X93285714Y85597143D02*
X93952380Y85597143D01*
X92904761Y85359048D02*
X93619047Y85120953D01*
X93619047Y85740000D01*
X95416666Y15098096D02*
X95416666Y15574286D01*
X95702380Y15002858D02*
X94702380Y15336191D01*
X95702380Y15669524D01*
X95702380Y16002858D02*
X95035714Y16002858D01*
X95226190Y16002858D02*
X95130952Y16050477D01*
X95083333Y16098096D01*
X95035714Y16193334D01*
X95035714Y16288572D01*
X95702380Y17050477D02*
X94702380Y17050477D01*
X95654761Y17050477D02*
X95702380Y16955239D01*
X95702380Y16764762D01*
X95654761Y16669524D01*
X95607142Y16621905D01*
X95511904Y16574286D01*
X95226190Y16574286D01*
X95130952Y16621905D01*
X95083333Y16669524D01*
X95035714Y16764762D01*
X95035714Y16955239D01*
X95083333Y17050477D01*
X95035714Y17955239D02*
X95702380Y17955239D01*
X95035714Y17526667D02*
X95559523Y17526667D01*
X95654761Y17574286D01*
X95702380Y17669524D01*
X95702380Y17812381D01*
X95654761Y17907620D01*
X95607142Y17955239D01*
X95702380Y18431429D02*
X95035714Y18431429D01*
X94702380Y18431429D02*
X94750000Y18383810D01*
X94797619Y18431429D01*
X94750000Y18479048D01*
X94702380Y18431429D01*
X94797619Y18431429D01*
X95035714Y18907620D02*
X95702380Y18907620D01*
X95130952Y18907620D02*
X95083333Y18955239D01*
X95035714Y19050477D01*
X95035714Y19193334D01*
X95083333Y19288572D01*
X95178571Y19336191D01*
X95702380Y19336191D01*
X95702380Y19955239D02*
X95654761Y19860000D01*
X95607142Y19812381D01*
X95511904Y19764762D01*
X95226190Y19764762D01*
X95130952Y19812381D01*
X95083333Y19860000D01*
X95035714Y19955239D01*
X95035714Y20098096D01*
X95083333Y20193334D01*
X95130952Y20240953D01*
X95226190Y20288572D01*
X95511904Y20288572D01*
X95607142Y20240953D01*
X95654761Y20193334D01*
X95702380Y20098096D01*
X95702380Y19955239D01*
X95702380Y21479048D02*
X95035714Y21479048D01*
X95130952Y21479048D02*
X95083333Y21526667D01*
X95035714Y21621905D01*
X95035714Y21764762D01*
X95083333Y21860000D01*
X95178571Y21907620D01*
X95702380Y21907620D01*
X95178571Y21907620D02*
X95083333Y21955239D01*
X95035714Y22050477D01*
X95035714Y22193334D01*
X95083333Y22288572D01*
X95178571Y22336191D01*
X95702380Y22336191D01*
X95702380Y22812381D02*
X95035714Y22812381D01*
X94702380Y22812381D02*
X94750000Y22764762D01*
X94797619Y22812381D01*
X94750000Y22860000D01*
X94702380Y22812381D01*
X94797619Y22812381D01*
X95035714Y23288572D02*
X95702380Y23288572D01*
X95130952Y23288572D02*
X95083333Y23336191D01*
X95035714Y23431429D01*
X95035714Y23574286D01*
X95083333Y23669524D01*
X95178571Y23717143D01*
X95702380Y23717143D01*
X95702380Y24193334D02*
X95035714Y24193334D01*
X94702380Y24193334D02*
X94750000Y24145715D01*
X94797619Y24193334D01*
X94750000Y24240953D01*
X94702380Y24193334D01*
X94797619Y24193334D01*
X95702380Y25431429D02*
X94702380Y25431429D01*
X94702380Y25812381D01*
X94750000Y25907620D01*
X94797619Y25955239D01*
X94892857Y26002858D01*
X95035714Y26002858D01*
X95130952Y25955239D01*
X95178571Y25907620D01*
X95226190Y25812381D01*
X95226190Y25431429D01*
X95702380Y27002858D02*
X95226190Y26669524D01*
X95702380Y26431429D02*
X94702380Y26431429D01*
X94702380Y26812381D01*
X94750000Y26907620D01*
X94797619Y26955239D01*
X94892857Y27002858D01*
X95035714Y27002858D01*
X95130952Y26955239D01*
X95178571Y26907620D01*
X95226190Y26812381D01*
X95226190Y26431429D01*
X94702380Y27621905D02*
X94702380Y27812381D01*
X94750000Y27907620D01*
X94845238Y28002858D01*
X95035714Y28050477D01*
X95369047Y28050477D01*
X95559523Y28002858D01*
X95654761Y27907620D01*
X95702380Y27812381D01*
X95702380Y27621905D01*
X95654761Y27526667D01*
X95559523Y27431429D01*
X95369047Y27383810D01*
X95035714Y27383810D01*
X94845238Y27431429D01*
X94750000Y27526667D01*
X94702380Y27621905D01*
X94702380Y29717143D02*
X94702380Y29240953D01*
X95178571Y29193334D01*
X95130952Y29240953D01*
X95083333Y29336191D01*
X95083333Y29574286D01*
X95130952Y29669524D01*
X95178571Y29717143D01*
X95273809Y29764762D01*
X95511904Y29764762D01*
X95607142Y29717143D01*
X95654761Y29669524D01*
X95702380Y29574286D01*
X95702380Y29336191D01*
X95654761Y29240953D01*
X95607142Y29193334D01*
X94702380Y30050477D02*
X95702380Y30383810D01*
X94702380Y30717143D01*
D11*
X95424761Y62914286D02*
X96853333Y62914286D01*
X97139047Y62819048D01*
X97329523Y62628572D01*
X97424761Y62342858D01*
X97424761Y62152381D01*
X97424761Y65009524D02*
X96472380Y64342858D01*
X97424761Y63866667D02*
X95424761Y63866667D01*
X95424761Y64628572D01*
X95520000Y64819048D01*
X95615238Y64914286D01*
X95805714Y65009524D01*
X96091428Y65009524D01*
X96281904Y64914286D01*
X96377142Y64819048D01*
X96472380Y64628572D01*
X96472380Y63866667D01*
X96662857Y65866667D02*
X96662857Y67390477D01*
X95615238Y68247620D02*
X95520000Y68342858D01*
X95424761Y68533334D01*
X95424761Y69009524D01*
X95520000Y69200000D01*
X95615238Y69295239D01*
X95805714Y69390477D01*
X95996190Y69390477D01*
X96281904Y69295239D01*
X97424761Y68152381D01*
X97424761Y69390477D01*
X95424761Y70628572D02*
X95424761Y70819048D01*
X95520000Y71009524D01*
X95615238Y71104762D01*
X95805714Y71200000D01*
X96186666Y71295239D01*
X96662857Y71295239D01*
X97043809Y71200000D01*
X97234285Y71104762D01*
X97329523Y71009524D01*
X97424761Y70819048D01*
X97424761Y70628572D01*
X97329523Y70438096D01*
X97234285Y70342858D01*
X97043809Y70247620D01*
X96662857Y70152381D01*
X96186666Y70152381D01*
X95805714Y70247620D01*
X95615238Y70342858D01*
X95520000Y70438096D01*
X95424761Y70628572D01*
X95424761Y72533334D02*
X95424761Y72723810D01*
X95520000Y72914286D01*
X95615238Y73009524D01*
X95805714Y73104762D01*
X96186666Y73200000D01*
X96662857Y73200000D01*
X97043809Y73104762D01*
X97234285Y73009524D01*
X97329523Y72914286D01*
X97424761Y72723810D01*
X97424761Y72533334D01*
X97329523Y72342858D01*
X97234285Y72247620D01*
X97043809Y72152381D01*
X96662857Y72057143D01*
X96186666Y72057143D01*
X95805714Y72152381D01*
X95615238Y72247620D01*
X95520000Y72342858D01*
X95424761Y72533334D01*
X97615238Y73580953D02*
X97615238Y75104762D01*
X97329523Y75485715D02*
X97424761Y75771429D01*
X97424761Y76247620D01*
X97329523Y76438096D01*
X97234285Y76533334D01*
X97043809Y76628572D01*
X96853333Y76628572D01*
X96662857Y76533334D01*
X96567619Y76438096D01*
X96472380Y76247620D01*
X96377142Y75866667D01*
X96281904Y75676191D01*
X96186666Y75580953D01*
X95996190Y75485715D01*
X95805714Y75485715D01*
X95615238Y75580953D01*
X95520000Y75676191D01*
X95424761Y75866667D01*
X95424761Y76342858D01*
X95520000Y76628572D01*
X97424761Y77485715D02*
X95424761Y77485715D01*
X95424761Y77961905D01*
X95520000Y78247620D01*
X95710476Y78438096D01*
X95900952Y78533334D01*
X96281904Y78628572D01*
X96567619Y78628572D01*
X96948571Y78533334D01*
X97139047Y78438096D01*
X97329523Y78247620D01*
X97424761Y77961905D01*
X97424761Y77485715D01*
X97424761Y82152381D02*
X96472380Y81485715D01*
X97424761Y81009524D02*
X95424761Y81009524D01*
X95424761Y81771429D01*
X95520000Y81961905D01*
X95615238Y82057143D01*
X95805714Y82152381D01*
X96091428Y82152381D01*
X96281904Y82057143D01*
X96377142Y81961905D01*
X96472380Y81771429D01*
X96472380Y81009524D01*
X97329523Y83771429D02*
X97424761Y83580953D01*
X97424761Y83200000D01*
X97329523Y83009524D01*
X97139047Y82914286D01*
X96377142Y82914286D01*
X96186666Y83009524D01*
X96091428Y83200000D01*
X96091428Y83580953D01*
X96186666Y83771429D01*
X96377142Y83866667D01*
X96567619Y83866667D01*
X96758095Y82914286D01*
X96091428Y84533334D02*
X97424761Y85009524D01*
X96091428Y85485715D01*
X95615238Y86152381D02*
X95520000Y86247620D01*
X95424761Y86438096D01*
X95424761Y86914286D01*
X95520000Y87104762D01*
X95615238Y87200000D01*
X95805714Y87295239D01*
X95996190Y87295239D01*
X96281904Y87200000D01*
X97424761Y86057143D01*
X97424761Y87295239D01*
X97234285Y88152381D02*
X97329523Y88247620D01*
X97424761Y88152381D01*
X97329523Y88057143D01*
X97234285Y88152381D01*
X97424761Y88152381D01*
X97424761Y90152381D02*
X97424761Y89009524D01*
X97424761Y89580953D02*
X95424761Y89580953D01*
X95710476Y89390477D01*
X95900952Y89200000D01*
X95996190Y89009524D01*
D10*
X-39767143Y-452380D02*
X-39814762Y-500000D01*
X-39910000Y-547619D01*
X-40148096Y-547619D01*
X-40243334Y-500000D01*
X-40290953Y-452380D01*
X-40338572Y-357142D01*
X-40338572Y-261904D01*
X-40290953Y-119047D01*
X-39719524Y452381D01*
X-40338572Y452381D01*
X-40719524Y-452380D02*
X-40767143Y-500000D01*
X-40862381Y-547619D01*
X-41100477Y-547619D01*
X-41195715Y-500000D01*
X-41243334Y-452380D01*
X-41290953Y-357142D01*
X-41290953Y-261904D01*
X-41243334Y-119047D01*
X-40671905Y452381D01*
X-41290953Y452381D01*
X-41576667Y-547619D02*
X-41910000Y452381D01*
X-42243334Y-547619D01*
X-43100477Y452381D02*
X-42529048Y452381D01*
X-42814762Y452381D02*
X-42814762Y-547619D01*
X-42719524Y-404761D01*
X-42624286Y-309523D01*
X-42529048Y-261904D01*
X-43719524Y-547619D02*
X-43814762Y-547619D01*
X-43910000Y-500000D01*
X-43957620Y-452380D01*
X-44005239Y-357142D01*
X-44052858Y-166666D01*
X-44052858Y71429D01*
X-44005239Y261905D01*
X-43957620Y357143D01*
X-43910000Y404762D01*
X-43814762Y452381D01*
X-43719524Y452381D01*
X-43624286Y404762D01*
X-43576667Y357143D01*
X-43529048Y261905D01*
X-43481429Y71429D01*
X-43481429Y-166666D01*
X-43529048Y-357142D01*
X-43576667Y-452380D01*
X-43624286Y-500000D01*
X-43719524Y-547619D01*
X-51697143Y-547619D02*
X-51792381Y-547619D01*
X-51887620Y-500000D01*
X-51935239Y-452380D01*
X-51982858Y-357142D01*
X-52030477Y-166666D01*
X-52030477Y71429D01*
X-51982858Y261905D01*
X-51935239Y357143D01*
X-51887620Y404762D01*
X-51792381Y452381D01*
X-51697143Y452381D01*
X-51601905Y404762D01*
X-51554286Y357143D01*
X-51506667Y261905D01*
X-51459048Y71429D01*
X-51459048Y-166666D01*
X-51506667Y-357142D01*
X-51554286Y-452380D01*
X-51601905Y-500000D01*
X-51697143Y-547619D01*
X-52459048Y357143D02*
X-52506667Y404762D01*
X-52459048Y452381D01*
X-52411429Y404762D01*
X-52459048Y357143D01*
X-52459048Y452381D01*
X-53459048Y452381D02*
X-52887620Y452381D01*
X-53173334Y452381D02*
X-53173334Y-547619D01*
X-53078096Y-404761D01*
X-52982858Y-309523D01*
X-52887620Y-261904D01*
X-54316191Y-214285D02*
X-54316191Y452381D01*
X-53887620Y-214285D02*
X-53887620Y309524D01*
X-53935239Y404762D01*
X-54030477Y452381D01*
X-54173334Y452381D01*
X-54268572Y404762D01*
X-54316191Y357143D01*
X-55125715Y-71428D02*
X-54792381Y-71428D01*
X-54792381Y452381D02*
X-54792381Y-547619D01*
X-55268572Y-547619D01*
D12*
X45320000Y57050000D02*
X41080000Y57050000D01*
X45320000Y59790000D02*
X41080000Y59790000D01*
X45320000Y57050000D02*
X45320000Y57755000D01*
X45320000Y59085000D02*
X45320000Y59790000D01*
X41080000Y57050000D02*
X41080000Y57755000D01*
X41080000Y59085000D02*
X41080000Y59790000D01*
X55275000Y80840000D02*
X55980000Y80840000D01*
X53240000Y80840000D02*
X53945000Y80840000D01*
X55275000Y76600000D02*
X55980000Y76600000D01*
X53240000Y76600000D02*
X53945000Y76600000D01*
X55980000Y76600000D02*
X55980000Y80840000D01*
X53240000Y76600000D02*
X53240000Y80840000D01*
X68520000Y36770000D02*
X71180000Y36770000D01*
X68520000Y57150000D02*
X68520000Y36770000D01*
X71180000Y57150000D02*
X71180000Y36770000D01*
X68520000Y57150000D02*
X71180000Y57150000D01*
X68520000Y58420000D02*
X68520000Y59750000D01*
X68520000Y59750000D02*
X69850000Y59750000D01*
X68150000Y36400000D02*
X99950000Y36400000D01*
X99950000Y36400000D02*
X99950000Y60100000D01*
X99950000Y60100000D02*
X68150000Y60100000D01*
X68150000Y60100000D02*
X68150000Y36400000D01*
X88900000Y26670000D02*
X91440000Y26670000D01*
X91440000Y26670000D02*
X91440000Y29337000D01*
X88900000Y29337000D02*
X60833000Y29337000D01*
X94107000Y29337000D02*
X91440000Y29337000D01*
X91440000Y13970000D02*
X91440000Y11300000D01*
X91440000Y13970000D02*
X60833000Y13970000D01*
X60833000Y29337000D02*
X60833000Y11300000D01*
X88900000Y26670000D02*
X88900000Y29337000D01*
X88900000Y26670000D02*
X60833000Y26670000D01*
X60833000Y11303000D02*
X94107000Y11303000D01*
X94107000Y11303000D02*
X94107000Y29337000D01*
X59630000Y52705000D02*
X62290000Y52705000D01*
X59630000Y52705000D02*
X59630000Y39945000D01*
X59630000Y39945000D02*
X62290000Y39945000D01*
X62290000Y52705000D02*
X62290000Y39945000D01*
X62290000Y55305000D02*
X62290000Y53975000D01*
X60960000Y55305000D02*
X62290000Y55305000D01*
X7620000Y16510000D02*
X6350000Y16510000D01*
X7620000Y17780000D02*
X7620000Y16510000D01*
X5307071Y79120000D02*
X4852929Y79120000D01*
X5307071Y78360000D02*
X4852929Y78360000D01*
X2767071Y79120000D02*
X2370000Y79120000D01*
X2767071Y78360000D02*
X2370000Y78360000D01*
X-6290000Y79120000D02*
X-290000Y79120000D01*
X-6290000Y78360000D02*
X-6290000Y79120000D01*
X-290000Y78360000D02*
X-6290000Y78360000D01*
X2370000Y77470000D02*
X-290000Y77470000D01*
X5307071Y76580000D02*
X4852929Y76580000D01*
X5307071Y75820000D02*
X4852929Y75820000D01*
X2767071Y76580000D02*
X2370000Y76580000D01*
X2767071Y75820000D02*
X2370000Y75820000D01*
X-6290000Y76580000D02*
X-290000Y76580000D01*
X-6290000Y75820000D02*
X-6290000Y76580000D01*
X-290000Y75820000D02*
X-6290000Y75820000D01*
X2370000Y74930000D02*
X-290000Y74930000D01*
X5307071Y74040000D02*
X4852929Y74040000D01*
X5307071Y73280000D02*
X4852929Y73280000D01*
X2767071Y74040000D02*
X2370000Y74040000D01*
X2767071Y73280000D02*
X2370000Y73280000D01*
X-6290000Y74040000D02*
X-290000Y74040000D01*
X-6290000Y73280000D02*
X-6290000Y74040000D01*
X-290000Y73280000D02*
X-6290000Y73280000D01*
X2370000Y72390000D02*
X-290000Y72390000D01*
X5307071Y71500000D02*
X4852929Y71500000D01*
X5307071Y70740000D02*
X4852929Y70740000D01*
X2767071Y71500000D02*
X2370000Y71500000D01*
X2767071Y70740000D02*
X2370000Y70740000D01*
X-6290000Y71500000D02*
X-290000Y71500000D01*
X-6290000Y70740000D02*
X-6290000Y71500000D01*
X-290000Y70740000D02*
X-6290000Y70740000D01*
X2370000Y69850000D02*
X-290000Y69850000D01*
X5307071Y68960000D02*
X4852929Y68960000D01*
X5307071Y68200000D02*
X4852929Y68200000D01*
X2767071Y68960000D02*
X2370000Y68960000D01*
X2767071Y68200000D02*
X2370000Y68200000D01*
X-6290000Y68960000D02*
X-290000Y68960000D01*
X-6290000Y68200000D02*
X-6290000Y68960000D01*
X-290000Y68200000D02*
X-6290000Y68200000D01*
X2370000Y67310000D02*
X-290000Y67310000D01*
X5307071Y66420000D02*
X4852929Y66420000D01*
X5307071Y65660000D02*
X4852929Y65660000D01*
X2767071Y66420000D02*
X2370000Y66420000D01*
X2767071Y65660000D02*
X2370000Y65660000D01*
X-6290000Y66420000D02*
X-290000Y66420000D01*
X-6290000Y65660000D02*
X-6290000Y66420000D01*
X-290000Y65660000D02*
X-6290000Y65660000D01*
X2370000Y64770000D02*
X-290000Y64770000D01*
X5307071Y63880000D02*
X4852929Y63880000D01*
X5307071Y63120000D02*
X4852929Y63120000D01*
X2767071Y63880000D02*
X2370000Y63880000D01*
X2767071Y63120000D02*
X2370000Y63120000D01*
X-6290000Y63880000D02*
X-290000Y63880000D01*
X-6290000Y63120000D02*
X-6290000Y63880000D01*
X-290000Y63120000D02*
X-6290000Y63120000D01*
X2370000Y62230000D02*
X-290000Y62230000D01*
X5307071Y61340000D02*
X4852929Y61340000D01*
X5307071Y60580000D02*
X4852929Y60580000D01*
X2767071Y61340000D02*
X2370000Y61340000D01*
X2767071Y60580000D02*
X2370000Y60580000D01*
X-6290000Y61340000D02*
X-290000Y61340000D01*
X-6290000Y60580000D02*
X-6290000Y61340000D01*
X-290000Y60580000D02*
X-6290000Y60580000D01*
X2370000Y59690000D02*
X-290000Y59690000D01*
X5307071Y58800000D02*
X4852929Y58800000D01*
X5307071Y58040000D02*
X4852929Y58040000D01*
X2767071Y58800000D02*
X2370000Y58800000D01*
X2767071Y58040000D02*
X2370000Y58040000D01*
X-6290000Y58800000D02*
X-290000Y58800000D01*
X-6290000Y58040000D02*
X-6290000Y58800000D01*
X-290000Y58040000D02*
X-6290000Y58040000D01*
X2370000Y57150000D02*
X-290000Y57150000D01*
X5307071Y56260000D02*
X4852929Y56260000D01*
X5307071Y55500000D02*
X4852929Y55500000D01*
X2767071Y56260000D02*
X2370000Y56260000D01*
X2767071Y55500000D02*
X2370000Y55500000D01*
X-6290000Y56260000D02*
X-290000Y56260000D01*
X-6290000Y55500000D02*
X-6290000Y56260000D01*
X-290000Y55500000D02*
X-6290000Y55500000D01*
X2370000Y54610000D02*
X-290000Y54610000D01*
X5307071Y53720000D02*
X4852929Y53720000D01*
X5307071Y52960000D02*
X4852929Y52960000D01*
X2767071Y53720000D02*
X2370000Y53720000D01*
X2767071Y52960000D02*
X2370000Y52960000D01*
X-6290000Y53720000D02*
X-290000Y53720000D01*
X-6290000Y52960000D02*
X-6290000Y53720000D01*
X-290000Y52960000D02*
X-6290000Y52960000D01*
X2370000Y52070000D02*
X-290000Y52070000D01*
X5307071Y51180000D02*
X4852929Y51180000D01*
X5307071Y50420000D02*
X4852929Y50420000D01*
X2767071Y51180000D02*
X2370000Y51180000D01*
X2767071Y50420000D02*
X2370000Y50420000D01*
X-6290000Y51180000D02*
X-290000Y51180000D01*
X-6290000Y50420000D02*
X-6290000Y51180000D01*
X-290000Y50420000D02*
X-6290000Y50420000D01*
X2370000Y49530000D02*
X-290000Y49530000D01*
X5307071Y48640000D02*
X4852929Y48640000D01*
X5307071Y47880000D02*
X4852929Y47880000D01*
X2767071Y48640000D02*
X2370000Y48640000D01*
X2767071Y47880000D02*
X2370000Y47880000D01*
X-6290000Y48640000D02*
X-290000Y48640000D01*
X-6290000Y47880000D02*
X-6290000Y48640000D01*
X-290000Y47880000D02*
X-6290000Y47880000D01*
X2370000Y46990000D02*
X-290000Y46990000D01*
X5307071Y46100000D02*
X4852929Y46100000D01*
X5307071Y45340000D02*
X4852929Y45340000D01*
X2767071Y46100000D02*
X2370000Y46100000D01*
X2767071Y45340000D02*
X2370000Y45340000D01*
X-6290000Y46100000D02*
X-290000Y46100000D01*
X-6290000Y45340000D02*
X-6290000Y46100000D01*
X-290000Y45340000D02*
X-6290000Y45340000D01*
X2370000Y44450000D02*
X-290000Y44450000D01*
X5307071Y43560000D02*
X4852929Y43560000D01*
X5307071Y42800000D02*
X4852929Y42800000D01*
X2767071Y43560000D02*
X2370000Y43560000D01*
X2767071Y42800000D02*
X2370000Y42800000D01*
X-6290000Y43560000D02*
X-290000Y43560000D01*
X-6290000Y42800000D02*
X-6290000Y43560000D01*
X-290000Y42800000D02*
X-6290000Y42800000D01*
X2370000Y41910000D02*
X-290000Y41910000D01*
X5307071Y41020000D02*
X4852929Y41020000D01*
X5307071Y40260000D02*
X4852929Y40260000D01*
X2767071Y41020000D02*
X2370000Y41020000D01*
X2767071Y40260000D02*
X2370000Y40260000D01*
X-6290000Y41020000D02*
X-290000Y41020000D01*
X-6290000Y40260000D02*
X-6290000Y41020000D01*
X-290000Y40260000D02*
X-6290000Y40260000D01*
X2370000Y39370000D02*
X-290000Y39370000D01*
X5307071Y38480000D02*
X4852929Y38480000D01*
X5307071Y37720000D02*
X4852929Y37720000D01*
X2767071Y38480000D02*
X2370000Y38480000D01*
X2767071Y37720000D02*
X2370000Y37720000D01*
X-6290000Y38480000D02*
X-290000Y38480000D01*
X-6290000Y37720000D02*
X-6290000Y38480000D01*
X-290000Y37720000D02*
X-6290000Y37720000D01*
X2370000Y36830000D02*
X-290000Y36830000D01*
X5307071Y35940000D02*
X4852929Y35940000D01*
X5307071Y35180000D02*
X4852929Y35180000D01*
X2767071Y35940000D02*
X2370000Y35940000D01*
X2767071Y35180000D02*
X2370000Y35180000D01*
X-6290000Y35940000D02*
X-290000Y35940000D01*
X-6290000Y35180000D02*
X-6290000Y35940000D01*
X-290000Y35180000D02*
X-6290000Y35180000D01*
X2370000Y34290000D02*
X-290000Y34290000D01*
X5307071Y33400000D02*
X4852929Y33400000D01*
X5307071Y32640000D02*
X4852929Y32640000D01*
X2767071Y33400000D02*
X2370000Y33400000D01*
X2767071Y32640000D02*
X2370000Y32640000D01*
X-6290000Y33400000D02*
X-290000Y33400000D01*
X-6290000Y32640000D02*
X-6290000Y33400000D01*
X-290000Y32640000D02*
X-6290000Y32640000D01*
X2370000Y31750000D02*
X-290000Y31750000D01*
X5307071Y30860000D02*
X4852929Y30860000D01*
X5307071Y30100000D02*
X4852929Y30100000D01*
X2767071Y30860000D02*
X2370000Y30860000D01*
X2767071Y30100000D02*
X2370000Y30100000D01*
X-6290000Y30860000D02*
X-290000Y30860000D01*
X-6290000Y30100000D02*
X-6290000Y30860000D01*
X-290000Y30100000D02*
X-6290000Y30100000D01*
X2370000Y29210000D02*
X-290000Y29210000D01*
X5307071Y28320000D02*
X4852929Y28320000D01*
X5307071Y27560000D02*
X4852929Y27560000D01*
X2767071Y28320000D02*
X2370000Y28320000D01*
X2767071Y27560000D02*
X2370000Y27560000D01*
X-6290000Y28320000D02*
X-290000Y28320000D01*
X-6290000Y27560000D02*
X-6290000Y28320000D01*
X-290000Y27560000D02*
X-6290000Y27560000D01*
X2370000Y26670000D02*
X-290000Y26670000D01*
X5307071Y25780000D02*
X4852929Y25780000D01*
X5307071Y25020000D02*
X4852929Y25020000D01*
X2767071Y25780000D02*
X2370000Y25780000D01*
X2767071Y25020000D02*
X2370000Y25020000D01*
X-6290000Y25780000D02*
X-290000Y25780000D01*
X-6290000Y25020000D02*
X-6290000Y25780000D01*
X-290000Y25020000D02*
X-6290000Y25020000D01*
X2370000Y24130000D02*
X-290000Y24130000D01*
X5307071Y23240000D02*
X4852929Y23240000D01*
X5307071Y22480000D02*
X4852929Y22480000D01*
X2767071Y23240000D02*
X2370000Y23240000D01*
X2767071Y22480000D02*
X2370000Y22480000D01*
X-6290000Y23240000D02*
X-290000Y23240000D01*
X-6290000Y22480000D02*
X-6290000Y23240000D01*
X-290000Y22480000D02*
X-6290000Y22480000D01*
X2370000Y21590000D02*
X-290000Y21590000D01*
X5307071Y20700000D02*
X4852929Y20700000D01*
X5307071Y19940000D02*
X4852929Y19940000D01*
X2767071Y20700000D02*
X2370000Y20700000D01*
X2767071Y19940000D02*
X2370000Y19940000D01*
X-6290000Y20700000D02*
X-290000Y20700000D01*
X-6290000Y19940000D02*
X-6290000Y20700000D01*
X-290000Y19940000D02*
X-6290000Y19940000D01*
X2370000Y19050000D02*
X-290000Y19050000D01*
X5240000Y18160000D02*
X4852929Y18160000D01*
X5240000Y17400000D02*
X4852929Y17400000D01*
X2767071Y18160000D02*
X2370000Y18160000D01*
X2767071Y17400000D02*
X2370000Y17400000D01*
X-290000Y18060000D02*
X-6290000Y18060000D01*
X-290000Y17940000D02*
X-6290000Y17940000D01*
X-290000Y17820000D02*
X-6290000Y17820000D01*
X-290000Y17700000D02*
X-6290000Y17700000D01*
X-290000Y17580000D02*
X-6290000Y17580000D01*
X-290000Y17460000D02*
X-6290000Y17460000D01*
X-6290000Y18160000D02*
X-290000Y18160000D01*
X-6290000Y17400000D02*
X-6290000Y18160000D01*
X-290000Y17400000D02*
X-6290000Y17400000D01*
X-290000Y16450000D02*
X2370000Y16450000D01*
X-290000Y80070000D02*
X-290000Y16450000D01*
X2370000Y80070000D02*
X-290000Y80070000D01*
X2370000Y16450000D02*
X2370000Y80070000D01*
X16570000Y63500000D02*
G75*
G03*
X16570000Y63500000I-2620000J0D01*
G01*
X13950000Y66080000D02*
X13950000Y60920000D01*
X13990000Y66080000D02*
X13990000Y60920000D01*
X14030000Y66079000D02*
X14030000Y60921000D01*
X14070000Y66078000D02*
X14070000Y60922000D01*
X14110000Y66076000D02*
X14110000Y60924000D01*
X14150000Y66073000D02*
X14150000Y60927000D01*
X14190000Y66069000D02*
X14190000Y64540000D01*
X14190000Y62460000D02*
X14190000Y60931000D01*
X14230000Y66065000D02*
X14230000Y64540000D01*
X14230000Y62460000D02*
X14230000Y60935000D01*
X14270000Y66061000D02*
X14270000Y64540000D01*
X14270000Y62460000D02*
X14270000Y60939000D01*
X14310000Y66056000D02*
X14310000Y64540000D01*
X14310000Y62460000D02*
X14310000Y60944000D01*
X14350000Y66050000D02*
X14350000Y64540000D01*
X14350000Y62460000D02*
X14350000Y60950000D01*
X14390000Y66043000D02*
X14390000Y64540000D01*
X14390000Y62460000D02*
X14390000Y60957000D01*
X14430000Y66036000D02*
X14430000Y64540000D01*
X14430000Y62460000D02*
X14430000Y60964000D01*
X14470000Y66028000D02*
X14470000Y64540000D01*
X14470000Y62460000D02*
X14470000Y60972000D01*
X14510000Y66020000D02*
X14510000Y64540000D01*
X14510000Y62460000D02*
X14510000Y60980000D01*
X14550000Y66011000D02*
X14550000Y64540000D01*
X14550000Y62460000D02*
X14550000Y60989000D01*
X14590000Y66001000D02*
X14590000Y64540000D01*
X14590000Y62460000D02*
X14590000Y60999000D01*
X14630000Y65991000D02*
X14630000Y64540000D01*
X14630000Y62460000D02*
X14630000Y61009000D01*
X14671000Y65980000D02*
X14671000Y64540000D01*
X14671000Y62460000D02*
X14671000Y61020000D01*
X14711000Y65968000D02*
X14711000Y64540000D01*
X14711000Y62460000D02*
X14711000Y61032000D01*
X14751000Y65955000D02*
X14751000Y64540000D01*
X14751000Y62460000D02*
X14751000Y61045000D01*
X14791000Y65942000D02*
X14791000Y64540000D01*
X14791000Y62460000D02*
X14791000Y61058000D01*
X14831000Y65928000D02*
X14831000Y64540000D01*
X14831000Y62460000D02*
X14831000Y61072000D01*
X14871000Y65914000D02*
X14871000Y64540000D01*
X14871000Y62460000D02*
X14871000Y61086000D01*
X14911000Y65898000D02*
X14911000Y64540000D01*
X14911000Y62460000D02*
X14911000Y61102000D01*
X14951000Y65882000D02*
X14951000Y64540000D01*
X14951000Y62460000D02*
X14951000Y61118000D01*
X14991000Y65865000D02*
X14991000Y64540000D01*
X14991000Y62460000D02*
X14991000Y61135000D01*
X15031000Y65848000D02*
X15031000Y64540000D01*
X15031000Y62460000D02*
X15031000Y61152000D01*
X15071000Y65829000D02*
X15071000Y64540000D01*
X15071000Y62460000D02*
X15071000Y61171000D01*
X15111000Y65810000D02*
X15111000Y64540000D01*
X15111000Y62460000D02*
X15111000Y61190000D01*
X15151000Y65790000D02*
X15151000Y64540000D01*
X15151000Y62460000D02*
X15151000Y61210000D01*
X15191000Y65768000D02*
X15191000Y64540000D01*
X15191000Y62460000D02*
X15191000Y61232000D01*
X15231000Y65747000D02*
X15231000Y64540000D01*
X15231000Y62460000D02*
X15231000Y61253000D01*
X15271000Y65724000D02*
X15271000Y64540000D01*
X15271000Y62460000D02*
X15271000Y61276000D01*
X15311000Y65700000D02*
X15311000Y64540000D01*
X15311000Y62460000D02*
X15311000Y61300000D01*
X15351000Y65675000D02*
X15351000Y64540000D01*
X15351000Y62460000D02*
X15351000Y61325000D01*
X15391000Y65649000D02*
X15391000Y64540000D01*
X15391000Y62460000D02*
X15391000Y61351000D01*
X15431000Y65622000D02*
X15431000Y64540000D01*
X15431000Y62460000D02*
X15431000Y61378000D01*
X15471000Y65595000D02*
X15471000Y64540000D01*
X15471000Y62460000D02*
X15471000Y61405000D01*
X15511000Y65565000D02*
X15511000Y64540000D01*
X15511000Y62460000D02*
X15511000Y61435000D01*
X15551000Y65535000D02*
X15551000Y64540000D01*
X15551000Y62460000D02*
X15551000Y61465000D01*
X15591000Y65504000D02*
X15591000Y64540000D01*
X15591000Y62460000D02*
X15591000Y61496000D01*
X15631000Y65471000D02*
X15631000Y64540000D01*
X15631000Y62460000D02*
X15631000Y61529000D01*
X15671000Y65437000D02*
X15671000Y64540000D01*
X15671000Y62460000D02*
X15671000Y61563000D01*
X15711000Y65401000D02*
X15711000Y64540000D01*
X15711000Y62460000D02*
X15711000Y61599000D01*
X15751000Y65364000D02*
X15751000Y64540000D01*
X15751000Y62460000D02*
X15751000Y61636000D01*
X15791000Y65326000D02*
X15791000Y64540000D01*
X15791000Y62460000D02*
X15791000Y61674000D01*
X15831000Y65285000D02*
X15831000Y64540000D01*
X15831000Y62460000D02*
X15831000Y61715000D01*
X15871000Y65243000D02*
X15871000Y64540000D01*
X15871000Y62460000D02*
X15871000Y61757000D01*
X15911000Y65199000D02*
X15911000Y64540000D01*
X15911000Y62460000D02*
X15911000Y61801000D01*
X15951000Y65153000D02*
X15951000Y64540000D01*
X15951000Y62460000D02*
X15951000Y61847000D01*
X15991000Y65105000D02*
X15991000Y64540000D01*
X15991000Y62460000D02*
X15991000Y61895000D01*
X16031000Y65054000D02*
X16031000Y64540000D01*
X16031000Y62460000D02*
X16031000Y61946000D01*
X16071000Y65000000D02*
X16071000Y64540000D01*
X16071000Y62460000D02*
X16071000Y62000000D01*
X16111000Y64943000D02*
X16111000Y64540000D01*
X16111000Y62460000D02*
X16111000Y62057000D01*
X16151000Y64883000D02*
X16151000Y64540000D01*
X16151000Y62460000D02*
X16151000Y62117000D01*
X16191000Y64819000D02*
X16191000Y64540000D01*
X16191000Y62460000D02*
X16191000Y62181000D01*
X16231000Y64751000D02*
X16231000Y64540000D01*
X16231000Y62460000D02*
X16231000Y62249000D01*
X16271000Y64678000D02*
X16271000Y62322000D01*
X16311000Y64598000D02*
X16311000Y62402000D01*
X16351000Y64511000D02*
X16351000Y62489000D01*
X16391000Y64415000D02*
X16391000Y62585000D01*
X16431000Y64305000D02*
X16431000Y62695000D01*
X16471000Y64177000D02*
X16471000Y62823000D01*
X16511000Y64018000D02*
X16511000Y62982000D01*
X16551000Y63784000D02*
X16551000Y63216000D01*
X11145225Y64975000D02*
X11645225Y64975000D01*
X11395225Y65225000D02*
X11395225Y64725000D01*
X21880000Y29150000D02*
X23130000Y29150000D01*
X21880000Y47050000D02*
X21880000Y29150000D01*
X26380000Y47050000D02*
X21880000Y47050000D01*
X26380000Y29150000D02*
X26380000Y47050000D01*
X25130000Y29150000D02*
X26380000Y29150000D01*
X23130000Y29150000D02*
G75*
G02*
X25130000Y29150000I1000000J0D01*
G01*
X25130000Y53280000D02*
X26380000Y53280000D01*
X26380000Y53280000D02*
X26380000Y71180000D01*
X26380000Y71180000D02*
X21880000Y71180000D01*
X21880000Y71180000D02*
X21880000Y53280000D01*
X21880000Y53280000D02*
X23130000Y53280000D01*
X23130000Y53280000D02*
G75*
G02*
X25130000Y53280000I1000000J0D01*
G01*
X31480000Y77410000D02*
X32730000Y77410000D01*
X32730000Y77410000D02*
X32730000Y95310000D01*
X32730000Y95310000D02*
X28230000Y95310000D01*
X28230000Y95310000D02*
X28230000Y77410000D01*
X28230000Y77410000D02*
X29480000Y77410000D01*
X29480000Y77410000D02*
G75*
G02*
X31480000Y77410000I1000000J0D01*
G01*
X21880000Y5020000D02*
X23130000Y5020000D01*
X21880000Y22920000D02*
X21880000Y5020000D01*
X26380000Y22920000D02*
X21880000Y22920000D01*
X26380000Y5020000D02*
X26380000Y22920000D01*
X25130000Y5020000D02*
X26380000Y5020000D01*
X23130000Y5020000D02*
G75*
G02*
X25130000Y5020000I1000000J0D01*
G01*
X14260000Y77410000D02*
X15510000Y77410000D01*
X14260000Y95310000D02*
X14260000Y77410000D01*
X18760000Y95310000D02*
X14260000Y95310000D01*
X18760000Y77410000D02*
X18760000Y95310000D01*
X17510000Y77410000D02*
X18760000Y77410000D01*
X15510000Y77410000D02*
G75*
G02*
X17510000Y77410000I1000000J0D01*
G01*
X21990000Y52170000D02*
X26230000Y52170000D01*
X21990000Y49430000D02*
X26230000Y49430000D01*
X21990000Y52170000D02*
X21990000Y51465000D01*
X21990000Y50135000D02*
X21990000Y49430000D01*
X26230000Y52170000D02*
X26230000Y51465000D01*
X26230000Y50135000D02*
X26230000Y49430000D01*
X21990000Y3910000D02*
X26230000Y3910000D01*
X21990000Y1170000D02*
X26230000Y1170000D01*
X21990000Y3910000D02*
X21990000Y3205000D01*
X21990000Y1875000D02*
X21990000Y1170000D01*
X26230000Y3910000D02*
X26230000Y3205000D01*
X26230000Y1875000D02*
X26230000Y1170000D01*
X14370000Y76300000D02*
X18610000Y76300000D01*
X14370000Y73560000D02*
X18610000Y73560000D01*
X14370000Y76300000D02*
X14370000Y75595000D01*
X14370000Y74265000D02*
X14370000Y73560000D01*
X18610000Y76300000D02*
X18610000Y75595000D01*
X18610000Y74265000D02*
X18610000Y73560000D01*
X26270000Y26005000D02*
X26270000Y25300000D01*
X26270000Y28040000D02*
X26270000Y27335000D01*
X22030000Y26005000D02*
X22030000Y25300000D01*
X22030000Y28040000D02*
X22030000Y27335000D01*
X22030000Y25300000D02*
X26270000Y25300000D01*
X22030000Y28040000D02*
X26270000Y28040000D01*
X28340000Y76300000D02*
X32580000Y76300000D01*
X28340000Y73560000D02*
X32580000Y73560000D01*
X28340000Y76300000D02*
X28340000Y75595000D01*
X28340000Y74265000D02*
X28340000Y73560000D01*
X32580000Y76300000D02*
X32580000Y75595000D01*
X32580000Y74265000D02*
X32580000Y73560000D01*
X46550000Y74265000D02*
X46550000Y73560000D01*
X46550000Y76300000D02*
X46550000Y75595000D01*
X42310000Y74265000D02*
X42310000Y73560000D01*
X42310000Y76300000D02*
X42310000Y75595000D01*
X42310000Y73560000D02*
X46550000Y73560000D01*
X42310000Y76300000D02*
X46550000Y76300000D01*
X57785000Y92015000D02*
X57785000Y94675000D01*
X57785000Y92015000D02*
X62925000Y92015000D01*
X62925000Y92015000D02*
X62925000Y94675000D01*
X57785000Y94675000D02*
X62925000Y94675000D01*
X55185000Y94675000D02*
X56515000Y94675000D01*
X55185000Y93345000D02*
X55185000Y94675000D01*
X80585000Y93345000D02*
X80585000Y94675000D01*
X80585000Y94675000D02*
X81915000Y94675000D01*
X83185000Y94675000D02*
X88325000Y94675000D01*
X88325000Y92015000D02*
X88325000Y94675000D01*
X83185000Y92015000D02*
X88325000Y92015000D01*
X83185000Y92015000D02*
X83185000Y94675000D01*
X57090000Y84800000D02*
X57090000Y79740000D01*
X92770000Y84800000D02*
X57090000Y84800000D01*
X92770000Y72680000D02*
X92770000Y84800000D01*
X57090000Y72680000D02*
X92770000Y72680000D01*
X57090000Y77740000D02*
X57090000Y72680000D01*
X57090000Y79740000D02*
G75*
G02*
X57090000Y77740000I0J-1000000D01*
G01*
X43880000Y5020000D02*
X48940000Y5020000D01*
X48940000Y5020000D02*
X48940000Y55940000D01*
X48940000Y55940000D02*
X36820000Y55940000D01*
X36820000Y55940000D02*
X36820000Y5020000D01*
X36820000Y5020000D02*
X41880000Y5020000D01*
X41880000Y5020000D02*
G75*
G02*
X43880000Y5020000I1000000J0D01*
G01*
X42200000Y77410000D02*
X43450000Y77410000D01*
X42200000Y95310000D02*
X42200000Y77410000D01*
X46700000Y95310000D02*
X42200000Y95310000D01*
X46700000Y77410000D02*
X46700000Y95310000D01*
X45450000Y77410000D02*
X46700000Y77410000D01*
X43450000Y77410000D02*
G75*
G02*
X45450000Y77410000I1000000J0D01*
G01*
D10*
X39536666Y58777143D02*
X39584285Y58824762D01*
X39727142Y58872381D01*
X39822380Y58872381D01*
X39965238Y58824762D01*
X40060476Y58729524D01*
X40108095Y58634286D01*
X40155714Y58443810D01*
X40155714Y58300953D01*
X40108095Y58110477D01*
X40060476Y58015239D01*
X39965238Y57920000D01*
X39822380Y57872381D01*
X39727142Y57872381D01*
X39584285Y57920000D01*
X39536666Y57967620D01*
X38679523Y58205715D02*
X38679523Y58872381D01*
X38917619Y57824762D02*
X39155714Y58539048D01*
X38536666Y58539048D01*
X54967142Y74763334D02*
X55014761Y74715715D01*
X55062380Y74572858D01*
X55062380Y74477620D01*
X55014761Y74334762D01*
X54919523Y74239524D01*
X54824285Y74191905D01*
X54633809Y74144286D01*
X54490952Y74144286D01*
X54300476Y74191905D01*
X54205238Y74239524D01*
X54110000Y74334762D01*
X54062380Y74477620D01*
X54062380Y74572858D01*
X54110000Y74715715D01*
X54157619Y74763334D01*
X54157619Y75144286D02*
X54110000Y75191905D01*
X54062380Y75287143D01*
X54062380Y75525239D01*
X54110000Y75620477D01*
X54157619Y75668096D01*
X54252857Y75715715D01*
X54348095Y75715715D01*
X54490952Y75668096D01*
X55062380Y75096667D01*
X55062380Y75715715D01*
X85812380Y40941667D02*
X86526666Y40941667D01*
X86669523Y40894048D01*
X86764761Y40798810D01*
X86812380Y40655953D01*
X86812380Y40560715D01*
X85907619Y41370239D02*
X85860000Y41417858D01*
X85812380Y41513096D01*
X85812380Y41751191D01*
X85860000Y41846429D01*
X85907619Y41894048D01*
X86002857Y41941667D01*
X86098095Y41941667D01*
X86240952Y41894048D01*
X86812380Y41322620D01*
X86812380Y41941667D01*
X90336666Y40998096D02*
X90336666Y41474286D01*
X90622380Y40902858D02*
X89622380Y41236191D01*
X90622380Y41569524D01*
X90098571Y41902858D02*
X90098571Y42236191D01*
X90622380Y42379048D02*
X90622380Y41902858D01*
X89622380Y41902858D01*
X89622380Y42379048D01*
X90241428Y42807620D02*
X90241428Y43569524D01*
X90622380Y44045715D02*
X89955714Y44045715D01*
X90050952Y44045715D02*
X90003333Y44093334D01*
X89955714Y44188572D01*
X89955714Y44331429D01*
X90003333Y44426667D01*
X90098571Y44474286D01*
X90622380Y44474286D01*
X90098571Y44474286D02*
X90003333Y44521905D01*
X89955714Y44617143D01*
X89955714Y44760000D01*
X90003333Y44855239D01*
X90098571Y44902858D01*
X90622380Y44902858D01*
X90622380Y45379048D02*
X89955714Y45379048D01*
X89622380Y45379048D02*
X89670000Y45331429D01*
X89717619Y45379048D01*
X89670000Y45426667D01*
X89622380Y45379048D01*
X89717619Y45379048D01*
X90574761Y46283810D02*
X90622380Y46188572D01*
X90622380Y45998096D01*
X90574761Y45902858D01*
X90527142Y45855239D01*
X90431904Y45807620D01*
X90146190Y45807620D01*
X90050952Y45855239D01*
X90003333Y45902858D01*
X89955714Y45998096D01*
X89955714Y46188572D01*
X90003333Y46283810D01*
X90622380Y46712381D02*
X89955714Y46712381D01*
X90146190Y46712381D02*
X90050952Y46760000D01*
X90003333Y46807620D01*
X89955714Y46902858D01*
X89955714Y46998096D01*
X90622380Y47474286D02*
X90574761Y47379048D01*
X90527142Y47331429D01*
X90431904Y47283810D01*
X90146190Y47283810D01*
X90050952Y47331429D01*
X90003333Y47379048D01*
X89955714Y47474286D01*
X89955714Y47617143D01*
X90003333Y47712381D01*
X90050952Y47760000D01*
X90146190Y47807620D01*
X90431904Y47807620D01*
X90527142Y47760000D01*
X90574761Y47712381D01*
X90622380Y47617143D01*
X90622380Y47474286D01*
X90574761Y48188572D02*
X90622380Y48331429D01*
X90622380Y48569524D01*
X90574761Y48664762D01*
X90527142Y48712381D01*
X90431904Y48760000D01*
X90336666Y48760000D01*
X90241428Y48712381D01*
X90193809Y48664762D01*
X90146190Y48569524D01*
X90098571Y48379048D01*
X90050952Y48283810D01*
X90003333Y48236191D01*
X89908095Y48188572D01*
X89812857Y48188572D01*
X89717619Y48236191D01*
X89670000Y48283810D01*
X89622380Y48379048D01*
X89622380Y48617143D01*
X89670000Y48760000D01*
X90622380Y49188572D02*
X89622380Y49188572D01*
X89622380Y49426667D01*
X89670000Y49569524D01*
X89765238Y49664762D01*
X89860476Y49712381D01*
X90050952Y49760000D01*
X90193809Y49760000D01*
X90384285Y49712381D01*
X90479523Y49664762D01*
X90574761Y49569524D01*
X90622380Y49426667D01*
X90622380Y49188572D01*
X90241428Y50188572D02*
X90241428Y50950477D01*
X90622380Y51902858D02*
X90622380Y51426667D01*
X89622380Y51426667D01*
X90622380Y52712381D02*
X90622380Y52236191D01*
X89622380Y52236191D01*
X90527142Y53617143D02*
X90574761Y53569524D01*
X90622380Y53426667D01*
X90622380Y53331429D01*
X90574761Y53188572D01*
X90479523Y53093334D01*
X90384285Y53045715D01*
X90193809Y52998096D01*
X90050952Y52998096D01*
X89860476Y53045715D01*
X89765238Y53093334D01*
X89670000Y53188572D01*
X89622380Y53331429D01*
X89622380Y53426667D01*
X89670000Y53569524D01*
X89717619Y53617143D01*
X90622380Y54045715D02*
X89622380Y54045715D01*
X90622380Y54617143D01*
X89622380Y54617143D01*
X89622380Y54950477D02*
X90622380Y55283810D01*
X89622380Y55617143D01*
X94702380Y11938096D02*
X95511904Y11938096D01*
X95607142Y11985715D01*
X95654761Y12033334D01*
X95702380Y12128572D01*
X95702380Y12319048D01*
X95654761Y12414286D01*
X95607142Y12461905D01*
X95511904Y12509524D01*
X94702380Y12509524D01*
X95702380Y13033334D02*
X95702380Y13223810D01*
X95654761Y13319048D01*
X95607142Y13366667D01*
X95464285Y13461905D01*
X95273809Y13509524D01*
X94892857Y13509524D01*
X94797619Y13461905D01*
X94750000Y13414286D01*
X94702380Y13319048D01*
X94702380Y13128572D01*
X94750000Y13033334D01*
X94797619Y12985715D01*
X94892857Y12938096D01*
X95130952Y12938096D01*
X95226190Y12985715D01*
X95273809Y13033334D01*
X95321428Y13128572D01*
X95321428Y13319048D01*
X95273809Y13414286D01*
X95226190Y13461905D01*
X95130952Y13509524D01*
X60412380Y37766667D02*
X61126666Y37766667D01*
X61269523Y37719048D01*
X61364761Y37623810D01*
X61412380Y37480953D01*
X61412380Y37385715D01*
X60412380Y38147620D02*
X60412380Y38766667D01*
X60793333Y38433334D01*
X60793333Y38576191D01*
X60840952Y38671429D01*
X60888571Y38719048D01*
X60983809Y38766667D01*
X61221904Y38766667D01*
X61317142Y38719048D01*
X61364761Y38671429D01*
X61412380Y38576191D01*
X61412380Y38290477D01*
X61364761Y38195239D01*
X61317142Y38147620D01*
X4166666Y15047620D02*
X4166666Y14333334D01*
X4119047Y14190477D01*
X4023809Y14095239D01*
X3880952Y14047620D01*
X3785714Y14047620D01*
X5166666Y14047620D02*
X4595238Y14047620D01*
X4880952Y14047620D02*
X4880952Y15047620D01*
X4785714Y14904762D01*
X4690476Y14809524D01*
X4595238Y14761905D01*
X14116666Y60047143D02*
X14164285Y60094762D01*
X14307142Y60142381D01*
X14402380Y60142381D01*
X14545238Y60094762D01*
X14640476Y59999524D01*
X14688095Y59904286D01*
X14735714Y59713810D01*
X14735714Y59570953D01*
X14688095Y59380477D01*
X14640476Y59285239D01*
X14545238Y59190000D01*
X14402380Y59142381D01*
X14307142Y59142381D01*
X14164285Y59190000D01*
X14116666Y59237620D01*
X13164285Y60142381D02*
X13735714Y60142381D01*
X13450000Y60142381D02*
X13450000Y59142381D01*
X13545238Y59285239D01*
X13640476Y59380477D01*
X13735714Y59428096D01*
X28701904Y47712381D02*
X28701904Y48521905D01*
X28654285Y48617143D01*
X28606666Y48664762D01*
X28511428Y48712381D01*
X28320952Y48712381D01*
X28225714Y48664762D01*
X28178095Y48617143D01*
X28130476Y48521905D01*
X28130476Y47712381D01*
X27130476Y48712381D02*
X27701904Y48712381D01*
X27416190Y48712381D02*
X27416190Y47712381D01*
X27511428Y47855239D01*
X27606666Y47950477D01*
X27701904Y47998096D01*
X28701904Y71842381D02*
X28701904Y72651905D01*
X28654285Y72747143D01*
X28606666Y72794762D01*
X28511428Y72842381D01*
X28320952Y72842381D01*
X28225714Y72794762D01*
X28178095Y72747143D01*
X28130476Y72651905D01*
X28130476Y71842381D01*
X27701904Y71937620D02*
X27654285Y71890000D01*
X27559047Y71842381D01*
X27320952Y71842381D01*
X27225714Y71890000D01*
X27178095Y71937620D01*
X27130476Y72032858D01*
X27130476Y72128096D01*
X27178095Y72270953D01*
X27749523Y72842381D01*
X27130476Y72842381D01*
X35051904Y95972381D02*
X35051904Y96781905D01*
X35004285Y96877143D01*
X34956666Y96924762D01*
X34861428Y96972381D01*
X34670952Y96972381D01*
X34575714Y96924762D01*
X34528095Y96877143D01*
X34480476Y96781905D01*
X34480476Y95972381D01*
X34099523Y95972381D02*
X33480476Y95972381D01*
X33813809Y96353334D01*
X33670952Y96353334D01*
X33575714Y96400953D01*
X33528095Y96448572D01*
X33480476Y96543810D01*
X33480476Y96781905D01*
X33528095Y96877143D01*
X33575714Y96924762D01*
X33670952Y96972381D01*
X33956666Y96972381D01*
X34051904Y96924762D01*
X34099523Y96877143D01*
X28701904Y23582381D02*
X28701904Y24391905D01*
X28654285Y24487143D01*
X28606666Y24534762D01*
X28511428Y24582381D01*
X28320952Y24582381D01*
X28225714Y24534762D01*
X28178095Y24487143D01*
X28130476Y24391905D01*
X28130476Y23582381D01*
X27225714Y23915715D02*
X27225714Y24582381D01*
X27463809Y23534762D02*
X27701904Y24249048D01*
X27082857Y24249048D01*
X21081904Y95972381D02*
X21081904Y96781905D01*
X21034285Y96877143D01*
X20986666Y96924762D01*
X20891428Y96972381D01*
X20700952Y96972381D01*
X20605714Y96924762D01*
X20558095Y96877143D01*
X20510476Y96781905D01*
X20510476Y95972381D01*
X20129523Y95972381D02*
X19462857Y95972381D01*
X19891428Y96972381D01*
X20486666Y51157143D02*
X20534285Y51204762D01*
X20677142Y51252381D01*
X20772380Y51252381D01*
X20915238Y51204762D01*
X21010476Y51109524D01*
X21058095Y51014286D01*
X21105714Y50823810D01*
X21105714Y50680953D01*
X21058095Y50490477D01*
X21010476Y50395239D01*
X20915238Y50300000D01*
X20772380Y50252381D01*
X20677142Y50252381D01*
X20534285Y50300000D01*
X20486666Y50347620D01*
X20153333Y50252381D02*
X19534285Y50252381D01*
X19867619Y50633334D01*
X19724761Y50633334D01*
X19629523Y50680953D01*
X19581904Y50728572D01*
X19534285Y50823810D01*
X19534285Y51061905D01*
X19581904Y51157143D01*
X19629523Y51204762D01*
X19724761Y51252381D01*
X20010476Y51252381D01*
X20105714Y51204762D01*
X20153333Y51157143D01*
X20486666Y2897143D02*
X20534285Y2944762D01*
X20677142Y2992381D01*
X20772380Y2992381D01*
X20915238Y2944762D01*
X21010476Y2849524D01*
X21058095Y2754286D01*
X21105714Y2563810D01*
X21105714Y2420953D01*
X21058095Y2230477D01*
X21010476Y2135239D01*
X20915238Y2040000D01*
X20772380Y1992381D01*
X20677142Y1992381D01*
X20534285Y2040000D01*
X20486666Y2087620D01*
X19581904Y1992381D02*
X20058095Y1992381D01*
X20105714Y2468572D01*
X20058095Y2420953D01*
X19962857Y2373334D01*
X19724761Y2373334D01*
X19629523Y2420953D01*
X19581904Y2468572D01*
X19534285Y2563810D01*
X19534285Y2801905D01*
X19581904Y2897143D01*
X19629523Y2944762D01*
X19724761Y2992381D01*
X19962857Y2992381D01*
X20058095Y2944762D01*
X20105714Y2897143D01*
X12866666Y75287143D02*
X12914285Y75334762D01*
X13057142Y75382381D01*
X13152380Y75382381D01*
X13295238Y75334762D01*
X13390476Y75239524D01*
X13438095Y75144286D01*
X13485714Y74953810D01*
X13485714Y74810953D01*
X13438095Y74620477D01*
X13390476Y74525239D01*
X13295238Y74430000D01*
X13152380Y74382381D01*
X13057142Y74382381D01*
X12914285Y74430000D01*
X12866666Y74477620D01*
X12009523Y74382381D02*
X12200000Y74382381D01*
X12295238Y74430000D01*
X12342857Y74477620D01*
X12438095Y74620477D01*
X12485714Y74810953D01*
X12485714Y75191905D01*
X12438095Y75287143D01*
X12390476Y75334762D01*
X12295238Y75382381D01*
X12104761Y75382381D01*
X12009523Y75334762D01*
X11961904Y75287143D01*
X11914285Y75191905D01*
X11914285Y74953810D01*
X11961904Y74858572D01*
X12009523Y74810953D01*
X12104761Y74763334D01*
X12295238Y74763334D01*
X12390476Y74810953D01*
X12438095Y74858572D01*
X12485714Y74953810D01*
X20486666Y27027143D02*
X20534285Y27074762D01*
X20677142Y27122381D01*
X20772380Y27122381D01*
X20915238Y27074762D01*
X21010476Y26979524D01*
X21058095Y26884286D01*
X21105714Y26693810D01*
X21105714Y26550953D01*
X21058095Y26360477D01*
X21010476Y26265239D01*
X20915238Y26170000D01*
X20772380Y26122381D01*
X20677142Y26122381D01*
X20534285Y26170000D01*
X20486666Y26217620D01*
X20153333Y26122381D02*
X19486666Y26122381D01*
X19915238Y27122381D01*
X26836666Y75287143D02*
X26884285Y75334762D01*
X27027142Y75382381D01*
X27122380Y75382381D01*
X27265238Y75334762D01*
X27360476Y75239524D01*
X27408095Y75144286D01*
X27455714Y74953810D01*
X27455714Y74810953D01*
X27408095Y74620477D01*
X27360476Y74525239D01*
X27265238Y74430000D01*
X27122380Y74382381D01*
X27027142Y74382381D01*
X26884285Y74430000D01*
X26836666Y74477620D01*
X26265238Y74810953D02*
X26360476Y74763334D01*
X26408095Y74715715D01*
X26455714Y74620477D01*
X26455714Y74572858D01*
X26408095Y74477620D01*
X26360476Y74430000D01*
X26265238Y74382381D01*
X26074761Y74382381D01*
X25979523Y74430000D01*
X25931904Y74477620D01*
X25884285Y74572858D01*
X25884285Y74620477D01*
X25931904Y74715715D01*
X25979523Y74763334D01*
X26074761Y74810953D01*
X26265238Y74810953D01*
X26360476Y74858572D01*
X26408095Y74906191D01*
X26455714Y75001429D01*
X26455714Y75191905D01*
X26408095Y75287143D01*
X26360476Y75334762D01*
X26265238Y75382381D01*
X26074761Y75382381D01*
X25979523Y75334762D01*
X25931904Y75287143D01*
X25884285Y75191905D01*
X25884285Y75001429D01*
X25931904Y74906191D01*
X25979523Y74858572D01*
X26074761Y74810953D01*
X40806666Y75287143D02*
X40854285Y75334762D01*
X40997142Y75382381D01*
X41092380Y75382381D01*
X41235238Y75334762D01*
X41330476Y75239524D01*
X41378095Y75144286D01*
X41425714Y74953810D01*
X41425714Y74810953D01*
X41378095Y74620477D01*
X41330476Y74525239D01*
X41235238Y74430000D01*
X41092380Y74382381D01*
X40997142Y74382381D01*
X40854285Y74430000D01*
X40806666Y74477620D01*
X40330476Y75382381D02*
X40140000Y75382381D01*
X40044761Y75334762D01*
X39997142Y75287143D01*
X39901904Y75144286D01*
X39854285Y74953810D01*
X39854285Y74572858D01*
X39901904Y74477620D01*
X39949523Y74430000D01*
X40044761Y74382381D01*
X40235238Y74382381D01*
X40330476Y74430000D01*
X40378095Y74477620D01*
X40425714Y74572858D01*
X40425714Y74810953D01*
X40378095Y74906191D01*
X40330476Y74953810D01*
X40235238Y75001429D01*
X40044761Y75001429D01*
X39949523Y74953810D01*
X39901904Y74906191D01*
X39854285Y74810953D01*
X58293095Y90400239D02*
X58435952Y90352620D01*
X58674047Y90352620D01*
X58769285Y90400239D01*
X58816904Y90447858D01*
X58864523Y90543096D01*
X58864523Y90638334D01*
X58816904Y90733572D01*
X58769285Y90781191D01*
X58674047Y90828810D01*
X58483571Y90876429D01*
X58388333Y90924048D01*
X58340714Y90971667D01*
X58293095Y91066905D01*
X58293095Y91162143D01*
X58340714Y91257381D01*
X58388333Y91305000D01*
X58483571Y91352620D01*
X58721666Y91352620D01*
X58864523Y91305000D01*
X59816904Y90352620D02*
X59245476Y90352620D01*
X59531190Y90352620D02*
X59531190Y91352620D01*
X59435952Y91209762D01*
X59340714Y91114524D01*
X59245476Y91066905D01*
X83693095Y90400239D02*
X83835952Y90352620D01*
X84074047Y90352620D01*
X84169285Y90400239D01*
X84216904Y90447858D01*
X84264523Y90543096D01*
X84264523Y90638334D01*
X84216904Y90733572D01*
X84169285Y90781191D01*
X84074047Y90828810D01*
X83883571Y90876429D01*
X83788333Y90924048D01*
X83740714Y90971667D01*
X83693095Y91066905D01*
X83693095Y91162143D01*
X83740714Y91257381D01*
X83788333Y91305000D01*
X83883571Y91352620D01*
X84121666Y91352620D01*
X84264523Y91305000D01*
X84645476Y91257381D02*
X84693095Y91305000D01*
X84788333Y91352620D01*
X85026428Y91352620D01*
X85121666Y91305000D01*
X85169285Y91257381D01*
X85216904Y91162143D01*
X85216904Y91066905D01*
X85169285Y90924048D01*
X84597857Y90352620D01*
X85216904Y90352620D01*
X55542380Y77978096D02*
X56351904Y77978096D01*
X56447142Y78025715D01*
X56494761Y78073334D01*
X56542380Y78168572D01*
X56542380Y78359048D01*
X56494761Y78454286D01*
X56447142Y78501905D01*
X56351904Y78549524D01*
X55542380Y78549524D01*
X55542380Y79501905D02*
X55542380Y79025715D01*
X56018571Y78978096D01*
X55970952Y79025715D01*
X55923333Y79120953D01*
X55923333Y79359048D01*
X55970952Y79454286D01*
X56018571Y79501905D01*
X56113809Y79549524D01*
X56351904Y79549524D01*
X56447142Y79501905D01*
X56494761Y79454286D01*
X56542380Y79359048D01*
X56542380Y79120953D01*
X56494761Y79025715D01*
X56447142Y78978096D01*
X47751904Y3262381D02*
X47751904Y4071905D01*
X47704285Y4167143D01*
X47656666Y4214762D01*
X47561428Y4262381D01*
X47370952Y4262381D01*
X47275714Y4214762D01*
X47228095Y4167143D01*
X47180476Y4071905D01*
X47180476Y3262381D01*
X46561428Y3690953D02*
X46656666Y3643334D01*
X46704285Y3595715D01*
X46751904Y3500477D01*
X46751904Y3452858D01*
X46704285Y3357620D01*
X46656666Y3310000D01*
X46561428Y3262381D01*
X46370952Y3262381D01*
X46275714Y3310000D01*
X46228095Y3357620D01*
X46180476Y3452858D01*
X46180476Y3500477D01*
X46228095Y3595715D01*
X46275714Y3643334D01*
X46370952Y3690953D01*
X46561428Y3690953D01*
X46656666Y3738572D01*
X46704285Y3786191D01*
X46751904Y3881429D01*
X46751904Y4071905D01*
X46704285Y4167143D01*
X46656666Y4214762D01*
X46561428Y4262381D01*
X46370952Y4262381D01*
X46275714Y4214762D01*
X46228095Y4167143D01*
X46180476Y4071905D01*
X46180476Y3881429D01*
X46228095Y3786191D01*
X46275714Y3738572D01*
X46370952Y3690953D01*
X49021904Y95972381D02*
X49021904Y96781905D01*
X48974285Y96877143D01*
X48926666Y96924762D01*
X48831428Y96972381D01*
X48640952Y96972381D01*
X48545714Y96924762D01*
X48498095Y96877143D01*
X48450476Y96781905D01*
X48450476Y95972381D01*
X47545714Y95972381D02*
X47736190Y95972381D01*
X47831428Y96020000D01*
X47879047Y96067620D01*
X47974285Y96210477D01*
X48021904Y96400953D01*
X48021904Y96781905D01*
X47974285Y96877143D01*
X47926666Y96924762D01*
X47831428Y96972381D01*
X47640952Y96972381D01*
X47545714Y96924762D01*
X47498095Y96877143D01*
X47450476Y96781905D01*
X47450476Y96543810D01*
X47498095Y96448572D01*
X47545714Y96400953D01*
X47640952Y96353334D01*
X47831428Y96353334D01*
X47926666Y96400953D01*
X47974285Y96448572D01*
X48021904Y96543810D01*
M02*
