G04 #@! TF.GenerationSoftware,KiCad,Pcbnew,(5.1.9)-1*
G04 #@! TF.CreationDate,2025-02-11T22:07:12+09:00*
G04 #@! TF.ProjectId,JR-200_SD,4a522d32-3030-45f5-9344-2e6b69636164,rev?*
G04 #@! TF.SameCoordinates,PX53920b0PY93c3260*
G04 #@! TF.FileFunction,Copper,L1,Top*
G04 #@! TF.FilePolarity,Positive*
%FSLAX46Y46*%
G04 Gerber Fmt 4.6, Leading zero omitted, Abs format (unit mm)*
G04 Created by KiCad (PCBNEW (5.1.9)-1) date 2025-02-11 22:07:12*
%MOMM*%
%LPD*%
G01*
G04 APERTURE LIST*
G04 #@! TA.AperFunction,ComponentPad*
%ADD10C,1.600000*%
G04 #@! TD*
G04 #@! TA.AperFunction,ComponentPad*
%ADD11R,1.700000X1.700000*%
G04 #@! TD*
G04 #@! TA.AperFunction,ComponentPad*
%ADD12O,1.700000X1.700000*%
G04 #@! TD*
G04 #@! TA.AperFunction,ComponentPad*
%ADD13R,1.600000X1.600000*%
G04 #@! TD*
G04 #@! TA.AperFunction,ComponentPad*
%ADD14O,1.600000X1.600000*%
G04 #@! TD*
G04 #@! TA.AperFunction,ComponentPad*
%ADD15O,2.400000X1.600000*%
G04 #@! TD*
G04 #@! TA.AperFunction,ComponentPad*
%ADD16R,2.400000X1.600000*%
G04 #@! TD*
G04 #@! TA.AperFunction,ComponentPad*
%ADD17R,1.600000X2.400000*%
G04 #@! TD*
G04 #@! TA.AperFunction,ComponentPad*
%ADD18O,1.600000X2.400000*%
G04 #@! TD*
G04 #@! TA.AperFunction,ViaPad*
%ADD19C,0.500000*%
G04 #@! TD*
G04 #@! TA.AperFunction,Conductor*
%ADD20C,0.400000*%
G04 #@! TD*
G04 #@! TA.AperFunction,Conductor*
%ADD21C,0.200000*%
G04 #@! TD*
G04 #@! TA.AperFunction,Conductor*
%ADD22C,0.254000*%
G04 #@! TD*
G04 #@! TA.AperFunction,Conductor*
%ADD23C,0.100000*%
G04 #@! TD*
G04 APERTURE END LIST*
D10*
X44450000Y58420000D03*
X41950000Y58420000D03*
X54610000Y77470000D03*
X54610000Y79970000D03*
D11*
X69850000Y58420000D03*
D12*
X69850000Y55880000D03*
X69850000Y53340000D03*
X69850000Y50800000D03*
X69850000Y48260000D03*
X69850000Y45720000D03*
X69850000Y43180000D03*
X69850000Y40640000D03*
X69850000Y38100000D03*
X97790000Y38100000D03*
X95250000Y38100000D03*
X97790000Y58420000D03*
X95250000Y58420000D03*
D13*
X90170000Y27940000D03*
D14*
X87630000Y27940000D03*
X85090000Y27940000D03*
X62230000Y12700000D03*
X82550000Y27940000D03*
X64770000Y12700000D03*
X80010000Y27940000D03*
X67310000Y12700000D03*
X77470000Y27940000D03*
X69850000Y12700000D03*
X74930000Y27940000D03*
X72390000Y12700000D03*
X72390000Y27940000D03*
X74930000Y12700000D03*
X69850000Y27940000D03*
X77470000Y12700000D03*
X67310000Y27940000D03*
X80010000Y12700000D03*
X64770000Y27940000D03*
X82550000Y12700000D03*
X62230000Y27940000D03*
X85090000Y12700000D03*
X87630000Y12700000D03*
X90170000Y12700000D03*
X81280000Y15240000D03*
X78740000Y15240000D03*
X71120000Y15240000D03*
X68580000Y15240000D03*
D11*
X60960000Y53975000D03*
D12*
X60960000Y51435000D03*
X60960000Y48895000D03*
X60960000Y46355000D03*
X60960000Y43815000D03*
X60960000Y41275000D03*
D11*
X6350000Y17780000D03*
D12*
X3810000Y17780000D03*
X6350000Y20320000D03*
X3810000Y20320000D03*
X6350000Y22860000D03*
X3810000Y22860000D03*
X6350000Y25400000D03*
X3810000Y25400000D03*
X6350000Y27940000D03*
X3810000Y27940000D03*
X6350000Y30480000D03*
X3810000Y30480000D03*
X6350000Y33020000D03*
X3810000Y33020000D03*
X6350000Y35560000D03*
X3810000Y35560000D03*
X6350000Y38100000D03*
X3810000Y38100000D03*
X6350000Y40640000D03*
X3810000Y40640000D03*
X6350000Y43180000D03*
X3810000Y43180000D03*
X6350000Y45720000D03*
X3810000Y45720000D03*
X6350000Y48260000D03*
X3810000Y48260000D03*
X6350000Y50800000D03*
X3810000Y50800000D03*
X6350000Y53340000D03*
X3810000Y53340000D03*
X6350000Y55880000D03*
X3810000Y55880000D03*
X6350000Y58420000D03*
X3810000Y58420000D03*
X6350000Y60960000D03*
X3810000Y60960000D03*
X6350000Y63500000D03*
X3810000Y63500000D03*
X6350000Y66040000D03*
X3810000Y66040000D03*
X6350000Y68580000D03*
X3810000Y68580000D03*
X6350000Y71120000D03*
X3810000Y71120000D03*
X6350000Y73660000D03*
X3810000Y73660000D03*
X6350000Y76200000D03*
X3810000Y76200000D03*
X6350000Y78740000D03*
X3810000Y78740000D03*
D13*
X12700000Y63500000D03*
D10*
X15200000Y63500000D03*
D15*
X20320000Y30480000D03*
X27940000Y45720000D03*
X20320000Y33020000D03*
X27940000Y43180000D03*
X20320000Y35560000D03*
X27940000Y40640000D03*
X20320000Y38100000D03*
X27940000Y38100000D03*
X20320000Y40640000D03*
X27940000Y35560000D03*
X20320000Y43180000D03*
X27940000Y33020000D03*
X20320000Y45720000D03*
D16*
X27940000Y30480000D03*
X27940000Y54610000D03*
D15*
X20320000Y69850000D03*
X27940000Y57150000D03*
X20320000Y67310000D03*
X27940000Y59690000D03*
X20320000Y64770000D03*
X27940000Y62230000D03*
X20320000Y62230000D03*
X27940000Y64770000D03*
X20320000Y59690000D03*
X27940000Y67310000D03*
X20320000Y57150000D03*
X27940000Y69850000D03*
X20320000Y54610000D03*
D16*
X34290000Y78740000D03*
D15*
X26670000Y93980000D03*
X34290000Y81280000D03*
X26670000Y91440000D03*
X34290000Y83820000D03*
X26670000Y88900000D03*
X34290000Y86360000D03*
X26670000Y86360000D03*
X34290000Y88900000D03*
X26670000Y83820000D03*
X34290000Y91440000D03*
X26670000Y81280000D03*
X34290000Y93980000D03*
X26670000Y78740000D03*
X20320000Y6350000D03*
X27940000Y21590000D03*
X20320000Y8890000D03*
X27940000Y19050000D03*
X20320000Y11430000D03*
X27940000Y16510000D03*
X20320000Y13970000D03*
X27940000Y13970000D03*
X20320000Y16510000D03*
X27940000Y11430000D03*
X20320000Y19050000D03*
X27940000Y8890000D03*
X20320000Y21590000D03*
D16*
X27940000Y6350000D03*
D15*
X12700000Y78740000D03*
X20320000Y93980000D03*
X12700000Y81280000D03*
X20320000Y91440000D03*
X12700000Y83820000D03*
X20320000Y88900000D03*
X12700000Y86360000D03*
X20320000Y86360000D03*
X12700000Y88900000D03*
X20320000Y83820000D03*
X12700000Y91440000D03*
X20320000Y81280000D03*
X12700000Y93980000D03*
D16*
X20320000Y78740000D03*
D10*
X22860000Y50800000D03*
X25360000Y50800000D03*
X22860000Y2540000D03*
X25360000Y2540000D03*
X15240000Y74930000D03*
X17740000Y74930000D03*
X25400000Y26670000D03*
X22900000Y26670000D03*
X29210000Y74930000D03*
X31710000Y74930000D03*
X45680000Y74930000D03*
X43180000Y74930000D03*
D11*
X56515000Y93345000D03*
D12*
X59055000Y93345000D03*
X61595000Y93345000D03*
X86995000Y93345000D03*
X84455000Y93345000D03*
D11*
X81915000Y93345000D03*
D17*
X58420000Y71120000D03*
D18*
X91440000Y86360000D03*
X60960000Y71120000D03*
X88900000Y86360000D03*
X63500000Y71120000D03*
X86360000Y86360000D03*
X66040000Y71120000D03*
X83820000Y86360000D03*
X68580000Y71120000D03*
X81280000Y86360000D03*
X71120000Y71120000D03*
X78740000Y86360000D03*
X73660000Y71120000D03*
X76200000Y86360000D03*
X76200000Y71120000D03*
X73660000Y86360000D03*
X78740000Y71120000D03*
X71120000Y86360000D03*
X81280000Y71120000D03*
X68580000Y86360000D03*
X83820000Y71120000D03*
X66040000Y86360000D03*
X86360000Y71120000D03*
X63500000Y86360000D03*
X88900000Y71120000D03*
X60960000Y86360000D03*
X91440000Y71120000D03*
X58420000Y86360000D03*
D16*
X50500000Y6350000D03*
D15*
X35260000Y54610000D03*
X50500000Y8890000D03*
X35260000Y52070000D03*
X50500000Y11430000D03*
X35260000Y49530000D03*
X50500000Y13970000D03*
X35260000Y46990000D03*
X50500000Y16510000D03*
X35260000Y44450000D03*
X50500000Y19050000D03*
X35260000Y41910000D03*
X50500000Y21590000D03*
X35260000Y39370000D03*
X50500000Y24130000D03*
X35260000Y36830000D03*
X50500000Y26670000D03*
X35260000Y34290000D03*
X50500000Y29210000D03*
X35260000Y31750000D03*
X50500000Y31750000D03*
X35260000Y29210000D03*
X50500000Y34290000D03*
X35260000Y26670000D03*
X50500000Y36830000D03*
X35260000Y24130000D03*
X50500000Y39370000D03*
X35260000Y21590000D03*
X50500000Y41910000D03*
X35260000Y19050000D03*
X50500000Y44450000D03*
X35260000Y16510000D03*
X50500000Y46990000D03*
X35260000Y13970000D03*
X50500000Y49530000D03*
X35260000Y11430000D03*
X50500000Y52070000D03*
X35260000Y8890000D03*
X50500000Y54610000D03*
X35260000Y6350000D03*
D16*
X48260000Y78740000D03*
D15*
X40640000Y93980000D03*
X48260000Y81280000D03*
X40640000Y91440000D03*
X48260000Y83820000D03*
X40640000Y88900000D03*
X48260000Y86360000D03*
X40640000Y86360000D03*
X48260000Y88900000D03*
X40640000Y83820000D03*
X48260000Y91440000D03*
X40640000Y81280000D03*
X48260000Y93980000D03*
X40640000Y78740000D03*
D19*
X44057100Y56470600D03*
X22012800Y30749900D03*
X33122900Y32726100D03*
X56215600Y69126100D03*
X24837200Y44568000D03*
X17116600Y22516100D03*
X31591900Y20224200D03*
X24066400Y39248600D03*
X27027200Y47084800D03*
X23964700Y48807200D03*
X35991100Y73401600D03*
X22383700Y36083700D03*
X35558800Y71743000D03*
X22334900Y40640000D03*
X33406400Y43180000D03*
X16662400Y23624800D03*
X64692000Y80137400D03*
X22735900Y17852000D03*
X24219000Y62487100D03*
X21820300Y71998000D03*
X39112100Y76176800D03*
X28549000Y90834000D03*
X29834400Y77639700D03*
D20*
X39039700Y78740000D02*
X37139000Y76839300D01*
X37139000Y76839300D02*
X28570700Y76839300D01*
X62845300Y93345000D02*
X66366900Y93345000D01*
X66366900Y93345000D02*
X67621400Y94599500D01*
X67621400Y94599500D02*
X85008300Y94599500D01*
X85008300Y94599500D02*
X85744700Y93863100D01*
X85744700Y93863100D02*
X85744700Y93345000D01*
X43180000Y76200000D02*
X40640000Y78740000D01*
X43180000Y74930000D02*
X43180000Y76200000D01*
X54610000Y80079600D02*
X46979400Y80079600D01*
X46979400Y80079600D02*
X43180000Y76280200D01*
X43180000Y76280200D02*
X43180000Y76200000D01*
X54610000Y80079600D02*
X54610000Y82550000D01*
X54610000Y82550000D02*
X58420000Y86360000D01*
X54610000Y79970000D02*
X54610000Y80079600D01*
X69850000Y58420000D02*
X68599700Y58420000D01*
X60960000Y51435000D02*
X62210300Y51435000D01*
X62210300Y51435000D02*
X68599700Y57824400D01*
X68599700Y57824400D02*
X68599700Y58420000D01*
X86995000Y93345000D02*
X85744700Y93345000D01*
X61595000Y93345000D02*
X62845300Y93345000D01*
X40640000Y78740000D02*
X39039700Y78740000D01*
X28570700Y76839300D02*
X26670000Y78740000D01*
X29210000Y74930000D02*
X29210000Y76200000D01*
X29210000Y76200000D02*
X28570700Y76839300D01*
X26339700Y67310000D02*
X21920300Y62890600D01*
X21920300Y62890600D02*
X21920300Y62230000D01*
X27940000Y67310000D02*
X26339700Y67310000D01*
X20320000Y62230000D02*
X21920300Y62230000D01*
X15240000Y74930000D02*
X15240000Y76200000D01*
X15240000Y76200000D02*
X12700000Y78740000D01*
X44450000Y58420000D02*
X46690000Y58420000D01*
X46690000Y58420000D02*
X50500000Y54610000D01*
X12700000Y63500000D02*
X6350000Y63500000D01*
X6350000Y63500000D02*
X3810000Y63500000D01*
X22860000Y2540000D02*
X22860000Y3810000D01*
X22860000Y3810000D02*
X20320000Y6350000D01*
X22900000Y26670000D02*
X22900000Y27900000D01*
X22900000Y27900000D02*
X20320000Y30480000D01*
X22860000Y50800000D02*
X22860000Y52070000D01*
X22860000Y52070000D02*
X20320000Y54610000D01*
X50500000Y6350000D02*
X48899700Y6350000D01*
X25360000Y7620000D02*
X47629700Y7620000D01*
X47629700Y7620000D02*
X48899700Y6350000D01*
X25360000Y7620000D02*
X25360000Y2540000D01*
X21887800Y17780000D02*
X25360000Y14307800D01*
X25360000Y14307800D02*
X25360000Y7620000D01*
X27940000Y69850000D02*
X29540300Y69850000D01*
X29540300Y69850000D02*
X29540300Y72760300D01*
X29540300Y72760300D02*
X31710000Y74930000D01*
X17740000Y74930000D02*
X22820000Y69850000D01*
X22820000Y69850000D02*
X27940000Y69850000D01*
X69850000Y50800000D02*
X71100300Y50800000D01*
X91440000Y71120000D02*
X91440000Y69519700D01*
X91440000Y69519700D02*
X89820000Y69519700D01*
X89820000Y69519700D02*
X71100300Y50800000D01*
X87630000Y12700000D02*
X86429700Y12700000D01*
X50500000Y6350000D02*
X80452700Y6350000D01*
X80452700Y6350000D02*
X86429700Y12327000D01*
X86429700Y12327000D02*
X86429700Y12700000D01*
X21887800Y17780000D02*
X7600300Y17780000D01*
X26339700Y21590000D02*
X25506100Y21590000D01*
X25506100Y21590000D02*
X21887800Y17971700D01*
X21887800Y17971700D02*
X21887800Y17780000D01*
X78740000Y86360000D02*
X78740000Y84759700D01*
X63500000Y86360000D02*
X63500000Y84759700D01*
X63500000Y84759700D02*
X78740000Y84759700D01*
X15200000Y63500000D02*
X12660000Y66040000D01*
X12660000Y66040000D02*
X6350000Y66040000D01*
X54610000Y77470000D02*
X48220000Y77470000D01*
X48220000Y77470000D02*
X45680000Y74930000D01*
X26710300Y49449700D02*
X25360000Y50800000D01*
X41950000Y58420000D02*
X35680600Y58420000D01*
X35680600Y58420000D02*
X26710300Y49449700D01*
X26710300Y49449700D02*
X26339700Y49079100D01*
X26339700Y49079100D02*
X26339700Y45720000D01*
X27940000Y45720000D02*
X26339700Y45720000D01*
X48260000Y93980000D02*
X46659700Y93980000D01*
X46659700Y93980000D02*
X45442000Y95197700D01*
X45442000Y95197700D02*
X37108000Y95197700D01*
X37108000Y95197700D02*
X35890300Y93980000D01*
X55264700Y93345000D02*
X54629700Y93980000D01*
X54629700Y93980000D02*
X48260000Y93980000D01*
X34290000Y93980000D02*
X35890300Y93980000D01*
X6350000Y78740000D02*
X3810000Y78740000D01*
X32689700Y93980000D02*
X31419800Y92710100D01*
X31419800Y92710100D02*
X23190200Y92710100D01*
X23190200Y92710100D02*
X21920300Y93980000D01*
X6350000Y17780000D02*
X7600300Y17780000D01*
X6350000Y66040000D02*
X5099700Y66040000D01*
X3810000Y65414900D02*
X4474600Y65414900D01*
X4474600Y65414900D02*
X5099700Y66040000D01*
X3810000Y66040000D02*
X3810000Y65414900D01*
X27940000Y21590000D02*
X26339700Y21590000D01*
X3810000Y17780000D02*
X6350000Y17780000D01*
X20320000Y93980000D02*
X21920300Y93980000D01*
X34290000Y93980000D02*
X32689700Y93980000D01*
X56515000Y93345000D02*
X55264700Y93345000D01*
D21*
X6350000Y40640000D02*
X10195800Y40640000D01*
X10195800Y40640000D02*
X13846800Y44291000D01*
X13846800Y44291000D02*
X24336000Y44291000D01*
X24336000Y44291000D02*
X24609300Y44017700D01*
X24609300Y44017700D02*
X25065200Y44017700D01*
X25065200Y44017700D02*
X25338500Y44291000D01*
X25338500Y44291000D02*
X28545800Y44291000D01*
X28545800Y44291000D02*
X30545800Y46291000D01*
X30545800Y46291000D02*
X30545800Y46825800D01*
X30545800Y46825800D02*
X34520000Y50800000D01*
X34520000Y50800000D02*
X38386500Y50800000D01*
X38386500Y50800000D02*
X44057100Y56470600D01*
X3810000Y30480000D02*
X3810000Y29329700D01*
X35260000Y19050000D02*
X33759700Y19050000D01*
X33759700Y19050000D02*
X29679200Y23130500D01*
X29679200Y23130500D02*
X17083700Y23130500D01*
X17083700Y23130500D02*
X17027600Y23074400D01*
X17027600Y23074400D02*
X12545200Y23074400D01*
X12545200Y23074400D02*
X8612400Y19141600D01*
X8612400Y19141600D02*
X3300600Y19141600D01*
X3300600Y19141600D02*
X2640400Y19801800D01*
X2640400Y19801800D02*
X2640400Y28398500D01*
X2640400Y28398500D02*
X3571600Y29329700D01*
X3571600Y29329700D02*
X3810000Y29329700D01*
X33122900Y32726100D02*
X29747200Y29350400D01*
X29747200Y29350400D02*
X23412300Y29350400D01*
X23412300Y29350400D02*
X22012800Y30749900D01*
X58848400Y66493300D02*
X60773900Y68418800D01*
X60773900Y68418800D02*
X74999100Y68418800D01*
X74999100Y68418800D02*
X76200000Y69619700D01*
X7500300Y33020000D02*
X16500600Y42020300D01*
X16500600Y42020300D02*
X29862100Y42020300D01*
X29862100Y42020300D02*
X33561800Y45720000D01*
X33561800Y45720000D02*
X37230800Y45720000D01*
X37230800Y45720000D02*
X44850800Y53340000D01*
X44850800Y53340000D02*
X51246300Y53340000D01*
X51246300Y53340000D02*
X58848400Y60942100D01*
X58848400Y60942100D02*
X58848400Y66493300D01*
X56215600Y69126100D02*
X58848400Y66493300D01*
X76200000Y71120000D02*
X76200000Y69619700D01*
X6350000Y33020000D02*
X7500300Y33020000D01*
X23931800Y46846800D02*
X24515000Y47430000D01*
X24515000Y47430000D02*
X24515000Y49918000D01*
X24515000Y49918000D02*
X24251500Y50181500D01*
X24251500Y50181500D02*
X24251500Y51287900D01*
X24251500Y51287900D02*
X25499300Y52535700D01*
X25499300Y52535700D02*
X28751900Y52535700D01*
X28751900Y52535700D02*
X46236000Y70019800D01*
X46236000Y70019800D02*
X54895100Y70019800D01*
X54895100Y70019800D02*
X57495600Y72620300D01*
X57495600Y72620300D02*
X61434700Y72620300D01*
X61434700Y72620300D02*
X62230000Y71825000D01*
X62230000Y71825000D02*
X62230000Y70382800D01*
X62230000Y70382800D02*
X63393400Y69219400D01*
X63393400Y69219400D02*
X73879500Y69219400D01*
X73879500Y69219400D02*
X74843600Y70183500D01*
X74843600Y70183500D02*
X74843600Y77857000D01*
X74843600Y77857000D02*
X82424300Y85437700D01*
X82424300Y85437700D02*
X82424300Y87210800D01*
X82424300Y87210800D02*
X81774800Y87860300D01*
X81774800Y87860300D02*
X76200000Y87860300D01*
X6350000Y43180000D02*
X10658300Y43180000D01*
X10658300Y43180000D02*
X14325100Y46846800D01*
X14325100Y46846800D02*
X23931800Y46846800D01*
X23931800Y46846800D02*
X24837200Y45941400D01*
X24837200Y45941400D02*
X24837200Y44568000D01*
X76200000Y86360000D02*
X76200000Y87860300D01*
X3810000Y34170300D02*
X3571700Y34170300D01*
X3571700Y34170300D02*
X1823400Y35918600D01*
X1823400Y35918600D02*
X1823400Y52989400D01*
X1823400Y52989400D02*
X3444000Y54610000D01*
X3444000Y54610000D02*
X4228500Y54610000D01*
X4228500Y54610000D02*
X4960400Y55341900D01*
X4960400Y55341900D02*
X4960400Y56178900D01*
X4960400Y56178900D02*
X5811900Y57030400D01*
X5811900Y57030400D02*
X12212000Y57030400D01*
X12212000Y57030400D02*
X18681600Y63500000D01*
X18681600Y63500000D02*
X21614500Y63500000D01*
X21614500Y63500000D02*
X26536200Y68421700D01*
X26536200Y68421700D02*
X29656800Y68421700D01*
X29656800Y68421700D02*
X35217100Y73982000D01*
X35217100Y73982000D02*
X36220400Y73982000D01*
X36220400Y73982000D02*
X36400400Y73802000D01*
X36400400Y73802000D02*
X43617800Y73802000D01*
X43617800Y73802000D02*
X44430000Y74614200D01*
X44430000Y74614200D02*
X44430000Y76410300D01*
X44430000Y76410300D02*
X46759700Y78740000D01*
X3810000Y33020000D02*
X3810000Y34170300D01*
X48260000Y78740000D02*
X46759700Y78740000D01*
X73660000Y69619700D02*
X68113000Y69619700D01*
X68113000Y69619700D02*
X67310000Y70422700D01*
X67310000Y70422700D02*
X67310000Y71949500D01*
X67310000Y71949500D02*
X60519500Y78740000D01*
X60519500Y78740000D02*
X48260000Y78740000D01*
X73660000Y71120000D02*
X73660000Y69619700D01*
X31591900Y20224200D02*
X29086000Y22730100D01*
X29086000Y22730100D02*
X17330600Y22730100D01*
X17330600Y22730100D02*
X17116600Y22516100D01*
X29440300Y16510000D02*
X31591900Y18661600D01*
X31591900Y18661600D02*
X31591900Y20224200D01*
X27940000Y16510000D02*
X29440300Y16510000D01*
X6350000Y35560000D02*
X6350000Y34409700D01*
X26670000Y91440000D02*
X23463300Y91440000D01*
X23463300Y91440000D02*
X22193300Y90170000D01*
X22193300Y90170000D02*
X11974800Y90170000D01*
X11974800Y90170000D02*
X1422900Y79618100D01*
X1422900Y79618100D02*
X1422900Y33776600D01*
X1422900Y33776600D02*
X3329900Y31869600D01*
X3329900Y31869600D02*
X4348100Y31869600D01*
X4348100Y31869600D02*
X5080000Y32601500D01*
X5080000Y32601500D02*
X5080000Y33378100D01*
X5080000Y33378100D02*
X6111600Y34409700D01*
X6111600Y34409700D02*
X6350000Y34409700D01*
X71120000Y72620300D02*
X59776400Y83963900D01*
X59776400Y83963900D02*
X59776400Y86976700D01*
X59776400Y86976700D02*
X54192300Y92560800D01*
X54192300Y92560800D02*
X33344200Y92560800D01*
X33344200Y92560800D02*
X32223400Y91440000D01*
X32223400Y91440000D02*
X26670000Y91440000D01*
X71120000Y71120000D02*
X71120000Y72620300D01*
X60960000Y69619700D02*
X56500300Y69619700D01*
X56500300Y69619700D02*
X56443600Y69676400D01*
X56443600Y69676400D02*
X55987700Y69676400D01*
X55987700Y69676400D02*
X55789400Y69478100D01*
X55789400Y69478100D02*
X53919400Y69478100D01*
X53919400Y69478100D02*
X43200000Y58758700D01*
X43200000Y58758700D02*
X43200000Y58110400D01*
X43200000Y58110400D02*
X38429600Y53340000D01*
X38429600Y53340000D02*
X33282400Y53340000D01*
X33282400Y53340000D02*
X27027200Y47084800D01*
X20320000Y38100000D02*
X22917800Y38100000D01*
X22917800Y38100000D02*
X24066400Y39248600D01*
X60960000Y71120000D02*
X60960000Y69619700D01*
X3810000Y45720000D02*
X4960300Y45720000D01*
X23964700Y48807200D02*
X12322000Y48807200D01*
X12322000Y48807200D02*
X10504800Y46990000D01*
X10504800Y46990000D02*
X5991900Y46990000D01*
X5991900Y46990000D02*
X4960300Y45958400D01*
X4960300Y45958400D02*
X4960300Y45720000D01*
X5199700Y38100000D02*
X5199700Y37861700D01*
X5199700Y37861700D02*
X4242500Y36904500D01*
X4242500Y36904500D02*
X3341000Y36904500D01*
X3341000Y36904500D02*
X2224000Y38021500D01*
X2224000Y38021500D02*
X2224000Y50850000D01*
X2224000Y50850000D02*
X3444000Y52070000D01*
X3444000Y52070000D02*
X4228500Y52070000D01*
X4228500Y52070000D02*
X4960400Y52801900D01*
X4960400Y52801900D02*
X4960400Y53638900D01*
X4960400Y53638900D02*
X5811900Y54490400D01*
X5811900Y54490400D02*
X10238300Y54490400D01*
X10238300Y54490400D02*
X16707900Y60960000D01*
X16707900Y60960000D02*
X21903500Y60960000D01*
X21903500Y60960000D02*
X27153100Y66209600D01*
X27153100Y66209600D02*
X28799100Y66209600D01*
X28799100Y66209600D02*
X35991100Y73401600D01*
X66040000Y72620300D02*
X65239400Y73420900D01*
X65239400Y73420900D02*
X57164000Y73420900D01*
X57164000Y73420900D02*
X57144700Y73401600D01*
X57144700Y73401600D02*
X35991100Y73401600D01*
X6350000Y38100000D02*
X5199700Y38100000D01*
X66040000Y71120000D02*
X66040000Y72620300D01*
X27940000Y35560000D02*
X22907400Y35560000D01*
X22907400Y35560000D02*
X22383700Y36083700D01*
X63500000Y72620300D02*
X63099700Y73020600D01*
X63099700Y73020600D02*
X57329800Y73020600D01*
X57329800Y73020600D02*
X56052200Y71743000D01*
X56052200Y71743000D02*
X35558800Y71743000D01*
X3810000Y38100000D02*
X3810000Y39250300D01*
X35558800Y71743000D02*
X35558800Y70405300D01*
X35558800Y70405300D02*
X28653500Y63500000D01*
X28653500Y63500000D02*
X26969600Y63500000D01*
X26969600Y63500000D02*
X21889600Y58420000D01*
X21889600Y58420000D02*
X17676000Y58420000D01*
X17676000Y58420000D02*
X11206500Y51950500D01*
X11206500Y51950500D02*
X5867800Y51950500D01*
X5867800Y51950500D02*
X5080100Y51162800D01*
X5080100Y51162800D02*
X5080100Y50405900D01*
X5080100Y50405900D02*
X4204200Y49530000D01*
X4204200Y49530000D02*
X3431800Y49530000D01*
X3431800Y49530000D02*
X2624400Y48722600D01*
X2624400Y48722600D02*
X2624400Y40197500D01*
X2624400Y40197500D02*
X3571600Y39250300D01*
X3571600Y39250300D02*
X3810000Y39250300D01*
X63500000Y71120000D02*
X63500000Y72620300D01*
X3810000Y48260000D02*
X4960300Y48260000D01*
X27940000Y54610000D02*
X26439700Y54610000D01*
X26439700Y54610000D02*
X25339300Y55710400D01*
X25339300Y55710400D02*
X18073800Y55710400D01*
X18073800Y55710400D02*
X12013000Y49649600D01*
X12013000Y49649600D02*
X6111500Y49649600D01*
X6111500Y49649600D02*
X4960300Y48498400D01*
X4960300Y48498400D02*
X4960300Y48260000D01*
X27940000Y40640000D02*
X22334900Y40640000D01*
X33406400Y43180000D02*
X30866400Y40640000D01*
X30866400Y40640000D02*
X27940000Y40640000D01*
X33759700Y21590000D02*
X31724900Y23624800D01*
X31724900Y23624800D02*
X16662400Y23624800D01*
X34826500Y21590000D02*
X48662800Y35426300D01*
X48662800Y35426300D02*
X76731400Y35426300D01*
X76731400Y35426300D02*
X83989700Y28168000D01*
X83989700Y28168000D02*
X83989700Y27940000D01*
X85090000Y27940000D02*
X83989700Y27940000D01*
X34826500Y21590000D02*
X33759700Y21590000D01*
X35260000Y21590000D02*
X34826500Y21590000D01*
X69850000Y48260000D02*
X68699700Y48260000D01*
X60960000Y43815000D02*
X64254700Y43815000D01*
X64254700Y43815000D02*
X68699700Y48260000D01*
X69850000Y40640000D02*
X68699700Y40640000D01*
X60960000Y41275000D02*
X68064700Y41275000D01*
X68064700Y41275000D02*
X68699700Y40640000D01*
X33759700Y24130000D02*
X33714600Y24175100D01*
X33714600Y24175100D02*
X11921400Y24175100D01*
X11921400Y24175100D02*
X8066300Y20320000D01*
X8066300Y20320000D02*
X7500300Y20320000D01*
X34881700Y24130000D02*
X35260000Y24130000D01*
X34881700Y24130000D02*
X33759700Y24130000D01*
X6350000Y20320000D02*
X7500300Y20320000D01*
X33759700Y29210000D02*
X29693900Y25144200D01*
X29693900Y25144200D02*
X10909500Y25144200D01*
X10909500Y25144200D02*
X8625300Y22860000D01*
X8625300Y22860000D02*
X7500300Y22860000D01*
X35260000Y29210000D02*
X33759700Y29210000D01*
X6350000Y22860000D02*
X7500300Y22860000D01*
X88900000Y86360000D02*
X88900000Y84859700D01*
X35260000Y34290000D02*
X36760300Y34290000D01*
X36760300Y34290000D02*
X48190300Y45720000D01*
X48190300Y45720000D02*
X51198900Y45720000D01*
X51198900Y45720000D02*
X59087100Y53608200D01*
X59087100Y53608200D02*
X59087100Y54262600D01*
X59087100Y54262600D02*
X69324100Y64499600D01*
X69324100Y64499600D02*
X76689700Y64499600D01*
X76689700Y64499600D02*
X82550000Y70359900D01*
X82550000Y70359900D02*
X82550000Y78509700D01*
X82550000Y78509700D02*
X88900000Y84859700D01*
X34881700Y34290000D02*
X35260000Y34290000D01*
X34881700Y34290000D02*
X33759700Y34290000D01*
X33759700Y34290000D02*
X31219700Y31750000D01*
X31219700Y31750000D02*
X16265700Y31750000D01*
X16265700Y31750000D02*
X9915700Y25400000D01*
X9915700Y25400000D02*
X6350000Y25400000D01*
X36760300Y39370000D02*
X48353400Y50963100D01*
X48353400Y50963100D02*
X51376600Y50963100D01*
X51376600Y50963100D02*
X68382000Y67968500D01*
X68382000Y67968500D02*
X75163900Y67968500D01*
X75163900Y67968500D02*
X77470000Y70274600D01*
X77470000Y70274600D02*
X77470000Y78509700D01*
X77470000Y78509700D02*
X83820000Y84859700D01*
X83820000Y86360000D02*
X83820000Y84859700D01*
X35260000Y39370000D02*
X36760300Y39370000D01*
X34881700Y39370000D02*
X35260000Y39370000D01*
X34881700Y39370000D02*
X33759700Y39370000D01*
X33759700Y39370000D02*
X31219700Y36830000D01*
X31219700Y36830000D02*
X17396300Y36830000D01*
X17396300Y36830000D02*
X8506300Y27940000D01*
X8506300Y27940000D02*
X6350000Y27940000D01*
X33759700Y26670000D02*
X31821400Y24731700D01*
X31821400Y24731700D02*
X11911700Y24731700D01*
X11911700Y24731700D02*
X8770000Y21590000D01*
X8770000Y21590000D02*
X5991900Y21590000D01*
X5991900Y21590000D02*
X4960300Y20558400D01*
X4960300Y20558400D02*
X4960300Y20320000D01*
X35260000Y26670000D02*
X33759700Y26670000D01*
X3810000Y20320000D02*
X4960300Y20320000D01*
X35693500Y26670000D02*
X35260000Y26670000D01*
X35693500Y26670000D02*
X36760300Y26670000D01*
X86360000Y71120000D02*
X86360000Y69619700D01*
X36760300Y26670000D02*
X36760300Y27607700D01*
X36760300Y27607700D02*
X49823100Y40670500D01*
X49823100Y40670500D02*
X51245700Y40670500D01*
X51245700Y40670500D02*
X59611300Y49036100D01*
X59611300Y49036100D02*
X59611300Y49177300D01*
X59611300Y49177300D02*
X60599000Y50165000D01*
X60599000Y50165000D02*
X63147700Y50165000D01*
X63147700Y50165000D02*
X67614900Y54632200D01*
X67614900Y54632200D02*
X71372500Y54632200D01*
X71372500Y54632200D02*
X86360000Y69619700D01*
X33759700Y31750000D02*
X27554300Y25544600D01*
X27554300Y25544600D02*
X10709500Y25544600D01*
X10709500Y25544600D02*
X9294900Y24130000D01*
X9294900Y24130000D02*
X5991900Y24130000D01*
X5991900Y24130000D02*
X4960300Y23098400D01*
X4960300Y23098400D02*
X4960300Y22860000D01*
X91440000Y86360000D02*
X91440000Y84859700D01*
X35260000Y31750000D02*
X36760300Y31750000D01*
X36760300Y31750000D02*
X48190300Y43180000D01*
X48190300Y43180000D02*
X51223300Y43180000D01*
X51223300Y43180000D02*
X56883700Y48840400D01*
X56883700Y48840400D02*
X56883700Y49049700D01*
X56883700Y49049700D02*
X60658600Y52824600D01*
X60658600Y52824600D02*
X61934500Y52824600D01*
X61934500Y52824600D02*
X72140100Y63030200D01*
X72140100Y63030200D02*
X77700700Y63030200D01*
X77700700Y63030200D02*
X85090000Y70419500D01*
X85090000Y70419500D02*
X85090000Y78509700D01*
X85090000Y78509700D02*
X91440000Y84859700D01*
X35070900Y31750000D02*
X35260000Y31750000D01*
X35070900Y31750000D02*
X33759700Y31750000D01*
X3810000Y22860000D02*
X4960300Y22860000D01*
X86360000Y84859700D02*
X79923600Y78423300D01*
X79923600Y78423300D02*
X79923600Y70304400D01*
X79923600Y70304400D02*
X75871300Y66252100D01*
X75871300Y66252100D02*
X69208300Y66252100D01*
X69208300Y66252100D02*
X51216200Y48260000D01*
X51216200Y48260000D02*
X48190300Y48260000D01*
X48190300Y48260000D02*
X36760300Y36830000D01*
X35260000Y36830000D02*
X36760300Y36830000D01*
X86360000Y86360000D02*
X86360000Y84859700D01*
X3810000Y25400000D02*
X4960300Y25400000D01*
X35260000Y36830000D02*
X33759700Y36830000D01*
X33759700Y36830000D02*
X31219700Y34290000D01*
X31219700Y34290000D02*
X15803800Y34290000D01*
X15803800Y34290000D02*
X8183800Y26670000D01*
X8183800Y26670000D02*
X5991900Y26670000D01*
X5991900Y26670000D02*
X4960300Y25638400D01*
X4960300Y25638400D02*
X4960300Y25400000D01*
X81280000Y86360000D02*
X81280000Y84859700D01*
X64692000Y80137400D02*
X76557700Y80137400D01*
X76557700Y80137400D02*
X81280000Y84859700D01*
X4960300Y27940000D02*
X4960300Y28178400D01*
X4960300Y28178400D02*
X6111500Y29329600D01*
X6111500Y29329600D02*
X8278400Y29329600D01*
X8278400Y29329600D02*
X18488400Y39539600D01*
X18488400Y39539600D02*
X23579200Y39539600D01*
X23579200Y39539600D02*
X23838500Y39798900D01*
X23838500Y39798900D02*
X24294400Y39798900D01*
X24294400Y39798900D02*
X24553700Y39539600D01*
X24553700Y39539600D02*
X31389300Y39539600D01*
X31389300Y39539600D02*
X33759700Y41910000D01*
X3810000Y27940000D02*
X4960300Y27940000D01*
X35260000Y41910000D02*
X33759700Y41910000D01*
X6350000Y76200000D02*
X7500300Y76200000D01*
X40640000Y86360000D02*
X39139700Y86360000D01*
X39139700Y86360000D02*
X38028400Y87471300D01*
X38028400Y87471300D02*
X24346800Y87471300D01*
X24346800Y87471300D02*
X21918500Y85043000D01*
X21918500Y85043000D02*
X19543600Y85043000D01*
X19543600Y85043000D02*
X14510600Y80010000D01*
X14510600Y80010000D02*
X11310300Y80010000D01*
X11310300Y80010000D02*
X7500300Y76200000D01*
X27940000Y13970000D02*
X26439700Y13970000D01*
X26439700Y13970000D02*
X26439700Y14148200D01*
X26439700Y14148200D02*
X22735900Y17852000D01*
X26439700Y64770000D02*
X26439700Y64707800D01*
X26439700Y64707800D02*
X24219000Y62487100D01*
X27940000Y64770000D02*
X26439700Y64770000D01*
X21820300Y71998000D02*
X27854200Y71998000D01*
X27854200Y71998000D02*
X30460000Y74603800D01*
X30460000Y74603800D02*
X30460000Y75315100D01*
X30460000Y75315100D02*
X31321700Y76176800D01*
X31321700Y76176800D02*
X39112100Y76176800D01*
X50500000Y8890000D02*
X56812000Y8890000D01*
X56812000Y8890000D02*
X73451100Y25529100D01*
X73451100Y25529100D02*
X76726800Y25529100D01*
X76726800Y25529100D02*
X78909700Y27712000D01*
X78909700Y27712000D02*
X78909700Y27940000D01*
X80010000Y27940000D02*
X78909700Y27940000D01*
X20320000Y81280000D02*
X21820300Y81280000D01*
X34290000Y81280000D02*
X32789700Y81280000D01*
X32789700Y81280000D02*
X31678500Y82391200D01*
X31678500Y82391200D02*
X22931500Y82391200D01*
X22931500Y82391200D02*
X21820300Y81280000D01*
X20320000Y83820000D02*
X21820300Y83820000D01*
X34290000Y86360000D02*
X32789700Y86360000D01*
X32789700Y86360000D02*
X31689300Y85259600D01*
X31689300Y85259600D02*
X23259900Y85259600D01*
X23259900Y85259600D02*
X21820300Y83820000D01*
X34290000Y91440000D02*
X32789700Y91440000D01*
X32789700Y91440000D02*
X32183700Y90834000D01*
X32183700Y90834000D02*
X28549000Y90834000D01*
X77470000Y27940000D02*
X76369700Y27940000D01*
X50500000Y11430000D02*
X58002400Y11430000D01*
X58002400Y11430000D02*
X72815400Y26243000D01*
X72815400Y26243000D02*
X74900700Y26243000D01*
X74900700Y26243000D02*
X76369700Y27712000D01*
X76369700Y27712000D02*
X76369700Y27940000D01*
X73829700Y27940000D02*
X73829700Y27823600D01*
X73829700Y27823600D02*
X59976100Y13970000D01*
X59976100Y13970000D02*
X52000300Y13970000D01*
X50500000Y13970000D02*
X52000300Y13970000D01*
X74930000Y27940000D02*
X73829700Y27940000D01*
X83304700Y93345000D02*
X83304700Y92599800D01*
X83304700Y92599800D02*
X78965500Y88260600D01*
X78965500Y88260600D02*
X61360300Y88260600D01*
X61360300Y88260600D02*
X60960000Y87860300D01*
X84455000Y93345000D02*
X83304700Y93345000D01*
X60960000Y86360000D02*
X60960000Y87860300D01*
X3810000Y71120000D02*
X4960300Y71120000D01*
X48260000Y88900000D02*
X49760300Y88900000D01*
X49760300Y88900000D02*
X49760300Y85888800D01*
X49760300Y85888800D02*
X48906300Y85034800D01*
X48906300Y85034800D02*
X45346800Y85034800D01*
X45346800Y85034800D02*
X42862000Y82550000D01*
X42862000Y82550000D02*
X39160900Y82550000D01*
X39160900Y82550000D02*
X36620900Y80010000D01*
X36620900Y80010000D02*
X25482900Y80010000D01*
X25482900Y80010000D02*
X22210700Y76737800D01*
X22210700Y76737800D02*
X17928900Y76737800D01*
X17928900Y76737800D02*
X16490000Y75298900D01*
X16490000Y75298900D02*
X16490000Y74564200D01*
X16490000Y74564200D02*
X14315800Y72390000D01*
X14315800Y72390000D02*
X5991900Y72390000D01*
X5991900Y72390000D02*
X4960300Y71358400D01*
X4960300Y71358400D02*
X4960300Y71120000D01*
X50500000Y16510000D02*
X52000300Y16510000D01*
X71289700Y27940000D02*
X71289700Y27780400D01*
X71289700Y27780400D02*
X60019400Y16510100D01*
X60019400Y16510100D02*
X52000300Y16510100D01*
X52000300Y16510100D02*
X52000300Y16510000D01*
X72390000Y27940000D02*
X71289700Y27940000D01*
X78740000Y15240000D02*
X78740000Y16340300D01*
X50500000Y34290000D02*
X75226300Y34290000D01*
X75226300Y34290000D02*
X81150600Y28365700D01*
X81150600Y28365700D02*
X81150600Y18750900D01*
X81150600Y18750900D02*
X78740000Y16340300D01*
X81280000Y15240000D02*
X81280000Y16340300D01*
X50500000Y36830000D02*
X77760100Y36830000D01*
X77760100Y36830000D02*
X86224300Y28365800D01*
X86224300Y28365800D02*
X86224300Y21284600D01*
X86224300Y21284600D02*
X81280000Y16340300D01*
X50500000Y19050000D02*
X52000300Y19050000D01*
X68749700Y27940000D02*
X68749700Y27780400D01*
X68749700Y27780400D02*
X60019400Y19050100D01*
X60019400Y19050100D02*
X52000300Y19050100D01*
X52000300Y19050100D02*
X52000300Y19050000D01*
X69850000Y27940000D02*
X68749700Y27940000D01*
X67310000Y27940000D02*
X66209700Y27940000D01*
X50500000Y21590000D02*
X60087700Y21590000D01*
X60087700Y21590000D02*
X66209700Y27712000D01*
X66209700Y27712000D02*
X66209700Y27940000D01*
X46759700Y81280000D02*
X45378300Y79898600D01*
X45378300Y79898600D02*
X38319700Y79898600D01*
X38319700Y79898600D02*
X36060800Y77639700D01*
X36060800Y77639700D02*
X29834400Y77639700D01*
X48260000Y81280000D02*
X46759700Y81280000D01*
X12700000Y86360000D02*
X14200300Y86360000D01*
X48260000Y86360000D02*
X46759700Y86360000D01*
X46759700Y86360000D02*
X43095100Y90024600D01*
X43095100Y90024600D02*
X24360100Y90024600D01*
X24360100Y90024600D02*
X21965500Y87630000D01*
X21965500Y87630000D02*
X15470300Y87630000D01*
X15470300Y87630000D02*
X14200300Y86360000D01*
X63669700Y27940000D02*
X63669700Y27780500D01*
X63669700Y27780500D02*
X60019200Y24130000D01*
X60019200Y24130000D02*
X52000300Y24130000D01*
X50500000Y24130000D02*
X52000300Y24130000D01*
X64770000Y27940000D02*
X63669700Y27940000D01*
X62230000Y27940000D02*
X61129700Y27940000D01*
X50500000Y26670000D02*
X59859700Y26670000D01*
X59859700Y26670000D02*
X61129700Y27940000D01*
D22*
X99340000Y660000D02*
X660000Y660000D01*
X660000Y5220128D01*
X2765000Y5220128D01*
X2765000Y4779872D01*
X2850890Y4348075D01*
X3019369Y3941331D01*
X3263962Y3575271D01*
X3575271Y3263962D01*
X3941331Y3019369D01*
X4348075Y2850890D01*
X4779872Y2765000D01*
X5220128Y2765000D01*
X5651925Y2850890D01*
X6058669Y3019369D01*
X6424729Y3263962D01*
X6736038Y3575271D01*
X6980631Y3941331D01*
X7149110Y4348075D01*
X7235000Y4779872D01*
X7235000Y5220128D01*
X7149110Y5651925D01*
X6980631Y6058669D01*
X6736038Y6424729D01*
X6424729Y6736038D01*
X6058669Y6980631D01*
X5651925Y7149110D01*
X5220128Y7235000D01*
X4779872Y7235000D01*
X4348075Y7149110D01*
X3941331Y6980631D01*
X3575271Y6736038D01*
X3263962Y6424729D01*
X3019369Y6058669D01*
X2850890Y5651925D01*
X2765000Y5220128D01*
X660000Y5220128D01*
X660000Y17423110D01*
X2368524Y17423110D01*
X2413175Y17275901D01*
X2538359Y17013080D01*
X2712412Y16779731D01*
X2928645Y16584822D01*
X3178748Y16435843D01*
X3453109Y16338519D01*
X3683000Y16459186D01*
X3683000Y17653000D01*
X3937000Y17653000D01*
X3937000Y16459186D01*
X4166891Y16338519D01*
X4441252Y16435843D01*
X4691355Y16584822D01*
X4887502Y16761626D01*
X4910498Y16685820D01*
X4969463Y16575506D01*
X5048815Y16478815D01*
X5145506Y16399463D01*
X5255820Y16340498D01*
X5375518Y16304188D01*
X5500000Y16291928D01*
X6064250Y16295000D01*
X6223000Y16453750D01*
X6223000Y17653000D01*
X6477000Y17653000D01*
X6477000Y16453750D01*
X6635750Y16295000D01*
X7200000Y16291928D01*
X7324482Y16304188D01*
X7444180Y16340498D01*
X7554494Y16399463D01*
X7651185Y16478815D01*
X7730537Y16575506D01*
X7789502Y16685820D01*
X7825812Y16805518D01*
X7838072Y16930000D01*
X7835000Y17494250D01*
X7676250Y17653000D01*
X6477000Y17653000D01*
X6223000Y17653000D01*
X3937000Y17653000D01*
X3683000Y17653000D01*
X2489845Y17653000D01*
X2368524Y17423110D01*
X660000Y17423110D01*
X660000Y79618100D01*
X684344Y79618100D01*
X687900Y79581995D01*
X687901Y33812715D01*
X684344Y33776600D01*
X698535Y33632515D01*
X735586Y33510377D01*
X740564Y33493967D01*
X808814Y33366280D01*
X900663Y33254362D01*
X928708Y33231346D01*
X2694973Y31465080D01*
X2656525Y31426632D01*
X2494010Y31183411D01*
X2382068Y30913158D01*
X2325000Y30626260D01*
X2325000Y30333740D01*
X2382068Y30046842D01*
X2494010Y29776589D01*
X2656525Y29533368D01*
X2696173Y29493720D01*
X2146208Y28943754D01*
X2118163Y28920738D01*
X2026314Y28808820D01*
X1968490Y28700638D01*
X1958064Y28681133D01*
X1916035Y28542585D01*
X1901844Y28398500D01*
X1905401Y28362385D01*
X1905400Y19837905D01*
X1901844Y19801800D01*
X1915432Y19663838D01*
X1916035Y19657716D01*
X1958063Y19519168D01*
X2026313Y19391481D01*
X2118162Y19279563D01*
X2146208Y19256546D01*
X2673992Y18728761D01*
X2538359Y18546920D01*
X2413175Y18284099D01*
X2368524Y18136890D01*
X2489845Y17907000D01*
X3683000Y17907000D01*
X3683000Y17927000D01*
X3937000Y17927000D01*
X3937000Y17907000D01*
X6223000Y17907000D01*
X6223000Y17927000D01*
X6477000Y17927000D01*
X6477000Y17907000D01*
X7676250Y17907000D01*
X7835000Y18065750D01*
X7836856Y18406600D01*
X8576295Y18406600D01*
X8612400Y18403044D01*
X8648505Y18406600D01*
X8756485Y18417235D01*
X8895033Y18459263D01*
X9022720Y18527513D01*
X9134638Y18619362D01*
X9157659Y18647413D01*
X12849647Y22339400D01*
X16249410Y22339400D01*
X16265610Y22257955D01*
X16332323Y22096895D01*
X16429176Y21951945D01*
X16552445Y21828676D01*
X16697395Y21731823D01*
X16858455Y21665110D01*
X17029435Y21631100D01*
X17203765Y21631100D01*
X17374745Y21665110D01*
X17535805Y21731823D01*
X17680755Y21828676D01*
X17804024Y21951945D01*
X17832859Y21995100D01*
X18543315Y21995100D01*
X18505764Y21871309D01*
X18478057Y21590000D01*
X18505764Y21308691D01*
X18587818Y21038192D01*
X18721068Y20788899D01*
X18900392Y20570392D01*
X19118899Y20391068D01*
X19251858Y20320000D01*
X19118899Y20248932D01*
X18900392Y20069608D01*
X18721068Y19851101D01*
X18587818Y19601808D01*
X18505764Y19331309D01*
X18478057Y19050000D01*
X18505764Y18768691D01*
X18587818Y18498192D01*
X18721068Y18248899D01*
X18900392Y18030392D01*
X19118899Y17851068D01*
X19251858Y17780000D01*
X19118899Y17708932D01*
X18900392Y17529608D01*
X18721068Y17311101D01*
X18587818Y17061808D01*
X18505764Y16791309D01*
X18478057Y16510000D01*
X18505764Y16228691D01*
X18587818Y15958192D01*
X18721068Y15708899D01*
X18900392Y15490392D01*
X19118899Y15311068D01*
X19251858Y15240000D01*
X19118899Y15168932D01*
X18900392Y14989608D01*
X18721068Y14771101D01*
X18587818Y14521808D01*
X18505764Y14251309D01*
X18478057Y13970000D01*
X18505764Y13688691D01*
X18587818Y13418192D01*
X18721068Y13168899D01*
X18900392Y12950392D01*
X19118899Y12771068D01*
X19251858Y12700000D01*
X19118899Y12628932D01*
X18900392Y12449608D01*
X18721068Y12231101D01*
X18587818Y11981808D01*
X18505764Y11711309D01*
X18478057Y11430000D01*
X18505764Y11148691D01*
X18587818Y10878192D01*
X18721068Y10628899D01*
X18900392Y10410392D01*
X19118899Y10231068D01*
X19251858Y10160000D01*
X19118899Y10088932D01*
X18900392Y9909608D01*
X18721068Y9691101D01*
X18587818Y9441808D01*
X18505764Y9171309D01*
X18478057Y8890000D01*
X18505764Y8608691D01*
X18587818Y8338192D01*
X18721068Y8088899D01*
X18900392Y7870392D01*
X19118899Y7691068D01*
X19251858Y7620000D01*
X19118899Y7548932D01*
X18900392Y7369608D01*
X18721068Y7151101D01*
X18587818Y6901808D01*
X18505764Y6631309D01*
X18478057Y6350000D01*
X18505764Y6068691D01*
X18587818Y5798192D01*
X18721068Y5548899D01*
X18900392Y5330392D01*
X19118899Y5151068D01*
X19368192Y5017818D01*
X19638691Y4935764D01*
X19849508Y4915000D01*
X20574133Y4915000D01*
X21889868Y3599264D01*
X21745363Y3454759D01*
X21588320Y3219727D01*
X21480147Y2958574D01*
X21425000Y2681335D01*
X21425000Y2398665D01*
X21480147Y2121426D01*
X21588320Y1860273D01*
X21745363Y1625241D01*
X21945241Y1425363D01*
X22180273Y1268320D01*
X22441426Y1160147D01*
X22718665Y1105000D01*
X23001335Y1105000D01*
X23278574Y1160147D01*
X23539727Y1268320D01*
X23774759Y1425363D01*
X23896694Y1547298D01*
X24546903Y1547298D01*
X24618486Y1303329D01*
X24873996Y1182429D01*
X25148184Y1113700D01*
X25430512Y1099783D01*
X25710130Y1141213D01*
X25976292Y1236397D01*
X26101514Y1303329D01*
X26173097Y1547298D01*
X25360000Y2360395D01*
X24546903Y1547298D01*
X23896694Y1547298D01*
X23974637Y1625241D01*
X24108692Y1825869D01*
X24123329Y1798486D01*
X24367298Y1726903D01*
X25180395Y2540000D01*
X25539605Y2540000D01*
X26352702Y1726903D01*
X26596671Y1798486D01*
X26717571Y2053996D01*
X26786300Y2328184D01*
X26800217Y2610512D01*
X26758787Y2890130D01*
X26663603Y3156292D01*
X26596671Y3281514D01*
X26352702Y3353097D01*
X25539605Y2540000D01*
X25180395Y2540000D01*
X24367298Y3353097D01*
X24123329Y3281514D01*
X24109676Y3252659D01*
X23974637Y3454759D01*
X23896694Y3532702D01*
X24546903Y3532702D01*
X25360000Y2719605D01*
X26173097Y3532702D01*
X26101514Y3776671D01*
X25846004Y3897571D01*
X25571816Y3966300D01*
X25289488Y3980217D01*
X25009870Y3938787D01*
X24743708Y3843603D01*
X24618486Y3776671D01*
X24546903Y3532702D01*
X23896694Y3532702D01*
X23774759Y3654637D01*
X23695000Y3707930D01*
X23695000Y3768993D01*
X23699039Y3810001D01*
X23695000Y3851009D01*
X23695000Y3851019D01*
X23682918Y3973689D01*
X23635172Y4131087D01*
X23557636Y4276146D01*
X23453291Y4403291D01*
X23421427Y4429441D01*
X22052297Y5798571D01*
X22134236Y6068691D01*
X22161943Y6350000D01*
X22134236Y6631309D01*
X22052182Y6901808D01*
X21918932Y7151101D01*
X21739608Y7369608D01*
X21521101Y7548932D01*
X21388142Y7620000D01*
X21521101Y7691068D01*
X21739608Y7870392D01*
X21918932Y8088899D01*
X22052182Y8338192D01*
X22134236Y8608691D01*
X22161943Y8890000D01*
X22134236Y9171309D01*
X22052182Y9441808D01*
X21918932Y9691101D01*
X21739608Y9909608D01*
X21521101Y10088932D01*
X21388142Y10160000D01*
X21521101Y10231068D01*
X21739608Y10410392D01*
X21918932Y10628899D01*
X22052182Y10878192D01*
X22134236Y11148691D01*
X22161943Y11430000D01*
X22134236Y11711309D01*
X22052182Y11981808D01*
X21918932Y12231101D01*
X21739608Y12449608D01*
X21521101Y12628932D01*
X21388142Y12700000D01*
X21521101Y12771068D01*
X21739608Y12950392D01*
X21918932Y13168899D01*
X22052182Y13418192D01*
X22134236Y13688691D01*
X22161943Y13970000D01*
X22134236Y14251309D01*
X22052182Y14521808D01*
X21918932Y14771101D01*
X21739608Y14989608D01*
X21521101Y15168932D01*
X21388142Y15240000D01*
X21521101Y15311068D01*
X21739608Y15490392D01*
X21918932Y15708899D01*
X22052182Y15958192D01*
X22134236Y16228691D01*
X22161943Y16510000D01*
X22134236Y16791309D01*
X22052182Y17061808D01*
X21918932Y17311101D01*
X21739608Y17529608D01*
X21521101Y17708932D01*
X21388142Y17780000D01*
X21521101Y17851068D01*
X21739608Y18030392D01*
X21918932Y18248899D01*
X22052182Y18498192D01*
X22134236Y18768691D01*
X22161943Y19050000D01*
X22134236Y19331309D01*
X22052182Y19601808D01*
X21918932Y19851101D01*
X21739608Y20069608D01*
X21521101Y20248932D01*
X21388142Y20320000D01*
X21521101Y20391068D01*
X21739608Y20570392D01*
X21918932Y20788899D01*
X22052182Y21038192D01*
X22134236Y21308691D01*
X22161943Y21590000D01*
X22134236Y21871309D01*
X22096685Y21995100D01*
X26159973Y21995100D01*
X26148096Y21939039D01*
X26270085Y21717000D01*
X27813000Y21717000D01*
X27813000Y21737000D01*
X28067000Y21737000D01*
X28067000Y21717000D01*
X28087000Y21717000D01*
X28087000Y21463000D01*
X28067000Y21463000D01*
X28067000Y21443000D01*
X27813000Y21443000D01*
X27813000Y21463000D01*
X26270085Y21463000D01*
X26148096Y21240961D01*
X26165633Y21158182D01*
X26276285Y20898354D01*
X26435500Y20665105D01*
X26637161Y20467399D01*
X26866741Y20317265D01*
X26738899Y20248932D01*
X26520392Y20069608D01*
X26341068Y19851101D01*
X26207818Y19601808D01*
X26125764Y19331309D01*
X26098057Y19050000D01*
X26125764Y18768691D01*
X26207818Y18498192D01*
X26341068Y18248899D01*
X26520392Y18030392D01*
X26738899Y17851068D01*
X26871858Y17780000D01*
X26738899Y17708932D01*
X26520392Y17529608D01*
X26341068Y17311101D01*
X26207818Y17061808D01*
X26125764Y16791309D01*
X26098057Y16510000D01*
X26125764Y16228691D01*
X26207818Y15958192D01*
X26341068Y15708899D01*
X26520392Y15490392D01*
X26738899Y15311068D01*
X26871858Y15240000D01*
X26738899Y15168932D01*
X26584844Y15042503D01*
X23604194Y18023152D01*
X23586890Y18110145D01*
X23520177Y18271205D01*
X23423324Y18416155D01*
X23300055Y18539424D01*
X23155105Y18636277D01*
X22994045Y18702990D01*
X22823065Y18737000D01*
X22648735Y18737000D01*
X22477755Y18702990D01*
X22316695Y18636277D01*
X22171745Y18539424D01*
X22048476Y18416155D01*
X21951623Y18271205D01*
X21884910Y18110145D01*
X21850900Y17939165D01*
X21850900Y17764835D01*
X21884910Y17593855D01*
X21951623Y17432795D01*
X22048476Y17287845D01*
X22171745Y17164576D01*
X22316695Y17067723D01*
X22477755Y17001010D01*
X22564748Y16983706D01*
X25714548Y13833905D01*
X25715335Y13825915D01*
X25757363Y13687367D01*
X25825613Y13559680D01*
X25917462Y13447762D01*
X25963908Y13409645D01*
X26029380Y13355913D01*
X26157067Y13287663D01*
X26295615Y13245635D01*
X26300298Y13245174D01*
X26341068Y13168899D01*
X26520392Y12950392D01*
X26738899Y12771068D01*
X26871858Y12700000D01*
X26738899Y12628932D01*
X26520392Y12449608D01*
X26341068Y12231101D01*
X26207818Y11981808D01*
X26125764Y11711309D01*
X26098057Y11430000D01*
X26125764Y11148691D01*
X26207818Y10878192D01*
X26341068Y10628899D01*
X26520392Y10410392D01*
X26738899Y10231068D01*
X26871858Y10160000D01*
X26738899Y10088932D01*
X26520392Y9909608D01*
X26341068Y9691101D01*
X26207818Y9441808D01*
X26125764Y9171309D01*
X26098057Y8890000D01*
X26125764Y8608691D01*
X26207818Y8338192D01*
X26341068Y8088899D01*
X26520392Y7870392D01*
X26633482Y7777581D01*
X26615518Y7775812D01*
X26495820Y7739502D01*
X26385506Y7680537D01*
X26288815Y7601185D01*
X26209463Y7504494D01*
X26150498Y7394180D01*
X26114188Y7274482D01*
X26101928Y7150000D01*
X26101928Y5550000D01*
X26114188Y5425518D01*
X26150498Y5305820D01*
X26209463Y5195506D01*
X26288815Y5098815D01*
X26385506Y5019463D01*
X26495820Y4960498D01*
X26615518Y4924188D01*
X26740000Y4911928D01*
X29140000Y4911928D01*
X29264482Y4924188D01*
X29384180Y4960498D01*
X29494494Y5019463D01*
X29591185Y5098815D01*
X29670537Y5195506D01*
X29729502Y5305820D01*
X29765812Y5425518D01*
X29778072Y5550000D01*
X29778072Y7150000D01*
X29765812Y7274482D01*
X29729502Y7394180D01*
X29670537Y7504494D01*
X29591185Y7601185D01*
X29494494Y7680537D01*
X29384180Y7739502D01*
X29264482Y7775812D01*
X29246518Y7777581D01*
X29359608Y7870392D01*
X29538932Y8088899D01*
X29672182Y8338192D01*
X29754236Y8608691D01*
X29781943Y8890000D01*
X29754236Y9171309D01*
X29672182Y9441808D01*
X29538932Y9691101D01*
X29359608Y9909608D01*
X29141101Y10088932D01*
X29008142Y10160000D01*
X29141101Y10231068D01*
X29359608Y10410392D01*
X29538932Y10628899D01*
X29672182Y10878192D01*
X29754236Y11148691D01*
X29781943Y11430000D01*
X29754236Y11711309D01*
X29672182Y11981808D01*
X29538932Y12231101D01*
X29359608Y12449608D01*
X29141101Y12628932D01*
X29008142Y12700000D01*
X29141101Y12771068D01*
X29359608Y12950392D01*
X29538932Y13168899D01*
X29672182Y13418192D01*
X29754236Y13688691D01*
X29781943Y13970000D01*
X29754236Y14251309D01*
X29672182Y14521808D01*
X29538932Y14771101D01*
X29359608Y14989608D01*
X29141101Y15168932D01*
X29008142Y15240000D01*
X29141101Y15311068D01*
X29359608Y15490392D01*
X29538932Y15708899D01*
X29579702Y15785174D01*
X29584385Y15785635D01*
X29722933Y15827663D01*
X29850620Y15895913D01*
X29962538Y15987762D01*
X29985558Y16015812D01*
X32086097Y18116350D01*
X32114137Y18139362D01*
X32137150Y18167403D01*
X32137153Y18167406D01*
X32162017Y18197703D01*
X32205987Y18251280D01*
X32274237Y18378967D01*
X32316265Y18517515D01*
X32326900Y18625495D01*
X32326900Y18625496D01*
X32330456Y18661600D01*
X32326900Y18697705D01*
X32326900Y19443353D01*
X33214446Y18555807D01*
X33237462Y18527762D01*
X33349380Y18435913D01*
X33477067Y18367663D01*
X33615615Y18325635D01*
X33620298Y18325174D01*
X33661068Y18248899D01*
X33840392Y18030392D01*
X34058899Y17851068D01*
X34191858Y17780000D01*
X34058899Y17708932D01*
X33840392Y17529608D01*
X33661068Y17311101D01*
X33527818Y17061808D01*
X33445764Y16791309D01*
X33418057Y16510000D01*
X33445764Y16228691D01*
X33527818Y15958192D01*
X33661068Y15708899D01*
X33840392Y15490392D01*
X34058899Y15311068D01*
X34191858Y15240000D01*
X34058899Y15168932D01*
X33840392Y14989608D01*
X33661068Y14771101D01*
X33527818Y14521808D01*
X33445764Y14251309D01*
X33418057Y13970000D01*
X33445764Y13688691D01*
X33527818Y13418192D01*
X33661068Y13168899D01*
X33840392Y12950392D01*
X34058899Y12771068D01*
X34191858Y12700000D01*
X34058899Y12628932D01*
X33840392Y12449608D01*
X33661068Y12231101D01*
X33527818Y11981808D01*
X33445764Y11711309D01*
X33418057Y11430000D01*
X33445764Y11148691D01*
X33527818Y10878192D01*
X33661068Y10628899D01*
X33840392Y10410392D01*
X34058899Y10231068D01*
X34191858Y10160000D01*
X34058899Y10088932D01*
X33840392Y9909608D01*
X33661068Y9691101D01*
X33527818Y9441808D01*
X33445764Y9171309D01*
X33418057Y8890000D01*
X33445764Y8608691D01*
X33527818Y8338192D01*
X33661068Y8088899D01*
X33840392Y7870392D01*
X34058899Y7691068D01*
X34191858Y7620000D01*
X34058899Y7548932D01*
X33840392Y7369608D01*
X33661068Y7151101D01*
X33527818Y6901808D01*
X33445764Y6631309D01*
X33418057Y6350000D01*
X33445764Y6068691D01*
X33527818Y5798192D01*
X33661068Y5548899D01*
X33840392Y5330392D01*
X34058899Y5151068D01*
X34308192Y5017818D01*
X34578691Y4935764D01*
X34789508Y4915000D01*
X35730492Y4915000D01*
X35941309Y4935764D01*
X36211808Y5017818D01*
X36461101Y5151068D01*
X36679608Y5330392D01*
X36858932Y5548899D01*
X36859520Y5550000D01*
X48661928Y5550000D01*
X48674188Y5425518D01*
X48710498Y5305820D01*
X48769463Y5195506D01*
X48848815Y5098815D01*
X48945506Y5019463D01*
X49055820Y4960498D01*
X49175518Y4924188D01*
X49300000Y4911928D01*
X50214250Y4915000D01*
X50373000Y5073750D01*
X50373000Y6223000D01*
X50627000Y6223000D01*
X50627000Y5073750D01*
X50785750Y4915000D01*
X51700000Y4911928D01*
X51824482Y4924188D01*
X51944180Y4960498D01*
X52054494Y5019463D01*
X52151185Y5098815D01*
X52230537Y5195506D01*
X52243697Y5220128D01*
X92765000Y5220128D01*
X92765000Y4779872D01*
X92850890Y4348075D01*
X93019369Y3941331D01*
X93263962Y3575271D01*
X93575271Y3263962D01*
X93941331Y3019369D01*
X94348075Y2850890D01*
X94779872Y2765000D01*
X95220128Y2765000D01*
X95651925Y2850890D01*
X96058669Y3019369D01*
X96424729Y3263962D01*
X96736038Y3575271D01*
X96980631Y3941331D01*
X97149110Y4348075D01*
X97235000Y4779872D01*
X97235000Y5220128D01*
X97149110Y5651925D01*
X96980631Y6058669D01*
X96736038Y6424729D01*
X96424729Y6736038D01*
X96058669Y6980631D01*
X95651925Y7149110D01*
X95220128Y7235000D01*
X94779872Y7235000D01*
X94348075Y7149110D01*
X93941331Y6980631D01*
X93575271Y6736038D01*
X93263962Y6424729D01*
X93019369Y6058669D01*
X92850890Y5651925D01*
X92765000Y5220128D01*
X52243697Y5220128D01*
X52289502Y5305820D01*
X52325812Y5425518D01*
X52338072Y5550000D01*
X52335000Y6064250D01*
X52176250Y6223000D01*
X50627000Y6223000D01*
X50373000Y6223000D01*
X48823750Y6223000D01*
X48665000Y6064250D01*
X48661928Y5550000D01*
X36859520Y5550000D01*
X36992182Y5798192D01*
X37074236Y6068691D01*
X37101943Y6350000D01*
X37074236Y6631309D01*
X36992182Y6901808D01*
X36858932Y7151101D01*
X36679608Y7369608D01*
X36461101Y7548932D01*
X36328142Y7620000D01*
X36461101Y7691068D01*
X36679608Y7870392D01*
X36858932Y8088899D01*
X36992182Y8338192D01*
X37074236Y8608691D01*
X37101943Y8890000D01*
X37074236Y9171309D01*
X36992182Y9441808D01*
X36858932Y9691101D01*
X36679608Y9909608D01*
X36461101Y10088932D01*
X36328142Y10160000D01*
X36461101Y10231068D01*
X36679608Y10410392D01*
X36858932Y10628899D01*
X36992182Y10878192D01*
X37074236Y11148691D01*
X37101943Y11430000D01*
X37074236Y11711309D01*
X36992182Y11981808D01*
X36858932Y12231101D01*
X36679608Y12449608D01*
X36461101Y12628932D01*
X36328142Y12700000D01*
X36461101Y12771068D01*
X36679608Y12950392D01*
X36858932Y13168899D01*
X36992182Y13418192D01*
X37074236Y13688691D01*
X37101943Y13970000D01*
X37074236Y14251309D01*
X36992182Y14521808D01*
X36858932Y14771101D01*
X36679608Y14989608D01*
X36461101Y15168932D01*
X36328142Y15240000D01*
X36461101Y15311068D01*
X36679608Y15490392D01*
X36858932Y15708899D01*
X36992182Y15958192D01*
X37074236Y16228691D01*
X37101943Y16510000D01*
X37074236Y16791309D01*
X36992182Y17061808D01*
X36858932Y17311101D01*
X36679608Y17529608D01*
X36461101Y17708932D01*
X36328142Y17780000D01*
X36461101Y17851068D01*
X36679608Y18030392D01*
X36858932Y18248899D01*
X36992182Y18498192D01*
X37074236Y18768691D01*
X37101943Y19050000D01*
X37074236Y19331309D01*
X36992182Y19601808D01*
X36858932Y19851101D01*
X36679608Y20069608D01*
X36461101Y20248932D01*
X36328142Y20320000D01*
X36461101Y20391068D01*
X36679608Y20570392D01*
X36858932Y20788899D01*
X36992182Y21038192D01*
X37074236Y21308691D01*
X37101943Y21590000D01*
X37074236Y21871309D01*
X36992182Y22141808D01*
X36858932Y22391101D01*
X36772439Y22496493D01*
X48668120Y34392173D01*
X48658057Y34290000D01*
X48685764Y34008691D01*
X48767818Y33738192D01*
X48901068Y33488899D01*
X49080392Y33270392D01*
X49298899Y33091068D01*
X49431858Y33020000D01*
X49298899Y32948932D01*
X49080392Y32769608D01*
X48901068Y32551101D01*
X48767818Y32301808D01*
X48685764Y32031309D01*
X48658057Y31750000D01*
X48685764Y31468691D01*
X48767818Y31198192D01*
X48901068Y30948899D01*
X49080392Y30730392D01*
X49298899Y30551068D01*
X49431858Y30480000D01*
X49298899Y30408932D01*
X49080392Y30229608D01*
X48901068Y30011101D01*
X48767818Y29761808D01*
X48685764Y29491309D01*
X48658057Y29210000D01*
X48685764Y28928691D01*
X48767818Y28658192D01*
X48901068Y28408899D01*
X49080392Y28190392D01*
X49298899Y28011068D01*
X49431858Y27940000D01*
X49298899Y27868932D01*
X49080392Y27689608D01*
X48901068Y27471101D01*
X48767818Y27221808D01*
X48685764Y26951309D01*
X48658057Y26670000D01*
X48685764Y26388691D01*
X48767818Y26118192D01*
X48901068Y25868899D01*
X49080392Y25650392D01*
X49298899Y25471068D01*
X49431858Y25400000D01*
X49298899Y25328932D01*
X49080392Y25149608D01*
X48901068Y24931101D01*
X48767818Y24681808D01*
X48685764Y24411309D01*
X48658057Y24130000D01*
X48685764Y23848691D01*
X48767818Y23578192D01*
X48901068Y23328899D01*
X49080392Y23110392D01*
X49298899Y22931068D01*
X49431858Y22860000D01*
X49298899Y22788932D01*
X49080392Y22609608D01*
X48901068Y22391101D01*
X48767818Y22141808D01*
X48685764Y21871309D01*
X48658057Y21590000D01*
X48685764Y21308691D01*
X48767818Y21038192D01*
X48901068Y20788899D01*
X49080392Y20570392D01*
X49298899Y20391068D01*
X49431858Y20320000D01*
X49298899Y20248932D01*
X49080392Y20069608D01*
X48901068Y19851101D01*
X48767818Y19601808D01*
X48685764Y19331309D01*
X48658057Y19050000D01*
X48685764Y18768691D01*
X48767818Y18498192D01*
X48901068Y18248899D01*
X49080392Y18030392D01*
X49298899Y17851068D01*
X49431858Y17780000D01*
X49298899Y17708932D01*
X49080392Y17529608D01*
X48901068Y17311101D01*
X48767818Y17061808D01*
X48685764Y16791309D01*
X48658057Y16510000D01*
X48685764Y16228691D01*
X48767818Y15958192D01*
X48901068Y15708899D01*
X49080392Y15490392D01*
X49298899Y15311068D01*
X49431858Y15240000D01*
X49298899Y15168932D01*
X49080392Y14989608D01*
X48901068Y14771101D01*
X48767818Y14521808D01*
X48685764Y14251309D01*
X48658057Y13970000D01*
X48685764Y13688691D01*
X48767818Y13418192D01*
X48901068Y13168899D01*
X49080392Y12950392D01*
X49298899Y12771068D01*
X49431858Y12700000D01*
X49298899Y12628932D01*
X49080392Y12449608D01*
X48901068Y12231101D01*
X48767818Y11981808D01*
X48685764Y11711309D01*
X48658057Y11430000D01*
X48685764Y11148691D01*
X48767818Y10878192D01*
X48901068Y10628899D01*
X49080392Y10410392D01*
X49298899Y10231068D01*
X49431858Y10160000D01*
X49298899Y10088932D01*
X49080392Y9909608D01*
X48901068Y9691101D01*
X48767818Y9441808D01*
X48685764Y9171309D01*
X48658057Y8890000D01*
X48685764Y8608691D01*
X48767818Y8338192D01*
X48901068Y8088899D01*
X49080392Y7870392D01*
X49193482Y7777581D01*
X49175518Y7775812D01*
X49055820Y7739502D01*
X48945506Y7680537D01*
X48848815Y7601185D01*
X48769463Y7504494D01*
X48710498Y7394180D01*
X48674188Y7274482D01*
X48661928Y7150000D01*
X48665000Y6635750D01*
X48823750Y6477000D01*
X50373000Y6477000D01*
X50373000Y6497000D01*
X50627000Y6497000D01*
X50627000Y6477000D01*
X52176250Y6477000D01*
X52335000Y6635750D01*
X52338072Y7150000D01*
X52325812Y7274482D01*
X52289502Y7394180D01*
X52230537Y7504494D01*
X52151185Y7601185D01*
X52054494Y7680537D01*
X51944180Y7739502D01*
X51824482Y7775812D01*
X51806518Y7777581D01*
X51919608Y7870392D01*
X52098932Y8088899D01*
X52134264Y8155000D01*
X56775895Y8155000D01*
X56812000Y8151444D01*
X56848105Y8155000D01*
X56956085Y8165635D01*
X57094633Y8207663D01*
X57222320Y8275913D01*
X57334238Y8367762D01*
X57357259Y8395813D01*
X60967692Y12006246D01*
X61115363Y11785241D01*
X61315241Y11585363D01*
X61550273Y11428320D01*
X61811426Y11320147D01*
X62088665Y11265000D01*
X62371335Y11265000D01*
X62648574Y11320147D01*
X62909727Y11428320D01*
X63144759Y11585363D01*
X63344637Y11785241D01*
X63500000Y12017759D01*
X63655363Y11785241D01*
X63855241Y11585363D01*
X64090273Y11428320D01*
X64351426Y11320147D01*
X64628665Y11265000D01*
X64911335Y11265000D01*
X65188574Y11320147D01*
X65449727Y11428320D01*
X65684759Y11585363D01*
X65884637Y11785241D01*
X66040000Y12017759D01*
X66195363Y11785241D01*
X66395241Y11585363D01*
X66630273Y11428320D01*
X66891426Y11320147D01*
X67168665Y11265000D01*
X67451335Y11265000D01*
X67728574Y11320147D01*
X67989727Y11428320D01*
X68224759Y11585363D01*
X68424637Y11785241D01*
X68580000Y12017759D01*
X68735363Y11785241D01*
X68935241Y11585363D01*
X69170273Y11428320D01*
X69431426Y11320147D01*
X69708665Y11265000D01*
X69991335Y11265000D01*
X70268574Y11320147D01*
X70529727Y11428320D01*
X70764759Y11585363D01*
X70964637Y11785241D01*
X71120000Y12017759D01*
X71275363Y11785241D01*
X71475241Y11585363D01*
X71710273Y11428320D01*
X71971426Y11320147D01*
X72248665Y11265000D01*
X72531335Y11265000D01*
X72808574Y11320147D01*
X73069727Y11428320D01*
X73304759Y11585363D01*
X73504637Y11785241D01*
X73660000Y12017759D01*
X73815363Y11785241D01*
X74015241Y11585363D01*
X74250273Y11428320D01*
X74511426Y11320147D01*
X74788665Y11265000D01*
X75071335Y11265000D01*
X75348574Y11320147D01*
X75609727Y11428320D01*
X75844759Y11585363D01*
X76044637Y11785241D01*
X76200000Y12017759D01*
X76355363Y11785241D01*
X76555241Y11585363D01*
X76790273Y11428320D01*
X77051426Y11320147D01*
X77328665Y11265000D01*
X77611335Y11265000D01*
X77888574Y11320147D01*
X78149727Y11428320D01*
X78384759Y11585363D01*
X78584637Y11785241D01*
X78740000Y12017759D01*
X78895363Y11785241D01*
X79095241Y11585363D01*
X79330273Y11428320D01*
X79591426Y11320147D01*
X79868665Y11265000D01*
X80151335Y11265000D01*
X80428574Y11320147D01*
X80689727Y11428320D01*
X80924759Y11585363D01*
X81124637Y11785241D01*
X81280000Y12017759D01*
X81435363Y11785241D01*
X81635241Y11585363D01*
X81870273Y11428320D01*
X82131426Y11320147D01*
X82408665Y11265000D01*
X82691335Y11265000D01*
X82968574Y11320147D01*
X83229727Y11428320D01*
X83464759Y11585363D01*
X83664637Y11785241D01*
X83820000Y12017759D01*
X83975363Y11785241D01*
X84175241Y11585363D01*
X84410273Y11428320D01*
X84671426Y11320147D01*
X84948665Y11265000D01*
X85231335Y11265000D01*
X85508574Y11320147D01*
X85769727Y11428320D01*
X86004759Y11585363D01*
X86204637Y11785241D01*
X86361680Y12020273D01*
X86366067Y12030865D01*
X86477615Y11844869D01*
X86666586Y11636481D01*
X86892580Y11468963D01*
X87146913Y11348754D01*
X87280961Y11308096D01*
X87503000Y11430085D01*
X87503000Y12573000D01*
X87483000Y12573000D01*
X87483000Y12827000D01*
X87503000Y12827000D01*
X87503000Y13969915D01*
X87757000Y13969915D01*
X87757000Y12827000D01*
X87777000Y12827000D01*
X87777000Y12573000D01*
X87757000Y12573000D01*
X87757000Y11430085D01*
X87979039Y11308096D01*
X88113087Y11348754D01*
X88367420Y11468963D01*
X88593414Y11636481D01*
X88782385Y11844869D01*
X88893933Y12030865D01*
X88898320Y12020273D01*
X89055363Y11785241D01*
X89255241Y11585363D01*
X89490273Y11428320D01*
X89751426Y11320147D01*
X90028665Y11265000D01*
X90311335Y11265000D01*
X90588574Y11320147D01*
X90849727Y11428320D01*
X91084759Y11585363D01*
X91284637Y11785241D01*
X91441680Y12020273D01*
X91549853Y12281426D01*
X91605000Y12558665D01*
X91605000Y12841335D01*
X91549853Y13118574D01*
X91441680Y13379727D01*
X91284637Y13614759D01*
X91084759Y13814637D01*
X90849727Y13971680D01*
X90588574Y14079853D01*
X90311335Y14135000D01*
X90028665Y14135000D01*
X89751426Y14079853D01*
X89490273Y13971680D01*
X89255241Y13814637D01*
X89055363Y13614759D01*
X88898320Y13379727D01*
X88893933Y13369135D01*
X88782385Y13555131D01*
X88593414Y13763519D01*
X88367420Y13931037D01*
X88113087Y14051246D01*
X87979039Y14091904D01*
X87757000Y13969915D01*
X87503000Y13969915D01*
X87280961Y14091904D01*
X87146913Y14051246D01*
X86892580Y13931037D01*
X86666586Y13763519D01*
X86477615Y13555131D01*
X86366067Y13369135D01*
X86361680Y13379727D01*
X86204637Y13614759D01*
X86004759Y13814637D01*
X85769727Y13971680D01*
X85508574Y14079853D01*
X85231335Y14135000D01*
X84948665Y14135000D01*
X84671426Y14079853D01*
X84410273Y13971680D01*
X84175241Y13814637D01*
X83975363Y13614759D01*
X83820000Y13382241D01*
X83664637Y13614759D01*
X83464759Y13814637D01*
X83229727Y13971680D01*
X82968574Y14079853D01*
X82691335Y14135000D01*
X82408665Y14135000D01*
X82131426Y14079853D01*
X82118856Y14074646D01*
X82194759Y14125363D01*
X82394637Y14325241D01*
X82551680Y14560273D01*
X82659853Y14821426D01*
X82715000Y15098665D01*
X82715000Y15381335D01*
X82659853Y15658574D01*
X82551680Y15919727D01*
X82394637Y16154759D01*
X82264271Y16285125D01*
X86718493Y20739346D01*
X86746538Y20762362D01*
X86838387Y20874280D01*
X86906637Y21001967D01*
X86948665Y21140515D01*
X86959300Y21248495D01*
X86959300Y21248502D01*
X86962855Y21284599D01*
X86959300Y21320696D01*
X86959300Y26664581D01*
X87211426Y26560147D01*
X87488665Y26505000D01*
X87771335Y26505000D01*
X88048574Y26560147D01*
X88309727Y26668320D01*
X88544759Y26825363D01*
X88743357Y27023961D01*
X88744188Y27015518D01*
X88780498Y26895820D01*
X88839463Y26785506D01*
X88918815Y26688815D01*
X89015506Y26609463D01*
X89125820Y26550498D01*
X89245518Y26514188D01*
X89370000Y26501928D01*
X90970000Y26501928D01*
X91094482Y26514188D01*
X91214180Y26550498D01*
X91324494Y26609463D01*
X91421185Y26688815D01*
X91500537Y26785506D01*
X91559502Y26895820D01*
X91595812Y27015518D01*
X91608072Y27140000D01*
X91608072Y28740000D01*
X91595812Y28864482D01*
X91559502Y28984180D01*
X91500537Y29094494D01*
X91421185Y29191185D01*
X91324494Y29270537D01*
X91214180Y29329502D01*
X91094482Y29365812D01*
X90970000Y29378072D01*
X89370000Y29378072D01*
X89245518Y29365812D01*
X89125820Y29329502D01*
X89015506Y29270537D01*
X88918815Y29191185D01*
X88839463Y29094494D01*
X88780498Y28984180D01*
X88744188Y28864482D01*
X88743357Y28856039D01*
X88544759Y29054637D01*
X88309727Y29211680D01*
X88048574Y29319853D01*
X87771335Y29375000D01*
X87488665Y29375000D01*
X87211426Y29319853D01*
X86950273Y29211680D01*
X86715241Y29054637D01*
X86645075Y28984471D01*
X78305359Y37324187D01*
X78282338Y37352238D01*
X78170420Y37444087D01*
X78042733Y37512337D01*
X77904185Y37554365D01*
X77796205Y37565000D01*
X77760100Y37568556D01*
X77723995Y37565000D01*
X71235748Y37565000D01*
X71277932Y37666842D01*
X71335000Y37953740D01*
X71335000Y38246260D01*
X93765000Y38246260D01*
X93765000Y37953740D01*
X93822068Y37666842D01*
X93934010Y37396589D01*
X94096525Y37153368D01*
X94303368Y36946525D01*
X94546589Y36784010D01*
X94816842Y36672068D01*
X95103740Y36615000D01*
X95396260Y36615000D01*
X95683158Y36672068D01*
X95953411Y36784010D01*
X96196632Y36946525D01*
X96403475Y37153368D01*
X96520000Y37327760D01*
X96636525Y37153368D01*
X96843368Y36946525D01*
X97086589Y36784010D01*
X97356842Y36672068D01*
X97643740Y36615000D01*
X97936260Y36615000D01*
X98223158Y36672068D01*
X98493411Y36784010D01*
X98736632Y36946525D01*
X98943475Y37153368D01*
X99105990Y37396589D01*
X99217932Y37666842D01*
X99275000Y37953740D01*
X99275000Y38246260D01*
X99217932Y38533158D01*
X99105990Y38803411D01*
X98943475Y39046632D01*
X98736632Y39253475D01*
X98493411Y39415990D01*
X98223158Y39527932D01*
X97936260Y39585000D01*
X97643740Y39585000D01*
X97356842Y39527932D01*
X97086589Y39415990D01*
X96843368Y39253475D01*
X96636525Y39046632D01*
X96520000Y38872240D01*
X96403475Y39046632D01*
X96196632Y39253475D01*
X95953411Y39415990D01*
X95683158Y39527932D01*
X95396260Y39585000D01*
X95103740Y39585000D01*
X94816842Y39527932D01*
X94546589Y39415990D01*
X94303368Y39253475D01*
X94096525Y39046632D01*
X93934010Y38803411D01*
X93822068Y38533158D01*
X93765000Y38246260D01*
X71335000Y38246260D01*
X71277932Y38533158D01*
X71165990Y38803411D01*
X71003475Y39046632D01*
X70796632Y39253475D01*
X70622240Y39370000D01*
X70796632Y39486525D01*
X71003475Y39693368D01*
X71165990Y39936589D01*
X71277932Y40206842D01*
X71335000Y40493740D01*
X71335000Y40786260D01*
X71277932Y41073158D01*
X71165990Y41343411D01*
X71003475Y41586632D01*
X70796632Y41793475D01*
X70622240Y41910000D01*
X70796632Y42026525D01*
X71003475Y42233368D01*
X71165990Y42476589D01*
X71277932Y42746842D01*
X71335000Y43033740D01*
X71335000Y43326260D01*
X71277932Y43613158D01*
X71165990Y43883411D01*
X71003475Y44126632D01*
X70796632Y44333475D01*
X70622240Y44450000D01*
X70796632Y44566525D01*
X71003475Y44773368D01*
X71165990Y45016589D01*
X71277932Y45286842D01*
X71335000Y45573740D01*
X71335000Y45866260D01*
X71277932Y46153158D01*
X71165990Y46423411D01*
X71003475Y46666632D01*
X70796632Y46873475D01*
X70622240Y46990000D01*
X70796632Y47106525D01*
X71003475Y47313368D01*
X71165990Y47556589D01*
X71277932Y47826842D01*
X71335000Y48113740D01*
X71335000Y48406260D01*
X71277932Y48693158D01*
X71165990Y48963411D01*
X71003475Y49206632D01*
X70796632Y49413475D01*
X70614466Y49535195D01*
X70731355Y49604822D01*
X70947588Y49799731D01*
X71121641Y50033080D01*
X71246825Y50295901D01*
X71291476Y50443110D01*
X71170155Y50673000D01*
X69977000Y50673000D01*
X69977000Y50653000D01*
X69723000Y50653000D01*
X69723000Y50673000D01*
X68529845Y50673000D01*
X68408524Y50443110D01*
X68453175Y50295901D01*
X68578359Y50033080D01*
X68752412Y49799731D01*
X68968645Y49604822D01*
X69085534Y49535195D01*
X68903368Y49413475D01*
X68696525Y49206632D01*
X68546078Y48981472D01*
X68417067Y48942337D01*
X68289380Y48874087D01*
X68177462Y48782238D01*
X68154446Y48754193D01*
X63950254Y44550000D01*
X62254883Y44550000D01*
X62113475Y44761632D01*
X61906632Y44968475D01*
X61732240Y45085000D01*
X61906632Y45201525D01*
X62113475Y45408368D01*
X62275990Y45651589D01*
X62387932Y45921842D01*
X62445000Y46208740D01*
X62445000Y46501260D01*
X62387932Y46788158D01*
X62275990Y47058411D01*
X62113475Y47301632D01*
X61906632Y47508475D01*
X61732240Y47625000D01*
X61906632Y47741525D01*
X62113475Y47948368D01*
X62275990Y48191589D01*
X62387932Y48461842D01*
X62445000Y48748740D01*
X62445000Y49041260D01*
X62387932Y49328158D01*
X62345748Y49430000D01*
X63111595Y49430000D01*
X63147700Y49426444D01*
X63183805Y49430000D01*
X63291785Y49440635D01*
X63430333Y49482663D01*
X63558020Y49550913D01*
X63669938Y49642762D01*
X63692959Y49670813D01*
X67919347Y53897200D01*
X68473448Y53897200D01*
X68422068Y53773158D01*
X68365000Y53486260D01*
X68365000Y53193740D01*
X68422068Y52906842D01*
X68534010Y52636589D01*
X68696525Y52393368D01*
X68903368Y52186525D01*
X69085534Y52064805D01*
X68968645Y51995178D01*
X68752412Y51800269D01*
X68578359Y51566920D01*
X68453175Y51304099D01*
X68408524Y51156890D01*
X68529845Y50927000D01*
X69723000Y50927000D01*
X69723000Y50947000D01*
X69977000Y50947000D01*
X69977000Y50927000D01*
X71170155Y50927000D01*
X71291476Y51156890D01*
X71246825Y51304099D01*
X71121641Y51566920D01*
X70947588Y51800269D01*
X70731355Y51995178D01*
X70614466Y52064805D01*
X70796632Y52186525D01*
X71003475Y52393368D01*
X71165990Y52636589D01*
X71277932Y52906842D01*
X71335000Y53193740D01*
X71335000Y53486260D01*
X71277932Y53773158D01*
X71226552Y53897200D01*
X71336395Y53897200D01*
X71372500Y53893644D01*
X71408605Y53897200D01*
X71516585Y53907835D01*
X71655133Y53949863D01*
X71782820Y54018113D01*
X71894738Y54109962D01*
X71917759Y54138013D01*
X76346006Y58566260D01*
X93765000Y58566260D01*
X93765000Y58273740D01*
X93822068Y57986842D01*
X93934010Y57716589D01*
X94096525Y57473368D01*
X94303368Y57266525D01*
X94546589Y57104010D01*
X94816842Y56992068D01*
X95103740Y56935000D01*
X95396260Y56935000D01*
X95683158Y56992068D01*
X95953411Y57104010D01*
X96196632Y57266525D01*
X96403475Y57473368D01*
X96520000Y57647760D01*
X96636525Y57473368D01*
X96843368Y57266525D01*
X97086589Y57104010D01*
X97356842Y56992068D01*
X97643740Y56935000D01*
X97936260Y56935000D01*
X98223158Y56992068D01*
X98493411Y57104010D01*
X98736632Y57266525D01*
X98943475Y57473368D01*
X99105990Y57716589D01*
X99217932Y57986842D01*
X99275000Y58273740D01*
X99275000Y58566260D01*
X99217932Y58853158D01*
X99105990Y59123411D01*
X98943475Y59366632D01*
X98736632Y59573475D01*
X98493411Y59735990D01*
X98223158Y59847932D01*
X97936260Y59905000D01*
X97643740Y59905000D01*
X97356842Y59847932D01*
X97086589Y59735990D01*
X96843368Y59573475D01*
X96636525Y59366632D01*
X96520000Y59192240D01*
X96403475Y59366632D01*
X96196632Y59573475D01*
X95953411Y59735990D01*
X95683158Y59847932D01*
X95396260Y59905000D01*
X95103740Y59905000D01*
X94816842Y59847932D01*
X94546589Y59735990D01*
X94303368Y59573475D01*
X94096525Y59366632D01*
X93934010Y59123411D01*
X93822068Y58853158D01*
X93765000Y58566260D01*
X76346006Y58566260D01*
X86854194Y69074447D01*
X86882238Y69097462D01*
X86974087Y69209380D01*
X87042337Y69337067D01*
X87084365Y69475615D01*
X87084826Y69480298D01*
X87161101Y69521068D01*
X87379608Y69700392D01*
X87558932Y69918899D01*
X87630000Y70051858D01*
X87701068Y69918899D01*
X87880393Y69700392D01*
X88098900Y69521068D01*
X88348193Y69387818D01*
X88618692Y69305764D01*
X88900000Y69278057D01*
X89181309Y69305764D01*
X89451808Y69387818D01*
X89701101Y69521068D01*
X89919608Y69700392D01*
X90098932Y69918899D01*
X90167265Y70046741D01*
X90317399Y69817161D01*
X90515105Y69615500D01*
X90748354Y69456285D01*
X91008182Y69345633D01*
X91090961Y69328096D01*
X91313000Y69450085D01*
X91313000Y70993000D01*
X91567000Y70993000D01*
X91567000Y69450085D01*
X91789039Y69328096D01*
X91871818Y69345633D01*
X92131646Y69456285D01*
X92364895Y69615500D01*
X92562601Y69817161D01*
X92717166Y70053517D01*
X92822650Y70315486D01*
X92875000Y70593000D01*
X92875000Y70993000D01*
X91567000Y70993000D01*
X91313000Y70993000D01*
X91293000Y70993000D01*
X91293000Y71247000D01*
X91313000Y71247000D01*
X91313000Y72789915D01*
X91567000Y72789915D01*
X91567000Y71247000D01*
X92875000Y71247000D01*
X92875000Y71647000D01*
X92822650Y71924514D01*
X92717166Y72186483D01*
X92562601Y72422839D01*
X92364895Y72624500D01*
X92131646Y72783715D01*
X91871818Y72894367D01*
X91789039Y72911904D01*
X91567000Y72789915D01*
X91313000Y72789915D01*
X91090961Y72911904D01*
X91008182Y72894367D01*
X90748354Y72783715D01*
X90515105Y72624500D01*
X90317399Y72422839D01*
X90167265Y72193259D01*
X90098932Y72321101D01*
X89919607Y72539608D01*
X89701100Y72718932D01*
X89451807Y72852182D01*
X89181308Y72934236D01*
X88900000Y72961943D01*
X88618691Y72934236D01*
X88348192Y72852182D01*
X88098899Y72718932D01*
X87880392Y72539607D01*
X87701068Y72321100D01*
X87630000Y72188142D01*
X87558932Y72321101D01*
X87379607Y72539608D01*
X87161100Y72718932D01*
X86911807Y72852182D01*
X86641308Y72934236D01*
X86360000Y72961943D01*
X86078691Y72934236D01*
X85825000Y72857281D01*
X85825000Y78205254D01*
X91934193Y84314446D01*
X91962238Y84337462D01*
X92054087Y84449380D01*
X92122337Y84577067D01*
X92151616Y84673586D01*
X92164365Y84715614D01*
X92164826Y84720298D01*
X92241101Y84761068D01*
X92459608Y84940392D01*
X92638932Y85158899D01*
X92772182Y85408192D01*
X92854236Y85678691D01*
X92875000Y85889509D01*
X92875000Y86830492D01*
X92854236Y87041309D01*
X92772182Y87311808D01*
X92638932Y87561101D01*
X92459607Y87779608D01*
X92241100Y87958932D01*
X91991807Y88092182D01*
X91721308Y88174236D01*
X91440000Y88201943D01*
X91158691Y88174236D01*
X90888192Y88092182D01*
X90638899Y87958932D01*
X90420392Y87779607D01*
X90241068Y87561100D01*
X90170000Y87428142D01*
X90098932Y87561101D01*
X89919607Y87779608D01*
X89701100Y87958932D01*
X89451807Y88092182D01*
X89181308Y88174236D01*
X88900000Y88201943D01*
X88618691Y88174236D01*
X88348192Y88092182D01*
X88098899Y87958932D01*
X87880392Y87779607D01*
X87701068Y87561100D01*
X87630000Y87428142D01*
X87558932Y87561101D01*
X87379607Y87779608D01*
X87161100Y87958932D01*
X86911807Y88092182D01*
X86641308Y88174236D01*
X86360000Y88201943D01*
X86078691Y88174236D01*
X85808192Y88092182D01*
X85558899Y87958932D01*
X85340392Y87779607D01*
X85161068Y87561100D01*
X85090000Y87428142D01*
X85018932Y87561101D01*
X84839607Y87779608D01*
X84621100Y87958932D01*
X84371807Y88092182D01*
X84101308Y88174236D01*
X83820000Y88201943D01*
X83538691Y88174236D01*
X83268192Y88092182D01*
X83018899Y87958932D01*
X82852322Y87822225D01*
X82320058Y88354488D01*
X82297038Y88382538D01*
X82185120Y88474387D01*
X82057433Y88542637D01*
X81918885Y88584665D01*
X81810905Y88595300D01*
X81774800Y88598856D01*
X81738695Y88595300D01*
X80339646Y88595300D01*
X83766981Y92022634D01*
X84021842Y91917068D01*
X84308740Y91860000D01*
X84601260Y91860000D01*
X84888158Y91917068D01*
X85158411Y92029010D01*
X85401632Y92191525D01*
X85608475Y92398368D01*
X85684338Y92511905D01*
X85703681Y92510000D01*
X85703682Y92510000D01*
X85744700Y92505960D01*
X85768095Y92508264D01*
X85841525Y92398368D01*
X86048368Y92191525D01*
X86291589Y92029010D01*
X86561842Y91917068D01*
X86848740Y91860000D01*
X87141260Y91860000D01*
X87428158Y91917068D01*
X87698411Y92029010D01*
X87941632Y92191525D01*
X88148475Y92398368D01*
X88310990Y92641589D01*
X88422932Y92911842D01*
X88480000Y93198740D01*
X88480000Y93491260D01*
X88422932Y93778158D01*
X88310990Y94048411D01*
X88148475Y94291632D01*
X87941632Y94498475D01*
X87698411Y94660990D01*
X87428158Y94772932D01*
X87141260Y94830000D01*
X86848740Y94830000D01*
X86561842Y94772932D01*
X86291589Y94660990D01*
X86193332Y94595337D01*
X85627745Y95160922D01*
X85601591Y95192791D01*
X85568281Y95220128D01*
X92765000Y95220128D01*
X92765000Y94779872D01*
X92850890Y94348075D01*
X93019369Y93941331D01*
X93263962Y93575271D01*
X93575271Y93263962D01*
X93941331Y93019369D01*
X94348075Y92850890D01*
X94779872Y92765000D01*
X95220128Y92765000D01*
X95651925Y92850890D01*
X96058669Y93019369D01*
X96424729Y93263962D01*
X96736038Y93575271D01*
X96980631Y93941331D01*
X97149110Y94348075D01*
X97235000Y94779872D01*
X97235000Y95220128D01*
X97149110Y95651925D01*
X96980631Y96058669D01*
X96736038Y96424729D01*
X96424729Y96736038D01*
X96058669Y96980631D01*
X95651925Y97149110D01*
X95220128Y97235000D01*
X94779872Y97235000D01*
X94348075Y97149110D01*
X93941331Y96980631D01*
X93575271Y96736038D01*
X93263962Y96424729D01*
X93019369Y96058669D01*
X92850890Y95651925D01*
X92765000Y95220128D01*
X85568281Y95220128D01*
X85474446Y95297136D01*
X85329387Y95374672D01*
X85171989Y95422418D01*
X85049319Y95434500D01*
X85049318Y95434500D01*
X85008300Y95438540D01*
X84967282Y95434500D01*
X67662418Y95434500D01*
X67621400Y95438540D01*
X67580381Y95434500D01*
X67457711Y95422418D01*
X67300313Y95374672D01*
X67155254Y95297136D01*
X67028109Y95192791D01*
X67001963Y95160932D01*
X66021033Y94180000D01*
X62823065Y94180000D01*
X62748475Y94291632D01*
X62541632Y94498475D01*
X62298411Y94660990D01*
X62028158Y94772932D01*
X61741260Y94830000D01*
X61448740Y94830000D01*
X61161842Y94772932D01*
X60891589Y94660990D01*
X60648368Y94498475D01*
X60441525Y94291632D01*
X60325000Y94117240D01*
X60208475Y94291632D01*
X60001632Y94498475D01*
X59758411Y94660990D01*
X59488158Y94772932D01*
X59201260Y94830000D01*
X58908740Y94830000D01*
X58621842Y94772932D01*
X58351589Y94660990D01*
X58108368Y94498475D01*
X57976513Y94366620D01*
X57954502Y94439180D01*
X57895537Y94549494D01*
X57816185Y94646185D01*
X57719494Y94725537D01*
X57609180Y94784502D01*
X57489482Y94820812D01*
X57365000Y94833072D01*
X56800750Y94830000D01*
X56642000Y94671250D01*
X56642000Y93472000D01*
X56662000Y93472000D01*
X56662000Y93218000D01*
X56642000Y93218000D01*
X56642000Y92018750D01*
X56800750Y91860000D01*
X57365000Y91856928D01*
X57489482Y91869188D01*
X57609180Y91905498D01*
X57719494Y91964463D01*
X57816185Y92043815D01*
X57895537Y92140506D01*
X57954502Y92250820D01*
X57976513Y92323380D01*
X58108368Y92191525D01*
X58351589Y92029010D01*
X58621842Y91917068D01*
X58908740Y91860000D01*
X59201260Y91860000D01*
X59488158Y91917068D01*
X59758411Y92029010D01*
X60001632Y92191525D01*
X60208475Y92398368D01*
X60325000Y92572760D01*
X60441525Y92398368D01*
X60648368Y92191525D01*
X60891589Y92029010D01*
X61161842Y91917068D01*
X61448740Y91860000D01*
X61741260Y91860000D01*
X62028158Y91917068D01*
X62298411Y92029010D01*
X62541632Y92191525D01*
X62748475Y92398368D01*
X62823065Y92510000D01*
X66325882Y92510000D01*
X66366900Y92505960D01*
X66407918Y92510000D01*
X66407919Y92510000D01*
X66530589Y92522082D01*
X66687987Y92569828D01*
X66833046Y92647364D01*
X66960191Y92751709D01*
X66986345Y92783578D01*
X67967269Y93764500D01*
X80429272Y93764500D01*
X80430000Y93630750D01*
X80588750Y93472000D01*
X81788000Y93472000D01*
X81788000Y93492000D01*
X82042000Y93492000D01*
X82042000Y93472000D01*
X82062000Y93472000D01*
X82062000Y93218000D01*
X82042000Y93218000D01*
X82042000Y93198000D01*
X81788000Y93198000D01*
X81788000Y93218000D01*
X80588750Y93218000D01*
X80430000Y93059250D01*
X80426928Y92495000D01*
X80439188Y92370518D01*
X80475498Y92250820D01*
X80534463Y92140506D01*
X80613815Y92043815D01*
X80710506Y91964463D01*
X80820820Y91905498D01*
X80940518Y91869188D01*
X81065000Y91856928D01*
X81524885Y91859432D01*
X78661054Y88995600D01*
X61396405Y88995600D01*
X61360300Y88999156D01*
X61216215Y88984965D01*
X61077666Y88942937D01*
X61064883Y88936104D01*
X60949980Y88874687D01*
X60838062Y88782838D01*
X60815041Y88754787D01*
X60465808Y88405554D01*
X60437763Y88382538D01*
X60345914Y88270620D01*
X60294396Y88174236D01*
X60277664Y88142933D01*
X60235635Y88004385D01*
X60235174Y87999702D01*
X60158899Y87958932D01*
X59980239Y87812308D01*
X55934153Y91858393D01*
X56229250Y91860000D01*
X56388000Y92018750D01*
X56388000Y93218000D01*
X55188750Y93218000D01*
X55030000Y93059250D01*
X55028393Y92764153D01*
X54737559Y93054987D01*
X54714538Y93083038D01*
X54602620Y93174887D01*
X54474933Y93243137D01*
X54336385Y93285165D01*
X54228405Y93295800D01*
X54192300Y93299356D01*
X54156195Y93295800D01*
X49926886Y93295800D01*
X50034367Y93548182D01*
X50051904Y93630961D01*
X49929915Y93853000D01*
X48387000Y93853000D01*
X48387000Y93833000D01*
X48133000Y93833000D01*
X48133000Y93853000D01*
X46590085Y93853000D01*
X46468096Y93630961D01*
X46485633Y93548182D01*
X46593114Y93295800D01*
X42301417Y93295800D01*
X42372182Y93428192D01*
X42454236Y93698691D01*
X42481943Y93980000D01*
X42454236Y94261309D01*
X42433691Y94329039D01*
X46468096Y94329039D01*
X46590085Y94107000D01*
X48133000Y94107000D01*
X48133000Y95415000D01*
X48387000Y95415000D01*
X48387000Y94107000D01*
X49929915Y94107000D01*
X49978262Y94195000D01*
X55026928Y94195000D01*
X55030000Y93630750D01*
X55188750Y93472000D01*
X56388000Y93472000D01*
X56388000Y94671250D01*
X56229250Y94830000D01*
X55665000Y94833072D01*
X55540518Y94820812D01*
X55420820Y94784502D01*
X55310506Y94725537D01*
X55213815Y94646185D01*
X55134463Y94549494D01*
X55075498Y94439180D01*
X55039188Y94319482D01*
X55026928Y94195000D01*
X49978262Y94195000D01*
X50051904Y94329039D01*
X50034367Y94411818D01*
X49923715Y94671646D01*
X49764500Y94904895D01*
X49562839Y95102601D01*
X49326483Y95257166D01*
X49064514Y95362650D01*
X48787000Y95415000D01*
X48387000Y95415000D01*
X48133000Y95415000D01*
X47733000Y95415000D01*
X47455486Y95362650D01*
X47193517Y95257166D01*
X46957161Y95102601D01*
X46755500Y94904895D01*
X46596285Y94671646D01*
X46485633Y94411818D01*
X46468096Y94329039D01*
X42433691Y94329039D01*
X42372182Y94531808D01*
X42238932Y94781101D01*
X42059608Y94999608D01*
X41841101Y95178932D01*
X41591808Y95312182D01*
X41321309Y95394236D01*
X41110492Y95415000D01*
X40169508Y95415000D01*
X39958691Y95394236D01*
X39688192Y95312182D01*
X39438899Y95178932D01*
X39220392Y94999608D01*
X39041068Y94781101D01*
X38907818Y94531808D01*
X38825764Y94261309D01*
X38798057Y93980000D01*
X38825764Y93698691D01*
X38907818Y93428192D01*
X38978583Y93295800D01*
X35956886Y93295800D01*
X36064367Y93548182D01*
X36081904Y93630961D01*
X35959915Y93853000D01*
X34417000Y93853000D01*
X34417000Y93833000D01*
X34163000Y93833000D01*
X34163000Y93853000D01*
X32620085Y93853000D01*
X32498096Y93630961D01*
X32515633Y93548182D01*
X32626285Y93288354D01*
X32785500Y93055105D01*
X32792346Y93048393D01*
X31918954Y92175000D01*
X28304264Y92175000D01*
X28268932Y92241101D01*
X28089608Y92459608D01*
X27871101Y92638932D01*
X27738142Y92710000D01*
X27871101Y92781068D01*
X28089608Y92960392D01*
X28268932Y93178899D01*
X28402182Y93428192D01*
X28484236Y93698691D01*
X28511943Y93980000D01*
X28484236Y94261309D01*
X28463691Y94329039D01*
X32498096Y94329039D01*
X32620085Y94107000D01*
X34163000Y94107000D01*
X34163000Y95415000D01*
X34417000Y95415000D01*
X34417000Y94107000D01*
X35959915Y94107000D01*
X36081904Y94329039D01*
X36064367Y94411818D01*
X35953715Y94671646D01*
X35794500Y94904895D01*
X35592839Y95102601D01*
X35356483Y95257166D01*
X35094514Y95362650D01*
X34817000Y95415000D01*
X34417000Y95415000D01*
X34163000Y95415000D01*
X33763000Y95415000D01*
X33485486Y95362650D01*
X33223517Y95257166D01*
X32987161Y95102601D01*
X32785500Y94904895D01*
X32626285Y94671646D01*
X32515633Y94411818D01*
X32498096Y94329039D01*
X28463691Y94329039D01*
X28402182Y94531808D01*
X28268932Y94781101D01*
X28089608Y94999608D01*
X27871101Y95178932D01*
X27621808Y95312182D01*
X27351309Y95394236D01*
X27140492Y95415000D01*
X26199508Y95415000D01*
X25988691Y95394236D01*
X25718192Y95312182D01*
X25468899Y95178932D01*
X25250392Y94999608D01*
X25071068Y94781101D01*
X24937818Y94531808D01*
X24855764Y94261309D01*
X24828057Y93980000D01*
X24855764Y93698691D01*
X24937818Y93428192D01*
X25071068Y93178899D01*
X25250392Y92960392D01*
X25468899Y92781068D01*
X25601858Y92710000D01*
X25468899Y92638932D01*
X25250392Y92459608D01*
X25071068Y92241101D01*
X25035736Y92175000D01*
X23499394Y92175000D01*
X23463299Y92178555D01*
X23427204Y92175000D01*
X23427195Y92175000D01*
X23319215Y92164365D01*
X23180667Y92122337D01*
X23052980Y92054087D01*
X22941062Y91962238D01*
X22918046Y91934193D01*
X22130618Y91146765D01*
X22134236Y91158691D01*
X22161943Y91440000D01*
X22134236Y91721309D01*
X22052182Y91991808D01*
X21918932Y92241101D01*
X21739608Y92459608D01*
X21521101Y92638932D01*
X21393259Y92707265D01*
X21622839Y92857399D01*
X21824500Y93055105D01*
X21983715Y93288354D01*
X22094367Y93548182D01*
X22111904Y93630961D01*
X21989915Y93853000D01*
X20447000Y93853000D01*
X20447000Y93833000D01*
X20193000Y93833000D01*
X20193000Y93853000D01*
X18650085Y93853000D01*
X18528096Y93630961D01*
X18545633Y93548182D01*
X18656285Y93288354D01*
X18815500Y93055105D01*
X19017161Y92857399D01*
X19246741Y92707265D01*
X19118899Y92638932D01*
X18900392Y92459608D01*
X18721068Y92241101D01*
X18587818Y91991808D01*
X18505764Y91721309D01*
X18478057Y91440000D01*
X18505764Y91158691D01*
X18582719Y90905000D01*
X14437281Y90905000D01*
X14514236Y91158691D01*
X14541943Y91440000D01*
X14514236Y91721309D01*
X14432182Y91991808D01*
X14298932Y92241101D01*
X14119608Y92459608D01*
X13901101Y92638932D01*
X13768142Y92710000D01*
X13901101Y92781068D01*
X14119608Y92960392D01*
X14298932Y93178899D01*
X14432182Y93428192D01*
X14514236Y93698691D01*
X14541943Y93980000D01*
X14514236Y94261309D01*
X14493691Y94329039D01*
X18528096Y94329039D01*
X18650085Y94107000D01*
X20193000Y94107000D01*
X20193000Y95415000D01*
X20447000Y95415000D01*
X20447000Y94107000D01*
X21989915Y94107000D01*
X22111904Y94329039D01*
X22094367Y94411818D01*
X21983715Y94671646D01*
X21824500Y94904895D01*
X21622839Y95102601D01*
X21386483Y95257166D01*
X21124514Y95362650D01*
X20847000Y95415000D01*
X20447000Y95415000D01*
X20193000Y95415000D01*
X19793000Y95415000D01*
X19515486Y95362650D01*
X19253517Y95257166D01*
X19017161Y95102601D01*
X18815500Y94904895D01*
X18656285Y94671646D01*
X18545633Y94411818D01*
X18528096Y94329039D01*
X14493691Y94329039D01*
X14432182Y94531808D01*
X14298932Y94781101D01*
X14119608Y94999608D01*
X13901101Y95178932D01*
X13651808Y95312182D01*
X13381309Y95394236D01*
X13170492Y95415000D01*
X12229508Y95415000D01*
X12018691Y95394236D01*
X11748192Y95312182D01*
X11498899Y95178932D01*
X11280392Y94999608D01*
X11101068Y94781101D01*
X10967818Y94531808D01*
X10885764Y94261309D01*
X10858057Y93980000D01*
X10885764Y93698691D01*
X10967818Y93428192D01*
X11101068Y93178899D01*
X11280392Y92960392D01*
X11498899Y92781068D01*
X11631858Y92710000D01*
X11498899Y92638932D01*
X11280392Y92459608D01*
X11101068Y92241101D01*
X10967818Y91991808D01*
X10885764Y91721309D01*
X10858057Y91440000D01*
X10885764Y91158691D01*
X10967818Y90888192D01*
X11101068Y90638899D01*
X11237729Y90472376D01*
X928708Y80163354D01*
X900662Y80140337D01*
X808813Y80028419D01*
X740563Y79900732D01*
X729956Y79865764D01*
X698535Y79762185D01*
X684344Y79618100D01*
X660000Y79618100D01*
X660000Y95220128D01*
X2765000Y95220128D01*
X2765000Y94779872D01*
X2850890Y94348075D01*
X3019369Y93941331D01*
X3263962Y93575271D01*
X3575271Y93263962D01*
X3941331Y93019369D01*
X4348075Y92850890D01*
X4779872Y92765000D01*
X5220128Y92765000D01*
X5651925Y92850890D01*
X6058669Y93019369D01*
X6424729Y93263962D01*
X6736038Y93575271D01*
X6980631Y93941331D01*
X7149110Y94348075D01*
X7235000Y94779872D01*
X7235000Y95220128D01*
X7149110Y95651925D01*
X6980631Y96058669D01*
X6736038Y96424729D01*
X6424729Y96736038D01*
X6058669Y96980631D01*
X5651925Y97149110D01*
X5220128Y97235000D01*
X4779872Y97235000D01*
X4348075Y97149110D01*
X3941331Y96980631D01*
X3575271Y96736038D01*
X3263962Y96424729D01*
X3019369Y96058669D01*
X2850890Y95651925D01*
X2765000Y95220128D01*
X660000Y95220128D01*
X660000Y99340000D01*
X99340001Y99340000D01*
X99340000Y660000D01*
G04 #@! TA.AperFunction,Conductor*
D23*
G36*
X99340000Y660000D02*
G01*
X660000Y660000D01*
X660000Y5220128D01*
X2765000Y5220128D01*
X2765000Y4779872D01*
X2850890Y4348075D01*
X3019369Y3941331D01*
X3263962Y3575271D01*
X3575271Y3263962D01*
X3941331Y3019369D01*
X4348075Y2850890D01*
X4779872Y2765000D01*
X5220128Y2765000D01*
X5651925Y2850890D01*
X6058669Y3019369D01*
X6424729Y3263962D01*
X6736038Y3575271D01*
X6980631Y3941331D01*
X7149110Y4348075D01*
X7235000Y4779872D01*
X7235000Y5220128D01*
X7149110Y5651925D01*
X6980631Y6058669D01*
X6736038Y6424729D01*
X6424729Y6736038D01*
X6058669Y6980631D01*
X5651925Y7149110D01*
X5220128Y7235000D01*
X4779872Y7235000D01*
X4348075Y7149110D01*
X3941331Y6980631D01*
X3575271Y6736038D01*
X3263962Y6424729D01*
X3019369Y6058669D01*
X2850890Y5651925D01*
X2765000Y5220128D01*
X660000Y5220128D01*
X660000Y17423110D01*
X2368524Y17423110D01*
X2413175Y17275901D01*
X2538359Y17013080D01*
X2712412Y16779731D01*
X2928645Y16584822D01*
X3178748Y16435843D01*
X3453109Y16338519D01*
X3683000Y16459186D01*
X3683000Y17653000D01*
X3937000Y17653000D01*
X3937000Y16459186D01*
X4166891Y16338519D01*
X4441252Y16435843D01*
X4691355Y16584822D01*
X4887502Y16761626D01*
X4910498Y16685820D01*
X4969463Y16575506D01*
X5048815Y16478815D01*
X5145506Y16399463D01*
X5255820Y16340498D01*
X5375518Y16304188D01*
X5500000Y16291928D01*
X6064250Y16295000D01*
X6223000Y16453750D01*
X6223000Y17653000D01*
X6477000Y17653000D01*
X6477000Y16453750D01*
X6635750Y16295000D01*
X7200000Y16291928D01*
X7324482Y16304188D01*
X7444180Y16340498D01*
X7554494Y16399463D01*
X7651185Y16478815D01*
X7730537Y16575506D01*
X7789502Y16685820D01*
X7825812Y16805518D01*
X7838072Y16930000D01*
X7835000Y17494250D01*
X7676250Y17653000D01*
X6477000Y17653000D01*
X6223000Y17653000D01*
X3937000Y17653000D01*
X3683000Y17653000D01*
X2489845Y17653000D01*
X2368524Y17423110D01*
X660000Y17423110D01*
X660000Y79618100D01*
X684344Y79618100D01*
X687900Y79581995D01*
X687901Y33812715D01*
X684344Y33776600D01*
X698535Y33632515D01*
X735586Y33510377D01*
X740564Y33493967D01*
X808814Y33366280D01*
X900663Y33254362D01*
X928708Y33231346D01*
X2694973Y31465080D01*
X2656525Y31426632D01*
X2494010Y31183411D01*
X2382068Y30913158D01*
X2325000Y30626260D01*
X2325000Y30333740D01*
X2382068Y30046842D01*
X2494010Y29776589D01*
X2656525Y29533368D01*
X2696173Y29493720D01*
X2146208Y28943754D01*
X2118163Y28920738D01*
X2026314Y28808820D01*
X1968490Y28700638D01*
X1958064Y28681133D01*
X1916035Y28542585D01*
X1901844Y28398500D01*
X1905401Y28362385D01*
X1905400Y19837905D01*
X1901844Y19801800D01*
X1915432Y19663838D01*
X1916035Y19657716D01*
X1958063Y19519168D01*
X2026313Y19391481D01*
X2118162Y19279563D01*
X2146208Y19256546D01*
X2673992Y18728761D01*
X2538359Y18546920D01*
X2413175Y18284099D01*
X2368524Y18136890D01*
X2489845Y17907000D01*
X3683000Y17907000D01*
X3683000Y17927000D01*
X3937000Y17927000D01*
X3937000Y17907000D01*
X6223000Y17907000D01*
X6223000Y17927000D01*
X6477000Y17927000D01*
X6477000Y17907000D01*
X7676250Y17907000D01*
X7835000Y18065750D01*
X7836856Y18406600D01*
X8576295Y18406600D01*
X8612400Y18403044D01*
X8648505Y18406600D01*
X8756485Y18417235D01*
X8895033Y18459263D01*
X9022720Y18527513D01*
X9134638Y18619362D01*
X9157659Y18647413D01*
X12849647Y22339400D01*
X16249410Y22339400D01*
X16265610Y22257955D01*
X16332323Y22096895D01*
X16429176Y21951945D01*
X16552445Y21828676D01*
X16697395Y21731823D01*
X16858455Y21665110D01*
X17029435Y21631100D01*
X17203765Y21631100D01*
X17374745Y21665110D01*
X17535805Y21731823D01*
X17680755Y21828676D01*
X17804024Y21951945D01*
X17832859Y21995100D01*
X18543315Y21995100D01*
X18505764Y21871309D01*
X18478057Y21590000D01*
X18505764Y21308691D01*
X18587818Y21038192D01*
X18721068Y20788899D01*
X18900392Y20570392D01*
X19118899Y20391068D01*
X19251858Y20320000D01*
X19118899Y20248932D01*
X18900392Y20069608D01*
X18721068Y19851101D01*
X18587818Y19601808D01*
X18505764Y19331309D01*
X18478057Y19050000D01*
X18505764Y18768691D01*
X18587818Y18498192D01*
X18721068Y18248899D01*
X18900392Y18030392D01*
X19118899Y17851068D01*
X19251858Y17780000D01*
X19118899Y17708932D01*
X18900392Y17529608D01*
X18721068Y17311101D01*
X18587818Y17061808D01*
X18505764Y16791309D01*
X18478057Y16510000D01*
X18505764Y16228691D01*
X18587818Y15958192D01*
X18721068Y15708899D01*
X18900392Y15490392D01*
X19118899Y15311068D01*
X19251858Y15240000D01*
X19118899Y15168932D01*
X18900392Y14989608D01*
X18721068Y14771101D01*
X18587818Y14521808D01*
X18505764Y14251309D01*
X18478057Y13970000D01*
X18505764Y13688691D01*
X18587818Y13418192D01*
X18721068Y13168899D01*
X18900392Y12950392D01*
X19118899Y12771068D01*
X19251858Y12700000D01*
X19118899Y12628932D01*
X18900392Y12449608D01*
X18721068Y12231101D01*
X18587818Y11981808D01*
X18505764Y11711309D01*
X18478057Y11430000D01*
X18505764Y11148691D01*
X18587818Y10878192D01*
X18721068Y10628899D01*
X18900392Y10410392D01*
X19118899Y10231068D01*
X19251858Y10160000D01*
X19118899Y10088932D01*
X18900392Y9909608D01*
X18721068Y9691101D01*
X18587818Y9441808D01*
X18505764Y9171309D01*
X18478057Y8890000D01*
X18505764Y8608691D01*
X18587818Y8338192D01*
X18721068Y8088899D01*
X18900392Y7870392D01*
X19118899Y7691068D01*
X19251858Y7620000D01*
X19118899Y7548932D01*
X18900392Y7369608D01*
X18721068Y7151101D01*
X18587818Y6901808D01*
X18505764Y6631309D01*
X18478057Y6350000D01*
X18505764Y6068691D01*
X18587818Y5798192D01*
X18721068Y5548899D01*
X18900392Y5330392D01*
X19118899Y5151068D01*
X19368192Y5017818D01*
X19638691Y4935764D01*
X19849508Y4915000D01*
X20574133Y4915000D01*
X21889868Y3599264D01*
X21745363Y3454759D01*
X21588320Y3219727D01*
X21480147Y2958574D01*
X21425000Y2681335D01*
X21425000Y2398665D01*
X21480147Y2121426D01*
X21588320Y1860273D01*
X21745363Y1625241D01*
X21945241Y1425363D01*
X22180273Y1268320D01*
X22441426Y1160147D01*
X22718665Y1105000D01*
X23001335Y1105000D01*
X23278574Y1160147D01*
X23539727Y1268320D01*
X23774759Y1425363D01*
X23896694Y1547298D01*
X24546903Y1547298D01*
X24618486Y1303329D01*
X24873996Y1182429D01*
X25148184Y1113700D01*
X25430512Y1099783D01*
X25710130Y1141213D01*
X25976292Y1236397D01*
X26101514Y1303329D01*
X26173097Y1547298D01*
X25360000Y2360395D01*
X24546903Y1547298D01*
X23896694Y1547298D01*
X23974637Y1625241D01*
X24108692Y1825869D01*
X24123329Y1798486D01*
X24367298Y1726903D01*
X25180395Y2540000D01*
X25539605Y2540000D01*
X26352702Y1726903D01*
X26596671Y1798486D01*
X26717571Y2053996D01*
X26786300Y2328184D01*
X26800217Y2610512D01*
X26758787Y2890130D01*
X26663603Y3156292D01*
X26596671Y3281514D01*
X26352702Y3353097D01*
X25539605Y2540000D01*
X25180395Y2540000D01*
X24367298Y3353097D01*
X24123329Y3281514D01*
X24109676Y3252659D01*
X23974637Y3454759D01*
X23896694Y3532702D01*
X24546903Y3532702D01*
X25360000Y2719605D01*
X26173097Y3532702D01*
X26101514Y3776671D01*
X25846004Y3897571D01*
X25571816Y3966300D01*
X25289488Y3980217D01*
X25009870Y3938787D01*
X24743708Y3843603D01*
X24618486Y3776671D01*
X24546903Y3532702D01*
X23896694Y3532702D01*
X23774759Y3654637D01*
X23695000Y3707930D01*
X23695000Y3768993D01*
X23699039Y3810001D01*
X23695000Y3851009D01*
X23695000Y3851019D01*
X23682918Y3973689D01*
X23635172Y4131087D01*
X23557636Y4276146D01*
X23453291Y4403291D01*
X23421427Y4429441D01*
X22052297Y5798571D01*
X22134236Y6068691D01*
X22161943Y6350000D01*
X22134236Y6631309D01*
X22052182Y6901808D01*
X21918932Y7151101D01*
X21739608Y7369608D01*
X21521101Y7548932D01*
X21388142Y7620000D01*
X21521101Y7691068D01*
X21739608Y7870392D01*
X21918932Y8088899D01*
X22052182Y8338192D01*
X22134236Y8608691D01*
X22161943Y8890000D01*
X22134236Y9171309D01*
X22052182Y9441808D01*
X21918932Y9691101D01*
X21739608Y9909608D01*
X21521101Y10088932D01*
X21388142Y10160000D01*
X21521101Y10231068D01*
X21739608Y10410392D01*
X21918932Y10628899D01*
X22052182Y10878192D01*
X22134236Y11148691D01*
X22161943Y11430000D01*
X22134236Y11711309D01*
X22052182Y11981808D01*
X21918932Y12231101D01*
X21739608Y12449608D01*
X21521101Y12628932D01*
X21388142Y12700000D01*
X21521101Y12771068D01*
X21739608Y12950392D01*
X21918932Y13168899D01*
X22052182Y13418192D01*
X22134236Y13688691D01*
X22161943Y13970000D01*
X22134236Y14251309D01*
X22052182Y14521808D01*
X21918932Y14771101D01*
X21739608Y14989608D01*
X21521101Y15168932D01*
X21388142Y15240000D01*
X21521101Y15311068D01*
X21739608Y15490392D01*
X21918932Y15708899D01*
X22052182Y15958192D01*
X22134236Y16228691D01*
X22161943Y16510000D01*
X22134236Y16791309D01*
X22052182Y17061808D01*
X21918932Y17311101D01*
X21739608Y17529608D01*
X21521101Y17708932D01*
X21388142Y17780000D01*
X21521101Y17851068D01*
X21739608Y18030392D01*
X21918932Y18248899D01*
X22052182Y18498192D01*
X22134236Y18768691D01*
X22161943Y19050000D01*
X22134236Y19331309D01*
X22052182Y19601808D01*
X21918932Y19851101D01*
X21739608Y20069608D01*
X21521101Y20248932D01*
X21388142Y20320000D01*
X21521101Y20391068D01*
X21739608Y20570392D01*
X21918932Y20788899D01*
X22052182Y21038192D01*
X22134236Y21308691D01*
X22161943Y21590000D01*
X22134236Y21871309D01*
X22096685Y21995100D01*
X26159973Y21995100D01*
X26148096Y21939039D01*
X26270085Y21717000D01*
X27813000Y21717000D01*
X27813000Y21737000D01*
X28067000Y21737000D01*
X28067000Y21717000D01*
X28087000Y21717000D01*
X28087000Y21463000D01*
X28067000Y21463000D01*
X28067000Y21443000D01*
X27813000Y21443000D01*
X27813000Y21463000D01*
X26270085Y21463000D01*
X26148096Y21240961D01*
X26165633Y21158182D01*
X26276285Y20898354D01*
X26435500Y20665105D01*
X26637161Y20467399D01*
X26866741Y20317265D01*
X26738899Y20248932D01*
X26520392Y20069608D01*
X26341068Y19851101D01*
X26207818Y19601808D01*
X26125764Y19331309D01*
X26098057Y19050000D01*
X26125764Y18768691D01*
X26207818Y18498192D01*
X26341068Y18248899D01*
X26520392Y18030392D01*
X26738899Y17851068D01*
X26871858Y17780000D01*
X26738899Y17708932D01*
X26520392Y17529608D01*
X26341068Y17311101D01*
X26207818Y17061808D01*
X26125764Y16791309D01*
X26098057Y16510000D01*
X26125764Y16228691D01*
X26207818Y15958192D01*
X26341068Y15708899D01*
X26520392Y15490392D01*
X26738899Y15311068D01*
X26871858Y15240000D01*
X26738899Y15168932D01*
X26584844Y15042503D01*
X23604194Y18023152D01*
X23586890Y18110145D01*
X23520177Y18271205D01*
X23423324Y18416155D01*
X23300055Y18539424D01*
X23155105Y18636277D01*
X22994045Y18702990D01*
X22823065Y18737000D01*
X22648735Y18737000D01*
X22477755Y18702990D01*
X22316695Y18636277D01*
X22171745Y18539424D01*
X22048476Y18416155D01*
X21951623Y18271205D01*
X21884910Y18110145D01*
X21850900Y17939165D01*
X21850900Y17764835D01*
X21884910Y17593855D01*
X21951623Y17432795D01*
X22048476Y17287845D01*
X22171745Y17164576D01*
X22316695Y17067723D01*
X22477755Y17001010D01*
X22564748Y16983706D01*
X25714548Y13833905D01*
X25715335Y13825915D01*
X25757363Y13687367D01*
X25825613Y13559680D01*
X25917462Y13447762D01*
X25963908Y13409645D01*
X26029380Y13355913D01*
X26157067Y13287663D01*
X26295615Y13245635D01*
X26300298Y13245174D01*
X26341068Y13168899D01*
X26520392Y12950392D01*
X26738899Y12771068D01*
X26871858Y12700000D01*
X26738899Y12628932D01*
X26520392Y12449608D01*
X26341068Y12231101D01*
X26207818Y11981808D01*
X26125764Y11711309D01*
X26098057Y11430000D01*
X26125764Y11148691D01*
X26207818Y10878192D01*
X26341068Y10628899D01*
X26520392Y10410392D01*
X26738899Y10231068D01*
X26871858Y10160000D01*
X26738899Y10088932D01*
X26520392Y9909608D01*
X26341068Y9691101D01*
X26207818Y9441808D01*
X26125764Y9171309D01*
X26098057Y8890000D01*
X26125764Y8608691D01*
X26207818Y8338192D01*
X26341068Y8088899D01*
X26520392Y7870392D01*
X26633482Y7777581D01*
X26615518Y7775812D01*
X26495820Y7739502D01*
X26385506Y7680537D01*
X26288815Y7601185D01*
X26209463Y7504494D01*
X26150498Y7394180D01*
X26114188Y7274482D01*
X26101928Y7150000D01*
X26101928Y5550000D01*
X26114188Y5425518D01*
X26150498Y5305820D01*
X26209463Y5195506D01*
X26288815Y5098815D01*
X26385506Y5019463D01*
X26495820Y4960498D01*
X26615518Y4924188D01*
X26740000Y4911928D01*
X29140000Y4911928D01*
X29264482Y4924188D01*
X29384180Y4960498D01*
X29494494Y5019463D01*
X29591185Y5098815D01*
X29670537Y5195506D01*
X29729502Y5305820D01*
X29765812Y5425518D01*
X29778072Y5550000D01*
X29778072Y7150000D01*
X29765812Y7274482D01*
X29729502Y7394180D01*
X29670537Y7504494D01*
X29591185Y7601185D01*
X29494494Y7680537D01*
X29384180Y7739502D01*
X29264482Y7775812D01*
X29246518Y7777581D01*
X29359608Y7870392D01*
X29538932Y8088899D01*
X29672182Y8338192D01*
X29754236Y8608691D01*
X29781943Y8890000D01*
X29754236Y9171309D01*
X29672182Y9441808D01*
X29538932Y9691101D01*
X29359608Y9909608D01*
X29141101Y10088932D01*
X29008142Y10160000D01*
X29141101Y10231068D01*
X29359608Y10410392D01*
X29538932Y10628899D01*
X29672182Y10878192D01*
X29754236Y11148691D01*
X29781943Y11430000D01*
X29754236Y11711309D01*
X29672182Y11981808D01*
X29538932Y12231101D01*
X29359608Y12449608D01*
X29141101Y12628932D01*
X29008142Y12700000D01*
X29141101Y12771068D01*
X29359608Y12950392D01*
X29538932Y13168899D01*
X29672182Y13418192D01*
X29754236Y13688691D01*
X29781943Y13970000D01*
X29754236Y14251309D01*
X29672182Y14521808D01*
X29538932Y14771101D01*
X29359608Y14989608D01*
X29141101Y15168932D01*
X29008142Y15240000D01*
X29141101Y15311068D01*
X29359608Y15490392D01*
X29538932Y15708899D01*
X29579702Y15785174D01*
X29584385Y15785635D01*
X29722933Y15827663D01*
X29850620Y15895913D01*
X29962538Y15987762D01*
X29985558Y16015812D01*
X32086097Y18116350D01*
X32114137Y18139362D01*
X32137150Y18167403D01*
X32137153Y18167406D01*
X32162017Y18197703D01*
X32205987Y18251280D01*
X32274237Y18378967D01*
X32316265Y18517515D01*
X32326900Y18625495D01*
X32326900Y18625496D01*
X32330456Y18661600D01*
X32326900Y18697705D01*
X32326900Y19443353D01*
X33214446Y18555807D01*
X33237462Y18527762D01*
X33349380Y18435913D01*
X33477067Y18367663D01*
X33615615Y18325635D01*
X33620298Y18325174D01*
X33661068Y18248899D01*
X33840392Y18030392D01*
X34058899Y17851068D01*
X34191858Y17780000D01*
X34058899Y17708932D01*
X33840392Y17529608D01*
X33661068Y17311101D01*
X33527818Y17061808D01*
X33445764Y16791309D01*
X33418057Y16510000D01*
X33445764Y16228691D01*
X33527818Y15958192D01*
X33661068Y15708899D01*
X33840392Y15490392D01*
X34058899Y15311068D01*
X34191858Y15240000D01*
X34058899Y15168932D01*
X33840392Y14989608D01*
X33661068Y14771101D01*
X33527818Y14521808D01*
X33445764Y14251309D01*
X33418057Y13970000D01*
X33445764Y13688691D01*
X33527818Y13418192D01*
X33661068Y13168899D01*
X33840392Y12950392D01*
X34058899Y12771068D01*
X34191858Y12700000D01*
X34058899Y12628932D01*
X33840392Y12449608D01*
X33661068Y12231101D01*
X33527818Y11981808D01*
X33445764Y11711309D01*
X33418057Y11430000D01*
X33445764Y11148691D01*
X33527818Y10878192D01*
X33661068Y10628899D01*
X33840392Y10410392D01*
X34058899Y10231068D01*
X34191858Y10160000D01*
X34058899Y10088932D01*
X33840392Y9909608D01*
X33661068Y9691101D01*
X33527818Y9441808D01*
X33445764Y9171309D01*
X33418057Y8890000D01*
X33445764Y8608691D01*
X33527818Y8338192D01*
X33661068Y8088899D01*
X33840392Y7870392D01*
X34058899Y7691068D01*
X34191858Y7620000D01*
X34058899Y7548932D01*
X33840392Y7369608D01*
X33661068Y7151101D01*
X33527818Y6901808D01*
X33445764Y6631309D01*
X33418057Y6350000D01*
X33445764Y6068691D01*
X33527818Y5798192D01*
X33661068Y5548899D01*
X33840392Y5330392D01*
X34058899Y5151068D01*
X34308192Y5017818D01*
X34578691Y4935764D01*
X34789508Y4915000D01*
X35730492Y4915000D01*
X35941309Y4935764D01*
X36211808Y5017818D01*
X36461101Y5151068D01*
X36679608Y5330392D01*
X36858932Y5548899D01*
X36859520Y5550000D01*
X48661928Y5550000D01*
X48674188Y5425518D01*
X48710498Y5305820D01*
X48769463Y5195506D01*
X48848815Y5098815D01*
X48945506Y5019463D01*
X49055820Y4960498D01*
X49175518Y4924188D01*
X49300000Y4911928D01*
X50214250Y4915000D01*
X50373000Y5073750D01*
X50373000Y6223000D01*
X50627000Y6223000D01*
X50627000Y5073750D01*
X50785750Y4915000D01*
X51700000Y4911928D01*
X51824482Y4924188D01*
X51944180Y4960498D01*
X52054494Y5019463D01*
X52151185Y5098815D01*
X52230537Y5195506D01*
X52243697Y5220128D01*
X92765000Y5220128D01*
X92765000Y4779872D01*
X92850890Y4348075D01*
X93019369Y3941331D01*
X93263962Y3575271D01*
X93575271Y3263962D01*
X93941331Y3019369D01*
X94348075Y2850890D01*
X94779872Y2765000D01*
X95220128Y2765000D01*
X95651925Y2850890D01*
X96058669Y3019369D01*
X96424729Y3263962D01*
X96736038Y3575271D01*
X96980631Y3941331D01*
X97149110Y4348075D01*
X97235000Y4779872D01*
X97235000Y5220128D01*
X97149110Y5651925D01*
X96980631Y6058669D01*
X96736038Y6424729D01*
X96424729Y6736038D01*
X96058669Y6980631D01*
X95651925Y7149110D01*
X95220128Y7235000D01*
X94779872Y7235000D01*
X94348075Y7149110D01*
X93941331Y6980631D01*
X93575271Y6736038D01*
X93263962Y6424729D01*
X93019369Y6058669D01*
X92850890Y5651925D01*
X92765000Y5220128D01*
X52243697Y5220128D01*
X52289502Y5305820D01*
X52325812Y5425518D01*
X52338072Y5550000D01*
X52335000Y6064250D01*
X52176250Y6223000D01*
X50627000Y6223000D01*
X50373000Y6223000D01*
X48823750Y6223000D01*
X48665000Y6064250D01*
X48661928Y5550000D01*
X36859520Y5550000D01*
X36992182Y5798192D01*
X37074236Y6068691D01*
X37101943Y6350000D01*
X37074236Y6631309D01*
X36992182Y6901808D01*
X36858932Y7151101D01*
X36679608Y7369608D01*
X36461101Y7548932D01*
X36328142Y7620000D01*
X36461101Y7691068D01*
X36679608Y7870392D01*
X36858932Y8088899D01*
X36992182Y8338192D01*
X37074236Y8608691D01*
X37101943Y8890000D01*
X37074236Y9171309D01*
X36992182Y9441808D01*
X36858932Y9691101D01*
X36679608Y9909608D01*
X36461101Y10088932D01*
X36328142Y10160000D01*
X36461101Y10231068D01*
X36679608Y10410392D01*
X36858932Y10628899D01*
X36992182Y10878192D01*
X37074236Y11148691D01*
X37101943Y11430000D01*
X37074236Y11711309D01*
X36992182Y11981808D01*
X36858932Y12231101D01*
X36679608Y12449608D01*
X36461101Y12628932D01*
X36328142Y12700000D01*
X36461101Y12771068D01*
X36679608Y12950392D01*
X36858932Y13168899D01*
X36992182Y13418192D01*
X37074236Y13688691D01*
X37101943Y13970000D01*
X37074236Y14251309D01*
X36992182Y14521808D01*
X36858932Y14771101D01*
X36679608Y14989608D01*
X36461101Y15168932D01*
X36328142Y15240000D01*
X36461101Y15311068D01*
X36679608Y15490392D01*
X36858932Y15708899D01*
X36992182Y15958192D01*
X37074236Y16228691D01*
X37101943Y16510000D01*
X37074236Y16791309D01*
X36992182Y17061808D01*
X36858932Y17311101D01*
X36679608Y17529608D01*
X36461101Y17708932D01*
X36328142Y17780000D01*
X36461101Y17851068D01*
X36679608Y18030392D01*
X36858932Y18248899D01*
X36992182Y18498192D01*
X37074236Y18768691D01*
X37101943Y19050000D01*
X37074236Y19331309D01*
X36992182Y19601808D01*
X36858932Y19851101D01*
X36679608Y20069608D01*
X36461101Y20248932D01*
X36328142Y20320000D01*
X36461101Y20391068D01*
X36679608Y20570392D01*
X36858932Y20788899D01*
X36992182Y21038192D01*
X37074236Y21308691D01*
X37101943Y21590000D01*
X37074236Y21871309D01*
X36992182Y22141808D01*
X36858932Y22391101D01*
X36772439Y22496493D01*
X48668120Y34392173D01*
X48658057Y34290000D01*
X48685764Y34008691D01*
X48767818Y33738192D01*
X48901068Y33488899D01*
X49080392Y33270392D01*
X49298899Y33091068D01*
X49431858Y33020000D01*
X49298899Y32948932D01*
X49080392Y32769608D01*
X48901068Y32551101D01*
X48767818Y32301808D01*
X48685764Y32031309D01*
X48658057Y31750000D01*
X48685764Y31468691D01*
X48767818Y31198192D01*
X48901068Y30948899D01*
X49080392Y30730392D01*
X49298899Y30551068D01*
X49431858Y30480000D01*
X49298899Y30408932D01*
X49080392Y30229608D01*
X48901068Y30011101D01*
X48767818Y29761808D01*
X48685764Y29491309D01*
X48658057Y29210000D01*
X48685764Y28928691D01*
X48767818Y28658192D01*
X48901068Y28408899D01*
X49080392Y28190392D01*
X49298899Y28011068D01*
X49431858Y27940000D01*
X49298899Y27868932D01*
X49080392Y27689608D01*
X48901068Y27471101D01*
X48767818Y27221808D01*
X48685764Y26951309D01*
X48658057Y26670000D01*
X48685764Y26388691D01*
X48767818Y26118192D01*
X48901068Y25868899D01*
X49080392Y25650392D01*
X49298899Y25471068D01*
X49431858Y25400000D01*
X49298899Y25328932D01*
X49080392Y25149608D01*
X48901068Y24931101D01*
X48767818Y24681808D01*
X48685764Y24411309D01*
X48658057Y24130000D01*
X48685764Y23848691D01*
X48767818Y23578192D01*
X48901068Y23328899D01*
X49080392Y23110392D01*
X49298899Y22931068D01*
X49431858Y22860000D01*
X49298899Y22788932D01*
X49080392Y22609608D01*
X48901068Y22391101D01*
X48767818Y22141808D01*
X48685764Y21871309D01*
X48658057Y21590000D01*
X48685764Y21308691D01*
X48767818Y21038192D01*
X48901068Y20788899D01*
X49080392Y20570392D01*
X49298899Y20391068D01*
X49431858Y20320000D01*
X49298899Y20248932D01*
X49080392Y20069608D01*
X48901068Y19851101D01*
X48767818Y19601808D01*
X48685764Y19331309D01*
X48658057Y19050000D01*
X48685764Y18768691D01*
X48767818Y18498192D01*
X48901068Y18248899D01*
X49080392Y18030392D01*
X49298899Y17851068D01*
X49431858Y17780000D01*
X49298899Y17708932D01*
X49080392Y17529608D01*
X48901068Y17311101D01*
X48767818Y17061808D01*
X48685764Y16791309D01*
X48658057Y16510000D01*
X48685764Y16228691D01*
X48767818Y15958192D01*
X48901068Y15708899D01*
X49080392Y15490392D01*
X49298899Y15311068D01*
X49431858Y15240000D01*
X49298899Y15168932D01*
X49080392Y14989608D01*
X48901068Y14771101D01*
X48767818Y14521808D01*
X48685764Y14251309D01*
X48658057Y13970000D01*
X48685764Y13688691D01*
X48767818Y13418192D01*
X48901068Y13168899D01*
X49080392Y12950392D01*
X49298899Y12771068D01*
X49431858Y12700000D01*
X49298899Y12628932D01*
X49080392Y12449608D01*
X48901068Y12231101D01*
X48767818Y11981808D01*
X48685764Y11711309D01*
X48658057Y11430000D01*
X48685764Y11148691D01*
X48767818Y10878192D01*
X48901068Y10628899D01*
X49080392Y10410392D01*
X49298899Y10231068D01*
X49431858Y10160000D01*
X49298899Y10088932D01*
X49080392Y9909608D01*
X48901068Y9691101D01*
X48767818Y9441808D01*
X48685764Y9171309D01*
X48658057Y8890000D01*
X48685764Y8608691D01*
X48767818Y8338192D01*
X48901068Y8088899D01*
X49080392Y7870392D01*
X49193482Y7777581D01*
X49175518Y7775812D01*
X49055820Y7739502D01*
X48945506Y7680537D01*
X48848815Y7601185D01*
X48769463Y7504494D01*
X48710498Y7394180D01*
X48674188Y7274482D01*
X48661928Y7150000D01*
X48665000Y6635750D01*
X48823750Y6477000D01*
X50373000Y6477000D01*
X50373000Y6497000D01*
X50627000Y6497000D01*
X50627000Y6477000D01*
X52176250Y6477000D01*
X52335000Y6635750D01*
X52338072Y7150000D01*
X52325812Y7274482D01*
X52289502Y7394180D01*
X52230537Y7504494D01*
X52151185Y7601185D01*
X52054494Y7680537D01*
X51944180Y7739502D01*
X51824482Y7775812D01*
X51806518Y7777581D01*
X51919608Y7870392D01*
X52098932Y8088899D01*
X52134264Y8155000D01*
X56775895Y8155000D01*
X56812000Y8151444D01*
X56848105Y8155000D01*
X56956085Y8165635D01*
X57094633Y8207663D01*
X57222320Y8275913D01*
X57334238Y8367762D01*
X57357259Y8395813D01*
X60967692Y12006246D01*
X61115363Y11785241D01*
X61315241Y11585363D01*
X61550273Y11428320D01*
X61811426Y11320147D01*
X62088665Y11265000D01*
X62371335Y11265000D01*
X62648574Y11320147D01*
X62909727Y11428320D01*
X63144759Y11585363D01*
X63344637Y11785241D01*
X63500000Y12017759D01*
X63655363Y11785241D01*
X63855241Y11585363D01*
X64090273Y11428320D01*
X64351426Y11320147D01*
X64628665Y11265000D01*
X64911335Y11265000D01*
X65188574Y11320147D01*
X65449727Y11428320D01*
X65684759Y11585363D01*
X65884637Y11785241D01*
X66040000Y12017759D01*
X66195363Y11785241D01*
X66395241Y11585363D01*
X66630273Y11428320D01*
X66891426Y11320147D01*
X67168665Y11265000D01*
X67451335Y11265000D01*
X67728574Y11320147D01*
X67989727Y11428320D01*
X68224759Y11585363D01*
X68424637Y11785241D01*
X68580000Y12017759D01*
X68735363Y11785241D01*
X68935241Y11585363D01*
X69170273Y11428320D01*
X69431426Y11320147D01*
X69708665Y11265000D01*
X69991335Y11265000D01*
X70268574Y11320147D01*
X70529727Y11428320D01*
X70764759Y11585363D01*
X70964637Y11785241D01*
X71120000Y12017759D01*
X71275363Y11785241D01*
X71475241Y11585363D01*
X71710273Y11428320D01*
X71971426Y11320147D01*
X72248665Y11265000D01*
X72531335Y11265000D01*
X72808574Y11320147D01*
X73069727Y11428320D01*
X73304759Y11585363D01*
X73504637Y11785241D01*
X73660000Y12017759D01*
X73815363Y11785241D01*
X74015241Y11585363D01*
X74250273Y11428320D01*
X74511426Y11320147D01*
X74788665Y11265000D01*
X75071335Y11265000D01*
X75348574Y11320147D01*
X75609727Y11428320D01*
X75844759Y11585363D01*
X76044637Y11785241D01*
X76200000Y12017759D01*
X76355363Y11785241D01*
X76555241Y11585363D01*
X76790273Y11428320D01*
X77051426Y11320147D01*
X77328665Y11265000D01*
X77611335Y11265000D01*
X77888574Y11320147D01*
X78149727Y11428320D01*
X78384759Y11585363D01*
X78584637Y11785241D01*
X78740000Y12017759D01*
X78895363Y11785241D01*
X79095241Y11585363D01*
X79330273Y11428320D01*
X79591426Y11320147D01*
X79868665Y11265000D01*
X80151335Y11265000D01*
X80428574Y11320147D01*
X80689727Y11428320D01*
X80924759Y11585363D01*
X81124637Y11785241D01*
X81280000Y12017759D01*
X81435363Y11785241D01*
X81635241Y11585363D01*
X81870273Y11428320D01*
X82131426Y11320147D01*
X82408665Y11265000D01*
X82691335Y11265000D01*
X82968574Y11320147D01*
X83229727Y11428320D01*
X83464759Y11585363D01*
X83664637Y11785241D01*
X83820000Y12017759D01*
X83975363Y11785241D01*
X84175241Y11585363D01*
X84410273Y11428320D01*
X84671426Y11320147D01*
X84948665Y11265000D01*
X85231335Y11265000D01*
X85508574Y11320147D01*
X85769727Y11428320D01*
X86004759Y11585363D01*
X86204637Y11785241D01*
X86361680Y12020273D01*
X86366067Y12030865D01*
X86477615Y11844869D01*
X86666586Y11636481D01*
X86892580Y11468963D01*
X87146913Y11348754D01*
X87280961Y11308096D01*
X87503000Y11430085D01*
X87503000Y12573000D01*
X87483000Y12573000D01*
X87483000Y12827000D01*
X87503000Y12827000D01*
X87503000Y13969915D01*
X87757000Y13969915D01*
X87757000Y12827000D01*
X87777000Y12827000D01*
X87777000Y12573000D01*
X87757000Y12573000D01*
X87757000Y11430085D01*
X87979039Y11308096D01*
X88113087Y11348754D01*
X88367420Y11468963D01*
X88593414Y11636481D01*
X88782385Y11844869D01*
X88893933Y12030865D01*
X88898320Y12020273D01*
X89055363Y11785241D01*
X89255241Y11585363D01*
X89490273Y11428320D01*
X89751426Y11320147D01*
X90028665Y11265000D01*
X90311335Y11265000D01*
X90588574Y11320147D01*
X90849727Y11428320D01*
X91084759Y11585363D01*
X91284637Y11785241D01*
X91441680Y12020273D01*
X91549853Y12281426D01*
X91605000Y12558665D01*
X91605000Y12841335D01*
X91549853Y13118574D01*
X91441680Y13379727D01*
X91284637Y13614759D01*
X91084759Y13814637D01*
X90849727Y13971680D01*
X90588574Y14079853D01*
X90311335Y14135000D01*
X90028665Y14135000D01*
X89751426Y14079853D01*
X89490273Y13971680D01*
X89255241Y13814637D01*
X89055363Y13614759D01*
X88898320Y13379727D01*
X88893933Y13369135D01*
X88782385Y13555131D01*
X88593414Y13763519D01*
X88367420Y13931037D01*
X88113087Y14051246D01*
X87979039Y14091904D01*
X87757000Y13969915D01*
X87503000Y13969915D01*
X87280961Y14091904D01*
X87146913Y14051246D01*
X86892580Y13931037D01*
X86666586Y13763519D01*
X86477615Y13555131D01*
X86366067Y13369135D01*
X86361680Y13379727D01*
X86204637Y13614759D01*
X86004759Y13814637D01*
X85769727Y13971680D01*
X85508574Y14079853D01*
X85231335Y14135000D01*
X84948665Y14135000D01*
X84671426Y14079853D01*
X84410273Y13971680D01*
X84175241Y13814637D01*
X83975363Y13614759D01*
X83820000Y13382241D01*
X83664637Y13614759D01*
X83464759Y13814637D01*
X83229727Y13971680D01*
X82968574Y14079853D01*
X82691335Y14135000D01*
X82408665Y14135000D01*
X82131426Y14079853D01*
X82118856Y14074646D01*
X82194759Y14125363D01*
X82394637Y14325241D01*
X82551680Y14560273D01*
X82659853Y14821426D01*
X82715000Y15098665D01*
X82715000Y15381335D01*
X82659853Y15658574D01*
X82551680Y15919727D01*
X82394637Y16154759D01*
X82264271Y16285125D01*
X86718493Y20739346D01*
X86746538Y20762362D01*
X86838387Y20874280D01*
X86906637Y21001967D01*
X86948665Y21140515D01*
X86959300Y21248495D01*
X86959300Y21248502D01*
X86962855Y21284599D01*
X86959300Y21320696D01*
X86959300Y26664581D01*
X87211426Y26560147D01*
X87488665Y26505000D01*
X87771335Y26505000D01*
X88048574Y26560147D01*
X88309727Y26668320D01*
X88544759Y26825363D01*
X88743357Y27023961D01*
X88744188Y27015518D01*
X88780498Y26895820D01*
X88839463Y26785506D01*
X88918815Y26688815D01*
X89015506Y26609463D01*
X89125820Y26550498D01*
X89245518Y26514188D01*
X89370000Y26501928D01*
X90970000Y26501928D01*
X91094482Y26514188D01*
X91214180Y26550498D01*
X91324494Y26609463D01*
X91421185Y26688815D01*
X91500537Y26785506D01*
X91559502Y26895820D01*
X91595812Y27015518D01*
X91608072Y27140000D01*
X91608072Y28740000D01*
X91595812Y28864482D01*
X91559502Y28984180D01*
X91500537Y29094494D01*
X91421185Y29191185D01*
X91324494Y29270537D01*
X91214180Y29329502D01*
X91094482Y29365812D01*
X90970000Y29378072D01*
X89370000Y29378072D01*
X89245518Y29365812D01*
X89125820Y29329502D01*
X89015506Y29270537D01*
X88918815Y29191185D01*
X88839463Y29094494D01*
X88780498Y28984180D01*
X88744188Y28864482D01*
X88743357Y28856039D01*
X88544759Y29054637D01*
X88309727Y29211680D01*
X88048574Y29319853D01*
X87771335Y29375000D01*
X87488665Y29375000D01*
X87211426Y29319853D01*
X86950273Y29211680D01*
X86715241Y29054637D01*
X86645075Y28984471D01*
X78305359Y37324187D01*
X78282338Y37352238D01*
X78170420Y37444087D01*
X78042733Y37512337D01*
X77904185Y37554365D01*
X77796205Y37565000D01*
X77760100Y37568556D01*
X77723995Y37565000D01*
X71235748Y37565000D01*
X71277932Y37666842D01*
X71335000Y37953740D01*
X71335000Y38246260D01*
X93765000Y38246260D01*
X93765000Y37953740D01*
X93822068Y37666842D01*
X93934010Y37396589D01*
X94096525Y37153368D01*
X94303368Y36946525D01*
X94546589Y36784010D01*
X94816842Y36672068D01*
X95103740Y36615000D01*
X95396260Y36615000D01*
X95683158Y36672068D01*
X95953411Y36784010D01*
X96196632Y36946525D01*
X96403475Y37153368D01*
X96520000Y37327760D01*
X96636525Y37153368D01*
X96843368Y36946525D01*
X97086589Y36784010D01*
X97356842Y36672068D01*
X97643740Y36615000D01*
X97936260Y36615000D01*
X98223158Y36672068D01*
X98493411Y36784010D01*
X98736632Y36946525D01*
X98943475Y37153368D01*
X99105990Y37396589D01*
X99217932Y37666842D01*
X99275000Y37953740D01*
X99275000Y38246260D01*
X99217932Y38533158D01*
X99105990Y38803411D01*
X98943475Y39046632D01*
X98736632Y39253475D01*
X98493411Y39415990D01*
X98223158Y39527932D01*
X97936260Y39585000D01*
X97643740Y39585000D01*
X97356842Y39527932D01*
X97086589Y39415990D01*
X96843368Y39253475D01*
X96636525Y39046632D01*
X96520000Y38872240D01*
X96403475Y39046632D01*
X96196632Y39253475D01*
X95953411Y39415990D01*
X95683158Y39527932D01*
X95396260Y39585000D01*
X95103740Y39585000D01*
X94816842Y39527932D01*
X94546589Y39415990D01*
X94303368Y39253475D01*
X94096525Y39046632D01*
X93934010Y38803411D01*
X93822068Y38533158D01*
X93765000Y38246260D01*
X71335000Y38246260D01*
X71277932Y38533158D01*
X71165990Y38803411D01*
X71003475Y39046632D01*
X70796632Y39253475D01*
X70622240Y39370000D01*
X70796632Y39486525D01*
X71003475Y39693368D01*
X71165990Y39936589D01*
X71277932Y40206842D01*
X71335000Y40493740D01*
X71335000Y40786260D01*
X71277932Y41073158D01*
X71165990Y41343411D01*
X71003475Y41586632D01*
X70796632Y41793475D01*
X70622240Y41910000D01*
X70796632Y42026525D01*
X71003475Y42233368D01*
X71165990Y42476589D01*
X71277932Y42746842D01*
X71335000Y43033740D01*
X71335000Y43326260D01*
X71277932Y43613158D01*
X71165990Y43883411D01*
X71003475Y44126632D01*
X70796632Y44333475D01*
X70622240Y44450000D01*
X70796632Y44566525D01*
X71003475Y44773368D01*
X71165990Y45016589D01*
X71277932Y45286842D01*
X71335000Y45573740D01*
X71335000Y45866260D01*
X71277932Y46153158D01*
X71165990Y46423411D01*
X71003475Y46666632D01*
X70796632Y46873475D01*
X70622240Y46990000D01*
X70796632Y47106525D01*
X71003475Y47313368D01*
X71165990Y47556589D01*
X71277932Y47826842D01*
X71335000Y48113740D01*
X71335000Y48406260D01*
X71277932Y48693158D01*
X71165990Y48963411D01*
X71003475Y49206632D01*
X70796632Y49413475D01*
X70614466Y49535195D01*
X70731355Y49604822D01*
X70947588Y49799731D01*
X71121641Y50033080D01*
X71246825Y50295901D01*
X71291476Y50443110D01*
X71170155Y50673000D01*
X69977000Y50673000D01*
X69977000Y50653000D01*
X69723000Y50653000D01*
X69723000Y50673000D01*
X68529845Y50673000D01*
X68408524Y50443110D01*
X68453175Y50295901D01*
X68578359Y50033080D01*
X68752412Y49799731D01*
X68968645Y49604822D01*
X69085534Y49535195D01*
X68903368Y49413475D01*
X68696525Y49206632D01*
X68546078Y48981472D01*
X68417067Y48942337D01*
X68289380Y48874087D01*
X68177462Y48782238D01*
X68154446Y48754193D01*
X63950254Y44550000D01*
X62254883Y44550000D01*
X62113475Y44761632D01*
X61906632Y44968475D01*
X61732240Y45085000D01*
X61906632Y45201525D01*
X62113475Y45408368D01*
X62275990Y45651589D01*
X62387932Y45921842D01*
X62445000Y46208740D01*
X62445000Y46501260D01*
X62387932Y46788158D01*
X62275990Y47058411D01*
X62113475Y47301632D01*
X61906632Y47508475D01*
X61732240Y47625000D01*
X61906632Y47741525D01*
X62113475Y47948368D01*
X62275990Y48191589D01*
X62387932Y48461842D01*
X62445000Y48748740D01*
X62445000Y49041260D01*
X62387932Y49328158D01*
X62345748Y49430000D01*
X63111595Y49430000D01*
X63147700Y49426444D01*
X63183805Y49430000D01*
X63291785Y49440635D01*
X63430333Y49482663D01*
X63558020Y49550913D01*
X63669938Y49642762D01*
X63692959Y49670813D01*
X67919347Y53897200D01*
X68473448Y53897200D01*
X68422068Y53773158D01*
X68365000Y53486260D01*
X68365000Y53193740D01*
X68422068Y52906842D01*
X68534010Y52636589D01*
X68696525Y52393368D01*
X68903368Y52186525D01*
X69085534Y52064805D01*
X68968645Y51995178D01*
X68752412Y51800269D01*
X68578359Y51566920D01*
X68453175Y51304099D01*
X68408524Y51156890D01*
X68529845Y50927000D01*
X69723000Y50927000D01*
X69723000Y50947000D01*
X69977000Y50947000D01*
X69977000Y50927000D01*
X71170155Y50927000D01*
X71291476Y51156890D01*
X71246825Y51304099D01*
X71121641Y51566920D01*
X70947588Y51800269D01*
X70731355Y51995178D01*
X70614466Y52064805D01*
X70796632Y52186525D01*
X71003475Y52393368D01*
X71165990Y52636589D01*
X71277932Y52906842D01*
X71335000Y53193740D01*
X71335000Y53486260D01*
X71277932Y53773158D01*
X71226552Y53897200D01*
X71336395Y53897200D01*
X71372500Y53893644D01*
X71408605Y53897200D01*
X71516585Y53907835D01*
X71655133Y53949863D01*
X71782820Y54018113D01*
X71894738Y54109962D01*
X71917759Y54138013D01*
X76346006Y58566260D01*
X93765000Y58566260D01*
X93765000Y58273740D01*
X93822068Y57986842D01*
X93934010Y57716589D01*
X94096525Y57473368D01*
X94303368Y57266525D01*
X94546589Y57104010D01*
X94816842Y56992068D01*
X95103740Y56935000D01*
X95396260Y56935000D01*
X95683158Y56992068D01*
X95953411Y57104010D01*
X96196632Y57266525D01*
X96403475Y57473368D01*
X96520000Y57647760D01*
X96636525Y57473368D01*
X96843368Y57266525D01*
X97086589Y57104010D01*
X97356842Y56992068D01*
X97643740Y56935000D01*
X97936260Y56935000D01*
X98223158Y56992068D01*
X98493411Y57104010D01*
X98736632Y57266525D01*
X98943475Y57473368D01*
X99105990Y57716589D01*
X99217932Y57986842D01*
X99275000Y58273740D01*
X99275000Y58566260D01*
X99217932Y58853158D01*
X99105990Y59123411D01*
X98943475Y59366632D01*
X98736632Y59573475D01*
X98493411Y59735990D01*
X98223158Y59847932D01*
X97936260Y59905000D01*
X97643740Y59905000D01*
X97356842Y59847932D01*
X97086589Y59735990D01*
X96843368Y59573475D01*
X96636525Y59366632D01*
X96520000Y59192240D01*
X96403475Y59366632D01*
X96196632Y59573475D01*
X95953411Y59735990D01*
X95683158Y59847932D01*
X95396260Y59905000D01*
X95103740Y59905000D01*
X94816842Y59847932D01*
X94546589Y59735990D01*
X94303368Y59573475D01*
X94096525Y59366632D01*
X93934010Y59123411D01*
X93822068Y58853158D01*
X93765000Y58566260D01*
X76346006Y58566260D01*
X86854194Y69074447D01*
X86882238Y69097462D01*
X86974087Y69209380D01*
X87042337Y69337067D01*
X87084365Y69475615D01*
X87084826Y69480298D01*
X87161101Y69521068D01*
X87379608Y69700392D01*
X87558932Y69918899D01*
X87630000Y70051858D01*
X87701068Y69918899D01*
X87880393Y69700392D01*
X88098900Y69521068D01*
X88348193Y69387818D01*
X88618692Y69305764D01*
X88900000Y69278057D01*
X89181309Y69305764D01*
X89451808Y69387818D01*
X89701101Y69521068D01*
X89919608Y69700392D01*
X90098932Y69918899D01*
X90167265Y70046741D01*
X90317399Y69817161D01*
X90515105Y69615500D01*
X90748354Y69456285D01*
X91008182Y69345633D01*
X91090961Y69328096D01*
X91313000Y69450085D01*
X91313000Y70993000D01*
X91567000Y70993000D01*
X91567000Y69450085D01*
X91789039Y69328096D01*
X91871818Y69345633D01*
X92131646Y69456285D01*
X92364895Y69615500D01*
X92562601Y69817161D01*
X92717166Y70053517D01*
X92822650Y70315486D01*
X92875000Y70593000D01*
X92875000Y70993000D01*
X91567000Y70993000D01*
X91313000Y70993000D01*
X91293000Y70993000D01*
X91293000Y71247000D01*
X91313000Y71247000D01*
X91313000Y72789915D01*
X91567000Y72789915D01*
X91567000Y71247000D01*
X92875000Y71247000D01*
X92875000Y71647000D01*
X92822650Y71924514D01*
X92717166Y72186483D01*
X92562601Y72422839D01*
X92364895Y72624500D01*
X92131646Y72783715D01*
X91871818Y72894367D01*
X91789039Y72911904D01*
X91567000Y72789915D01*
X91313000Y72789915D01*
X91090961Y72911904D01*
X91008182Y72894367D01*
X90748354Y72783715D01*
X90515105Y72624500D01*
X90317399Y72422839D01*
X90167265Y72193259D01*
X90098932Y72321101D01*
X89919607Y72539608D01*
X89701100Y72718932D01*
X89451807Y72852182D01*
X89181308Y72934236D01*
X88900000Y72961943D01*
X88618691Y72934236D01*
X88348192Y72852182D01*
X88098899Y72718932D01*
X87880392Y72539607D01*
X87701068Y72321100D01*
X87630000Y72188142D01*
X87558932Y72321101D01*
X87379607Y72539608D01*
X87161100Y72718932D01*
X86911807Y72852182D01*
X86641308Y72934236D01*
X86360000Y72961943D01*
X86078691Y72934236D01*
X85825000Y72857281D01*
X85825000Y78205254D01*
X91934193Y84314446D01*
X91962238Y84337462D01*
X92054087Y84449380D01*
X92122337Y84577067D01*
X92151616Y84673586D01*
X92164365Y84715614D01*
X92164826Y84720298D01*
X92241101Y84761068D01*
X92459608Y84940392D01*
X92638932Y85158899D01*
X92772182Y85408192D01*
X92854236Y85678691D01*
X92875000Y85889509D01*
X92875000Y86830492D01*
X92854236Y87041309D01*
X92772182Y87311808D01*
X92638932Y87561101D01*
X92459607Y87779608D01*
X92241100Y87958932D01*
X91991807Y88092182D01*
X91721308Y88174236D01*
X91440000Y88201943D01*
X91158691Y88174236D01*
X90888192Y88092182D01*
X90638899Y87958932D01*
X90420392Y87779607D01*
X90241068Y87561100D01*
X90170000Y87428142D01*
X90098932Y87561101D01*
X89919607Y87779608D01*
X89701100Y87958932D01*
X89451807Y88092182D01*
X89181308Y88174236D01*
X88900000Y88201943D01*
X88618691Y88174236D01*
X88348192Y88092182D01*
X88098899Y87958932D01*
X87880392Y87779607D01*
X87701068Y87561100D01*
X87630000Y87428142D01*
X87558932Y87561101D01*
X87379607Y87779608D01*
X87161100Y87958932D01*
X86911807Y88092182D01*
X86641308Y88174236D01*
X86360000Y88201943D01*
X86078691Y88174236D01*
X85808192Y88092182D01*
X85558899Y87958932D01*
X85340392Y87779607D01*
X85161068Y87561100D01*
X85090000Y87428142D01*
X85018932Y87561101D01*
X84839607Y87779608D01*
X84621100Y87958932D01*
X84371807Y88092182D01*
X84101308Y88174236D01*
X83820000Y88201943D01*
X83538691Y88174236D01*
X83268192Y88092182D01*
X83018899Y87958932D01*
X82852322Y87822225D01*
X82320058Y88354488D01*
X82297038Y88382538D01*
X82185120Y88474387D01*
X82057433Y88542637D01*
X81918885Y88584665D01*
X81810905Y88595300D01*
X81774800Y88598856D01*
X81738695Y88595300D01*
X80339646Y88595300D01*
X83766981Y92022634D01*
X84021842Y91917068D01*
X84308740Y91860000D01*
X84601260Y91860000D01*
X84888158Y91917068D01*
X85158411Y92029010D01*
X85401632Y92191525D01*
X85608475Y92398368D01*
X85684338Y92511905D01*
X85703681Y92510000D01*
X85703682Y92510000D01*
X85744700Y92505960D01*
X85768095Y92508264D01*
X85841525Y92398368D01*
X86048368Y92191525D01*
X86291589Y92029010D01*
X86561842Y91917068D01*
X86848740Y91860000D01*
X87141260Y91860000D01*
X87428158Y91917068D01*
X87698411Y92029010D01*
X87941632Y92191525D01*
X88148475Y92398368D01*
X88310990Y92641589D01*
X88422932Y92911842D01*
X88480000Y93198740D01*
X88480000Y93491260D01*
X88422932Y93778158D01*
X88310990Y94048411D01*
X88148475Y94291632D01*
X87941632Y94498475D01*
X87698411Y94660990D01*
X87428158Y94772932D01*
X87141260Y94830000D01*
X86848740Y94830000D01*
X86561842Y94772932D01*
X86291589Y94660990D01*
X86193332Y94595337D01*
X85627745Y95160922D01*
X85601591Y95192791D01*
X85568281Y95220128D01*
X92765000Y95220128D01*
X92765000Y94779872D01*
X92850890Y94348075D01*
X93019369Y93941331D01*
X93263962Y93575271D01*
X93575271Y93263962D01*
X93941331Y93019369D01*
X94348075Y92850890D01*
X94779872Y92765000D01*
X95220128Y92765000D01*
X95651925Y92850890D01*
X96058669Y93019369D01*
X96424729Y93263962D01*
X96736038Y93575271D01*
X96980631Y93941331D01*
X97149110Y94348075D01*
X97235000Y94779872D01*
X97235000Y95220128D01*
X97149110Y95651925D01*
X96980631Y96058669D01*
X96736038Y96424729D01*
X96424729Y96736038D01*
X96058669Y96980631D01*
X95651925Y97149110D01*
X95220128Y97235000D01*
X94779872Y97235000D01*
X94348075Y97149110D01*
X93941331Y96980631D01*
X93575271Y96736038D01*
X93263962Y96424729D01*
X93019369Y96058669D01*
X92850890Y95651925D01*
X92765000Y95220128D01*
X85568281Y95220128D01*
X85474446Y95297136D01*
X85329387Y95374672D01*
X85171989Y95422418D01*
X85049319Y95434500D01*
X85049318Y95434500D01*
X85008300Y95438540D01*
X84967282Y95434500D01*
X67662418Y95434500D01*
X67621400Y95438540D01*
X67580381Y95434500D01*
X67457711Y95422418D01*
X67300313Y95374672D01*
X67155254Y95297136D01*
X67028109Y95192791D01*
X67001963Y95160932D01*
X66021033Y94180000D01*
X62823065Y94180000D01*
X62748475Y94291632D01*
X62541632Y94498475D01*
X62298411Y94660990D01*
X62028158Y94772932D01*
X61741260Y94830000D01*
X61448740Y94830000D01*
X61161842Y94772932D01*
X60891589Y94660990D01*
X60648368Y94498475D01*
X60441525Y94291632D01*
X60325000Y94117240D01*
X60208475Y94291632D01*
X60001632Y94498475D01*
X59758411Y94660990D01*
X59488158Y94772932D01*
X59201260Y94830000D01*
X58908740Y94830000D01*
X58621842Y94772932D01*
X58351589Y94660990D01*
X58108368Y94498475D01*
X57976513Y94366620D01*
X57954502Y94439180D01*
X57895537Y94549494D01*
X57816185Y94646185D01*
X57719494Y94725537D01*
X57609180Y94784502D01*
X57489482Y94820812D01*
X57365000Y94833072D01*
X56800750Y94830000D01*
X56642000Y94671250D01*
X56642000Y93472000D01*
X56662000Y93472000D01*
X56662000Y93218000D01*
X56642000Y93218000D01*
X56642000Y92018750D01*
X56800750Y91860000D01*
X57365000Y91856928D01*
X57489482Y91869188D01*
X57609180Y91905498D01*
X57719494Y91964463D01*
X57816185Y92043815D01*
X57895537Y92140506D01*
X57954502Y92250820D01*
X57976513Y92323380D01*
X58108368Y92191525D01*
X58351589Y92029010D01*
X58621842Y91917068D01*
X58908740Y91860000D01*
X59201260Y91860000D01*
X59488158Y91917068D01*
X59758411Y92029010D01*
X60001632Y92191525D01*
X60208475Y92398368D01*
X60325000Y92572760D01*
X60441525Y92398368D01*
X60648368Y92191525D01*
X60891589Y92029010D01*
X61161842Y91917068D01*
X61448740Y91860000D01*
X61741260Y91860000D01*
X62028158Y91917068D01*
X62298411Y92029010D01*
X62541632Y92191525D01*
X62748475Y92398368D01*
X62823065Y92510000D01*
X66325882Y92510000D01*
X66366900Y92505960D01*
X66407918Y92510000D01*
X66407919Y92510000D01*
X66530589Y92522082D01*
X66687987Y92569828D01*
X66833046Y92647364D01*
X66960191Y92751709D01*
X66986345Y92783578D01*
X67967269Y93764500D01*
X80429272Y93764500D01*
X80430000Y93630750D01*
X80588750Y93472000D01*
X81788000Y93472000D01*
X81788000Y93492000D01*
X82042000Y93492000D01*
X82042000Y93472000D01*
X82062000Y93472000D01*
X82062000Y93218000D01*
X82042000Y93218000D01*
X82042000Y93198000D01*
X81788000Y93198000D01*
X81788000Y93218000D01*
X80588750Y93218000D01*
X80430000Y93059250D01*
X80426928Y92495000D01*
X80439188Y92370518D01*
X80475498Y92250820D01*
X80534463Y92140506D01*
X80613815Y92043815D01*
X80710506Y91964463D01*
X80820820Y91905498D01*
X80940518Y91869188D01*
X81065000Y91856928D01*
X81524885Y91859432D01*
X78661054Y88995600D01*
X61396405Y88995600D01*
X61360300Y88999156D01*
X61216215Y88984965D01*
X61077666Y88942937D01*
X61064883Y88936104D01*
X60949980Y88874687D01*
X60838062Y88782838D01*
X60815041Y88754787D01*
X60465808Y88405554D01*
X60437763Y88382538D01*
X60345914Y88270620D01*
X60294396Y88174236D01*
X60277664Y88142933D01*
X60235635Y88004385D01*
X60235174Y87999702D01*
X60158899Y87958932D01*
X59980239Y87812308D01*
X55934153Y91858393D01*
X56229250Y91860000D01*
X56388000Y92018750D01*
X56388000Y93218000D01*
X55188750Y93218000D01*
X55030000Y93059250D01*
X55028393Y92764153D01*
X54737559Y93054987D01*
X54714538Y93083038D01*
X54602620Y93174887D01*
X54474933Y93243137D01*
X54336385Y93285165D01*
X54228405Y93295800D01*
X54192300Y93299356D01*
X54156195Y93295800D01*
X49926886Y93295800D01*
X50034367Y93548182D01*
X50051904Y93630961D01*
X49929915Y93853000D01*
X48387000Y93853000D01*
X48387000Y93833000D01*
X48133000Y93833000D01*
X48133000Y93853000D01*
X46590085Y93853000D01*
X46468096Y93630961D01*
X46485633Y93548182D01*
X46593114Y93295800D01*
X42301417Y93295800D01*
X42372182Y93428192D01*
X42454236Y93698691D01*
X42481943Y93980000D01*
X42454236Y94261309D01*
X42433691Y94329039D01*
X46468096Y94329039D01*
X46590085Y94107000D01*
X48133000Y94107000D01*
X48133000Y95415000D01*
X48387000Y95415000D01*
X48387000Y94107000D01*
X49929915Y94107000D01*
X49978262Y94195000D01*
X55026928Y94195000D01*
X55030000Y93630750D01*
X55188750Y93472000D01*
X56388000Y93472000D01*
X56388000Y94671250D01*
X56229250Y94830000D01*
X55665000Y94833072D01*
X55540518Y94820812D01*
X55420820Y94784502D01*
X55310506Y94725537D01*
X55213815Y94646185D01*
X55134463Y94549494D01*
X55075498Y94439180D01*
X55039188Y94319482D01*
X55026928Y94195000D01*
X49978262Y94195000D01*
X50051904Y94329039D01*
X50034367Y94411818D01*
X49923715Y94671646D01*
X49764500Y94904895D01*
X49562839Y95102601D01*
X49326483Y95257166D01*
X49064514Y95362650D01*
X48787000Y95415000D01*
X48387000Y95415000D01*
X48133000Y95415000D01*
X47733000Y95415000D01*
X47455486Y95362650D01*
X47193517Y95257166D01*
X46957161Y95102601D01*
X46755500Y94904895D01*
X46596285Y94671646D01*
X46485633Y94411818D01*
X46468096Y94329039D01*
X42433691Y94329039D01*
X42372182Y94531808D01*
X42238932Y94781101D01*
X42059608Y94999608D01*
X41841101Y95178932D01*
X41591808Y95312182D01*
X41321309Y95394236D01*
X41110492Y95415000D01*
X40169508Y95415000D01*
X39958691Y95394236D01*
X39688192Y95312182D01*
X39438899Y95178932D01*
X39220392Y94999608D01*
X39041068Y94781101D01*
X38907818Y94531808D01*
X38825764Y94261309D01*
X38798057Y93980000D01*
X38825764Y93698691D01*
X38907818Y93428192D01*
X38978583Y93295800D01*
X35956886Y93295800D01*
X36064367Y93548182D01*
X36081904Y93630961D01*
X35959915Y93853000D01*
X34417000Y93853000D01*
X34417000Y93833000D01*
X34163000Y93833000D01*
X34163000Y93853000D01*
X32620085Y93853000D01*
X32498096Y93630961D01*
X32515633Y93548182D01*
X32626285Y93288354D01*
X32785500Y93055105D01*
X32792346Y93048393D01*
X31918954Y92175000D01*
X28304264Y92175000D01*
X28268932Y92241101D01*
X28089608Y92459608D01*
X27871101Y92638932D01*
X27738142Y92710000D01*
X27871101Y92781068D01*
X28089608Y92960392D01*
X28268932Y93178899D01*
X28402182Y93428192D01*
X28484236Y93698691D01*
X28511943Y93980000D01*
X28484236Y94261309D01*
X28463691Y94329039D01*
X32498096Y94329039D01*
X32620085Y94107000D01*
X34163000Y94107000D01*
X34163000Y95415000D01*
X34417000Y95415000D01*
X34417000Y94107000D01*
X35959915Y94107000D01*
X36081904Y94329039D01*
X36064367Y94411818D01*
X35953715Y94671646D01*
X35794500Y94904895D01*
X35592839Y95102601D01*
X35356483Y95257166D01*
X35094514Y95362650D01*
X34817000Y95415000D01*
X34417000Y95415000D01*
X34163000Y95415000D01*
X33763000Y95415000D01*
X33485486Y95362650D01*
X33223517Y95257166D01*
X32987161Y95102601D01*
X32785500Y94904895D01*
X32626285Y94671646D01*
X32515633Y94411818D01*
X32498096Y94329039D01*
X28463691Y94329039D01*
X28402182Y94531808D01*
X28268932Y94781101D01*
X28089608Y94999608D01*
X27871101Y95178932D01*
X27621808Y95312182D01*
X27351309Y95394236D01*
X27140492Y95415000D01*
X26199508Y95415000D01*
X25988691Y95394236D01*
X25718192Y95312182D01*
X25468899Y95178932D01*
X25250392Y94999608D01*
X25071068Y94781101D01*
X24937818Y94531808D01*
X24855764Y94261309D01*
X24828057Y93980000D01*
X24855764Y93698691D01*
X24937818Y93428192D01*
X25071068Y93178899D01*
X25250392Y92960392D01*
X25468899Y92781068D01*
X25601858Y92710000D01*
X25468899Y92638932D01*
X25250392Y92459608D01*
X25071068Y92241101D01*
X25035736Y92175000D01*
X23499394Y92175000D01*
X23463299Y92178555D01*
X23427204Y92175000D01*
X23427195Y92175000D01*
X23319215Y92164365D01*
X23180667Y92122337D01*
X23052980Y92054087D01*
X22941062Y91962238D01*
X22918046Y91934193D01*
X22130618Y91146765D01*
X22134236Y91158691D01*
X22161943Y91440000D01*
X22134236Y91721309D01*
X22052182Y91991808D01*
X21918932Y92241101D01*
X21739608Y92459608D01*
X21521101Y92638932D01*
X21393259Y92707265D01*
X21622839Y92857399D01*
X21824500Y93055105D01*
X21983715Y93288354D01*
X22094367Y93548182D01*
X22111904Y93630961D01*
X21989915Y93853000D01*
X20447000Y93853000D01*
X20447000Y93833000D01*
X20193000Y93833000D01*
X20193000Y93853000D01*
X18650085Y93853000D01*
X18528096Y93630961D01*
X18545633Y93548182D01*
X18656285Y93288354D01*
X18815500Y93055105D01*
X19017161Y92857399D01*
X19246741Y92707265D01*
X19118899Y92638932D01*
X18900392Y92459608D01*
X18721068Y92241101D01*
X18587818Y91991808D01*
X18505764Y91721309D01*
X18478057Y91440000D01*
X18505764Y91158691D01*
X18582719Y90905000D01*
X14437281Y90905000D01*
X14514236Y91158691D01*
X14541943Y91440000D01*
X14514236Y91721309D01*
X14432182Y91991808D01*
X14298932Y92241101D01*
X14119608Y92459608D01*
X13901101Y92638932D01*
X13768142Y92710000D01*
X13901101Y92781068D01*
X14119608Y92960392D01*
X14298932Y93178899D01*
X14432182Y93428192D01*
X14514236Y93698691D01*
X14541943Y93980000D01*
X14514236Y94261309D01*
X14493691Y94329039D01*
X18528096Y94329039D01*
X18650085Y94107000D01*
X20193000Y94107000D01*
X20193000Y95415000D01*
X20447000Y95415000D01*
X20447000Y94107000D01*
X21989915Y94107000D01*
X22111904Y94329039D01*
X22094367Y94411818D01*
X21983715Y94671646D01*
X21824500Y94904895D01*
X21622839Y95102601D01*
X21386483Y95257166D01*
X21124514Y95362650D01*
X20847000Y95415000D01*
X20447000Y95415000D01*
X20193000Y95415000D01*
X19793000Y95415000D01*
X19515486Y95362650D01*
X19253517Y95257166D01*
X19017161Y95102601D01*
X18815500Y94904895D01*
X18656285Y94671646D01*
X18545633Y94411818D01*
X18528096Y94329039D01*
X14493691Y94329039D01*
X14432182Y94531808D01*
X14298932Y94781101D01*
X14119608Y94999608D01*
X13901101Y95178932D01*
X13651808Y95312182D01*
X13381309Y95394236D01*
X13170492Y95415000D01*
X12229508Y95415000D01*
X12018691Y95394236D01*
X11748192Y95312182D01*
X11498899Y95178932D01*
X11280392Y94999608D01*
X11101068Y94781101D01*
X10967818Y94531808D01*
X10885764Y94261309D01*
X10858057Y93980000D01*
X10885764Y93698691D01*
X10967818Y93428192D01*
X11101068Y93178899D01*
X11280392Y92960392D01*
X11498899Y92781068D01*
X11631858Y92710000D01*
X11498899Y92638932D01*
X11280392Y92459608D01*
X11101068Y92241101D01*
X10967818Y91991808D01*
X10885764Y91721309D01*
X10858057Y91440000D01*
X10885764Y91158691D01*
X10967818Y90888192D01*
X11101068Y90638899D01*
X11237729Y90472376D01*
X928708Y80163354D01*
X900662Y80140337D01*
X808813Y80028419D01*
X740563Y79900732D01*
X729956Y79865764D01*
X698535Y79762185D01*
X684344Y79618100D01*
X660000Y79618100D01*
X660000Y95220128D01*
X2765000Y95220128D01*
X2765000Y94779872D01*
X2850890Y94348075D01*
X3019369Y93941331D01*
X3263962Y93575271D01*
X3575271Y93263962D01*
X3941331Y93019369D01*
X4348075Y92850890D01*
X4779872Y92765000D01*
X5220128Y92765000D01*
X5651925Y92850890D01*
X6058669Y93019369D01*
X6424729Y93263962D01*
X6736038Y93575271D01*
X6980631Y93941331D01*
X7149110Y94348075D01*
X7235000Y94779872D01*
X7235000Y95220128D01*
X7149110Y95651925D01*
X6980631Y96058669D01*
X6736038Y96424729D01*
X6424729Y96736038D01*
X6058669Y96980631D01*
X5651925Y97149110D01*
X5220128Y97235000D01*
X4779872Y97235000D01*
X4348075Y97149110D01*
X3941331Y96980631D01*
X3575271Y96736038D01*
X3263962Y96424729D01*
X3019369Y96058669D01*
X2850890Y95651925D01*
X2765000Y95220128D01*
X660000Y95220128D01*
X660000Y99340000D01*
X99340001Y99340000D01*
X99340000Y660000D01*
G37*
G04 #@! TD.AperFunction*
D22*
X23412300Y28611844D02*
X23448405Y28615400D01*
X29585654Y28615400D01*
X27249854Y26279600D01*
X26781535Y26279600D01*
X26826300Y26458184D01*
X26840217Y26740512D01*
X26798787Y27020130D01*
X26703603Y27286292D01*
X26636671Y27411514D01*
X26392702Y27483097D01*
X25579605Y26670000D01*
X25593748Y26655857D01*
X25414143Y26476252D01*
X25400000Y26490395D01*
X25385858Y26476252D01*
X25206253Y26655857D01*
X25220395Y26670000D01*
X24407298Y27483097D01*
X24163329Y27411514D01*
X24149676Y27382659D01*
X24014637Y27584759D01*
X23936694Y27662702D01*
X24586903Y27662702D01*
X25400000Y26849605D01*
X26213097Y27662702D01*
X26141514Y27906671D01*
X25886004Y28027571D01*
X25611816Y28096300D01*
X25329488Y28110217D01*
X25049870Y28068787D01*
X24783708Y27973603D01*
X24658486Y27906671D01*
X24586903Y27662702D01*
X23936694Y27662702D01*
X23814759Y27784637D01*
X23735000Y27837930D01*
X23735000Y27858982D01*
X23739040Y27900000D01*
X23722918Y28063689D01*
X23675172Y28221087D01*
X23597636Y28366146D01*
X23568289Y28401905D01*
X23493291Y28493291D01*
X23461427Y28519441D01*
X23364296Y28616572D01*
X23412300Y28611844D01*
G04 #@! TA.AperFunction,Conductor*
D23*
G36*
X23412300Y28611844D02*
G01*
X23448405Y28615400D01*
X29585654Y28615400D01*
X27249854Y26279600D01*
X26781535Y26279600D01*
X26826300Y26458184D01*
X26840217Y26740512D01*
X26798787Y27020130D01*
X26703603Y27286292D01*
X26636671Y27411514D01*
X26392702Y27483097D01*
X25579605Y26670000D01*
X25593748Y26655857D01*
X25414143Y26476252D01*
X25400000Y26490395D01*
X25385858Y26476252D01*
X25206253Y26655857D01*
X25220395Y26670000D01*
X24407298Y27483097D01*
X24163329Y27411514D01*
X24149676Y27382659D01*
X24014637Y27584759D01*
X23936694Y27662702D01*
X24586903Y27662702D01*
X25400000Y26849605D01*
X26213097Y27662702D01*
X26141514Y27906671D01*
X25886004Y28027571D01*
X25611816Y28096300D01*
X25329488Y28110217D01*
X25049870Y28068787D01*
X24783708Y27973603D01*
X24658486Y27906671D01*
X24586903Y27662702D01*
X23936694Y27662702D01*
X23814759Y27784637D01*
X23735000Y27837930D01*
X23735000Y27858982D01*
X23739040Y27900000D01*
X23722918Y28063689D01*
X23675172Y28221087D01*
X23597636Y28366146D01*
X23568289Y28401905D01*
X23493291Y28493291D01*
X23461427Y28519441D01*
X23364296Y28616572D01*
X23412300Y28611844D01*
G37*
G04 #@! TD.AperFunction*
D22*
X42905100Y59503247D02*
X42879370Y59528977D01*
X42763097Y59412704D01*
X42691514Y59656671D01*
X42436004Y59777571D01*
X42161816Y59846300D01*
X41879488Y59860217D01*
X41599870Y59818787D01*
X41333708Y59723603D01*
X41208486Y59656671D01*
X41136903Y59412702D01*
X41950000Y58599605D01*
X41964143Y58613747D01*
X42143748Y58434142D01*
X42129605Y58420000D01*
X42143748Y58405857D01*
X41964143Y58226252D01*
X41950000Y58240395D01*
X41136903Y57427298D01*
X41208486Y57183329D01*
X41225454Y57175300D01*
X38125154Y54075000D01*
X36997281Y54075000D01*
X37074236Y54328691D01*
X37101943Y54610000D01*
X37074236Y54891309D01*
X36992182Y55161808D01*
X36858932Y55411101D01*
X36679608Y55629608D01*
X36461101Y55808932D01*
X36211808Y55942182D01*
X35941309Y56024236D01*
X35730492Y56045000D01*
X34789508Y56045000D01*
X34578691Y56024236D01*
X34308192Y55942182D01*
X34058899Y55808932D01*
X33840392Y55629608D01*
X33661068Y55411101D01*
X33527818Y55161808D01*
X33445764Y54891309D01*
X33418057Y54610000D01*
X33445764Y54328691D01*
X33522719Y54075000D01*
X33318505Y54075000D01*
X33282400Y54078556D01*
X33138315Y54064365D01*
X32999766Y54022337D01*
X32872080Y53954087D01*
X32760162Y53862238D01*
X32737146Y53834193D01*
X26856048Y47953094D01*
X26769055Y47935790D01*
X26607995Y47869077D01*
X26463045Y47772224D01*
X26339776Y47648955D01*
X26242923Y47504005D01*
X26176210Y47342945D01*
X26142200Y47171965D01*
X26142200Y46997635D01*
X26176210Y46826655D01*
X26242923Y46665595D01*
X26339776Y46520645D01*
X26346261Y46514160D01*
X26276285Y46411646D01*
X26165633Y46151818D01*
X26148096Y46069039D01*
X26270085Y45847000D01*
X27813000Y45847000D01*
X27813000Y45867000D01*
X28067000Y45867000D01*
X28067000Y45847000D01*
X28087000Y45847000D01*
X28087000Y45593000D01*
X28067000Y45593000D01*
X28067000Y45573000D01*
X27813000Y45573000D01*
X27813000Y45593000D01*
X26270085Y45593000D01*
X26148096Y45370961D01*
X26165633Y45288182D01*
X26276285Y45028354D01*
X26277892Y45026000D01*
X25595555Y45026000D01*
X25572200Y45060953D01*
X25572200Y45905295D01*
X25575756Y45941400D01*
X25561565Y46085485D01*
X25543977Y46143464D01*
X25519537Y46224033D01*
X25451287Y46351720D01*
X25392451Y46423411D01*
X25382453Y46435594D01*
X25382450Y46435597D01*
X25359437Y46463638D01*
X25331397Y46486650D01*
X24971247Y46846800D01*
X25009197Y46884750D01*
X25037237Y46907762D01*
X25060250Y46935803D01*
X25060253Y46935806D01*
X25129086Y47019679D01*
X25129087Y47019680D01*
X25197337Y47147367D01*
X25239365Y47285915D01*
X25250000Y47393895D01*
X25250000Y47393904D01*
X25253555Y47429999D01*
X25250000Y47466094D01*
X25250000Y49368681D01*
X25430512Y49359783D01*
X25710130Y49401213D01*
X25976292Y49496397D01*
X26101514Y49563329D01*
X26173097Y49807298D01*
X25360000Y50620395D01*
X25345858Y50606252D01*
X25166253Y50785857D01*
X25180395Y50800000D01*
X25166253Y50814142D01*
X25345858Y50993747D01*
X25360000Y50979605D01*
X25374143Y50993747D01*
X25553748Y50814142D01*
X25539605Y50800000D01*
X26352702Y49986903D01*
X26596671Y50058486D01*
X26717571Y50313996D01*
X26786300Y50588184D01*
X26800217Y50870512D01*
X26758787Y51150130D01*
X26663603Y51416292D01*
X26596671Y51541514D01*
X26352704Y51613097D01*
X26468977Y51729370D01*
X26397647Y51800700D01*
X28715795Y51800700D01*
X28751900Y51797144D01*
X28788005Y51800700D01*
X28895985Y51811335D01*
X29034533Y51853363D01*
X29162220Y51921613D01*
X29274138Y52013462D01*
X29297159Y52041513D01*
X35605134Y58349488D01*
X40509783Y58349488D01*
X40551213Y58069870D01*
X40646397Y57803708D01*
X40713329Y57678486D01*
X40957298Y57606903D01*
X41770395Y58420000D01*
X40957298Y59233097D01*
X40713329Y59161514D01*
X40592429Y58906004D01*
X40523700Y58631816D01*
X40509783Y58349488D01*
X35605134Y58349488D01*
X46540447Y69284800D01*
X52686653Y69284800D01*
X42905100Y59503247D01*
G04 #@! TA.AperFunction,Conductor*
D23*
G36*
X42905100Y59503247D02*
G01*
X42879370Y59528977D01*
X42763097Y59412704D01*
X42691514Y59656671D01*
X42436004Y59777571D01*
X42161816Y59846300D01*
X41879488Y59860217D01*
X41599870Y59818787D01*
X41333708Y59723603D01*
X41208486Y59656671D01*
X41136903Y59412702D01*
X41950000Y58599605D01*
X41964143Y58613747D01*
X42143748Y58434142D01*
X42129605Y58420000D01*
X42143748Y58405857D01*
X41964143Y58226252D01*
X41950000Y58240395D01*
X41136903Y57427298D01*
X41208486Y57183329D01*
X41225454Y57175300D01*
X38125154Y54075000D01*
X36997281Y54075000D01*
X37074236Y54328691D01*
X37101943Y54610000D01*
X37074236Y54891309D01*
X36992182Y55161808D01*
X36858932Y55411101D01*
X36679608Y55629608D01*
X36461101Y55808932D01*
X36211808Y55942182D01*
X35941309Y56024236D01*
X35730492Y56045000D01*
X34789508Y56045000D01*
X34578691Y56024236D01*
X34308192Y55942182D01*
X34058899Y55808932D01*
X33840392Y55629608D01*
X33661068Y55411101D01*
X33527818Y55161808D01*
X33445764Y54891309D01*
X33418057Y54610000D01*
X33445764Y54328691D01*
X33522719Y54075000D01*
X33318505Y54075000D01*
X33282400Y54078556D01*
X33138315Y54064365D01*
X32999766Y54022337D01*
X32872080Y53954087D01*
X32760162Y53862238D01*
X32737146Y53834193D01*
X26856048Y47953094D01*
X26769055Y47935790D01*
X26607995Y47869077D01*
X26463045Y47772224D01*
X26339776Y47648955D01*
X26242923Y47504005D01*
X26176210Y47342945D01*
X26142200Y47171965D01*
X26142200Y46997635D01*
X26176210Y46826655D01*
X26242923Y46665595D01*
X26339776Y46520645D01*
X26346261Y46514160D01*
X26276285Y46411646D01*
X26165633Y46151818D01*
X26148096Y46069039D01*
X26270085Y45847000D01*
X27813000Y45847000D01*
X27813000Y45867000D01*
X28067000Y45867000D01*
X28067000Y45847000D01*
X28087000Y45847000D01*
X28087000Y45593000D01*
X28067000Y45593000D01*
X28067000Y45573000D01*
X27813000Y45573000D01*
X27813000Y45593000D01*
X26270085Y45593000D01*
X26148096Y45370961D01*
X26165633Y45288182D01*
X26276285Y45028354D01*
X26277892Y45026000D01*
X25595555Y45026000D01*
X25572200Y45060953D01*
X25572200Y45905295D01*
X25575756Y45941400D01*
X25561565Y46085485D01*
X25543977Y46143464D01*
X25519537Y46224033D01*
X25451287Y46351720D01*
X25392451Y46423411D01*
X25382453Y46435594D01*
X25382450Y46435597D01*
X25359437Y46463638D01*
X25331397Y46486650D01*
X24971247Y46846800D01*
X25009197Y46884750D01*
X25037237Y46907762D01*
X25060250Y46935803D01*
X25060253Y46935806D01*
X25129086Y47019679D01*
X25129087Y47019680D01*
X25197337Y47147367D01*
X25239365Y47285915D01*
X25250000Y47393895D01*
X25250000Y47393904D01*
X25253555Y47429999D01*
X25250000Y47466094D01*
X25250000Y49368681D01*
X25430512Y49359783D01*
X25710130Y49401213D01*
X25976292Y49496397D01*
X26101514Y49563329D01*
X26173097Y49807298D01*
X25360000Y50620395D01*
X25345858Y50606252D01*
X25166253Y50785857D01*
X25180395Y50800000D01*
X25166253Y50814142D01*
X25345858Y50993747D01*
X25360000Y50979605D01*
X25374143Y50993747D01*
X25553748Y50814142D01*
X25539605Y50800000D01*
X26352702Y49986903D01*
X26596671Y50058486D01*
X26717571Y50313996D01*
X26786300Y50588184D01*
X26800217Y50870512D01*
X26758787Y51150130D01*
X26663603Y51416292D01*
X26596671Y51541514D01*
X26352704Y51613097D01*
X26468977Y51729370D01*
X26397647Y51800700D01*
X28715795Y51800700D01*
X28751900Y51797144D01*
X28788005Y51800700D01*
X28895985Y51811335D01*
X29034533Y51853363D01*
X29162220Y51921613D01*
X29274138Y52013462D01*
X29297159Y52041513D01*
X35605134Y58349488D01*
X40509783Y58349488D01*
X40551213Y58069870D01*
X40646397Y57803708D01*
X40713329Y57678486D01*
X40957298Y57606903D01*
X41770395Y58420000D01*
X40957298Y59233097D01*
X40713329Y59161514D01*
X40592429Y58906004D01*
X40523700Y58631816D01*
X40509783Y58349488D01*
X35605134Y58349488D01*
X46540447Y69284800D01*
X52686653Y69284800D01*
X42905100Y59503247D01*
G37*
G04 #@! TD.AperFunction*
D22*
X61087000Y54102000D02*
X61107000Y54102000D01*
X61107000Y53848000D01*
X61087000Y53848000D01*
X61087000Y53828000D01*
X60833000Y53828000D01*
X60833000Y53848000D01*
X60813000Y53848000D01*
X60813000Y54102000D01*
X60833000Y54102000D01*
X60833000Y54122000D01*
X61087000Y54122000D01*
X61087000Y54102000D01*
G04 #@! TA.AperFunction,Conductor*
D23*
G36*
X61087000Y54102000D02*
G01*
X61107000Y54102000D01*
X61107000Y53848000D01*
X61087000Y53848000D01*
X61087000Y53828000D01*
X60833000Y53828000D01*
X60833000Y53848000D01*
X60813000Y53848000D01*
X60813000Y54102000D01*
X60833000Y54102000D01*
X60833000Y54122000D01*
X61087000Y54122000D01*
X61087000Y54102000D01*
G37*
G04 #@! TD.AperFunction*
D22*
X11101068Y88098899D02*
X11280392Y87880392D01*
X11498899Y87701068D01*
X11631858Y87630000D01*
X11498899Y87558932D01*
X11280392Y87379608D01*
X11101068Y87161101D01*
X10967818Y86911808D01*
X10885764Y86641309D01*
X10858057Y86360000D01*
X10885764Y86078691D01*
X10967818Y85808192D01*
X11101068Y85558899D01*
X11280392Y85340392D01*
X11498899Y85161068D01*
X11631858Y85090000D01*
X11498899Y85018932D01*
X11280392Y84839608D01*
X11101068Y84621101D01*
X10967818Y84371808D01*
X10885764Y84101309D01*
X10858057Y83820000D01*
X10885764Y83538691D01*
X10967818Y83268192D01*
X11101068Y83018899D01*
X11280392Y82800392D01*
X11498899Y82621068D01*
X11631858Y82550000D01*
X11498899Y82478932D01*
X11280392Y82299608D01*
X11101068Y82081101D01*
X10967818Y81831808D01*
X10885764Y81561309D01*
X10858057Y81280000D01*
X10885764Y80998691D01*
X10967818Y80728192D01*
X10996023Y80675424D01*
X10914023Y80631593D01*
X10899980Y80624087D01*
X10788062Y80532238D01*
X10765046Y80504193D01*
X7455480Y77194627D01*
X7296632Y77353475D01*
X7114466Y77475195D01*
X7231355Y77544822D01*
X7447588Y77739731D01*
X7621641Y77973080D01*
X7746825Y78235901D01*
X7791476Y78383110D01*
X7670155Y78613000D01*
X6477000Y78613000D01*
X6477000Y78593000D01*
X6223000Y78593000D01*
X6223000Y78613000D01*
X3937000Y78613000D01*
X3937000Y78593000D01*
X3683000Y78593000D01*
X3683000Y78613000D01*
X2489845Y78613000D01*
X2368524Y78383110D01*
X2413175Y78235901D01*
X2538359Y77973080D01*
X2712412Y77739731D01*
X2928645Y77544822D01*
X3045534Y77475195D01*
X2863368Y77353475D01*
X2656525Y77146632D01*
X2494010Y76903411D01*
X2382068Y76633158D01*
X2325000Y76346260D01*
X2325000Y76053740D01*
X2382068Y75766842D01*
X2494010Y75496589D01*
X2656525Y75253368D01*
X2863368Y75046525D01*
X3037760Y74930000D01*
X2863368Y74813475D01*
X2656525Y74606632D01*
X2494010Y74363411D01*
X2382068Y74093158D01*
X2325000Y73806260D01*
X2325000Y73513740D01*
X2382068Y73226842D01*
X2494010Y72956589D01*
X2656525Y72713368D01*
X2863368Y72506525D01*
X3037760Y72390000D01*
X2863368Y72273475D01*
X2656525Y72066632D01*
X2494010Y71823411D01*
X2382068Y71553158D01*
X2325000Y71266260D01*
X2325000Y70973740D01*
X2382068Y70686842D01*
X2494010Y70416589D01*
X2656525Y70173368D01*
X2863368Y69966525D01*
X3037760Y69850000D01*
X2863368Y69733475D01*
X2656525Y69526632D01*
X2494010Y69283411D01*
X2382068Y69013158D01*
X2325000Y68726260D01*
X2325000Y68433740D01*
X2382068Y68146842D01*
X2494010Y67876589D01*
X2656525Y67633368D01*
X2863368Y67426525D01*
X3045534Y67304805D01*
X2928645Y67235178D01*
X2712412Y67040269D01*
X2538359Y66806920D01*
X2413175Y66544099D01*
X2368524Y66396890D01*
X2489845Y66167000D01*
X3683000Y66167000D01*
X3683000Y66187000D01*
X3937000Y66187000D01*
X3937000Y66167000D01*
X6223000Y66167000D01*
X6223000Y66187000D01*
X6477000Y66187000D01*
X6477000Y66167000D01*
X7670155Y66167000D01*
X7791476Y66396890D01*
X7746825Y66544099D01*
X7621641Y66806920D01*
X7447588Y67040269D01*
X7231355Y67235178D01*
X7114466Y67304805D01*
X7296632Y67426525D01*
X7503475Y67633368D01*
X7665990Y67876589D01*
X7777932Y68146842D01*
X7835000Y68433740D01*
X7835000Y68726260D01*
X7777932Y69013158D01*
X7665990Y69283411D01*
X7503475Y69526632D01*
X7296632Y69733475D01*
X7122240Y69850000D01*
X7296632Y69966525D01*
X7503475Y70173368D01*
X7665990Y70416589D01*
X7777932Y70686842D01*
X7835000Y70973740D01*
X7835000Y71266260D01*
X7777932Y71553158D01*
X7735748Y71655000D01*
X14279695Y71655000D01*
X14315800Y71651444D01*
X14351905Y71655000D01*
X14459885Y71665635D01*
X14598433Y71707663D01*
X14726120Y71775913D01*
X14838038Y71867762D01*
X14861058Y71895812D01*
X16798450Y73833203D01*
X16810630Y73821023D01*
X16926903Y73937296D01*
X16998486Y73693329D01*
X17253996Y73572429D01*
X17528184Y73503700D01*
X17810512Y73489783D01*
X18090130Y73531213D01*
X18356292Y73626397D01*
X18481514Y73693329D01*
X18553097Y73937298D01*
X17740000Y74750395D01*
X17725858Y74736252D01*
X17546253Y74915857D01*
X17560395Y74930000D01*
X17919605Y74930000D01*
X18732702Y74116903D01*
X18976671Y74188486D01*
X19097571Y74443996D01*
X19166300Y74718184D01*
X19180217Y75000512D01*
X19138787Y75280130D01*
X19043603Y75546292D01*
X18976671Y75671514D01*
X18732702Y75743097D01*
X17919605Y74930000D01*
X17560395Y74930000D01*
X17546253Y74944142D01*
X17725858Y75123747D01*
X17740000Y75109605D01*
X18553097Y75922702D01*
X18529595Y76002800D01*
X22174595Y76002800D01*
X22210700Y75999244D01*
X22246805Y76002800D01*
X22354785Y76013435D01*
X22493333Y76055463D01*
X22621020Y76123713D01*
X22732938Y76215562D01*
X22755959Y76243613D01*
X24882593Y78370246D01*
X24937818Y78188192D01*
X25071068Y77938899D01*
X25250392Y77720392D01*
X25468899Y77541068D01*
X25718192Y77407818D01*
X25988691Y77325764D01*
X26199508Y77305000D01*
X26924132Y77305000D01*
X27951263Y76277868D01*
X27977409Y76246009D01*
X28009268Y76219863D01*
X28009270Y76219861D01*
X28009280Y76219853D01*
X28239868Y75989264D01*
X28095363Y75844759D01*
X27938320Y75609727D01*
X27830147Y75348574D01*
X27775000Y75071335D01*
X27775000Y74788665D01*
X27830147Y74511426D01*
X27938320Y74250273D01*
X28095363Y74015241D01*
X28295241Y73815363D01*
X28497183Y73680430D01*
X27549754Y72733000D01*
X22313253Y72733000D01*
X22239505Y72782277D01*
X22078445Y72848990D01*
X21907465Y72883000D01*
X21733135Y72883000D01*
X21562155Y72848990D01*
X21401095Y72782277D01*
X21256145Y72685424D01*
X21132876Y72562155D01*
X21036023Y72417205D01*
X20969310Y72256145D01*
X20935300Y72085165D01*
X20935300Y71910835D01*
X20969310Y71739855D01*
X21036023Y71578795D01*
X21132876Y71433845D01*
X21256145Y71310576D01*
X21401095Y71213723D01*
X21562155Y71147010D01*
X21733135Y71113000D01*
X21907465Y71113000D01*
X22078445Y71147010D01*
X22239505Y71213723D01*
X22313253Y71263000D01*
X27296375Y71263000D01*
X27135486Y71232650D01*
X26873517Y71127166D01*
X26637161Y70972601D01*
X26435500Y70774895D01*
X26276285Y70541646D01*
X26165633Y70281818D01*
X26148096Y70199039D01*
X26270085Y69977000D01*
X27813000Y69977000D01*
X27813000Y69997000D01*
X28067000Y69997000D01*
X28067000Y69977000D01*
X29609915Y69977000D01*
X29731904Y70199039D01*
X29714367Y70281818D01*
X29603715Y70541646D01*
X29444500Y70774895D01*
X29242839Y70972601D01*
X29006483Y71127166D01*
X28744514Y71232650D01*
X28467000Y71285000D01*
X28035750Y71285000D01*
X28136833Y71315663D01*
X28264520Y71383913D01*
X28376438Y71475762D01*
X28399459Y71503812D01*
X30748650Y73853003D01*
X30780630Y73821023D01*
X30896903Y73937296D01*
X30968486Y73693329D01*
X31223996Y73572429D01*
X31498184Y73503700D01*
X31780512Y73489783D01*
X32060130Y73531213D01*
X32326292Y73626397D01*
X32451514Y73693329D01*
X32523097Y73937298D01*
X31710000Y74750395D01*
X31695858Y74736252D01*
X31516253Y74915857D01*
X31530395Y74930000D01*
X31516253Y74944142D01*
X31695858Y75123747D01*
X31710000Y75109605D01*
X31724143Y75123747D01*
X31903748Y74944142D01*
X31889605Y74930000D01*
X32702702Y74116903D01*
X32946671Y74188486D01*
X33067571Y74443996D01*
X33136300Y74718184D01*
X33150217Y75000512D01*
X33108787Y75280130D01*
X33050971Y75441800D01*
X38619147Y75441800D01*
X38692895Y75392523D01*
X38853955Y75325810D01*
X39024935Y75291800D01*
X39199265Y75291800D01*
X39370245Y75325810D01*
X39531305Y75392523D01*
X39676255Y75489376D01*
X39799524Y75612645D01*
X39896377Y75757595D01*
X39963090Y75918655D01*
X39997100Y76089635D01*
X39997100Y76263965D01*
X39963090Y76434945D01*
X39896377Y76596005D01*
X39799524Y76740955D01*
X39676255Y76864224D01*
X39531305Y76961077D01*
X39370245Y77027790D01*
X39199265Y77061800D01*
X39024935Y77061800D01*
X38853955Y77027790D01*
X38692895Y76961077D01*
X38619147Y76911800D01*
X38392368Y76911800D01*
X39211633Y77731065D01*
X39220392Y77720392D01*
X39438899Y77541068D01*
X39688192Y77407818D01*
X39958691Y77325764D01*
X40169508Y77305000D01*
X40894133Y77305000D01*
X42209868Y75989264D01*
X42065363Y75844759D01*
X41908320Y75609727D01*
X41800147Y75348574D01*
X41745000Y75071335D01*
X41745000Y74788665D01*
X41795060Y74537000D01*
X36702718Y74537000D01*
X36630720Y74596087D01*
X36503033Y74664337D01*
X36364485Y74706365D01*
X36256505Y74717000D01*
X36220400Y74720556D01*
X36184295Y74717000D01*
X35253205Y74717000D01*
X35217100Y74720556D01*
X35073015Y74706365D01*
X34934466Y74664337D01*
X34830776Y74608913D01*
X34806780Y74596087D01*
X34694862Y74504238D01*
X34671846Y74476193D01*
X29719391Y69523737D01*
X29609915Y69723000D01*
X28067000Y69723000D01*
X28067000Y69703000D01*
X27813000Y69703000D01*
X27813000Y69723000D01*
X26270085Y69723000D01*
X26148096Y69500961D01*
X26165633Y69418182D01*
X26276285Y69158354D01*
X26303104Y69119064D01*
X26253567Y69104037D01*
X26125880Y69035787D01*
X26013962Y68943938D01*
X25990946Y68915893D01*
X22132404Y65057350D01*
X22052182Y65321808D01*
X21918932Y65571101D01*
X21739608Y65789608D01*
X21521101Y65968932D01*
X21388142Y66040000D01*
X21521101Y66111068D01*
X21739608Y66290392D01*
X21918932Y66508899D01*
X22052182Y66758192D01*
X22134236Y67028691D01*
X22161943Y67310000D01*
X22134236Y67591309D01*
X22052182Y67861808D01*
X21918932Y68111101D01*
X21739608Y68329608D01*
X21521101Y68508932D01*
X21388142Y68580000D01*
X21521101Y68651068D01*
X21739608Y68830392D01*
X21918932Y69048899D01*
X22052182Y69298192D01*
X22134236Y69568691D01*
X22161943Y69850000D01*
X22134236Y70131309D01*
X22052182Y70401808D01*
X21918932Y70651101D01*
X21739608Y70869608D01*
X21521101Y71048932D01*
X21271808Y71182182D01*
X21001309Y71264236D01*
X20790492Y71285000D01*
X19849508Y71285000D01*
X19638691Y71264236D01*
X19368192Y71182182D01*
X19118899Y71048932D01*
X18900392Y70869608D01*
X18721068Y70651101D01*
X18587818Y70401808D01*
X18505764Y70131309D01*
X18478057Y69850000D01*
X18505764Y69568691D01*
X18587818Y69298192D01*
X18721068Y69048899D01*
X18900392Y68830392D01*
X19118899Y68651068D01*
X19251858Y68580000D01*
X19118899Y68508932D01*
X18900392Y68329608D01*
X18721068Y68111101D01*
X18587818Y67861808D01*
X18505764Y67591309D01*
X18478057Y67310000D01*
X18505764Y67028691D01*
X18587818Y66758192D01*
X18721068Y66508899D01*
X18900392Y66290392D01*
X19118899Y66111068D01*
X19251858Y66040000D01*
X19118899Y65968932D01*
X18900392Y65789608D01*
X18721068Y65571101D01*
X18587818Y65321808D01*
X18505764Y65051309D01*
X18478057Y64770000D01*
X18505764Y64488691D01*
X18584540Y64228997D01*
X18537514Y64224365D01*
X18502047Y64213606D01*
X18398967Y64182337D01*
X18271280Y64114087D01*
X18159362Y64022238D01*
X18136346Y63994193D01*
X11907554Y57765400D01*
X7686208Y57765400D01*
X7777932Y57986842D01*
X7835000Y58273740D01*
X7835000Y58566260D01*
X7777932Y58853158D01*
X7665990Y59123411D01*
X7503475Y59366632D01*
X7296632Y59573475D01*
X7122240Y59690000D01*
X7296632Y59806525D01*
X7503475Y60013368D01*
X7665990Y60256589D01*
X7777932Y60526842D01*
X7835000Y60813740D01*
X7835000Y61106260D01*
X7777932Y61393158D01*
X7665990Y61663411D01*
X7503475Y61906632D01*
X7296632Y62113475D01*
X7122240Y62230000D01*
X7296632Y62346525D01*
X7503475Y62553368D01*
X7578065Y62665000D01*
X11265375Y62665000D01*
X11274188Y62575518D01*
X11310498Y62455820D01*
X11369463Y62345506D01*
X11448815Y62248815D01*
X11545506Y62169463D01*
X11655820Y62110498D01*
X11775518Y62074188D01*
X11900000Y62061928D01*
X13500000Y62061928D01*
X13624482Y62074188D01*
X13744180Y62110498D01*
X13854494Y62169463D01*
X13951185Y62248815D01*
X14030537Y62345506D01*
X14089502Y62455820D01*
X14105117Y62507298D01*
X14386903Y62507298D01*
X14458486Y62263329D01*
X14713996Y62142429D01*
X14988184Y62073700D01*
X15270512Y62059783D01*
X15550130Y62101213D01*
X15816292Y62196397D01*
X15941514Y62263329D01*
X16013097Y62507298D01*
X15200000Y63320395D01*
X14386903Y62507298D01*
X14105117Y62507298D01*
X14125812Y62575518D01*
X14138072Y62700000D01*
X14138072Y62707215D01*
X14207298Y62686903D01*
X15020395Y63500000D01*
X15379605Y63500000D01*
X16192702Y62686903D01*
X16436671Y62758486D01*
X16557571Y63013996D01*
X16626300Y63288184D01*
X16640217Y63570512D01*
X16598787Y63850130D01*
X16503603Y64116292D01*
X16436671Y64241514D01*
X16192702Y64313097D01*
X15379605Y63500000D01*
X15020395Y63500000D01*
X14207298Y64313097D01*
X14138072Y64292785D01*
X14138072Y64300000D01*
X14125812Y64424482D01*
X14105118Y64492702D01*
X14386903Y64492702D01*
X15200000Y63679605D01*
X16013097Y64492702D01*
X15941514Y64736671D01*
X15686004Y64857571D01*
X15411816Y64926300D01*
X15129488Y64940217D01*
X14849870Y64898787D01*
X14583708Y64803603D01*
X14458486Y64736671D01*
X14386903Y64492702D01*
X14105118Y64492702D01*
X14089502Y64544180D01*
X14030537Y64654494D01*
X13951185Y64751185D01*
X13854494Y64830537D01*
X13744180Y64889502D01*
X13624482Y64925812D01*
X13500000Y64938072D01*
X11900000Y64938072D01*
X11775518Y64925812D01*
X11655820Y64889502D01*
X11545506Y64830537D01*
X11448815Y64751185D01*
X11369463Y64654494D01*
X11310498Y64544180D01*
X11274188Y64424482D01*
X11265375Y64335000D01*
X7578065Y64335000D01*
X7503475Y64446632D01*
X7296632Y64653475D01*
X7114466Y64775195D01*
X7231355Y64844822D01*
X7447588Y65039731D01*
X7621641Y65273080D01*
X7746825Y65535901D01*
X7791476Y65683110D01*
X7670155Y65913000D01*
X6477000Y65913000D01*
X6477000Y65893000D01*
X6223000Y65893000D01*
X6223000Y65913000D01*
X3937000Y65913000D01*
X3937000Y65893000D01*
X3683000Y65893000D01*
X3683000Y65913000D01*
X2489845Y65913000D01*
X2368524Y65683110D01*
X2413175Y65535901D01*
X2538359Y65273080D01*
X2712412Y65039731D01*
X2928645Y64844822D01*
X3045534Y64775195D01*
X2863368Y64653475D01*
X2656525Y64446632D01*
X2494010Y64203411D01*
X2382068Y63933158D01*
X2325000Y63646260D01*
X2325000Y63353740D01*
X2382068Y63066842D01*
X2494010Y62796589D01*
X2656525Y62553368D01*
X2863368Y62346525D01*
X3037760Y62230000D01*
X2863368Y62113475D01*
X2656525Y61906632D01*
X2494010Y61663411D01*
X2382068Y61393158D01*
X2325000Y61106260D01*
X2325000Y60813740D01*
X2382068Y60526842D01*
X2494010Y60256589D01*
X2656525Y60013368D01*
X2863368Y59806525D01*
X3037760Y59690000D01*
X2863368Y59573475D01*
X2656525Y59366632D01*
X2494010Y59123411D01*
X2382068Y58853158D01*
X2325000Y58566260D01*
X2325000Y58273740D01*
X2382068Y57986842D01*
X2494010Y57716589D01*
X2656525Y57473368D01*
X2863368Y57266525D01*
X3037760Y57150000D01*
X2863368Y57033475D01*
X2656525Y56826632D01*
X2494010Y56583411D01*
X2382068Y56313158D01*
X2325000Y56026260D01*
X2325000Y55733740D01*
X2382068Y55446842D01*
X2494010Y55176589D01*
X2656525Y54933368D01*
X2692223Y54897670D01*
X2157900Y54363347D01*
X2157900Y79096890D01*
X2368524Y79096890D01*
X2489845Y78867000D01*
X3683000Y78867000D01*
X3683000Y80060814D01*
X3937000Y80060814D01*
X3937000Y78867000D01*
X6223000Y78867000D01*
X6223000Y80060814D01*
X6477000Y80060814D01*
X6477000Y78867000D01*
X7670155Y78867000D01*
X7791476Y79096890D01*
X7746825Y79244099D01*
X7621641Y79506920D01*
X7447588Y79740269D01*
X7231355Y79935178D01*
X6981252Y80084157D01*
X6706891Y80181481D01*
X6477000Y80060814D01*
X6223000Y80060814D01*
X5993109Y80181481D01*
X5718748Y80084157D01*
X5468645Y79935178D01*
X5252412Y79740269D01*
X5080000Y79509120D01*
X4907588Y79740269D01*
X4691355Y79935178D01*
X4441252Y80084157D01*
X4166891Y80181481D01*
X3937000Y80060814D01*
X3683000Y80060814D01*
X3453109Y80181481D01*
X3178748Y80084157D01*
X2928645Y79935178D01*
X2712412Y79740269D01*
X2538359Y79506920D01*
X2413175Y79244099D01*
X2368524Y79096890D01*
X2157900Y79096890D01*
X2157900Y79313654D01*
X11046059Y88201813D01*
X11101068Y88098899D01*
G04 #@! TA.AperFunction,Conductor*
D23*
G36*
X11101068Y88098899D02*
G01*
X11280392Y87880392D01*
X11498899Y87701068D01*
X11631858Y87630000D01*
X11498899Y87558932D01*
X11280392Y87379608D01*
X11101068Y87161101D01*
X10967818Y86911808D01*
X10885764Y86641309D01*
X10858057Y86360000D01*
X10885764Y86078691D01*
X10967818Y85808192D01*
X11101068Y85558899D01*
X11280392Y85340392D01*
X11498899Y85161068D01*
X11631858Y85090000D01*
X11498899Y85018932D01*
X11280392Y84839608D01*
X11101068Y84621101D01*
X10967818Y84371808D01*
X10885764Y84101309D01*
X10858057Y83820000D01*
X10885764Y83538691D01*
X10967818Y83268192D01*
X11101068Y83018899D01*
X11280392Y82800392D01*
X11498899Y82621068D01*
X11631858Y82550000D01*
X11498899Y82478932D01*
X11280392Y82299608D01*
X11101068Y82081101D01*
X10967818Y81831808D01*
X10885764Y81561309D01*
X10858057Y81280000D01*
X10885764Y80998691D01*
X10967818Y80728192D01*
X10996023Y80675424D01*
X10914023Y80631593D01*
X10899980Y80624087D01*
X10788062Y80532238D01*
X10765046Y80504193D01*
X7455480Y77194627D01*
X7296632Y77353475D01*
X7114466Y77475195D01*
X7231355Y77544822D01*
X7447588Y77739731D01*
X7621641Y77973080D01*
X7746825Y78235901D01*
X7791476Y78383110D01*
X7670155Y78613000D01*
X6477000Y78613000D01*
X6477000Y78593000D01*
X6223000Y78593000D01*
X6223000Y78613000D01*
X3937000Y78613000D01*
X3937000Y78593000D01*
X3683000Y78593000D01*
X3683000Y78613000D01*
X2489845Y78613000D01*
X2368524Y78383110D01*
X2413175Y78235901D01*
X2538359Y77973080D01*
X2712412Y77739731D01*
X2928645Y77544822D01*
X3045534Y77475195D01*
X2863368Y77353475D01*
X2656525Y77146632D01*
X2494010Y76903411D01*
X2382068Y76633158D01*
X2325000Y76346260D01*
X2325000Y76053740D01*
X2382068Y75766842D01*
X2494010Y75496589D01*
X2656525Y75253368D01*
X2863368Y75046525D01*
X3037760Y74930000D01*
X2863368Y74813475D01*
X2656525Y74606632D01*
X2494010Y74363411D01*
X2382068Y74093158D01*
X2325000Y73806260D01*
X2325000Y73513740D01*
X2382068Y73226842D01*
X2494010Y72956589D01*
X2656525Y72713368D01*
X2863368Y72506525D01*
X3037760Y72390000D01*
X2863368Y72273475D01*
X2656525Y72066632D01*
X2494010Y71823411D01*
X2382068Y71553158D01*
X2325000Y71266260D01*
X2325000Y70973740D01*
X2382068Y70686842D01*
X2494010Y70416589D01*
X2656525Y70173368D01*
X2863368Y69966525D01*
X3037760Y69850000D01*
X2863368Y69733475D01*
X2656525Y69526632D01*
X2494010Y69283411D01*
X2382068Y69013158D01*
X2325000Y68726260D01*
X2325000Y68433740D01*
X2382068Y68146842D01*
X2494010Y67876589D01*
X2656525Y67633368D01*
X2863368Y67426525D01*
X3045534Y67304805D01*
X2928645Y67235178D01*
X2712412Y67040269D01*
X2538359Y66806920D01*
X2413175Y66544099D01*
X2368524Y66396890D01*
X2489845Y66167000D01*
X3683000Y66167000D01*
X3683000Y66187000D01*
X3937000Y66187000D01*
X3937000Y66167000D01*
X6223000Y66167000D01*
X6223000Y66187000D01*
X6477000Y66187000D01*
X6477000Y66167000D01*
X7670155Y66167000D01*
X7791476Y66396890D01*
X7746825Y66544099D01*
X7621641Y66806920D01*
X7447588Y67040269D01*
X7231355Y67235178D01*
X7114466Y67304805D01*
X7296632Y67426525D01*
X7503475Y67633368D01*
X7665990Y67876589D01*
X7777932Y68146842D01*
X7835000Y68433740D01*
X7835000Y68726260D01*
X7777932Y69013158D01*
X7665990Y69283411D01*
X7503475Y69526632D01*
X7296632Y69733475D01*
X7122240Y69850000D01*
X7296632Y69966525D01*
X7503475Y70173368D01*
X7665990Y70416589D01*
X7777932Y70686842D01*
X7835000Y70973740D01*
X7835000Y71266260D01*
X7777932Y71553158D01*
X7735748Y71655000D01*
X14279695Y71655000D01*
X14315800Y71651444D01*
X14351905Y71655000D01*
X14459885Y71665635D01*
X14598433Y71707663D01*
X14726120Y71775913D01*
X14838038Y71867762D01*
X14861058Y71895812D01*
X16798450Y73833203D01*
X16810630Y73821023D01*
X16926903Y73937296D01*
X16998486Y73693329D01*
X17253996Y73572429D01*
X17528184Y73503700D01*
X17810512Y73489783D01*
X18090130Y73531213D01*
X18356292Y73626397D01*
X18481514Y73693329D01*
X18553097Y73937298D01*
X17740000Y74750395D01*
X17725858Y74736252D01*
X17546253Y74915857D01*
X17560395Y74930000D01*
X17919605Y74930000D01*
X18732702Y74116903D01*
X18976671Y74188486D01*
X19097571Y74443996D01*
X19166300Y74718184D01*
X19180217Y75000512D01*
X19138787Y75280130D01*
X19043603Y75546292D01*
X18976671Y75671514D01*
X18732702Y75743097D01*
X17919605Y74930000D01*
X17560395Y74930000D01*
X17546253Y74944142D01*
X17725858Y75123747D01*
X17740000Y75109605D01*
X18553097Y75922702D01*
X18529595Y76002800D01*
X22174595Y76002800D01*
X22210700Y75999244D01*
X22246805Y76002800D01*
X22354785Y76013435D01*
X22493333Y76055463D01*
X22621020Y76123713D01*
X22732938Y76215562D01*
X22755959Y76243613D01*
X24882593Y78370246D01*
X24937818Y78188192D01*
X25071068Y77938899D01*
X25250392Y77720392D01*
X25468899Y77541068D01*
X25718192Y77407818D01*
X25988691Y77325764D01*
X26199508Y77305000D01*
X26924132Y77305000D01*
X27951263Y76277868D01*
X27977409Y76246009D01*
X28009268Y76219863D01*
X28009270Y76219861D01*
X28009280Y76219853D01*
X28239868Y75989264D01*
X28095363Y75844759D01*
X27938320Y75609727D01*
X27830147Y75348574D01*
X27775000Y75071335D01*
X27775000Y74788665D01*
X27830147Y74511426D01*
X27938320Y74250273D01*
X28095363Y74015241D01*
X28295241Y73815363D01*
X28497183Y73680430D01*
X27549754Y72733000D01*
X22313253Y72733000D01*
X22239505Y72782277D01*
X22078445Y72848990D01*
X21907465Y72883000D01*
X21733135Y72883000D01*
X21562155Y72848990D01*
X21401095Y72782277D01*
X21256145Y72685424D01*
X21132876Y72562155D01*
X21036023Y72417205D01*
X20969310Y72256145D01*
X20935300Y72085165D01*
X20935300Y71910835D01*
X20969310Y71739855D01*
X21036023Y71578795D01*
X21132876Y71433845D01*
X21256145Y71310576D01*
X21401095Y71213723D01*
X21562155Y71147010D01*
X21733135Y71113000D01*
X21907465Y71113000D01*
X22078445Y71147010D01*
X22239505Y71213723D01*
X22313253Y71263000D01*
X27296375Y71263000D01*
X27135486Y71232650D01*
X26873517Y71127166D01*
X26637161Y70972601D01*
X26435500Y70774895D01*
X26276285Y70541646D01*
X26165633Y70281818D01*
X26148096Y70199039D01*
X26270085Y69977000D01*
X27813000Y69977000D01*
X27813000Y69997000D01*
X28067000Y69997000D01*
X28067000Y69977000D01*
X29609915Y69977000D01*
X29731904Y70199039D01*
X29714367Y70281818D01*
X29603715Y70541646D01*
X29444500Y70774895D01*
X29242839Y70972601D01*
X29006483Y71127166D01*
X28744514Y71232650D01*
X28467000Y71285000D01*
X28035750Y71285000D01*
X28136833Y71315663D01*
X28264520Y71383913D01*
X28376438Y71475762D01*
X28399459Y71503812D01*
X30748650Y73853003D01*
X30780630Y73821023D01*
X30896903Y73937296D01*
X30968486Y73693329D01*
X31223996Y73572429D01*
X31498184Y73503700D01*
X31780512Y73489783D01*
X32060130Y73531213D01*
X32326292Y73626397D01*
X32451514Y73693329D01*
X32523097Y73937298D01*
X31710000Y74750395D01*
X31695858Y74736252D01*
X31516253Y74915857D01*
X31530395Y74930000D01*
X31516253Y74944142D01*
X31695858Y75123747D01*
X31710000Y75109605D01*
X31724143Y75123747D01*
X31903748Y74944142D01*
X31889605Y74930000D01*
X32702702Y74116903D01*
X32946671Y74188486D01*
X33067571Y74443996D01*
X33136300Y74718184D01*
X33150217Y75000512D01*
X33108787Y75280130D01*
X33050971Y75441800D01*
X38619147Y75441800D01*
X38692895Y75392523D01*
X38853955Y75325810D01*
X39024935Y75291800D01*
X39199265Y75291800D01*
X39370245Y75325810D01*
X39531305Y75392523D01*
X39676255Y75489376D01*
X39799524Y75612645D01*
X39896377Y75757595D01*
X39963090Y75918655D01*
X39997100Y76089635D01*
X39997100Y76263965D01*
X39963090Y76434945D01*
X39896377Y76596005D01*
X39799524Y76740955D01*
X39676255Y76864224D01*
X39531305Y76961077D01*
X39370245Y77027790D01*
X39199265Y77061800D01*
X39024935Y77061800D01*
X38853955Y77027790D01*
X38692895Y76961077D01*
X38619147Y76911800D01*
X38392368Y76911800D01*
X39211633Y77731065D01*
X39220392Y77720392D01*
X39438899Y77541068D01*
X39688192Y77407818D01*
X39958691Y77325764D01*
X40169508Y77305000D01*
X40894133Y77305000D01*
X42209868Y75989264D01*
X42065363Y75844759D01*
X41908320Y75609727D01*
X41800147Y75348574D01*
X41745000Y75071335D01*
X41745000Y74788665D01*
X41795060Y74537000D01*
X36702718Y74537000D01*
X36630720Y74596087D01*
X36503033Y74664337D01*
X36364485Y74706365D01*
X36256505Y74717000D01*
X36220400Y74720556D01*
X36184295Y74717000D01*
X35253205Y74717000D01*
X35217100Y74720556D01*
X35073015Y74706365D01*
X34934466Y74664337D01*
X34830776Y74608913D01*
X34806780Y74596087D01*
X34694862Y74504238D01*
X34671846Y74476193D01*
X29719391Y69523737D01*
X29609915Y69723000D01*
X28067000Y69723000D01*
X28067000Y69703000D01*
X27813000Y69703000D01*
X27813000Y69723000D01*
X26270085Y69723000D01*
X26148096Y69500961D01*
X26165633Y69418182D01*
X26276285Y69158354D01*
X26303104Y69119064D01*
X26253567Y69104037D01*
X26125880Y69035787D01*
X26013962Y68943938D01*
X25990946Y68915893D01*
X22132404Y65057350D01*
X22052182Y65321808D01*
X21918932Y65571101D01*
X21739608Y65789608D01*
X21521101Y65968932D01*
X21388142Y66040000D01*
X21521101Y66111068D01*
X21739608Y66290392D01*
X21918932Y66508899D01*
X22052182Y66758192D01*
X22134236Y67028691D01*
X22161943Y67310000D01*
X22134236Y67591309D01*
X22052182Y67861808D01*
X21918932Y68111101D01*
X21739608Y68329608D01*
X21521101Y68508932D01*
X21388142Y68580000D01*
X21521101Y68651068D01*
X21739608Y68830392D01*
X21918932Y69048899D01*
X22052182Y69298192D01*
X22134236Y69568691D01*
X22161943Y69850000D01*
X22134236Y70131309D01*
X22052182Y70401808D01*
X21918932Y70651101D01*
X21739608Y70869608D01*
X21521101Y71048932D01*
X21271808Y71182182D01*
X21001309Y71264236D01*
X20790492Y71285000D01*
X19849508Y71285000D01*
X19638691Y71264236D01*
X19368192Y71182182D01*
X19118899Y71048932D01*
X18900392Y70869608D01*
X18721068Y70651101D01*
X18587818Y70401808D01*
X18505764Y70131309D01*
X18478057Y69850000D01*
X18505764Y69568691D01*
X18587818Y69298192D01*
X18721068Y69048899D01*
X18900392Y68830392D01*
X19118899Y68651068D01*
X19251858Y68580000D01*
X19118899Y68508932D01*
X18900392Y68329608D01*
X18721068Y68111101D01*
X18587818Y67861808D01*
X18505764Y67591309D01*
X18478057Y67310000D01*
X18505764Y67028691D01*
X18587818Y66758192D01*
X18721068Y66508899D01*
X18900392Y66290392D01*
X19118899Y66111068D01*
X19251858Y66040000D01*
X19118899Y65968932D01*
X18900392Y65789608D01*
X18721068Y65571101D01*
X18587818Y65321808D01*
X18505764Y65051309D01*
X18478057Y64770000D01*
X18505764Y64488691D01*
X18584540Y64228997D01*
X18537514Y64224365D01*
X18502047Y64213606D01*
X18398967Y64182337D01*
X18271280Y64114087D01*
X18159362Y64022238D01*
X18136346Y63994193D01*
X11907554Y57765400D01*
X7686208Y57765400D01*
X7777932Y57986842D01*
X7835000Y58273740D01*
X7835000Y58566260D01*
X7777932Y58853158D01*
X7665990Y59123411D01*
X7503475Y59366632D01*
X7296632Y59573475D01*
X7122240Y59690000D01*
X7296632Y59806525D01*
X7503475Y60013368D01*
X7665990Y60256589D01*
X7777932Y60526842D01*
X7835000Y60813740D01*
X7835000Y61106260D01*
X7777932Y61393158D01*
X7665990Y61663411D01*
X7503475Y61906632D01*
X7296632Y62113475D01*
X7122240Y62230000D01*
X7296632Y62346525D01*
X7503475Y62553368D01*
X7578065Y62665000D01*
X11265375Y62665000D01*
X11274188Y62575518D01*
X11310498Y62455820D01*
X11369463Y62345506D01*
X11448815Y62248815D01*
X11545506Y62169463D01*
X11655820Y62110498D01*
X11775518Y62074188D01*
X11900000Y62061928D01*
X13500000Y62061928D01*
X13624482Y62074188D01*
X13744180Y62110498D01*
X13854494Y62169463D01*
X13951185Y62248815D01*
X14030537Y62345506D01*
X14089502Y62455820D01*
X14105117Y62507298D01*
X14386903Y62507298D01*
X14458486Y62263329D01*
X14713996Y62142429D01*
X14988184Y62073700D01*
X15270512Y62059783D01*
X15550130Y62101213D01*
X15816292Y62196397D01*
X15941514Y62263329D01*
X16013097Y62507298D01*
X15200000Y63320395D01*
X14386903Y62507298D01*
X14105117Y62507298D01*
X14125812Y62575518D01*
X14138072Y62700000D01*
X14138072Y62707215D01*
X14207298Y62686903D01*
X15020395Y63500000D01*
X15379605Y63500000D01*
X16192702Y62686903D01*
X16436671Y62758486D01*
X16557571Y63013996D01*
X16626300Y63288184D01*
X16640217Y63570512D01*
X16598787Y63850130D01*
X16503603Y64116292D01*
X16436671Y64241514D01*
X16192702Y64313097D01*
X15379605Y63500000D01*
X15020395Y63500000D01*
X14207298Y64313097D01*
X14138072Y64292785D01*
X14138072Y64300000D01*
X14125812Y64424482D01*
X14105118Y64492702D01*
X14386903Y64492702D01*
X15200000Y63679605D01*
X16013097Y64492702D01*
X15941514Y64736671D01*
X15686004Y64857571D01*
X15411816Y64926300D01*
X15129488Y64940217D01*
X14849870Y64898787D01*
X14583708Y64803603D01*
X14458486Y64736671D01*
X14386903Y64492702D01*
X14105118Y64492702D01*
X14089502Y64544180D01*
X14030537Y64654494D01*
X13951185Y64751185D01*
X13854494Y64830537D01*
X13744180Y64889502D01*
X13624482Y64925812D01*
X13500000Y64938072D01*
X11900000Y64938072D01*
X11775518Y64925812D01*
X11655820Y64889502D01*
X11545506Y64830537D01*
X11448815Y64751185D01*
X11369463Y64654494D01*
X11310498Y64544180D01*
X11274188Y64424482D01*
X11265375Y64335000D01*
X7578065Y64335000D01*
X7503475Y64446632D01*
X7296632Y64653475D01*
X7114466Y64775195D01*
X7231355Y64844822D01*
X7447588Y65039731D01*
X7621641Y65273080D01*
X7746825Y65535901D01*
X7791476Y65683110D01*
X7670155Y65913000D01*
X6477000Y65913000D01*
X6477000Y65893000D01*
X6223000Y65893000D01*
X6223000Y65913000D01*
X3937000Y65913000D01*
X3937000Y65893000D01*
X3683000Y65893000D01*
X3683000Y65913000D01*
X2489845Y65913000D01*
X2368524Y65683110D01*
X2413175Y65535901D01*
X2538359Y65273080D01*
X2712412Y65039731D01*
X2928645Y64844822D01*
X3045534Y64775195D01*
X2863368Y64653475D01*
X2656525Y64446632D01*
X2494010Y64203411D01*
X2382068Y63933158D01*
X2325000Y63646260D01*
X2325000Y63353740D01*
X2382068Y63066842D01*
X2494010Y62796589D01*
X2656525Y62553368D01*
X2863368Y62346525D01*
X3037760Y62230000D01*
X2863368Y62113475D01*
X2656525Y61906632D01*
X2494010Y61663411D01*
X2382068Y61393158D01*
X2325000Y61106260D01*
X2325000Y60813740D01*
X2382068Y60526842D01*
X2494010Y60256589D01*
X2656525Y60013368D01*
X2863368Y59806525D01*
X3037760Y59690000D01*
X2863368Y59573475D01*
X2656525Y59366632D01*
X2494010Y59123411D01*
X2382068Y58853158D01*
X2325000Y58566260D01*
X2325000Y58273740D01*
X2382068Y57986842D01*
X2494010Y57716589D01*
X2656525Y57473368D01*
X2863368Y57266525D01*
X3037760Y57150000D01*
X2863368Y57033475D01*
X2656525Y56826632D01*
X2494010Y56583411D01*
X2382068Y56313158D01*
X2325000Y56026260D01*
X2325000Y55733740D01*
X2382068Y55446842D01*
X2494010Y55176589D01*
X2656525Y54933368D01*
X2692223Y54897670D01*
X2157900Y54363347D01*
X2157900Y79096890D01*
X2368524Y79096890D01*
X2489845Y78867000D01*
X3683000Y78867000D01*
X3683000Y80060814D01*
X3937000Y80060814D01*
X3937000Y78867000D01*
X6223000Y78867000D01*
X6223000Y80060814D01*
X6477000Y80060814D01*
X6477000Y78867000D01*
X7670155Y78867000D01*
X7791476Y79096890D01*
X7746825Y79244099D01*
X7621641Y79506920D01*
X7447588Y79740269D01*
X7231355Y79935178D01*
X6981252Y80084157D01*
X6706891Y80181481D01*
X6477000Y80060814D01*
X6223000Y80060814D01*
X5993109Y80181481D01*
X5718748Y80084157D01*
X5468645Y79935178D01*
X5252412Y79740269D01*
X5080000Y79509120D01*
X4907588Y79740269D01*
X4691355Y79935178D01*
X4441252Y80084157D01*
X4166891Y80181481D01*
X3937000Y80060814D01*
X3683000Y80060814D01*
X3453109Y80181481D01*
X3178748Y80084157D01*
X2928645Y79935178D01*
X2712412Y79740269D01*
X2538359Y79506920D01*
X2413175Y79244099D01*
X2368524Y79096890D01*
X2157900Y79096890D01*
X2157900Y79313654D01*
X11046059Y88201813D01*
X11101068Y88098899D01*
G37*
G04 #@! TD.AperFunction*
D22*
X53252429Y77956004D02*
X53183700Y77681816D01*
X53169783Y77399488D01*
X53211213Y77119870D01*
X53306397Y76853708D01*
X53373329Y76728486D01*
X53617298Y76656903D01*
X54430395Y77470000D01*
X54416253Y77484142D01*
X54595858Y77663747D01*
X54610000Y77649605D01*
X54624143Y77663747D01*
X54803748Y77484142D01*
X54789605Y77470000D01*
X55602702Y76656903D01*
X55846671Y76728486D01*
X55967571Y76983996D01*
X56036300Y77258184D01*
X56050217Y77540512D01*
X56008787Y77820130D01*
X55942674Y78005000D01*
X60215054Y78005000D01*
X64064153Y74155900D01*
X57200094Y74155900D01*
X57163999Y74159455D01*
X57127904Y74155900D01*
X57127895Y74155900D01*
X57019915Y74145265D01*
X56991350Y74136600D01*
X46739833Y74136600D01*
X46916671Y74188486D01*
X47037571Y74443996D01*
X47106300Y74718184D01*
X47120217Y75000512D01*
X47078787Y75280130D01*
X46983603Y75546292D01*
X46916671Y75671514D01*
X46672702Y75743097D01*
X45859605Y74930000D01*
X45873748Y74915857D01*
X45694143Y74736252D01*
X45680000Y74750395D01*
X45665858Y74736252D01*
X45486253Y74915857D01*
X45500395Y74930000D01*
X45486253Y74944142D01*
X45665858Y75123747D01*
X45680000Y75109605D01*
X46493097Y75922702D01*
X46421514Y76166671D01*
X46166004Y76287571D01*
X45891816Y76356300D01*
X45609488Y76370217D01*
X45398033Y76338886D01*
X45536445Y76477298D01*
X53796903Y76477298D01*
X53868486Y76233329D01*
X54123996Y76112429D01*
X54398184Y76043700D01*
X54680512Y76029783D01*
X54960130Y76071213D01*
X55226292Y76166397D01*
X55351514Y76233329D01*
X55423097Y76477298D01*
X54610000Y77290395D01*
X53796903Y76477298D01*
X45536445Y76477298D01*
X46581385Y77522238D01*
X46608815Y77488815D01*
X46705506Y77409463D01*
X46815820Y77350498D01*
X46935518Y77314188D01*
X47060000Y77301928D01*
X49460000Y77301928D01*
X49584482Y77314188D01*
X49704180Y77350498D01*
X49814494Y77409463D01*
X49911185Y77488815D01*
X49990537Y77585506D01*
X50049502Y77695820D01*
X50085812Y77815518D01*
X50098072Y77940000D01*
X50098072Y78005000D01*
X53275613Y78005000D01*
X53252429Y77956004D01*
G04 #@! TA.AperFunction,Conductor*
D23*
G36*
X53252429Y77956004D02*
G01*
X53183700Y77681816D01*
X53169783Y77399488D01*
X53211213Y77119870D01*
X53306397Y76853708D01*
X53373329Y76728486D01*
X53617298Y76656903D01*
X54430395Y77470000D01*
X54416253Y77484142D01*
X54595858Y77663747D01*
X54610000Y77649605D01*
X54624143Y77663747D01*
X54803748Y77484142D01*
X54789605Y77470000D01*
X55602702Y76656903D01*
X55846671Y76728486D01*
X55967571Y76983996D01*
X56036300Y77258184D01*
X56050217Y77540512D01*
X56008787Y77820130D01*
X55942674Y78005000D01*
X60215054Y78005000D01*
X64064153Y74155900D01*
X57200094Y74155900D01*
X57163999Y74159455D01*
X57127904Y74155900D01*
X57127895Y74155900D01*
X57019915Y74145265D01*
X56991350Y74136600D01*
X46739833Y74136600D01*
X46916671Y74188486D01*
X47037571Y74443996D01*
X47106300Y74718184D01*
X47120217Y75000512D01*
X47078787Y75280130D01*
X46983603Y75546292D01*
X46916671Y75671514D01*
X46672702Y75743097D01*
X45859605Y74930000D01*
X45873748Y74915857D01*
X45694143Y74736252D01*
X45680000Y74750395D01*
X45665858Y74736252D01*
X45486253Y74915857D01*
X45500395Y74930000D01*
X45486253Y74944142D01*
X45665858Y75123747D01*
X45680000Y75109605D01*
X46493097Y75922702D01*
X46421514Y76166671D01*
X46166004Y76287571D01*
X45891816Y76356300D01*
X45609488Y76370217D01*
X45398033Y76338886D01*
X45536445Y76477298D01*
X53796903Y76477298D01*
X53868486Y76233329D01*
X54123996Y76112429D01*
X54398184Y76043700D01*
X54680512Y76029783D01*
X54960130Y76071213D01*
X55226292Y76166397D01*
X55351514Y76233329D01*
X55423097Y76477298D01*
X54610000Y77290395D01*
X53796903Y76477298D01*
X45536445Y76477298D01*
X46581385Y77522238D01*
X46608815Y77488815D01*
X46705506Y77409463D01*
X46815820Y77350498D01*
X46935518Y77314188D01*
X47060000Y77301928D01*
X49460000Y77301928D01*
X49584482Y77314188D01*
X49704180Y77350498D01*
X49814494Y77409463D01*
X49911185Y77488815D01*
X49990537Y77585506D01*
X50049502Y77695820D01*
X50085812Y77815518D01*
X50098072Y77940000D01*
X50098072Y78005000D01*
X53275613Y78005000D01*
X53252429Y77956004D01*
G37*
G04 #@! TD.AperFunction*
D22*
X46445764Y84101309D02*
X46418057Y83820000D01*
X46445764Y83538691D01*
X46527818Y83268192D01*
X46661068Y83018899D01*
X46840392Y82800392D01*
X47058899Y82621068D01*
X47191858Y82550000D01*
X47058899Y82478932D01*
X46840392Y82299608D01*
X46661068Y82081101D01*
X46620298Y82004826D01*
X46615615Y82004365D01*
X46477066Y81962337D01*
X46417620Y81930562D01*
X46349380Y81894087D01*
X46237462Y81802238D01*
X46214447Y81774194D01*
X45073854Y80633600D01*
X42322984Y80633600D01*
X42414367Y80848182D01*
X42431904Y80930961D01*
X42309915Y81153000D01*
X40767000Y81153000D01*
X40767000Y81133000D01*
X40513000Y81133000D01*
X40513000Y81153000D01*
X40493000Y81153000D01*
X40493000Y81407000D01*
X40513000Y81407000D01*
X40513000Y81427000D01*
X40767000Y81427000D01*
X40767000Y81407000D01*
X42309915Y81407000D01*
X42431904Y81629039D01*
X42414367Y81711818D01*
X42370425Y81815000D01*
X42825895Y81815000D01*
X42862000Y81811444D01*
X42898105Y81815000D01*
X43006085Y81825635D01*
X43144633Y81867663D01*
X43272320Y81935913D01*
X43384238Y82027762D01*
X43407259Y82055812D01*
X45651247Y84299800D01*
X46505975Y84299800D01*
X46445764Y84101309D01*
G04 #@! TA.AperFunction,Conductor*
D23*
G36*
X46445764Y84101309D02*
G01*
X46418057Y83820000D01*
X46445764Y83538691D01*
X46527818Y83268192D01*
X46661068Y83018899D01*
X46840392Y82800392D01*
X47058899Y82621068D01*
X47191858Y82550000D01*
X47058899Y82478932D01*
X46840392Y82299608D01*
X46661068Y82081101D01*
X46620298Y82004826D01*
X46615615Y82004365D01*
X46477066Y81962337D01*
X46417620Y81930562D01*
X46349380Y81894087D01*
X46237462Y81802238D01*
X46214447Y81774194D01*
X45073854Y80633600D01*
X42322984Y80633600D01*
X42414367Y80848182D01*
X42431904Y80930961D01*
X42309915Y81153000D01*
X40767000Y81153000D01*
X40767000Y81133000D01*
X40513000Y81133000D01*
X40513000Y81153000D01*
X40493000Y81153000D01*
X40493000Y81407000D01*
X40513000Y81407000D01*
X40513000Y81427000D01*
X40767000Y81427000D01*
X40767000Y81407000D01*
X42309915Y81407000D01*
X42431904Y81629039D01*
X42414367Y81711818D01*
X42370425Y81815000D01*
X42825895Y81815000D01*
X42862000Y81811444D01*
X42898105Y81815000D01*
X43006085Y81825635D01*
X43144633Y81867663D01*
X43272320Y81935913D01*
X43384238Y82027762D01*
X43407259Y82055812D01*
X45651247Y84299800D01*
X46505975Y84299800D01*
X46445764Y84101309D01*
G37*
G04 #@! TD.AperFunction*
D22*
X63627000Y86487000D02*
X63647000Y86487000D01*
X63647000Y86233000D01*
X63627000Y86233000D01*
X63627000Y84690085D01*
X63849039Y84568096D01*
X63931818Y84585633D01*
X64191646Y84696285D01*
X64424895Y84855500D01*
X64622601Y85057161D01*
X64772735Y85286741D01*
X64841068Y85158899D01*
X65020393Y84940392D01*
X65238900Y84761068D01*
X65488193Y84627818D01*
X65758692Y84545764D01*
X66040000Y84518057D01*
X66321309Y84545764D01*
X66591808Y84627818D01*
X66841101Y84761068D01*
X67059608Y84940392D01*
X67238932Y85158899D01*
X67310000Y85291858D01*
X67381068Y85158899D01*
X67560393Y84940392D01*
X67778900Y84761068D01*
X68028193Y84627818D01*
X68298692Y84545764D01*
X68580000Y84518057D01*
X68861309Y84545764D01*
X69131808Y84627818D01*
X69381101Y84761068D01*
X69599608Y84940392D01*
X69778932Y85158899D01*
X69850000Y85291858D01*
X69921068Y85158899D01*
X70100393Y84940392D01*
X70318900Y84761068D01*
X70568193Y84627818D01*
X70838692Y84545764D01*
X71120000Y84518057D01*
X71401309Y84545764D01*
X71671808Y84627818D01*
X71921101Y84761068D01*
X72139608Y84940392D01*
X72318932Y85158899D01*
X72390000Y85291858D01*
X72461068Y85158899D01*
X72640393Y84940392D01*
X72858900Y84761068D01*
X73108193Y84627818D01*
X73378692Y84545764D01*
X73660000Y84518057D01*
X73941309Y84545764D01*
X74211808Y84627818D01*
X74461101Y84761068D01*
X74679608Y84940392D01*
X74858932Y85158899D01*
X74930000Y85291858D01*
X75001068Y85158899D01*
X75180393Y84940392D01*
X75398900Y84761068D01*
X75648193Y84627818D01*
X75918692Y84545764D01*
X76200000Y84518057D01*
X76481309Y84545764D01*
X76751808Y84627818D01*
X77001101Y84761068D01*
X77219608Y84940392D01*
X77398932Y85158899D01*
X77467265Y85286741D01*
X77617399Y85057161D01*
X77815105Y84855500D01*
X78048354Y84696285D01*
X78308182Y84585633D01*
X78390961Y84568096D01*
X78613000Y84690085D01*
X78613000Y86233000D01*
X78593000Y86233000D01*
X78593000Y86487000D01*
X78613000Y86487000D01*
X78613000Y86507000D01*
X78867000Y86507000D01*
X78867000Y86487000D01*
X78887000Y86487000D01*
X78887000Y86233000D01*
X78867000Y86233000D01*
X78867000Y84690085D01*
X79089039Y84568096D01*
X79171818Y84585633D01*
X79431646Y84696285D01*
X79664895Y84855500D01*
X79862601Y85057161D01*
X80012735Y85286741D01*
X80081068Y85158899D01*
X80260393Y84940392D01*
X80293816Y84912963D01*
X76253254Y80872400D01*
X65184953Y80872400D01*
X65111205Y80921677D01*
X64950145Y80988390D01*
X64779165Y81022400D01*
X64604835Y81022400D01*
X64433855Y80988390D01*
X64272795Y80921677D01*
X64127845Y80824824D01*
X64041384Y80738363D01*
X60511400Y84268346D01*
X60511400Y84596511D01*
X60678692Y84545764D01*
X60960000Y84518057D01*
X61241309Y84545764D01*
X61511808Y84627818D01*
X61761101Y84761068D01*
X61979608Y84940392D01*
X62158932Y85158899D01*
X62227265Y85286741D01*
X62377399Y85057161D01*
X62575105Y84855500D01*
X62808354Y84696285D01*
X63068182Y84585633D01*
X63150961Y84568096D01*
X63373000Y84690085D01*
X63373000Y86233000D01*
X63353000Y86233000D01*
X63353000Y86487000D01*
X63373000Y86487000D01*
X63373000Y86507000D01*
X63627000Y86507000D01*
X63627000Y86487000D01*
G04 #@! TA.AperFunction,Conductor*
D23*
G36*
X63627000Y86487000D02*
G01*
X63647000Y86487000D01*
X63647000Y86233000D01*
X63627000Y86233000D01*
X63627000Y84690085D01*
X63849039Y84568096D01*
X63931818Y84585633D01*
X64191646Y84696285D01*
X64424895Y84855500D01*
X64622601Y85057161D01*
X64772735Y85286741D01*
X64841068Y85158899D01*
X65020393Y84940392D01*
X65238900Y84761068D01*
X65488193Y84627818D01*
X65758692Y84545764D01*
X66040000Y84518057D01*
X66321309Y84545764D01*
X66591808Y84627818D01*
X66841101Y84761068D01*
X67059608Y84940392D01*
X67238932Y85158899D01*
X67310000Y85291858D01*
X67381068Y85158899D01*
X67560393Y84940392D01*
X67778900Y84761068D01*
X68028193Y84627818D01*
X68298692Y84545764D01*
X68580000Y84518057D01*
X68861309Y84545764D01*
X69131808Y84627818D01*
X69381101Y84761068D01*
X69599608Y84940392D01*
X69778932Y85158899D01*
X69850000Y85291858D01*
X69921068Y85158899D01*
X70100393Y84940392D01*
X70318900Y84761068D01*
X70568193Y84627818D01*
X70838692Y84545764D01*
X71120000Y84518057D01*
X71401309Y84545764D01*
X71671808Y84627818D01*
X71921101Y84761068D01*
X72139608Y84940392D01*
X72318932Y85158899D01*
X72390000Y85291858D01*
X72461068Y85158899D01*
X72640393Y84940392D01*
X72858900Y84761068D01*
X73108193Y84627818D01*
X73378692Y84545764D01*
X73660000Y84518057D01*
X73941309Y84545764D01*
X74211808Y84627818D01*
X74461101Y84761068D01*
X74679608Y84940392D01*
X74858932Y85158899D01*
X74930000Y85291858D01*
X75001068Y85158899D01*
X75180393Y84940392D01*
X75398900Y84761068D01*
X75648193Y84627818D01*
X75918692Y84545764D01*
X76200000Y84518057D01*
X76481309Y84545764D01*
X76751808Y84627818D01*
X77001101Y84761068D01*
X77219608Y84940392D01*
X77398932Y85158899D01*
X77467265Y85286741D01*
X77617399Y85057161D01*
X77815105Y84855500D01*
X78048354Y84696285D01*
X78308182Y84585633D01*
X78390961Y84568096D01*
X78613000Y84690085D01*
X78613000Y86233000D01*
X78593000Y86233000D01*
X78593000Y86487000D01*
X78613000Y86487000D01*
X78613000Y86507000D01*
X78867000Y86507000D01*
X78867000Y86487000D01*
X78887000Y86487000D01*
X78887000Y86233000D01*
X78867000Y86233000D01*
X78867000Y84690085D01*
X79089039Y84568096D01*
X79171818Y84585633D01*
X79431646Y84696285D01*
X79664895Y84855500D01*
X79862601Y85057161D01*
X80012735Y85286741D01*
X80081068Y85158899D01*
X80260393Y84940392D01*
X80293816Y84912963D01*
X76253254Y80872400D01*
X65184953Y80872400D01*
X65111205Y80921677D01*
X64950145Y80988390D01*
X64779165Y81022400D01*
X64604835Y81022400D01*
X64433855Y80988390D01*
X64272795Y80921677D01*
X64127845Y80824824D01*
X64041384Y80738363D01*
X60511400Y84268346D01*
X60511400Y84596511D01*
X60678692Y84545764D01*
X60960000Y84518057D01*
X61241309Y84545764D01*
X61511808Y84627818D01*
X61761101Y84761068D01*
X61979608Y84940392D01*
X62158932Y85158899D01*
X62227265Y85286741D01*
X62377399Y85057161D01*
X62575105Y84855500D01*
X62808354Y84696285D01*
X63068182Y84585633D01*
X63150961Y84568096D01*
X63373000Y84690085D01*
X63373000Y86233000D01*
X63353000Y86233000D01*
X63353000Y86487000D01*
X63373000Y86487000D01*
X63373000Y86507000D01*
X63627000Y86507000D01*
X63627000Y86487000D01*
G37*
G04 #@! TD.AperFunction*
M02*
