G04 #@! TF.GenerationSoftware,KiCad,Pcbnew,(5.1.9)-1*
G04 #@! TF.CreationDate,2025-01-16T13:32:40+09:00*
G04 #@! TF.ProjectId,JR-200_SD,4a522d32-3030-45f5-9344-2e6b69636164,rev?*
G04 #@! TF.SameCoordinates,PX53920b0PY93c3260*
G04 #@! TF.FileFunction,Copper,L1,Top*
G04 #@! TF.FilePolarity,Positive*
%FSLAX46Y46*%
G04 Gerber Fmt 4.6, Leading zero omitted, Abs format (unit mm)*
G04 Created by KiCad (PCBNEW (5.1.9)-1) date 2025-01-16 13:32:40*
%MOMM*%
%LPD*%
G01*
G04 APERTURE LIST*
G04 #@! TA.AperFunction,ComponentPad*
%ADD10C,1.600000*%
G04 #@! TD*
G04 #@! TA.AperFunction,ComponentPad*
%ADD11R,2.400000X1.600000*%
G04 #@! TD*
G04 #@! TA.AperFunction,ComponentPad*
%ADD12O,2.400000X1.600000*%
G04 #@! TD*
G04 #@! TA.AperFunction,ComponentPad*
%ADD13R,1.700000X1.700000*%
G04 #@! TD*
G04 #@! TA.AperFunction,ComponentPad*
%ADD14O,1.700000X1.700000*%
G04 #@! TD*
G04 #@! TA.AperFunction,ComponentPad*
%ADD15R,1.600000X1.600000*%
G04 #@! TD*
G04 #@! TA.AperFunction,ComponentPad*
%ADD16O,1.600000X1.600000*%
G04 #@! TD*
G04 #@! TA.AperFunction,ComponentPad*
%ADD17R,1.600000X2.400000*%
G04 #@! TD*
G04 #@! TA.AperFunction,ComponentPad*
%ADD18O,1.600000X2.400000*%
G04 #@! TD*
G04 #@! TA.AperFunction,ViaPad*
%ADD19C,0.500000*%
G04 #@! TD*
G04 #@! TA.AperFunction,Conductor*
%ADD20C,0.400000*%
G04 #@! TD*
G04 #@! TA.AperFunction,Conductor*
%ADD21C,0.200000*%
G04 #@! TD*
G04 #@! TA.AperFunction,Conductor*
%ADD22C,0.254000*%
G04 #@! TD*
G04 #@! TA.AperFunction,Conductor*
%ADD23C,0.100000*%
G04 #@! TD*
G04 APERTURE END LIST*
D10*
X41312000Y58522000D03*
X43812000Y58522000D03*
D11*
X50837000Y6452000D03*
D12*
X35597000Y54712000D03*
X50837000Y8992000D03*
X35597000Y52172000D03*
X50837000Y11532000D03*
X35597000Y49632000D03*
X50837000Y14072000D03*
X35597000Y47092000D03*
X50837000Y16612000D03*
X35597000Y44552000D03*
X50837000Y19152000D03*
X35597000Y42012000D03*
X50837000Y21692000D03*
X35597000Y39472000D03*
X50837000Y24232000D03*
X35597000Y36932000D03*
X50837000Y26772000D03*
X35597000Y34392000D03*
X50837000Y29312000D03*
X35597000Y31852000D03*
X50837000Y31852000D03*
X35597000Y29312000D03*
X50837000Y34392000D03*
X35597000Y26772000D03*
X50837000Y36932000D03*
X35597000Y24232000D03*
X50837000Y39472000D03*
X35597000Y21692000D03*
X50837000Y42012000D03*
X35597000Y19152000D03*
X50837000Y44552000D03*
X35597000Y16612000D03*
X50837000Y47092000D03*
X35597000Y14072000D03*
X50837000Y49632000D03*
X35597000Y11532000D03*
X50837000Y52172000D03*
X35597000Y8992000D03*
X50837000Y54712000D03*
X35597000Y6452000D03*
D10*
X54610000Y77470000D03*
X54610000Y79970000D03*
D13*
X69850000Y58420000D03*
D14*
X69850000Y55880000D03*
X69850000Y53340000D03*
X69850000Y50800000D03*
X69850000Y48260000D03*
X69850000Y45720000D03*
X69850000Y43180000D03*
X69850000Y40640000D03*
X69850000Y38100000D03*
X97790000Y38100000D03*
X95250000Y38100000D03*
X97790000Y58420000D03*
X95250000Y58420000D03*
D15*
X90170000Y27940000D03*
D16*
X87630000Y27940000D03*
X85090000Y27940000D03*
X62230000Y12700000D03*
X82550000Y27940000D03*
X64770000Y12700000D03*
X80010000Y27940000D03*
X67310000Y12700000D03*
X77470000Y27940000D03*
X69850000Y12700000D03*
X74930000Y27940000D03*
X72390000Y12700000D03*
X72390000Y27940000D03*
X74930000Y12700000D03*
X69850000Y27940000D03*
X77470000Y12700000D03*
X67310000Y27940000D03*
X80010000Y12700000D03*
X64770000Y27940000D03*
X82550000Y12700000D03*
X62230000Y27940000D03*
X85090000Y12700000D03*
X87630000Y12700000D03*
X90170000Y12700000D03*
X81280000Y15240000D03*
X78740000Y15240000D03*
X71120000Y15240000D03*
X68580000Y15240000D03*
D13*
X60960000Y53975000D03*
D14*
X60960000Y51435000D03*
X60960000Y48895000D03*
X60960000Y46355000D03*
X60960000Y43815000D03*
X60960000Y41275000D03*
D13*
X6350000Y17780000D03*
D14*
X3810000Y17780000D03*
X6350000Y20320000D03*
X3810000Y20320000D03*
X6350000Y22860000D03*
X3810000Y22860000D03*
X6350000Y25400000D03*
X3810000Y25400000D03*
X6350000Y27940000D03*
X3810000Y27940000D03*
X6350000Y30480000D03*
X3810000Y30480000D03*
X6350000Y33020000D03*
X3810000Y33020000D03*
X6350000Y35560000D03*
X3810000Y35560000D03*
X6350000Y38100000D03*
X3810000Y38100000D03*
X6350000Y40640000D03*
X3810000Y40640000D03*
X6350000Y43180000D03*
X3810000Y43180000D03*
X6350000Y45720000D03*
X3810000Y45720000D03*
X6350000Y48260000D03*
X3810000Y48260000D03*
X6350000Y50800000D03*
X3810000Y50800000D03*
X6350000Y53340000D03*
X3810000Y53340000D03*
X6350000Y55880000D03*
X3810000Y55880000D03*
X6350000Y58420000D03*
X3810000Y58420000D03*
X6350000Y60960000D03*
X3810000Y60960000D03*
X6350000Y63500000D03*
X3810000Y63500000D03*
X6350000Y66040000D03*
X3810000Y66040000D03*
X6350000Y68580000D03*
X3810000Y68580000D03*
X6350000Y71120000D03*
X3810000Y71120000D03*
X6350000Y73660000D03*
X3810000Y73660000D03*
X6350000Y76200000D03*
X3810000Y76200000D03*
X6350000Y78740000D03*
X3810000Y78740000D03*
D15*
X12700000Y63500000D03*
D10*
X15200000Y63500000D03*
D12*
X20320000Y30480000D03*
X27940000Y45720000D03*
X20320000Y33020000D03*
X27940000Y43180000D03*
X20320000Y35560000D03*
X27940000Y40640000D03*
X20320000Y38100000D03*
X27940000Y38100000D03*
X20320000Y40640000D03*
X27940000Y35560000D03*
X20320000Y43180000D03*
X27940000Y33020000D03*
X20320000Y45720000D03*
D11*
X27940000Y30480000D03*
X27940000Y54610000D03*
D12*
X20320000Y69850000D03*
X27940000Y57150000D03*
X20320000Y67310000D03*
X27940000Y59690000D03*
X20320000Y64770000D03*
X27940000Y62230000D03*
X20320000Y62230000D03*
X27940000Y64770000D03*
X20320000Y59690000D03*
X27940000Y67310000D03*
X20320000Y57150000D03*
X27940000Y69850000D03*
X20320000Y54610000D03*
D11*
X34290000Y78740000D03*
D12*
X26670000Y93980000D03*
X34290000Y81280000D03*
X26670000Y91440000D03*
X34290000Y83820000D03*
X26670000Y88900000D03*
X34290000Y86360000D03*
X26670000Y86360000D03*
X34290000Y88900000D03*
X26670000Y83820000D03*
X34290000Y91440000D03*
X26670000Y81280000D03*
X34290000Y93980000D03*
X26670000Y78740000D03*
X20320000Y6350000D03*
X27940000Y21590000D03*
X20320000Y8890000D03*
X27940000Y19050000D03*
X20320000Y11430000D03*
X27940000Y16510000D03*
X20320000Y13970000D03*
X27940000Y13970000D03*
X20320000Y16510000D03*
X27940000Y11430000D03*
X20320000Y19050000D03*
X27940000Y8890000D03*
X20320000Y21590000D03*
D11*
X27940000Y6350000D03*
D12*
X40640000Y78740000D03*
X48260000Y93980000D03*
X40640000Y81280000D03*
X48260000Y91440000D03*
X40640000Y83820000D03*
X48260000Y88900000D03*
X40640000Y86360000D03*
X48260000Y86360000D03*
X40640000Y88900000D03*
X48260000Y83820000D03*
X40640000Y91440000D03*
X48260000Y81280000D03*
X40640000Y93980000D03*
D11*
X48260000Y78740000D03*
D12*
X12700000Y78740000D03*
X20320000Y93980000D03*
X12700000Y81280000D03*
X20320000Y91440000D03*
X12700000Y83820000D03*
X20320000Y88900000D03*
X12700000Y86360000D03*
X20320000Y86360000D03*
X12700000Y88900000D03*
X20320000Y83820000D03*
X12700000Y91440000D03*
X20320000Y81280000D03*
X12700000Y93980000D03*
D11*
X20320000Y78740000D03*
D10*
X22860000Y50800000D03*
X25360000Y50800000D03*
X22860000Y2540000D03*
X25360000Y2540000D03*
X15240000Y74930000D03*
X17740000Y74930000D03*
X25400000Y26670000D03*
X22900000Y26670000D03*
X29210000Y74930000D03*
X31710000Y74930000D03*
X45680000Y74930000D03*
X43180000Y74930000D03*
D13*
X56515000Y93345000D03*
D14*
X59055000Y93345000D03*
X61595000Y93345000D03*
X86995000Y93345000D03*
X84455000Y93345000D03*
D13*
X81915000Y93345000D03*
D17*
X58420000Y71120000D03*
D18*
X91440000Y86360000D03*
X60960000Y71120000D03*
X88900000Y86360000D03*
X63500000Y71120000D03*
X86360000Y86360000D03*
X66040000Y71120000D03*
X83820000Y86360000D03*
X68580000Y71120000D03*
X81280000Y86360000D03*
X71120000Y71120000D03*
X78740000Y86360000D03*
X73660000Y71120000D03*
X76200000Y86360000D03*
X76200000Y71120000D03*
X73660000Y86360000D03*
X78740000Y71120000D03*
X71120000Y86360000D03*
X81280000Y71120000D03*
X68580000Y86360000D03*
X83820000Y71120000D03*
X66040000Y86360000D03*
X86360000Y71120000D03*
X63500000Y86360000D03*
X88900000Y71120000D03*
X60960000Y86360000D03*
X91440000Y71120000D03*
X58420000Y86360000D03*
D19*
X25126900Y69518500D03*
X7913900Y23837200D03*
X38436900Y17360700D03*
X60314900Y68647300D03*
X46038200Y92195100D03*
X41156100Y19743900D03*
X20586200Y20320000D03*
X42696000Y72116900D03*
X62865800Y72737800D03*
X25583200Y32927900D03*
X25655700Y33728000D03*
X15600300Y44569700D03*
X25826400Y68580000D03*
X49240700Y59973100D03*
X45372700Y61111300D03*
X44766600Y59695500D03*
X49336600Y33660200D03*
X42603300Y60192100D03*
X32748700Y18420200D03*
X51633600Y25502000D03*
X44353600Y56730400D03*
X22402000Y17422900D03*
X23093900Y60959300D03*
X25809300Y12438900D03*
X42053000Y49741000D03*
X41978000Y47781100D03*
X41337100Y46828500D03*
X40376000Y44964000D03*
D20*
X20320000Y62230000D02*
X21920300Y62230000D01*
X27940000Y67310000D02*
X26339700Y67310000D01*
X26339700Y67310000D02*
X21920300Y62890600D01*
X21920300Y62890600D02*
X21920300Y62230000D01*
X60960000Y51435000D02*
X59709700Y51435000D01*
X41312000Y53442000D02*
X57702700Y53442000D01*
X57702700Y53442000D02*
X59709700Y51435000D01*
X41312000Y53442000D02*
X41312000Y47727000D01*
X41312000Y47727000D02*
X35597000Y42012000D01*
X41312000Y58522000D02*
X41312000Y53442000D01*
X82550000Y12700000D02*
X81349700Y12700000D01*
X22860000Y3740400D02*
X72763100Y3740400D01*
X72763100Y3740400D02*
X81349700Y12327000D01*
X81349700Y12327000D02*
X81349700Y12700000D01*
X22860000Y3740400D02*
X22860000Y3810000D01*
X22860000Y3810000D02*
X20320000Y6350000D01*
X22860000Y2540000D02*
X22860000Y3740400D01*
X86995000Y93345000D02*
X85744700Y93345000D01*
X61595000Y93345000D02*
X62845300Y93345000D01*
X62845300Y93345000D02*
X64099800Y94599500D01*
X64099800Y94599500D02*
X85008300Y94599500D01*
X85008300Y94599500D02*
X85744700Y93863100D01*
X85744700Y93863100D02*
X85744700Y93345000D01*
X40640000Y78740000D02*
X39039700Y78740000D01*
X29210000Y76130400D02*
X36430100Y76130400D01*
X36430100Y76130400D02*
X39039700Y78740000D01*
X29210000Y76130400D02*
X29210000Y76200000D01*
X29210000Y76200000D02*
X26670000Y78740000D01*
X29210000Y74930000D02*
X29210000Y76130400D01*
X26670000Y78740000D02*
X25069700Y78740000D01*
X15240000Y76130400D02*
X22460100Y76130400D01*
X22460100Y76130400D02*
X25069700Y78740000D01*
X15240000Y76130400D02*
X15240000Y76200000D01*
X15240000Y76200000D02*
X12700000Y78740000D01*
X15240000Y74930000D02*
X15240000Y76130400D01*
X43180000Y74930000D02*
X43180000Y76200000D01*
X43180000Y76200000D02*
X40640000Y78740000D01*
X12700000Y63500000D02*
X6350000Y63500000D01*
X6350000Y63500000D02*
X3810000Y63500000D01*
X54610000Y79970000D02*
X54610000Y82550000D01*
X54610000Y82550000D02*
X58420000Y86360000D01*
X22900000Y26670000D02*
X22900000Y27900000D01*
X22900000Y27900000D02*
X20320000Y30480000D01*
X22860000Y50800000D02*
X22860000Y52070000D01*
X22860000Y52070000D02*
X20320000Y54610000D01*
X25126900Y69850000D02*
X26339700Y69850000D01*
X17740000Y74930000D02*
X22820000Y69850000D01*
X22820000Y69850000D02*
X25126900Y69850000D01*
X25126900Y69850000D02*
X25126900Y69518500D01*
X15200000Y63500000D02*
X12660000Y66040000D01*
X12660000Y66040000D02*
X6350000Y66040000D01*
X60960000Y53975000D02*
X59709700Y53975000D01*
X43812000Y58522000D02*
X55162700Y58522000D01*
X55162700Y58522000D02*
X59709700Y53975000D01*
X25360000Y50800000D02*
X25360000Y46699700D01*
X25360000Y46699700D02*
X26339700Y45720000D01*
X48260000Y93980000D02*
X49860300Y93980000D01*
X56515000Y93280000D02*
X50560300Y93280000D01*
X50560300Y93280000D02*
X49860300Y93980000D01*
X56515000Y93345000D02*
X56515000Y93280000D01*
X56515000Y93162400D02*
X56515000Y93280000D01*
X56515000Y93162400D02*
X56515000Y92094700D01*
X60812800Y84397400D02*
X54610000Y78194600D01*
X54610000Y78194600D02*
X54610000Y77470000D01*
X63500000Y84759700D02*
X61175100Y84759700D01*
X61175100Y84759700D02*
X60812800Y84397400D01*
X60812800Y84397400D02*
X59690100Y85520100D01*
X59690100Y85520100D02*
X59690100Y88919600D01*
X59690100Y88919600D02*
X56515000Y92094700D01*
X49236700Y21692000D02*
X48032100Y20487400D01*
X48032100Y20487400D02*
X30642900Y20487400D01*
X30642900Y20487400D02*
X29540300Y21590000D01*
X27940000Y45720000D02*
X26339700Y45720000D01*
X32910400Y73729600D02*
X31710000Y74930000D01*
X45680000Y74930000D02*
X44479600Y73729600D01*
X44479600Y73729600D02*
X32910400Y73729600D01*
X29540300Y69850000D02*
X29540300Y70359500D01*
X29540300Y70359500D02*
X32910400Y73729600D01*
X27940000Y69850000D02*
X29540300Y69850000D01*
X27139900Y69850000D02*
X27940000Y69850000D01*
X27139900Y69850000D02*
X26339700Y69850000D01*
X3810000Y66040000D02*
X6350000Y66040000D01*
X35890300Y93980000D02*
X37160200Y92710100D01*
X37160200Y92710100D02*
X45389800Y92710100D01*
X45389800Y92710100D02*
X46659700Y93980000D01*
X61001500Y53975000D02*
X60960000Y53975000D01*
X61001500Y53975000D02*
X62210300Y53975000D01*
X50837000Y21692000D02*
X52437300Y21692000D01*
X52437300Y21692000D02*
X52465200Y21664100D01*
X52465200Y21664100D02*
X77840700Y21664100D01*
X77840700Y21664100D02*
X86429700Y13075100D01*
X86429700Y13075100D02*
X86429700Y12700000D01*
X87630000Y12700000D02*
X86429700Y12700000D01*
X62210300Y53975000D02*
X65385300Y50800000D01*
X65385300Y50800000D02*
X69850000Y50800000D01*
X3810000Y17780000D02*
X6350000Y17780000D01*
X50837000Y21692000D02*
X49236700Y21692000D01*
X27940000Y21590000D02*
X29540300Y21590000D01*
X34290000Y93980000D02*
X32689700Y93980000D01*
X20320000Y93980000D02*
X21920300Y93980000D01*
X21920300Y93980000D02*
X23129000Y95188700D01*
X23129000Y95188700D02*
X31481000Y95188700D01*
X31481000Y95188700D02*
X32689700Y93980000D01*
X48260000Y93980000D02*
X46659700Y93980000D01*
X34290000Y93980000D02*
X35890300Y93980000D01*
X63500000Y84909800D02*
X63500000Y84759700D01*
X63500000Y86360000D02*
X63500000Y84909800D01*
X78740000Y86360000D02*
X78740000Y84759700D01*
X63500000Y84759700D02*
X78740000Y84759700D01*
D21*
X7913900Y23837200D02*
X8040200Y23963500D01*
X8040200Y23963500D02*
X27872400Y23963500D01*
X27872400Y23963500D02*
X31840500Y27931600D01*
X31840500Y27931600D02*
X48177100Y27931600D01*
X48177100Y27931600D02*
X49336700Y26772000D01*
X50837000Y26772000D02*
X49336700Y26772000D01*
X38436900Y17360700D02*
X36559900Y15483700D01*
X36559900Y15483700D02*
X33431000Y15483700D01*
X33431000Y15483700D02*
X30805000Y12857700D01*
X30805000Y12857700D02*
X26168800Y12857700D01*
X26168800Y12857700D02*
X26037300Y12989200D01*
X26037300Y12989200D02*
X23379500Y12989200D01*
X23379500Y12989200D02*
X21820300Y11430000D01*
X20320000Y11430000D02*
X21820300Y11430000D01*
X3810000Y29329700D02*
X3571600Y29329700D01*
X3571600Y29329700D02*
X2652200Y28410300D01*
X2652200Y28410300D02*
X2652200Y22383800D01*
X2652200Y22383800D02*
X3347700Y21688300D01*
X3347700Y21688300D02*
X7546400Y21688300D01*
X7546400Y21688300D02*
X8981100Y23123000D01*
X8981100Y23123000D02*
X48227700Y23123000D01*
X48227700Y23123000D02*
X49336700Y24232000D01*
X3810000Y30480000D02*
X3810000Y29329700D01*
X50837000Y24232000D02*
X49336700Y24232000D01*
X20320000Y33020000D02*
X21820300Y33020000D01*
X60314900Y68647300D02*
X47519400Y68647300D01*
X47519400Y68647300D02*
X34096600Y55224500D01*
X34096600Y55224500D02*
X34096600Y49293500D01*
X34096600Y49293500D02*
X29725600Y44922500D01*
X29725600Y44922500D02*
X29725600Y35384200D01*
X29725600Y35384200D02*
X28801000Y34459600D01*
X28801000Y34459600D02*
X27397600Y34459600D01*
X27397600Y34459600D02*
X26428300Y33490300D01*
X26428300Y33490300D02*
X26428300Y32993300D01*
X26428300Y32993300D02*
X25780900Y32345900D01*
X25780900Y32345900D02*
X22494400Y32345900D01*
X22494400Y32345900D02*
X21820300Y33020000D01*
X4960300Y40640000D02*
X4960300Y40352400D01*
X4960300Y40352400D02*
X5870700Y39442000D01*
X5870700Y39442000D02*
X12397700Y39442000D01*
X12397700Y39442000D02*
X18819700Y33020000D01*
X20320000Y33020000D02*
X18819700Y33020000D01*
X3810000Y40640000D02*
X4960300Y40640000D01*
X76200000Y72620300D02*
X72505400Y76314900D01*
X72505400Y76314900D02*
X54203900Y76314900D01*
X54203900Y76314900D02*
X50449800Y80069000D01*
X50449800Y80069000D02*
X50449800Y84920400D01*
X50449800Y84920400D02*
X49010200Y86360000D01*
X48476800Y88900000D02*
X46038200Y91338600D01*
X46038200Y91338600D02*
X46038200Y92195100D01*
X48476800Y88900000D02*
X48693500Y88900000D01*
X48260000Y88900000D02*
X48476800Y88900000D01*
X76200000Y71120000D02*
X76200000Y72620300D01*
X49010200Y86360000D02*
X48693500Y86676700D01*
X48693500Y86676700D02*
X48693500Y88900000D01*
X48260000Y86360000D02*
X49010200Y86360000D01*
X41156100Y19743900D02*
X39453500Y18041300D01*
X39453500Y18041300D02*
X34388600Y18041300D01*
X34388600Y18041300D02*
X33379900Y19050000D01*
X33379900Y19050000D02*
X27940000Y19050000D01*
X27940000Y19050000D02*
X26439700Y19050000D01*
X26439700Y19050000D02*
X25169700Y20320000D01*
X25169700Y20320000D02*
X20586200Y20320000D01*
X48260000Y78740000D02*
X49760300Y78740000D01*
X73660000Y71120000D02*
X73660000Y72620300D01*
X73660000Y72620300D02*
X70615000Y75665300D01*
X70615000Y75665300D02*
X52835000Y75665300D01*
X52835000Y75665300D02*
X49760300Y78740000D01*
X42696000Y72116900D02*
X39213100Y68634000D01*
X39213100Y68634000D02*
X26878600Y68634000D01*
X26878600Y68634000D02*
X21744600Y63500000D01*
X21744600Y63500000D02*
X17334000Y63500000D01*
X17334000Y63500000D02*
X13404400Y59570400D01*
X13404400Y59570400D02*
X5811900Y59570400D01*
X5811900Y59570400D02*
X4960400Y58718900D01*
X4960400Y58718900D02*
X4960400Y57881900D01*
X4960400Y57881900D02*
X4228500Y57150000D01*
X4228500Y57150000D02*
X3444000Y57150000D01*
X3444000Y57150000D02*
X1414100Y55120100D01*
X1414100Y55120100D02*
X1414100Y35415900D01*
X1414100Y35415900D02*
X3810000Y33020000D01*
X4960300Y43180000D02*
X4960300Y42941600D01*
X4960300Y42941600D02*
X5991900Y41910000D01*
X5991900Y41910000D02*
X11555400Y41910000D01*
X11555400Y41910000D02*
X19175400Y34290000D01*
X19175400Y34290000D02*
X24221100Y34290000D01*
X24221100Y34290000D02*
X25583200Y32927900D01*
X3810000Y43180000D02*
X3810000Y44330300D01*
X62865800Y72737800D02*
X46990900Y72737800D01*
X46990900Y72737800D02*
X32673100Y58420000D01*
X32673100Y58420000D02*
X14713800Y58420000D01*
X14713800Y58420000D02*
X10784200Y54490400D01*
X10784200Y54490400D02*
X5811900Y54490400D01*
X5811900Y54490400D02*
X4960400Y53638900D01*
X4960400Y53638900D02*
X4960400Y52801900D01*
X4960400Y52801900D02*
X4228500Y52070000D01*
X4228500Y52070000D02*
X3374600Y52070000D01*
X3374600Y52070000D02*
X2214800Y50910200D01*
X2214800Y50910200D02*
X2214800Y45687100D01*
X2214800Y45687100D02*
X3571600Y44330300D01*
X3571600Y44330300D02*
X3810000Y44330300D01*
X3810000Y43180000D02*
X4960300Y43180000D01*
X28170300Y91440000D02*
X29440300Y90170000D01*
X29440300Y90170000D02*
X36081200Y90170000D01*
X36081200Y90170000D02*
X38621200Y87630000D01*
X38621200Y87630000D02*
X41332700Y87630000D01*
X41332700Y87630000D02*
X45953400Y83009300D01*
X45953400Y83009300D02*
X45953400Y78614900D01*
X45953400Y78614900D02*
X49303400Y75264900D01*
X49303400Y75264900D02*
X68475400Y75264900D01*
X68475400Y75264900D02*
X71120000Y72620300D01*
X26670000Y91440000D02*
X28170300Y91440000D01*
X71120000Y71120000D02*
X71120000Y72620300D01*
X20320000Y38100000D02*
X16732500Y38100000D01*
X16732500Y38100000D02*
X9112500Y45720000D01*
X9112500Y45720000D02*
X6350000Y45720000D01*
X6350000Y45720000D02*
X5176700Y46893300D01*
X5176700Y46893300D02*
X3531500Y46893300D01*
X3531500Y46893300D02*
X2626300Y47798500D01*
X2626300Y47798500D02*
X2626300Y48781800D01*
X2626300Y48781800D02*
X3374500Y49530000D01*
X3374500Y49530000D02*
X4194600Y49530000D01*
X4194600Y49530000D02*
X5199600Y50535000D01*
X5199600Y50535000D02*
X5199600Y51305000D01*
X5199600Y51305000D02*
X5845000Y51950400D01*
X5845000Y51950400D02*
X8810500Y51950400D01*
X8810500Y51950400D02*
X12740100Y55880000D01*
X12740100Y55880000D02*
X32942400Y55880000D01*
X32942400Y55880000D02*
X46682100Y69619700D01*
X46682100Y69619700D02*
X60960000Y69619700D01*
X60960000Y71120000D02*
X60960000Y69619700D01*
X35790300Y88900000D02*
X39600300Y85090000D01*
X39600300Y85090000D02*
X41334700Y85090000D01*
X41334700Y85090000D02*
X45411400Y81013300D01*
X45411400Y81013300D02*
X45411400Y78590400D01*
X45411400Y78590400D02*
X49185600Y74816200D01*
X49185600Y74816200D02*
X66384100Y74816200D01*
X66384100Y74816200D02*
X68580000Y72620300D01*
X32789700Y88900000D02*
X31519700Y87630000D01*
X31519700Y87630000D02*
X11062700Y87630000D01*
X11062700Y87630000D02*
X1013800Y77581100D01*
X1013800Y77581100D02*
X1013800Y34118900D01*
X1013800Y34118900D02*
X3287100Y31845600D01*
X3287100Y31845600D02*
X4291000Y31845600D01*
X4291000Y31845600D02*
X5014100Y32568700D01*
X5014100Y32568700D02*
X5014100Y33493200D01*
X5014100Y33493200D02*
X4097600Y34409700D01*
X4097600Y34409700D02*
X3810000Y34409700D01*
X34290000Y88900000D02*
X35790300Y88900000D01*
X68580000Y71120000D02*
X68580000Y72620300D01*
X3810000Y35560000D02*
X3810000Y34409700D01*
X34290000Y88900000D02*
X32789700Y88900000D01*
X3810000Y45720000D02*
X4960300Y45720000D01*
X4960300Y45720000D02*
X4960300Y45432300D01*
X4960300Y45432300D02*
X5822900Y44569700D01*
X5822900Y44569700D02*
X9462200Y44569700D01*
X9462200Y44569700D02*
X17201900Y36830000D01*
X17201900Y36830000D02*
X22553700Y36830000D01*
X22553700Y36830000D02*
X25655700Y33728000D01*
X66040000Y69619700D02*
X65617900Y69197600D01*
X65617900Y69197600D02*
X47503400Y69197600D01*
X47503400Y69197600D02*
X33159200Y54853400D01*
X33159200Y54853400D02*
X33159200Y48922300D01*
X33159200Y48922300D02*
X28806600Y44569700D01*
X28806600Y44569700D02*
X15600300Y44569700D01*
X34290000Y83820000D02*
X37166000Y83820000D01*
X37166000Y83820000D02*
X38266400Y82719600D01*
X38266400Y82719600D02*
X41211800Y82719600D01*
X41211800Y82719600D02*
X45011100Y78920300D01*
X45011100Y78920300D02*
X45011100Y78389500D01*
X45011100Y78389500D02*
X49314300Y74086300D01*
X49314300Y74086300D02*
X64574000Y74086300D01*
X64574000Y74086300D02*
X66040000Y72620300D01*
X66040000Y71120000D02*
X66040000Y69619700D01*
X66040000Y71120000D02*
X66040000Y72620300D01*
X26439700Y35560000D02*
X22629700Y39370000D01*
X22629700Y39370000D02*
X16390300Y39370000D01*
X16390300Y39370000D02*
X7500300Y48260000D01*
X6350000Y48260000D02*
X7500300Y48260000D01*
X27940000Y35560000D02*
X26439700Y35560000D01*
X63500000Y72620300D02*
X63500000Y72881900D01*
X63500000Y72881900D02*
X63093800Y73288100D01*
X63093800Y73288100D02*
X48024400Y73288100D01*
X48024400Y73288100D02*
X46809400Y74503100D01*
X46809400Y74503100D02*
X38231800Y65925500D01*
X38231800Y65925500D02*
X26494900Y65925500D01*
X26494900Y65925500D02*
X21529400Y60960000D01*
X21529400Y60960000D02*
X15360300Y60960000D01*
X15360300Y60960000D02*
X11430700Y57030400D01*
X11430700Y57030400D02*
X5811900Y57030400D01*
X5811900Y57030400D02*
X4960400Y56178900D01*
X4960400Y56178900D02*
X4960400Y55341900D01*
X4960400Y55341900D02*
X4228500Y54610000D01*
X4228500Y54610000D02*
X3444000Y54610000D01*
X3444000Y54610000D02*
X1814400Y52980400D01*
X1814400Y52980400D02*
X1814400Y40958300D01*
X1814400Y40958300D02*
X3522400Y39250300D01*
X3522400Y39250300D02*
X3810000Y39250300D01*
X46809400Y74503100D02*
X46809400Y75369200D01*
X46809400Y75369200D02*
X42338300Y79840300D01*
X42338300Y79840300D02*
X36890600Y79840300D01*
X36890600Y79840300D02*
X35790300Y78740000D01*
X63500000Y71120000D02*
X63500000Y72620300D01*
X3810000Y38100000D02*
X3810000Y39250300D01*
X34290000Y78740000D02*
X35790300Y78740000D01*
X3810000Y48260000D02*
X4960300Y48260000D01*
X27940000Y54610000D02*
X26439700Y54610000D01*
X26439700Y54610000D02*
X23990500Y52160800D01*
X23990500Y52160800D02*
X23990500Y50357000D01*
X23990500Y50357000D02*
X23163500Y49530000D01*
X23163500Y49530000D02*
X5991900Y49530000D01*
X5991900Y49530000D02*
X4960300Y48498400D01*
X4960300Y48498400D02*
X4960300Y48260000D01*
X6350000Y68580000D02*
X25826400Y68580000D01*
X4960300Y76200000D02*
X4960300Y76438400D01*
X4960300Y76438400D02*
X5991900Y77470000D01*
X5991900Y77470000D02*
X7663100Y77470000D01*
X7663100Y77470000D02*
X10203100Y80010000D01*
X10203100Y80010000D02*
X14922000Y80010000D01*
X14922000Y80010000D02*
X17300200Y82388200D01*
X17300200Y82388200D02*
X38031500Y82388200D01*
X38031500Y82388200D02*
X39139700Y81280000D01*
X49240700Y59973100D02*
X59860600Y59973100D01*
X59860600Y59973100D02*
X67763700Y52070000D01*
X67763700Y52070000D02*
X70213400Y52070000D01*
X70213400Y52070000D02*
X85090000Y37193400D01*
X85090000Y37193400D02*
X85090000Y27940000D01*
X40640000Y81280000D02*
X39139700Y81280000D01*
X3810000Y76200000D02*
X4960300Y76200000D01*
X69850000Y48260000D02*
X69850000Y47109700D01*
X60960000Y43815000D02*
X62110300Y43815000D01*
X62110300Y43815000D02*
X62745300Y44450000D01*
X62745300Y44450000D02*
X70219500Y44450000D01*
X70219500Y44450000D02*
X71008700Y45239200D01*
X71008700Y45239200D02*
X71008700Y46189300D01*
X71008700Y46189300D02*
X70088300Y47109700D01*
X70088300Y47109700D02*
X69850000Y47109700D01*
X69850000Y45720000D02*
X68699700Y45720000D01*
X60960000Y48895000D02*
X65524700Y48895000D01*
X65524700Y48895000D02*
X68699700Y45720000D01*
X69850000Y43180000D02*
X68699700Y43180000D01*
X60960000Y46355000D02*
X60960000Y45204700D01*
X60960000Y45204700D02*
X60672400Y45204700D01*
X60672400Y45204700D02*
X59778700Y44311000D01*
X59778700Y44311000D02*
X59778700Y43343200D01*
X59778700Y43343200D02*
X60480200Y42641700D01*
X60480200Y42641700D02*
X68161400Y42641700D01*
X68161400Y42641700D02*
X68699700Y43180000D01*
X69850000Y40640000D02*
X68699700Y40640000D01*
X60960000Y41275000D02*
X68064700Y41275000D01*
X68064700Y41275000D02*
X68699700Y40640000D01*
X35597000Y21692000D02*
X34096700Y21692000D01*
X34096700Y21692000D02*
X33066100Y22722600D01*
X33066100Y22722600D02*
X14759300Y22722600D01*
X14759300Y22722600D02*
X12356700Y20320000D01*
X12356700Y20320000D02*
X6350000Y20320000D01*
X83820000Y69619700D02*
X75311600Y61111300D01*
X75311600Y61111300D02*
X45372700Y61111300D01*
X83820000Y71120000D02*
X83820000Y69619700D01*
X88900000Y71120000D02*
X88900000Y69619700D01*
X88900000Y69619700D02*
X79847000Y60566700D01*
X79847000Y60566700D02*
X45637800Y60566700D01*
X45637800Y60566700D02*
X44766600Y59695500D01*
X7500300Y22860000D02*
X8066400Y22860000D01*
X8066400Y22860000D02*
X8769600Y23563200D01*
X8769600Y23563200D02*
X30887900Y23563200D01*
X30887900Y23563200D02*
X34096700Y26772000D01*
X6350000Y22860000D02*
X7500300Y22860000D01*
X35597000Y26772000D02*
X34096700Y26772000D01*
X37097300Y31852000D02*
X38905500Y33660200D01*
X38905500Y33660200D02*
X49336600Y33660200D01*
X7500300Y25400000D02*
X18333100Y25400000D01*
X18333100Y25400000D02*
X18969000Y24764100D01*
X18969000Y24764100D02*
X27008800Y24764100D01*
X27008800Y24764100D02*
X34096700Y31852000D01*
X35597000Y31852000D02*
X37097300Y31852000D01*
X6350000Y25400000D02*
X7500300Y25400000D01*
X35597000Y31852000D02*
X34096700Y31852000D01*
X42603300Y60192100D02*
X47500700Y65089500D01*
X47500700Y65089500D02*
X74687800Y65089500D01*
X74687800Y65089500D02*
X80010000Y70411700D01*
X80010000Y70411700D02*
X80010000Y81049700D01*
X80010000Y81049700D02*
X83820000Y84859700D01*
X35597000Y36932000D02*
X34096700Y36932000D01*
X34096700Y36932000D02*
X34096700Y33805600D01*
X34096700Y33805600D02*
X25855900Y25564800D01*
X25855900Y25564800D02*
X21799600Y25564800D01*
X21799600Y25564800D02*
X19424400Y27940000D01*
X19424400Y27940000D02*
X6350000Y27940000D01*
X83820000Y86360000D02*
X83820000Y84859700D01*
X4960300Y20320000D02*
X4960300Y20081600D01*
X4960300Y20081600D02*
X6111500Y18930400D01*
X6111500Y18930400D02*
X11273500Y18930400D01*
X11273500Y18930400D02*
X12266100Y17937800D01*
X12266100Y17937800D02*
X22084500Y17937800D01*
X22084500Y17937800D02*
X22119900Y17973200D01*
X22119900Y17973200D02*
X22630000Y17973200D01*
X22630000Y17973200D02*
X22665400Y17937800D01*
X22665400Y17937800D02*
X32266300Y17937800D01*
X32266300Y17937800D02*
X32748700Y18420200D01*
X3810000Y20320000D02*
X4960300Y20320000D01*
X37097300Y24232000D02*
X38367300Y25502000D01*
X38367300Y25502000D02*
X51633600Y25502000D01*
X35597000Y24232000D02*
X37097300Y24232000D01*
X37097300Y29312000D02*
X38208500Y30423200D01*
X38208500Y30423200D02*
X53440400Y30423200D01*
X53440400Y30423200D02*
X57876300Y25987300D01*
X57876300Y25987300D02*
X84794400Y25987300D01*
X84794400Y25987300D02*
X86360000Y27552900D01*
X86360000Y27552900D02*
X86360000Y28470200D01*
X86360000Y28470200D02*
X90227200Y32337400D01*
X90227200Y32337400D02*
X90227200Y83646900D01*
X90227200Y83646900D02*
X91440000Y84859700D01*
X35597000Y29312000D02*
X37097300Y29312000D01*
X91440000Y86360000D02*
X91440000Y84859700D01*
X4960300Y22860000D02*
X4960300Y23098400D01*
X4960300Y23098400D02*
X5991900Y24130000D01*
X5991900Y24130000D02*
X7423700Y24130000D01*
X7423700Y24130000D02*
X7688400Y24394700D01*
X7688400Y24394700D02*
X18772300Y24394700D01*
X18772300Y24394700D02*
X18803200Y24363800D01*
X18803200Y24363800D02*
X27706400Y24363800D01*
X27706400Y24363800D02*
X32654600Y29312000D01*
X32654600Y29312000D02*
X34096700Y29312000D01*
X3810000Y22860000D02*
X4960300Y22860000D01*
X35597000Y29312000D02*
X34096700Y29312000D01*
X4960300Y25400000D02*
X4960300Y25687600D01*
X4960300Y25687600D02*
X5827400Y26554700D01*
X5827400Y26554700D02*
X17793300Y26554700D01*
X17793300Y26554700D02*
X19183600Y25164400D01*
X19183600Y25164400D02*
X26369400Y25164400D01*
X26369400Y25164400D02*
X35597000Y34392000D01*
X44353600Y56730400D02*
X44037100Y56730400D01*
X44037100Y56730400D02*
X42660000Y58107500D01*
X42660000Y58107500D02*
X42660000Y59209900D01*
X42660000Y59209900D02*
X45654300Y62204200D01*
X45654300Y62204200D02*
X74320600Y62204200D01*
X74320600Y62204200D02*
X82691700Y70575300D01*
X82691700Y70575300D02*
X82691700Y81191400D01*
X82691700Y81191400D02*
X86360000Y84859700D01*
X86360000Y86360000D02*
X86360000Y84859700D01*
X3810000Y25400000D02*
X4960300Y25400000D01*
X34096800Y39472000D02*
X33685200Y39883600D01*
X33685200Y39883600D02*
X33685200Y47186900D01*
X33685200Y47186900D02*
X34860300Y48362000D01*
X34860300Y48362000D02*
X36365600Y48362000D01*
X36365600Y48362000D02*
X37814400Y49810800D01*
X37814400Y49810800D02*
X37814400Y56603700D01*
X37814400Y56603700D02*
X46748600Y65537900D01*
X46748600Y65537900D02*
X72608200Y65537900D01*
X72608200Y65537900D02*
X77470000Y70399700D01*
X77470000Y70399700D02*
X77470000Y81049700D01*
X77470000Y81049700D02*
X81280000Y84859700D01*
X3810000Y27940000D02*
X4960300Y27940000D01*
X34096800Y39472000D02*
X30467000Y35842200D01*
X30467000Y35842200D02*
X30467000Y33588200D01*
X30467000Y33588200D02*
X28792700Y31913900D01*
X28792700Y31913900D02*
X10359700Y31913900D01*
X10359700Y31913900D02*
X7655800Y29210000D01*
X7655800Y29210000D02*
X5991900Y29210000D01*
X5991900Y29210000D02*
X4960300Y28178400D01*
X4960300Y28178400D02*
X4960300Y27940000D01*
X35597000Y39472000D02*
X34096800Y39472000D01*
X81280000Y86360000D02*
X81280000Y84859700D01*
X27940000Y13970000D02*
X26439700Y13970000D01*
X26439700Y13970000D02*
X22986800Y17422900D01*
X22986800Y17422900D02*
X22402000Y17422900D01*
X27940000Y64770000D02*
X26439700Y64770000D01*
X26439700Y64770000D02*
X26439700Y64305100D01*
X26439700Y64305100D02*
X23093900Y60959300D01*
X20320000Y81280000D02*
X21820300Y81280000D01*
X34290000Y81280000D02*
X32789700Y81280000D01*
X32789700Y81280000D02*
X31678600Y80168900D01*
X31678600Y80168900D02*
X22931400Y80168900D01*
X22931400Y80168900D02*
X21820300Y81280000D01*
X27940000Y11430000D02*
X26439700Y11430000D01*
X25809300Y12438900D02*
X26439700Y11808500D01*
X26439700Y11808500D02*
X26439700Y11430000D01*
X20320000Y83820000D02*
X21820300Y83820000D01*
X34290000Y86360000D02*
X32789700Y86360000D01*
X32789700Y86360000D02*
X31574900Y85145200D01*
X31574900Y85145200D02*
X23145500Y85145200D01*
X23145500Y85145200D02*
X21820300Y83820000D01*
X11199700Y93980000D02*
X613500Y83393800D01*
X613500Y83393800D02*
X613500Y19348300D01*
X613500Y19348300D02*
X9658700Y10303100D01*
X9658700Y10303100D02*
X40487800Y10303100D01*
X40487800Y10303100D02*
X49336700Y19152000D01*
X50837000Y19152000D02*
X49336700Y19152000D01*
X12700000Y93980000D02*
X11199700Y93980000D01*
X42053000Y49741000D02*
X45972000Y45822000D01*
X45972000Y45822000D02*
X53608600Y45822000D01*
X53608600Y45822000D02*
X71289700Y28140900D01*
X71289700Y28140900D02*
X71289700Y27940000D01*
X72390000Y27940000D02*
X71289700Y27940000D01*
X68749700Y27940000D02*
X68749700Y28077500D01*
X68749700Y28077500D02*
X53708200Y43119000D01*
X53708200Y43119000D02*
X46640100Y43119000D01*
X46640100Y43119000D02*
X41978000Y47781100D01*
X69850000Y27940000D02*
X68749700Y27940000D01*
X50837000Y11532000D02*
X52337300Y11532000D01*
X52337300Y11532000D02*
X77879200Y11532000D01*
X77879200Y11532000D02*
X78909700Y12562500D01*
X78909700Y12562500D02*
X78909700Y12700000D01*
X80010000Y12700000D02*
X78909700Y12700000D01*
X66209700Y27940000D02*
X66209700Y28077500D01*
X66209700Y28077500D02*
X53545200Y40742000D01*
X53545200Y40742000D02*
X47423600Y40742000D01*
X47423600Y40742000D02*
X41337100Y46828500D01*
X67310000Y27940000D02*
X66209700Y27940000D01*
X77470000Y12700000D02*
X76369700Y12700000D01*
X76369700Y12700000D02*
X76369700Y12837500D01*
X76369700Y12837500D02*
X75135200Y14072000D01*
X75135200Y14072000D02*
X50837000Y14072000D01*
X64770000Y27940000D02*
X63669700Y27940000D01*
X63669700Y27940000D02*
X63669700Y28077500D01*
X63669700Y28077500D02*
X53545200Y38202000D01*
X53545200Y38202000D02*
X47138000Y38202000D01*
X47138000Y38202000D02*
X40376000Y44964000D01*
X35597000Y44552000D02*
X34096700Y44552000D01*
X62230000Y27940000D02*
X61129700Y27940000D01*
X61129700Y27940000D02*
X53407700Y35662000D01*
X53407700Y35662000D02*
X43063500Y35662000D01*
X43063500Y35662000D02*
X37983500Y40742000D01*
X37983500Y40742000D02*
X34901800Y40742000D01*
X34901800Y40742000D02*
X34096700Y41547100D01*
X34096700Y41547100D02*
X34096700Y44552000D01*
X80010000Y27940000D02*
X78909700Y27940000D01*
X78909700Y27940000D02*
X78909700Y27802500D01*
X78909700Y27802500D02*
X77945200Y26838000D01*
X77945200Y26838000D02*
X76989700Y26838000D01*
X76989700Y26838000D02*
X76200000Y27627700D01*
X76200000Y27627700D02*
X76200000Y28257400D01*
X76200000Y28257400D02*
X66547700Y37909700D01*
X66547700Y37909700D02*
X62132100Y37909700D01*
X62132100Y37909700D02*
X50837000Y49204800D01*
X50837000Y49204800D02*
X50837000Y49632000D01*
X50837000Y52172000D02*
X52337300Y52172000D01*
X77470000Y27940000D02*
X65720100Y39689900D01*
X65720100Y39689900D02*
X60918200Y39689900D01*
X60918200Y39689900D02*
X52337300Y48270800D01*
X52337300Y48270800D02*
X52337300Y52172000D01*
X74930000Y27940000D02*
X76432400Y26437600D01*
X76432400Y26437600D02*
X80128600Y26437600D01*
X80128600Y26437600D02*
X81129800Y27438800D01*
X81129800Y27438800D02*
X81129800Y38634500D01*
X81129800Y38634500D02*
X70351700Y49412600D01*
X70351700Y49412600D02*
X65537500Y49412600D01*
X65537500Y49412600D02*
X62125500Y52824600D01*
X62125500Y52824600D02*
X59790400Y52824600D01*
X59790400Y52824600D02*
X57903000Y54712000D01*
X57903000Y54712000D02*
X50837000Y54712000D01*
X46759700Y83820000D02*
X46759700Y84798100D01*
X46759700Y84798100D02*
X41387800Y90170000D01*
X41387800Y90170000D02*
X38657600Y90170000D01*
X38657600Y90170000D02*
X36248200Y92579400D01*
X36248200Y92579400D02*
X22959700Y92579400D01*
X22959700Y92579400D02*
X21820300Y91440000D01*
X48260000Y83820000D02*
X46759700Y83820000D01*
X20320000Y91440000D02*
X21820300Y91440000D01*
X84455000Y93345000D02*
X83304700Y93345000D01*
X60960000Y86360000D02*
X60960000Y87860300D01*
X60960000Y87860300D02*
X78633500Y87860300D01*
X78633500Y87860300D02*
X83304700Y92531500D01*
X83304700Y92531500D02*
X83304700Y93345000D01*
D22*
X99340000Y660000D02*
X660000Y660000D01*
X660000Y5220128D01*
X2765000Y5220128D01*
X2765000Y4779872D01*
X2850890Y4348075D01*
X3019369Y3941331D01*
X3263962Y3575271D01*
X3575271Y3263962D01*
X3941331Y3019369D01*
X4348075Y2850890D01*
X4779872Y2765000D01*
X5220128Y2765000D01*
X5651925Y2850890D01*
X6058669Y3019369D01*
X6424729Y3263962D01*
X6736038Y3575271D01*
X6980631Y3941331D01*
X7149110Y4348075D01*
X7235000Y4779872D01*
X7235000Y5220128D01*
X7149110Y5651925D01*
X6980631Y6058669D01*
X6736038Y6424729D01*
X6424729Y6736038D01*
X6058669Y6980631D01*
X5651925Y7149110D01*
X5220128Y7235000D01*
X4779872Y7235000D01*
X4348075Y7149110D01*
X3941331Y6980631D01*
X3575271Y6736038D01*
X3263962Y6424729D01*
X3019369Y6058669D01*
X2850890Y5651925D01*
X2765000Y5220128D01*
X660000Y5220128D01*
X660000Y18262354D01*
X9113446Y9808907D01*
X9136462Y9780862D01*
X9164506Y9757847D01*
X9248380Y9689013D01*
X9376066Y9620763D01*
X9514615Y9578735D01*
X9658700Y9564544D01*
X9694805Y9568100D01*
X18655323Y9568100D01*
X18587818Y9441808D01*
X18505764Y9171309D01*
X18478057Y8890000D01*
X18505764Y8608691D01*
X18587818Y8338192D01*
X18721068Y8088899D01*
X18900392Y7870392D01*
X19118899Y7691068D01*
X19251858Y7620000D01*
X19118899Y7548932D01*
X18900392Y7369608D01*
X18721068Y7151101D01*
X18587818Y6901808D01*
X18505764Y6631309D01*
X18478057Y6350000D01*
X18505764Y6068691D01*
X18587818Y5798192D01*
X18721068Y5548899D01*
X18900392Y5330392D01*
X19118899Y5151068D01*
X19368192Y5017818D01*
X19638691Y4935764D01*
X19849508Y4915000D01*
X20574133Y4915000D01*
X21889868Y3599264D01*
X21745363Y3454759D01*
X21588320Y3219727D01*
X21480147Y2958574D01*
X21425000Y2681335D01*
X21425000Y2398665D01*
X21480147Y2121426D01*
X21588320Y1860273D01*
X21745363Y1625241D01*
X21945241Y1425363D01*
X22180273Y1268320D01*
X22441426Y1160147D01*
X22718665Y1105000D01*
X23001335Y1105000D01*
X23278574Y1160147D01*
X23539727Y1268320D01*
X23774759Y1425363D01*
X23896694Y1547298D01*
X24546903Y1547298D01*
X24618486Y1303329D01*
X24873996Y1182429D01*
X25148184Y1113700D01*
X25430512Y1099783D01*
X25710130Y1141213D01*
X25976292Y1236397D01*
X26101514Y1303329D01*
X26173097Y1547298D01*
X25360000Y2360395D01*
X24546903Y1547298D01*
X23896694Y1547298D01*
X23974637Y1625241D01*
X24108692Y1825869D01*
X24123329Y1798486D01*
X24367298Y1726903D01*
X25180395Y2540000D01*
X25166253Y2554142D01*
X25345858Y2733747D01*
X25360000Y2719605D01*
X25374143Y2733747D01*
X25553748Y2554142D01*
X25539605Y2540000D01*
X26352702Y1726903D01*
X26596671Y1798486D01*
X26717571Y2053996D01*
X26786300Y2328184D01*
X26800217Y2610512D01*
X26758787Y2890130D01*
X26753326Y2905400D01*
X72722082Y2905400D01*
X72763100Y2901360D01*
X72804118Y2905400D01*
X72804119Y2905400D01*
X72926789Y2917482D01*
X73084187Y2965228D01*
X73229246Y3042764D01*
X73356391Y3147109D01*
X73382546Y3178979D01*
X75423695Y5220128D01*
X92765000Y5220128D01*
X92765000Y4779872D01*
X92850890Y4348075D01*
X93019369Y3941331D01*
X93263962Y3575271D01*
X93575271Y3263962D01*
X93941331Y3019369D01*
X94348075Y2850890D01*
X94779872Y2765000D01*
X95220128Y2765000D01*
X95651925Y2850890D01*
X96058669Y3019369D01*
X96424729Y3263962D01*
X96736038Y3575271D01*
X96980631Y3941331D01*
X97149110Y4348075D01*
X97235000Y4779872D01*
X97235000Y5220128D01*
X97149110Y5651925D01*
X96980631Y6058669D01*
X96736038Y6424729D01*
X96424729Y6736038D01*
X96058669Y6980631D01*
X95651925Y7149110D01*
X95220128Y7235000D01*
X94779872Y7235000D01*
X94348075Y7149110D01*
X93941331Y6980631D01*
X93575271Y6736038D01*
X93263962Y6424729D01*
X93019369Y6058669D01*
X92850890Y5651925D01*
X92765000Y5220128D01*
X75423695Y5220128D01*
X81727371Y11523804D01*
X81870273Y11428320D01*
X82131426Y11320147D01*
X82408665Y11265000D01*
X82691335Y11265000D01*
X82968574Y11320147D01*
X83229727Y11428320D01*
X83464759Y11585363D01*
X83664637Y11785241D01*
X83820000Y12017759D01*
X83975363Y11785241D01*
X84175241Y11585363D01*
X84410273Y11428320D01*
X84671426Y11320147D01*
X84948665Y11265000D01*
X85231335Y11265000D01*
X85508574Y11320147D01*
X85769727Y11428320D01*
X86004759Y11585363D01*
X86204637Y11785241D01*
X86361680Y12020273D01*
X86366067Y12030865D01*
X86477615Y11844869D01*
X86666586Y11636481D01*
X86892580Y11468963D01*
X87146913Y11348754D01*
X87280961Y11308096D01*
X87503000Y11430085D01*
X87503000Y12573000D01*
X87483000Y12573000D01*
X87483000Y12827000D01*
X87503000Y12827000D01*
X87503000Y13969915D01*
X87757000Y13969915D01*
X87757000Y12827000D01*
X87777000Y12827000D01*
X87777000Y12573000D01*
X87757000Y12573000D01*
X87757000Y11430085D01*
X87979039Y11308096D01*
X88113087Y11348754D01*
X88367420Y11468963D01*
X88593414Y11636481D01*
X88782385Y11844869D01*
X88893933Y12030865D01*
X88898320Y12020273D01*
X89055363Y11785241D01*
X89255241Y11585363D01*
X89490273Y11428320D01*
X89751426Y11320147D01*
X90028665Y11265000D01*
X90311335Y11265000D01*
X90588574Y11320147D01*
X90849727Y11428320D01*
X91084759Y11585363D01*
X91284637Y11785241D01*
X91441680Y12020273D01*
X91549853Y12281426D01*
X91605000Y12558665D01*
X91605000Y12841335D01*
X91549853Y13118574D01*
X91441680Y13379727D01*
X91284637Y13614759D01*
X91084759Y13814637D01*
X90849727Y13971680D01*
X90588574Y14079853D01*
X90311335Y14135000D01*
X90028665Y14135000D01*
X89751426Y14079853D01*
X89490273Y13971680D01*
X89255241Y13814637D01*
X89055363Y13614759D01*
X88898320Y13379727D01*
X88893933Y13369135D01*
X88782385Y13555131D01*
X88593414Y13763519D01*
X88367420Y13931037D01*
X88113087Y14051246D01*
X87979039Y14091904D01*
X87757000Y13969915D01*
X87503000Y13969915D01*
X87280961Y14091904D01*
X87146913Y14051246D01*
X86892580Y13931037D01*
X86666586Y13763519D01*
X86477615Y13555131D01*
X86366067Y13369135D01*
X86361680Y13379727D01*
X86204637Y13614759D01*
X86004759Y13814637D01*
X85769727Y13971680D01*
X85508574Y14079853D01*
X85231335Y14135000D01*
X84948665Y14135000D01*
X84671426Y14079853D01*
X84410273Y13971680D01*
X84175241Y13814637D01*
X83975363Y13614759D01*
X83820000Y13382241D01*
X83664637Y13614759D01*
X83464759Y13814637D01*
X83229727Y13971680D01*
X82968574Y14079853D01*
X82691335Y14135000D01*
X82408665Y14135000D01*
X82131426Y14079853D01*
X82118856Y14074646D01*
X82194759Y14125363D01*
X82394637Y14325241D01*
X82551680Y14560273D01*
X82659853Y14821426D01*
X82715000Y15098665D01*
X82715000Y15381335D01*
X82659853Y15658574D01*
X82551680Y15919727D01*
X82394637Y16154759D01*
X82194759Y16354637D01*
X81959727Y16511680D01*
X81698574Y16619853D01*
X81421335Y16675000D01*
X81138665Y16675000D01*
X80861426Y16619853D01*
X80600273Y16511680D01*
X80365241Y16354637D01*
X80165363Y16154759D01*
X80010000Y15922241D01*
X79854637Y16154759D01*
X79654759Y16354637D01*
X79419727Y16511680D01*
X79158574Y16619853D01*
X78881335Y16675000D01*
X78598665Y16675000D01*
X78321426Y16619853D01*
X78060273Y16511680D01*
X77825241Y16354637D01*
X77625363Y16154759D01*
X77468320Y15919727D01*
X77360147Y15658574D01*
X77305000Y15381335D01*
X77305000Y15098665D01*
X77360147Y14821426D01*
X77468320Y14560273D01*
X77625363Y14325241D01*
X77825241Y14125363D01*
X77901144Y14074646D01*
X77888574Y14079853D01*
X77611335Y14135000D01*
X77328665Y14135000D01*
X77051426Y14079853D01*
X76790273Y13971680D01*
X76555241Y13814637D01*
X76493625Y13753021D01*
X75680458Y14566188D01*
X75657438Y14594238D01*
X75545520Y14686087D01*
X75417833Y14754337D01*
X75279285Y14796365D01*
X75171305Y14807000D01*
X75135200Y14810556D01*
X75099095Y14807000D01*
X72493878Y14807000D01*
X72499853Y14821426D01*
X72555000Y15098665D01*
X72555000Y15381335D01*
X72499853Y15658574D01*
X72391680Y15919727D01*
X72234637Y16154759D01*
X72034759Y16354637D01*
X71799727Y16511680D01*
X71538574Y16619853D01*
X71261335Y16675000D01*
X70978665Y16675000D01*
X70701426Y16619853D01*
X70440273Y16511680D01*
X70205241Y16354637D01*
X70005363Y16154759D01*
X69850000Y15922241D01*
X69694637Y16154759D01*
X69494759Y16354637D01*
X69259727Y16511680D01*
X68998574Y16619853D01*
X68721335Y16675000D01*
X68438665Y16675000D01*
X68161426Y16619853D01*
X67900273Y16511680D01*
X67665241Y16354637D01*
X67465363Y16154759D01*
X67308320Y15919727D01*
X67200147Y15658574D01*
X67145000Y15381335D01*
X67145000Y15098665D01*
X67200147Y14821426D01*
X67206122Y14807000D01*
X52471264Y14807000D01*
X52435932Y14873101D01*
X52256608Y15091608D01*
X52038101Y15270932D01*
X51905142Y15342000D01*
X52038101Y15413068D01*
X52256608Y15592392D01*
X52435932Y15810899D01*
X52569182Y16060192D01*
X52651236Y16330691D01*
X52678943Y16612000D01*
X52651236Y16893309D01*
X52569182Y17163808D01*
X52435932Y17413101D01*
X52256608Y17631608D01*
X52038101Y17810932D01*
X51905142Y17882000D01*
X52038101Y17953068D01*
X52256608Y18132392D01*
X52435932Y18350899D01*
X52569182Y18600192D01*
X52651236Y18870691D01*
X52678943Y19152000D01*
X52651236Y19433309D01*
X52569182Y19703808D01*
X52435932Y19953101D01*
X52256608Y20171608D01*
X52038101Y20350932D01*
X51910259Y20419265D01*
X52139839Y20569399D01*
X52341500Y20767105D01*
X52500715Y21000354D01*
X52611367Y21260182D01*
X52628904Y21342961D01*
X52506915Y21565000D01*
X50964000Y21565000D01*
X50964000Y21545000D01*
X50710000Y21545000D01*
X50710000Y21565000D01*
X49167085Y21565000D01*
X49045096Y21342961D01*
X49062633Y21260182D01*
X49173285Y21000354D01*
X49332500Y20767105D01*
X49534161Y20569399D01*
X49763741Y20419265D01*
X49635899Y20350932D01*
X49417392Y20171608D01*
X49238068Y19953101D01*
X49197298Y19876826D01*
X49192615Y19876365D01*
X49054067Y19834337D01*
X48926380Y19766087D01*
X48814462Y19674238D01*
X48791446Y19646193D01*
X40183354Y11038100D01*
X37346748Y11038100D01*
X37411236Y11250691D01*
X37438943Y11532000D01*
X37411236Y11813309D01*
X37329182Y12083808D01*
X37195932Y12333101D01*
X37016608Y12551608D01*
X36798101Y12730932D01*
X36665142Y12802000D01*
X36798101Y12873068D01*
X37016608Y13052392D01*
X37195932Y13270899D01*
X37329182Y13520192D01*
X37411236Y13790691D01*
X37438943Y14072000D01*
X37411236Y14353309D01*
X37329182Y14623808D01*
X37195932Y14873101D01*
X37102777Y14986611D01*
X37105158Y14989512D01*
X38608053Y16492406D01*
X38695045Y16509710D01*
X38856105Y16576423D01*
X39001055Y16673276D01*
X39124324Y16796545D01*
X39221177Y16941495D01*
X39287890Y17102555D01*
X39321900Y17273535D01*
X39321900Y17306300D01*
X39417395Y17306300D01*
X39453500Y17302744D01*
X39489605Y17306300D01*
X39597585Y17316935D01*
X39736133Y17358963D01*
X39863820Y17427213D01*
X39975738Y17519062D01*
X39998758Y17547112D01*
X41327253Y18875606D01*
X41414245Y18892910D01*
X41575305Y18959623D01*
X41720255Y19056476D01*
X41843524Y19179745D01*
X41940377Y19324695D01*
X42007090Y19485755D01*
X42041100Y19656735D01*
X42041100Y19831065D01*
X42007090Y20002045D01*
X41940377Y20163105D01*
X41843524Y20308055D01*
X41720255Y20431324D01*
X41575305Y20528177D01*
X41414245Y20594890D01*
X41243265Y20628900D01*
X41068935Y20628900D01*
X40897955Y20594890D01*
X40736895Y20528177D01*
X40591945Y20431324D01*
X40468676Y20308055D01*
X40371823Y20163105D01*
X40305110Y20002045D01*
X40287806Y19915053D01*
X39149054Y18776300D01*
X37382603Y18776300D01*
X37411236Y18870691D01*
X37438943Y19152000D01*
X37411236Y19433309D01*
X37329182Y19703808D01*
X37195932Y19953101D01*
X37016608Y20171608D01*
X36798101Y20350932D01*
X36665142Y20422000D01*
X36798101Y20493068D01*
X37016608Y20672392D01*
X37195932Y20890899D01*
X37329182Y21140192D01*
X37411236Y21410691D01*
X37438943Y21692000D01*
X37411236Y21973309D01*
X37329182Y22243808D01*
X37252110Y22388000D01*
X48191595Y22388000D01*
X48227700Y22384444D01*
X48263805Y22388000D01*
X48371785Y22398635D01*
X48510333Y22440663D01*
X48638020Y22508913D01*
X48749938Y22600762D01*
X48772958Y22628812D01*
X49389962Y23245815D01*
X49417392Y23212392D01*
X49635899Y23033068D01*
X49763741Y22964735D01*
X49534161Y22814601D01*
X49332500Y22616895D01*
X49173285Y22383646D01*
X49062633Y22123818D01*
X49045096Y22041039D01*
X49167085Y21819000D01*
X50710000Y21819000D01*
X50710000Y21839000D01*
X50964000Y21839000D01*
X50964000Y21819000D01*
X52506915Y21819000D01*
X52628904Y22041039D01*
X52611367Y22123818D01*
X52500715Y22383646D01*
X52341500Y22616895D01*
X52139839Y22814601D01*
X51910259Y22964735D01*
X52038101Y23033068D01*
X52256608Y23212392D01*
X52435932Y23430899D01*
X52569182Y23680192D01*
X52651236Y23950691D01*
X52678943Y24232000D01*
X52651236Y24513309D01*
X52569182Y24783808D01*
X52435932Y25033101D01*
X52407677Y25067530D01*
X52417877Y25082795D01*
X52484590Y25243855D01*
X52518600Y25414835D01*
X52518600Y25589165D01*
X52484590Y25760145D01*
X52417877Y25921205D01*
X52407677Y25936470D01*
X52435932Y25970899D01*
X52569182Y26220192D01*
X52651236Y26490691D01*
X52678943Y26772000D01*
X52651236Y27053309D01*
X52569182Y27323808D01*
X52435932Y27573101D01*
X52256608Y27791608D01*
X52038101Y27970932D01*
X51905142Y28042000D01*
X52038101Y28113068D01*
X52256608Y28292392D01*
X52435932Y28510899D01*
X52569182Y28760192D01*
X52651236Y29030691D01*
X52678943Y29312000D01*
X52651236Y29593309D01*
X52622451Y29688200D01*
X53135954Y29688200D01*
X57331046Y25493107D01*
X57354062Y25465062D01*
X57465980Y25373213D01*
X57593667Y25304963D01*
X57704926Y25271213D01*
X57732215Y25262935D01*
X57876300Y25248744D01*
X57912405Y25252300D01*
X84758295Y25252300D01*
X84794400Y25248744D01*
X84830505Y25252300D01*
X84938485Y25262935D01*
X85077033Y25304963D01*
X85204720Y25373213D01*
X85316638Y25465062D01*
X85339658Y25493112D01*
X86693575Y26847029D01*
X86715241Y26825363D01*
X86950273Y26668320D01*
X87211426Y26560147D01*
X87488665Y26505000D01*
X87771335Y26505000D01*
X88048574Y26560147D01*
X88309727Y26668320D01*
X88544759Y26825363D01*
X88743357Y27023961D01*
X88744188Y27015518D01*
X88780498Y26895820D01*
X88839463Y26785506D01*
X88918815Y26688815D01*
X89015506Y26609463D01*
X89125820Y26550498D01*
X89245518Y26514188D01*
X89370000Y26501928D01*
X90970000Y26501928D01*
X91094482Y26514188D01*
X91214180Y26550498D01*
X91324494Y26609463D01*
X91421185Y26688815D01*
X91500537Y26785506D01*
X91559502Y26895820D01*
X91595812Y27015518D01*
X91608072Y27140000D01*
X91608072Y28740000D01*
X91595812Y28864482D01*
X91559502Y28984180D01*
X91500537Y29094494D01*
X91421185Y29191185D01*
X91324494Y29270537D01*
X91214180Y29329502D01*
X91094482Y29365812D01*
X90970000Y29378072D01*
X89370000Y29378072D01*
X89245518Y29365812D01*
X89125820Y29329502D01*
X89015506Y29270537D01*
X88918815Y29191185D01*
X88839463Y29094494D01*
X88780498Y28984180D01*
X88744188Y28864482D01*
X88743357Y28856039D01*
X88544759Y29054637D01*
X88309727Y29211680D01*
X88190367Y29261121D01*
X90721397Y31792150D01*
X90749437Y31815162D01*
X90772450Y31843203D01*
X90772453Y31843206D01*
X90841287Y31927080D01*
X90909537Y32054766D01*
X90951565Y32193315D01*
X90965756Y32337400D01*
X90962200Y32373505D01*
X90962200Y38246260D01*
X93765000Y38246260D01*
X93765000Y37953740D01*
X93822068Y37666842D01*
X93934010Y37396589D01*
X94096525Y37153368D01*
X94303368Y36946525D01*
X94546589Y36784010D01*
X94816842Y36672068D01*
X95103740Y36615000D01*
X95396260Y36615000D01*
X95683158Y36672068D01*
X95953411Y36784010D01*
X96196632Y36946525D01*
X96403475Y37153368D01*
X96520000Y37327760D01*
X96636525Y37153368D01*
X96843368Y36946525D01*
X97086589Y36784010D01*
X97356842Y36672068D01*
X97643740Y36615000D01*
X97936260Y36615000D01*
X98223158Y36672068D01*
X98493411Y36784010D01*
X98736632Y36946525D01*
X98943475Y37153368D01*
X99105990Y37396589D01*
X99217932Y37666842D01*
X99275000Y37953740D01*
X99275000Y38246260D01*
X99217932Y38533158D01*
X99105990Y38803411D01*
X98943475Y39046632D01*
X98736632Y39253475D01*
X98493411Y39415990D01*
X98223158Y39527932D01*
X97936260Y39585000D01*
X97643740Y39585000D01*
X97356842Y39527932D01*
X97086589Y39415990D01*
X96843368Y39253475D01*
X96636525Y39046632D01*
X96520000Y38872240D01*
X96403475Y39046632D01*
X96196632Y39253475D01*
X95953411Y39415990D01*
X95683158Y39527932D01*
X95396260Y39585000D01*
X95103740Y39585000D01*
X94816842Y39527932D01*
X94546589Y39415990D01*
X94303368Y39253475D01*
X94096525Y39046632D01*
X93934010Y38803411D01*
X93822068Y38533158D01*
X93765000Y38246260D01*
X90962200Y38246260D01*
X90962200Y58566260D01*
X93765000Y58566260D01*
X93765000Y58273740D01*
X93822068Y57986842D01*
X93934010Y57716589D01*
X94096525Y57473368D01*
X94303368Y57266525D01*
X94546589Y57104010D01*
X94816842Y56992068D01*
X95103740Y56935000D01*
X95396260Y56935000D01*
X95683158Y56992068D01*
X95953411Y57104010D01*
X96196632Y57266525D01*
X96403475Y57473368D01*
X96520000Y57647760D01*
X96636525Y57473368D01*
X96843368Y57266525D01*
X97086589Y57104010D01*
X97356842Y56992068D01*
X97643740Y56935000D01*
X97936260Y56935000D01*
X98223158Y56992068D01*
X98493411Y57104010D01*
X98736632Y57266525D01*
X98943475Y57473368D01*
X99105990Y57716589D01*
X99217932Y57986842D01*
X99275000Y58273740D01*
X99275000Y58566260D01*
X99217932Y58853158D01*
X99105990Y59123411D01*
X98943475Y59366632D01*
X98736632Y59573475D01*
X98493411Y59735990D01*
X98223158Y59847932D01*
X97936260Y59905000D01*
X97643740Y59905000D01*
X97356842Y59847932D01*
X97086589Y59735990D01*
X96843368Y59573475D01*
X96636525Y59366632D01*
X96520000Y59192240D01*
X96403475Y59366632D01*
X96196632Y59573475D01*
X95953411Y59735990D01*
X95683158Y59847932D01*
X95396260Y59905000D01*
X95103740Y59905000D01*
X94816842Y59847932D01*
X94546589Y59735990D01*
X94303368Y59573475D01*
X94096525Y59366632D01*
X93934010Y59123411D01*
X93822068Y58853158D01*
X93765000Y58566260D01*
X90962200Y58566260D01*
X90962200Y69365215D01*
X91008182Y69345633D01*
X91090961Y69328096D01*
X91313000Y69450085D01*
X91313000Y70993000D01*
X91567000Y70993000D01*
X91567000Y69450085D01*
X91789039Y69328096D01*
X91871818Y69345633D01*
X92131646Y69456285D01*
X92364895Y69615500D01*
X92562601Y69817161D01*
X92717166Y70053517D01*
X92822650Y70315486D01*
X92875000Y70593000D01*
X92875000Y70993000D01*
X91567000Y70993000D01*
X91313000Y70993000D01*
X91293000Y70993000D01*
X91293000Y71247000D01*
X91313000Y71247000D01*
X91313000Y72789915D01*
X91567000Y72789915D01*
X91567000Y71247000D01*
X92875000Y71247000D01*
X92875000Y71647000D01*
X92822650Y71924514D01*
X92717166Y72186483D01*
X92562601Y72422839D01*
X92364895Y72624500D01*
X92131646Y72783715D01*
X91871818Y72894367D01*
X91789039Y72911904D01*
X91567000Y72789915D01*
X91313000Y72789915D01*
X91090961Y72911904D01*
X91008182Y72894367D01*
X90962200Y72874785D01*
X90962200Y83342454D01*
X91934193Y84314446D01*
X91962238Y84337462D01*
X92054087Y84449380D01*
X92122337Y84577067D01*
X92164365Y84715615D01*
X92164826Y84720298D01*
X92241101Y84761068D01*
X92459608Y84940392D01*
X92638932Y85158899D01*
X92772182Y85408192D01*
X92854236Y85678691D01*
X92875000Y85889509D01*
X92875000Y86830492D01*
X92854236Y87041309D01*
X92772182Y87311808D01*
X92638932Y87561101D01*
X92459607Y87779608D01*
X92241100Y87958932D01*
X91991807Y88092182D01*
X91721308Y88174236D01*
X91440000Y88201943D01*
X91158691Y88174236D01*
X90888192Y88092182D01*
X90638899Y87958932D01*
X90420392Y87779607D01*
X90241068Y87561100D01*
X90170000Y87428142D01*
X90098932Y87561101D01*
X89919607Y87779608D01*
X89701100Y87958932D01*
X89451807Y88092182D01*
X89181308Y88174236D01*
X88900000Y88201943D01*
X88618691Y88174236D01*
X88348192Y88092182D01*
X88098899Y87958932D01*
X87880392Y87779607D01*
X87701068Y87561100D01*
X87630000Y87428142D01*
X87558932Y87561101D01*
X87379607Y87779608D01*
X87161100Y87958932D01*
X86911807Y88092182D01*
X86641308Y88174236D01*
X86360000Y88201943D01*
X86078691Y88174236D01*
X85808192Y88092182D01*
X85558899Y87958932D01*
X85340392Y87779607D01*
X85161068Y87561100D01*
X85090000Y87428142D01*
X85018932Y87561101D01*
X84839607Y87779608D01*
X84621100Y87958932D01*
X84371807Y88092182D01*
X84101308Y88174236D01*
X83820000Y88201943D01*
X83538691Y88174236D01*
X83268192Y88092182D01*
X83018899Y87958932D01*
X82800392Y87779607D01*
X82621068Y87561100D01*
X82550000Y87428142D01*
X82478932Y87561101D01*
X82299607Y87779608D01*
X82081100Y87958932D01*
X81831807Y88092182D01*
X81561308Y88174236D01*
X81280000Y88201943D01*
X80998691Y88174236D01*
X80728192Y88092182D01*
X80478899Y87958932D01*
X80260392Y87779607D01*
X80081068Y87561100D01*
X80012735Y87433258D01*
X79862601Y87662839D01*
X79670960Y87858314D01*
X83798897Y91986251D01*
X83817655Y92001645D01*
X84021842Y91917068D01*
X84308740Y91860000D01*
X84601260Y91860000D01*
X84888158Y91917068D01*
X85158411Y92029010D01*
X85401632Y92191525D01*
X85608475Y92398368D01*
X85684338Y92511905D01*
X85703681Y92510000D01*
X85703682Y92510000D01*
X85744700Y92505960D01*
X85768095Y92508264D01*
X85841525Y92398368D01*
X86048368Y92191525D01*
X86291589Y92029010D01*
X86561842Y91917068D01*
X86848740Y91860000D01*
X87141260Y91860000D01*
X87428158Y91917068D01*
X87698411Y92029010D01*
X87941632Y92191525D01*
X88148475Y92398368D01*
X88310990Y92641589D01*
X88422932Y92911842D01*
X88480000Y93198740D01*
X88480000Y93491260D01*
X88422932Y93778158D01*
X88310990Y94048411D01*
X88148475Y94291632D01*
X87941632Y94498475D01*
X87698411Y94660990D01*
X87428158Y94772932D01*
X87141260Y94830000D01*
X86848740Y94830000D01*
X86561842Y94772932D01*
X86291589Y94660990D01*
X86193332Y94595337D01*
X85627745Y95160922D01*
X85601591Y95192791D01*
X85568281Y95220128D01*
X92765000Y95220128D01*
X92765000Y94779872D01*
X92850890Y94348075D01*
X93019369Y93941331D01*
X93263962Y93575271D01*
X93575271Y93263962D01*
X93941331Y93019369D01*
X94348075Y92850890D01*
X94779872Y92765000D01*
X95220128Y92765000D01*
X95651925Y92850890D01*
X96058669Y93019369D01*
X96424729Y93263962D01*
X96736038Y93575271D01*
X96980631Y93941331D01*
X97149110Y94348075D01*
X97235000Y94779872D01*
X97235000Y95220128D01*
X97149110Y95651925D01*
X96980631Y96058669D01*
X96736038Y96424729D01*
X96424729Y96736038D01*
X96058669Y96980631D01*
X95651925Y97149110D01*
X95220128Y97235000D01*
X94779872Y97235000D01*
X94348075Y97149110D01*
X93941331Y96980631D01*
X93575271Y96736038D01*
X93263962Y96424729D01*
X93019369Y96058669D01*
X92850890Y95651925D01*
X92765000Y95220128D01*
X85568281Y95220128D01*
X85474446Y95297136D01*
X85329387Y95374672D01*
X85171989Y95422418D01*
X85049319Y95434500D01*
X85049318Y95434500D01*
X85008300Y95438540D01*
X84967282Y95434500D01*
X64140818Y95434500D01*
X64099800Y95438540D01*
X64058781Y95434500D01*
X63936111Y95422418D01*
X63778713Y95374672D01*
X63633654Y95297136D01*
X63506509Y95192791D01*
X63480363Y95160932D01*
X62679770Y94360337D01*
X62541632Y94498475D01*
X62298411Y94660990D01*
X62028158Y94772932D01*
X61741260Y94830000D01*
X61448740Y94830000D01*
X61161842Y94772932D01*
X60891589Y94660990D01*
X60648368Y94498475D01*
X60441525Y94291632D01*
X60325000Y94117240D01*
X60208475Y94291632D01*
X60001632Y94498475D01*
X59758411Y94660990D01*
X59488158Y94772932D01*
X59201260Y94830000D01*
X58908740Y94830000D01*
X58621842Y94772932D01*
X58351589Y94660990D01*
X58108368Y94498475D01*
X57976513Y94366620D01*
X57954502Y94439180D01*
X57895537Y94549494D01*
X57816185Y94646185D01*
X57719494Y94725537D01*
X57609180Y94784502D01*
X57489482Y94820812D01*
X57365000Y94833072D01*
X56800750Y94830000D01*
X56642000Y94671250D01*
X56642000Y93472000D01*
X56662000Y93472000D01*
X56662000Y93218000D01*
X56642000Y93218000D01*
X56642000Y92018750D01*
X56800750Y91860000D01*
X57365000Y91856928D01*
X57489482Y91869188D01*
X57609180Y91905498D01*
X57719494Y91964463D01*
X57816185Y92043815D01*
X57895537Y92140506D01*
X57954502Y92250820D01*
X57976513Y92323380D01*
X58108368Y92191525D01*
X58351589Y92029010D01*
X58621842Y91917068D01*
X58908740Y91860000D01*
X59201260Y91860000D01*
X59488158Y91917068D01*
X59758411Y92029010D01*
X60001632Y92191525D01*
X60208475Y92398368D01*
X60325000Y92572760D01*
X60441525Y92398368D01*
X60648368Y92191525D01*
X60891589Y92029010D01*
X61161842Y91917068D01*
X61448740Y91860000D01*
X61741260Y91860000D01*
X62028158Y91917068D01*
X62298411Y92029010D01*
X62541632Y92191525D01*
X62748475Y92398368D01*
X62821905Y92508264D01*
X62845300Y92505960D01*
X62886318Y92510000D01*
X62886319Y92510000D01*
X63008989Y92522082D01*
X63166387Y92569828D01*
X63311446Y92647364D01*
X63438591Y92751709D01*
X63464745Y92783578D01*
X64445669Y93764500D01*
X80429272Y93764500D01*
X80430000Y93630750D01*
X80588750Y93472000D01*
X81788000Y93472000D01*
X81788000Y93492000D01*
X82042000Y93492000D01*
X82042000Y93472000D01*
X82062000Y93472000D01*
X82062000Y93218000D01*
X82042000Y93218000D01*
X82042000Y93198000D01*
X81788000Y93198000D01*
X81788000Y93218000D01*
X80588750Y93218000D01*
X80430000Y93059250D01*
X80426928Y92495000D01*
X80439188Y92370518D01*
X80475498Y92250820D01*
X80534463Y92140506D01*
X80613815Y92043815D01*
X80710506Y91964463D01*
X80820820Y91905498D01*
X80940518Y91869188D01*
X81065000Y91856928D01*
X81593559Y91859806D01*
X78329054Y88595300D01*
X60996105Y88595300D01*
X60960000Y88598856D01*
X60923895Y88595300D01*
X60815915Y88584665D01*
X60677367Y88542637D01*
X60549680Y88474387D01*
X60437762Y88382538D01*
X60345913Y88270620D01*
X60277663Y88142933D01*
X60235635Y88004385D01*
X60235174Y87999702D01*
X60158899Y87958932D01*
X59940392Y87779607D01*
X59761068Y87561100D01*
X59690000Y87428142D01*
X59618932Y87561101D01*
X59439607Y87779608D01*
X59221100Y87958932D01*
X58971807Y88092182D01*
X58701308Y88174236D01*
X58420000Y88201943D01*
X58138691Y88174236D01*
X57868192Y88092182D01*
X57618899Y87958932D01*
X57400392Y87779607D01*
X57221068Y87561100D01*
X57087818Y87311807D01*
X57005764Y87041308D01*
X56985000Y86830491D01*
X56985000Y86105869D01*
X54048574Y83169441D01*
X54016710Y83143291D01*
X53957002Y83070536D01*
X53912364Y83016145D01*
X53834828Y82871086D01*
X53787082Y82713688D01*
X53770960Y82550000D01*
X53775001Y82508972D01*
X53775000Y81137930D01*
X53695241Y81084637D01*
X53495363Y80884759D01*
X53338320Y80649727D01*
X53230147Y80388574D01*
X53175000Y80111335D01*
X53175000Y79828665D01*
X53230147Y79551426D01*
X53338320Y79290273D01*
X53495363Y79055241D01*
X53695241Y78855363D01*
X53895869Y78721308D01*
X53868486Y78706671D01*
X53796903Y78462702D01*
X54610000Y77649605D01*
X55423097Y78462702D01*
X55351514Y78706671D01*
X55322659Y78720324D01*
X55524759Y78855363D01*
X55724637Y79055241D01*
X55881680Y79290273D01*
X55989853Y79551426D01*
X56045000Y79828665D01*
X56045000Y80111335D01*
X55989853Y80388574D01*
X55881680Y80649727D01*
X55724637Y80884759D01*
X55524759Y81084637D01*
X55445000Y81137930D01*
X55445000Y82204133D01*
X57868572Y84627703D01*
X58138692Y84545764D01*
X58420000Y84518057D01*
X58701309Y84545764D01*
X58971808Y84627818D01*
X59221101Y84761068D01*
X59439608Y84940392D01*
X59618932Y85158899D01*
X59690000Y85291858D01*
X59761068Y85158899D01*
X59940393Y84940392D01*
X60158900Y84761068D01*
X60408193Y84627818D01*
X60678692Y84545764D01*
X60960000Y84518057D01*
X61241309Y84545764D01*
X61511808Y84627818D01*
X61761101Y84761068D01*
X61979608Y84940392D01*
X62158932Y85158899D01*
X62227265Y85286741D01*
X62377399Y85057161D01*
X62575105Y84855500D01*
X62808354Y84696285D01*
X63068182Y84585633D01*
X63150961Y84568096D01*
X63373000Y84690085D01*
X63373000Y86233000D01*
X63353000Y86233000D01*
X63353000Y86487000D01*
X63373000Y86487000D01*
X63373000Y86507000D01*
X63627000Y86507000D01*
X63627000Y86487000D01*
X63647000Y86487000D01*
X63647000Y86233000D01*
X63627000Y86233000D01*
X63627000Y84690085D01*
X63849039Y84568096D01*
X63931818Y84585633D01*
X64191646Y84696285D01*
X64424895Y84855500D01*
X64622601Y85057161D01*
X64772735Y85286741D01*
X64841068Y85158899D01*
X65020393Y84940392D01*
X65238900Y84761068D01*
X65488193Y84627818D01*
X65758692Y84545764D01*
X66040000Y84518057D01*
X66321309Y84545764D01*
X66591808Y84627818D01*
X66841101Y84761068D01*
X67059608Y84940392D01*
X67238932Y85158899D01*
X67310000Y85291858D01*
X67381068Y85158899D01*
X67560393Y84940392D01*
X67778900Y84761068D01*
X68028193Y84627818D01*
X68298692Y84545764D01*
X68580000Y84518057D01*
X68861309Y84545764D01*
X69131808Y84627818D01*
X69381101Y84761068D01*
X69599608Y84940392D01*
X69778932Y85158899D01*
X69850000Y85291858D01*
X69921068Y85158899D01*
X70100393Y84940392D01*
X70318900Y84761068D01*
X70568193Y84627818D01*
X70838692Y84545764D01*
X71120000Y84518057D01*
X71401309Y84545764D01*
X71671808Y84627818D01*
X71921101Y84761068D01*
X72139608Y84940392D01*
X72318932Y85158899D01*
X72390000Y85291858D01*
X72461068Y85158899D01*
X72640393Y84940392D01*
X72858900Y84761068D01*
X73108193Y84627818D01*
X73378692Y84545764D01*
X73660000Y84518057D01*
X73941309Y84545764D01*
X74211808Y84627818D01*
X74461101Y84761068D01*
X74679608Y84940392D01*
X74858932Y85158899D01*
X74930000Y85291858D01*
X75001068Y85158899D01*
X75180393Y84940392D01*
X75398900Y84761068D01*
X75648193Y84627818D01*
X75918692Y84545764D01*
X76200000Y84518057D01*
X76481309Y84545764D01*
X76751808Y84627818D01*
X77001101Y84761068D01*
X77219608Y84940392D01*
X77398932Y85158899D01*
X77467265Y85286741D01*
X77617399Y85057161D01*
X77815105Y84855500D01*
X78048354Y84696285D01*
X78308182Y84585633D01*
X78390961Y84568096D01*
X78613000Y84690085D01*
X78613000Y86233000D01*
X78593000Y86233000D01*
X78593000Y86487000D01*
X78613000Y86487000D01*
X78613000Y86507000D01*
X78867000Y86507000D01*
X78867000Y86487000D01*
X78887000Y86487000D01*
X78887000Y86233000D01*
X78867000Y86233000D01*
X78867000Y84690085D01*
X79089039Y84568096D01*
X79171818Y84585633D01*
X79431646Y84696285D01*
X79664895Y84855500D01*
X79862601Y85057161D01*
X80012735Y85286741D01*
X80081068Y85158899D01*
X80260393Y84940392D01*
X80293816Y84912963D01*
X76975808Y81594954D01*
X76947763Y81571938D01*
X76855914Y81460020D01*
X76797029Y81349853D01*
X76787664Y81332333D01*
X76745635Y81193785D01*
X76731444Y81049700D01*
X76735001Y81013585D01*
X76735000Y73126987D01*
X76722238Y73142538D01*
X76694193Y73165554D01*
X73050659Y76809087D01*
X73027638Y76837138D01*
X72915720Y76928987D01*
X72788033Y76997237D01*
X72649485Y77039265D01*
X72541505Y77049900D01*
X72505400Y77053456D01*
X72469295Y77049900D01*
X55984091Y77049900D01*
X56036300Y77258184D01*
X56050217Y77540512D01*
X56008787Y77820130D01*
X55913603Y78086292D01*
X55846671Y78211514D01*
X55602702Y78283097D01*
X54789605Y77470000D01*
X54803748Y77455857D01*
X54624143Y77276252D01*
X54610000Y77290395D01*
X54595858Y77276252D01*
X54416253Y77455857D01*
X54430395Y77470000D01*
X53617298Y78283097D01*
X53373329Y78211514D01*
X53364786Y78193460D01*
X51184800Y80373446D01*
X51184800Y84884295D01*
X51188356Y84920400D01*
X51174165Y85064485D01*
X51147562Y85152182D01*
X51132137Y85203033D01*
X51063887Y85330720D01*
X50972038Y85442638D01*
X50943993Y85465654D01*
X50097254Y86312392D01*
X50101943Y86360000D01*
X50074236Y86641309D01*
X49992182Y86911808D01*
X49858932Y87161101D01*
X49679608Y87379608D01*
X49461101Y87558932D01*
X49428500Y87576358D01*
X49428500Y87683642D01*
X49461101Y87701068D01*
X49679608Y87880392D01*
X49858932Y88098899D01*
X49992182Y88348192D01*
X50074236Y88618691D01*
X50101943Y88900000D01*
X50074236Y89181309D01*
X49992182Y89451808D01*
X49858932Y89701101D01*
X49679608Y89919608D01*
X49461101Y90098932D01*
X49328142Y90170000D01*
X49461101Y90241068D01*
X49679608Y90420392D01*
X49858932Y90638899D01*
X49992182Y90888192D01*
X50074236Y91158691D01*
X50101943Y91440000D01*
X50074236Y91721309D01*
X49992182Y91991808D01*
X49858932Y92241101D01*
X49679608Y92459608D01*
X49636483Y92495000D01*
X55026928Y92495000D01*
X55039188Y92370518D01*
X55075498Y92250820D01*
X55134463Y92140506D01*
X55213815Y92043815D01*
X55310506Y91964463D01*
X55420820Y91905498D01*
X55540518Y91869188D01*
X55665000Y91856928D01*
X56229250Y91860000D01*
X56388000Y92018750D01*
X56388000Y93218000D01*
X55188750Y93218000D01*
X55030000Y93059250D01*
X55026928Y92495000D01*
X49636483Y92495000D01*
X49461101Y92638932D01*
X49333259Y92707265D01*
X49562839Y92857399D01*
X49764500Y93055105D01*
X49923715Y93288354D01*
X50034367Y93548182D01*
X50051904Y93630961D01*
X49929915Y93853000D01*
X48387000Y93853000D01*
X48387000Y93833000D01*
X48133000Y93833000D01*
X48133000Y93853000D01*
X46590085Y93853000D01*
X46468096Y93630961D01*
X46485633Y93548182D01*
X46596285Y93288354D01*
X46755500Y93055105D01*
X46957161Y92857399D01*
X47186741Y92707265D01*
X47058899Y92638932D01*
X46874843Y92487881D01*
X46822477Y92614305D01*
X46725624Y92759255D01*
X46602355Y92882524D01*
X46457405Y92979377D01*
X46296345Y93046090D01*
X46125365Y93080100D01*
X45951035Y93080100D01*
X45780055Y93046090D01*
X45618995Y92979377D01*
X45474045Y92882524D01*
X45350776Y92759255D01*
X45253923Y92614305D01*
X45187210Y92453245D01*
X45153200Y92282265D01*
X45153200Y92107935D01*
X45187210Y91936955D01*
X45253923Y91775895D01*
X45303200Y91702147D01*
X45303200Y91374705D01*
X45299644Y91338600D01*
X45303200Y91302496D01*
X45313835Y91194516D01*
X45355863Y91055968D01*
X45424113Y90928281D01*
X45515962Y90816363D01*
X45544008Y90793346D01*
X46652424Y89684929D01*
X46527818Y89451808D01*
X46445764Y89181309D01*
X46418057Y88900000D01*
X46445764Y88618691D01*
X46527818Y88348192D01*
X46661068Y88098899D01*
X46840392Y87880392D01*
X47058899Y87701068D01*
X47191858Y87630000D01*
X47058899Y87558932D01*
X46840392Y87379608D01*
X46661068Y87161101D01*
X46527818Y86911808D01*
X46445764Y86641309D01*
X46418057Y86360000D01*
X46437811Y86159436D01*
X42112457Y90484789D01*
X42238932Y90638899D01*
X42372182Y90888192D01*
X42454236Y91158691D01*
X42481943Y91440000D01*
X42454236Y91721309D01*
X42372182Y91991808D01*
X42238932Y92241101D01*
X42059608Y92459608D01*
X41841101Y92638932D01*
X41708142Y92710000D01*
X41841101Y92781068D01*
X42059608Y92960392D01*
X42238932Y93178899D01*
X42372182Y93428192D01*
X42454236Y93698691D01*
X42481943Y93980000D01*
X42454236Y94261309D01*
X42433691Y94329039D01*
X46468096Y94329039D01*
X46590085Y94107000D01*
X48133000Y94107000D01*
X48133000Y95415000D01*
X48387000Y95415000D01*
X48387000Y94107000D01*
X49929915Y94107000D01*
X49978262Y94195000D01*
X55026928Y94195000D01*
X55030000Y93630750D01*
X55188750Y93472000D01*
X56388000Y93472000D01*
X56388000Y94671250D01*
X56229250Y94830000D01*
X55665000Y94833072D01*
X55540518Y94820812D01*
X55420820Y94784502D01*
X55310506Y94725537D01*
X55213815Y94646185D01*
X55134463Y94549494D01*
X55075498Y94439180D01*
X55039188Y94319482D01*
X55026928Y94195000D01*
X49978262Y94195000D01*
X50051904Y94329039D01*
X50034367Y94411818D01*
X49923715Y94671646D01*
X49764500Y94904895D01*
X49562839Y95102601D01*
X49326483Y95257166D01*
X49064514Y95362650D01*
X48787000Y95415000D01*
X48387000Y95415000D01*
X48133000Y95415000D01*
X47733000Y95415000D01*
X47455486Y95362650D01*
X47193517Y95257166D01*
X46957161Y95102601D01*
X46755500Y94904895D01*
X46596285Y94671646D01*
X46485633Y94411818D01*
X46468096Y94329039D01*
X42433691Y94329039D01*
X42372182Y94531808D01*
X42238932Y94781101D01*
X42059608Y94999608D01*
X41841101Y95178932D01*
X41591808Y95312182D01*
X41321309Y95394236D01*
X41110492Y95415000D01*
X40169508Y95415000D01*
X39958691Y95394236D01*
X39688192Y95312182D01*
X39438899Y95178932D01*
X39220392Y94999608D01*
X39041068Y94781101D01*
X38907818Y94531808D01*
X38825764Y94261309D01*
X38798057Y93980000D01*
X38825764Y93698691D01*
X38907818Y93428192D01*
X39041068Y93178899D01*
X39220392Y92960392D01*
X39438899Y92781068D01*
X39571858Y92710000D01*
X39438899Y92638932D01*
X39220392Y92459608D01*
X39041068Y92241101D01*
X38907818Y91991808D01*
X38825764Y91721309D01*
X38798057Y91440000D01*
X38825764Y91158691D01*
X38876887Y90990160D01*
X36793459Y93073588D01*
X36770438Y93101638D01*
X36658520Y93193487D01*
X36530833Y93261737D01*
X36392285Y93303765D01*
X36284305Y93314400D01*
X36248200Y93317956D01*
X36212095Y93314400D01*
X35964807Y93314400D01*
X36064367Y93548182D01*
X36081904Y93630961D01*
X35959915Y93853000D01*
X34417000Y93853000D01*
X34417000Y93833000D01*
X34163000Y93833000D01*
X34163000Y93853000D01*
X32620085Y93853000D01*
X32498096Y93630961D01*
X32515633Y93548182D01*
X32615193Y93314400D01*
X28341359Y93314400D01*
X28402182Y93428192D01*
X28484236Y93698691D01*
X28511943Y93980000D01*
X28484236Y94261309D01*
X28463691Y94329039D01*
X32498096Y94329039D01*
X32620085Y94107000D01*
X34163000Y94107000D01*
X34163000Y95415000D01*
X34417000Y95415000D01*
X34417000Y94107000D01*
X35959915Y94107000D01*
X36081904Y94329039D01*
X36064367Y94411818D01*
X35953715Y94671646D01*
X35794500Y94904895D01*
X35592839Y95102601D01*
X35356483Y95257166D01*
X35094514Y95362650D01*
X34817000Y95415000D01*
X34417000Y95415000D01*
X34163000Y95415000D01*
X33763000Y95415000D01*
X33485486Y95362650D01*
X33223517Y95257166D01*
X32987161Y95102601D01*
X32785500Y94904895D01*
X32626285Y94671646D01*
X32515633Y94411818D01*
X32498096Y94329039D01*
X28463691Y94329039D01*
X28402182Y94531808D01*
X28268932Y94781101D01*
X28089608Y94999608D01*
X27871101Y95178932D01*
X27621808Y95312182D01*
X27351309Y95394236D01*
X27140492Y95415000D01*
X26199508Y95415000D01*
X25988691Y95394236D01*
X25718192Y95312182D01*
X25468899Y95178932D01*
X25250392Y94999608D01*
X25071068Y94781101D01*
X24937818Y94531808D01*
X24855764Y94261309D01*
X24828057Y93980000D01*
X24855764Y93698691D01*
X24937818Y93428192D01*
X24998641Y93314400D01*
X22995805Y93314400D01*
X22959700Y93317956D01*
X22923595Y93314400D01*
X22815615Y93303765D01*
X22677067Y93261737D01*
X22549380Y93193487D01*
X22437462Y93101638D01*
X22414446Y93073593D01*
X21767038Y92426184D01*
X21739608Y92459608D01*
X21521101Y92638932D01*
X21393259Y92707265D01*
X21622839Y92857399D01*
X21824500Y93055105D01*
X21983715Y93288354D01*
X22094367Y93548182D01*
X22111904Y93630961D01*
X21989915Y93853000D01*
X20447000Y93853000D01*
X20447000Y93833000D01*
X20193000Y93833000D01*
X20193000Y93853000D01*
X18650085Y93853000D01*
X18528096Y93630961D01*
X18545633Y93548182D01*
X18656285Y93288354D01*
X18815500Y93055105D01*
X19017161Y92857399D01*
X19246741Y92707265D01*
X19118899Y92638932D01*
X18900392Y92459608D01*
X18721068Y92241101D01*
X18587818Y91991808D01*
X18505764Y91721309D01*
X18478057Y91440000D01*
X18505764Y91158691D01*
X18587818Y90888192D01*
X18721068Y90638899D01*
X18900392Y90420392D01*
X19118899Y90241068D01*
X19251858Y90170000D01*
X19118899Y90098932D01*
X18900392Y89919608D01*
X18721068Y89701101D01*
X18587818Y89451808D01*
X18505764Y89181309D01*
X18478057Y88900000D01*
X18505764Y88618691D01*
X18582719Y88365000D01*
X14437281Y88365000D01*
X14514236Y88618691D01*
X14541943Y88900000D01*
X14514236Y89181309D01*
X14432182Y89451808D01*
X14298932Y89701101D01*
X14119608Y89919608D01*
X13901101Y90098932D01*
X13768142Y90170000D01*
X13901101Y90241068D01*
X14119608Y90420392D01*
X14298932Y90638899D01*
X14432182Y90888192D01*
X14514236Y91158691D01*
X14541943Y91440000D01*
X14514236Y91721309D01*
X14432182Y91991808D01*
X14298932Y92241101D01*
X14119608Y92459608D01*
X13901101Y92638932D01*
X13768142Y92710000D01*
X13901101Y92781068D01*
X14119608Y92960392D01*
X14298932Y93178899D01*
X14432182Y93428192D01*
X14514236Y93698691D01*
X14541943Y93980000D01*
X14514236Y94261309D01*
X14493691Y94329039D01*
X18528096Y94329039D01*
X18650085Y94107000D01*
X20193000Y94107000D01*
X20193000Y95415000D01*
X20447000Y95415000D01*
X20447000Y94107000D01*
X21989915Y94107000D01*
X22111904Y94329039D01*
X22094367Y94411818D01*
X21983715Y94671646D01*
X21824500Y94904895D01*
X21622839Y95102601D01*
X21386483Y95257166D01*
X21124514Y95362650D01*
X20847000Y95415000D01*
X20447000Y95415000D01*
X20193000Y95415000D01*
X19793000Y95415000D01*
X19515486Y95362650D01*
X19253517Y95257166D01*
X19017161Y95102601D01*
X18815500Y94904895D01*
X18656285Y94671646D01*
X18545633Y94411818D01*
X18528096Y94329039D01*
X14493691Y94329039D01*
X14432182Y94531808D01*
X14298932Y94781101D01*
X14119608Y94999608D01*
X13901101Y95178932D01*
X13651808Y95312182D01*
X13381309Y95394236D01*
X13170492Y95415000D01*
X12229508Y95415000D01*
X12018691Y95394236D01*
X11748192Y95312182D01*
X11498899Y95178932D01*
X11280392Y94999608D01*
X11101068Y94781101D01*
X11060298Y94704826D01*
X11055615Y94704365D01*
X10917066Y94662337D01*
X10872044Y94638272D01*
X10789380Y94594087D01*
X10677462Y94502238D01*
X10654446Y94474193D01*
X660000Y84479746D01*
X660000Y95220128D01*
X2765000Y95220128D01*
X2765000Y94779872D01*
X2850890Y94348075D01*
X3019369Y93941331D01*
X3263962Y93575271D01*
X3575271Y93263962D01*
X3941331Y93019369D01*
X4348075Y92850890D01*
X4779872Y92765000D01*
X5220128Y92765000D01*
X5651925Y92850890D01*
X6058669Y93019369D01*
X6424729Y93263962D01*
X6736038Y93575271D01*
X6980631Y93941331D01*
X7149110Y94348075D01*
X7235000Y94779872D01*
X7235000Y95220128D01*
X7149110Y95651925D01*
X6980631Y96058669D01*
X6736038Y96424729D01*
X6424729Y96736038D01*
X6058669Y96980631D01*
X5651925Y97149110D01*
X5220128Y97235000D01*
X4779872Y97235000D01*
X4348075Y97149110D01*
X3941331Y96980631D01*
X3575271Y96736038D01*
X3263962Y96424729D01*
X3019369Y96058669D01*
X2850890Y95651925D01*
X2765000Y95220128D01*
X660000Y95220128D01*
X660000Y99340000D01*
X99340001Y99340000D01*
X99340000Y660000D01*
G04 #@! TA.AperFunction,Conductor*
D23*
G36*
X99340000Y660000D02*
G01*
X660000Y660000D01*
X660000Y5220128D01*
X2765000Y5220128D01*
X2765000Y4779872D01*
X2850890Y4348075D01*
X3019369Y3941331D01*
X3263962Y3575271D01*
X3575271Y3263962D01*
X3941331Y3019369D01*
X4348075Y2850890D01*
X4779872Y2765000D01*
X5220128Y2765000D01*
X5651925Y2850890D01*
X6058669Y3019369D01*
X6424729Y3263962D01*
X6736038Y3575271D01*
X6980631Y3941331D01*
X7149110Y4348075D01*
X7235000Y4779872D01*
X7235000Y5220128D01*
X7149110Y5651925D01*
X6980631Y6058669D01*
X6736038Y6424729D01*
X6424729Y6736038D01*
X6058669Y6980631D01*
X5651925Y7149110D01*
X5220128Y7235000D01*
X4779872Y7235000D01*
X4348075Y7149110D01*
X3941331Y6980631D01*
X3575271Y6736038D01*
X3263962Y6424729D01*
X3019369Y6058669D01*
X2850890Y5651925D01*
X2765000Y5220128D01*
X660000Y5220128D01*
X660000Y18262354D01*
X9113446Y9808907D01*
X9136462Y9780862D01*
X9164506Y9757847D01*
X9248380Y9689013D01*
X9376066Y9620763D01*
X9514615Y9578735D01*
X9658700Y9564544D01*
X9694805Y9568100D01*
X18655323Y9568100D01*
X18587818Y9441808D01*
X18505764Y9171309D01*
X18478057Y8890000D01*
X18505764Y8608691D01*
X18587818Y8338192D01*
X18721068Y8088899D01*
X18900392Y7870392D01*
X19118899Y7691068D01*
X19251858Y7620000D01*
X19118899Y7548932D01*
X18900392Y7369608D01*
X18721068Y7151101D01*
X18587818Y6901808D01*
X18505764Y6631309D01*
X18478057Y6350000D01*
X18505764Y6068691D01*
X18587818Y5798192D01*
X18721068Y5548899D01*
X18900392Y5330392D01*
X19118899Y5151068D01*
X19368192Y5017818D01*
X19638691Y4935764D01*
X19849508Y4915000D01*
X20574133Y4915000D01*
X21889868Y3599264D01*
X21745363Y3454759D01*
X21588320Y3219727D01*
X21480147Y2958574D01*
X21425000Y2681335D01*
X21425000Y2398665D01*
X21480147Y2121426D01*
X21588320Y1860273D01*
X21745363Y1625241D01*
X21945241Y1425363D01*
X22180273Y1268320D01*
X22441426Y1160147D01*
X22718665Y1105000D01*
X23001335Y1105000D01*
X23278574Y1160147D01*
X23539727Y1268320D01*
X23774759Y1425363D01*
X23896694Y1547298D01*
X24546903Y1547298D01*
X24618486Y1303329D01*
X24873996Y1182429D01*
X25148184Y1113700D01*
X25430512Y1099783D01*
X25710130Y1141213D01*
X25976292Y1236397D01*
X26101514Y1303329D01*
X26173097Y1547298D01*
X25360000Y2360395D01*
X24546903Y1547298D01*
X23896694Y1547298D01*
X23974637Y1625241D01*
X24108692Y1825869D01*
X24123329Y1798486D01*
X24367298Y1726903D01*
X25180395Y2540000D01*
X25166253Y2554142D01*
X25345858Y2733747D01*
X25360000Y2719605D01*
X25374143Y2733747D01*
X25553748Y2554142D01*
X25539605Y2540000D01*
X26352702Y1726903D01*
X26596671Y1798486D01*
X26717571Y2053996D01*
X26786300Y2328184D01*
X26800217Y2610512D01*
X26758787Y2890130D01*
X26753326Y2905400D01*
X72722082Y2905400D01*
X72763100Y2901360D01*
X72804118Y2905400D01*
X72804119Y2905400D01*
X72926789Y2917482D01*
X73084187Y2965228D01*
X73229246Y3042764D01*
X73356391Y3147109D01*
X73382546Y3178979D01*
X75423695Y5220128D01*
X92765000Y5220128D01*
X92765000Y4779872D01*
X92850890Y4348075D01*
X93019369Y3941331D01*
X93263962Y3575271D01*
X93575271Y3263962D01*
X93941331Y3019369D01*
X94348075Y2850890D01*
X94779872Y2765000D01*
X95220128Y2765000D01*
X95651925Y2850890D01*
X96058669Y3019369D01*
X96424729Y3263962D01*
X96736038Y3575271D01*
X96980631Y3941331D01*
X97149110Y4348075D01*
X97235000Y4779872D01*
X97235000Y5220128D01*
X97149110Y5651925D01*
X96980631Y6058669D01*
X96736038Y6424729D01*
X96424729Y6736038D01*
X96058669Y6980631D01*
X95651925Y7149110D01*
X95220128Y7235000D01*
X94779872Y7235000D01*
X94348075Y7149110D01*
X93941331Y6980631D01*
X93575271Y6736038D01*
X93263962Y6424729D01*
X93019369Y6058669D01*
X92850890Y5651925D01*
X92765000Y5220128D01*
X75423695Y5220128D01*
X81727371Y11523804D01*
X81870273Y11428320D01*
X82131426Y11320147D01*
X82408665Y11265000D01*
X82691335Y11265000D01*
X82968574Y11320147D01*
X83229727Y11428320D01*
X83464759Y11585363D01*
X83664637Y11785241D01*
X83820000Y12017759D01*
X83975363Y11785241D01*
X84175241Y11585363D01*
X84410273Y11428320D01*
X84671426Y11320147D01*
X84948665Y11265000D01*
X85231335Y11265000D01*
X85508574Y11320147D01*
X85769727Y11428320D01*
X86004759Y11585363D01*
X86204637Y11785241D01*
X86361680Y12020273D01*
X86366067Y12030865D01*
X86477615Y11844869D01*
X86666586Y11636481D01*
X86892580Y11468963D01*
X87146913Y11348754D01*
X87280961Y11308096D01*
X87503000Y11430085D01*
X87503000Y12573000D01*
X87483000Y12573000D01*
X87483000Y12827000D01*
X87503000Y12827000D01*
X87503000Y13969915D01*
X87757000Y13969915D01*
X87757000Y12827000D01*
X87777000Y12827000D01*
X87777000Y12573000D01*
X87757000Y12573000D01*
X87757000Y11430085D01*
X87979039Y11308096D01*
X88113087Y11348754D01*
X88367420Y11468963D01*
X88593414Y11636481D01*
X88782385Y11844869D01*
X88893933Y12030865D01*
X88898320Y12020273D01*
X89055363Y11785241D01*
X89255241Y11585363D01*
X89490273Y11428320D01*
X89751426Y11320147D01*
X90028665Y11265000D01*
X90311335Y11265000D01*
X90588574Y11320147D01*
X90849727Y11428320D01*
X91084759Y11585363D01*
X91284637Y11785241D01*
X91441680Y12020273D01*
X91549853Y12281426D01*
X91605000Y12558665D01*
X91605000Y12841335D01*
X91549853Y13118574D01*
X91441680Y13379727D01*
X91284637Y13614759D01*
X91084759Y13814637D01*
X90849727Y13971680D01*
X90588574Y14079853D01*
X90311335Y14135000D01*
X90028665Y14135000D01*
X89751426Y14079853D01*
X89490273Y13971680D01*
X89255241Y13814637D01*
X89055363Y13614759D01*
X88898320Y13379727D01*
X88893933Y13369135D01*
X88782385Y13555131D01*
X88593414Y13763519D01*
X88367420Y13931037D01*
X88113087Y14051246D01*
X87979039Y14091904D01*
X87757000Y13969915D01*
X87503000Y13969915D01*
X87280961Y14091904D01*
X87146913Y14051246D01*
X86892580Y13931037D01*
X86666586Y13763519D01*
X86477615Y13555131D01*
X86366067Y13369135D01*
X86361680Y13379727D01*
X86204637Y13614759D01*
X86004759Y13814637D01*
X85769727Y13971680D01*
X85508574Y14079853D01*
X85231335Y14135000D01*
X84948665Y14135000D01*
X84671426Y14079853D01*
X84410273Y13971680D01*
X84175241Y13814637D01*
X83975363Y13614759D01*
X83820000Y13382241D01*
X83664637Y13614759D01*
X83464759Y13814637D01*
X83229727Y13971680D01*
X82968574Y14079853D01*
X82691335Y14135000D01*
X82408665Y14135000D01*
X82131426Y14079853D01*
X82118856Y14074646D01*
X82194759Y14125363D01*
X82394637Y14325241D01*
X82551680Y14560273D01*
X82659853Y14821426D01*
X82715000Y15098665D01*
X82715000Y15381335D01*
X82659853Y15658574D01*
X82551680Y15919727D01*
X82394637Y16154759D01*
X82194759Y16354637D01*
X81959727Y16511680D01*
X81698574Y16619853D01*
X81421335Y16675000D01*
X81138665Y16675000D01*
X80861426Y16619853D01*
X80600273Y16511680D01*
X80365241Y16354637D01*
X80165363Y16154759D01*
X80010000Y15922241D01*
X79854637Y16154759D01*
X79654759Y16354637D01*
X79419727Y16511680D01*
X79158574Y16619853D01*
X78881335Y16675000D01*
X78598665Y16675000D01*
X78321426Y16619853D01*
X78060273Y16511680D01*
X77825241Y16354637D01*
X77625363Y16154759D01*
X77468320Y15919727D01*
X77360147Y15658574D01*
X77305000Y15381335D01*
X77305000Y15098665D01*
X77360147Y14821426D01*
X77468320Y14560273D01*
X77625363Y14325241D01*
X77825241Y14125363D01*
X77901144Y14074646D01*
X77888574Y14079853D01*
X77611335Y14135000D01*
X77328665Y14135000D01*
X77051426Y14079853D01*
X76790273Y13971680D01*
X76555241Y13814637D01*
X76493625Y13753021D01*
X75680458Y14566188D01*
X75657438Y14594238D01*
X75545520Y14686087D01*
X75417833Y14754337D01*
X75279285Y14796365D01*
X75171305Y14807000D01*
X75135200Y14810556D01*
X75099095Y14807000D01*
X72493878Y14807000D01*
X72499853Y14821426D01*
X72555000Y15098665D01*
X72555000Y15381335D01*
X72499853Y15658574D01*
X72391680Y15919727D01*
X72234637Y16154759D01*
X72034759Y16354637D01*
X71799727Y16511680D01*
X71538574Y16619853D01*
X71261335Y16675000D01*
X70978665Y16675000D01*
X70701426Y16619853D01*
X70440273Y16511680D01*
X70205241Y16354637D01*
X70005363Y16154759D01*
X69850000Y15922241D01*
X69694637Y16154759D01*
X69494759Y16354637D01*
X69259727Y16511680D01*
X68998574Y16619853D01*
X68721335Y16675000D01*
X68438665Y16675000D01*
X68161426Y16619853D01*
X67900273Y16511680D01*
X67665241Y16354637D01*
X67465363Y16154759D01*
X67308320Y15919727D01*
X67200147Y15658574D01*
X67145000Y15381335D01*
X67145000Y15098665D01*
X67200147Y14821426D01*
X67206122Y14807000D01*
X52471264Y14807000D01*
X52435932Y14873101D01*
X52256608Y15091608D01*
X52038101Y15270932D01*
X51905142Y15342000D01*
X52038101Y15413068D01*
X52256608Y15592392D01*
X52435932Y15810899D01*
X52569182Y16060192D01*
X52651236Y16330691D01*
X52678943Y16612000D01*
X52651236Y16893309D01*
X52569182Y17163808D01*
X52435932Y17413101D01*
X52256608Y17631608D01*
X52038101Y17810932D01*
X51905142Y17882000D01*
X52038101Y17953068D01*
X52256608Y18132392D01*
X52435932Y18350899D01*
X52569182Y18600192D01*
X52651236Y18870691D01*
X52678943Y19152000D01*
X52651236Y19433309D01*
X52569182Y19703808D01*
X52435932Y19953101D01*
X52256608Y20171608D01*
X52038101Y20350932D01*
X51910259Y20419265D01*
X52139839Y20569399D01*
X52341500Y20767105D01*
X52500715Y21000354D01*
X52611367Y21260182D01*
X52628904Y21342961D01*
X52506915Y21565000D01*
X50964000Y21565000D01*
X50964000Y21545000D01*
X50710000Y21545000D01*
X50710000Y21565000D01*
X49167085Y21565000D01*
X49045096Y21342961D01*
X49062633Y21260182D01*
X49173285Y21000354D01*
X49332500Y20767105D01*
X49534161Y20569399D01*
X49763741Y20419265D01*
X49635899Y20350932D01*
X49417392Y20171608D01*
X49238068Y19953101D01*
X49197298Y19876826D01*
X49192615Y19876365D01*
X49054067Y19834337D01*
X48926380Y19766087D01*
X48814462Y19674238D01*
X48791446Y19646193D01*
X40183354Y11038100D01*
X37346748Y11038100D01*
X37411236Y11250691D01*
X37438943Y11532000D01*
X37411236Y11813309D01*
X37329182Y12083808D01*
X37195932Y12333101D01*
X37016608Y12551608D01*
X36798101Y12730932D01*
X36665142Y12802000D01*
X36798101Y12873068D01*
X37016608Y13052392D01*
X37195932Y13270899D01*
X37329182Y13520192D01*
X37411236Y13790691D01*
X37438943Y14072000D01*
X37411236Y14353309D01*
X37329182Y14623808D01*
X37195932Y14873101D01*
X37102777Y14986611D01*
X37105158Y14989512D01*
X38608053Y16492406D01*
X38695045Y16509710D01*
X38856105Y16576423D01*
X39001055Y16673276D01*
X39124324Y16796545D01*
X39221177Y16941495D01*
X39287890Y17102555D01*
X39321900Y17273535D01*
X39321900Y17306300D01*
X39417395Y17306300D01*
X39453500Y17302744D01*
X39489605Y17306300D01*
X39597585Y17316935D01*
X39736133Y17358963D01*
X39863820Y17427213D01*
X39975738Y17519062D01*
X39998758Y17547112D01*
X41327253Y18875606D01*
X41414245Y18892910D01*
X41575305Y18959623D01*
X41720255Y19056476D01*
X41843524Y19179745D01*
X41940377Y19324695D01*
X42007090Y19485755D01*
X42041100Y19656735D01*
X42041100Y19831065D01*
X42007090Y20002045D01*
X41940377Y20163105D01*
X41843524Y20308055D01*
X41720255Y20431324D01*
X41575305Y20528177D01*
X41414245Y20594890D01*
X41243265Y20628900D01*
X41068935Y20628900D01*
X40897955Y20594890D01*
X40736895Y20528177D01*
X40591945Y20431324D01*
X40468676Y20308055D01*
X40371823Y20163105D01*
X40305110Y20002045D01*
X40287806Y19915053D01*
X39149054Y18776300D01*
X37382603Y18776300D01*
X37411236Y18870691D01*
X37438943Y19152000D01*
X37411236Y19433309D01*
X37329182Y19703808D01*
X37195932Y19953101D01*
X37016608Y20171608D01*
X36798101Y20350932D01*
X36665142Y20422000D01*
X36798101Y20493068D01*
X37016608Y20672392D01*
X37195932Y20890899D01*
X37329182Y21140192D01*
X37411236Y21410691D01*
X37438943Y21692000D01*
X37411236Y21973309D01*
X37329182Y22243808D01*
X37252110Y22388000D01*
X48191595Y22388000D01*
X48227700Y22384444D01*
X48263805Y22388000D01*
X48371785Y22398635D01*
X48510333Y22440663D01*
X48638020Y22508913D01*
X48749938Y22600762D01*
X48772958Y22628812D01*
X49389962Y23245815D01*
X49417392Y23212392D01*
X49635899Y23033068D01*
X49763741Y22964735D01*
X49534161Y22814601D01*
X49332500Y22616895D01*
X49173285Y22383646D01*
X49062633Y22123818D01*
X49045096Y22041039D01*
X49167085Y21819000D01*
X50710000Y21819000D01*
X50710000Y21839000D01*
X50964000Y21839000D01*
X50964000Y21819000D01*
X52506915Y21819000D01*
X52628904Y22041039D01*
X52611367Y22123818D01*
X52500715Y22383646D01*
X52341500Y22616895D01*
X52139839Y22814601D01*
X51910259Y22964735D01*
X52038101Y23033068D01*
X52256608Y23212392D01*
X52435932Y23430899D01*
X52569182Y23680192D01*
X52651236Y23950691D01*
X52678943Y24232000D01*
X52651236Y24513309D01*
X52569182Y24783808D01*
X52435932Y25033101D01*
X52407677Y25067530D01*
X52417877Y25082795D01*
X52484590Y25243855D01*
X52518600Y25414835D01*
X52518600Y25589165D01*
X52484590Y25760145D01*
X52417877Y25921205D01*
X52407677Y25936470D01*
X52435932Y25970899D01*
X52569182Y26220192D01*
X52651236Y26490691D01*
X52678943Y26772000D01*
X52651236Y27053309D01*
X52569182Y27323808D01*
X52435932Y27573101D01*
X52256608Y27791608D01*
X52038101Y27970932D01*
X51905142Y28042000D01*
X52038101Y28113068D01*
X52256608Y28292392D01*
X52435932Y28510899D01*
X52569182Y28760192D01*
X52651236Y29030691D01*
X52678943Y29312000D01*
X52651236Y29593309D01*
X52622451Y29688200D01*
X53135954Y29688200D01*
X57331046Y25493107D01*
X57354062Y25465062D01*
X57465980Y25373213D01*
X57593667Y25304963D01*
X57704926Y25271213D01*
X57732215Y25262935D01*
X57876300Y25248744D01*
X57912405Y25252300D01*
X84758295Y25252300D01*
X84794400Y25248744D01*
X84830505Y25252300D01*
X84938485Y25262935D01*
X85077033Y25304963D01*
X85204720Y25373213D01*
X85316638Y25465062D01*
X85339658Y25493112D01*
X86693575Y26847029D01*
X86715241Y26825363D01*
X86950273Y26668320D01*
X87211426Y26560147D01*
X87488665Y26505000D01*
X87771335Y26505000D01*
X88048574Y26560147D01*
X88309727Y26668320D01*
X88544759Y26825363D01*
X88743357Y27023961D01*
X88744188Y27015518D01*
X88780498Y26895820D01*
X88839463Y26785506D01*
X88918815Y26688815D01*
X89015506Y26609463D01*
X89125820Y26550498D01*
X89245518Y26514188D01*
X89370000Y26501928D01*
X90970000Y26501928D01*
X91094482Y26514188D01*
X91214180Y26550498D01*
X91324494Y26609463D01*
X91421185Y26688815D01*
X91500537Y26785506D01*
X91559502Y26895820D01*
X91595812Y27015518D01*
X91608072Y27140000D01*
X91608072Y28740000D01*
X91595812Y28864482D01*
X91559502Y28984180D01*
X91500537Y29094494D01*
X91421185Y29191185D01*
X91324494Y29270537D01*
X91214180Y29329502D01*
X91094482Y29365812D01*
X90970000Y29378072D01*
X89370000Y29378072D01*
X89245518Y29365812D01*
X89125820Y29329502D01*
X89015506Y29270537D01*
X88918815Y29191185D01*
X88839463Y29094494D01*
X88780498Y28984180D01*
X88744188Y28864482D01*
X88743357Y28856039D01*
X88544759Y29054637D01*
X88309727Y29211680D01*
X88190367Y29261121D01*
X90721397Y31792150D01*
X90749437Y31815162D01*
X90772450Y31843203D01*
X90772453Y31843206D01*
X90841287Y31927080D01*
X90909537Y32054766D01*
X90951565Y32193315D01*
X90965756Y32337400D01*
X90962200Y32373505D01*
X90962200Y38246260D01*
X93765000Y38246260D01*
X93765000Y37953740D01*
X93822068Y37666842D01*
X93934010Y37396589D01*
X94096525Y37153368D01*
X94303368Y36946525D01*
X94546589Y36784010D01*
X94816842Y36672068D01*
X95103740Y36615000D01*
X95396260Y36615000D01*
X95683158Y36672068D01*
X95953411Y36784010D01*
X96196632Y36946525D01*
X96403475Y37153368D01*
X96520000Y37327760D01*
X96636525Y37153368D01*
X96843368Y36946525D01*
X97086589Y36784010D01*
X97356842Y36672068D01*
X97643740Y36615000D01*
X97936260Y36615000D01*
X98223158Y36672068D01*
X98493411Y36784010D01*
X98736632Y36946525D01*
X98943475Y37153368D01*
X99105990Y37396589D01*
X99217932Y37666842D01*
X99275000Y37953740D01*
X99275000Y38246260D01*
X99217932Y38533158D01*
X99105990Y38803411D01*
X98943475Y39046632D01*
X98736632Y39253475D01*
X98493411Y39415990D01*
X98223158Y39527932D01*
X97936260Y39585000D01*
X97643740Y39585000D01*
X97356842Y39527932D01*
X97086589Y39415990D01*
X96843368Y39253475D01*
X96636525Y39046632D01*
X96520000Y38872240D01*
X96403475Y39046632D01*
X96196632Y39253475D01*
X95953411Y39415990D01*
X95683158Y39527932D01*
X95396260Y39585000D01*
X95103740Y39585000D01*
X94816842Y39527932D01*
X94546589Y39415990D01*
X94303368Y39253475D01*
X94096525Y39046632D01*
X93934010Y38803411D01*
X93822068Y38533158D01*
X93765000Y38246260D01*
X90962200Y38246260D01*
X90962200Y58566260D01*
X93765000Y58566260D01*
X93765000Y58273740D01*
X93822068Y57986842D01*
X93934010Y57716589D01*
X94096525Y57473368D01*
X94303368Y57266525D01*
X94546589Y57104010D01*
X94816842Y56992068D01*
X95103740Y56935000D01*
X95396260Y56935000D01*
X95683158Y56992068D01*
X95953411Y57104010D01*
X96196632Y57266525D01*
X96403475Y57473368D01*
X96520000Y57647760D01*
X96636525Y57473368D01*
X96843368Y57266525D01*
X97086589Y57104010D01*
X97356842Y56992068D01*
X97643740Y56935000D01*
X97936260Y56935000D01*
X98223158Y56992068D01*
X98493411Y57104010D01*
X98736632Y57266525D01*
X98943475Y57473368D01*
X99105990Y57716589D01*
X99217932Y57986842D01*
X99275000Y58273740D01*
X99275000Y58566260D01*
X99217932Y58853158D01*
X99105990Y59123411D01*
X98943475Y59366632D01*
X98736632Y59573475D01*
X98493411Y59735990D01*
X98223158Y59847932D01*
X97936260Y59905000D01*
X97643740Y59905000D01*
X97356842Y59847932D01*
X97086589Y59735990D01*
X96843368Y59573475D01*
X96636525Y59366632D01*
X96520000Y59192240D01*
X96403475Y59366632D01*
X96196632Y59573475D01*
X95953411Y59735990D01*
X95683158Y59847932D01*
X95396260Y59905000D01*
X95103740Y59905000D01*
X94816842Y59847932D01*
X94546589Y59735990D01*
X94303368Y59573475D01*
X94096525Y59366632D01*
X93934010Y59123411D01*
X93822068Y58853158D01*
X93765000Y58566260D01*
X90962200Y58566260D01*
X90962200Y69365215D01*
X91008182Y69345633D01*
X91090961Y69328096D01*
X91313000Y69450085D01*
X91313000Y70993000D01*
X91567000Y70993000D01*
X91567000Y69450085D01*
X91789039Y69328096D01*
X91871818Y69345633D01*
X92131646Y69456285D01*
X92364895Y69615500D01*
X92562601Y69817161D01*
X92717166Y70053517D01*
X92822650Y70315486D01*
X92875000Y70593000D01*
X92875000Y70993000D01*
X91567000Y70993000D01*
X91313000Y70993000D01*
X91293000Y70993000D01*
X91293000Y71247000D01*
X91313000Y71247000D01*
X91313000Y72789915D01*
X91567000Y72789915D01*
X91567000Y71247000D01*
X92875000Y71247000D01*
X92875000Y71647000D01*
X92822650Y71924514D01*
X92717166Y72186483D01*
X92562601Y72422839D01*
X92364895Y72624500D01*
X92131646Y72783715D01*
X91871818Y72894367D01*
X91789039Y72911904D01*
X91567000Y72789915D01*
X91313000Y72789915D01*
X91090961Y72911904D01*
X91008182Y72894367D01*
X90962200Y72874785D01*
X90962200Y83342454D01*
X91934193Y84314446D01*
X91962238Y84337462D01*
X92054087Y84449380D01*
X92122337Y84577067D01*
X92164365Y84715615D01*
X92164826Y84720298D01*
X92241101Y84761068D01*
X92459608Y84940392D01*
X92638932Y85158899D01*
X92772182Y85408192D01*
X92854236Y85678691D01*
X92875000Y85889509D01*
X92875000Y86830492D01*
X92854236Y87041309D01*
X92772182Y87311808D01*
X92638932Y87561101D01*
X92459607Y87779608D01*
X92241100Y87958932D01*
X91991807Y88092182D01*
X91721308Y88174236D01*
X91440000Y88201943D01*
X91158691Y88174236D01*
X90888192Y88092182D01*
X90638899Y87958932D01*
X90420392Y87779607D01*
X90241068Y87561100D01*
X90170000Y87428142D01*
X90098932Y87561101D01*
X89919607Y87779608D01*
X89701100Y87958932D01*
X89451807Y88092182D01*
X89181308Y88174236D01*
X88900000Y88201943D01*
X88618691Y88174236D01*
X88348192Y88092182D01*
X88098899Y87958932D01*
X87880392Y87779607D01*
X87701068Y87561100D01*
X87630000Y87428142D01*
X87558932Y87561101D01*
X87379607Y87779608D01*
X87161100Y87958932D01*
X86911807Y88092182D01*
X86641308Y88174236D01*
X86360000Y88201943D01*
X86078691Y88174236D01*
X85808192Y88092182D01*
X85558899Y87958932D01*
X85340392Y87779607D01*
X85161068Y87561100D01*
X85090000Y87428142D01*
X85018932Y87561101D01*
X84839607Y87779608D01*
X84621100Y87958932D01*
X84371807Y88092182D01*
X84101308Y88174236D01*
X83820000Y88201943D01*
X83538691Y88174236D01*
X83268192Y88092182D01*
X83018899Y87958932D01*
X82800392Y87779607D01*
X82621068Y87561100D01*
X82550000Y87428142D01*
X82478932Y87561101D01*
X82299607Y87779608D01*
X82081100Y87958932D01*
X81831807Y88092182D01*
X81561308Y88174236D01*
X81280000Y88201943D01*
X80998691Y88174236D01*
X80728192Y88092182D01*
X80478899Y87958932D01*
X80260392Y87779607D01*
X80081068Y87561100D01*
X80012735Y87433258D01*
X79862601Y87662839D01*
X79670960Y87858314D01*
X83798897Y91986251D01*
X83817655Y92001645D01*
X84021842Y91917068D01*
X84308740Y91860000D01*
X84601260Y91860000D01*
X84888158Y91917068D01*
X85158411Y92029010D01*
X85401632Y92191525D01*
X85608475Y92398368D01*
X85684338Y92511905D01*
X85703681Y92510000D01*
X85703682Y92510000D01*
X85744700Y92505960D01*
X85768095Y92508264D01*
X85841525Y92398368D01*
X86048368Y92191525D01*
X86291589Y92029010D01*
X86561842Y91917068D01*
X86848740Y91860000D01*
X87141260Y91860000D01*
X87428158Y91917068D01*
X87698411Y92029010D01*
X87941632Y92191525D01*
X88148475Y92398368D01*
X88310990Y92641589D01*
X88422932Y92911842D01*
X88480000Y93198740D01*
X88480000Y93491260D01*
X88422932Y93778158D01*
X88310990Y94048411D01*
X88148475Y94291632D01*
X87941632Y94498475D01*
X87698411Y94660990D01*
X87428158Y94772932D01*
X87141260Y94830000D01*
X86848740Y94830000D01*
X86561842Y94772932D01*
X86291589Y94660990D01*
X86193332Y94595337D01*
X85627745Y95160922D01*
X85601591Y95192791D01*
X85568281Y95220128D01*
X92765000Y95220128D01*
X92765000Y94779872D01*
X92850890Y94348075D01*
X93019369Y93941331D01*
X93263962Y93575271D01*
X93575271Y93263962D01*
X93941331Y93019369D01*
X94348075Y92850890D01*
X94779872Y92765000D01*
X95220128Y92765000D01*
X95651925Y92850890D01*
X96058669Y93019369D01*
X96424729Y93263962D01*
X96736038Y93575271D01*
X96980631Y93941331D01*
X97149110Y94348075D01*
X97235000Y94779872D01*
X97235000Y95220128D01*
X97149110Y95651925D01*
X96980631Y96058669D01*
X96736038Y96424729D01*
X96424729Y96736038D01*
X96058669Y96980631D01*
X95651925Y97149110D01*
X95220128Y97235000D01*
X94779872Y97235000D01*
X94348075Y97149110D01*
X93941331Y96980631D01*
X93575271Y96736038D01*
X93263962Y96424729D01*
X93019369Y96058669D01*
X92850890Y95651925D01*
X92765000Y95220128D01*
X85568281Y95220128D01*
X85474446Y95297136D01*
X85329387Y95374672D01*
X85171989Y95422418D01*
X85049319Y95434500D01*
X85049318Y95434500D01*
X85008300Y95438540D01*
X84967282Y95434500D01*
X64140818Y95434500D01*
X64099800Y95438540D01*
X64058781Y95434500D01*
X63936111Y95422418D01*
X63778713Y95374672D01*
X63633654Y95297136D01*
X63506509Y95192791D01*
X63480363Y95160932D01*
X62679770Y94360337D01*
X62541632Y94498475D01*
X62298411Y94660990D01*
X62028158Y94772932D01*
X61741260Y94830000D01*
X61448740Y94830000D01*
X61161842Y94772932D01*
X60891589Y94660990D01*
X60648368Y94498475D01*
X60441525Y94291632D01*
X60325000Y94117240D01*
X60208475Y94291632D01*
X60001632Y94498475D01*
X59758411Y94660990D01*
X59488158Y94772932D01*
X59201260Y94830000D01*
X58908740Y94830000D01*
X58621842Y94772932D01*
X58351589Y94660990D01*
X58108368Y94498475D01*
X57976513Y94366620D01*
X57954502Y94439180D01*
X57895537Y94549494D01*
X57816185Y94646185D01*
X57719494Y94725537D01*
X57609180Y94784502D01*
X57489482Y94820812D01*
X57365000Y94833072D01*
X56800750Y94830000D01*
X56642000Y94671250D01*
X56642000Y93472000D01*
X56662000Y93472000D01*
X56662000Y93218000D01*
X56642000Y93218000D01*
X56642000Y92018750D01*
X56800750Y91860000D01*
X57365000Y91856928D01*
X57489482Y91869188D01*
X57609180Y91905498D01*
X57719494Y91964463D01*
X57816185Y92043815D01*
X57895537Y92140506D01*
X57954502Y92250820D01*
X57976513Y92323380D01*
X58108368Y92191525D01*
X58351589Y92029010D01*
X58621842Y91917068D01*
X58908740Y91860000D01*
X59201260Y91860000D01*
X59488158Y91917068D01*
X59758411Y92029010D01*
X60001632Y92191525D01*
X60208475Y92398368D01*
X60325000Y92572760D01*
X60441525Y92398368D01*
X60648368Y92191525D01*
X60891589Y92029010D01*
X61161842Y91917068D01*
X61448740Y91860000D01*
X61741260Y91860000D01*
X62028158Y91917068D01*
X62298411Y92029010D01*
X62541632Y92191525D01*
X62748475Y92398368D01*
X62821905Y92508264D01*
X62845300Y92505960D01*
X62886318Y92510000D01*
X62886319Y92510000D01*
X63008989Y92522082D01*
X63166387Y92569828D01*
X63311446Y92647364D01*
X63438591Y92751709D01*
X63464745Y92783578D01*
X64445669Y93764500D01*
X80429272Y93764500D01*
X80430000Y93630750D01*
X80588750Y93472000D01*
X81788000Y93472000D01*
X81788000Y93492000D01*
X82042000Y93492000D01*
X82042000Y93472000D01*
X82062000Y93472000D01*
X82062000Y93218000D01*
X82042000Y93218000D01*
X82042000Y93198000D01*
X81788000Y93198000D01*
X81788000Y93218000D01*
X80588750Y93218000D01*
X80430000Y93059250D01*
X80426928Y92495000D01*
X80439188Y92370518D01*
X80475498Y92250820D01*
X80534463Y92140506D01*
X80613815Y92043815D01*
X80710506Y91964463D01*
X80820820Y91905498D01*
X80940518Y91869188D01*
X81065000Y91856928D01*
X81593559Y91859806D01*
X78329054Y88595300D01*
X60996105Y88595300D01*
X60960000Y88598856D01*
X60923895Y88595300D01*
X60815915Y88584665D01*
X60677367Y88542637D01*
X60549680Y88474387D01*
X60437762Y88382538D01*
X60345913Y88270620D01*
X60277663Y88142933D01*
X60235635Y88004385D01*
X60235174Y87999702D01*
X60158899Y87958932D01*
X59940392Y87779607D01*
X59761068Y87561100D01*
X59690000Y87428142D01*
X59618932Y87561101D01*
X59439607Y87779608D01*
X59221100Y87958932D01*
X58971807Y88092182D01*
X58701308Y88174236D01*
X58420000Y88201943D01*
X58138691Y88174236D01*
X57868192Y88092182D01*
X57618899Y87958932D01*
X57400392Y87779607D01*
X57221068Y87561100D01*
X57087818Y87311807D01*
X57005764Y87041308D01*
X56985000Y86830491D01*
X56985000Y86105869D01*
X54048574Y83169441D01*
X54016710Y83143291D01*
X53957002Y83070536D01*
X53912364Y83016145D01*
X53834828Y82871086D01*
X53787082Y82713688D01*
X53770960Y82550000D01*
X53775001Y82508972D01*
X53775000Y81137930D01*
X53695241Y81084637D01*
X53495363Y80884759D01*
X53338320Y80649727D01*
X53230147Y80388574D01*
X53175000Y80111335D01*
X53175000Y79828665D01*
X53230147Y79551426D01*
X53338320Y79290273D01*
X53495363Y79055241D01*
X53695241Y78855363D01*
X53895869Y78721308D01*
X53868486Y78706671D01*
X53796903Y78462702D01*
X54610000Y77649605D01*
X55423097Y78462702D01*
X55351514Y78706671D01*
X55322659Y78720324D01*
X55524759Y78855363D01*
X55724637Y79055241D01*
X55881680Y79290273D01*
X55989853Y79551426D01*
X56045000Y79828665D01*
X56045000Y80111335D01*
X55989853Y80388574D01*
X55881680Y80649727D01*
X55724637Y80884759D01*
X55524759Y81084637D01*
X55445000Y81137930D01*
X55445000Y82204133D01*
X57868572Y84627703D01*
X58138692Y84545764D01*
X58420000Y84518057D01*
X58701309Y84545764D01*
X58971808Y84627818D01*
X59221101Y84761068D01*
X59439608Y84940392D01*
X59618932Y85158899D01*
X59690000Y85291858D01*
X59761068Y85158899D01*
X59940393Y84940392D01*
X60158900Y84761068D01*
X60408193Y84627818D01*
X60678692Y84545764D01*
X60960000Y84518057D01*
X61241309Y84545764D01*
X61511808Y84627818D01*
X61761101Y84761068D01*
X61979608Y84940392D01*
X62158932Y85158899D01*
X62227265Y85286741D01*
X62377399Y85057161D01*
X62575105Y84855500D01*
X62808354Y84696285D01*
X63068182Y84585633D01*
X63150961Y84568096D01*
X63373000Y84690085D01*
X63373000Y86233000D01*
X63353000Y86233000D01*
X63353000Y86487000D01*
X63373000Y86487000D01*
X63373000Y86507000D01*
X63627000Y86507000D01*
X63627000Y86487000D01*
X63647000Y86487000D01*
X63647000Y86233000D01*
X63627000Y86233000D01*
X63627000Y84690085D01*
X63849039Y84568096D01*
X63931818Y84585633D01*
X64191646Y84696285D01*
X64424895Y84855500D01*
X64622601Y85057161D01*
X64772735Y85286741D01*
X64841068Y85158899D01*
X65020393Y84940392D01*
X65238900Y84761068D01*
X65488193Y84627818D01*
X65758692Y84545764D01*
X66040000Y84518057D01*
X66321309Y84545764D01*
X66591808Y84627818D01*
X66841101Y84761068D01*
X67059608Y84940392D01*
X67238932Y85158899D01*
X67310000Y85291858D01*
X67381068Y85158899D01*
X67560393Y84940392D01*
X67778900Y84761068D01*
X68028193Y84627818D01*
X68298692Y84545764D01*
X68580000Y84518057D01*
X68861309Y84545764D01*
X69131808Y84627818D01*
X69381101Y84761068D01*
X69599608Y84940392D01*
X69778932Y85158899D01*
X69850000Y85291858D01*
X69921068Y85158899D01*
X70100393Y84940392D01*
X70318900Y84761068D01*
X70568193Y84627818D01*
X70838692Y84545764D01*
X71120000Y84518057D01*
X71401309Y84545764D01*
X71671808Y84627818D01*
X71921101Y84761068D01*
X72139608Y84940392D01*
X72318932Y85158899D01*
X72390000Y85291858D01*
X72461068Y85158899D01*
X72640393Y84940392D01*
X72858900Y84761068D01*
X73108193Y84627818D01*
X73378692Y84545764D01*
X73660000Y84518057D01*
X73941309Y84545764D01*
X74211808Y84627818D01*
X74461101Y84761068D01*
X74679608Y84940392D01*
X74858932Y85158899D01*
X74930000Y85291858D01*
X75001068Y85158899D01*
X75180393Y84940392D01*
X75398900Y84761068D01*
X75648193Y84627818D01*
X75918692Y84545764D01*
X76200000Y84518057D01*
X76481309Y84545764D01*
X76751808Y84627818D01*
X77001101Y84761068D01*
X77219608Y84940392D01*
X77398932Y85158899D01*
X77467265Y85286741D01*
X77617399Y85057161D01*
X77815105Y84855500D01*
X78048354Y84696285D01*
X78308182Y84585633D01*
X78390961Y84568096D01*
X78613000Y84690085D01*
X78613000Y86233000D01*
X78593000Y86233000D01*
X78593000Y86487000D01*
X78613000Y86487000D01*
X78613000Y86507000D01*
X78867000Y86507000D01*
X78867000Y86487000D01*
X78887000Y86487000D01*
X78887000Y86233000D01*
X78867000Y86233000D01*
X78867000Y84690085D01*
X79089039Y84568096D01*
X79171818Y84585633D01*
X79431646Y84696285D01*
X79664895Y84855500D01*
X79862601Y85057161D01*
X80012735Y85286741D01*
X80081068Y85158899D01*
X80260393Y84940392D01*
X80293816Y84912963D01*
X76975808Y81594954D01*
X76947763Y81571938D01*
X76855914Y81460020D01*
X76797029Y81349853D01*
X76787664Y81332333D01*
X76745635Y81193785D01*
X76731444Y81049700D01*
X76735001Y81013585D01*
X76735000Y73126987D01*
X76722238Y73142538D01*
X76694193Y73165554D01*
X73050659Y76809087D01*
X73027638Y76837138D01*
X72915720Y76928987D01*
X72788033Y76997237D01*
X72649485Y77039265D01*
X72541505Y77049900D01*
X72505400Y77053456D01*
X72469295Y77049900D01*
X55984091Y77049900D01*
X56036300Y77258184D01*
X56050217Y77540512D01*
X56008787Y77820130D01*
X55913603Y78086292D01*
X55846671Y78211514D01*
X55602702Y78283097D01*
X54789605Y77470000D01*
X54803748Y77455857D01*
X54624143Y77276252D01*
X54610000Y77290395D01*
X54595858Y77276252D01*
X54416253Y77455857D01*
X54430395Y77470000D01*
X53617298Y78283097D01*
X53373329Y78211514D01*
X53364786Y78193460D01*
X51184800Y80373446D01*
X51184800Y84884295D01*
X51188356Y84920400D01*
X51174165Y85064485D01*
X51147562Y85152182D01*
X51132137Y85203033D01*
X51063887Y85330720D01*
X50972038Y85442638D01*
X50943993Y85465654D01*
X50097254Y86312392D01*
X50101943Y86360000D01*
X50074236Y86641309D01*
X49992182Y86911808D01*
X49858932Y87161101D01*
X49679608Y87379608D01*
X49461101Y87558932D01*
X49428500Y87576358D01*
X49428500Y87683642D01*
X49461101Y87701068D01*
X49679608Y87880392D01*
X49858932Y88098899D01*
X49992182Y88348192D01*
X50074236Y88618691D01*
X50101943Y88900000D01*
X50074236Y89181309D01*
X49992182Y89451808D01*
X49858932Y89701101D01*
X49679608Y89919608D01*
X49461101Y90098932D01*
X49328142Y90170000D01*
X49461101Y90241068D01*
X49679608Y90420392D01*
X49858932Y90638899D01*
X49992182Y90888192D01*
X50074236Y91158691D01*
X50101943Y91440000D01*
X50074236Y91721309D01*
X49992182Y91991808D01*
X49858932Y92241101D01*
X49679608Y92459608D01*
X49636483Y92495000D01*
X55026928Y92495000D01*
X55039188Y92370518D01*
X55075498Y92250820D01*
X55134463Y92140506D01*
X55213815Y92043815D01*
X55310506Y91964463D01*
X55420820Y91905498D01*
X55540518Y91869188D01*
X55665000Y91856928D01*
X56229250Y91860000D01*
X56388000Y92018750D01*
X56388000Y93218000D01*
X55188750Y93218000D01*
X55030000Y93059250D01*
X55026928Y92495000D01*
X49636483Y92495000D01*
X49461101Y92638932D01*
X49333259Y92707265D01*
X49562839Y92857399D01*
X49764500Y93055105D01*
X49923715Y93288354D01*
X50034367Y93548182D01*
X50051904Y93630961D01*
X49929915Y93853000D01*
X48387000Y93853000D01*
X48387000Y93833000D01*
X48133000Y93833000D01*
X48133000Y93853000D01*
X46590085Y93853000D01*
X46468096Y93630961D01*
X46485633Y93548182D01*
X46596285Y93288354D01*
X46755500Y93055105D01*
X46957161Y92857399D01*
X47186741Y92707265D01*
X47058899Y92638932D01*
X46874843Y92487881D01*
X46822477Y92614305D01*
X46725624Y92759255D01*
X46602355Y92882524D01*
X46457405Y92979377D01*
X46296345Y93046090D01*
X46125365Y93080100D01*
X45951035Y93080100D01*
X45780055Y93046090D01*
X45618995Y92979377D01*
X45474045Y92882524D01*
X45350776Y92759255D01*
X45253923Y92614305D01*
X45187210Y92453245D01*
X45153200Y92282265D01*
X45153200Y92107935D01*
X45187210Y91936955D01*
X45253923Y91775895D01*
X45303200Y91702147D01*
X45303200Y91374705D01*
X45299644Y91338600D01*
X45303200Y91302496D01*
X45313835Y91194516D01*
X45355863Y91055968D01*
X45424113Y90928281D01*
X45515962Y90816363D01*
X45544008Y90793346D01*
X46652424Y89684929D01*
X46527818Y89451808D01*
X46445764Y89181309D01*
X46418057Y88900000D01*
X46445764Y88618691D01*
X46527818Y88348192D01*
X46661068Y88098899D01*
X46840392Y87880392D01*
X47058899Y87701068D01*
X47191858Y87630000D01*
X47058899Y87558932D01*
X46840392Y87379608D01*
X46661068Y87161101D01*
X46527818Y86911808D01*
X46445764Y86641309D01*
X46418057Y86360000D01*
X46437811Y86159436D01*
X42112457Y90484789D01*
X42238932Y90638899D01*
X42372182Y90888192D01*
X42454236Y91158691D01*
X42481943Y91440000D01*
X42454236Y91721309D01*
X42372182Y91991808D01*
X42238932Y92241101D01*
X42059608Y92459608D01*
X41841101Y92638932D01*
X41708142Y92710000D01*
X41841101Y92781068D01*
X42059608Y92960392D01*
X42238932Y93178899D01*
X42372182Y93428192D01*
X42454236Y93698691D01*
X42481943Y93980000D01*
X42454236Y94261309D01*
X42433691Y94329039D01*
X46468096Y94329039D01*
X46590085Y94107000D01*
X48133000Y94107000D01*
X48133000Y95415000D01*
X48387000Y95415000D01*
X48387000Y94107000D01*
X49929915Y94107000D01*
X49978262Y94195000D01*
X55026928Y94195000D01*
X55030000Y93630750D01*
X55188750Y93472000D01*
X56388000Y93472000D01*
X56388000Y94671250D01*
X56229250Y94830000D01*
X55665000Y94833072D01*
X55540518Y94820812D01*
X55420820Y94784502D01*
X55310506Y94725537D01*
X55213815Y94646185D01*
X55134463Y94549494D01*
X55075498Y94439180D01*
X55039188Y94319482D01*
X55026928Y94195000D01*
X49978262Y94195000D01*
X50051904Y94329039D01*
X50034367Y94411818D01*
X49923715Y94671646D01*
X49764500Y94904895D01*
X49562839Y95102601D01*
X49326483Y95257166D01*
X49064514Y95362650D01*
X48787000Y95415000D01*
X48387000Y95415000D01*
X48133000Y95415000D01*
X47733000Y95415000D01*
X47455486Y95362650D01*
X47193517Y95257166D01*
X46957161Y95102601D01*
X46755500Y94904895D01*
X46596285Y94671646D01*
X46485633Y94411818D01*
X46468096Y94329039D01*
X42433691Y94329039D01*
X42372182Y94531808D01*
X42238932Y94781101D01*
X42059608Y94999608D01*
X41841101Y95178932D01*
X41591808Y95312182D01*
X41321309Y95394236D01*
X41110492Y95415000D01*
X40169508Y95415000D01*
X39958691Y95394236D01*
X39688192Y95312182D01*
X39438899Y95178932D01*
X39220392Y94999608D01*
X39041068Y94781101D01*
X38907818Y94531808D01*
X38825764Y94261309D01*
X38798057Y93980000D01*
X38825764Y93698691D01*
X38907818Y93428192D01*
X39041068Y93178899D01*
X39220392Y92960392D01*
X39438899Y92781068D01*
X39571858Y92710000D01*
X39438899Y92638932D01*
X39220392Y92459608D01*
X39041068Y92241101D01*
X38907818Y91991808D01*
X38825764Y91721309D01*
X38798057Y91440000D01*
X38825764Y91158691D01*
X38876887Y90990160D01*
X36793459Y93073588D01*
X36770438Y93101638D01*
X36658520Y93193487D01*
X36530833Y93261737D01*
X36392285Y93303765D01*
X36284305Y93314400D01*
X36248200Y93317956D01*
X36212095Y93314400D01*
X35964807Y93314400D01*
X36064367Y93548182D01*
X36081904Y93630961D01*
X35959915Y93853000D01*
X34417000Y93853000D01*
X34417000Y93833000D01*
X34163000Y93833000D01*
X34163000Y93853000D01*
X32620085Y93853000D01*
X32498096Y93630961D01*
X32515633Y93548182D01*
X32615193Y93314400D01*
X28341359Y93314400D01*
X28402182Y93428192D01*
X28484236Y93698691D01*
X28511943Y93980000D01*
X28484236Y94261309D01*
X28463691Y94329039D01*
X32498096Y94329039D01*
X32620085Y94107000D01*
X34163000Y94107000D01*
X34163000Y95415000D01*
X34417000Y95415000D01*
X34417000Y94107000D01*
X35959915Y94107000D01*
X36081904Y94329039D01*
X36064367Y94411818D01*
X35953715Y94671646D01*
X35794500Y94904895D01*
X35592839Y95102601D01*
X35356483Y95257166D01*
X35094514Y95362650D01*
X34817000Y95415000D01*
X34417000Y95415000D01*
X34163000Y95415000D01*
X33763000Y95415000D01*
X33485486Y95362650D01*
X33223517Y95257166D01*
X32987161Y95102601D01*
X32785500Y94904895D01*
X32626285Y94671646D01*
X32515633Y94411818D01*
X32498096Y94329039D01*
X28463691Y94329039D01*
X28402182Y94531808D01*
X28268932Y94781101D01*
X28089608Y94999608D01*
X27871101Y95178932D01*
X27621808Y95312182D01*
X27351309Y95394236D01*
X27140492Y95415000D01*
X26199508Y95415000D01*
X25988691Y95394236D01*
X25718192Y95312182D01*
X25468899Y95178932D01*
X25250392Y94999608D01*
X25071068Y94781101D01*
X24937818Y94531808D01*
X24855764Y94261309D01*
X24828057Y93980000D01*
X24855764Y93698691D01*
X24937818Y93428192D01*
X24998641Y93314400D01*
X22995805Y93314400D01*
X22959700Y93317956D01*
X22923595Y93314400D01*
X22815615Y93303765D01*
X22677067Y93261737D01*
X22549380Y93193487D01*
X22437462Y93101638D01*
X22414446Y93073593D01*
X21767038Y92426184D01*
X21739608Y92459608D01*
X21521101Y92638932D01*
X21393259Y92707265D01*
X21622839Y92857399D01*
X21824500Y93055105D01*
X21983715Y93288354D01*
X22094367Y93548182D01*
X22111904Y93630961D01*
X21989915Y93853000D01*
X20447000Y93853000D01*
X20447000Y93833000D01*
X20193000Y93833000D01*
X20193000Y93853000D01*
X18650085Y93853000D01*
X18528096Y93630961D01*
X18545633Y93548182D01*
X18656285Y93288354D01*
X18815500Y93055105D01*
X19017161Y92857399D01*
X19246741Y92707265D01*
X19118899Y92638932D01*
X18900392Y92459608D01*
X18721068Y92241101D01*
X18587818Y91991808D01*
X18505764Y91721309D01*
X18478057Y91440000D01*
X18505764Y91158691D01*
X18587818Y90888192D01*
X18721068Y90638899D01*
X18900392Y90420392D01*
X19118899Y90241068D01*
X19251858Y90170000D01*
X19118899Y90098932D01*
X18900392Y89919608D01*
X18721068Y89701101D01*
X18587818Y89451808D01*
X18505764Y89181309D01*
X18478057Y88900000D01*
X18505764Y88618691D01*
X18582719Y88365000D01*
X14437281Y88365000D01*
X14514236Y88618691D01*
X14541943Y88900000D01*
X14514236Y89181309D01*
X14432182Y89451808D01*
X14298932Y89701101D01*
X14119608Y89919608D01*
X13901101Y90098932D01*
X13768142Y90170000D01*
X13901101Y90241068D01*
X14119608Y90420392D01*
X14298932Y90638899D01*
X14432182Y90888192D01*
X14514236Y91158691D01*
X14541943Y91440000D01*
X14514236Y91721309D01*
X14432182Y91991808D01*
X14298932Y92241101D01*
X14119608Y92459608D01*
X13901101Y92638932D01*
X13768142Y92710000D01*
X13901101Y92781068D01*
X14119608Y92960392D01*
X14298932Y93178899D01*
X14432182Y93428192D01*
X14514236Y93698691D01*
X14541943Y93980000D01*
X14514236Y94261309D01*
X14493691Y94329039D01*
X18528096Y94329039D01*
X18650085Y94107000D01*
X20193000Y94107000D01*
X20193000Y95415000D01*
X20447000Y95415000D01*
X20447000Y94107000D01*
X21989915Y94107000D01*
X22111904Y94329039D01*
X22094367Y94411818D01*
X21983715Y94671646D01*
X21824500Y94904895D01*
X21622839Y95102601D01*
X21386483Y95257166D01*
X21124514Y95362650D01*
X20847000Y95415000D01*
X20447000Y95415000D01*
X20193000Y95415000D01*
X19793000Y95415000D01*
X19515486Y95362650D01*
X19253517Y95257166D01*
X19017161Y95102601D01*
X18815500Y94904895D01*
X18656285Y94671646D01*
X18545633Y94411818D01*
X18528096Y94329039D01*
X14493691Y94329039D01*
X14432182Y94531808D01*
X14298932Y94781101D01*
X14119608Y94999608D01*
X13901101Y95178932D01*
X13651808Y95312182D01*
X13381309Y95394236D01*
X13170492Y95415000D01*
X12229508Y95415000D01*
X12018691Y95394236D01*
X11748192Y95312182D01*
X11498899Y95178932D01*
X11280392Y94999608D01*
X11101068Y94781101D01*
X11060298Y94704826D01*
X11055615Y94704365D01*
X10917066Y94662337D01*
X10872044Y94638272D01*
X10789380Y94594087D01*
X10677462Y94502238D01*
X10654446Y94474193D01*
X660000Y84479746D01*
X660000Y95220128D01*
X2765000Y95220128D01*
X2765000Y94779872D01*
X2850890Y94348075D01*
X3019369Y93941331D01*
X3263962Y93575271D01*
X3575271Y93263962D01*
X3941331Y93019369D01*
X4348075Y92850890D01*
X4779872Y92765000D01*
X5220128Y92765000D01*
X5651925Y92850890D01*
X6058669Y93019369D01*
X6424729Y93263962D01*
X6736038Y93575271D01*
X6980631Y93941331D01*
X7149110Y94348075D01*
X7235000Y94779872D01*
X7235000Y95220128D01*
X7149110Y95651925D01*
X6980631Y96058669D01*
X6736038Y96424729D01*
X6424729Y96736038D01*
X6058669Y96980631D01*
X5651925Y97149110D01*
X5220128Y97235000D01*
X4779872Y97235000D01*
X4348075Y97149110D01*
X3941331Y96980631D01*
X3575271Y96736038D01*
X3263962Y96424729D01*
X3019369Y96058669D01*
X2850890Y95651925D01*
X2765000Y95220128D01*
X660000Y95220128D01*
X660000Y99340000D01*
X99340001Y99340000D01*
X99340000Y660000D01*
G37*
G04 #@! TD.AperFunction*
D22*
X11720846Y17443607D02*
X11743862Y17415562D01*
X11855780Y17323713D01*
X11983467Y17255463D01*
X12122015Y17213435D01*
X12229995Y17202800D01*
X12230004Y17202800D01*
X12266099Y17199245D01*
X12302194Y17202800D01*
X18663180Y17202800D01*
X18587818Y17061808D01*
X18505764Y16791309D01*
X18478057Y16510000D01*
X18505764Y16228691D01*
X18587818Y15958192D01*
X18721068Y15708899D01*
X18900392Y15490392D01*
X19118899Y15311068D01*
X19251858Y15240000D01*
X19118899Y15168932D01*
X18900392Y14989608D01*
X18721068Y14771101D01*
X18587818Y14521808D01*
X18505764Y14251309D01*
X18478057Y13970000D01*
X18505764Y13688691D01*
X18587818Y13418192D01*
X18721068Y13168899D01*
X18900392Y12950392D01*
X19118899Y12771068D01*
X19251858Y12700000D01*
X19118899Y12628932D01*
X18900392Y12449608D01*
X18721068Y12231101D01*
X18587818Y11981808D01*
X18505764Y11711309D01*
X18478057Y11430000D01*
X18505764Y11148691D01*
X18539311Y11038100D01*
X9963147Y11038100D01*
X4519057Y16482189D01*
X4691355Y16584822D01*
X4887502Y16761626D01*
X4910498Y16685820D01*
X4969463Y16575506D01*
X5048815Y16478815D01*
X5145506Y16399463D01*
X5255820Y16340498D01*
X5375518Y16304188D01*
X5500000Y16291928D01*
X6064250Y16295000D01*
X6223000Y16453750D01*
X6223000Y17653000D01*
X6477000Y17653000D01*
X6477000Y16453750D01*
X6635750Y16295000D01*
X7200000Y16291928D01*
X7324482Y16304188D01*
X7444180Y16340498D01*
X7554494Y16399463D01*
X7651185Y16478815D01*
X7730537Y16575506D01*
X7789502Y16685820D01*
X7825812Y16805518D01*
X7838072Y16930000D01*
X7835000Y17494250D01*
X7676250Y17653000D01*
X6477000Y17653000D01*
X6223000Y17653000D01*
X3937000Y17653000D01*
X3937000Y17633000D01*
X3683000Y17633000D01*
X3683000Y17653000D01*
X3663000Y17653000D01*
X3663000Y17907000D01*
X3683000Y17907000D01*
X3683000Y17927000D01*
X3937000Y17927000D01*
X3937000Y17907000D01*
X6223000Y17907000D01*
X6223000Y17927000D01*
X6477000Y17927000D01*
X6477000Y17907000D01*
X7676250Y17907000D01*
X7835000Y18065750D01*
X7835706Y18195400D01*
X10969054Y18195400D01*
X11720846Y17443607D01*
G04 #@! TA.AperFunction,Conductor*
D23*
G36*
X11720846Y17443607D02*
G01*
X11743862Y17415562D01*
X11855780Y17323713D01*
X11983467Y17255463D01*
X12122015Y17213435D01*
X12229995Y17202800D01*
X12230004Y17202800D01*
X12266099Y17199245D01*
X12302194Y17202800D01*
X18663180Y17202800D01*
X18587818Y17061808D01*
X18505764Y16791309D01*
X18478057Y16510000D01*
X18505764Y16228691D01*
X18587818Y15958192D01*
X18721068Y15708899D01*
X18900392Y15490392D01*
X19118899Y15311068D01*
X19251858Y15240000D01*
X19118899Y15168932D01*
X18900392Y14989608D01*
X18721068Y14771101D01*
X18587818Y14521808D01*
X18505764Y14251309D01*
X18478057Y13970000D01*
X18505764Y13688691D01*
X18587818Y13418192D01*
X18721068Y13168899D01*
X18900392Y12950392D01*
X19118899Y12771068D01*
X19251858Y12700000D01*
X19118899Y12628932D01*
X18900392Y12449608D01*
X18721068Y12231101D01*
X18587818Y11981808D01*
X18505764Y11711309D01*
X18478057Y11430000D01*
X18505764Y11148691D01*
X18539311Y11038100D01*
X9963147Y11038100D01*
X4519057Y16482189D01*
X4691355Y16584822D01*
X4887502Y16761626D01*
X4910498Y16685820D01*
X4969463Y16575506D01*
X5048815Y16478815D01*
X5145506Y16399463D01*
X5255820Y16340498D01*
X5375518Y16304188D01*
X5500000Y16291928D01*
X6064250Y16295000D01*
X6223000Y16453750D01*
X6223000Y17653000D01*
X6477000Y17653000D01*
X6477000Y16453750D01*
X6635750Y16295000D01*
X7200000Y16291928D01*
X7324482Y16304188D01*
X7444180Y16340498D01*
X7554494Y16399463D01*
X7651185Y16478815D01*
X7730537Y16575506D01*
X7789502Y16685820D01*
X7825812Y16805518D01*
X7838072Y16930000D01*
X7835000Y17494250D01*
X7676250Y17653000D01*
X6477000Y17653000D01*
X6223000Y17653000D01*
X3937000Y17653000D01*
X3937000Y17633000D01*
X3683000Y17633000D01*
X3683000Y17653000D01*
X3663000Y17653000D01*
X3663000Y17907000D01*
X3683000Y17907000D01*
X3683000Y17927000D01*
X3937000Y17927000D01*
X3937000Y17907000D01*
X6223000Y17907000D01*
X6223000Y17927000D01*
X6477000Y17927000D01*
X6477000Y17907000D01*
X7676250Y17907000D01*
X7835000Y18065750D01*
X7835706Y18195400D01*
X10969054Y18195400D01*
X11720846Y17443607D01*
G37*
G04 #@! TD.AperFunction*
D22*
X26148096Y21939039D02*
X26270085Y21717000D01*
X27813000Y21717000D01*
X27813000Y21737000D01*
X28067000Y21737000D01*
X28067000Y21717000D01*
X29609915Y21717000D01*
X29731904Y21939039D01*
X29721616Y21987600D01*
X32761654Y21987600D01*
X33551446Y21197807D01*
X33574462Y21169762D01*
X33686380Y21077913D01*
X33814067Y21009663D01*
X33952615Y20967635D01*
X33957298Y20967174D01*
X33998068Y20890899D01*
X34177392Y20672392D01*
X34395899Y20493068D01*
X34528858Y20422000D01*
X34395899Y20350932D01*
X34177392Y20171608D01*
X33998068Y19953101D01*
X33864818Y19703808D01*
X33840301Y19622986D01*
X33790220Y19664087D01*
X33662533Y19732337D01*
X33523985Y19774365D01*
X33416005Y19785000D01*
X33379900Y19788556D01*
X33343795Y19785000D01*
X29574264Y19785000D01*
X29538932Y19851101D01*
X29359608Y20069608D01*
X29141101Y20248932D01*
X29013259Y20317265D01*
X29242839Y20467399D01*
X29444500Y20665105D01*
X29603715Y20898354D01*
X29714367Y21158182D01*
X29731904Y21240961D01*
X29609915Y21463000D01*
X28067000Y21463000D01*
X28067000Y21443000D01*
X27813000Y21443000D01*
X27813000Y21463000D01*
X26270085Y21463000D01*
X26148096Y21240961D01*
X26165633Y21158182D01*
X26276285Y20898354D01*
X26435500Y20665105D01*
X26637161Y20467399D01*
X26866741Y20317265D01*
X26738899Y20248932D01*
X26520392Y20069608D01*
X26492962Y20036185D01*
X25714958Y20814188D01*
X25691938Y20842238D01*
X25580020Y20934087D01*
X25452333Y21002337D01*
X25313785Y21044365D01*
X25205805Y21055000D01*
X25169700Y21058556D01*
X25133595Y21055000D01*
X22057281Y21055000D01*
X22134236Y21308691D01*
X22161943Y21590000D01*
X22134236Y21871309D01*
X22098960Y21987600D01*
X26158384Y21987600D01*
X26148096Y21939039D01*
G04 #@! TA.AperFunction,Conductor*
D23*
G36*
X26148096Y21939039D02*
G01*
X26270085Y21717000D01*
X27813000Y21717000D01*
X27813000Y21737000D01*
X28067000Y21737000D01*
X28067000Y21717000D01*
X29609915Y21717000D01*
X29731904Y21939039D01*
X29721616Y21987600D01*
X32761654Y21987600D01*
X33551446Y21197807D01*
X33574462Y21169762D01*
X33686380Y21077913D01*
X33814067Y21009663D01*
X33952615Y20967635D01*
X33957298Y20967174D01*
X33998068Y20890899D01*
X34177392Y20672392D01*
X34395899Y20493068D01*
X34528858Y20422000D01*
X34395899Y20350932D01*
X34177392Y20171608D01*
X33998068Y19953101D01*
X33864818Y19703808D01*
X33840301Y19622986D01*
X33790220Y19664087D01*
X33662533Y19732337D01*
X33523985Y19774365D01*
X33416005Y19785000D01*
X33379900Y19788556D01*
X33343795Y19785000D01*
X29574264Y19785000D01*
X29538932Y19851101D01*
X29359608Y20069608D01*
X29141101Y20248932D01*
X29013259Y20317265D01*
X29242839Y20467399D01*
X29444500Y20665105D01*
X29603715Y20898354D01*
X29714367Y21158182D01*
X29731904Y21240961D01*
X29609915Y21463000D01*
X28067000Y21463000D01*
X28067000Y21443000D01*
X27813000Y21443000D01*
X27813000Y21463000D01*
X26270085Y21463000D01*
X26148096Y21240961D01*
X26165633Y21158182D01*
X26276285Y20898354D01*
X26435500Y20665105D01*
X26637161Y20467399D01*
X26866741Y20317265D01*
X26738899Y20248932D01*
X26520392Y20069608D01*
X26492962Y20036185D01*
X25714958Y20814188D01*
X25691938Y20842238D01*
X25580020Y20934087D01*
X25452333Y21002337D01*
X25313785Y21044365D01*
X25205805Y21055000D01*
X25169700Y21058556D01*
X25133595Y21055000D01*
X22057281Y21055000D01*
X22134236Y21308691D01*
X22161943Y21590000D01*
X22134236Y21871309D01*
X22098960Y21987600D01*
X26158384Y21987600D01*
X26148096Y21939039D01*
G37*
G04 #@! TD.AperFunction*
D22*
X26101928Y29680000D02*
X26114188Y29555518D01*
X26150498Y29435820D01*
X26209463Y29325506D01*
X26288815Y29228815D01*
X26385506Y29149463D01*
X26495820Y29090498D01*
X26615518Y29054188D01*
X26740000Y29041928D01*
X28293582Y29041928D01*
X26645901Y27394247D01*
X26636671Y27411514D01*
X26392702Y27483097D01*
X25579605Y26670000D01*
X25593748Y26655857D01*
X25414143Y26476252D01*
X25400000Y26490395D01*
X25385858Y26476252D01*
X25206253Y26655857D01*
X25220395Y26670000D01*
X24407298Y27483097D01*
X24163329Y27411514D01*
X24149676Y27382659D01*
X24014637Y27584759D01*
X23936694Y27662702D01*
X24586903Y27662702D01*
X25400000Y26849605D01*
X26213097Y27662702D01*
X26141514Y27906671D01*
X25886004Y28027571D01*
X25611816Y28096300D01*
X25329488Y28110217D01*
X25049870Y28068787D01*
X24783708Y27973603D01*
X24658486Y27906671D01*
X24586903Y27662702D01*
X23936694Y27662702D01*
X23814759Y27784637D01*
X23735000Y27837930D01*
X23735000Y27858982D01*
X23739040Y27900000D01*
X23730762Y27984053D01*
X23722918Y28063689D01*
X23675172Y28221087D01*
X23597636Y28366146D01*
X23493291Y28493291D01*
X23461427Y28519441D01*
X22052297Y29928571D01*
X22134236Y30198691D01*
X22161943Y30480000D01*
X22134236Y30761309D01*
X22052182Y31031808D01*
X21973560Y31178900D01*
X26101928Y31178900D01*
X26101928Y29680000D01*
G04 #@! TA.AperFunction,Conductor*
D23*
G36*
X26101928Y29680000D02*
G01*
X26114188Y29555518D01*
X26150498Y29435820D01*
X26209463Y29325506D01*
X26288815Y29228815D01*
X26385506Y29149463D01*
X26495820Y29090498D01*
X26615518Y29054188D01*
X26740000Y29041928D01*
X28293582Y29041928D01*
X26645901Y27394247D01*
X26636671Y27411514D01*
X26392702Y27483097D01*
X25579605Y26670000D01*
X25593748Y26655857D01*
X25414143Y26476252D01*
X25400000Y26490395D01*
X25385858Y26476252D01*
X25206253Y26655857D01*
X25220395Y26670000D01*
X24407298Y27483097D01*
X24163329Y27411514D01*
X24149676Y27382659D01*
X24014637Y27584759D01*
X23936694Y27662702D01*
X24586903Y27662702D01*
X25400000Y26849605D01*
X26213097Y27662702D01*
X26141514Y27906671D01*
X25886004Y28027571D01*
X25611816Y28096300D01*
X25329488Y28110217D01*
X25049870Y28068787D01*
X24783708Y27973603D01*
X24658486Y27906671D01*
X24586903Y27662702D01*
X23936694Y27662702D01*
X23814759Y27784637D01*
X23735000Y27837930D01*
X23735000Y27858982D01*
X23739040Y27900000D01*
X23730762Y27984053D01*
X23722918Y28063689D01*
X23675172Y28221087D01*
X23597636Y28366146D01*
X23493291Y28493291D01*
X23461427Y28519441D01*
X22052297Y29928571D01*
X22134236Y30198691D01*
X22161943Y30480000D01*
X22134236Y30761309D01*
X22052182Y31031808D01*
X21973560Y31178900D01*
X26101928Y31178900D01*
X26101928Y29680000D01*
G37*
G04 #@! TD.AperFunction*
D22*
X32476863Y55136032D02*
X32467294Y55104487D01*
X32434835Y54997485D01*
X32420644Y54853400D01*
X32424200Y54817295D01*
X32424201Y49226748D01*
X29605323Y46407870D01*
X29603715Y46411646D01*
X29444500Y46644895D01*
X29242839Y46842601D01*
X29006483Y46997166D01*
X28744514Y47102650D01*
X28467000Y47155000D01*
X28067000Y47155000D01*
X28067000Y45847000D01*
X28087000Y45847000D01*
X28087000Y45593000D01*
X28067000Y45593000D01*
X28067000Y45573000D01*
X27813000Y45573000D01*
X27813000Y45593000D01*
X26270085Y45593000D01*
X26148096Y45370961D01*
X26162134Y45304700D01*
X22093591Y45304700D01*
X22134236Y45438691D01*
X22161943Y45720000D01*
X22134236Y46001309D01*
X22113691Y46069039D01*
X26148096Y46069039D01*
X26270085Y45847000D01*
X27813000Y45847000D01*
X27813000Y47155000D01*
X27413000Y47155000D01*
X27135486Y47102650D01*
X26873517Y46997166D01*
X26637161Y46842601D01*
X26435500Y46644895D01*
X26276285Y46411646D01*
X26165633Y46151818D01*
X26148096Y46069039D01*
X22113691Y46069039D01*
X22052182Y46271808D01*
X21918932Y46521101D01*
X21739608Y46739608D01*
X21521101Y46918932D01*
X21271808Y47052182D01*
X21001309Y47134236D01*
X20790492Y47155000D01*
X19849508Y47155000D01*
X19638691Y47134236D01*
X19368192Y47052182D01*
X19118899Y46918932D01*
X18900392Y46739608D01*
X18721068Y46521101D01*
X18587818Y46271808D01*
X18505764Y46001309D01*
X18478057Y45720000D01*
X18505764Y45438691D01*
X18546409Y45304700D01*
X16093253Y45304700D01*
X16019505Y45353977D01*
X15858445Y45420690D01*
X15687465Y45454700D01*
X15513135Y45454700D01*
X15342155Y45420690D01*
X15181095Y45353977D01*
X15036145Y45257124D01*
X14912876Y45133855D01*
X14816023Y44988905D01*
X14749310Y44827845D01*
X14715300Y44656865D01*
X14715300Y44482535D01*
X14749310Y44311555D01*
X14816023Y44150495D01*
X14912876Y44005545D01*
X15036145Y43882276D01*
X15181095Y43785423D01*
X15342155Y43718710D01*
X15513135Y43684700D01*
X15687465Y43684700D01*
X15858445Y43718710D01*
X16019505Y43785423D01*
X16093253Y43834700D01*
X18642815Y43834700D01*
X18587818Y43731808D01*
X18505764Y43461309D01*
X18478057Y43180000D01*
X18505764Y42898691D01*
X18587818Y42628192D01*
X18721068Y42378899D01*
X18900392Y42160392D01*
X19118899Y41981068D01*
X19251858Y41910000D01*
X19118899Y41838932D01*
X18900392Y41659608D01*
X18721068Y41441101D01*
X18587818Y41191808D01*
X18505764Y40921309D01*
X18478057Y40640000D01*
X18505764Y40358691D01*
X18582719Y40105000D01*
X16694747Y40105000D01*
X8045559Y48754187D01*
X8022538Y48782238D01*
X8006988Y48795000D01*
X23127395Y48795000D01*
X23163500Y48791444D01*
X23199605Y48795000D01*
X23307585Y48805635D01*
X23446133Y48847663D01*
X23573820Y48915913D01*
X23685738Y49007762D01*
X23708758Y49035812D01*
X24397300Y49724353D01*
X24430630Y49691023D01*
X24546903Y49807296D01*
X24618486Y49563329D01*
X24873996Y49442429D01*
X25148184Y49373700D01*
X25430512Y49359783D01*
X25710130Y49401213D01*
X25976292Y49496397D01*
X26101514Y49563329D01*
X26173097Y49807298D01*
X25360000Y50620395D01*
X25345858Y50606252D01*
X25166253Y50785857D01*
X25180395Y50800000D01*
X25539605Y50800000D01*
X26352702Y49986903D01*
X26596671Y50058486D01*
X26717571Y50313996D01*
X26786300Y50588184D01*
X26800217Y50870512D01*
X26758787Y51150130D01*
X26663603Y51416292D01*
X26596671Y51541514D01*
X26352702Y51613097D01*
X25539605Y50800000D01*
X25180395Y50800000D01*
X25166253Y50814142D01*
X25345858Y50993747D01*
X25360000Y50979605D01*
X26173097Y51792702D01*
X26101514Y52036671D01*
X25846004Y52157571D01*
X25571816Y52226300D01*
X25289488Y52240217D01*
X25078033Y52208886D01*
X26261385Y53392238D01*
X26288815Y53358815D01*
X26385506Y53279463D01*
X26495820Y53220498D01*
X26615518Y53184188D01*
X26740000Y53171928D01*
X29140000Y53171928D01*
X29264482Y53184188D01*
X29384180Y53220498D01*
X29494494Y53279463D01*
X29591185Y53358815D01*
X29670537Y53455506D01*
X29729502Y53565820D01*
X29765812Y53685518D01*
X29778072Y53810000D01*
X29778072Y55145000D01*
X32481656Y55145000D01*
X32476863Y55136032D01*
G04 #@! TA.AperFunction,Conductor*
D23*
G36*
X32476863Y55136032D02*
G01*
X32467294Y55104487D01*
X32434835Y54997485D01*
X32420644Y54853400D01*
X32424200Y54817295D01*
X32424201Y49226748D01*
X29605323Y46407870D01*
X29603715Y46411646D01*
X29444500Y46644895D01*
X29242839Y46842601D01*
X29006483Y46997166D01*
X28744514Y47102650D01*
X28467000Y47155000D01*
X28067000Y47155000D01*
X28067000Y45847000D01*
X28087000Y45847000D01*
X28087000Y45593000D01*
X28067000Y45593000D01*
X28067000Y45573000D01*
X27813000Y45573000D01*
X27813000Y45593000D01*
X26270085Y45593000D01*
X26148096Y45370961D01*
X26162134Y45304700D01*
X22093591Y45304700D01*
X22134236Y45438691D01*
X22161943Y45720000D01*
X22134236Y46001309D01*
X22113691Y46069039D01*
X26148096Y46069039D01*
X26270085Y45847000D01*
X27813000Y45847000D01*
X27813000Y47155000D01*
X27413000Y47155000D01*
X27135486Y47102650D01*
X26873517Y46997166D01*
X26637161Y46842601D01*
X26435500Y46644895D01*
X26276285Y46411646D01*
X26165633Y46151818D01*
X26148096Y46069039D01*
X22113691Y46069039D01*
X22052182Y46271808D01*
X21918932Y46521101D01*
X21739608Y46739608D01*
X21521101Y46918932D01*
X21271808Y47052182D01*
X21001309Y47134236D01*
X20790492Y47155000D01*
X19849508Y47155000D01*
X19638691Y47134236D01*
X19368192Y47052182D01*
X19118899Y46918932D01*
X18900392Y46739608D01*
X18721068Y46521101D01*
X18587818Y46271808D01*
X18505764Y46001309D01*
X18478057Y45720000D01*
X18505764Y45438691D01*
X18546409Y45304700D01*
X16093253Y45304700D01*
X16019505Y45353977D01*
X15858445Y45420690D01*
X15687465Y45454700D01*
X15513135Y45454700D01*
X15342155Y45420690D01*
X15181095Y45353977D01*
X15036145Y45257124D01*
X14912876Y45133855D01*
X14816023Y44988905D01*
X14749310Y44827845D01*
X14715300Y44656865D01*
X14715300Y44482535D01*
X14749310Y44311555D01*
X14816023Y44150495D01*
X14912876Y44005545D01*
X15036145Y43882276D01*
X15181095Y43785423D01*
X15342155Y43718710D01*
X15513135Y43684700D01*
X15687465Y43684700D01*
X15858445Y43718710D01*
X16019505Y43785423D01*
X16093253Y43834700D01*
X18642815Y43834700D01*
X18587818Y43731808D01*
X18505764Y43461309D01*
X18478057Y43180000D01*
X18505764Y42898691D01*
X18587818Y42628192D01*
X18721068Y42378899D01*
X18900392Y42160392D01*
X19118899Y41981068D01*
X19251858Y41910000D01*
X19118899Y41838932D01*
X18900392Y41659608D01*
X18721068Y41441101D01*
X18587818Y41191808D01*
X18505764Y40921309D01*
X18478057Y40640000D01*
X18505764Y40358691D01*
X18582719Y40105000D01*
X16694747Y40105000D01*
X8045559Y48754187D01*
X8022538Y48782238D01*
X8006988Y48795000D01*
X23127395Y48795000D01*
X23163500Y48791444D01*
X23199605Y48795000D01*
X23307585Y48805635D01*
X23446133Y48847663D01*
X23573820Y48915913D01*
X23685738Y49007762D01*
X23708758Y49035812D01*
X24397300Y49724353D01*
X24430630Y49691023D01*
X24546903Y49807296D01*
X24618486Y49563329D01*
X24873996Y49442429D01*
X25148184Y49373700D01*
X25430512Y49359783D01*
X25710130Y49401213D01*
X25976292Y49496397D01*
X26101514Y49563329D01*
X26173097Y49807298D01*
X25360000Y50620395D01*
X25345858Y50606252D01*
X25166253Y50785857D01*
X25180395Y50800000D01*
X25539605Y50800000D01*
X26352702Y49986903D01*
X26596671Y50058486D01*
X26717571Y50313996D01*
X26786300Y50588184D01*
X26800217Y50870512D01*
X26758787Y51150130D01*
X26663603Y51416292D01*
X26596671Y51541514D01*
X26352702Y51613097D01*
X25539605Y50800000D01*
X25180395Y50800000D01*
X25166253Y50814142D01*
X25345858Y50993747D01*
X25360000Y50979605D01*
X26173097Y51792702D01*
X26101514Y52036671D01*
X25846004Y52157571D01*
X25571816Y52226300D01*
X25289488Y52240217D01*
X25078033Y52208886D01*
X26261385Y53392238D01*
X26288815Y53358815D01*
X26385506Y53279463D01*
X26495820Y53220498D01*
X26615518Y53184188D01*
X26740000Y53171928D01*
X29140000Y53171928D01*
X29264482Y53184188D01*
X29384180Y53220498D01*
X29494494Y53279463D01*
X29591185Y53358815D01*
X29670537Y53455506D01*
X29729502Y53565820D01*
X29765812Y53685518D01*
X29778072Y53810000D01*
X29778072Y55145000D01*
X32481656Y55145000D01*
X32476863Y55136032D01*
G37*
G04 #@! TD.AperFunction*
D22*
X48389710Y59714955D02*
X48456423Y59553895D01*
X48553276Y59408945D01*
X48676545Y59285676D01*
X48821495Y59188823D01*
X48982555Y59122110D01*
X49153535Y59088100D01*
X49327865Y59088100D01*
X49498845Y59122110D01*
X49659905Y59188823D01*
X49733653Y59238100D01*
X59556154Y59238100D01*
X67218446Y51575807D01*
X67241462Y51547762D01*
X67353380Y51455913D01*
X67481067Y51387663D01*
X67619615Y51345635D01*
X67727595Y51335000D01*
X67727604Y51335000D01*
X67763699Y51331445D01*
X67799794Y51335000D01*
X68467893Y51335000D01*
X68453175Y51304099D01*
X68408524Y51156890D01*
X68529845Y50927000D01*
X69723000Y50927000D01*
X69723000Y50947000D01*
X69977000Y50947000D01*
X69977000Y50927000D01*
X69997000Y50927000D01*
X69997000Y50673000D01*
X69977000Y50673000D01*
X69977000Y50653000D01*
X69723000Y50653000D01*
X69723000Y50673000D01*
X68529845Y50673000D01*
X68408524Y50443110D01*
X68453175Y50295901D01*
X68523812Y50147600D01*
X65841947Y50147600D01*
X62670759Y53318787D01*
X62647738Y53346838D01*
X62535820Y53438687D01*
X62446103Y53486642D01*
X62445000Y53689250D01*
X62286250Y53848000D01*
X61087000Y53848000D01*
X61087000Y53828000D01*
X60833000Y53828000D01*
X60833000Y53848000D01*
X60813000Y53848000D01*
X60813000Y54102000D01*
X60833000Y54102000D01*
X60833000Y55301250D01*
X61087000Y55301250D01*
X61087000Y54102000D01*
X62286250Y54102000D01*
X62445000Y54260750D01*
X62448072Y54825000D01*
X62435812Y54949482D01*
X62399502Y55069180D01*
X62340537Y55179494D01*
X62261185Y55276185D01*
X62164494Y55355537D01*
X62054180Y55414502D01*
X61934482Y55450812D01*
X61810000Y55463072D01*
X61245750Y55460000D01*
X61087000Y55301250D01*
X60833000Y55301250D01*
X60674250Y55460000D01*
X60110000Y55463072D01*
X59985518Y55450812D01*
X59865820Y55414502D01*
X59755506Y55355537D01*
X59658815Y55276185D01*
X59579463Y55179494D01*
X59520498Y55069180D01*
X59484188Y54949482D01*
X59471928Y54825000D01*
X59475000Y54260750D01*
X59633748Y54102002D01*
X59552445Y54102002D01*
X58448258Y55206188D01*
X58425238Y55234238D01*
X58313320Y55326087D01*
X58185633Y55394337D01*
X58047085Y55436365D01*
X57939105Y55447000D01*
X57903000Y55450556D01*
X57866895Y55447000D01*
X52471264Y55447000D01*
X52435932Y55513101D01*
X52256608Y55731608D01*
X52038101Y55910932D01*
X51788808Y56044182D01*
X51518309Y56126236D01*
X51307492Y56147000D01*
X50366508Y56147000D01*
X50155691Y56126236D01*
X49885192Y56044182D01*
X49635899Y55910932D01*
X49417392Y55731608D01*
X49238068Y55513101D01*
X49104818Y55263808D01*
X49022764Y54993309D01*
X48995057Y54712000D01*
X49022764Y54430691D01*
X49069385Y54277000D01*
X42147000Y54277000D01*
X42147000Y57354070D01*
X42226759Y57407363D01*
X42273725Y57454329D01*
X43491846Y56236207D01*
X43514862Y56208162D01*
X43626780Y56116313D01*
X43754467Y56048063D01*
X43804585Y56032860D01*
X43934395Y55946123D01*
X44095455Y55879410D01*
X44266435Y55845400D01*
X44440765Y55845400D01*
X44611745Y55879410D01*
X44772805Y55946123D01*
X44917755Y56042976D01*
X45041024Y56166245D01*
X45137877Y56311195D01*
X45204590Y56472255D01*
X45238600Y56643235D01*
X45238600Y56817565D01*
X45204590Y56988545D01*
X45137877Y57149605D01*
X45041024Y57294555D01*
X44917755Y57417824D01*
X44772805Y57514677D01*
X44611745Y57581390D01*
X44563386Y57591009D01*
X43812000Y58342395D01*
X43797858Y58328252D01*
X43618253Y58507857D01*
X43632395Y58522000D01*
X43618253Y58536142D01*
X43797858Y58715747D01*
X43812000Y58701605D01*
X43826143Y58715747D01*
X44005748Y58536142D01*
X43991605Y58522000D01*
X44804702Y57708903D01*
X45048671Y57780486D01*
X45169571Y58035996D01*
X45238300Y58310184D01*
X45252217Y58592512D01*
X45210787Y58872130D01*
X45194685Y58917156D01*
X45330755Y59008076D01*
X45454024Y59131345D01*
X45550877Y59276295D01*
X45617590Y59437355D01*
X45634894Y59524347D01*
X45942247Y59831700D01*
X48366488Y59831700D01*
X48389710Y59714955D01*
G04 #@! TA.AperFunction,Conductor*
D23*
G36*
X48389710Y59714955D02*
G01*
X48456423Y59553895D01*
X48553276Y59408945D01*
X48676545Y59285676D01*
X48821495Y59188823D01*
X48982555Y59122110D01*
X49153535Y59088100D01*
X49327865Y59088100D01*
X49498845Y59122110D01*
X49659905Y59188823D01*
X49733653Y59238100D01*
X59556154Y59238100D01*
X67218446Y51575807D01*
X67241462Y51547762D01*
X67353380Y51455913D01*
X67481067Y51387663D01*
X67619615Y51345635D01*
X67727595Y51335000D01*
X67727604Y51335000D01*
X67763699Y51331445D01*
X67799794Y51335000D01*
X68467893Y51335000D01*
X68453175Y51304099D01*
X68408524Y51156890D01*
X68529845Y50927000D01*
X69723000Y50927000D01*
X69723000Y50947000D01*
X69977000Y50947000D01*
X69977000Y50927000D01*
X69997000Y50927000D01*
X69997000Y50673000D01*
X69977000Y50673000D01*
X69977000Y50653000D01*
X69723000Y50653000D01*
X69723000Y50673000D01*
X68529845Y50673000D01*
X68408524Y50443110D01*
X68453175Y50295901D01*
X68523812Y50147600D01*
X65841947Y50147600D01*
X62670759Y53318787D01*
X62647738Y53346838D01*
X62535820Y53438687D01*
X62446103Y53486642D01*
X62445000Y53689250D01*
X62286250Y53848000D01*
X61087000Y53848000D01*
X61087000Y53828000D01*
X60833000Y53828000D01*
X60833000Y53848000D01*
X60813000Y53848000D01*
X60813000Y54102000D01*
X60833000Y54102000D01*
X60833000Y55301250D01*
X61087000Y55301250D01*
X61087000Y54102000D01*
X62286250Y54102000D01*
X62445000Y54260750D01*
X62448072Y54825000D01*
X62435812Y54949482D01*
X62399502Y55069180D01*
X62340537Y55179494D01*
X62261185Y55276185D01*
X62164494Y55355537D01*
X62054180Y55414502D01*
X61934482Y55450812D01*
X61810000Y55463072D01*
X61245750Y55460000D01*
X61087000Y55301250D01*
X60833000Y55301250D01*
X60674250Y55460000D01*
X60110000Y55463072D01*
X59985518Y55450812D01*
X59865820Y55414502D01*
X59755506Y55355537D01*
X59658815Y55276185D01*
X59579463Y55179494D01*
X59520498Y55069180D01*
X59484188Y54949482D01*
X59471928Y54825000D01*
X59475000Y54260750D01*
X59633748Y54102002D01*
X59552445Y54102002D01*
X58448258Y55206188D01*
X58425238Y55234238D01*
X58313320Y55326087D01*
X58185633Y55394337D01*
X58047085Y55436365D01*
X57939105Y55447000D01*
X57903000Y55450556D01*
X57866895Y55447000D01*
X52471264Y55447000D01*
X52435932Y55513101D01*
X52256608Y55731608D01*
X52038101Y55910932D01*
X51788808Y56044182D01*
X51518309Y56126236D01*
X51307492Y56147000D01*
X50366508Y56147000D01*
X50155691Y56126236D01*
X49885192Y56044182D01*
X49635899Y55910932D01*
X49417392Y55731608D01*
X49238068Y55513101D01*
X49104818Y55263808D01*
X49022764Y54993309D01*
X48995057Y54712000D01*
X49022764Y54430691D01*
X49069385Y54277000D01*
X42147000Y54277000D01*
X42147000Y57354070D01*
X42226759Y57407363D01*
X42273725Y57454329D01*
X43491846Y56236207D01*
X43514862Y56208162D01*
X43626780Y56116313D01*
X43754467Y56048063D01*
X43804585Y56032860D01*
X43934395Y55946123D01*
X44095455Y55879410D01*
X44266435Y55845400D01*
X44440765Y55845400D01*
X44611745Y55879410D01*
X44772805Y55946123D01*
X44917755Y56042976D01*
X45041024Y56166245D01*
X45137877Y56311195D01*
X45204590Y56472255D01*
X45238600Y56643235D01*
X45238600Y56817565D01*
X45204590Y56988545D01*
X45137877Y57149605D01*
X45041024Y57294555D01*
X44917755Y57417824D01*
X44772805Y57514677D01*
X44611745Y57581390D01*
X44563386Y57591009D01*
X43812000Y58342395D01*
X43797858Y58328252D01*
X43618253Y58507857D01*
X43632395Y58522000D01*
X43618253Y58536142D01*
X43797858Y58715747D01*
X43812000Y58701605D01*
X43826143Y58715747D01*
X44005748Y58536142D01*
X43991605Y58522000D01*
X44804702Y57708903D01*
X45048671Y57780486D01*
X45169571Y58035996D01*
X45238300Y58310184D01*
X45252217Y58592512D01*
X45210787Y58872130D01*
X45194685Y58917156D01*
X45330755Y59008076D01*
X45454024Y59131345D01*
X45550877Y59276295D01*
X45617590Y59437355D01*
X45634894Y59524347D01*
X45942247Y59831700D01*
X48366488Y59831700D01*
X48389710Y59714955D01*
G37*
G04 #@! TD.AperFunction*
D22*
X2538359Y77973080D02*
X2712412Y77739731D01*
X2928645Y77544822D01*
X3045534Y77475195D01*
X2863368Y77353475D01*
X2656525Y77146632D01*
X2494010Y76903411D01*
X2382068Y76633158D01*
X2325000Y76346260D01*
X2325000Y76053740D01*
X2382068Y75766842D01*
X2494010Y75496589D01*
X2656525Y75253368D01*
X2863368Y75046525D01*
X3037760Y74930000D01*
X2863368Y74813475D01*
X2656525Y74606632D01*
X2494010Y74363411D01*
X2382068Y74093158D01*
X2325000Y73806260D01*
X2325000Y73513740D01*
X2382068Y73226842D01*
X2494010Y72956589D01*
X2656525Y72713368D01*
X2863368Y72506525D01*
X3037760Y72390000D01*
X2863368Y72273475D01*
X2656525Y72066632D01*
X2494010Y71823411D01*
X2382068Y71553158D01*
X2325000Y71266260D01*
X2325000Y70973740D01*
X2382068Y70686842D01*
X2494010Y70416589D01*
X2656525Y70173368D01*
X2863368Y69966525D01*
X3037760Y69850000D01*
X2863368Y69733475D01*
X2656525Y69526632D01*
X2494010Y69283411D01*
X2382068Y69013158D01*
X2325000Y68726260D01*
X2325000Y68433740D01*
X2382068Y68146842D01*
X2494010Y67876589D01*
X2656525Y67633368D01*
X2863368Y67426525D01*
X3045534Y67304805D01*
X2928645Y67235178D01*
X2712412Y67040269D01*
X2538359Y66806920D01*
X2413175Y66544099D01*
X2368524Y66396890D01*
X2489845Y66167000D01*
X3683000Y66167000D01*
X3683000Y66187000D01*
X3937000Y66187000D01*
X3937000Y66167000D01*
X6223000Y66167000D01*
X6223000Y66187000D01*
X6477000Y66187000D01*
X6477000Y66167000D01*
X7670155Y66167000D01*
X7791476Y66396890D01*
X7746825Y66544099D01*
X7621641Y66806920D01*
X7447588Y67040269D01*
X7231355Y67235178D01*
X7114466Y67304805D01*
X7296632Y67426525D01*
X7503475Y67633368D01*
X7644883Y67845000D01*
X18582719Y67845000D01*
X18505764Y67591309D01*
X18478057Y67310000D01*
X18505764Y67028691D01*
X18587818Y66758192D01*
X18721068Y66508899D01*
X18900392Y66290392D01*
X19118899Y66111068D01*
X19251858Y66040000D01*
X19118899Y65968932D01*
X18900392Y65789608D01*
X18721068Y65571101D01*
X18587818Y65321808D01*
X18505764Y65051309D01*
X18478057Y64770000D01*
X18505764Y64488691D01*
X18582719Y64235000D01*
X17370105Y64235000D01*
X17334000Y64238556D01*
X17189915Y64224365D01*
X17051366Y64182337D01*
X16927805Y64116292D01*
X16923680Y64114087D01*
X16811762Y64022238D01*
X16788746Y63994193D01*
X16604710Y63810157D01*
X16598787Y63850130D01*
X16503603Y64116292D01*
X16436671Y64241514D01*
X16192702Y64313097D01*
X15379605Y63500000D01*
X15393748Y63485857D01*
X15214143Y63306252D01*
X15200000Y63320395D01*
X14386903Y62507298D01*
X14458486Y62263329D01*
X14713996Y62142429D01*
X14892291Y62097737D01*
X13099954Y60305400D01*
X7686208Y60305400D01*
X7777932Y60526842D01*
X7835000Y60813740D01*
X7835000Y61106260D01*
X7777932Y61393158D01*
X7665990Y61663411D01*
X7503475Y61906632D01*
X7296632Y62113475D01*
X7122240Y62230000D01*
X7296632Y62346525D01*
X7503475Y62553368D01*
X7578065Y62665000D01*
X11265375Y62665000D01*
X11274188Y62575518D01*
X11310498Y62455820D01*
X11369463Y62345506D01*
X11448815Y62248815D01*
X11545506Y62169463D01*
X11655820Y62110498D01*
X11775518Y62074188D01*
X11900000Y62061928D01*
X13500000Y62061928D01*
X13624482Y62074188D01*
X13744180Y62110498D01*
X13854494Y62169463D01*
X13951185Y62248815D01*
X14030537Y62345506D01*
X14089502Y62455820D01*
X14125812Y62575518D01*
X14138072Y62700000D01*
X14138072Y62707215D01*
X14207298Y62686903D01*
X15020395Y63500000D01*
X14207298Y64313097D01*
X14138072Y64292785D01*
X14138072Y64300000D01*
X14125812Y64424482D01*
X14105118Y64492702D01*
X14386903Y64492702D01*
X15200000Y63679605D01*
X16013097Y64492702D01*
X15941514Y64736671D01*
X15686004Y64857571D01*
X15411816Y64926300D01*
X15129488Y64940217D01*
X14849870Y64898787D01*
X14583708Y64803603D01*
X14458486Y64736671D01*
X14386903Y64492702D01*
X14105118Y64492702D01*
X14089502Y64544180D01*
X14030537Y64654494D01*
X13951185Y64751185D01*
X13854494Y64830537D01*
X13744180Y64889502D01*
X13624482Y64925812D01*
X13500000Y64938072D01*
X11900000Y64938072D01*
X11775518Y64925812D01*
X11655820Y64889502D01*
X11545506Y64830537D01*
X11448815Y64751185D01*
X11369463Y64654494D01*
X11310498Y64544180D01*
X11274188Y64424482D01*
X11265375Y64335000D01*
X7578065Y64335000D01*
X7503475Y64446632D01*
X7296632Y64653475D01*
X7114466Y64775195D01*
X7231355Y64844822D01*
X7447588Y65039731D01*
X7621641Y65273080D01*
X7746825Y65535901D01*
X7791476Y65683110D01*
X7670155Y65913000D01*
X6477000Y65913000D01*
X6477000Y65893000D01*
X6223000Y65893000D01*
X6223000Y65913000D01*
X3937000Y65913000D01*
X3937000Y65893000D01*
X3683000Y65893000D01*
X3683000Y65913000D01*
X2489845Y65913000D01*
X2368524Y65683110D01*
X2413175Y65535901D01*
X2538359Y65273080D01*
X2712412Y65039731D01*
X2928645Y64844822D01*
X3045534Y64775195D01*
X2863368Y64653475D01*
X2656525Y64446632D01*
X2494010Y64203411D01*
X2382068Y63933158D01*
X2325000Y63646260D01*
X2325000Y63353740D01*
X2382068Y63066842D01*
X2494010Y62796589D01*
X2656525Y62553368D01*
X2863368Y62346525D01*
X3037760Y62230000D01*
X2863368Y62113475D01*
X2656525Y61906632D01*
X2494010Y61663411D01*
X2382068Y61393158D01*
X2325000Y61106260D01*
X2325000Y60813740D01*
X2382068Y60526842D01*
X2494010Y60256589D01*
X2656525Y60013368D01*
X2863368Y59806525D01*
X3037760Y59690000D01*
X2863368Y59573475D01*
X2656525Y59366632D01*
X2494010Y59123411D01*
X2382068Y58853158D01*
X2325000Y58566260D01*
X2325000Y58273740D01*
X2382068Y57986842D01*
X2494010Y57716589D01*
X2656525Y57473368D01*
X2692223Y57437670D01*
X1748800Y56494246D01*
X1748800Y77276654D01*
X2508311Y78036165D01*
X2538359Y77973080D01*
G04 #@! TA.AperFunction,Conductor*
D23*
G36*
X2538359Y77973080D02*
G01*
X2712412Y77739731D01*
X2928645Y77544822D01*
X3045534Y77475195D01*
X2863368Y77353475D01*
X2656525Y77146632D01*
X2494010Y76903411D01*
X2382068Y76633158D01*
X2325000Y76346260D01*
X2325000Y76053740D01*
X2382068Y75766842D01*
X2494010Y75496589D01*
X2656525Y75253368D01*
X2863368Y75046525D01*
X3037760Y74930000D01*
X2863368Y74813475D01*
X2656525Y74606632D01*
X2494010Y74363411D01*
X2382068Y74093158D01*
X2325000Y73806260D01*
X2325000Y73513740D01*
X2382068Y73226842D01*
X2494010Y72956589D01*
X2656525Y72713368D01*
X2863368Y72506525D01*
X3037760Y72390000D01*
X2863368Y72273475D01*
X2656525Y72066632D01*
X2494010Y71823411D01*
X2382068Y71553158D01*
X2325000Y71266260D01*
X2325000Y70973740D01*
X2382068Y70686842D01*
X2494010Y70416589D01*
X2656525Y70173368D01*
X2863368Y69966525D01*
X3037760Y69850000D01*
X2863368Y69733475D01*
X2656525Y69526632D01*
X2494010Y69283411D01*
X2382068Y69013158D01*
X2325000Y68726260D01*
X2325000Y68433740D01*
X2382068Y68146842D01*
X2494010Y67876589D01*
X2656525Y67633368D01*
X2863368Y67426525D01*
X3045534Y67304805D01*
X2928645Y67235178D01*
X2712412Y67040269D01*
X2538359Y66806920D01*
X2413175Y66544099D01*
X2368524Y66396890D01*
X2489845Y66167000D01*
X3683000Y66167000D01*
X3683000Y66187000D01*
X3937000Y66187000D01*
X3937000Y66167000D01*
X6223000Y66167000D01*
X6223000Y66187000D01*
X6477000Y66187000D01*
X6477000Y66167000D01*
X7670155Y66167000D01*
X7791476Y66396890D01*
X7746825Y66544099D01*
X7621641Y66806920D01*
X7447588Y67040269D01*
X7231355Y67235178D01*
X7114466Y67304805D01*
X7296632Y67426525D01*
X7503475Y67633368D01*
X7644883Y67845000D01*
X18582719Y67845000D01*
X18505764Y67591309D01*
X18478057Y67310000D01*
X18505764Y67028691D01*
X18587818Y66758192D01*
X18721068Y66508899D01*
X18900392Y66290392D01*
X19118899Y66111068D01*
X19251858Y66040000D01*
X19118899Y65968932D01*
X18900392Y65789608D01*
X18721068Y65571101D01*
X18587818Y65321808D01*
X18505764Y65051309D01*
X18478057Y64770000D01*
X18505764Y64488691D01*
X18582719Y64235000D01*
X17370105Y64235000D01*
X17334000Y64238556D01*
X17189915Y64224365D01*
X17051366Y64182337D01*
X16927805Y64116292D01*
X16923680Y64114087D01*
X16811762Y64022238D01*
X16788746Y63994193D01*
X16604710Y63810157D01*
X16598787Y63850130D01*
X16503603Y64116292D01*
X16436671Y64241514D01*
X16192702Y64313097D01*
X15379605Y63500000D01*
X15393748Y63485857D01*
X15214143Y63306252D01*
X15200000Y63320395D01*
X14386903Y62507298D01*
X14458486Y62263329D01*
X14713996Y62142429D01*
X14892291Y62097737D01*
X13099954Y60305400D01*
X7686208Y60305400D01*
X7777932Y60526842D01*
X7835000Y60813740D01*
X7835000Y61106260D01*
X7777932Y61393158D01*
X7665990Y61663411D01*
X7503475Y61906632D01*
X7296632Y62113475D01*
X7122240Y62230000D01*
X7296632Y62346525D01*
X7503475Y62553368D01*
X7578065Y62665000D01*
X11265375Y62665000D01*
X11274188Y62575518D01*
X11310498Y62455820D01*
X11369463Y62345506D01*
X11448815Y62248815D01*
X11545506Y62169463D01*
X11655820Y62110498D01*
X11775518Y62074188D01*
X11900000Y62061928D01*
X13500000Y62061928D01*
X13624482Y62074188D01*
X13744180Y62110498D01*
X13854494Y62169463D01*
X13951185Y62248815D01*
X14030537Y62345506D01*
X14089502Y62455820D01*
X14125812Y62575518D01*
X14138072Y62700000D01*
X14138072Y62707215D01*
X14207298Y62686903D01*
X15020395Y63500000D01*
X14207298Y64313097D01*
X14138072Y64292785D01*
X14138072Y64300000D01*
X14125812Y64424482D01*
X14105118Y64492702D01*
X14386903Y64492702D01*
X15200000Y63679605D01*
X16013097Y64492702D01*
X15941514Y64736671D01*
X15686004Y64857571D01*
X15411816Y64926300D01*
X15129488Y64940217D01*
X14849870Y64898787D01*
X14583708Y64803603D01*
X14458486Y64736671D01*
X14386903Y64492702D01*
X14105118Y64492702D01*
X14089502Y64544180D01*
X14030537Y64654494D01*
X13951185Y64751185D01*
X13854494Y64830537D01*
X13744180Y64889502D01*
X13624482Y64925812D01*
X13500000Y64938072D01*
X11900000Y64938072D01*
X11775518Y64925812D01*
X11655820Y64889502D01*
X11545506Y64830537D01*
X11448815Y64751185D01*
X11369463Y64654494D01*
X11310498Y64544180D01*
X11274188Y64424482D01*
X11265375Y64335000D01*
X7578065Y64335000D01*
X7503475Y64446632D01*
X7296632Y64653475D01*
X7114466Y64775195D01*
X7231355Y64844822D01*
X7447588Y65039731D01*
X7621641Y65273080D01*
X7746825Y65535901D01*
X7791476Y65683110D01*
X7670155Y65913000D01*
X6477000Y65913000D01*
X6477000Y65893000D01*
X6223000Y65893000D01*
X6223000Y65913000D01*
X3937000Y65913000D01*
X3937000Y65893000D01*
X3683000Y65893000D01*
X3683000Y65913000D01*
X2489845Y65913000D01*
X2368524Y65683110D01*
X2413175Y65535901D01*
X2538359Y65273080D01*
X2712412Y65039731D01*
X2928645Y64844822D01*
X3045534Y64775195D01*
X2863368Y64653475D01*
X2656525Y64446632D01*
X2494010Y64203411D01*
X2382068Y63933158D01*
X2325000Y63646260D01*
X2325000Y63353740D01*
X2382068Y63066842D01*
X2494010Y62796589D01*
X2656525Y62553368D01*
X2863368Y62346525D01*
X3037760Y62230000D01*
X2863368Y62113475D01*
X2656525Y61906632D01*
X2494010Y61663411D01*
X2382068Y61393158D01*
X2325000Y61106260D01*
X2325000Y60813740D01*
X2382068Y60526842D01*
X2494010Y60256589D01*
X2656525Y60013368D01*
X2863368Y59806525D01*
X3037760Y59690000D01*
X2863368Y59573475D01*
X2656525Y59366632D01*
X2494010Y59123411D01*
X2382068Y58853158D01*
X2325000Y58566260D01*
X2325000Y58273740D01*
X2382068Y57986842D01*
X2494010Y57716589D01*
X2656525Y57473368D01*
X2692223Y57437670D01*
X1748800Y56494246D01*
X1748800Y77276654D01*
X2508311Y78036165D01*
X2538359Y77973080D01*
G37*
G04 #@! TD.AperFunction*
D22*
X10885764Y79021309D02*
X10858057Y78740000D01*
X10885764Y78458691D01*
X10967818Y78188192D01*
X11101068Y77938899D01*
X11280392Y77720392D01*
X11498899Y77541068D01*
X11748192Y77407818D01*
X12018691Y77325764D01*
X12229508Y77305000D01*
X12954133Y77305000D01*
X14269868Y75989264D01*
X14125363Y75844759D01*
X13968320Y75609727D01*
X13860147Y75348574D01*
X13805000Y75071335D01*
X13805000Y74788665D01*
X13860147Y74511426D01*
X13968320Y74250273D01*
X14125363Y74015241D01*
X14325241Y73815363D01*
X14560273Y73658320D01*
X14821426Y73550147D01*
X15098665Y73495000D01*
X15381335Y73495000D01*
X15658574Y73550147D01*
X15919727Y73658320D01*
X16154759Y73815363D01*
X16276694Y73937298D01*
X16926903Y73937298D01*
X16998486Y73693329D01*
X17253996Y73572429D01*
X17528184Y73503700D01*
X17810512Y73489783D01*
X18090130Y73531213D01*
X18356292Y73626397D01*
X18481514Y73693329D01*
X18553097Y73937298D01*
X17740000Y74750395D01*
X16926903Y73937298D01*
X16276694Y73937298D01*
X16354637Y74015241D01*
X16488692Y74215869D01*
X16503329Y74188486D01*
X16747298Y74116903D01*
X17560395Y74930000D01*
X17546253Y74944142D01*
X17725858Y75123747D01*
X17740000Y75109605D01*
X17754143Y75123747D01*
X17933748Y74944142D01*
X17919605Y74930000D01*
X18732702Y74116903D01*
X18976671Y74188486D01*
X19097571Y74443996D01*
X19166300Y74718184D01*
X19180217Y75000512D01*
X19138787Y75280130D01*
X19133326Y75295400D01*
X22419082Y75295400D01*
X22460100Y75291360D01*
X22501118Y75295400D01*
X22501119Y75295400D01*
X22623789Y75307482D01*
X22781187Y75355228D01*
X22926246Y75432764D01*
X23053391Y75537109D01*
X23079546Y75568979D01*
X25241633Y77731065D01*
X25250392Y77720392D01*
X25468899Y77541068D01*
X25718192Y77407818D01*
X25988691Y77325764D01*
X26199508Y77305000D01*
X26924133Y77305000D01*
X28239868Y75989264D01*
X28095363Y75844759D01*
X27938320Y75609727D01*
X27830147Y75348574D01*
X27775000Y75071335D01*
X27775000Y74788665D01*
X27830147Y74511426D01*
X27938320Y74250273D01*
X28095363Y74015241D01*
X28295241Y73815363D01*
X28530273Y73658320D01*
X28791426Y73550147D01*
X29068665Y73495000D01*
X29351335Y73495000D01*
X29628574Y73550147D01*
X29889727Y73658320D01*
X30124759Y73815363D01*
X30246694Y73937298D01*
X30896903Y73937298D01*
X30968486Y73693329D01*
X31223996Y73572429D01*
X31498184Y73503700D01*
X31780512Y73489783D01*
X32060130Y73531213D01*
X32326292Y73626397D01*
X32451514Y73693329D01*
X32523097Y73937298D01*
X31710000Y74750395D01*
X30896903Y73937298D01*
X30246694Y73937298D01*
X30324637Y74015241D01*
X30458692Y74215869D01*
X30473329Y74188486D01*
X30717298Y74116903D01*
X31530395Y74930000D01*
X31516253Y74944142D01*
X31695858Y75123747D01*
X31710000Y75109605D01*
X31724143Y75123747D01*
X31903748Y74944142D01*
X31889605Y74930000D01*
X32702702Y74116903D01*
X32946671Y74188486D01*
X33067571Y74443996D01*
X33136300Y74718184D01*
X33150217Y75000512D01*
X33108787Y75280130D01*
X33103326Y75295400D01*
X36389082Y75295400D01*
X36430100Y75291360D01*
X36471118Y75295400D01*
X36471119Y75295400D01*
X36593789Y75307482D01*
X36751187Y75355228D01*
X36896246Y75432764D01*
X37023391Y75537109D01*
X37049546Y75568979D01*
X39211633Y77731065D01*
X39220392Y77720392D01*
X39438899Y77541068D01*
X39688192Y77407818D01*
X39958691Y77325764D01*
X40169508Y77305000D01*
X40894133Y77305000D01*
X42209868Y75989264D01*
X42065363Y75844759D01*
X41908320Y75609727D01*
X41800147Y75348574D01*
X41745000Y75071335D01*
X41745000Y74788665D01*
X41800147Y74511426D01*
X41908320Y74250273D01*
X42065363Y74015241D01*
X42265241Y73815363D01*
X42500273Y73658320D01*
X42761426Y73550147D01*
X43038665Y73495000D01*
X43321335Y73495000D01*
X43598574Y73550147D01*
X43859727Y73658320D01*
X44094759Y73815363D01*
X44294637Y74015241D01*
X44428692Y74215869D01*
X44443329Y74188486D01*
X44687298Y74116903D01*
X45500395Y74930000D01*
X44687298Y75743097D01*
X44443329Y75671514D01*
X44429676Y75642659D01*
X44294637Y75844759D01*
X44094759Y76044637D01*
X44015000Y76097930D01*
X44015000Y76158993D01*
X44019039Y76200001D01*
X44015000Y76241009D01*
X44015000Y76241019D01*
X44002918Y76363689D01*
X43955172Y76521087D01*
X43877636Y76666146D01*
X43773291Y76793291D01*
X43741427Y76819441D01*
X42372297Y78188571D01*
X42454236Y78458691D01*
X42474520Y78664634D01*
X44960641Y76178513D01*
X44938486Y76166671D01*
X44866903Y75922702D01*
X45680000Y75109605D01*
X45694143Y75123747D01*
X45873748Y74944142D01*
X45859605Y74930000D01*
X45873748Y74915857D01*
X45694143Y74736252D01*
X45680000Y74750395D01*
X44866903Y73937298D01*
X44938486Y73693329D01*
X44953214Y73686360D01*
X43562736Y72295883D01*
X43546990Y72375045D01*
X43480277Y72536105D01*
X43383424Y72681055D01*
X43260155Y72804324D01*
X43115205Y72901177D01*
X42954145Y72967890D01*
X42783165Y73001900D01*
X42608835Y73001900D01*
X42437855Y72967890D01*
X42276795Y72901177D01*
X42131845Y72804324D01*
X42008576Y72681055D01*
X41911723Y72536105D01*
X41845010Y72375045D01*
X41827706Y72288053D01*
X38908654Y69369000D01*
X29693422Y69369000D01*
X29714367Y69418182D01*
X29731904Y69500961D01*
X29609915Y69723000D01*
X28067000Y69723000D01*
X28067000Y69703000D01*
X27813000Y69703000D01*
X27813000Y69723000D01*
X26270085Y69723000D01*
X26148096Y69500961D01*
X26165633Y69418182D01*
X26176378Y69392952D01*
X26084545Y69430990D01*
X25913565Y69465000D01*
X25739235Y69465000D01*
X25568255Y69430990D01*
X25407195Y69364277D01*
X25333447Y69315000D01*
X22057281Y69315000D01*
X22134236Y69568691D01*
X22161943Y69850000D01*
X22134236Y70131309D01*
X22113691Y70199039D01*
X26148096Y70199039D01*
X26270085Y69977000D01*
X27813000Y69977000D01*
X27813000Y71285000D01*
X28067000Y71285000D01*
X28067000Y69977000D01*
X29609915Y69977000D01*
X29731904Y70199039D01*
X29714367Y70281818D01*
X29603715Y70541646D01*
X29444500Y70774895D01*
X29242839Y70972601D01*
X29006483Y71127166D01*
X28744514Y71232650D01*
X28467000Y71285000D01*
X28067000Y71285000D01*
X27813000Y71285000D01*
X27413000Y71285000D01*
X27135486Y71232650D01*
X26873517Y71127166D01*
X26637161Y70972601D01*
X26435500Y70774895D01*
X26276285Y70541646D01*
X26165633Y70281818D01*
X26148096Y70199039D01*
X22113691Y70199039D01*
X22052182Y70401808D01*
X21918932Y70651101D01*
X21739608Y70869608D01*
X21521101Y71048932D01*
X21271808Y71182182D01*
X21001309Y71264236D01*
X20790492Y71285000D01*
X19849508Y71285000D01*
X19638691Y71264236D01*
X19368192Y71182182D01*
X19118899Y71048932D01*
X18900392Y70869608D01*
X18721068Y70651101D01*
X18587818Y70401808D01*
X18505764Y70131309D01*
X18478057Y69850000D01*
X18505764Y69568691D01*
X18582719Y69315000D01*
X7644883Y69315000D01*
X7503475Y69526632D01*
X7296632Y69733475D01*
X7122240Y69850000D01*
X7296632Y69966525D01*
X7503475Y70173368D01*
X7665990Y70416589D01*
X7777932Y70686842D01*
X7835000Y70973740D01*
X7835000Y71266260D01*
X7777932Y71553158D01*
X7665990Y71823411D01*
X7503475Y72066632D01*
X7296632Y72273475D01*
X7122240Y72390000D01*
X7296632Y72506525D01*
X7503475Y72713368D01*
X7665990Y72956589D01*
X7777932Y73226842D01*
X7835000Y73513740D01*
X7835000Y73806260D01*
X7777932Y74093158D01*
X7665990Y74363411D01*
X7503475Y74606632D01*
X7296632Y74813475D01*
X7122240Y74930000D01*
X7296632Y75046525D01*
X7503475Y75253368D01*
X7665990Y75496589D01*
X7777932Y75766842D01*
X7835000Y76053740D01*
X7835000Y76346260D01*
X7777932Y76633158D01*
X7734315Y76738458D01*
X7807185Y76745635D01*
X7945733Y76787663D01*
X8073420Y76855913D01*
X8185338Y76947762D01*
X8208359Y76975812D01*
X10507547Y79275000D01*
X10962719Y79275000D01*
X10885764Y79021309D01*
G04 #@! TA.AperFunction,Conductor*
D23*
G36*
X10885764Y79021309D02*
G01*
X10858057Y78740000D01*
X10885764Y78458691D01*
X10967818Y78188192D01*
X11101068Y77938899D01*
X11280392Y77720392D01*
X11498899Y77541068D01*
X11748192Y77407818D01*
X12018691Y77325764D01*
X12229508Y77305000D01*
X12954133Y77305000D01*
X14269868Y75989264D01*
X14125363Y75844759D01*
X13968320Y75609727D01*
X13860147Y75348574D01*
X13805000Y75071335D01*
X13805000Y74788665D01*
X13860147Y74511426D01*
X13968320Y74250273D01*
X14125363Y74015241D01*
X14325241Y73815363D01*
X14560273Y73658320D01*
X14821426Y73550147D01*
X15098665Y73495000D01*
X15381335Y73495000D01*
X15658574Y73550147D01*
X15919727Y73658320D01*
X16154759Y73815363D01*
X16276694Y73937298D01*
X16926903Y73937298D01*
X16998486Y73693329D01*
X17253996Y73572429D01*
X17528184Y73503700D01*
X17810512Y73489783D01*
X18090130Y73531213D01*
X18356292Y73626397D01*
X18481514Y73693329D01*
X18553097Y73937298D01*
X17740000Y74750395D01*
X16926903Y73937298D01*
X16276694Y73937298D01*
X16354637Y74015241D01*
X16488692Y74215869D01*
X16503329Y74188486D01*
X16747298Y74116903D01*
X17560395Y74930000D01*
X17546253Y74944142D01*
X17725858Y75123747D01*
X17740000Y75109605D01*
X17754143Y75123747D01*
X17933748Y74944142D01*
X17919605Y74930000D01*
X18732702Y74116903D01*
X18976671Y74188486D01*
X19097571Y74443996D01*
X19166300Y74718184D01*
X19180217Y75000512D01*
X19138787Y75280130D01*
X19133326Y75295400D01*
X22419082Y75295400D01*
X22460100Y75291360D01*
X22501118Y75295400D01*
X22501119Y75295400D01*
X22623789Y75307482D01*
X22781187Y75355228D01*
X22926246Y75432764D01*
X23053391Y75537109D01*
X23079546Y75568979D01*
X25241633Y77731065D01*
X25250392Y77720392D01*
X25468899Y77541068D01*
X25718192Y77407818D01*
X25988691Y77325764D01*
X26199508Y77305000D01*
X26924133Y77305000D01*
X28239868Y75989264D01*
X28095363Y75844759D01*
X27938320Y75609727D01*
X27830147Y75348574D01*
X27775000Y75071335D01*
X27775000Y74788665D01*
X27830147Y74511426D01*
X27938320Y74250273D01*
X28095363Y74015241D01*
X28295241Y73815363D01*
X28530273Y73658320D01*
X28791426Y73550147D01*
X29068665Y73495000D01*
X29351335Y73495000D01*
X29628574Y73550147D01*
X29889727Y73658320D01*
X30124759Y73815363D01*
X30246694Y73937298D01*
X30896903Y73937298D01*
X30968486Y73693329D01*
X31223996Y73572429D01*
X31498184Y73503700D01*
X31780512Y73489783D01*
X32060130Y73531213D01*
X32326292Y73626397D01*
X32451514Y73693329D01*
X32523097Y73937298D01*
X31710000Y74750395D01*
X30896903Y73937298D01*
X30246694Y73937298D01*
X30324637Y74015241D01*
X30458692Y74215869D01*
X30473329Y74188486D01*
X30717298Y74116903D01*
X31530395Y74930000D01*
X31516253Y74944142D01*
X31695858Y75123747D01*
X31710000Y75109605D01*
X31724143Y75123747D01*
X31903748Y74944142D01*
X31889605Y74930000D01*
X32702702Y74116903D01*
X32946671Y74188486D01*
X33067571Y74443996D01*
X33136300Y74718184D01*
X33150217Y75000512D01*
X33108787Y75280130D01*
X33103326Y75295400D01*
X36389082Y75295400D01*
X36430100Y75291360D01*
X36471118Y75295400D01*
X36471119Y75295400D01*
X36593789Y75307482D01*
X36751187Y75355228D01*
X36896246Y75432764D01*
X37023391Y75537109D01*
X37049546Y75568979D01*
X39211633Y77731065D01*
X39220392Y77720392D01*
X39438899Y77541068D01*
X39688192Y77407818D01*
X39958691Y77325764D01*
X40169508Y77305000D01*
X40894133Y77305000D01*
X42209868Y75989264D01*
X42065363Y75844759D01*
X41908320Y75609727D01*
X41800147Y75348574D01*
X41745000Y75071335D01*
X41745000Y74788665D01*
X41800147Y74511426D01*
X41908320Y74250273D01*
X42065363Y74015241D01*
X42265241Y73815363D01*
X42500273Y73658320D01*
X42761426Y73550147D01*
X43038665Y73495000D01*
X43321335Y73495000D01*
X43598574Y73550147D01*
X43859727Y73658320D01*
X44094759Y73815363D01*
X44294637Y74015241D01*
X44428692Y74215869D01*
X44443329Y74188486D01*
X44687298Y74116903D01*
X45500395Y74930000D01*
X44687298Y75743097D01*
X44443329Y75671514D01*
X44429676Y75642659D01*
X44294637Y75844759D01*
X44094759Y76044637D01*
X44015000Y76097930D01*
X44015000Y76158993D01*
X44019039Y76200001D01*
X44015000Y76241009D01*
X44015000Y76241019D01*
X44002918Y76363689D01*
X43955172Y76521087D01*
X43877636Y76666146D01*
X43773291Y76793291D01*
X43741427Y76819441D01*
X42372297Y78188571D01*
X42454236Y78458691D01*
X42474520Y78664634D01*
X44960641Y76178513D01*
X44938486Y76166671D01*
X44866903Y75922702D01*
X45680000Y75109605D01*
X45694143Y75123747D01*
X45873748Y74944142D01*
X45859605Y74930000D01*
X45873748Y74915857D01*
X45694143Y74736252D01*
X45680000Y74750395D01*
X44866903Y73937298D01*
X44938486Y73693329D01*
X44953214Y73686360D01*
X43562736Y72295883D01*
X43546990Y72375045D01*
X43480277Y72536105D01*
X43383424Y72681055D01*
X43260155Y72804324D01*
X43115205Y72901177D01*
X42954145Y72967890D01*
X42783165Y73001900D01*
X42608835Y73001900D01*
X42437855Y72967890D01*
X42276795Y72901177D01*
X42131845Y72804324D01*
X42008576Y72681055D01*
X41911723Y72536105D01*
X41845010Y72375045D01*
X41827706Y72288053D01*
X38908654Y69369000D01*
X29693422Y69369000D01*
X29714367Y69418182D01*
X29731904Y69500961D01*
X29609915Y69723000D01*
X28067000Y69723000D01*
X28067000Y69703000D01*
X27813000Y69703000D01*
X27813000Y69723000D01*
X26270085Y69723000D01*
X26148096Y69500961D01*
X26165633Y69418182D01*
X26176378Y69392952D01*
X26084545Y69430990D01*
X25913565Y69465000D01*
X25739235Y69465000D01*
X25568255Y69430990D01*
X25407195Y69364277D01*
X25333447Y69315000D01*
X22057281Y69315000D01*
X22134236Y69568691D01*
X22161943Y69850000D01*
X22134236Y70131309D01*
X22113691Y70199039D01*
X26148096Y70199039D01*
X26270085Y69977000D01*
X27813000Y69977000D01*
X27813000Y71285000D01*
X28067000Y71285000D01*
X28067000Y69977000D01*
X29609915Y69977000D01*
X29731904Y70199039D01*
X29714367Y70281818D01*
X29603715Y70541646D01*
X29444500Y70774895D01*
X29242839Y70972601D01*
X29006483Y71127166D01*
X28744514Y71232650D01*
X28467000Y71285000D01*
X28067000Y71285000D01*
X27813000Y71285000D01*
X27413000Y71285000D01*
X27135486Y71232650D01*
X26873517Y71127166D01*
X26637161Y70972601D01*
X26435500Y70774895D01*
X26276285Y70541646D01*
X26165633Y70281818D01*
X26148096Y70199039D01*
X22113691Y70199039D01*
X22052182Y70401808D01*
X21918932Y70651101D01*
X21739608Y70869608D01*
X21521101Y71048932D01*
X21271808Y71182182D01*
X21001309Y71264236D01*
X20790492Y71285000D01*
X19849508Y71285000D01*
X19638691Y71264236D01*
X19368192Y71182182D01*
X19118899Y71048932D01*
X18900392Y70869608D01*
X18721068Y70651101D01*
X18587818Y70401808D01*
X18505764Y70131309D01*
X18478057Y69850000D01*
X18505764Y69568691D01*
X18582719Y69315000D01*
X7644883Y69315000D01*
X7503475Y69526632D01*
X7296632Y69733475D01*
X7122240Y69850000D01*
X7296632Y69966525D01*
X7503475Y70173368D01*
X7665990Y70416589D01*
X7777932Y70686842D01*
X7835000Y70973740D01*
X7835000Y71266260D01*
X7777932Y71553158D01*
X7665990Y71823411D01*
X7503475Y72066632D01*
X7296632Y72273475D01*
X7122240Y72390000D01*
X7296632Y72506525D01*
X7503475Y72713368D01*
X7665990Y72956589D01*
X7777932Y73226842D01*
X7835000Y73513740D01*
X7835000Y73806260D01*
X7777932Y74093158D01*
X7665990Y74363411D01*
X7503475Y74606632D01*
X7296632Y74813475D01*
X7122240Y74930000D01*
X7296632Y75046525D01*
X7503475Y75253368D01*
X7665990Y75496589D01*
X7777932Y75766842D01*
X7835000Y76053740D01*
X7835000Y76346260D01*
X7777932Y76633158D01*
X7734315Y76738458D01*
X7807185Y76745635D01*
X7945733Y76787663D01*
X8073420Y76855913D01*
X8185338Y76947762D01*
X8208359Y76975812D01*
X10507547Y79275000D01*
X10962719Y79275000D01*
X10885764Y79021309D01*
G37*
G04 #@! TD.AperFunction*
D22*
X10858057Y86360000D02*
X10885764Y86078691D01*
X10967818Y85808192D01*
X11101068Y85558899D01*
X11280392Y85340392D01*
X11498899Y85161068D01*
X11631858Y85090000D01*
X11498899Y85018932D01*
X11280392Y84839608D01*
X11101068Y84621101D01*
X10967818Y84371808D01*
X10885764Y84101309D01*
X10858057Y83820000D01*
X10885764Y83538691D01*
X10967818Y83268192D01*
X11101068Y83018899D01*
X11280392Y82800392D01*
X11498899Y82621068D01*
X11631858Y82550000D01*
X11498899Y82478932D01*
X11280392Y82299608D01*
X11101068Y82081101D01*
X10967818Y81831808D01*
X10885764Y81561309D01*
X10858057Y81280000D01*
X10885764Y80998691D01*
X10962719Y80745000D01*
X10239194Y80745000D01*
X10203099Y80748555D01*
X10167004Y80745000D01*
X10166995Y80745000D01*
X10059015Y80734365D01*
X9920467Y80692337D01*
X9792780Y80624087D01*
X9680862Y80532238D01*
X9657846Y80504193D01*
X7703489Y78549835D01*
X7670155Y78613000D01*
X6477000Y78613000D01*
X6477000Y78593000D01*
X6223000Y78593000D01*
X6223000Y78613000D01*
X3937000Y78613000D01*
X3937000Y78593000D01*
X3683000Y78593000D01*
X3683000Y78613000D01*
X3663000Y78613000D01*
X3663000Y78867000D01*
X3683000Y78867000D01*
X3683000Y78887000D01*
X3937000Y78887000D01*
X3937000Y78867000D01*
X6223000Y78867000D01*
X6223000Y80060814D01*
X6477000Y80060814D01*
X6477000Y78867000D01*
X7670155Y78867000D01*
X7791476Y79096890D01*
X7746825Y79244099D01*
X7621641Y79506920D01*
X7447588Y79740269D01*
X7231355Y79935178D01*
X6981252Y80084157D01*
X6706891Y80181481D01*
X6477000Y80060814D01*
X6223000Y80060814D01*
X5993109Y80181481D01*
X5718748Y80084157D01*
X5468645Y79935178D01*
X5252412Y79740269D01*
X5080000Y79509120D01*
X4907588Y79740269D01*
X4691355Y79935178D01*
X4513354Y80041208D01*
X10860888Y86388741D01*
X10858057Y86360000D01*
G04 #@! TA.AperFunction,Conductor*
D23*
G36*
X10858057Y86360000D02*
G01*
X10885764Y86078691D01*
X10967818Y85808192D01*
X11101068Y85558899D01*
X11280392Y85340392D01*
X11498899Y85161068D01*
X11631858Y85090000D01*
X11498899Y85018932D01*
X11280392Y84839608D01*
X11101068Y84621101D01*
X10967818Y84371808D01*
X10885764Y84101309D01*
X10858057Y83820000D01*
X10885764Y83538691D01*
X10967818Y83268192D01*
X11101068Y83018899D01*
X11280392Y82800392D01*
X11498899Y82621068D01*
X11631858Y82550000D01*
X11498899Y82478932D01*
X11280392Y82299608D01*
X11101068Y82081101D01*
X10967818Y81831808D01*
X10885764Y81561309D01*
X10858057Y81280000D01*
X10885764Y80998691D01*
X10962719Y80745000D01*
X10239194Y80745000D01*
X10203099Y80748555D01*
X10167004Y80745000D01*
X10166995Y80745000D01*
X10059015Y80734365D01*
X9920467Y80692337D01*
X9792780Y80624087D01*
X9680862Y80532238D01*
X9657846Y80504193D01*
X7703489Y78549835D01*
X7670155Y78613000D01*
X6477000Y78613000D01*
X6477000Y78593000D01*
X6223000Y78593000D01*
X6223000Y78613000D01*
X3937000Y78613000D01*
X3937000Y78593000D01*
X3683000Y78593000D01*
X3683000Y78613000D01*
X3663000Y78613000D01*
X3663000Y78867000D01*
X3683000Y78867000D01*
X3683000Y78887000D01*
X3937000Y78887000D01*
X3937000Y78867000D01*
X6223000Y78867000D01*
X6223000Y80060814D01*
X6477000Y80060814D01*
X6477000Y78867000D01*
X7670155Y78867000D01*
X7791476Y79096890D01*
X7746825Y79244099D01*
X7621641Y79506920D01*
X7447588Y79740269D01*
X7231355Y79935178D01*
X6981252Y80084157D01*
X6706891Y80181481D01*
X6477000Y80060814D01*
X6223000Y80060814D01*
X5993109Y80181481D01*
X5718748Y80084157D01*
X5468645Y79935178D01*
X5252412Y79740269D01*
X5080000Y79509120D01*
X4907588Y79740269D01*
X4691355Y79935178D01*
X4513354Y80041208D01*
X10860888Y86388741D01*
X10858057Y86360000D01*
G37*
G04 #@! TD.AperFunction*
M02*
