G04 #@! TF.GenerationSoftware,KiCad,Pcbnew,(5.1.9)-1*
G04 #@! TF.CreationDate,2025-02-11T22:07:12+09:00*
G04 #@! TF.ProjectId,JR-200_SD,4a522d32-3030-45f5-9344-2e6b69636164,rev?*
G04 #@! TF.SameCoordinates,PX53920b0PY93c3260*
G04 #@! TF.FileFunction,Soldermask,Bot*
G04 #@! TF.FilePolarity,Negative*
%FSLAX46Y46*%
G04 Gerber Fmt 4.6, Leading zero omitted, Abs format (unit mm)*
G04 Created by KiCad (PCBNEW (5.1.9)-1) date 2025-02-11 22:07:12*
%MOMM*%
%LPD*%
G01*
G04 APERTURE LIST*
%ADD10C,1.600000*%
%ADD11C,3.200000*%
%ADD12R,1.700000X1.700000*%
%ADD13O,1.700000X1.700000*%
%ADD14R,1.600000X1.600000*%
%ADD15O,1.600000X1.600000*%
%ADD16O,2.400000X1.600000*%
%ADD17R,2.400000X1.600000*%
%ADD18R,1.600000X2.400000*%
%ADD19O,1.600000X2.400000*%
G04 APERTURE END LIST*
D10*
X44450000Y58420000D03*
X41950000Y58420000D03*
X54610000Y77470000D03*
X54610000Y79970000D03*
D11*
X5000000Y95000000D03*
X95000000Y95000000D03*
X95000000Y5000000D03*
X5000000Y5000000D03*
D12*
X69850000Y58420000D03*
D13*
X69850000Y55880000D03*
X69850000Y53340000D03*
X69850000Y50800000D03*
X69850000Y48260000D03*
X69850000Y45720000D03*
X69850000Y43180000D03*
X69850000Y40640000D03*
X69850000Y38100000D03*
X97790000Y38100000D03*
X95250000Y38100000D03*
X97790000Y58420000D03*
X95250000Y58420000D03*
D14*
X90170000Y27940000D03*
D15*
X87630000Y27940000D03*
X85090000Y27940000D03*
X62230000Y12700000D03*
X82550000Y27940000D03*
X64770000Y12700000D03*
X80010000Y27940000D03*
X67310000Y12700000D03*
X77470000Y27940000D03*
X69850000Y12700000D03*
X74930000Y27940000D03*
X72390000Y12700000D03*
X72390000Y27940000D03*
X74930000Y12700000D03*
X69850000Y27940000D03*
X77470000Y12700000D03*
X67310000Y27940000D03*
X80010000Y12700000D03*
X64770000Y27940000D03*
X82550000Y12700000D03*
X62230000Y27940000D03*
X85090000Y12700000D03*
X87630000Y12700000D03*
X90170000Y12700000D03*
X81280000Y15240000D03*
X78740000Y15240000D03*
X71120000Y15240000D03*
X68580000Y15240000D03*
D12*
X60960000Y53975000D03*
D13*
X60960000Y51435000D03*
X60960000Y48895000D03*
X60960000Y46355000D03*
X60960000Y43815000D03*
X60960000Y41275000D03*
D12*
X6350000Y17780000D03*
D13*
X3810000Y17780000D03*
X6350000Y20320000D03*
X3810000Y20320000D03*
X6350000Y22860000D03*
X3810000Y22860000D03*
X6350000Y25400000D03*
X3810000Y25400000D03*
X6350000Y27940000D03*
X3810000Y27940000D03*
X6350000Y30480000D03*
X3810000Y30480000D03*
X6350000Y33020000D03*
X3810000Y33020000D03*
X6350000Y35560000D03*
X3810000Y35560000D03*
X6350000Y38100000D03*
X3810000Y38100000D03*
X6350000Y40640000D03*
X3810000Y40640000D03*
X6350000Y43180000D03*
X3810000Y43180000D03*
X6350000Y45720000D03*
X3810000Y45720000D03*
X6350000Y48260000D03*
X3810000Y48260000D03*
X6350000Y50800000D03*
X3810000Y50800000D03*
X6350000Y53340000D03*
X3810000Y53340000D03*
X6350000Y55880000D03*
X3810000Y55880000D03*
X6350000Y58420000D03*
X3810000Y58420000D03*
X6350000Y60960000D03*
X3810000Y60960000D03*
X6350000Y63500000D03*
X3810000Y63500000D03*
X6350000Y66040000D03*
X3810000Y66040000D03*
X6350000Y68580000D03*
X3810000Y68580000D03*
X6350000Y71120000D03*
X3810000Y71120000D03*
X6350000Y73660000D03*
X3810000Y73660000D03*
X6350000Y76200000D03*
X3810000Y76200000D03*
X6350000Y78740000D03*
X3810000Y78740000D03*
D14*
X12700000Y63500000D03*
D10*
X15200000Y63500000D03*
D16*
X20320000Y30480000D03*
X27940000Y45720000D03*
X20320000Y33020000D03*
X27940000Y43180000D03*
X20320000Y35560000D03*
X27940000Y40640000D03*
X20320000Y38100000D03*
X27940000Y38100000D03*
X20320000Y40640000D03*
X27940000Y35560000D03*
X20320000Y43180000D03*
X27940000Y33020000D03*
X20320000Y45720000D03*
D17*
X27940000Y30480000D03*
X27940000Y54610000D03*
D16*
X20320000Y69850000D03*
X27940000Y57150000D03*
X20320000Y67310000D03*
X27940000Y59690000D03*
X20320000Y64770000D03*
X27940000Y62230000D03*
X20320000Y62230000D03*
X27940000Y64770000D03*
X20320000Y59690000D03*
X27940000Y67310000D03*
X20320000Y57150000D03*
X27940000Y69850000D03*
X20320000Y54610000D03*
D17*
X34290000Y78740000D03*
D16*
X26670000Y93980000D03*
X34290000Y81280000D03*
X26670000Y91440000D03*
X34290000Y83820000D03*
X26670000Y88900000D03*
X34290000Y86360000D03*
X26670000Y86360000D03*
X34290000Y88900000D03*
X26670000Y83820000D03*
X34290000Y91440000D03*
X26670000Y81280000D03*
X34290000Y93980000D03*
X26670000Y78740000D03*
X20320000Y6350000D03*
X27940000Y21590000D03*
X20320000Y8890000D03*
X27940000Y19050000D03*
X20320000Y11430000D03*
X27940000Y16510000D03*
X20320000Y13970000D03*
X27940000Y13970000D03*
X20320000Y16510000D03*
X27940000Y11430000D03*
X20320000Y19050000D03*
X27940000Y8890000D03*
X20320000Y21590000D03*
D17*
X27940000Y6350000D03*
D16*
X12700000Y78740000D03*
X20320000Y93980000D03*
X12700000Y81280000D03*
X20320000Y91440000D03*
X12700000Y83820000D03*
X20320000Y88900000D03*
X12700000Y86360000D03*
X20320000Y86360000D03*
X12700000Y88900000D03*
X20320000Y83820000D03*
X12700000Y91440000D03*
X20320000Y81280000D03*
X12700000Y93980000D03*
D17*
X20320000Y78740000D03*
D10*
X22860000Y50800000D03*
X25360000Y50800000D03*
X22860000Y2540000D03*
X25360000Y2540000D03*
X15240000Y74930000D03*
X17740000Y74930000D03*
X25400000Y26670000D03*
X22900000Y26670000D03*
X29210000Y74930000D03*
X31710000Y74930000D03*
X45680000Y74930000D03*
X43180000Y74930000D03*
D12*
X56515000Y93345000D03*
D13*
X59055000Y93345000D03*
X61595000Y93345000D03*
X86995000Y93345000D03*
X84455000Y93345000D03*
D12*
X81915000Y93345000D03*
D18*
X58420000Y71120000D03*
D19*
X91440000Y86360000D03*
X60960000Y71120000D03*
X88900000Y86360000D03*
X63500000Y71120000D03*
X86360000Y86360000D03*
X66040000Y71120000D03*
X83820000Y86360000D03*
X68580000Y71120000D03*
X81280000Y86360000D03*
X71120000Y71120000D03*
X78740000Y86360000D03*
X73660000Y71120000D03*
X76200000Y86360000D03*
X76200000Y71120000D03*
X73660000Y86360000D03*
X78740000Y71120000D03*
X71120000Y86360000D03*
X81280000Y71120000D03*
X68580000Y86360000D03*
X83820000Y71120000D03*
X66040000Y86360000D03*
X86360000Y71120000D03*
X63500000Y86360000D03*
X88900000Y71120000D03*
X60960000Y86360000D03*
X91440000Y71120000D03*
X58420000Y86360000D03*
D17*
X50500000Y6350000D03*
D16*
X35260000Y54610000D03*
X50500000Y8890000D03*
X35260000Y52070000D03*
X50500000Y11430000D03*
X35260000Y49530000D03*
X50500000Y13970000D03*
X35260000Y46990000D03*
X50500000Y16510000D03*
X35260000Y44450000D03*
X50500000Y19050000D03*
X35260000Y41910000D03*
X50500000Y21590000D03*
X35260000Y39370000D03*
X50500000Y24130000D03*
X35260000Y36830000D03*
X50500000Y26670000D03*
X35260000Y34290000D03*
X50500000Y29210000D03*
X35260000Y31750000D03*
X50500000Y31750000D03*
X35260000Y29210000D03*
X50500000Y34290000D03*
X35260000Y26670000D03*
X50500000Y36830000D03*
X35260000Y24130000D03*
X50500000Y39370000D03*
X35260000Y21590000D03*
X50500000Y41910000D03*
X35260000Y19050000D03*
X50500000Y44450000D03*
X35260000Y16510000D03*
X50500000Y46990000D03*
X35260000Y13970000D03*
X50500000Y49530000D03*
X35260000Y11430000D03*
X50500000Y52070000D03*
X35260000Y8890000D03*
X50500000Y54610000D03*
X35260000Y6350000D03*
D17*
X48260000Y78740000D03*
D16*
X40640000Y93980000D03*
X48260000Y81280000D03*
X40640000Y91440000D03*
X48260000Y83820000D03*
X40640000Y88900000D03*
X48260000Y86360000D03*
X40640000Y86360000D03*
X48260000Y88900000D03*
X40640000Y83820000D03*
X48260000Y91440000D03*
X40640000Y81280000D03*
X48260000Y93980000D03*
X40640000Y78740000D03*
M02*
