M48
; DRILL file {KiCad (5.1.9)-1} date 01/16/25 13:32:42
; FORMAT={-:-/ absolute / metric / decimal}
; #@! TF.CreationDate,2025-01-16T13:32:42+09:00
; #@! TF.GenerationSoftware,Kicad,Pcbnew,(5.1.9)-1
FMAT,2
METRIC
T1C0.300
T2C0.800
T3C1.000
T4C3.200
%
G90
G05
T1
X7.914Y23.837
X15.6Y44.57
X20.586Y20.32
X22.402Y17.423
X23.094Y60.959
X25.127Y69.519
X25.583Y32.928
X25.656Y33.728
X25.809Y12.439
X25.826Y68.58
X32.749Y18.42
X38.437Y17.361
X40.376Y44.964
X41.156Y19.744
X41.337Y46.828
X41.978Y47.781
X42.053Y49.741
X42.603Y60.192
X42.696Y72.117
X44.354Y56.73
X44.767Y59.695
X45.373Y61.111
X46.038Y92.195
X49.241Y59.973
X49.337Y33.66
X51.634Y25.502
X60.315Y68.647
X62.866Y72.738
T2
X12.7Y93.98
X12.7Y91.44
X12.7Y88.9
X12.7Y86.36
X12.7Y83.82
X12.7Y81.28
X12.7Y78.74
X12.7Y63.5
X15.2Y63.5
X15.24Y74.93
X17.74Y74.93
X20.32Y93.98
X20.32Y91.44
X20.32Y88.9
X20.32Y86.36
X20.32Y83.82
X20.32Y81.28
X20.32Y78.74
X20.32Y69.85
X20.32Y67.31
X20.32Y64.77
X20.32Y62.23
X20.32Y59.69
X20.32Y57.15
X20.32Y54.61
X20.32Y45.72
X20.32Y43.18
X20.32Y40.64
X20.32Y38.1
X20.32Y35.56
X20.32Y33.02
X20.32Y30.48
X20.32Y21.59
X20.32Y19.05
X20.32Y16.51
X20.32Y13.97
X20.32Y11.43
X20.32Y8.89
X20.32Y6.35
X22.86Y50.8
X22.86Y2.54
X22.9Y26.67
X25.36Y50.8
X25.36Y2.54
X25.4Y26.67
X26.67Y93.98
X26.67Y91.44
X26.67Y88.9
X26.67Y86.36
X26.67Y83.82
X26.67Y81.28
X26.67Y78.74
X27.94Y69.85
X27.94Y67.31
X27.94Y64.77
X27.94Y62.23
X27.94Y59.69
X27.94Y57.15
X27.94Y54.61
X27.94Y45.72
X27.94Y43.18
X27.94Y40.64
X27.94Y38.1
X27.94Y35.56
X27.94Y33.02
X27.94Y30.48
X27.94Y21.59
X27.94Y19.05
X27.94Y16.51
X27.94Y13.97
X27.94Y11.43
X27.94Y8.89
X27.94Y6.35
X29.21Y74.93
X31.71Y74.93
X34.29Y93.98
X34.29Y91.44
X34.29Y88.9
X34.29Y86.36
X34.29Y83.82
X34.29Y81.28
X34.29Y78.74
X35.597Y54.712
X35.597Y52.172
X35.597Y49.632
X35.597Y47.092
X35.597Y44.552
X35.597Y42.012
X35.597Y39.472
X35.597Y36.932
X35.597Y34.392
X35.597Y31.852
X35.597Y29.312
X35.597Y26.772
X35.597Y24.232
X35.597Y21.692
X35.597Y19.152
X35.597Y16.612
X35.597Y14.072
X35.597Y11.532
X35.597Y8.992
X35.597Y6.452
X40.64Y93.98
X40.64Y91.44
X40.64Y88.9
X40.64Y86.36
X40.64Y83.82
X40.64Y81.28
X40.64Y78.74
X41.312Y58.522
X43.18Y74.93
X43.812Y58.522
X45.68Y74.93
X48.26Y93.98
X48.26Y91.44
X48.26Y88.9
X48.26Y86.36
X48.26Y83.82
X48.26Y81.28
X48.26Y78.74
X50.837Y54.712
X50.837Y52.172
X50.837Y49.632
X50.837Y47.092
X50.837Y44.552
X50.837Y42.012
X50.837Y39.472
X50.837Y36.932
X50.837Y34.392
X50.837Y31.852
X50.837Y29.312
X50.837Y26.772
X50.837Y24.232
X50.837Y21.692
X50.837Y19.152
X50.837Y16.612
X50.837Y14.072
X50.837Y11.532
X50.837Y8.992
X50.837Y6.452
X54.61Y79.97
X54.61Y77.47
X58.42Y86.36
X58.42Y71.12
X60.96Y86.36
X60.96Y71.12
X62.23Y27.94
X62.23Y12.7
X63.5Y86.36
X63.5Y71.12
X64.77Y27.94
X64.77Y12.7
X66.04Y86.36
X66.04Y71.12
X67.31Y27.94
X67.31Y12.7
X68.58Y86.36
X68.58Y71.12
X68.58Y15.24
X69.85Y27.94
X69.85Y12.7
X71.12Y86.36
X71.12Y71.12
X71.12Y15.24
X72.39Y27.94
X72.39Y12.7
X73.66Y86.36
X73.66Y71.12
X74.93Y27.94
X74.93Y12.7
X76.2Y86.36
X76.2Y71.12
X77.47Y27.94
X77.47Y12.7
X78.74Y86.36
X78.74Y71.12
X78.74Y15.24
X80.01Y27.94
X80.01Y12.7
X81.28Y86.36
X81.28Y71.12
X81.28Y15.24
X82.55Y27.94
X82.55Y12.7
X83.82Y86.36
X83.82Y71.12
X85.09Y27.94
X85.09Y12.7
X86.36Y86.36
X86.36Y71.12
X87.63Y27.94
X87.63Y12.7
X88.9Y86.36
X88.9Y71.12
X90.17Y27.94
X90.17Y12.7
X91.44Y86.36
X91.44Y71.12
T3
X3.81Y78.74
X3.81Y76.2
X3.81Y73.66
X3.81Y71.12
X3.81Y68.58
X3.81Y66.04
X3.81Y63.5
X3.81Y60.96
X3.81Y58.42
X3.81Y55.88
X3.81Y53.34
X3.81Y50.8
X3.81Y48.26
X3.81Y45.72
X3.81Y43.18
X3.81Y40.64
X3.81Y38.1
X3.81Y35.56
X3.81Y33.02
X3.81Y30.48
X3.81Y27.94
X3.81Y25.4
X3.81Y22.86
X3.81Y20.32
X3.81Y17.78
X6.35Y78.74
X6.35Y76.2
X6.35Y73.66
X6.35Y71.12
X6.35Y68.58
X6.35Y66.04
X6.35Y63.5
X6.35Y60.96
X6.35Y58.42
X6.35Y55.88
X6.35Y53.34
X6.35Y50.8
X6.35Y48.26
X6.35Y45.72
X6.35Y43.18
X6.35Y40.64
X6.35Y38.1
X6.35Y35.56
X6.35Y33.02
X6.35Y30.48
X6.35Y27.94
X6.35Y25.4
X6.35Y22.86
X6.35Y20.32
X6.35Y17.78
X56.515Y93.345
X59.055Y93.345
X60.96Y53.975
X60.96Y51.435
X60.96Y48.895
X60.96Y46.355
X60.96Y43.815
X60.96Y41.275
X61.595Y93.345
X69.85Y58.42
X69.85Y55.88
X69.85Y53.34
X69.85Y50.8
X69.85Y48.26
X69.85Y45.72
X69.85Y43.18
X69.85Y40.64
X69.85Y38.1
X81.915Y93.345
X84.455Y93.345
X86.995Y93.345
X95.25Y58.42
X95.25Y38.1
X97.79Y58.42
X97.79Y38.1
T4
X5.0Y95.0
X5.0Y5.0
X95.0Y95.0
X95.0Y5.0
T0
M30
